#N canvas 8 60 1351 720 10;
#X text 352 43 note messages;
#X obj 369 93 inlet;
#X obj 317 864 outlet~;
#X text 25 10 synth voice with waveform change;
#X msg 245 629 0;
#X msg 293 711 1;
#X msg 411 710 1;
#X msg 154 715 1;
#X obj 154 613 sel 0 1 2 3;
#X msg 528 717 1;
#X text 166 487 change waveform;
#X obj 150 560 delay 2;
#X obj 164 587 f;
#X obj 179 531 t b a b;
#X obj 132 743 smoothswitch;
#X obj 266 749 smoothswitch;
#X obj 390 742 smoothswitch;
#X obj 501 746 smoothswitch;
#X obj 380 113 unpack 0 0;
#X obj 378 162 mtof;
#X obj 417 441 *~;
#X obj 362 206 sig~;
#X obj 387 357 osc~;
#X obj 718 33 > 1;
#X obj 687 156 sel 1;
#X obj 717 58 sel 0;
#X obj 742 202 nbx 4 14 5 1000 1 0 empty empty attack 0 -8 0 10 -262144
-1 -1 741.935 256;
#X obj 760 296 f;
#X obj 818 228 nbx 4 14 10 10000 1 1 empty empty decay 0 -8 0 10 -262144
-1 -1 1504.4 256;
#X msg 760 319 0 \$1;
#X msg 738 264 1 \$1;
#X obj 760 350 line~;
#X obj 713 237 float;
#X obj 655 401 nbx 4 14 1 1000 1 0 empty empty folding 0 -8 0 10 -262144
-1 -1 8.52395 256;
#X obj 484 358 expr~ $v1*(1-$v2);
#X obj 466 277 expr~ sin(2*3.14159*$v1);
#X obj 479 210 +~;
#X obj 662 491 *~;
#X obj 475 181 phasor~;
#X obj 934 259 nbx 4 14 0.01 1 1 1 empty empty sustain 0 -8 0 10 -262144
-1 -1 0.369501 256;
#X obj 850 159 delay 100;
#X msg 851 342 \$1 \$2;
#X obj 850 295 list;
#X obj 856 267 float;
#X obj 211 586 nbx 5 14 -1e+37 1e+37 0 0 empty empty empty 0 -8 0 10
-262144 -1 -1 2 256;
#X obj 401 257 nbx 5 14 -1e+37 1e+37 0 0 empty empty empty 0 -8 0 10
-262144 -1 -1 0 256;
#X obj 315 835 +~;
#X msg 884 82 stop;
#X obj 182 371 loadbang;
#X msg 110 486 1;
#X msg 591 385 10;
#X obj 673 623 *~ 0.5;
#X obj 794 696 *~;
#X obj 782 451 sig~;
#X obj 746 585 *~;
#X obj 794 480 lop~ 0.5;
#X obj 365 558 expr~ 0.8*tanh(1.2*$v1);
#X obj 558 194 *~;
#X obj 500 248 expr~ ($v1);
#X obj 334 188 / 2;
#X obj 751 639 expr~ .8*sin(1*$v1);
#X obj 267 500 expr~ .8*sin(1*$v1);
#X obj 870 510 +~ 1;
#X obj 873 430 osc~ 0.6;
#X obj 900 479 *~ 1;
#X obj 347 247 +~;
#X obj 199 182 *~ 1;
#X obj 196 139 osc~ 1;
#X obj 208 217 *~ 0.005;
#X obj 495 79 bng 15 250 50 0 empty empty empty 17 7 0 10 -262144 -1
-1;
#X obj 507 29 hsl 128 15 0 10 0 0 empty empty empty -2 -8 0 10 -262144
-1 -1 0 1;
#X obj 113 287 sig~ 0;
#X obj 177 507 r folder_type-\$1;
#X obj 724 123 r folder_attack-\$1;
#X obj 873 117 r folder_decay-\$1;
#X obj 950 183 r folder_sustain-\$1;
#X obj 614 324 r folder_folding-\$1;
#X obj 444 144 + 0;
#X obj 599 94 r folder_offset-\$1;
#X obj 1047 467 / 100;
#X obj 917 374 r folder_mrate-\$1;
#X obj 1053 421 r folder_mdepth-\$1;
#X obj 52 69 r folder_vrate-\$1;
#X obj 200 78 r folder_vdepth-\$1;
#X obj 288 120 * 0.0025;
#X obj 680 443 lop~ 200;
#X obj 654 349 * 0.2;
#X obj 1116 562 nbx 5 14 -1e+37 1e+37 0 0 empty empty empty 0 -8 0
10 -262144 -1 -1 0 256;
#X obj 811 529 *~;
#X obj 834 190 * 30;
#X obj 730 144 * 15;
#X obj 963 233 / 100;
#X connect 1 0 18 0;
#X connect 1 0 69 0;
#X connect 4 0 14 1;
#X connect 4 0 15 1;
#X connect 4 0 16 1;
#X connect 4 0 17 1;
#X connect 5 0 15 1;
#X connect 6 0 16 1;
#X connect 7 0 14 1;
#X connect 8 0 7 0;
#X connect 8 1 5 0;
#X connect 8 2 6 0;
#X connect 8 3 9 0;
#X connect 9 0 17 1;
#X connect 11 0 12 0;
#X connect 12 0 8 0;
#X connect 12 0 44 0;
#X connect 13 0 11 0;
#X connect 13 1 12 1;
#X connect 13 2 4 0;
#X connect 14 0 46 0;
#X connect 15 0 46 0;
#X connect 16 0 46 0;
#X connect 17 0 46 0;
#X connect 18 0 77 0;
#X connect 18 1 23 0;
#X connect 19 0 59 0;
#X connect 19 0 66 1;
#X connect 20 0 51 0;
#X connect 20 0 56 0;
#X connect 20 0 61 0;
#X connect 21 0 65 0;
#X connect 22 0 20 0;
#X connect 22 0 54 0;
#X connect 23 0 24 0;
#X connect 23 0 25 0;
#X connect 24 0 32 0;
#X connect 24 0 40 0;
#X connect 25 0 27 0;
#X connect 25 0 47 0;
#X connect 26 0 32 1;
#X connect 26 0 40 1;
#X connect 27 0 29 0;
#X connect 28 0 27 1;
#X connect 28 0 42 1;
#X connect 29 0 31 0;
#X connect 30 0 31 0;
#X connect 31 0 85 0;
#X connect 32 0 30 0;
#X connect 33 0 53 0;
#X connect 34 0 16 0;
#X connect 35 0 34 0;
#X connect 36 0 34 1;
#X connect 36 0 57 0;
#X connect 37 0 20 1;
#X connect 37 0 57 1;
#X connect 38 0 36 0;
#X connect 39 0 43 1;
#X connect 40 0 43 0;
#X connect 41 0 31 0;
#X connect 42 0 41 0;
#X connect 43 0 42 0;
#X connect 46 0 2 0;
#X connect 47 0 40 0;
#X connect 48 0 49 0;
#X connect 48 0 50 0;
#X connect 49 0 13 0;
#X connect 50 0 33 0;
#X connect 52 0 17 0;
#X connect 53 0 55 0;
#X connect 54 0 60 0;
#X connect 55 0 88 0;
#X connect 56 0 15 0;
#X connect 57 0 58 0;
#X connect 58 0 35 0;
#X connect 59 0 21 0;
#X connect 60 0 52 0;
#X connect 61 0 14 0;
#X connect 62 0 88 1;
#X connect 63 0 64 0;
#X connect 64 0 62 0;
#X connect 65 0 22 0;
#X connect 65 0 38 0;
#X connect 66 0 68 0;
#X connect 67 0 66 0;
#X connect 68 0 65 0;
#X connect 70 0 71 0;
#X connect 71 0 61 0;
#X connect 72 0 13 0;
#X connect 73 0 90 0;
#X connect 74 0 89 0;
#X connect 75 0 91 0;
#X connect 76 0 86 0;
#X connect 77 0 19 0;
#X connect 78 0 77 1;
#X connect 79 0 64 1;
#X connect 80 0 63 0;
#X connect 81 0 79 0;
#X connect 82 0 67 0;
#X connect 83 0 84 0;
#X connect 84 0 68 1;
#X connect 85 0 37 0;
#X connect 85 0 52 1;
#X connect 86 0 33 0;
#X connect 88 0 54 1;
#X connect 88 0 37 1;
#X connect 89 0 28 0;
#X connect 90 0 26 0;
#X connect 91 0 39 0;
