#N canvas 413 50 1503 1019 10;
#X obj 526 712 hip~ 5;
#X text 589 686 cut DC;
#X obj 528 569 *~, f 16;
#X obj 638 493 vline~;
#X msg 880 496 1 \$1;
#X obj 880 518 /;
#X obj 880 540 rmstodb;
#X obj 880 562 / 100;
#X obj 638 515 *~;
#X obj 638 537 *~;
#X obj 419 495 *~ 0.75;
#X obj 527 492 *~ 0.75;
#X obj 880 467 * 4;
#X obj 527 643 *~, f 51;
#X msg 677 452 0 20;
#X obj 410 113 abs;
#X obj 410 90 expr if ($f1 > 59 \, $f1 - 60 \, $f1 - 12);
#X text 695 90 allow all midi notes to trigger;
#X text 483 198 (key number);
#X obj 410 135 % 24;
#X obj 410 37 r rdd_notes-\$1;
#X obj 410 68 unpack, f 14;
#X obj 410 157 pack 0 0;
#X obj 410 240 sel 0;
#X msg 638 452 \$1 10;
#X obj 442 321 / 127;
#X obj 442 343 sqrt;
#X obj 410 198 route \$2;
#X obj 881 446 r rdd-voice-sum-\$1;
#X obj 419 473 r~ rdd_inL-\$1;
#X obj 527 470 r~ rdd_inR-\$1;
#X obj 742 493 r rdd_depth-\$1;
#X obj 742 515 / 100;
#X obj 442 365 sqrt;
#X obj 526 757 throw~ delay_voice_outR-\$1;
#X obj 880 583 lop~ 1000;
#X obj 680 126 r rdd_delLen-\$1;
#X obj 742 551 min 0.93;
#X obj 680 354 max 5;
#X obj 442 294 t f b, f 14;
#X obj 698 246 r loadbang-\$1;
#X obj 698 268 f \$2;
#X obj 680 312 *;
#X obj 698 290 + 1;
#X obj 528 601 delay2sec, f 31;
#X obj 527 676 *~ 0.75;
#X floatatom 300 225 5 0 0 0 - - -, f 5;
#X floatatom 344 319 5 0 0 0 - - -, f 5;
#X obj 680 168 t f f;
#X obj 680 190 *;
#X floatatom 694 411 5 0 0 0 - - -, f 5;
#X obj 680 148 / 100;
#X obj 680 212 * 100;
#X connect 0 0 34 0;
#X connect 2 0 44 0;
#X connect 3 0 8 0;
#X connect 3 0 8 1;
#X connect 4 0 5 0;
#X connect 5 0 6 0;
#X connect 6 0 7 0;
#X connect 7 0 35 0;
#X connect 8 0 9 0;
#X connect 8 0 9 1;
#X connect 9 0 2 1;
#X connect 10 0 2 0;
#X connect 11 0 2 0;
#X connect 12 0 4 0;
#X connect 13 0 45 0;
#X connect 14 0 3 0;
#X connect 15 0 19 0;
#X connect 16 0 15 0;
#X connect 19 0 22 0;
#X connect 20 0 21 0;
#X connect 21 0 16 0;
#X connect 21 1 22 1;
#X connect 22 0 27 0;
#X connect 22 0 46 0;
#X connect 23 0 14 0;
#X connect 23 1 39 0;
#X connect 24 0 3 0;
#X connect 25 0 26 0;
#X connect 26 0 33 0;
#X connect 27 0 23 0;
#X connect 27 0 47 0;
#X connect 28 0 12 0;
#X connect 29 0 10 0;
#X connect 30 0 11 0;
#X connect 31 0 32 0;
#X connect 32 0 37 0;
#X connect 33 0 24 0;
#X connect 35 0 13 1;
#X connect 36 0 51 0;
#X connect 37 0 44 2;
#X connect 38 0 44 1;
#X connect 38 0 50 0;
#X connect 39 0 25 0;
#X connect 40 0 41 0;
#X connect 41 0 43 0;
#X connect 42 0 38 0;
#X connect 43 0 42 1;
#X connect 44 0 13 0;
#X connect 45 0 0 0;
#X connect 48 0 49 0;
#X connect 48 1 49 1;
#X connect 49 0 52 0;
#X connect 51 0 48 0;
#X connect 52 0 42 0;
