#N canvas 25 50 997 848 10;
#X obj 532 263 lop~ 5;
#X obj 513 431 *~;
#X obj 160 141 inlet~;
#X obj 363 117 inlet;
#X obj 534 134 inlet;
#X obj 362 712 outlet~;
#X text 586 143 feedback;
#X text 406 116 time;
#X text 213 140 signal;
#X obj 363 214 lop~ 5;
#X obj 363 275 vd~ \$0del 2000;
#X obj 157 558 delwrite~ \$0del 2000;
#X obj 161 306 *~ 1;
#X obj 363 675 *~ 1;
#X connect 0 0 1 1;
#X connect 1 0 11 0;
#X connect 2 0 12 0;
#X connect 3 0 9 0;
#X connect 4 0 0 0;
#X connect 9 0 10 0;
#X connect 10 0 1 0;
#X connect 10 0 13 0;
#X connect 12 0 11 0;
#X connect 12 0 13 0;
#X connect 13 0 5 0;
