#N canvas 571 58 972 986 10;
#X obj 349 619 hip~ 5;
#X text 412 623 cut DC;
#X obj 349 500 distortionone;
#X obj 511 152 *;
#X obj 303 -23 abs;
#X obj 303 -46 expr if ($f1 > 59 \, $f1 - 60 \, $f1 - 12);
#X text 588 -46 allow all midi notes to trigger;
#X obj 349 585 *~, f 16;
#X obj 460 386 vline~;
#X text 376 52 (key number);
#X obj 303 -1 % 24;
#X msg 649 318 1 \$1;
#X obj 649 340 /;
#X obj 649 362 rmstodb;
#X obj 649 384 / 100;
#X obj 460 408 *~;
#X obj 118 394 *~ 0.75;
#X obj 349 394 *~ 0.75;
#X obj 349 532 *~, f 25;
#X obj 649 279 * 4;
#X obj 511 103 t f f;
#X obj 303 134 sel 0;
#X obj 335 174 / 127;
#X obj 335 196 sqrt;
#X obj 303 -100 r rdd_notes-\$1;
#X obj 649 406 lop~ 1000;
#X obj 303 -68 unpack, f 14;
#X obj 303 21 pack 0 0;
#X obj 649 257 r rdd-voice-sum-\$1;
#X obj 303 52 route \$2;
#X obj 118 372 r~ rdd_inL-\$1;
#X obj 349 372 r~ rdd_inR-\$1;
#X obj 511 50 r rdd_distLen-\$1;
#X obj 280 428 r rdd_depth-\$1;
#X obj 511 72 / 100;
#X obj 280 450 / 100;
#X obj 129 532 *~, f 25;
#X obj 129 574 *~;
#X obj 129 596 hip~ 5;
#X obj 119 664 throw~ distort_voice_outL-\$1;
#X obj 349 664 throw~ distort_voice_outR-\$1;
#X obj 511 223 max 1;
#X obj 511 198 * \$2, f 5;
#X obj 129 500 distortionone;
#X obj 225 344 r loadbang-\$1;
#X obj 225 366 \$2;
#X obj 225 388 - 12;
#X obj 225 410 / 12;
#X obj 335 218 pack 0 0;
#X text 636 56 controls distortion sustain;
#X msg 349 270 \$1 10 \, 0 \$2 10;
#X obj 511 176 * 50;
#X connect 0 0 40 0;
#X connect 2 0 18 0;
#X connect 3 0 51 0;
#X connect 4 0 10 0;
#X connect 5 0 4 0;
#X connect 7 0 0 0;
#X connect 8 0 15 0;
#X connect 8 0 15 1;
#X connect 10 0 27 0;
#X connect 11 0 12 0;
#X connect 12 0 13 0;
#X connect 13 0 14 0;
#X connect 14 0 25 0;
#X connect 15 0 7 1;
#X connect 15 0 37 1;
#X connect 16 0 43 0;
#X connect 17 0 2 0;
#X connect 18 0 7 0;
#X connect 19 0 11 0;
#X connect 20 0 3 0;
#X connect 20 1 3 1;
#X connect 21 1 22 0;
#X connect 22 0 23 0;
#X connect 23 0 48 0;
#X connect 24 0 26 0;
#X connect 25 0 18 1;
#X connect 25 0 36 1;
#X connect 26 0 5 0;
#X connect 26 1 27 1;
#X connect 27 0 29 0;
#X connect 28 0 19 0;
#X connect 29 0 21 0;
#X connect 30 0 16 0;
#X connect 31 0 17 0;
#X connect 32 0 34 0;
#X connect 33 0 35 0;
#X connect 34 0 20 0;
#X connect 35 0 2 1;
#X connect 35 0 43 1;
#X connect 36 0 37 0;
#X connect 37 0 38 0;
#X connect 38 0 39 0;
#X connect 41 0 48 1;
#X connect 42 0 41 0;
#X connect 43 0 36 0;
#X connect 44 0 45 0;
#X connect 45 0 46 0;
#X connect 46 0 47 0;
#X connect 47 0 43 2;
#X connect 47 0 2 2;
#X connect 48 0 50 0;
#X connect 50 0 8 0;
#X connect 51 0 42 0;
