#N canvas 305 94 834 693 10;
#X obj 304 186 r notesIn-\$1;
#X obj 304 491 s notesOut-\$1;
#X obj 23 9 r loaddefs-\$1;
#X msg 23 76 loaddefinitions \$1;
#X obj 181 9 r loadbang-\$1;
#X obj 181 76 print loading definiton for \$1;
#X obj 23 41 symbol;
#X obj 27 186 inlet~ inL-\$1;
#X obj 136 186 inlet~ inR-\$1;
#X obj 27 491 outlet~ outL-\$1;
#X obj 146 491 outlet~ outR-\$1;
#X obj 505 193 r auxIn-\$1;
#X obj 504 216 r expIn-\$1;
#N canvas 176 50 1524 914 synth 0;
#X text 137 13 Effects Manager;
#N canvas 603 191 1097 781 crossfade 0;
#X obj 33 48 inlet~;
#X obj 328 47 inlet;
#X obj 39 327 outlet~;
#X obj 49 194 expr cos($f1 * 3.14159 / 2);
#X obj 146 48 inlet~;
#X obj 244 194 expr sin($f1 * 3.14159 / 2);
#X obj 328 123 clip 0 1;
#X obj 83 48 inlet~;
#X obj 196 48 inlet~;
#X obj 179 327 outlet~;
#N canvas 11 50 594 632 pan_core 0;
#X obj 204 149 inlet~;
#X obj 499 169 inlet;
#X obj 242 302 *~;
#X obj 462 301 *~;
#X obj 279 170 inlet;
#X obj 452 147 inlet~;
#X obj 483 230 lop~ 5;
#X obj 267 241 lop~ 5;
#X obj 343 433 outlet~ right;
#X obj 192 440 outlet~ left;
#X obj 154 149 inlet~;
#X obj 402 147 inlet~;
#X obj 392 301 *~;
#X obj 152 302 *~;
#X connect 0 0 2 0;
#X connect 1 0 6 0;
#X connect 2 0 8 0;
#X connect 3 0 8 0;
#X connect 4 0 7 0;
#X connect 5 0 3 0;
#X connect 6 0 3 1;
#X connect 6 0 12 1;
#X connect 7 0 2 1;
#X connect 7 0 13 1;
#X connect 10 0 13 0;
#X connect 11 0 12 0;
#X connect 12 0 9 0;
#X connect 13 0 9 0;
#X restore 39 266 pd pan_core 0 0 0 0 0 0 0;
#X connect 0 0 10 0;
#X connect 1 0 6 0;
#X connect 3 0 10 2;
#X connect 4 0 10 3;
#X connect 5 0 10 5;
#X connect 6 0 3 0;
#X connect 6 0 5 0;
#X connect 7 0 10 1;
#X connect 8 0 10 4;
#X connect 10 0 2 0;
#X connect 10 1 9 0;
#X restore 566 298 pd crossfade;
#X obj 701 221 r rdd_wetdry-\$1;
#X obj 701 243 / 100;
#X obj 863 122 t a a;
#X obj 895 149 unpack 0 0;
#X obj 962 176 sel 0, f 10;
#X obj 995 292 + 1;
#X obj 962 216 t b b;
#X msg 1013 250 -1;
#X msg 1089 252 1;
#X obj 962 292 f 0;
#X obj 1029 216 t b b, f 9;
#X obj 995 323 max 1;
#X obj 995 349 s rdd-voice-sum-\$1;
#X obj 863 354 s rdd_notes-\$1;
#X obj 863 100 inlet notes;
#X obj 455 213 inlet~;
#X obj 550 183 inlet~;
#X obj 648 348 outlet~;
#X obj 565 349 outlet~;
#X obj 364 373 s~ rdd_inL-\$1;
#X obj 467 374 s~ rdd_inR-\$1;
#X obj 570 89 catch~ distort_voice_outL-\$1;
#X obj 607 111 catch~ distort_voice_outR-\$1;
#X obj 654 160 catch~ delay_voice_outR-\$1;
#X obj 156 311 distortion-voice \$1 23;
#X obj 156 146 distortion-voice \$1 16;
#X obj 156 56 distortion-voice \$1 12;
#X obj 160 197 distortion-voice \$1 18;
#X obj 156 289 distortion-voice \$1 22;
#X obj 158 266 distortion-voice \$1 21;
#X obj 159 244 distortion-voice \$1 20;
#X obj 161 221 distortion-voice \$1 19;
#X obj 157 171 distortion-voice \$1 17;
#X obj 155 125 distortion-voice \$1 15;
#X obj 154 103 distortion-voice \$1 14;
#X obj 154 79 distortion-voice \$1 13;
#X obj 21 310 delay-voice \$1 11;
#X obj 22 150 delay-voice \$1 4;
#X obj 22 57 delay-voice \$1 0;
#X obj 23 243 delay-voice \$1 8;
#X obj 22 197 delay-voice \$1 6;
#X obj 20 80 delay-voice \$1 1;
#X obj 22 103 delay-voice \$1 2;
#X obj 23 126 delay-voice \$1 3;
#X obj 22 174 delay-voice \$1 5;
#X obj 25 220 delay-voice \$1 7;
#X obj 21 264 delay-voice \$1 9;
#X obj 21 288 delay-voice \$1 10;
#X connect 1 0 20 0;
#X connect 1 1 19 0;
#X connect 2 0 3 0;
#X connect 3 0 1 4;
#X connect 4 0 15 0;
#X connect 4 1 5 0;
#X connect 5 1 6 0;
#X connect 6 0 8 0;
#X connect 6 1 12 0;
#X connect 7 0 11 1;
#X connect 7 0 13 0;
#X connect 8 0 11 0;
#X connect 8 1 9 0;
#X connect 9 0 7 1;
#X connect 10 0 7 1;
#X connect 11 0 7 0;
#X connect 12 0 11 0;
#X connect 12 1 10 0;
#X connect 13 0 14 0;
#X connect 16 0 4 0;
#X connect 17 0 1 0;
#X connect 17 0 21 0;
#X connect 18 0 1 1;
#X connect 18 0 22 0;
#X connect 23 0 1 2;
#X connect 24 0 1 3;
#X connect 25 0 1 3;
#X connect 25 0 1 2;
#X restore 39 337 pd synth;
#X obj 304 208 t a a;
#X obj 23 112 KontrolModule \$1 F-del+dist-trig;
#X obj 181 35 print loaded:delay + distort into \$1;
#X connect 0 0 14 0;
#X connect 2 0 6 0;
#X connect 2 0 5 0;
#X connect 3 0 15 0;
#X connect 4 0 16 0;
#X connect 6 0 3 0;
#X connect 7 0 13 0;
#X connect 8 0 13 1;
#X connect 13 0 9 0;
#X connect 13 1 10 0;
#X connect 14 0 13 2;
#X connect 14 1 1 0;
