#N canvas 0 50 1351 627 10;
#X text 352 23 note messages;
#X obj 304 545 +~;
#X obj 359 444 osc~;
#X obj 726 638 f;
#X msg 726 674 0 \$1;
#X obj 304 76 unpack;
#X obj 343 108 sel 0;
#X text 387 109 selects note off messages so we can set decay time
later;
#X text 344 238 convert it to signal so frequency will be constantly
updated;
#X obj 304 24 inlet;
#X obj 356 474 *~;
#X text 764 641 decay time;
#X text 25 10 synth voice with waveform change;
#X obj 726 751 *~;
#X obj 302 630 osc~ 440;
#X obj 315 834 *~;
#X text 369 326 these control pitch modulation (speed and depth);
#X obj 726 605 t b b;
#X obj 740 708 vline~;
#X obj 888 609 t f b, f 10;
#X obj 888 571 * 0.00787402;
#X msg 887 665 \$1 5;
#X obj 304 239 sig~;
#X obj 304 187 +;
#X obj 738 506 r bp_decay-\$1;
#X obj 322 162 r bp_trans-\$1;
#X obj 367 343 r bp_vrate-\$1;
#X obj 521 343 r bp_vdepth-\$1;
#X obj 304 209 mtof_micro \$1;
#X obj 978 490 r bp_attack-\$1;
#X obj 966 664 print;
#X obj 919 635 list append 5;
#X obj 850 318 nbx 5 14 -1e+037 1e+037 0 0 empty empty empty 0 -8 0
10 -262144 -1 -1 0 256;
#X obj 316 864 throw~ sinesum-\$1;
#X connect 1 0 14 0;
#X connect 2 0 10 0;
#X connect 3 0 4 0;
#X connect 4 0 18 0;
#X connect 5 0 23 0;
#X connect 5 1 6 0;
#X connect 6 0 17 0;
#X connect 6 1 20 0;
#X connect 9 0 5 0;
#X connect 10 0 1 1;
#X connect 13 0 15 1;
#X connect 14 0 15 0;
#X connect 15 0 33 0;
#X connect 17 0 3 0;
#X connect 18 0 13 1;
#X connect 18 0 13 0;
#X connect 19 0 21 0;
#X connect 19 0 31 0;
#X connect 20 0 19 0;
#X connect 21 0 18 0;
#X connect 22 0 1 0;
#X connect 23 0 28 0;
#X connect 24 0 3 1;
#X connect 25 0 23 1;
#X connect 26 0 2 0;
#X connect 27 0 10 1;
#X connect 28 0 22 0;
#X connect 29 0 31 1;
#X connect 31 0 30 0;
#X connect 32 0 20 0;
