#N canvas 0 102 1364 726 10;
#X obj 304 186 r notesIn-\$1;
#X obj 304 491 s notesOut-\$1;
#X obj 23 9 r loaddefs-\$1;
#X msg 23 76 loaddefinitions \$1;
#X obj 181 9 r loadbang-\$1;
#X obj 181 76 print loading definiton for \$1;
#X obj 23 41 symbol;
#X obj 25 186 inlet~ inL-\$1;
#X obj 135 186 inlet~ inR-\$1;
#X obj 27 491 outlet~ outL-\$1;
#X obj 136 491 outlet~ outR-\$1;
#X obj 424 185 r auxIn-\$1;
#X obj 423 208 r expIn-\$1;
#X obj 423 233 r fsIn-\$1;
#N canvas -311 11 1364 725 synth 1;
#X obj -129 102 pack 0 0 0, f 11;
#X obj -115 349 *~ 0.3;
#X obj -102 409 outlet~;
#X obj -137 45 inlet;
#X obj -103 383 hip~ 5;
#X obj -137 71 poly 64 1, f 11;
#X obj -113 114 route 1 2 3 4 5 6 7 8 9 10 11 12 13 14 15 16 17 18
19 20 21 22 23 24 25 26 27 28 29 30 31 32 33 34 35 36 37 38 39 40 41
42 43 44 45 46 47 48 49 50 51 52 53 54 55 56 57 58 59 60 61 62 63 64
, f 189;
#X obj -169 203 bp-voice \$1;
#X obj -75 303 catch~ sinesum-\$1;
#X obj -151 225 bp-voice \$1;
#X obj -64 225 bp-voice \$1;
#X obj -82 203 bp-voice \$1;
#X obj -155 267 bp-voice \$1;
#X obj -173 245 bp-voice \$1;
#X obj -68 267 bp-voice \$1;
#X obj -86 245 bp-voice \$1;
#X obj 17 203 bp-voice \$1;
#X obj 35 225 bp-voice \$1;
#X obj 122 225 bp-voice \$1;
#X obj 106 199 bp-voice \$1;
#X obj 31 267 bp-voice \$1;
#X obj 13 245 bp-voice \$1;
#X obj 115 266 bp-voice \$1;
#X obj 100 245 bp-voice \$1;
#X obj 193 203 bp-voice \$1;
#X obj 211 225 bp-voice \$1;
#X obj 298 225 bp-voice \$1;
#X obj 280 203 bp-voice \$1;
#X obj 207 267 bp-voice \$1;
#X obj 189 245 bp-voice \$1;
#X obj 294 267 bp-voice \$1;
#X obj 276 245 bp-voice \$1;
#X obj 379 203 bp-voice \$1;
#X obj 397 225 bp-voice \$1;
#X obj 484 225 bp-voice \$1;
#X obj 468 199 bp-voice \$1;
#X obj 393 267 bp-voice \$1;
#X obj 375 245 bp-voice \$1;
#X obj 480 267 bp-voice \$1;
#X obj 462 245 bp-voice \$1;
#X obj 556 200 bp-voice \$1;
#X obj 574 222 bp-voice \$1;
#X obj 661 222 bp-voice \$1;
#X obj 643 200 bp-voice \$1;
#X obj 570 264 bp-voice \$1;
#X obj 552 242 bp-voice \$1;
#X obj 657 264 bp-voice \$1;
#X obj 639 242 bp-voice \$1;
#X obj 742 200 bp-voice \$1;
#X obj 760 222 bp-voice \$1;
#X obj 847 222 bp-voice \$1;
#X obj 831 196 bp-voice \$1;
#X obj 756 264 bp-voice \$1;
#X obj 738 242 bp-voice \$1;
#X obj 840 263 bp-voice \$1;
#X obj 825 242 bp-voice \$1;
#X obj 918 200 bp-voice \$1;
#X obj 936 222 bp-voice \$1;
#X obj 1023 222 bp-voice \$1;
#X obj 1005 200 bp-voice \$1;
#X obj 932 264 bp-voice \$1;
#X obj 914 242 bp-voice \$1;
#X obj 1019 264 bp-voice \$1;
#X obj 1001 242 bp-voice \$1;
#X obj 1104 200 bp-voice \$1;
#X obj 1122 222 bp-voice \$1;
#X obj 1209 222 bp-voice \$1;
#X obj 1193 196 bp-voice \$1;
#X obj 1118 264 bp-voice \$1;
#X obj 1100 242 bp-voice \$1;
#X obj 711 166 bp-voice \$1;
#X obj 1187 242 bp-voice \$1;
#X connect 0 0 6 0;
#X connect 1 0 4 0;
#X connect 3 0 5 0;
#X connect 4 0 2 0;
#X connect 5 0 0 0;
#X connect 5 1 0 1;
#X connect 5 2 0 2;
#X connect 6 0 7 0;
#X connect 6 1 9 0;
#X connect 6 2 13 0;
#X connect 6 3 12 0;
#X connect 6 4 11 0;
#X connect 6 5 10 0;
#X connect 6 6 15 0;
#X connect 6 7 14 0;
#X connect 6 8 16 0;
#X connect 6 9 17 0;
#X connect 6 10 21 0;
#X connect 6 11 20 0;
#X connect 6 12 19 0;
#X connect 6 13 18 0;
#X connect 6 14 23 0;
#X connect 6 15 22 0;
#X connect 6 16 24 0;
#X connect 6 17 25 0;
#X connect 6 18 29 0;
#X connect 6 19 28 0;
#X connect 6 20 27 0;
#X connect 6 21 26 0;
#X connect 6 22 31 0;
#X connect 6 23 30 0;
#X connect 6 24 32 0;
#X connect 6 25 33 0;
#X connect 6 26 37 0;
#X connect 6 27 36 0;
#X connect 6 28 35 0;
#X connect 6 29 34 0;
#X connect 6 30 39 0;
#X connect 6 31 38 0;
#X connect 6 32 40 0;
#X connect 6 33 41 0;
#X connect 6 34 45 0;
#X connect 6 35 44 0;
#X connect 6 36 43 0;
#X connect 6 37 42 0;
#X connect 6 38 47 0;
#X connect 6 39 46 0;
#X connect 6 40 70 0;
#X connect 6 41 48 0;
#X connect 6 42 49 0;
#X connect 6 43 53 0;
#X connect 6 44 52 0;
#X connect 6 45 51 0;
#X connect 6 46 50 0;
#X connect 6 47 55 0;
#X connect 6 48 54 0;
#X connect 6 49 56 0;
#X connect 6 50 57 0;
#X connect 6 51 61 0;
#X connect 6 52 60 0;
#X connect 6 53 59 0;
#X connect 6 54 58 0;
#X connect 6 55 63 0;
#X connect 6 56 62 0;
#X connect 6 57 64 0;
#X connect 6 58 65 0;
#X connect 6 59 69 0;
#X connect 6 60 68 0;
#X connect 6 61 67 0;
#X connect 6 62 66 0;
#X connect 6 63 71 0;
#X connect 8 0 1 0;
#X restore 142 319 pd synth;
#X text 446 35 C&G basic polyphonic patch with 8 voices;
#X obj 181 35 print loaded:basic poly into \$1, f 35;
#X obj 29 406 +~;
#X obj 137 407 +~;
#X obj 23 112 KontrolModule \$1 S-sine64;
#X connect 0 0 1 0;
#X connect 0 0 14 0;
#X connect 2 0 6 0;
#X connect 2 0 5 0;
#X connect 3 0 19 0;
#X connect 4 0 16 0;
#X connect 6 0 3 0;
#X connect 7 0 17 0;
#X connect 8 0 18 0;
#X connect 14 0 18 1;
#X connect 14 0 17 1;
#X connect 17 0 9 0;
#X connect 18 0 10 0;
