#N canvas 0 102 1364 726 10;
#X obj 304 186 r notesIn-\$1;
#X obj 304 491 s notesOut-\$1;
#X obj 23 9 r loaddefs-\$1;
#X msg 23 76 loaddefinitions \$1;
#X obj 181 9 r loadbang-\$1;
#X obj 181 76 print loading definiton for \$1;
#X obj 23 41 symbol;
#X obj 25 186 inlet~ inL-\$1;
#X obj 135 186 inlet~ inR-\$1;
#X obj 27 491 outlet~ outL-\$1;
#X obj 136 491 outlet~ outR-\$1;
#X obj 424 185 r auxIn-\$1;
#X obj 423 208 r expIn-\$1;
#X obj 423 233 r fsIn-\$1;
#N canvas 0 50 1364 725 synth 1;
#X obj 28 139 pack 0 0 0, f 11;
#X obj 59 221 *~ 0.3;
#X obj 16 81 poly 8 1, f 11;
#X obj 61 329 outlet~;
#X obj 16 55 inlet;
#X obj 60 303 hip~ 5;
#X obj 323 194 micro_master \$1;
#X obj 208 258 r microtuning-label-\$1;
#X obj 258 312 s aux-label-\$1;
#X obj 22 117 - 1;
#X obj 31 169 clone clonevoice 64 \$1;
#X connect 0 0 10 0;
#X connect 1 0 5 0;
#X connect 2 0 9 0;
#X connect 2 1 0 1;
#X connect 2 2 0 2;
#X connect 4 0 2 0;
#X connect 5 0 3 0;
#X connect 7 0 8 0;
#X connect 9 0 0 0;
#X connect 10 0 1 0;
#X restore 142 319 pd synth;
#X text 446 35 C&G basic polyphonic patch with 8 voices;
#X obj 181 35 print loaded:basic poly into \$1, f 35;
#X obj 29 406 +~;
#X obj 137 407 +~;
#X obj 23 112 KontrolModule \$1 S-sine64;
#X connect 0 0 1 0;
#X connect 0 0 14 0;
#X connect 2 0 6 0;
#X connect 2 0 5 0;
#X connect 3 0 19 0;
#X connect 4 0 16 0;
#X connect 6 0 3 0;
#X connect 7 0 17 0;
#X connect 8 0 18 0;
#X connect 14 0 18 1;
#X connect 14 0 17 1;
#X connect 17 0 9 0;
#X connect 18 0 10 0;
