#N canvas 4 50 1345 685 10;
#X obj 304 186 r notesIn-\$1;
#X obj 304 671 s notesOut-\$1;
#X obj 23 9 r loaddefs-\$1;
#X msg 23 76 loaddefinitions \$1;
#X obj 181 9 r loadbang-\$1;
#X obj 181 76 print loading definiton for \$1;
#X obj 23 41 symbol;
#X obj 25 186 inlet~ inL-\$1;
#X obj 135 186 inlet~ inR-\$1;
#X obj 27 671 outlet~ outL-\$1;
#X obj 136 671 outlet~ outR-\$1;
#X obj 445 180 r auxIn-\$1;
#X obj 423 208 r expIn-\$1;
#X obj 456 225 r fsIn-\$1;
#X obj 123 416 pdelay \$1;
#X obj 23 112 KontrolModule \$1 F-warpdelay;
#X obj 181 35 print loaded:warpdelay into \$1, f 35;
#X obj 193 220 ../../../../in_tester;
#X obj 105 446 C:/users/alexd_000/Documents/PD/out_tester;
#X obj 518 313 poly 3 1;
#X obj 520 351 pack 0 0 0, f 11;
#X obj 521 377 route 1 2 3, f 18;
#X obj 513 418 polyctrl \$1 2;
#X obj 515 399 polyctrl \$1 1;
#X obj 509 437 polyctrl \$1 3;
#N canvas 0 50 1366 725 midictrl 0;
#X obj 427 191 notein_mono;
#X obj 423 223 nbx 5 14 -1e+37 1e+37 0 0 empty empty empty 0 -8 0 10
-262144 -1 -1 0 256;
#X obj 506 218 nbx 5 14 -1e+37 1e+37 0 0 empty empty empty 0 -8 0 10
-262144 -1 -1 0 256;
#X obj 438 266 spigot 0;
#X obj 559 214 r wdelay_midictrl-\$1;
#X obj 482 247 tgl 15 0 empty empty empty 17 7 0 10 -262144 -1 -1 0
1;
#X obj 535 268 sel 0;
#X msg 512 325 72;
#X obj 635 274 r wdelay_midipoly-\$1;
#X obj 760 347 r wdelay_midigate-\$1;
#X obj 430 299 spigot 1;
#X obj 643 345 == 0;
#X obj 464 531 s polygate-\$1-1;
#X obj 590 523 s polygate-\$1-2;
#X obj 712 530 s polygate-\$1-3;
#X obj 504 425 spigot 0;
#X obj 501 470 spigot 1;
#X obj 503 379 > 1;
#X msg 599 390 1;
#X obj 503 445 spigot 0;
#X obj 689 315 sel 0;
#X obj 674 395 sel 0;
#X obj 685 366 t b f;
#X msg 535 389 0;
#X obj 592 293 t b f;
#X obj 360 492 nbx 5 14 -1e+37 1e+37 0 0 empty empty empty 0 -8 0 10
-262144 -1 -1 72 256;
#X obj 438 147 inlet;
#X obj 336 591 outlet;
#X connect 0 0 1 0;
#X connect 0 1 2 0;
#X connect 1 0 3 0;
#X connect 2 0 17 0;
#X connect 3 0 10 0;
#X connect 4 0 3 1;
#X connect 4 0 6 0;
#X connect 4 0 24 0;
#X connect 5 0 3 1;
#X connect 6 0 7 0;
#X connect 6 0 18 0;
#X connect 7 0 25 0;
#X connect 8 0 11 0;
#X connect 8 0 20 0;
#X connect 9 0 22 0;
#X connect 10 0 25 0;
#X connect 11 0 10 1;
#X connect 11 0 16 1;
#X connect 15 0 19 0;
#X connect 16 0 12 0;
#X connect 16 0 13 0;
#X connect 16 0 14 0;
#X connect 17 0 15 0;
#X connect 18 0 12 0;
#X connect 18 0 13 0;
#X connect 18 0 14 0;
#X connect 19 0 16 0;
#X connect 20 0 7 0;
#X connect 20 0 18 0;
#X connect 21 0 18 0;
#X connect 22 0 23 0;
#X connect 22 1 21 0;
#X connect 22 1 19 1;
#X connect 23 0 15 0;
#X connect 24 0 23 0;
#X connect 24 1 15 1;
#X connect 25 0 27 0;
#X connect 26 0 0 0;
#X restore 344 308 pd midictrl;
#X obj 361 356 s mononote-\$1;
#X connect 0 0 1 0;
#X connect 0 0 19 0;
#X connect 0 0 25 0;
#X connect 2 0 6 0;
#X connect 2 0 5 0;
#X connect 3 0 15 0;
#X connect 4 0 16 0;
#X connect 6 0 3 0;
#X connect 7 0 14 0;
#X connect 8 0 14 1;
#X connect 14 0 9 0;
#X connect 14 0 18 0;
#X connect 14 1 10 0;
#X connect 14 1 18 1;
#X connect 17 0 14 0;
#X connect 17 1 14 1;
#X connect 17 2 25 0;
#X connect 19 0 20 0;
#X connect 19 1 20 1;
#X connect 19 2 20 2;
#X connect 20 0 21 0;
#X connect 21 0 23 0;
#X connect 21 1 22 0;
#X connect 21 2 24 0;
#X connect 25 0 26 0;
