#N canvas -54 106 1360 663 10;
#X obj 304 186 r notesIn-\$1;
#X obj 304 671 s notesOut-\$1;
#X obj 23 9 r loaddefs-\$1;
#X msg 23 76 loaddefinitions \$1;
#X obj 181 9 r loadbang-\$1;
#X obj 181 76 print loading definiton for \$1;
#X obj 23 41 symbol;
#X obj 25 186 inlet~ inL-\$1;
#X obj 135 186 inlet~ inR-\$1;
#X obj 27 671 outlet~ outL-\$1;
#X obj 136 671 outlet~ outR-\$1;
#X obj 424 185 r auxIn-\$1;
#X obj 423 208 r expIn-\$1;
#X obj 423 233 r fsIn-\$1;
#X text 652 30 C&G Simple 3 sec Delay Module with a hi-pass filter
;
#X obj 106 319 shimmer \$1;
#X obj 23 112 KontrolModule \$1 F-shimmer;
#X obj 181 35 print loaded:shimmer into \$1, f 35;
#X obj 197 238 ../in_tester;
#X obj 176 386 ../out_tester;
#X connect 0 0 1 0;
#X connect 2 0 6 0;
#X connect 2 0 5 0;
#X connect 3 0 16 0;
#X connect 4 0 17 0;
#X connect 6 0 3 0;
#X connect 7 0 15 0;
#X connect 8 0 15 1;
#X connect 15 0 9 0;
#X connect 15 0 19 0;
#X connect 15 1 10 0;
#X connect 15 1 19 1;
#X connect 18 0 15 0;
#X connect 18 1 15 1;
