#N canvas -8 -8 1366 725 10;
#X obj 304 186 r notesIn-\$1;
#X obj 304 671 s notesOut-\$1;
#X obj 23 9 r loaddefs-\$1;
#X msg 23 76 loaddefinitions \$1;
#X obj 181 9 r loadbang-\$1;
#X obj 181 76 print loading definiton for \$1;
#X obj 23 41 symbol;
#X obj 25 186 inlet~ inL-\$1;
#X obj 135 186 inlet~ inR-\$1;
#X obj 27 671 outlet~ outL-\$1;
#X obj 136 671 outlet~ outR-\$1;
#X obj 424 185 r auxIn-\$1;
#X obj 423 208 r expIn-\$1;
#X obj 423 233 r fsIn-\$1;
#X text 652 30 C&G Simple 3 sec Delay Module with a hi-pass filter
;
#X obj 128 358 pdelay \$1;
#X obj 23 112 KontrolModule \$1 F-warpdelay;
#X obj 181 35 print loaded:warpdelay into \$1, f 35;
#X obj 197 238 ../../../../in_tester;
#X obj 105 446 C:/users/alexd_000/Documents/PD/out_tester;
#X obj 253 279 notein_mono;
#X obj 249 311 nbx 5 14 -1e+037 1e+037 0 0 empty empty empty 0 -8 0
10 -262144 -1 -1 67 256;
#X obj 337 312 nbx 5 14 -1e+037 1e+037 0 0 empty empty empty 0 -8 0
10 -262144 -1 -1 100 256;
#X obj 259 360 spigot 0;
#X obj 327 338 r wdelay_midictrl-\$1;
#X obj 308 335 tgl 15 0 empty empty empty 17 7 0 10 -262144 -1 -1 1
1;
#X connect 0 0 1 0;
#X connect 0 0 20 0;
#X connect 2 0 6 0;
#X connect 2 0 5 0;
#X connect 3 0 16 0;
#X connect 4 0 17 0;
#X connect 6 0 3 0;
#X connect 7 0 15 0;
#X connect 8 0 15 1;
#X connect 15 0 9 0;
#X connect 15 0 19 0;
#X connect 15 1 10 0;
#X connect 15 1 19 1;
#X connect 18 0 15 0;
#X connect 18 1 15 1;
#X connect 18 2 20 0;
#X connect 20 0 21 0;
#X connect 20 1 22 0;
#X connect 21 0 23 0;
#X connect 23 0 15 2;
#X connect 24 0 23 1;
#X connect 25 0 23 1;
