#N canvas 8 50 1345 685 10;
#X obj 620 391 +~;
#X obj 635 417 *~ 0.01;
#X obj 132 303 +~;
#X obj 108 100 inlet~;
#X obj 10 58 inlet~;
#X obj 195 609 outlet~;
#X obj 301 613 outlet~;
#X obj 386 582 c_xfade;
#X obj 206 574 c_xfade;
#X obj 282 522 sig~ 0.5;
#X obj 805 391 *;
#X obj 799 374 t f f;
#X obj 726 633 lop~ 4000;
#X obj 648 446 hip~ 3;
#X obj 291 472 r wdelay_mix-\$1;
#X obj 796 287 r wdelay_feedback-\$1;
#X obj 791 558 r wdelay_pfilt-\$1;
#X obj 352 148 r wdelay_exprange-\$1;
#X obj 467 178 r auxIn-\$1;
#X obj 374 210 r fsIn-\$1;
#X obj 411 189 == 0;
#X obj 375 229 spigot 1;
#X obj 452 247 sel 1;
#X obj 424 270 tgl 15 0 empty empty empty 17 7 0 10 -262144 -1 -1 1
1;
#X text 452 270 freeze;
#X obj 426 289 s freeze-\$1;
#X obj 894 383 r freeze-\$1;
#X obj 853 424 == 0;
#X obj 847 447 sig~ 1;
#X obj 923 436 sig~ 0;
#X obj 547 488 *~;
#X obj 749 565 *~;
#X msg 327 313 Frozen;
#X msg 397 307 Unfrozen;
#X obj 357 288 sel 1;
#X obj 320 348 s aux-label-\$1;
#X obj 254 48 r wdelay_lensmooth-\$1;
#X obj 558 38 r wdelay_pitchsmooth-\$1;
#X obj 560 69 expr ((100-$f1)*(100-$f1)/10000)*20+0.1;
#X obj 260 70 expr ((100-$f1)*(100-$f1)/10000)*20+0.1;
#X obj 519 230 wdel \$1 1;
#X obj 435 410 +~;
#X obj 488 423 +~;
#X obj 557 93 s psmooth_internal-\$1;
#N canvas 0 50 1366 725 expressionpedal 0;
#X obj 210 60 r wdelay_exprange-\$1;
#X obj 252 148 spigot 0;
#X obj 235 100 > 0;
#X obj 291 94 r expIn-\$1;
#X obj 118 152 r wdelay_exprq-\$1;
#X obj 150 203 spigot 1;
#X obj 250 217 spigot 0;
#X obj 259 188 == 0;
#X obj 164 303 s expr_q-\$1;
#X obj 258 274 s expr_uq-\$1;
#X msg 261 241 0;
#X msg 173 222 0;
#X obj 266 116 * 12;
#X obj 116 261 int;
#X obj 73 242 + 0.5;
#X connect 0 0 2 0;
#X connect 0 0 12 1;
#X connect 1 0 5 0;
#X connect 1 0 6 0;
#X connect 2 0 1 1;
#X connect 3 0 12 0;
#X connect 4 0 5 1;
#X connect 4 0 7 0;
#X connect 5 0 11 0;
#X connect 5 0 14 0;
#X connect 6 0 10 0;
#X connect 6 0 9 0;
#X connect 7 0 6 1;
#X connect 10 0 8 0;
#X connect 11 0 9 0;
#X connect 12 0 1 0;
#X connect 13 0 8 0;
#X connect 14 0 13 0;
#X restore 20 494 pd expressionpedal;
#X obj 658 658 delwrite~ del_line-\$1 12000;
#X obj 805 354 / 100;
#X obj 293 497 / 100;
#X obj 259 89 s lsmooth_internal-\$1;
#X obj 1004 464 r wdelay_overdub-\$1;
#X obj 890 595 *~;
#X obj 1006 500 sig~ 0;
#X obj 985 533 lop~ 1;
#X obj 972 575 *~;
#X obj 979 625 *~ 1;
#X text 1085 591 scale overdub by length;
#X msg 993 169 60;
#X obj 994 146 t b n;
#X obj 996 188 /;
#X obj 986 211 nbx 5 14 -1e+37 1e+37 0 0 empty empty empty 0 -8 0 10
-262144 -1 -1 0.5 256;
#X obj 990 237 * 1000;
#X obj 959 77 r master-bpm;
#X obj 1013 297 nbx 5 14 -1e+37 1e+37 0 0 empty empty empty 0 -8 0
10 -262144 -1 -1 500 256;
#X floatatom 1116 145 5 0 0 0 - - -, f 5;
#X obj 1173 95 hsl 128 15 0 5000 0 0 empty empty empty -2 -8 0 10 -262144
-1 -1 0 1;
#X obj 1097 211 / 1;
#X obj 1106 258 int;
#X obj 1130 313 * 1;
#X obj 1141 359 nbx 5 14 -1e+37 1e+37 0 0 empty empty empty 0 -8 0
10 -262144 -1 -1 1000 256;
#X obj 1132 278 max 1;
#X obj 1201 122 r wdelay_temposync-\$1;
#X obj 1058 46 r wdelay_len_raw-\$1;
#X obj 1147 401 s wdelay_len-\$1;
#X obj 1178 234 spigot 1;
#X obj 1100 187 spigot 0;
#X obj 999 105 t b n;
#X obj 1239 186 == 0;
#X obj 1176 163 t b n;
#X obj 1217 148 tgl 15 0 empty empty empty 17 7 0 10 -262144 -1 -1
0 1;
#X obj 1187 301 nbx 5 14 -1e+37 1e+37 0 0 empty empty empty 0 -8 0
10 -262144 -1 -1 2 256;
#X obj 1217 358 s aux-label-\$1;
#X msg 1218 326 Beats: \$1;
#X obj 833 473 lop~ 10;
#X obj 931 477 lop~ 10;
#X obj 410 458 *~ 0.5;
#X obj 430 478 *~ 0.5;
#X obj 607 232 wdel \$1 2;
#X obj 727 230 wdel \$1 3;
#X obj 1025 567 min 100;
#X obj 1034 593 / 100;
#N canvas 0 50 1366 664 smoothswitch 0;
#X obj 240 75 r wdelay_len-\$1;
#X obj 158 452 delread~ del_line-\$1 8000;
#X obj 220 219 f 0;
#X obj 248 122 delay 1000;
#X obj 441 455 delread~ del_line-\$1 8000;
#X obj 371 385 sig~ 0;
#X obj 230 266 change -1;
#X obj 214 318 t f b;
#X obj 279 351 tgl 15 0 empty empty empty 17 7 0 10 -262144 -1 -1 0
1;
#X obj 292 369 == 0;
#X obj 440 366 spigot 0;
#X obj 196 383 spigot 1;
#X obj 373 421 lop~ 5;
#X obj 349 562 outlet~;
#X obj 444 522 *~;
#X obj 282 520 *~;
#X obj 382 484 -~ 1;
#X connect 0 0 2 1;
#X connect 0 0 3 0;
#X connect 1 0 15 0;
#X connect 2 0 6 0;
#X connect 3 0 2 0;
#X connect 4 0 14 0;
#X connect 5 0 12 0;
#X connect 6 0 7 0;
#X connect 7 0 11 0;
#X connect 7 0 10 0;
#X connect 7 1 8 0;
#X connect 8 0 9 0;
#X connect 8 0 11 1;
#X connect 8 0 5 0;
#X connect 9 0 10 1;
#X connect 10 0 4 0;
#X connect 11 0 1 0;
#X connect 12 0 16 0;
#X connect 12 0 15 1;
#X connect 14 0 13 0;
#X connect 15 0 13 0;
#X connect 16 0 14 1;
#X restore 700 523 pd smoothswitch;
#X connect 0 0 1 0;
#X connect 1 0 13 0;
#X connect 2 0 30 0;
#X connect 2 0 53 0;
#X connect 3 0 2 0;
#X connect 3 0 7 0;
#X connect 4 0 2 0;
#X connect 4 0 8 0;
#X connect 7 0 6 0;
#X connect 8 0 5 0;
#X connect 9 0 7 2;
#X connect 9 0 8 2;
#X connect 10 0 1 1;
#X connect 11 0 10 0;
#X connect 11 1 10 1;
#X connect 12 0 45 0;
#X connect 13 0 30 0;
#X connect 14 0 47 0;
#X connect 15 0 46 0;
#X connect 16 0 12 1;
#X connect 17 0 20 0;
#X connect 18 0 22 0;
#X connect 19 0 21 0;
#X connect 20 0 21 1;
#X connect 21 0 22 0;
#X connect 22 0 23 0;
#X connect 23 0 25 0;
#X connect 23 0 34 0;
#X connect 26 0 27 0;
#X connect 26 0 29 0;
#X connect 27 0 28 0;
#X connect 28 0 82 0;
#X connect 29 0 83 0;
#X connect 30 0 12 0;
#X connect 31 0 45 0;
#X connect 32 0 35 0;
#X connect 33 0 35 0;
#X connect 34 0 32 0;
#X connect 34 1 33 0;
#X connect 36 0 39 0;
#X connect 37 0 38 0;
#X connect 38 0 43 0;
#X connect 39 0 48 0;
#X connect 40 0 0 0;
#X connect 40 1 41 0;
#X connect 40 2 42 0;
#X connect 41 0 84 0;
#X connect 42 0 85 0;
#X connect 46 0 11 0;
#X connect 47 0 9 0;
#X connect 49 0 51 0;
#X connect 50 0 12 0;
#X connect 51 0 52 0;
#X connect 52 0 53 1;
#X connect 53 0 54 0;
#X connect 54 0 50 0;
#X connect 56 0 58 0;
#X connect 57 0 56 0;
#X connect 57 1 58 1;
#X connect 58 0 59 0;
#X connect 59 0 60 0;
#X connect 60 0 62 0;
#X connect 61 0 75 0;
#X connect 62 0 65 1;
#X connect 62 0 67 1;
#X connect 63 0 74 0;
#X connect 63 0 73 0;
#X connect 64 0 63 0;
#X connect 65 0 66 0;
#X connect 66 0 69 0;
#X connect 67 0 68 0;
#X connect 68 0 72 0;
#X connect 68 0 88 0;
#X connect 69 0 67 0;
#X connect 69 0 79 0;
#X connect 70 0 77 0;
#X connect 71 0 63 0;
#X connect 73 0 68 0;
#X connect 74 0 65 0;
#X connect 75 0 63 0;
#X connect 75 1 57 0;
#X connect 76 0 73 1;
#X connect 77 0 63 0;
#X connect 77 1 76 0;
#X connect 77 1 74 1;
#X connect 78 0 77 0;
#X connect 79 0 81 0;
#X connect 81 0 80 0;
#X connect 82 0 30 1;
#X connect 83 0 31 1;
#X connect 83 0 50 1;
#X connect 84 0 8 1;
#X connect 85 0 7 1;
#X connect 86 0 0 0;
#X connect 86 1 41 0;
#X connect 86 2 42 0;
#X connect 87 0 0 0;
#X connect 87 1 41 0;
#X connect 87 2 42 0;
#X connect 88 0 89 0;
#X connect 89 0 54 1;
#X connect 90 0 31 0;
