#N canvas 0 50 1364 725 10;
#X obj 666 357 hsl 128 15 0 1 0 0 empty empty empty -2 -8 0 10 -262144
-1 -1 0 1;
#X obj 620 391 +~;
#X obj 635 417 *~ 0.01;
#X obj 132 303 +~;
#X obj 108 100 inlet~;
#X obj 10 58 inlet~;
#X obj 195 609 outlet~;
#X obj 301 613 outlet~;
#X obj 350 551 c_xfade;
#X obj 206 574 c_xfade;
#X obj 282 522 sig~ 0.5;
#X obj 805 391 *;
#X obj 799 374 t f f;
#X obj 563 530 lop~ 4000;
#X obj 648 446 hip~ 3;
#X obj 291 472 r wdelay_mix-\$1;
#X obj 797 320 r wdelay_feedback-\$1;
#X obj 619 507 r wdelay_pfilt-\$1;
#X obj 676 476 hsl 128 15 0 8000 0 0 empty empty empty -2 -8 0 10 -262144
-1 -1 0 1;
#X obj 352 148 r wdelay_exprange-\$1;
#X obj 445 180 r auxIn-\$1;
#X obj 374 210 r fsIn-\$1;
#X obj 411 189 == 0;
#X obj 375 229 spigot 1;
#X obj 452 247 sel 1;
#X obj 424 270 tgl 15 0 empty empty empty 17 7 0 10 -262144 -1 -1 0
1;
#X text 452 270 freeze;
#X obj 805 508 r wdelay_len-\$1;
#X obj 793 534 delread~ del_line-\$1 8000;
#X obj 427 290 s freeze-\$1;
#X obj 894 383 r freeze-\$1;
#X obj 853 424 == 0;
#X obj 847 447 sig~ 1;
#X obj 923 436 sig~ 0;
#X obj 579 564 *~;
#X obj 833 472 lop~ 1;
#X obj 902 469 lop~ 1;
#X obj 774 569 *~;
#X msg 327 313 Frozen;
#X msg 398 315 Unfrozen;
#X obj 357 288 sel 1;
#X obj 324 354 s aux-label-\$1;
#X obj 244 17 r wdelay_lensmooth-\$1;
#X obj 425 24 r wdelay_pitchsmooth-\$1;
#X floatatom 272 149 5 0 0 0 - - -, f 5;
#X obj 274 116 expr ((100-$f1)*(100-$f1)/10000)*20+0.1;
#X obj 260 70 expr ((100-$f1)*(100-$f1)/10000)*20+0.1;
#X obj 519 230 wdel \$1 1;
#X obj 435 410 +~;
#X obj 488 423 +~;
#X obj 243 170 s psmooth_internal-\$1;
#N canvas 0 50 1366 725 expressionpedal 0;
#X obj 210 60 r wdelay_exprange-\$1;
#X obj 252 148 spigot 0;
#X obj 235 100 > 0;
#X obj 291 94 r expIn-\$1;
#X obj 118 152 r wdelay_exprq-\$1;
#X obj 150 203 spigot 1;
#X obj 250 217 spigot 0;
#X obj 259 188 == 0;
#X obj 164 303 s expr_q-\$1;
#X obj 258 274 s expr_uq-\$1;
#X msg 261 241 0;
#X msg 173 222 0;
#X obj 266 116 * 12;
#X obj 116 261 int;
#X obj 73 242 + 0.5;
#X connect 0 0 2 0;
#X connect 0 0 12 1;
#X connect 1 0 5 0;
#X connect 1 0 6 0;
#X connect 2 0 1 1;
#X connect 3 0 12 0;
#X connect 4 0 5 1;
#X connect 4 0 7 0;
#X connect 5 0 11 0;
#X connect 5 0 14 0;
#X connect 6 0 10 0;
#X connect 6 0 9 0;
#X connect 7 0 6 1;
#X connect 10 0 8 0;
#X connect 11 0 9 0;
#X connect 12 0 1 0;
#X connect 13 0 8 0;
#X connect 14 0 13 0;
#X restore 20 494 pd expressionpedal;
#X obj 637 605 delwrite~ del_line-\$1 12000;
#X obj 805 354 / 100;
#X obj 293 497 / 100;
#X obj 85 65 s lsmooth_internal-\$1;
#X obj 607 232 wdel \$1 2;
#X obj 727 230 wdel \$1 3;
#X connect 0 0 2 1;
#X connect 1 0 2 0;
#X connect 2 0 14 0;
#X connect 3 0 13 0;
#X connect 4 0 3 0;
#X connect 4 0 8 0;
#X connect 5 0 3 0;
#X connect 5 0 9 0;
#X connect 8 0 7 0;
#X connect 9 0 6 0;
#X connect 10 0 8 2;
#X connect 10 0 9 2;
#X connect 11 0 2 1;
#X connect 12 0 11 0;
#X connect 12 1 11 1;
#X connect 13 0 34 0;
#X connect 14 0 13 0;
#X connect 15 0 54 0;
#X connect 16 0 53 0;
#X connect 17 0 13 1;
#X connect 18 0 13 1;
#X connect 19 0 22 0;
#X connect 20 0 24 0;
#X connect 21 0 23 0;
#X connect 22 0 23 1;
#X connect 23 0 24 0;
#X connect 24 0 25 0;
#X connect 25 0 29 0;
#X connect 25 0 40 0;
#X connect 27 0 28 0;
#X connect 28 0 37 0;
#X connect 30 0 31 0;
#X connect 30 0 33 0;
#X connect 31 0 32 0;
#X connect 32 0 35 0;
#X connect 33 0 36 0;
#X connect 34 0 52 0;
#X connect 35 0 34 1;
#X connect 36 0 37 1;
#X connect 37 0 52 0;
#X connect 38 0 41 0;
#X connect 39 0 41 0;
#X connect 40 0 38 0;
#X connect 40 1 39 0;
#X connect 42 0 46 0;
#X connect 43 0 45 0;
#X connect 44 0 50 0;
#X connect 45 0 44 0;
#X connect 46 0 55 0;
#X connect 47 0 1 0;
#X connect 47 1 48 0;
#X connect 47 2 49 0;
#X connect 48 0 9 1;
#X connect 49 0 8 1;
#X connect 53 0 12 0;
#X connect 54 0 10 0;
#X connect 56 0 1 0;
#X connect 56 1 48 0;
#X connect 56 2 49 0;
#X connect 57 0 1 0;
#X connect 57 1 48 0;
#X connect 57 2 49 0;
