#N canvas 13 67 1345 716 10;
#X obj 566 62 hsl 128 15 0 8000 0 0 empty empty empty -2 -8 0 10 -262144
-1 -1 0 1;
#X obj 557 88 nbx 5 14 -1e+037 1e+037 0 0 empty empty empty 0 -8 0
10 -262144 -1 -1 0 256;
#X obj 530 142 hsl 128 15 -10 10 0 0 empty empty empty -2 -8 0 10 -262144
-1 -1 0 1;
#X obj 611 185 nbx 5 14 -1e+037 1e+037 0 0 empty empty empty 0 -8 0
10 -262144 -1 -1 0 256;
#X obj 616 165 nbx 5 14 -1e+037 1e+037 0 0 empty empty empty 0 -8 0
10 -262144 -1 -1 0 256;
#X msg 701 185 0.5;
#X obj 666 357 hsl 128 15 0 1 0 0 empty empty empty -2 -8 0 10 -262144
-1 -1 0 1;
#N canvas 0 50 1364 699 del 0;
#X obj 293 318 *~;
#X obj 347 433 *~;
#X obj 290 249 phasor~ 3.01;
#X obj 532 207 inlet~;
#X obj 365 497 outlet~;
#X obj 270 187 inlet~;
#X obj 582 280 noise~;
#X obj 557 324 lop~ 0.5;
#X obj 270 365 +~ 10;
#X obj 397 364 +~;
#X obj 381 312 *~ -1;
#X obj 564 626 outlet~;
#X obj 535 459 expr~ tanh(8*$v1*(1-$v1));
#X obj 284 396 delread4~ del_line-\$1;
#X connect 0 0 10 0;
#X connect 1 0 4 0;
#X connect 2 0 0 0;
#X connect 2 0 12 0;
#X connect 3 0 0 1;
#X connect 3 0 9 1;
#X connect 5 0 2 0;
#X connect 6 0 7 0;
#X connect 7 0 2 0;
#X connect 8 0 13 0;
#X connect 9 0 8 0;
#X connect 10 0 9 0;
#X connect 12 0 1 1;
#X connect 12 0 11 0;
#X connect 13 0 1 0;
#X restore 734 262 pd del;
#N canvas 0 50 1364 699 del 0;
#X obj 293 318 *~;
#X obj 347 433 *~;
#X obj 290 249 phasor~ 3.01;
#X obj 532 207 inlet~;
#X obj 394 532 outlet~;
#X obj 270 187 inlet~;
#X obj 582 280 noise~;
#X obj 557 324 lop~ 0.5;
#X obj 270 365 +~ 10;
#X obj 397 364 +~;
#X obj 381 312 *~ -1;
#X obj 485 480 expr~ tanh(8*$v1*(1-$v1));
#X obj 284 396 delread4~ del_line-\$1;
#X connect 0 0 10 0;
#X connect 1 0 4 0;
#X connect 2 0 0 0;
#X connect 2 0 11 0;
#X connect 3 0 0 1;
#X connect 3 0 9 1;
#X connect 5 0 2 0;
#X connect 6 0 7 0;
#X connect 7 0 2 0;
#X connect 8 0 12 0;
#X connect 9 0 8 0;
#X connect 10 0 9 0;
#X connect 11 0 1 1;
#X connect 12 0 1 0;
#X restore 693 319 pd del;
#X obj 501 371 +~;
#X obj 635 417 *~ 0.01;
#X obj 573 199 sig~ 1;
#X obj 204 183 +~;
#X obj 740 141 sig~ 1000;
#X obj 137 21 inlet~;
#X obj 31 18 inlet~;
#X obj 195 609 outlet~;
#X obj 301 613 outlet~;
#X obj 350 551 c_xfade;
#X obj 206 574 c_xfade;
#X obj 282 522 sig~ 0.5;
#X obj 722 419 *;
#X obj 716 402 t f f;
#X obj 563 530 lop~ 4000;
#X obj 648 446 hip~ 3;
#X obj 637 604 delwrite~ del_line-\$1 8000;
#N canvas 0 50 1364 699 del 0;
#X obj 293 318 *~;
#X obj 347 433 *~;
#X obj 290 249 phasor~ 3.01;
#X obj 532 207 inlet~;
#X obj 272 498 outlet~;
#X obj 270 187 inlet~;
#X obj 582 280 noise~;
#X obj 557 324 lop~ 0.5;
#X obj 270 365 +~ 10;
#X obj 397 364 +~;
#X obj 381 312 *~ -1;
#X obj 487 479 expr~ tanh(8*$v1*(1-$v1));
#X obj 365 497 outlet~;
#X obj 284 396 vd~ del_line-\$1;
#X connect 0 0 10 0;
#X connect 1 0 4 0;
#X connect 2 0 0 0;
#X connect 2 0 11 0;
#X connect 3 0 0 1;
#X connect 3 0 9 1;
#X connect 5 0 2 0;
#X connect 6 0 7 0;
#X connect 7 0 2 0;
#X connect 8 0 12 0;
#X connect 8 0 13 0;
#X connect 9 0 8 0;
#X connect 10 0 9 0;
#X connect 11 0 1 1;
#X connect 13 0 1 0;
#X restore 622 286 pd del;
#X obj 291 487 r wdelay_mix-\$1;
#X obj 712 380 r wdelay_feedback-\$1;
#X obj 619 507 r wdelay_pfilt-\$1;
#X obj 669 30 r wdelay_len-\$1;
#X obj 802 28 r wdelay_dir-\$1;
#X obj 959 37 r wdelay_semi-\$1;
#X obj 1023 58 r wdelay_cent-\$1;
#X obj 1010 79 / 100;
#X obj 1010 98 t b f;
#X obj 972 84 f;
#X obj 981 121 + 0;
#X floatatom 979 141 5 0 0 0 - - -, f 5;
#X obj 980 172 mtof;
#X obj 983 199 / 8.1758;
#X text 1036 136 F(forward) = (mtof(IN)/mtof(0)-1)/Delay F(reverse)
= (-mtof(IN)/mtof(0)-1)/Delay;
#X obj 1068 250 - 1;
#X obj 1062 229 * -1;
#X obj 967 246 - 1;
#X floatatom 908 50 5 0 0 0 - - -, f 5;
#X obj 781 66 / 1000;
#X obj 820 137 t b f;
#X obj 595 251 lop~ 5;
#X obj 953 297 spigot 1;
#X obj 1071 306 spigot 0;
#X obj 856 167 == 0;
#X obj 877 107 tgl 15 0 empty empty empty 17 7 0 10 -262144 -1 -1 0
1;
#X obj 1207 0 inlet;
#X obj 1206 19 - 72;
#X obj 1207 39 nbx 5 14 -1e+037 1e+037 0 0 empty empty empty 0 -8 0
10 -262144 -1 -1 0 256;
#X obj 979 154 + 0;
#X obj 1209 62 t b f;
#X obj 854 231 /~ 1000;
#X obj 955 273 nbx 10 14 -1e+037 1e+037 0 0 empty empty empty 0 -8
0 10 -262144 -1 -1 0 256;
#X obj 1066 275 nbx 10 14 -1e+037 1e+037 0 0 empty empty empty 0 -8
0 10 -262144 -1 -1 0 256;
#X obj 599 233 /~;
#X obj 784 199 lop~ 0.1;
#X obj 864 77 t b f;
#X obj 840 56 tgl 15 0 empty empty empty 17 7 0 10 -262144 -1 -1 0
1;
#X obj 1076 87 hsl 64 15 -100 100 0 0 empty empty empty -2 -8 0 10
-262144 -1 -1 0 1;
#X obj 676 476 hsl 128 15 0 8000 0 0 empty empty empty -2 -8 0 10 -262144
-1 -1 0 1;
#X obj 394 32 r expIn-\$1;
#X obj 232 0 r wdelay_exprange-\$1;
#X obj 445 180 r auxIn-\$1;
#X obj 416 155 r fsIn-\$1;
#X obj 355 190 == 0;
#X obj 370 232 spigot 1;
#X obj 442 267 sel 1;
#X obj 443 299 tgl 15 0 empty empty empty 17 7 0 10 -262144 -1 -1 0
1;
#X text 471 299 freeze;
#X obj 805 508 r wdelay_len-\$1;
#X obj 793 534 delread~ del_line-\$1 8000;
#X obj 767 567 *~ 0;
#X obj 579 564 *~ 1;
#X obj 446 319 s freeze-\$1;
#X obj 703 532 r freeze-\$1;
#X obj 712 551 == 0;
#X connect 0 0 1 0;
#X connect 0 0 13 0;
#X connect 0 0 46 0;
#X connect 2 0 3 0;
#X connect 2 0 11 0;
#X connect 4 0 11 0;
#X connect 5 0 11 0;
#X connect 6 0 10 1;
#X connect 7 0 9 0;
#X connect 8 0 9 0;
#X connect 9 0 10 0;
#X connect 9 0 19 1;
#X connect 9 0 18 1;
#X connect 10 0 24 0;
#X connect 11 0 61 0;
#X connect 12 0 23 0;
#X connect 13 0 62 0;
#X connect 14 0 12 0;
#X connect 14 0 18 0;
#X connect 15 0 12 0;
#X connect 15 0 19 0;
#X connect 18 0 17 0;
#X connect 19 0 16 0;
#X connect 20 0 18 2;
#X connect 20 0 19 2;
#X connect 21 0 10 1;
#X connect 22 0 21 0;
#X connect 22 1 21 1;
#X connect 23 0 79 0;
#X connect 24 0 23 0;
#X connect 26 0 9 0;
#X connect 27 0 20 0;
#X connect 28 0 22 0;
#X connect 29 0 23 1;
#X connect 30 0 13 0;
#X connect 30 0 46 0;
#X connect 31 0 64 0;
#X connect 32 0 36 0;
#X connect 33 0 34 0;
#X connect 34 0 35 0;
#X connect 35 0 36 0;
#X connect 35 1 37 1;
#X connect 36 0 37 0;
#X connect 37 0 38 0;
#X connect 38 0 56 0;
#X connect 39 0 40 0;
#X connect 40 0 43 0;
#X connect 40 0 44 0;
#X connect 42 0 60 0;
#X connect 43 0 42 0;
#X connect 44 0 59 0;
#X connect 45 0 36 0;
#X connect 46 0 47 0;
#X connect 47 0 36 0;
#X connect 48 0 26 0;
#X connect 48 0 8 0;
#X connect 48 0 7 0;
#X connect 49 0 11 0;
#X connect 50 0 11 0;
#X connect 51 0 49 1;
#X connect 52 0 51 0;
#X connect 52 0 50 1;
#X connect 53 0 54 0;
#X connect 54 0 55 0;
#X connect 55 0 57 0;
#X connect 56 0 39 0;
#X connect 57 0 36 0;
#X connect 57 1 56 1;
#X connect 58 0 61 1;
#X connect 59 0 49 0;
#X connect 60 0 50 0;
#X connect 61 0 48 0;
#X connect 62 0 7 1;
#X connect 62 0 8 1;
#X connect 62 0 26 1;
#X connect 62 0 58 0;
#X connect 63 0 36 0;
#X connect 63 1 52 0;
#X connect 64 0 63 0;
#X connect 65 0 34 0;
#X connect 66 0 23 1;
#X connect 68 0 71 0;
#X connect 69 0 73 0;
#X connect 70 0 72 0;
#X connect 71 0 72 1;
#X connect 72 0 73 0;
#X connect 73 0 74 0;
#X connect 74 0 80 0;
#X connect 76 0 77 0;
#X connect 77 0 78 0;
#X connect 78 0 25 0;
#X connect 79 0 25 0;
#X connect 81 0 78 1;
#X connect 81 0 82 0;
#X connect 82 0 79 1;
