#N canvas 0 50 1366 725 10;
#X obj 566 62 hsl 128 15 0 8000 0 0 empty empty empty -2 -8 0 10 -262144
-1 -1 0 1;
#X obj 557 88 nbx 5 14 -1e+037 1e+037 0 0 empty empty empty 0 -8 0
10 -262144 -1 -1 0 256;
#X obj 558 137 hsl 128 15 -10 10 0 0 empty empty empty -2 -8 0 10 -262144
-1 -1 0 1;
#X obj 611 185 nbx 5 14 -1e+037 1e+037 0 0 empty empty empty 0 -8 0
10 -262144 -1 -1 0 256;
#X obj 616 165 nbx 5 14 -1e+037 1e+037 0 0 empty empty empty 0 -8 0
10 -262144 -1 -1 0 256;
#X msg 701 185 0.5;
#X obj 666 357 hsl 128 15 0 1 0 0 empty empty empty -2 -8 0 10 -262144
-1 -1 0 1;
#X obj 594 380 +~;
#X obj 635 417 *~ 0.01;
#X obj 573 199 sig~ 1;
#X obj 132 303 +~;
#X obj 740 141 sig~ 1000;
#X obj 108 100 inlet~;
#X obj 10 58 inlet~;
#X obj 195 609 outlet~;
#X obj 301 613 outlet~;
#X obj 350 551 c_xfade;
#X obj 206 574 c_xfade;
#X obj 282 522 sig~ 0.5;
#X obj 722 419 *;
#X obj 716 402 t f f;
#X obj 563 530 lop~ 4000;
#X obj 648 446 hip~ 3;
#X obj 291 487 r wdelay_mix-\$1;
#X obj 712 380 r wdelay_feedback-\$1;
#X obj 619 507 r wdelay_pfilt-\$1;
#X obj 679 25 r wdelay_len-\$1;
#X obj 802 28 r wdelay_dir-\$1;
#X obj 966 -2 r wdelay_semi-\$1;
#X obj 1188 48 r wdelay_cent-\$1;
#X obj 1195 73 / 100;
#X obj 1195 96 t b f;
#X obj 964 124 f;
#X obj 983 142 + 0;
#X floatatom 982 162 5 0 0 0 - - -, f 5;
#X obj 979 198 mtof;
#X obj 976 219 / 8.1758;
#X text 909 330 F(forward) = (mtof(IN)/mtof(0)-1)/Delay F(reverse)
= (-mtof(IN)/mtof(0)-1)/Delay;
#X obj 1068 250 - 1;
#X obj 1062 232 * -1;
#X obj 967 246 - 1;
#X floatatom 908 50 5 0 0 0 - - -, f 5;
#X obj 781 66 / 1000;
#X obj 801 88 t b f;
#X obj 588 241 lop~ 5;
#X obj 953 297 spigot 1;
#X obj 1071 306 spigot 0;
#X obj 856 167 == 0;
#X obj 877 107 tgl 15 0 empty empty empty 17 7 0 10 -262144 -1 -1 0
1;
#X obj 1128 136 inlet;
#X obj 1128 157 - 72;
#X obj 1129 177 nbx 5 14 -1e+037 1e+037 0 0 empty empty empty 0 -8
0 10 -262144 -1 -1 0 256;
#X obj 981 177 + 0;
#X obj 1125 196 t b f;
#X obj 955 273 nbx 10 14 -1e+037 1e+037 0 0 empty empty empty 0 -8
0 10 -262144 -1 -1 0 256;
#X obj 1066 275 nbx 10 14 -1e+037 1e+037 0 0 empty empty empty 0 -8
0 10 -262144 -1 -1 0 256;
#X obj 759 205 lop~ 0.1;
#X obj 864 77 t b f;
#X obj 840 56 tgl 15 0 empty empty empty 17 7 0 10 -262144 -1 -1 0
1;
#X obj 676 476 hsl 128 15 0 8000 0 0 empty empty empty -2 -8 0 10 -262144
-1 -1 0 1;
#X obj 352 148 r wdelay_exprange-\$1;
#X obj 445 180 r auxIn-\$1;
#X obj 374 210 r fsIn-\$1;
#X obj 411 189 == 0;
#X obj 375 229 spigot 1;
#X obj 452 247 sel 1;
#X obj 424 270 tgl 15 0 empty empty empty 17 7 0 10 -262144 -1 -1 0
1;
#X text 452 270 freeze;
#X obj 805 508 r wdelay_len-\$1;
#X obj 793 534 delread~ del_line-\$1 8000;
#X obj 427 290 s freeze-\$1;
#X obj 894 383 r freeze-\$1;
#X obj 853 424 == 0;
#X obj 847 447 sig~ 1;
#X obj 923 436 sig~ 0;
#X obj 579 564 *~;
#X obj 833 472 lop~ 1;
#X obj 902 469 lop~ 1;
#X obj 774 569 *~;
#X msg 327 313 Frozen;
#X msg 398 315 Unfrozen;
#X obj 357 288 sel 1;
#X obj 324 354 s aux-label-\$1;
#N canvas 0 50 1366 725 quantize 0;
#X floatatom 295 90 5 0 0 0 - - -, f 5;
#X obj 284 219 nbx 5 14 -1e+037 1e+037 0 0 empty empty empty 0 -8 0
10 -262144 -1 -1 0 256;
#X obj 282 185 expr $f1 % 12;
#X obj 379 156 / 12;
#X obj 384 186 int;
#X obj 381 209 * 12;
#X obj 388 236 nbx 5 14 -1e+037 1e+037 0 0 empty empty empty 0 -8 0
10 -262144 -1 -1 0 256;
#X obj 174 284 tabread quantize-\$1;
#X obj 299 150 t f f;
#X obj 308 312 +;
#X obj 300 442 nbx 5 14 -1e+037 1e+037 0 0 empty empty empty 0 -8 0
10 -262144 -1 -1 0 256;
#X obj 287 248 + 0;
#X obj 397 351 * 12;
#X obj 308 374 nbx 5 14 -1e+037 1e+037 0 0 empty empty empty 0 -8 0
10 -262144 -1 -1 0 256;
#X obj 243 163 + 24;
#X obj 268 120 + 24;
#X obj 300 348 - 24;
#X obj 446 235 r wdelay_quantize-\$1;
#X obj 296 51 inlet;
#X obj 293 538 outlet;
#N canvas 0 50 450 250 (subpatch) 0;
#X array quantize-\$1 72 float 3;
#A 0 0 1 2 3 4 5 6 7 8 9 10 11 0 0 0 0 0 0 0 0 0 0 0 0 0 0 0 0 0 0
0 7 7 7 7 7 0 0 0 0 0 5 5 7 7 7 7 7 0 0 2 2 4 4 4 7 7 9 9 9 0 0 0 3
3 5 5 7 7 7 10 10;
#X coords 0 12 72 0 200 140 1 0 0;
#X restore 720 103 graph;
#X obj 504 315 sel 0 1 2 3 4 5;
#X msg 514 388 Q: Chromatic;
#X msg 544 418 Q: Oct;
#X msg 563 442 Q: Oct+5;
#X msg 573 497 Q: Oct+4+5;
#X msg 605 471 Q: Maj pent;
#X msg 717 476 Q: Min pent;
#X obj 524 569 s;
#X obj 557 571 s aux-label-\$1;
#X connect 0 0 15 0;
#X connect 1 0 11 0;
#X connect 2 0 1 0;
#X connect 3 0 4 0;
#X connect 4 0 5 0;
#X connect 5 0 6 0;
#X connect 6 0 9 1;
#X connect 7 0 9 0;
#X connect 8 0 2 0;
#X connect 8 1 3 0;
#X connect 9 0 16 0;
#X connect 10 0 19 0;
#X connect 11 0 7 0;
#X connect 12 0 11 1;
#X connect 13 0 12 0;
#X connect 15 0 8 0;
#X connect 16 0 10 0;
#X connect 17 0 12 0;
#X connect 17 0 21 0;
#X connect 18 0 0 0;
#X connect 21 0 22 0;
#X connect 21 1 23 0;
#X connect 21 2 24 0;
#X connect 21 3 25 0;
#X connect 21 4 26 0;
#X connect 21 5 27 0;
#X connect 22 0 29 0;
#X connect 23 0 29 0;
#X connect 24 0 29 0;
#X connect 25 0 29 0;
#X connect 26 0 29 0;
#X connect 27 0 29 0;
#X restore 950 69 pd quantize;
#X obj 960 97 + 0;
#X obj 962 35 + 0;
#X obj 1109 12 r expr_q-\$1;
#X obj 1045 57 r expr_uq-\$1;
#X obj 973 17 f;
#X obj 1106 37 t b f;
#X obj 1046 75 t b f;
#X obj 244 17 r wdelay_lensmooth-\$1;
#X obj 425 24 r wdelay_pitchsmooth-\$1;
#X floatatom 272 149 5 0 0 0 - - -, f 5;
#X obj 274 116 expr ((100-$f1)*(100-$f1)/10000)*20+0.1;
#X obj 260 70 expr ((100-$f1)*(100-$f1)/10000)*20+0.1;
#X obj 533 295 wdel \$1 1;
#X obj 461 386 +~;
#X obj 503 415 +~;
#X obj 633 302 wdel \$1 2;
#X obj 717 304 wdel \$1 3;
#X obj 245 180 s psmooth_internal-\$1;
#N canvas 0 50 1366 725 expressionpedal 0;
#X obj 210 60 r wdelay_exprange-\$1;
#X obj 252 148 spigot 0;
#X obj 235 100 > 0;
#X obj 291 94 r expIn-\$1;
#X obj 118 152 r wdelay_exprq-\$1;
#X obj 150 203 spigot 1;
#X obj 250 217 spigot 0;
#X obj 259 188 == 0;
#X obj 164 303 s expr_q-\$1;
#X obj 258 274 s expr_uq-\$1;
#X msg 261 241 0;
#X msg 173 222 0;
#X obj 266 116 * 12;
#X obj 116 261 int;
#X obj 73 242 + 0.5;
#X connect 0 0 2 0;
#X connect 0 0 12 1;
#X connect 1 0 5 0;
#X connect 1 0 6 0;
#X connect 2 0 1 1;
#X connect 3 0 12 0;
#X connect 4 0 5 1;
#X connect 4 0 7 0;
#X connect 5 0 11 0;
#X connect 5 0 14 0;
#X connect 6 0 10 0;
#X connect 6 0 9 0;
#X connect 7 0 6 1;
#X connect 10 0 8 0;
#X connect 11 0 9 0;
#X connect 12 0 1 0;
#X connect 13 0 8 0;
#X connect 14 0 13 0;
#X restore 20 494 pd expressionpedal;
#X obj 637 605 delwrite~ del_line-\$1 12000;
#X connect 0 0 1 0;
#X connect 0 0 11 0;
#X connect 0 0 42 0;
#X connect 2 0 3 0;
#X connect 2 0 9 0;
#X connect 4 0 9 0;
#X connect 5 0 9 0;
#X connect 6 0 8 1;
#X connect 7 0 8 0;
#X connect 8 0 22 0;
#X connect 9 0 44 0;
#X connect 10 0 21 0;
#X connect 11 0 56 0;
#X connect 12 0 10 0;
#X connect 12 0 16 0;
#X connect 13 0 10 0;
#X connect 13 0 17 0;
#X connect 16 0 15 0;
#X connect 17 0 14 0;
#X connect 18 0 16 2;
#X connect 18 0 17 2;
#X connect 19 0 8 1;
#X connect 20 0 19 0;
#X connect 20 1 19 1;
#X connect 21 0 75 0;
#X connect 22 0 21 0;
#X connect 23 0 18 0;
#X connect 24 0 20 0;
#X connect 25 0 21 1;
#X connect 26 0 11 0;
#X connect 26 0 42 0;
#X connect 27 0 58 0;
#X connect 28 0 88 0;
#X connect 29 0 30 0;
#X connect 30 0 31 0;
#X connect 31 0 32 0;
#X connect 31 1 33 1;
#X connect 32 0 33 0;
#X connect 33 0 34 0;
#X connect 34 0 52 0;
#X connect 35 0 36 0;
#X connect 36 0 39 0;
#X connect 36 0 40 0;
#X connect 38 0 55 0;
#X connect 39 0 38 0;
#X connect 40 0 54 0;
#X connect 41 0 32 0;
#X connect 42 0 43 0;
#X connect 43 0 32 0;
#X connect 44 0 99 0;
#X connect 44 0 100 0;
#X connect 44 0 96 0;
#X connect 45 0 9 0;
#X connect 46 0 9 0;
#X connect 47 0 45 1;
#X connect 48 0 47 0;
#X connect 48 0 46 1;
#X connect 49 0 50 0;
#X connect 50 0 51 0;
#X connect 51 0 53 0;
#X connect 52 0 35 0;
#X connect 53 0 32 0;
#X connect 53 1 52 1;
#X connect 54 0 45 0;
#X connect 55 0 46 0;
#X connect 56 0 96 1;
#X connect 56 0 99 1;
#X connect 56 0 100 1;
#X connect 57 0 32 0;
#X connect 57 1 48 0;
#X connect 58 0 57 0;
#X connect 59 0 21 1;
#X connect 60 0 63 0;
#X connect 61 0 65 0;
#X connect 62 0 64 0;
#X connect 63 0 64 1;
#X connect 64 0 65 0;
#X connect 65 0 66 0;
#X connect 66 0 70 0;
#X connect 66 0 81 0;
#X connect 68 0 69 0;
#X connect 69 0 78 0;
#X connect 71 0 72 0;
#X connect 71 0 74 0;
#X connect 72 0 73 0;
#X connect 73 0 76 0;
#X connect 74 0 77 0;
#X connect 75 0 103 0;
#X connect 76 0 75 1;
#X connect 77 0 78 1;
#X connect 78 0 103 0;
#X connect 79 0 82 0;
#X connect 80 0 82 0;
#X connect 81 0 79 0;
#X connect 81 1 80 0;
#X connect 83 0 84 0;
#X connect 84 0 32 0;
#X connect 85 0 83 0;
#X connect 86 0 89 0;
#X connect 87 0 90 0;
#X connect 88 0 85 0;
#X connect 89 0 88 0;
#X connect 89 1 85 1;
#X connect 90 0 88 0;
#X connect 90 1 84 1;
#X connect 91 0 95 0;
#X connect 92 0 94 0;
#X connect 93 0 101 0;
#X connect 94 0 44 1;
#X connect 94 0 93 0;
#X connect 95 0 56 1;
#X connect 96 0 7 0;
#X connect 96 1 97 0;
#X connect 96 2 98 0;
#X connect 97 0 17 1;
#X connect 98 0 16 1;
#X connect 99 0 7 0;
#X connect 99 1 97 0;
#X connect 99 2 98 0;
#X connect 100 0 7 0;
#X connect 100 1 97 0;
#X connect 100 2 98 0;
