#N canvas 8 60 1345 716 10;
#X obj 67 64 inlet;
#X obj 70 123 unpack 0 0;
#X obj 136 146 > 0;
#X obj 85 206 spigot 0;
#X obj 153 226 spigot 0;
#X obj 344 145 r wdelay_midictrl-\$1;
#X obj 333 299 sel 0;
#X obj 473 33 r wdelay_midipoly-\$1;
#X msg 345 376 0;
#X obj 92 266 spigot 0;
#X obj 162 280 spigot 0;
#X obj 296 233 r wdelay_midigate-\$1;
#X obj 166 332 spigot 0;
#X obj 172 387 s polygate-\$1-\$2;
#X msg 253 320 1;
#X obj 99 519 s polynote-\$1-\$2;
#X obj 113 416 - 72;
#X obj 270 300 sel 0;
#X obj 405 304 sel 0;
#X obj 113 353 bng 15 250 50 0 empty empty empty 17 7 0 10 -262144
-1 -1;
#X obj 191 85 bng 15 250 50 0 empty empty empty 17 7 0 10 -262144 -1
-1;
#X obj 275 172 t b f;
#X msg 176 178 0;
#X obj 246 265 t b f;
#X connect 0 0 1 0;
#X connect 1 0 3 0;
#X connect 1 1 2 0;
#X connect 2 0 4 0;
#X connect 3 0 9 0;
#X connect 4 0 10 0;
#X connect 5 0 6 0;
#X connect 5 0 9 1;
#X connect 5 0 21 0;
#X connect 6 0 8 0;
#X connect 7 0 4 1;
#X connect 7 0 3 1;
#X connect 7 0 18 0;
#X connect 8 0 15 0;
#X connect 9 0 16 0;
#X connect 10 0 12 0;
#X connect 11 0 17 0;
#X connect 11 0 23 0;
#X connect 12 0 13 0;
#X connect 12 0 19 0;
#X connect 14 0 13 0;
#X connect 16 0 15 0;
#X connect 17 0 14 0;
#X connect 18 0 8 0;
#X connect 20 0 4 0;
#X connect 21 0 22 0;
#X connect 21 1 10 1;
#X connect 22 0 4 0;
#X connect 23 0 22 0;
#X connect 23 1 12 1;
