#N canvas -7 2 1356 714 10;
#X obj 81 76 inlet;
#X obj 70 123 unpack 0 0;
#X obj 136 146 > 0;
#X obj 85 206 spigot 0;
#X obj 153 226 spigot 0;
#X obj 308 171 r wdelay_midictrl-\$1;
#X obj 333 299 sel 0;
#X obj 314 89 r wdelay_midipoly-\$1;
#X obj 405 304 == 0;
#X msg 345 376 0;
#X obj 92 266 spigot 0;
#X obj 162 280 spigot 0;
#X obj 236 266 r wdelay_midigate-\$1;
#X obj 161 323 spigot 0;
#X obj 246 298 == 0;
#X obj 176 363 s polygate-\$1-\$2;
#X msg 248 323 1;
#X obj 99 519 s polynote-\$1-\$2;
#X obj 113 416 - 72;
#X connect 0 0 1 0;
#X connect 1 0 3 0;
#X connect 1 1 2 0;
#X connect 2 0 4 0;
#X connect 3 0 10 0;
#X connect 4 0 11 0;
#X connect 5 0 6 0;
#X connect 5 0 11 1;
#X connect 5 0 10 1;
#X connect 6 0 9 0;
#X connect 7 0 8 0;
#X connect 7 0 4 1;
#X connect 7 0 3 1;
#X connect 8 0 9 0;
#X connect 9 0 17 0;
#X connect 10 0 18 0;
#X connect 11 0 13 0;
#X connect 12 0 13 1;
#X connect 12 0 14 0;
#X connect 13 0 15 0;
#X connect 14 0 16 0;
#X connect 16 0 15 0;
#X connect 18 0 17 0;
