#N canvas 18 74 1345 714 10;
#X obj 293 318 *~;
#X obj 347 433 *~;
#X obj 290 249 phasor~ 3.01;
#X obj 544 132 inlet~;
#X obj 329 566 outlet~;
#X obj 265 63 inlet~;
#X obj 413 121 noise~;
#X obj 401 161 lop~ 0.5;
#X obj 270 365 +~ 10;
#X obj 397 364 +~;
#X obj 327 342 *~ -1;
#X obj 362 195 *~ 1;
#X obj 557 85 r wdelay_drift-\$1;
#X obj 793 304 r wdelay_env-\$1;
#X obj 786 369 - 1;
#X obj 780 423 * -1;
#X obj 572 489 expr~ tanh($v2*$v1*(1-$v1));
#X obj 785 447 * 16;
#X obj 768 469 sig~ 8;
#X obj 832 469 nbx 5 14 -1e+037 1e+037 0 0 empty empty empty 0 -8 0
10 -262144 -1 -1 0 256;
#X obj 285 396 vd~ del_line-\$1;
#X obj 604 152 nbx 5 14 -1e+037 1e+037 0 0 empty empty empty 0 -8 0
10 -262144 -1 -1 0 256;
#X obj 106 35 r wdelay_semi_\$2-\$1;
#X obj 452 20 r wdelay_len_\$2-\$1;
#X obj 402 470 r wdelay_gain_\$2-\$1;
#X obj 373 517 *~ 1;
#X obj 300 186 /~ 1;
#X obj 278 292 *~ 1;
#X obj 44 204 mtof;
#X obj 51 226 / 8.1758;
#X obj 280 87 +~ 1;
#X obj 295 162 -~ 1;
#X obj 465 168 /~ 1000;
#X obj 300 208 /~;
#X obj 482 323 *~ 1;
#X obj 691 582 outlet~;
#X obj 467 586 outlet~;
#X obj 824 180 r wdelay_pan_\$2-\$1;
#X floatatom 592 321 5 -1 1 0 - - -, f 5;
#X obj 590 445 nbx 5 14 -1e+037 1e+037 0 0 empty empty empty 0 -8 0
10 -262144 -1 -1 0 256;
#X obj 571 298 hsl 128 15 -1 1 0 0 empty empty empty -2 -8 0 10 -262144
-1 -1 0 1;
#X obj 540 406 expr 1.4142*sin(($f1+1)*3.14159/4);
#X floatatom 1034 338 5 -1 1 0 - - -, f 5;
#X obj 998 466 nbx 5 14 -1e+037 1e+037 0 0 empty empty empty 0 -8 0
10 -262144 -1 -1 0 256;
#X obj 1023 317 hsl 128 15 -1 1 0 0 empty empty empty -2 -8 0 10 -262144
-1 -1 0 1;
#X obj 982 425 expr 1.4142*cos((1+$f1)*3.1414/4);
#X obj 708 535 *~ 1;
#X obj 476 551 *~ 1;
#X obj 55 248 sig~ 1;
#X obj 31 19 r polynote-\$1-\$2;
#X obj 47 122 +;
#X obj 123 179 r psmooth_internal-\$1;
#X obj 58 266 lop~ 5;
#X obj 92 67 t b f;
#X obj 46 87 f;
#X obj 282 123 *~;
#X obj 751 42 r polygate-\$1-\$2;
#X obj 858 93 expr ((100-$f1)*(100-$f1)/10000)*20+0.1;
#X obj 734 133 lop~ 5;
#X obj 736 89 sig~ 1;
#X obj 931 31 r wdelay_gatear-\$1;
#X obj 362 468 *~;
#X obj 795 76 nbx 5 14 -1e+037 1e+037 0 0 empty empty empty 0 -8 0
10 -262144 -1 -1 0 256;
#X obj 846 134 nbx 5 14 -1e+037 1e+037 0 0 empty empty empty 0 -8 0
10 -262144 -1 -1 0 256;
#X obj 133 95 r wdelay_cent_\$2-\$1;
#X obj 122 117 / 100;
#X obj 112 144 t b f;
#X obj 57 174 +;
#X obj 794 336 / 100;
#X obj 482 60 / 100;
#X obj 408 495 / 100;
#X connect 0 0 10 0;
#X connect 1 0 61 0;
#X connect 2 0 16 0;
#X connect 2 0 27 0;
#X connect 3 0 0 1;
#X connect 3 0 32 0;
#X connect 3 0 34 0;
#X connect 5 0 30 0;
#X connect 6 0 7 0;
#X connect 7 0 11 0;
#X connect 8 0 20 0;
#X connect 9 0 8 0;
#X connect 10 0 9 0;
#X connect 11 0 2 0;
#X connect 12 0 11 1;
#X connect 12 0 21 0;
#X connect 13 0 68 0;
#X connect 14 0 15 0;
#X connect 15 0 17 0;
#X connect 16 0 1 1;
#X connect 17 0 18 0;
#X connect 17 0 19 0;
#X connect 18 0 16 1;
#X connect 20 0 1 0;
#X connect 22 0 53 0;
#X connect 23 0 69 0;
#X connect 24 0 70 0;
#X connect 25 0 4 0;
#X connect 25 0 47 0;
#X connect 25 0 46 0;
#X connect 26 0 33 0;
#X connect 27 0 0 0;
#X connect 28 0 29 0;
#X connect 29 0 48 0;
#X connect 30 0 55 0;
#X connect 31 0 26 0;
#X connect 32 0 33 1;
#X connect 33 0 2 0;
#X connect 34 0 9 1;
#X connect 37 0 40 0;
#X connect 37 0 44 0;
#X connect 38 0 41 0;
#X connect 39 0 46 1;
#X connect 40 0 38 0;
#X connect 41 0 39 0;
#X connect 42 0 45 0;
#X connect 43 0 47 1;
#X connect 44 0 42 0;
#X connect 45 0 43 0;
#X connect 46 0 35 0;
#X connect 47 0 36 0;
#X connect 48 0 52 0;
#X connect 49 0 54 0;
#X connect 50 0 67 0;
#X connect 51 0 52 1;
#X connect 52 0 55 1;
#X connect 53 0 54 0;
#X connect 53 1 50 1;
#X connect 54 0 50 0;
#X connect 55 0 31 0;
#X connect 56 0 59 0;
#X connect 56 0 62 0;
#X connect 57 0 58 1;
#X connect 57 0 63 0;
#X connect 58 0 61 1;
#X connect 59 0 58 0;
#X connect 60 0 57 0;
#X connect 61 0 25 0;
#X connect 64 0 65 0;
#X connect 65 0 66 0;
#X connect 66 0 54 0;
#X connect 66 1 67 1;
#X connect 67 0 28 0;
#X connect 68 0 14 0;
#X connect 69 0 34 1;
#X connect 69 0 27 1;
#X connect 69 0 26 1;
#X connect 70 0 25 1;
