#N canvas 6 50 1345 659 10;
#X obj 347 433 *~;
#X obj 329 566 outlet~;
#X obj 148 305 vd~ del_line-\$1;
#X obj 402 470 r wdelay_gain_\$2-\$1;
#X obj 373 517 *~ 1;
#X obj 691 582 outlet~;
#X obj 467 586 outlet~;
#X obj 824 180 r wdelay_pan_\$2-\$1;
#X floatatom 560 377 5 -1 1 0 - - -, f 5;
#X obj 590 445 nbx 5 14 -1e+037 1e+037 0 0 empty empty empty 0 -8 0
10 -262144 -1 -1 0 256;
#X obj 666 296 hsl 128 15 -1 1 0 0 empty empty empty -2 -8 0 10 -262144
-1 -1 0 1;
#X obj 540 406 expr 1.4142*sin(($f1+1)*3.14159/4);
#X floatatom 1034 338 5 -1 1 0 - - -, f 5;
#X obj 998 466 nbx 5 14 -1e+037 1e+037 0 0 empty empty empty 0 -8 0
10 -262144 -1 -1 0 256;
#X obj 1023 317 hsl 128 15 -1 1 0 0 empty empty empty -2 -8 0 10 -262144
-1 -1 0 1;
#X obj 982 425 expr 1.4142*cos((1+$f1)*3.1414/4);
#X obj 566 529 *~ 1;
#X obj 476 551 *~ 1;
#X obj 647 24 r polygate-\$1-\$2;
#X obj 858 93 expr ((100-$f1)*(100-$f1)/10000)*20+0.1;
#X obj 614 218 lop~ 5;
#X obj 613 193 sig~ 1;
#X obj 931 31 r wdelay_gatear-\$1;
#X obj 362 468 *~;
#X obj 795 76 nbx 5 14 -1e+037 1e+037 0 0 empty empty empty 0 -8 0
10 -262144 -1 -1 0 256;
#X obj 846 134 nbx 5 14 -1e+037 1e+037 0 0 empty empty empty 0 -8 0
10 -262144 -1 -1 0 256;
#X obj 408 495 / 100;
#N canvas 5 50 1351 664 fcalc 1;
#X obj 340 322 sig~ 1;
#X obj 632 481 sig~ 1000;
#X obj 693 241 r wdelay_len-\$1;
#X obj 573 184 r wdelay_dir-\$1;
#X obj 467 48 r wdelay_semi-\$1;
#X obj 300 49 r wdelay_cent-\$1;
#X obj 341 72 / 100;
#X obj 341 96 t b f;
#X obj 452 188 f;
#X obj 429 211 + 0;
#X floatatom 408 236 5 0 0 0 - - -, f 5;
#X obj 335 278 mtof;
#X obj 321 297 / 8.1758;
#X text 911 90 F(forward) = (mtof(IN)/mtof(0)-1)/Delay F(reverse) =
(-mtof(IN)/mtof(0)-1)/Delay, f 51;
#X obj 334 348 lop~ 5;
#X obj 590 311 tgl 15 0 empty empty empty 17 7 0 10 -262144 -1 -1 0
1;
#X obj 291 156 - 72;
#X obj 290 174 nbx 5 14 -1e+037 1e+037 0 0 empty empty empty 0 -8 0
10 -262144 -1 -1 0 256;
#X obj 312 233 + 0;
#X obj 308 202 t b f;
#X obj 566 251 t b f;
#N canvas 0 50 1364 725 quantize 0;
#X floatatom 295 90 5 0 0 0 - - -, f 5;
#X obj 284 219 nbx 5 14 -1e+037 1e+037 0 0 empty empty empty 0 -8 0
10 -262144 -1 -1 0 256;
#X obj 282 185 expr $f1 % 12;
#X obj 379 156 / 12;
#X obj 384 186 int;
#X obj 381 209 * 12;
#X obj 388 236 nbx 5 14 -1e+037 1e+037 0 0 empty empty empty 0 -8 0
10 -262144 -1 -1 0 256;
#X obj 174 284 tabread quantize-\$1;
#X obj 299 150 t f f;
#X obj 308 312 +;
#X obj 300 442 nbx 5 14 -1e+037 1e+037 0 0 empty empty empty 0 -8 0
10 -262144 -1 -1 0 256;
#X obj 287 248 + 0;
#X obj 397 351 * 12;
#X obj 308 374 nbx 5 14 -1e+037 1e+037 0 0 empty empty empty 0 -8 0
10 -262144 -1 -1 0 256;
#X obj 243 163 + 24;
#X obj 268 120 + 24;
#X obj 300 348 - 24;
#X obj 446 235 r wdelay_quantize-\$1;
#X obj 296 51 inlet;
#X obj 293 538 outlet;
#N canvas 0 50 450 250 (subpatch) 0;
#X array quantize-\$1 72 float 3;
#A 0 0 1 2 3 4 5 6 7 8 9 10 11 0 0 0 0 0 0 0 0 0 0 0 0 0 0 0 0 0 0
0 7 7 7 7 7 0 0 0 0 0 5 5 7 7 7 7 7 0 0 2 2 4 4 4 7 7 9 9 9 0 0 0 3
3 5 5 7 7 7 10 10;
#X coords 0 12 72 0 200 140 1 0 0;
#X restore 720 103 graph;
#X obj 504 315 sel 0 1 2 3 4 5;
#X msg 514 388 Q: Chromatic;
#X msg 544 418 Q: Oct;
#X msg 563 442 Q: Oct+5;
#X msg 573 497 Q: Oct+4+5;
#X msg 605 471 Q: Maj pent;
#X msg 717 476 Q: Min pent;
#X obj 524 569 s;
#X obj 557 571 s aux-label-\$1;
#X connect 0 0 15 0;
#X connect 1 0 11 0;
#X connect 2 0 1 0;
#X connect 3 0 4 0;
#X connect 4 0 5 0;
#X connect 5 0 6 0;
#X connect 6 0 9 1;
#X connect 7 0 9 0;
#X connect 8 0 2 0;
#X connect 8 1 3 0;
#X connect 9 0 16 0;
#X connect 10 0 19 0;
#X connect 11 0 7 0;
#X connect 12 0 11 1;
#X connect 13 0 12 0;
#X connect 15 0 8 0;
#X connect 16 0 10 0;
#X connect 17 0 12 0;
#X connect 17 0 21 0;
#X connect 18 0 0 0;
#X connect 21 0 22 0;
#X connect 21 1 23 0;
#X connect 21 2 24 0;
#X connect 21 3 25 0;
#X connect 21 4 26 0;
#X connect 21 5 27 0;
#X connect 22 0 29 0;
#X connect 23 0 29 0;
#X connect 24 0 29 0;
#X connect 25 0 29 0;
#X connect 26 0 29 0;
#X connect 27 0 29 0;
#X restore 446 130 pd quantize;
#X obj 453 158 + 0;
#X obj 436 111 + 0;
#X obj 606 50 r expr_q-\$1;
#X obj 541 118 r expr_uq-\$1;
#X obj 461 81 f;
#X obj 587 82 t b f;
#X obj 541 160 t b f;
#X obj 326 600 *~;
#X obj 340 538 phasor~ 3.01;
#X obj 80 428 noise~;
#X obj 75 466 lop~ 0.5;
#X obj 347 648 +~;
#X obj 332 621 *~ -1;
#X obj 132 430 r wdelay_drift-\$1;
#X obj 487 486 /~ 1000;
#X obj 330 524 /~;
#X obj 130 67 r wdelay_semi_\$2-\$1;
#X obj 52 47 r polynote-\$1-\$2;
#X obj 59 153 +;
#X obj 113 95 t b f;
#X obj 58 118 f;
#X obj 164 91 r wdelay_cent_\$2-\$1;
#X obj 143 145 / 100;
#X obj 133 172 t b f;
#X obj 79 193 +;
#X obj 277 132 r mononote-\$1;
#X obj 342 699 outlet~;
#X obj 610 508 +~;
#X obj 409 297 r psmooth_internal-\$1;
#X obj 313 263 +;
#X obj 97 218 t b f;
#X obj 820 214 r wdelay_len_\$2-\$1;
#X obj 746 344 * 1;
#X obj 716 302 f 1;
#X obj 782 297 t b f;
#X obj 807 270 / 100;
#X obj 764 390 r lsmooth_internal-\$1;
#X obj 760 692 outlet~;
#X obj 993 305 r wdelay_env-\$1;
#X obj 986 370 - 1;
#X obj 984 403 * -1;
#X obj 676 585 expr~ tanh($v2*$v1*(1-$v1));
#X obj 989 427 * 16;
#X obj 972 449 sig~ 8;
#X obj 994 337 / 100;
#X obj 786 605 -~ 1;
#X obj 779 650 +~ 1;
#X text 858 621 prevent the envelope getting stuck at 0 when freq=0
;
#X obj 766 55 inlet;
#X msg 763 149 0;
#X obj 356 675 +~ 3;
#X obj 150 630 snapshot~;
#X obj 28 628 nbx 10 14 -1e+037 1e+037 0 0 empty empty empty 0 -8 0
10 -262144 -1 -1 0 256;
#X obj 165 549 bng 15 250 50 0 empty empty empty 17 7 0 10 -262144
-1 -1;
#X obj 764 426 nbx 5 14 -1e+037 1e+037 0 0 empty empty empty 0 -8 0
10 -262144 -1 -1 0 256;
#X obj 222 293 nbx 5 14 -1e+037 1e+037 0 0 empty empty empty 0 -8 0
10 -262144 -1 -1 0 256;
#X obj 306 484 *~ 1;
#X obj 399 477 *~ 0;
#X obj 399 453 -~ 1;
#X obj 303 458 -~ 1;
#X obj 400 429 *~ -1;
#X obj 671 357 bng 15 250 50 0 empty empty empty 17 7 0 10 -262144
-1 -1;
#X obj 659 424 f 0;
#X obj 492 345 nbx 5 14 -1e+037 1e+037 0 0 empty empty empty 0 -8 0
10 -262144 -1 -1 0 256;
#X obj 496 521 nbx 5 14 -1e+037 1e+037 0 0 empty empty empty 0 -8 0
10 -262144 -1 -1 0 256;
#X obj 592 351 == 0;
#X obj 557 423 nbx 5 14 -1e+037 1e+037 0 0 empty empty empty 0 -8 0
10 -262144 -1 -1 0 256;
#X obj 77 500 *~ 0;
#X obj 783 628 hip~ 0.5;
#X obj 259 376 *~ 1000;
#X obj 275 427 wrap~;
#X obj 258 399 +~ 0.5;
#X obj 253 458 -~;
#X obj 372 402 /~ 1000;
#X text 346 380 round to prevent drift;
#X obj 829 668 *~;
#X obj 626 403 delay 50;
#X obj 624 378 delay 1000;
#X obj 663 459 nbx 5 14 -1e+037 1e+037 0 0 empty empty empty 0 -8 0
10 -262144 -1 -1 0 256;
#X obj 859 641 sig~ 1;
#X obj 997 134 r wdelay_phase_\$2-\$1;
#X obj 615 200 r wdelay_rev_\$2-\$1;
#X obj 664 113 r wdelay_expr_\$2-\$1;
#X obj 542 139 * 1;
#X obj 633 86 * 1;
#X obj 332 579 wrap~;
#X obj 1000 156 / 100;
#X obj 335 559 +~ 0;
#X obj 571 220 f;
#X obj 608 220 t b f;
#X obj 603 289 != 0;
#X connect 0 0 14 0;
#X connect 1 0 49 0;
#X connect 2 0 55 0;
#X connect 3 0 110 0;
#X connect 4 0 26 0;
#X connect 5 0 6 0;
#X connect 6 0 7 0;
#X connect 7 0 8 0;
#X connect 7 1 9 1;
#X connect 8 0 9 0;
#X connect 9 0 10 0;
#X connect 10 0 18 0;
#X connect 11 0 12 0;
#X connect 12 0 0 0;
#X connect 14 0 91 0;
#X connect 15 0 87 0;
#X connect 15 0 79 1;
#X connect 16 0 17 0;
#X connect 17 0 19 0;
#X connect 18 0 51 0;
#X connect 19 0 8 0;
#X connect 19 1 18 1;
#X connect 20 0 8 0;
#X connect 20 1 112 0;
#X connect 21 0 22 0;
#X connect 22 0 8 0;
#X connect 23 0 21 0;
#X connect 24 0 106 0;
#X connect 25 0 105 0;
#X connect 26 0 23 0;
#X connect 27 0 26 0;
#X connect 27 1 23 1;
#X connect 28 0 26 0;
#X connect 28 1 22 1;
#X connect 29 0 34 0;
#X connect 30 0 109 0;
#X connect 31 0 32 0;
#X connect 32 0 89 0;
#X connect 33 0 72 0;
#X connect 34 0 33 0;
#X connect 35 0 89 1;
#X connect 36 0 37 1;
#X connect 37 0 30 0;
#X connect 38 0 41 0;
#X connect 39 0 42 0;
#X connect 40 0 46 0;
#X connect 41 0 42 0;
#X connect 41 1 40 1;
#X connect 42 0 40 0;
#X connect 43 0 44 0;
#X connect 44 0 45 0;
#X connect 45 0 42 0;
#X connect 45 1 46 1;
#X connect 46 0 52 0;
#X connect 47 0 16 0;
#X connect 49 0 29 1;
#X connect 49 0 36 0;
#X connect 49 0 33 1;
#X connect 50 0 14 1;
#X connect 51 0 11 0;
#X connect 51 0 77 0;
#X connect 52 0 8 0;
#X connect 52 1 51 1;
#X connect 53 0 57 0;
#X connect 54 0 83 0;
#X connect 54 0 84 1;
#X connect 55 0 54 0;
#X connect 56 0 55 0;
#X connect 56 1 54 1;
#X connect 57 0 56 0;
#X connect 58 0 76 0;
#X connect 60 0 66 0;
#X connect 61 0 62 0;
#X connect 62 0 64 0;
#X connect 63 0 67 0;
#X connect 64 0 65 0;
#X connect 65 0 63 1;
#X connect 66 0 61 0;
#X connect 67 0 90 0;
#X connect 68 0 97 0;
#X connect 70 0 71 0;
#X connect 71 0 30 1;
#X connect 72 0 48 0;
#X connect 73 0 74 0;
#X connect 75 0 73 0;
#X connect 78 0 37 0;
#X connect 79 0 37 0;
#X connect 80 0 79 0;
#X connect 81 0 78 0;
#X connect 82 0 80 0;
#X connect 83 0 99 0;
#X connect 84 0 1 0;
#X connect 84 0 86 0;
#X connect 84 0 100 0;
#X connect 87 0 78 1;
#X connect 89 0 30 0;
#X connect 90 0 68 0;
#X connect 91 0 93 0;
#X connect 92 0 94 1;
#X connect 93 0 92 0;
#X connect 93 0 94 0;
#X connect 94 0 95 0;
#X connect 95 0 81 0;
#X connect 95 0 82 0;
#X connect 97 0 59 0;
#X connect 98 0 84 0;
#X connect 99 0 98 0;
#X connect 101 0 97 1;
#X connect 102 0 108 0;
#X connect 103 0 111 0;
#X connect 104 0 106 1;
#X connect 104 0 105 1;
#X connect 105 0 28 0;
#X connect 106 0 27 0;
#X connect 107 0 63 0;
#X connect 107 0 29 0;
#X connect 108 0 109 1;
#X connect 109 0 107 0;
#X connect 110 0 20 0;
#X connect 111 0 110 1;
#X connect 111 1 112 1;
#X connect 112 0 15 0;
#X restore 226 252 pd fcalc;
#X obj 475 9 r wdelay_freezegate-\$1;
#X obj 367 4 r freeze-\$1;
#X obj 444 82 spigot 0;
#X obj 512 131 f 1;
#X obj 613 149 * 1;
#X obj 614 168 change -1;
#X obj 537 106 t b f;
#X obj 327 100 sel 1;
#X obj 213 138 r wdelay_gatereset-\$1;
#X obj 225 226 spigot 0;
#X obj 523 204 nbx 5 14 -1e+037 1e+037 0 0 empty empty empty 0 -8 0
10 -262144 -1 -1 0 256;
#X obj 441 54 f 0;
#X obj 490 56 t b f;
#X msg 533 56 1;
#X obj 588 42 sel 0;
#X obj 672 91 nbx 5 14 -1e+037 1e+037 0 0 empty empty empty 0 -8 0
10 -262144 -1 -1 0 256;
#X connect 0 0 23 0;
#X connect 2 0 0 0;
#X connect 3 0 26 0;
#X connect 4 0 1 0;
#X connect 4 0 17 0;
#X connect 4 0 16 0;
#X connect 7 0 10 0;
#X connect 7 0 14 0;
#X connect 8 0 11 0;
#X connect 9 0 16 1;
#X connect 10 0 8 0;
#X connect 11 0 9 0;
#X connect 12 0 15 0;
#X connect 13 0 17 1;
#X connect 14 0 12 0;
#X connect 15 0 13 0;
#X connect 16 0 5 0;
#X connect 17 0 6 0;
#X connect 18 0 24 0;
#X connect 18 0 31 0;
#X connect 19 0 20 1;
#X connect 19 0 25 0;
#X connect 20 0 23 1;
#X connect 21 0 20 0;
#X connect 22 0 19 0;
#X connect 23 0 4 0;
#X connect 26 0 4 1;
#X connect 27 0 2 0;
#X connect 27 1 0 1;
#X connect 28 0 40 0;
#X connect 28 0 42 0;
#X connect 29 0 39 0;
#X connect 30 0 34 0;
#X connect 31 0 32 0;
#X connect 32 0 33 0;
#X connect 32 0 43 0;
#X connect 33 0 21 0;
#X connect 33 0 35 0;
#X connect 33 0 38 0;
#X connect 34 0 31 0;
#X connect 34 1 32 1;
#X connect 35 0 37 0;
#X connect 36 0 37 1;
#X connect 37 0 27 0;
#X connect 39 0 30 0;
#X connect 40 0 39 0;
#X connect 40 1 30 1;
#X connect 41 0 34 0;
#X connect 42 0 41 0;
