#N canvas 17 31 1190 956 10;
#X obj 96 1164 osc~;
#X obj 236 572 osc~;
#X obj 236 541 *~;
#X obj 251 440 line~;
#X obj 96 1135 +~;
#X obj 778 804 line~;
#X obj 96 1196 outlet~;
#X obj 360 570 osc~;
#X obj 360 544 *~;
#X obj 375 465 line~;
#X obj 236 1065 *~;
#X obj 522 494 line~;
#X obj 507 571 osc~;
#X obj 778 749 r 4op_index;
#X obj 936 670 inlet~ LFO_index;
#X text 136 1165 FM'd, f 5;
#X text 156 1197 Audio out (signal) (-1. \, 1.);
#X obj 363 330 t b f;
#X obj 375 402 * 1;
#X text 388 213 slider (0. \, 1.);
#X text 525 256 slider (0. \, 10.);
#X text 666 293 slider (0. \, 5.);
#X text 510 24 4 operators FM oscillator;
#X text 459 114 Must receive index value (0. \, 2000.) via [s 4op_index]
;
#X text 81 99 Outlet 1 : Audio output (signal -1 \, 1.);
#X text 81 81 Inlet 2 : Index LFO input (signal -1 \, 1.);
#X obj 96 433 inlet~;
#X text 88 380 Note input;
#X text 81 63 Inlet 1 : Note input (signal);
#X obj 778 844 +~;
#X text 783 893 signal can't be below 0;
#X obj 936 805 *~;
#X obj 951 777 line~;
#X obj 951 728 r 4op_LFO_depth;
#X text 459 132 Must receive LFO depth value (0. \, 1000.) via [s 4op_LFO_depth]
, f 64;
#X obj 297 213 r 4op_ratio2;
#X obj 440 256 r 4op_ratio3;
#X obj 581 293 r 4op_ratio4;
#X text 459 62 Must receive ratio 1 value (0. \, 1.) via [s 4op_ratio2]
;
#X text 459 79 Must receive ratio 2 value (0. \, 10.) via [s 4op_ratio3]
;
#X text 459 97 Must receive ratio 3 value (0. \, 5.) via [s 4op_ratio4]
;
#X obj 581 465 != 0;
#X obj 581 532 line~;
#X obj 581 487 change;
#X obj 507 600 *~;
#X obj 440 672 != 0;
#X obj 440 739 line~;
#X obj 440 694 change;
#X obj 360 794 *~;
#X obj 297 892 != 0;
#X obj 297 959 line~;
#X obj 297 914 change;
#X obj 778 867 clip~ 0 10000;
#X obj 236 995 *~;
#X obj 236 885 +~;
#X text 605 402 Ratios;
#X text 343 894 If op 2 ratio = 0 then cut op 2 \, op 3 and 4 entirely
, f 27;
#X text 643 477 If op 4 ratio = 0 then cut the op 4 entirely, f 22
;
#X text 505 684 If op 3 ratio = 0 then cut op 3 and op 4 entirely,
f 27;
#X text 643 509 These prevent a bug where when the osc were at 0 ratio
and index more than 0 it would not play the right notes;
#X msg 522 470 \$1 40;
#X msg 375 436 \$1 40;
#X msg 251 417 \$1 40;
#X obj 360 664 +~;
#X msg 778 780 \$1 10;
#X msg 951 753 \$1 10;
#X msg 297 936 \$1 10;
#X msg 440 716 \$1 10;
#X msg 581 509 \$1 10;
#X obj 251 363 f;
#X obj 522 441 * 1;
#X obj 510 335 t b f;
#X obj 507 546 *~;
#X connect 0 0 6 0;
#X connect 1 0 54 0;
#X connect 2 0 1 0;
#X connect 3 0 2 1;
#X connect 4 0 0 0;
#X connect 5 0 29 0;
#X connect 7 0 63 0;
#X connect 8 0 7 0;
#X connect 9 0 8 1;
#X connect 10 0 4 1;
#X connect 11 0 72 1;
#X connect 12 0 44 0;
#X connect 13 0 64 0;
#X connect 14 0 31 0;
#X connect 17 0 69 0;
#X connect 17 1 18 1;
#X connect 18 0 61 0;
#X connect 18 0 70 0;
#X connect 26 0 2 0;
#X connect 26 0 4 0;
#X connect 26 0 8 0;
#X connect 26 0 72 0;
#X connect 29 0 52 0;
#X connect 31 0 29 1;
#X connect 32 0 31 1;
#X connect 33 0 65 0;
#X connect 35 0 49 0;
#X connect 35 0 69 0;
#X connect 36 0 17 0;
#X connect 36 0 45 0;
#X connect 37 0 71 0;
#X connect 37 0 41 0;
#X connect 41 0 43 0;
#X connect 42 0 44 1;
#X connect 43 0 68 0;
#X connect 44 0 63 1;
#X connect 45 0 47 0;
#X connect 46 0 48 1;
#X connect 47 0 67 0;
#X connect 48 0 54 1;
#X connect 49 0 51 0;
#X connect 50 0 53 1;
#X connect 51 0 66 0;
#X connect 52 0 10 1;
#X connect 53 0 10 0;
#X connect 54 0 53 0;
#X connect 60 0 11 0;
#X connect 61 0 9 0;
#X connect 62 0 3 0;
#X connect 63 0 48 0;
#X connect 64 0 5 0;
#X connect 65 0 32 0;
#X connect 66 0 50 0;
#X connect 67 0 46 0;
#X connect 68 0 42 0;
#X connect 69 0 62 0;
#X connect 69 0 18 0;
#X connect 70 0 60 0;
#X connect 71 0 69 0;
#X connect 71 1 70 1;
#X connect 72 0 12 0;
