#N canvas 4 50 1265 660 10;
#X obj 454 390 adsr_curve;
#X msg 454 247 \$2;
#X obj 264 186 inlet midinote;
#X obj 264 244 stripnote;
#X obj 365 274 inlet~ LFO;
#X obj 264 324 pitch_utility;
#X text 533 398 Envelope;
#X text 181 388 Oscillator;
#X text 163 318 Note and pitch manipulation, f 14;
#X obj 264 548 outlet~;
#X text 496 248 Velocity (and note off);
#X text 161 246 Erase note off;
#X obj 264 503 vca;
#X text 222 501 Amp;
#X obj 264 438 sub_osc;
#X text 157 439 Sub Oscillator;
#X obj 366 300 lfo_delay;
#X obj 264 387 4op_fm_osc;
#X connect 0 0 12 1;
#X connect 1 0 0 0;
#X connect 1 0 16 1;
#X connect 2 0 3 0;
#X connect 2 0 1 0;
#X connect 3 0 5 0;
#X connect 4 0 16 0;
#X connect 5 0 14 1;
#X connect 5 0 17 0;
#X connect 12 0 9 0;
#X connect 14 0 12 0;
#X connect 16 0 5 1;
#X connect 16 0 17 1;
#X connect 17 0 14 0;
