#N canvas 52 70 1116 596 10;
#X obj 982 338 vsl 15 128 0 1 0 0 empty empty A 0 -9 0 10 -262144 -1
-1 635 1;
#N canvas 0 50 1205 865 att 0;
#X obj 61 72 inlet;
#X obj 61 241 + 1.5;
#X obj 68 267 s attack;
#X obj 61 215 * 3000;
#X text 116 228 Scale from 1.5 to near 3001.5 ms;
#X obj 61 192 pow 2;
#X obj 61 562 spigot;
#X obj 61 370 i;
#X obj 308 275 r page_select;
#X obj 308 386 change;
#X msg 342 352 0;
#X obj 308 324 delay 10;
#X msg 308 352 1;
#X obj 308 411 t b f;
#X obj 61 469 f;
#X obj 61 424 t b f;
#X msg 61 514 1: Attack \$1 ms;
#X obj 61 594 s screenLine1;
#X obj 308 301 sel 2;
#X text 356 301 page 2;
#X obj 109 140 s param;
#X msg 109 112 \$1 9;
#X text 147 113 Second number is index (9);
#X connect 0 0 5 0;
#X connect 0 0 21 0;
#X connect 1 0 2 0;
#X connect 1 0 7 0;
#X connect 3 0 1 0;
#X connect 5 0 3 0;
#X connect 6 0 17 0;
#X connect 7 0 15 0;
#X connect 8 0 18 0;
#X connect 9 0 13 0;
#X connect 10 0 9 0;
#X connect 11 0 12 0;
#X connect 12 0 9 0;
#X connect 13 0 14 0;
#X connect 13 1 6 1;
#X connect 14 0 16 0;
#X connect 15 0 14 0;
#X connect 15 1 14 1;
#X connect 16 0 6 0;
#X connect 18 0 11 0;
#X connect 18 1 10 0;
#X connect 21 0 20 0;
#X restore 982 552 pd att;
#X obj 1008 338 vsl 15 128 0 1 0 0 empty empty D 0 -9 0 10 -262144
-1 -1 762 1;
#N canvas 0 50 1209 855 dec 0;
#X obj 79 301 s decay;
#X obj 61 59 inlet;
#X obj 61 262 + 1.5;
#X obj 61 236 * 3000;
#X obj 61 208 pow 2;
#X obj 61 569 spigot;
#X obj 61 377 i;
#X obj 308 282 r page_select;
#X obj 308 393 change;
#X msg 342 359 0;
#X obj 308 331 delay 10;
#X msg 308 359 1;
#X obj 308 418 t b f;
#X obj 61 476 f;
#X obj 61 431 t b f;
#X obj 308 308 sel 2;
#X text 356 308 page 2;
#X obj 61 601 s screenLine2;
#X msg 61 521 2: Decay \$1 ms;
#X obj 87 131 s param;
#X msg 87 103 \$1 10;
#X text 125 104 Second number is index (10);
#X connect 1 0 4 0;
#X connect 1 0 20 0;
#X connect 2 0 0 0;
#X connect 2 0 6 0;
#X connect 3 0 2 0;
#X connect 4 0 3 0;
#X connect 5 0 17 0;
#X connect 6 0 14 0;
#X connect 7 0 15 0;
#X connect 8 0 12 0;
#X connect 9 0 8 0;
#X connect 10 0 11 0;
#X connect 11 0 8 0;
#X connect 12 0 13 0;
#X connect 12 1 5 1;
#X connect 13 0 18 0;
#X connect 14 0 13 0;
#X connect 14 1 13 1;
#X connect 15 0 10 0;
#X connect 15 1 9 0;
#X connect 18 0 5 0;
#X connect 20 0 19 0;
#X restore 1008 528 pd dec;
#X obj 1034 338 vsl 15 128 0 1 0 0 empty empty S 0 -9 0 10 -262144
-1 -1 6350 1;
#X obj 1060 338 vsl 15 128 0 1 0 0 empty empty R 0 -9 0 10 -262144
-1 -1 6350 1;
#N canvas 0 50 1192 723 rel 0;
#X text 115 229 Scale from 1.5 to 12001.5;
#X obj 94 285 s release;
#X obj 61 71 inlet;
#X obj 61 254 + 1.5;
#X obj 61 228 * 12000;
#X obj 61 199 pow 2;
#X obj 61 550 spigot;
#X obj 61 358 i;
#X obj 308 263 r page_select;
#X obj 308 374 change;
#X msg 342 340 0;
#X obj 308 312 delay 10;
#X msg 308 340 1;
#X obj 308 399 t b f;
#X obj 61 457 f;
#X obj 61 412 t b f;
#X obj 308 289 sel 2;
#X text 356 289 page 2;
#X obj 61 582 s screenLine4;
#X msg 61 502 4: Release \$1 ms;
#X obj 83 134 s param;
#X msg 83 106 \$1 12;
#X text 125 107 Second number is index (12);
#X connect 2 0 5 0;
#X connect 2 0 21 0;
#X connect 3 0 1 0;
#X connect 3 0 7 0;
#X connect 4 0 3 0;
#X connect 5 0 4 0;
#X connect 6 0 18 0;
#X connect 7 0 15 0;
#X connect 8 0 16 0;
#X connect 9 0 13 0;
#X connect 10 0 9 0;
#X connect 11 0 12 0;
#X connect 12 0 9 0;
#X connect 13 0 14 0;
#X connect 13 1 6 1;
#X connect 14 0 19 0;
#X connect 15 0 14 0;
#X connect 15 1 14 1;
#X connect 16 0 11 0;
#X connect 16 1 10 0;
#X connect 19 0 6 0;
#X connect 21 0 20 0;
#X restore 1060 480 pd rel;
#X text 1001 268 Envelope;
#X obj 37 333 s clear_notes;
#X obj 37 251 bng 15 250 50 0 empty empty empty 17 7 0 10 -262144 -1
-1;
#X obj 508 640 lfo_tri;
#X obj 342 862 +~;
#X obj 184 485 pack 0 0 0;
#N canvas 0 50 710 476 transpose 0;
#X obj 98 194 sel 0 1 2 3 4, f 37;
#X msg 141 221 -12;
#X msg 185 221 0;
#X msg 98 221 -24;
#X msg 229 221 12;
#X msg 273 221 24;
#X obj 98 122 i;
#X obj 98 147 change;
#X floatatom 108 171 5 0 0 0 - - -, f 5;
#X obj 83 252 +;
#X obj 83 68 inlet;
#X text 80 48 Note input (0 127);
#X obj 83 290 clip 0 127;
#X obj 83 330 outlet;
#X text 83 353 Note output;
#X text 315 18 Transpose;
#X obj 98 98 r transpose;
#X text 174 99 Transpose slider input (0. \, 4.9.);
#X connect 0 0 3 0;
#X connect 0 1 1 0;
#X connect 0 2 2 0;
#X connect 0 3 4 0;
#X connect 0 4 5 0;
#X connect 1 0 9 1;
#X connect 2 0 9 1;
#X connect 3 0 9 1;
#X connect 4 0 9 1;
#X connect 5 0 9 1;
#X connect 6 0 7 0;
#X connect 7 0 0 0;
#X connect 7 0 8 0;
#X connect 9 0 12 0;
#X connect 10 0 9 0;
#X connect 12 0 13 0;
#X connect 16 0 6 0;
#X restore 212 423 pd transpose;
#X obj 342 892 master_vol;
#X obj 1289 366 vsl 15 128 0 1 0 0 empty empty Vol 0 -9 0 10 -262144
-1 -1 7620 1;
#X obj 184 160 r notes;
#X msg 52 275 clear;
#X text 596 84 Page 0 Oscillator: 1: Op 2 Ratio \, 2: Op 3 Ratio \,
3: Op 4 Ratio \, 4: Index, f 81;
#X text 596 103 Page 1 LFO: 1: LFO Rate \, 2: LFO Delay \, 3: LFO-Pitch
\, 4: LFO-Index, f 81;
#N canvas 85 50 1631 950 organelle_knobs_screens 0;
#X obj 215 314 r knob1;
#X obj 215 389 pack 0 0;
#X msg 215 412 \$2 \$1;
#X obj 573 391 pack 0 0;
#X msg 573 414 \$2 \$1;
#X obj 573 317 r knob2;
#X obj 887 396 pack 0 0;
#X msg 887 419 \$2 \$1;
#X obj 1291 396 pack 0 0;
#X msg 1291 419 \$2 \$1;
#X obj 887 321 r knob3;
#X obj 1291 321 r knob4;
#X obj 260 365 r page_select;
#X obj 618 367 r page_select;
#X obj 932 373 r page_select;
#X obj 1336 372 r page_select;
#X text 144 626 Page 0;
#X text 145 565 Page 1;
#X text 147 521 Page 2;
#X text 148 490 Page 3;
#N canvas 18 59 1495 930 page_selection 0;
#X text 398 36 Page selection counter and Aux LED color;
#X obj 321 466 spigot 0;
#X obj 366 329 r page_select;
#X obj 366 410 == 4;
#X obj 321 174 r aux;
#X obj 321 529 f 0;
#X obj 351 529 + 1;
#X obj 366 435 t f b;
#X msg 393 467 0;
#X obj 270 571 f;
#X obj 270 509 sel 0;
#X obj 321 630 s save;
#X obj 126 429 < 4;
#X text 253 684 if button isn't pressed long enough \, go to next page
, f 30;
#X obj 81 452 spigot 0;
#N canvas 0 50 935 725 led_save_flash 0;
#X obj 85 246 send led;
#X msg 85 209 0;
#X msg 86 93 1;
#X obj 86 133 metro 100;
#X obj 86 161 f 0;
#X obj 116 161 + 1;
#X obj 85 184 sel 0 1 2 3 4 5 6 7;
#X msg 172 94 0;
#X obj 86 58 inlet;
#X msg 114 209 5;
#X connect 1 0 0 0;
#X connect 2 0 3 0;
#X connect 3 0 4 0;
#X connect 4 0 5 0;
#X connect 4 0 6 0;
#X connect 5 0 4 1;
#X connect 6 0 1 0;
#X connect 6 1 9 0;
#X connect 6 2 1 0;
#X connect 6 3 9 0;
#X connect 6 4 1 0;
#X connect 6 5 9 0;
#X connect 6 6 1 0;
#X connect 6 7 9 0;
#X connect 6 7 7 0;
#X connect 6 8 1 0;
#X connect 7 0 4 1;
#X connect 7 0 3 0;
#X connect 8 0 2 0;
#X connect 9 0 0 0;
#X restore 336 605 pd led_save_flash;
#X obj 270 619 sel 1;
#N canvas 0 50 928 581 page_change 0;
#X text 113 101 Auxilary button input;
#X obj 445 425 send led;
#X text 510 426 Change auxilary's LED color (number from 1 to 7);
#X msg 445 321 1;
#X obj 445 289 loadbang;
#X msg 408 322 0;
#X text 330 31 Parameter page select using auxilary button;
#X obj 364 232 inlet;
#X obj 174 172 sel 0;
#X text 111 151 note off (0) change pages;
#X obj 174 128 inlet;
#X obj 300 420 outlet;
#X obj 300 111 inlet bang;
#X obj 331 234 + 1;
#X text 401 232 Change number of available pages (0 to 6);
#X obj 337 283 sel 6;
#X msg 345 173 0;
#X obj 315 345 + 1;
#X obj 345 150 inlet;
#X obj 300 234 f 1;
#X msg 337 306 0;
#X connect 3 0 1 0;
#X connect 4 0 5 0;
#X connect 4 0 3 0;
#X connect 5 0 11 0;
#X connect 7 0 15 1;
#X connect 8 0 19 0;
#X connect 10 0 8 0;
#X connect 12 0 19 0;
#X connect 13 0 19 1;
#X connect 15 0 20 0;
#X connect 16 0 19 0;
#X connect 17 0 1 0;
#X connect 18 0 16 0;
#X connect 19 0 13 0;
#X connect 19 0 17 0;
#X connect 19 0 11 0;
#X restore 81 513 pd page_change;
#X obj 81 545 s page_select;
#X obj 162 491 inlet;
#X obj 545 472 spigot 0;
#X obj 545 535 f 0;
#X obj 575 535 + 1;
#X obj 590 441 t f b;
#X msg 617 473 0;
#X obj 494 577 f;
#X obj 494 515 sel 0;
#N canvas 0 50 935 725 led_save_flash 0;
#X obj 85 246 send led;
#X msg 85 209 0;
#X msg 86 93 1;
#X obj 86 133 metro 100;
#X obj 86 161 f 0;
#X obj 116 161 + 1;
#X obj 85 184 sel 0 1 2 3 4 5 6 7;
#X msg 172 94 0;
#X obj 86 58 inlet;
#X msg 114 209 6;
#X connect 1 0 0 0;
#X connect 2 0 3 0;
#X connect 3 0 4 0;
#X connect 4 0 5 0;
#X connect 4 0 6 0;
#X connect 5 0 4 1;
#X connect 6 0 1 0;
#X connect 6 1 9 0;
#X connect 6 2 1 0;
#X connect 6 3 9 0;
#X connect 6 4 1 0;
#X connect 6 5 9 0;
#X connect 6 6 1 0;
#X connect 6 7 9 0;
#X connect 6 7 7 0;
#X connect 6 8 1 0;
#X connect 7 0 4 1;
#X connect 7 0 3 0;
#X connect 8 0 2 0;
#X connect 9 0 0 0;
#X restore 560 611 pd led_save_flash;
#X obj 494 625 sel 1;
#X obj 590 416 == 5;
#X obj 545 636 s load;
#X obj 321 506 metro 50;
#X obj 321 577 sel 20;
#X obj 270 595 < 20;
#X obj 545 583 sel 20;
#X obj 494 601 < 20;
#X obj 545 512 metro 50;
#X obj 270 534 t b b;
#X obj 494 540 t b b;
#X obj 366 354 pipe 20;
#X connect 1 0 10 0;
#X connect 1 0 31 0;
#X connect 2 0 39 0;
#X connect 3 0 7 0;
#X connect 4 0 1 0;
#X connect 4 0 14 0;
#X connect 4 0 20 0;
#X connect 5 0 6 0;
#X connect 5 0 9 1;
#X connect 5 0 32 0;
#X connect 6 0 5 1;
#X connect 7 0 1 1;
#X connect 7 1 8 0;
#X connect 8 0 5 1;
#X connect 9 0 33 0;
#X connect 10 0 37 0;
#X connect 12 0 14 1;
#X connect 14 0 17 0;
#X connect 16 0 17 1;
#X connect 17 0 18 0;
#X connect 19 0 17 3;
#X connect 20 0 26 0;
#X connect 20 0 36 0;
#X connect 21 0 22 0;
#X connect 21 0 25 1;
#X connect 21 0 34 0;
#X connect 22 0 21 1;
#X connect 23 0 20 1;
#X connect 23 1 24 0;
#X connect 24 0 21 1;
#X connect 25 0 35 0;
#X connect 26 0 38 0;
#X connect 28 0 17 2;
#X connect 29 0 23 0;
#X connect 31 0 5 0;
#X connect 32 0 11 0;
#X connect 32 0 15 0;
#X connect 33 0 16 0;
#X connect 34 0 27 0;
#X connect 34 0 30 0;
#X connect 35 0 28 0;
#X connect 36 0 21 0;
#X connect 37 0 8 0;
#X connect 37 1 9 0;
#X connect 38 0 24 0;
#X connect 38 1 25 0;
#X connect 39 0 3 0;
#X connect 39 0 29 0;
#X connect 39 0 12 0;
#X restore 689 136 pd page_selection;
#N canvas 0 50 1138 857 knob_move_detector 0;
#X obj 380 395 -, f 5;
#X obj 380 423 abs;
#X obj 206 148 sel 1;
#X obj 380 112 inlet;
#X obj 308 289 outlet;
#N canvas 0 50 918 613 counter 0;
#X obj 157 104 bang;
#X msg 293 124 0;
#X obj 197 162 + 1;
#X obj 157 162 0;
#X msg 157 251 1;
#X msg 189 251 0;
#X obj 177 282 change;
#X obj 132 36 inlet;
#X obj 117 498 outlet;
#X obj 157 73 inlet;
#X text 306 161 This section counts 5 modifications of input and then
let pass the last one. It creates a small delay between 2 read values
of the knob \, which makes it easier to compare.;
#X obj 132 306 spigot 0;
#X obj 157 210 sel 1 5;
#X obj 117 410 f;
#X connect 0 0 3 0;
#X connect 1 0 3 0;
#X connect 2 0 3 1;
#X connect 3 0 2 0;
#X connect 3 0 12 0;
#X connect 4 0 6 0;
#X connect 5 0 6 0;
#X connect 6 0 11 1;
#X connect 7 0 11 0;
#X connect 9 0 0 0;
#X connect 11 0 13 1;
#X connect 12 0 4 0;
#X connect 12 1 5 0;
#X connect 12 1 13 0;
#X connect 12 1 1 0;
#X connect 12 2 5 0;
#X connect 13 0 8 0;
#X restore 380 328 pd counter;
#X text 434 421 Turns difference into absolute number;
#X text 431 446 If difference is greater than x \, then it's human
movement so let pass the data through the gate [spigot];
#X obj 380 289 t f f f, f 37;
#X text 433 113 Receive knob value;
#X obj 605 99 r page_select;
#X obj 605 124 bang;
#X text 648 130 Reset when page changes;
#X text 376 484 This value might have to be adjusted for better performance
, f 31;
#X text 479 348 The counter maximum might have to be adjusted for better
performance, f 41;
#X obj 380 261 spigot 1;
#X obj 308 260 spigot 0;
#X obj 605 146 t b b;
#X msg 637 171 0;
#X msg 605 169 1;
#X obj 172 182 t b b;
#X msg 199 204 0;
#X msg 172 204 1;
#X obj 380 452 > 0.005;
#X text 455 328 Creates a delay between reading values of knob;
#X text 371 25 The organelle's knobs seems to update values every now
and then (without touching the knobs) and this can be problematic when
switching from one page to the other. This patch is to make sure the
knob movement comes from a human, f 78;
#X connect 0 0 1 0;
#X connect 1 0 23 0;
#X connect 2 0 20 0;
#X connect 3 0 15 0;
#X connect 3 0 16 0;
#X connect 5 0 0 0;
#X connect 8 0 5 0;
#X connect 8 1 5 1;
#X connect 8 2 0 1;
#X connect 10 0 11 0;
#X connect 11 0 17 0;
#X connect 15 0 8 0;
#X connect 16 0 4 0;
#X connect 17 0 19 0;
#X connect 17 1 18 0;
#X connect 18 0 16 1;
#X connect 19 0 15 1;
#X connect 20 0 22 0;
#X connect 20 1 21 0;
#X connect 21 0 15 1;
#X connect 22 0 16 1;
#X connect 23 0 2 0;
#X restore 1291 348 pd knob_move_detector;
#X obj 216 623 s p0_k1;
#X obj 235 568 s p1_k1;
#X obj 255 525 s p2_k1;
#X obj 274 487 s p3_k1;
#X text 216 642 Nomenclature : [s p0_k1] = send page 0 \, knob 1,
f 25;
#X text 299 564 Nomenclature : [s p1_k1] = send page 1 \, knob 1,
f 25;
#X obj 573 629 s p0_k2;
#X obj 602 572 s p1_k2;
#X obj 631 527 s p2_k2;
#X obj 660 489 s p3_k2;
#X obj 887 634 s p0_k3;
#X obj 916 578 s p1_k3;
#X text 218 286 Knob 1;
#X text 602 283 Knob 2;
#X text 891 281 Knob 3;
#X text 1302 278 Knob 4;
#X obj 945 526 s p2_k3;
#X obj 974 492 s p3_k3;
#X obj 1291 634 s p0_k4;
#X obj 1320 583 s p1_k4;
#X text 729 109 Number of pages available (0 to 6);
#X obj 689 80 loadbang;
#N canvas 0 50 1138 857 knob_move_detector 0;
#X obj 380 395 -, f 5;
#X obj 380 423 abs;
#X obj 206 148 sel 1;
#X obj 380 112 inlet;
#X obj 308 289 outlet;
#N canvas 0 50 918 613 counter 0;
#X obj 157 104 bang;
#X msg 293 124 0;
#X obj 197 162 + 1;
#X obj 157 162 0;
#X msg 157 251 1;
#X msg 189 251 0;
#X obj 177 282 change;
#X obj 132 36 inlet;
#X obj 117 498 outlet;
#X obj 157 73 inlet;
#X text 306 161 This section counts 5 modifications of input and then
let pass the last one. It creates a small delay between 2 read values
of the knob \, which makes it easier to compare.;
#X obj 132 306 spigot 0;
#X obj 157 210 sel 1 5;
#X obj 117 410 f;
#X connect 0 0 3 0;
#X connect 1 0 3 0;
#X connect 2 0 3 1;
#X connect 3 0 2 0;
#X connect 3 0 12 0;
#X connect 4 0 6 0;
#X connect 5 0 6 0;
#X connect 6 0 11 1;
#X connect 7 0 11 0;
#X connect 9 0 0 0;
#X connect 11 0 13 1;
#X connect 12 0 4 0;
#X connect 12 1 5 0;
#X connect 12 1 13 0;
#X connect 12 1 1 0;
#X connect 12 2 5 0;
#X connect 13 0 8 0;
#X restore 380 328 pd counter;
#X text 434 421 Turns difference into absolute number;
#X text 431 446 If difference is greater than x \, then it's human
movement so let pass the data through the gate [spigot];
#X obj 380 289 t f f f, f 37;
#X text 433 113 Receive knob value;
#X obj 605 99 r page_select;
#X obj 605 124 bang;
#X text 648 130 Reset when page changes;
#X text 376 484 This value might have to be adjusted for better performance
, f 31;
#X text 479 348 The counter maximum might have to be adjusted for better
performance, f 41;
#X obj 380 261 spigot 1;
#X obj 308 260 spigot 0;
#X obj 605 146 t b b;
#X msg 637 171 0;
#X msg 605 169 1;
#X obj 172 182 t b b;
#X msg 199 204 0;
#X msg 172 204 1;
#X obj 380 452 > 0.005;
#X text 455 328 Creates a delay between reading values of knob;
#X text 371 25 The organelle's knobs seems to update values every now
and then (without touching the knobs) and this can be problematic when
switching from one page to the other. This patch is to make sure the
knob movement comes from a human, f 78;
#X connect 0 0 1 0;
#X connect 1 0 23 0;
#X connect 2 0 20 0;
#X connect 3 0 15 0;
#X connect 3 0 16 0;
#X connect 5 0 0 0;
#X connect 8 0 5 0;
#X connect 8 1 5 1;
#X connect 8 2 0 1;
#X connect 10 0 11 0;
#X connect 11 0 17 0;
#X connect 15 0 8 0;
#X connect 16 0 4 0;
#X connect 17 0 19 0;
#X connect 17 1 18 0;
#X connect 18 0 16 1;
#X connect 19 0 15 1;
#X connect 20 0 22 0;
#X connect 20 1 21 0;
#X connect 21 0 15 1;
#X connect 22 0 16 1;
#X connect 23 0 2 0;
#X restore 887 346 pd knob_move_detector;
#N canvas 0 50 1138 857 knob_move_detector 0;
#X obj 380 395 -, f 5;
#X obj 380 423 abs;
#X obj 206 148 sel 1;
#X obj 380 112 inlet;
#X obj 308 289 outlet;
#N canvas 0 50 918 613 counter 0;
#X obj 157 104 bang;
#X msg 293 124 0;
#X obj 197 162 + 1;
#X obj 157 162 0;
#X msg 157 251 1;
#X msg 189 251 0;
#X obj 177 282 change;
#X obj 132 36 inlet;
#X obj 117 498 outlet;
#X obj 157 73 inlet;
#X text 306 161 This section counts 5 modifications of input and then
let pass the last one. It creates a small delay between 2 read values
of the knob \, which makes it easier to compare.;
#X obj 132 306 spigot 0;
#X obj 157 210 sel 1 5;
#X obj 117 410 f;
#X connect 0 0 3 0;
#X connect 1 0 3 0;
#X connect 2 0 3 1;
#X connect 3 0 2 0;
#X connect 3 0 12 0;
#X connect 4 0 6 0;
#X connect 5 0 6 0;
#X connect 6 0 11 1;
#X connect 7 0 11 0;
#X connect 9 0 0 0;
#X connect 11 0 13 1;
#X connect 12 0 4 0;
#X connect 12 1 5 0;
#X connect 12 1 13 0;
#X connect 12 1 1 0;
#X connect 12 2 5 0;
#X connect 13 0 8 0;
#X restore 380 328 pd counter;
#X text 434 421 Turns difference into absolute number;
#X text 431 446 If difference is greater than x \, then it's human
movement so let pass the data through the gate [spigot];
#X obj 380 289 t f f f, f 37;
#X text 433 113 Receive knob value;
#X obj 605 99 r page_select;
#X obj 605 124 bang;
#X text 648 130 Reset when page changes;
#X text 376 484 This value might have to be adjusted for better performance
, f 31;
#X text 479 348 The counter maximum might have to be adjusted for better
performance, f 41;
#X obj 380 261 spigot 1;
#X obj 308 260 spigot 0;
#X obj 605 146 t b b;
#X msg 637 171 0;
#X msg 605 169 1;
#X obj 172 182 t b b;
#X msg 199 204 0;
#X msg 172 204 1;
#X obj 380 452 > 0.005;
#X text 455 328 Creates a delay between reading values of knob;
#X text 371 25 The organelle's knobs seems to update values every now
and then (without touching the knobs) and this can be problematic when
switching from one page to the other. This patch is to make sure the
knob movement comes from a human, f 78;
#X connect 0 0 1 0;
#X connect 1 0 23 0;
#X connect 2 0 20 0;
#X connect 3 0 15 0;
#X connect 3 0 16 0;
#X connect 5 0 0 0;
#X connect 8 0 5 0;
#X connect 8 1 5 1;
#X connect 8 2 0 1;
#X connect 10 0 11 0;
#X connect 11 0 17 0;
#X connect 15 0 8 0;
#X connect 16 0 4 0;
#X connect 17 0 19 0;
#X connect 17 1 18 0;
#X connect 18 0 16 1;
#X connect 19 0 15 1;
#X connect 20 0 22 0;
#X connect 20 1 21 0;
#X connect 21 0 15 1;
#X connect 22 0 16 1;
#X connect 23 0 2 0;
#X restore 573 340 pd knob_move_detector;
#N canvas 0 50 1138 857 knob_move_detector 0;
#X obj 380 395 -, f 5;
#X obj 380 423 abs;
#X obj 206 148 sel 1;
#X obj 380 112 inlet;
#X obj 308 289 outlet;
#N canvas 0 50 918 613 counter 0;
#X obj 157 104 bang;
#X msg 293 124 0;
#X obj 197 162 + 1;
#X obj 157 162 0;
#X msg 157 251 1;
#X msg 189 251 0;
#X obj 177 282 change;
#X obj 132 36 inlet;
#X obj 117 498 outlet;
#X obj 157 73 inlet;
#X text 306 161 This section counts 5 modifications of input and then
let pass the last one. It creates a small delay between 2 read values
of the knob \, which makes it easier to compare.;
#X obj 132 306 spigot 0;
#X obj 157 210 sel 1 5;
#X obj 117 410 f;
#X connect 0 0 3 0;
#X connect 1 0 3 0;
#X connect 2 0 3 1;
#X connect 3 0 2 0;
#X connect 3 0 12 0;
#X connect 4 0 6 0;
#X connect 5 0 6 0;
#X connect 6 0 11 1;
#X connect 7 0 11 0;
#X connect 9 0 0 0;
#X connect 11 0 13 1;
#X connect 12 0 4 0;
#X connect 12 1 5 0;
#X connect 12 1 13 0;
#X connect 12 1 1 0;
#X connect 12 2 5 0;
#X connect 13 0 8 0;
#X restore 380 328 pd counter;
#X text 434 421 Turns difference into absolute number;
#X text 431 446 If difference is greater than x \, then it's human
movement so let pass the data through the gate [spigot];
#X obj 380 289 t f f f, f 37;
#X text 433 113 Receive knob value;
#X obj 605 99 r page_select;
#X obj 605 124 bang;
#X text 648 130 Reset when page changes;
#X text 376 484 This value might have to be adjusted for better performance
, f 31;
#X text 479 348 The counter maximum might have to be adjusted for better
performance, f 41;
#X obj 380 261 spigot 1;
#X obj 308 260 spigot 0;
#X obj 605 146 t b b;
#X msg 637 171 0;
#X msg 605 169 1;
#X obj 172 182 t b b;
#X msg 199 204 0;
#X msg 172 204 1;
#X obj 380 452 > 0.005;
#X text 455 328 Creates a delay between reading values of knob;
#X text 371 25 The organelle's knobs seems to update values every now
and then (without touching the knobs) and this can be problematic when
switching from one page to the other. This patch is to make sure the
knob movement comes from a human, f 78;
#X connect 0 0 1 0;
#X connect 1 0 23 0;
#X connect 2 0 20 0;
#X connect 3 0 15 0;
#X connect 3 0 16 0;
#X connect 5 0 0 0;
#X connect 8 0 5 0;
#X connect 8 1 5 1;
#X connect 8 2 0 1;
#X connect 10 0 11 0;
#X connect 11 0 17 0;
#X connect 15 0 8 0;
#X connect 16 0 4 0;
#X connect 17 0 19 0;
#X connect 17 1 18 0;
#X connect 18 0 16 1;
#X connect 19 0 15 1;
#X connect 20 0 22 0;
#X connect 20 1 21 0;
#X connect 21 0 15 1;
#X connect 22 0 16 1;
#X connect 23 0 2 0;
#X restore 215 341 pd knob_move_detector;
#X obj 568 793 r page_select;
#X text 237 1003 Page 0 (red);
#X text 422 1004 Page 1 (yellow);
#X text 375 790 What's appearing on screen;
#X text 106 86 Page 0 Oscillator: 1: Op 2 Ratio \, 2: Op 3 Ratio \,
3: Op 4 Ratio \, 4: Index, f 81;
#X obj 1349 524 s p2_k4;
#X obj 1378 493 s p3_k4;
#X msg 184 896 \; screenLine1 1: Op 2 Ratio \; screenLine2 2: Op 3
Ratio \; screenLine3 3: Op 4 Ratio \; screenLine4 4: Index \; screenLine5
Aux: Go to LFO \;;
#X text 106 105 Page 1 LFO: 1: LFO Rate \, 2: LFO Delay \, 3: LFO-Pitch
\, 4: LFO-Index, f 81;
#X msg 599 896 \; screenLine1 1: Attack \; screenLine2 2: Decay \;
screenLine3 3: Sustain \; screenLine4 4: Release \; screenLine5 Aux:
Go to Global \;;
#X obj 573 439 route 0 1 2 3, f 20;
#X obj 887 444 route 0 1 2 3, f 20;
#X obj 1291 444 route 0 1 2 3, f 20;
#X text 970 108 0 count as a page \, so for 3 pages you must write
2 (0 \, 1 \, 2);
#X msg 373 896 \; screenLine1 1: LFO Rate \; screenLine2 2: LFO Delay
\; screenLine3 3: LFO->Pitch \; screenLine4 4: LFO->Index \; screenLine5
Aux: Go to Envelope \;;
#X text 1108 1005 Page 4 (dark blue);
#X obj 568 818 sel 0 1 2 3 4 5;
#X msg 689 108 5;
#X text 104 166 Page 4 Save sound : 1: Save sound \, 2: to preset slot
\, 3: hold aux to save \, 4: press aux to go to load sound, f 114
;
#X text 105 183 Page 5 Load sound : 1: Load sound \, 2: from preset
slot \, 3: hold aux to load \, 4: press aux to go to oscillator, f
114;
#X msg 811 896 \; screenLine1 1: Transpose \; screenLine2 2: Portamento
\; screenLine3 3: Sub Mix \; screenLine4 4: Volume \; screenLine5 Aux:
Go to Save \;;
#X obj 216 437 route 0 1 2 3 4 5, f 20;
#X obj 294 463 s p4_k1;
#X obj 348 463 s p5_k1;
#X text 105 126 Page 2 Envelope: 1: Attack \, 2: Decay \, 3: Sustain
\, 4: Release, f 81;
#X text 105 147 Page 3 Global: 1: Transpose \, 2: Portamento \, 3:
Sub Mix \, 4: Volume, f 81;
#X text 662 1003 Page 2 (green);
#X text 870 1004 Page 3 (light blue);
#X text 1328 1004 Page 5 (pink);
#X msg 1049 897 \; screenLine1 ----Save a sound---- \; screenLine2
1: Slot \; screenLine3 (Hold Aux to save) \; screenLine4 --------------------
\; screenLine5 Aux: Go to Load \;;
#X msg 1269 896 \; screenLine1 ----Load a sound---- \; screenLine2
1: Slot \; screenLine3 (Hold Aux to load) \; screenLine4 --------------------
\; screenLine5 Aux: to Oscillator \;;
#X connect 0 0 46 0;
#X connect 1 0 2 0;
#X connect 2 0 68 0;
#X connect 3 0 4 0;
#X connect 4 0 57 0;
#X connect 5 0 45 0;
#X connect 6 0 7 0;
#X connect 7 0 58 0;
#X connect 8 0 9 0;
#X connect 9 0 59 0;
#X connect 10 0 44 0;
#X connect 11 0 21 0;
#X connect 12 0 1 1;
#X connect 13 0 3 1;
#X connect 14 0 6 1;
#X connect 15 0 8 1;
#X connect 21 0 8 0;
#X connect 43 0 64 0;
#X connect 44 0 6 0;
#X connect 45 0 3 0;
#X connect 46 0 1 0;
#X connect 47 0 63 0;
#X connect 57 0 28 0;
#X connect 57 1 29 0;
#X connect 57 2 30 0;
#X connect 57 3 31 0;
#X connect 58 0 32 0;
#X connect 58 1 33 0;
#X connect 58 2 38 0;
#X connect 58 3 39 0;
#X connect 59 0 40 0;
#X connect 59 1 41 0;
#X connect 59 2 52 0;
#X connect 59 3 53 0;
#X connect 63 0 54 0;
#X connect 63 1 61 0;
#X connect 63 2 56 0;
#X connect 63 3 67 0;
#X connect 63 4 76 0;
#X connect 63 5 77 0;
#X connect 64 0 20 0;
#X connect 68 0 22 0;
#X connect 68 1 23 0;
#X connect 68 2 24 0;
#X connect 68 3 25 0;
#X connect 68 4 69 0;
#X connect 68 5 70 0;
#X restore 239 51 pd organelle_knobs_screens;
#N canvas 256 81 791 556 porta 0;
#X obj 39 34 inlet;
#X obj 39 446 spigot;
#X obj 39 478 s screenLine2;
#X msg 39 398 2: Portamento \$1 ms;
#X obj 39 254 i;
#X obj 286 159 r page_select;
#X obj 286 270 change;
#X msg 320 236 0;
#X obj 286 208 delay 10;
#X msg 286 236 1;
#X obj 286 295 t b f;
#X obj 39 353 f;
#X obj 39 308 t b f;
#X obj 49 220 s portamento;
#X obj 39 194 * 1000;
#X text 84 196 Scale to (0. \, 1000);
#X obj 286 185 sel 3;
#X text 334 185 page 3;
#X obj 71 105 s param;
#X msg 71 77 \$1 14;
#X text 113 78 Second number is index (14);
#X connect 0 0 14 0;
#X connect 0 0 19 0;
#X connect 1 0 2 0;
#X connect 3 0 1 0;
#X connect 4 0 12 0;
#X connect 5 0 16 0;
#X connect 6 0 10 0;
#X connect 7 0 6 0;
#X connect 8 0 9 0;
#X connect 9 0 6 0;
#X connect 10 0 11 0;
#X connect 10 1 1 1;
#X connect 11 0 3 0;
#X connect 12 0 11 0;
#X connect 12 1 11 1;
#X connect 14 0 4 0;
#X connect 14 0 13 0;
#X connect 16 0 8 0;
#X connect 16 1 7 0;
#X connect 19 0 18 0;
#X restore 1226 575 pd porta;
#X obj 342 971 throw~ outL;
#X obj 362 949 throw~ outR;
#X text 442 963 Organelle DAC;
#X text 147 127 organelle's notes input, f 12;
#X obj 779 338 vsl 15 128 0 1 0 0 empty empty Delay 0 -9 0 10 -262144
-1 -1 0 1;
#X obj 742 338 vsl 15 128 0 1 0 0 empty empty Rate 0 -9 0 10 -262144
-1 -1 1905 1;
#N canvas 0 50 1143 755 lfo_rate 0;
#X obj 61 155 * 30;
#X obj 61 32 inlet;
#X obj 61 176 + 0.1;
#X obj 88 205 s LFO_tri_freq;
#X obj 61 133 pow 2;
#X obj 61 468 spigot;
#X obj 308 181 r page_select;
#X obj 308 292 change;
#X msg 342 258 0;
#X obj 308 230 delay 10;
#X msg 308 258 1;
#X obj 308 317 t b f;
#X obj 61 375 f;
#X obj 61 330 t b f;
#X obj 61 500 s screenLine1;
#X obj 308 207 sel 1;
#X text 356 207 page 1;
#X msg 61 420 1: LFO Rate \$1 Hz;
#X obj 117 95 s param;
#X msg 117 67 \$1 5;
#X text 155 68 Second number is index (5);
#X connect 0 0 2 0;
#X connect 1 0 4 0;
#X connect 1 0 19 0;
#X connect 2 0 3 0;
#X connect 2 0 13 0;
#X connect 4 0 0 0;
#X connect 5 0 14 0;
#X connect 6 0 15 0;
#X connect 7 0 11 0;
#X connect 8 0 7 0;
#X connect 9 0 10 0;
#X connect 10 0 7 0;
#X connect 11 0 12 0;
#X connect 11 1 5 1;
#X connect 12 0 17 0;
#X connect 13 0 12 0;
#X connect 13 1 12 1;
#X connect 15 0 9 0;
#X connect 15 1 8 0;
#X connect 17 0 5 0;
#X connect 19 0 18 0;
#X restore 742 554 pd lfo_rate;
#N canvas 1 59 976 740 lfo_delay 0;
#X obj 61 46 inlet;
#X obj 107 234 s LFO_delay_time;
#X obj 61 193 * 5000;
#X obj 61 468 spigot;
#X obj 308 181 r page_select;
#X obj 308 292 change;
#X msg 342 258 0;
#X obj 308 230 delay 10;
#X msg 308 258 1;
#X obj 308 317 t b f;
#X obj 61 375 f;
#X obj 61 330 t b f;
#X obj 308 207 sel 1;
#X text 356 207 page 1;
#X obj 61 239 i;
#X msg 61 420 2: LFO Delay \$1 ms;
#X obj 61 500 s screenLine2;
#X obj 84 112 s param;
#X msg 84 84 \$1 6;
#X text 122 85 Second number is index (6);
#X connect 0 0 2 0;
#X connect 0 0 18 0;
#X connect 2 0 1 0;
#X connect 2 0 14 0;
#X connect 3 0 16 0;
#X connect 4 0 12 0;
#X connect 5 0 9 0;
#X connect 6 0 5 0;
#X connect 7 0 8 0;
#X connect 8 0 5 0;
#X connect 9 0 10 0;
#X connect 9 1 3 1;
#X connect 10 0 15 0;
#X connect 11 0 10 0;
#X connect 11 1 10 1;
#X connect 12 0 7 0;
#X connect 12 1 6 0;
#X connect 14 0 11 0;
#X connect 15 0 3 0;
#X connect 18 0 17 0;
#X restore 779 531 pd lfo_delay;
#X text 793 270 LFO;
#X obj 853 338 vsl 15 128 0 1 0 0 empty empty Index 0 -9 0 10 -262144
-1 -1 635 1;
#X obj 816 338 vsl 15 128 0 1 0 0 empty empty Pitch 0 -9 0 10 -262144
-1 -1 2222 1;
#N canvas 0 50 1143 755 lfo_pitch 0;
#X obj 40 27 inlet;
#X obj 60 221 s LFO_pitch_depth;
#X obj 40 193 pow 2;
#X obj 40 444 spigot;
#X obj 287 157 r page_select;
#X obj 287 268 change;
#X msg 321 234 0;
#X obj 287 206 delay 10;
#X msg 287 234 1;
#X obj 287 293 t b f;
#X obj 40 351 f;
#X obj 40 306 t b f;
#X obj 287 183 sel 1;
#X text 335 183 page 1;
#X obj 40 249 * 100;
#X obj 40 276 i;
#X obj 40 476 s screenLine3;
#X msg 40 396 3: LFO->Pitch \$1;
#X obj 70 93 s param;
#X msg 70 65 \$1 7;
#X text 108 66 Second number is index (7);
#X connect 0 0 2 0;
#X connect 0 0 19 0;
#X connect 2 0 1 0;
#X connect 2 0 14 0;
#X connect 3 0 16 0;
#X connect 4 0 12 0;
#X connect 5 0 9 0;
#X connect 6 0 5 0;
#X connect 7 0 8 0;
#X connect 8 0 5 0;
#X connect 9 0 10 0;
#X connect 9 1 3 1;
#X connect 10 0 17 0;
#X connect 11 0 10 0;
#X connect 11 1 10 1;
#X connect 12 0 7 0;
#X connect 12 1 6 0;
#X connect 14 0 15 0;
#X connect 15 0 11 0;
#X connect 17 0 3 0;
#X connect 19 0 18 0;
#X restore 816 508 pd lfo_pitch;
#N canvas 0 50 1500 958 sus 0;
#X obj 91 187 s sustain;
#X obj 61 54 inlet;
#X obj 61 468 spigot;
#X obj 61 276 i;
#X obj 308 181 r page_select;
#X obj 308 292 change;
#X msg 342 258 0;
#X obj 308 230 delay 10;
#X msg 308 258 1;
#X obj 308 317 t b f;
#X obj 61 375 f;
#X obj 61 330 t b f;
#X obj 308 207 sel 2;
#X text 356 207 page 2;
#X obj 61 500 s screenLine3;
#X obj 61 238 * 100;
#X msg 61 420 3: Sustain \$1;
#X obj 115 121 s param;
#X msg 115 93 \$1 11;
#X text 160 94 Second number is index (11);
#X connect 1 0 0 0;
#X connect 1 0 15 0;
#X connect 1 0 18 0;
#X connect 2 0 14 0;
#X connect 3 0 11 0;
#X connect 4 0 12 0;
#X connect 5 0 9 0;
#X connect 6 0 5 0;
#X connect 7 0 8 0;
#X connect 8 0 5 0;
#X connect 9 0 10 0;
#X connect 9 1 2 1;
#X connect 10 0 16 0;
#X connect 11 0 10 0;
#X connect 11 1 10 1;
#X connect 12 0 7 0;
#X connect 12 1 6 0;
#X connect 15 0 3 0;
#X connect 16 0 2 0;
#X connect 18 0 17 0;
#X restore 1034 503 pd sus;
#N canvas 0 50 702 686 lfo_index 0;
#X obj 51 41 inlet;
#X obj 92 202 s 4op_LFO_depth;
#X obj 92 169 * 1500;
#X obj 51 468 spigot;
#X obj 298 181 r page_select;
#X obj 298 292 change;
#X msg 332 258 0;
#X obj 298 230 delay 10;
#X msg 298 258 1;
#X obj 298 317 t b f;
#X obj 51 375 f;
#X obj 51 330 t b f;
#X obj 298 207 sel 1;
#X text 346 207 page 1;
#X obj 51 277 * 100;
#X obj 51 300 i;
#X obj 51 500 s screenLine4;
#X msg 51 420 4: LFO->Index \$1;
#X obj 95 107 s param;
#X msg 95 79 \$1 8;
#X text 133 80 Second number is index (8);
#X connect 0 0 2 0;
#X connect 0 0 14 0;
#X connect 0 0 19 0;
#X connect 2 0 1 0;
#X connect 3 0 16 0;
#X connect 4 0 12 0;
#X connect 5 0 9 0;
#X connect 6 0 5 0;
#X connect 7 0 8 0;
#X connect 8 0 5 0;
#X connect 9 0 10 0;
#X connect 9 1 3 1;
#X connect 10 0 17 0;
#X connect 11 0 10 0;
#X connect 11 1 10 1;
#X connect 12 0 7 0;
#X connect 12 1 6 0;
#X connect 14 0 15 0;
#X connect 15 0 11 0;
#X connect 17 0 3 0;
#X connect 19 0 18 0;
#X restore 853 485 pd lfo_index;
#X obj 884 230 r p1_k1;
#X obj 885 253 r p1_k2;
#X obj 886 276 r p1_k3;
#X obj 886 298 r p1_k4;
#X obj 535 338 vsl 15 128 0 1 0 0 empty empty R3 0 -9 0 10 -262144
-1 -1 4127 1;
#X obj 504 339 vsl 15 128 0 1 0 0 empty empty R2 0 -9 0 10 -262144
-1 -1 2096 1;
#X obj 596 339 vsl 15 128 0 1 0 0 empty empty Index 0 -9 0 10 -262144
-1 -1 1587 1;
#X obj 566 338 vsl 15 128 0 1 0 0 empty empty R4 0 -9 0 10 -262144
-1 -1 6667 1;
#X obj 646 230 r p0_k1;
#X obj 647 253 r p0_k2;
#X obj 648 276 r p0_k3;
#X obj 648 298 r p0_k4;
#X text 530 261 Oscillator;
#N canvas 0 50 761 599 osc_index 0;
#X obj 39 40 inlet;
#X obj 101 181 s 4op_index;
#X obj 101 157 * 3000;
#X obj 39 407 spigot;
#X obj 291 121 r page_select;
#X obj 291 232 change;
#X msg 325 198 0;
#X obj 291 170 delay 10;
#X msg 291 198 1;
#X obj 291 257 t b f;
#X obj 39 314 f;
#X obj 39 269 t b f;
#X obj 39 226 i;
#X obj 39 157 * 100;
#X obj 291 147 sel 0;
#X text 339 147 page 0;
#X obj 39 439 s screenLine4;
#X msg 39 359 4: Index \$1;
#X obj 115 112 s param;
#X msg 115 84 \$1 4;
#X text 152 83 Second number is index (4);
#X connect 0 0 2 0;
#X connect 0 0 13 0;
#X connect 0 0 19 0;
#X connect 2 0 1 0;
#X connect 3 0 16 0;
#X connect 4 0 14 0;
#X connect 5 0 9 0;
#X connect 6 0 5 0;
#X connect 7 0 8 0;
#X connect 8 0 5 0;
#X connect 9 0 10 0;
#X connect 9 1 3 1;
#X connect 10 0 17 0;
#X connect 11 0 10 0;
#X connect 11 1 10 1;
#X connect 12 0 11 0;
#X connect 13 0 12 0;
#X connect 14 0 7 0;
#X connect 14 1 6 0;
#X connect 17 0 3 0;
#X connect 19 0 18 0;
#X restore 596 485 pd osc_index;
#N canvas 0 50 1143 755 osc_ratio4 0;
#X obj 39 27 inlet;
#X obj 98 180 s 4op_ratio4;
#X obj 39 425 spigot;
#X obj 291 139 r page_select;
#X obj 291 250 change;
#X msg 325 216 0;
#X obj 291 188 delay 10;
#X msg 291 216 1;
#X obj 291 275 t b f;
#X obj 39 332 f;
#X obj 39 287 t b f;
#X obj 39 244 i;
#X obj 39 175 * 100;
#X obj 291 165 sel 0;
#X text 339 165 page 0;
#X obj 39 457 s screenLine3;
#X msg 39 377 3: Op 4 Ratio \$1;
#X obj 115 83 s param;
#X msg 115 55 \$1 3;
#X text 153 56 Second number is index (3);
#X connect 0 0 12 0;
#X connect 0 0 1 0;
#X connect 0 0 18 0;
#X connect 2 0 15 0;
#X connect 3 0 13 0;
#X connect 4 0 8 0;
#X connect 5 0 4 0;
#X connect 6 0 7 0;
#X connect 7 0 4 0;
#X connect 8 0 9 0;
#X connect 8 1 2 1;
#X connect 9 0 16 0;
#X connect 10 0 9 0;
#X connect 10 1 9 1;
#X connect 11 0 10 0;
#X connect 12 0 11 0;
#X connect 13 0 6 0;
#X connect 13 1 5 0;
#X connect 16 0 2 0;
#X connect 18 0 17 0;
#X restore 566 508 pd osc_ratio4;
#N canvas 86 180 1056 672 osc_ratio3 0;
#X obj 39 33 inlet;
#X obj 87 206 s 4op_ratio3;
#X obj 39 442 spigot;
#X obj 291 156 r page_select;
#X obj 291 267 change;
#X msg 325 233 0;
#X obj 291 205 delay 10;
#X msg 291 233 1;
#X obj 291 292 t b f;
#X obj 39 349 f;
#X obj 39 304 t b f;
#X obj 39 261 i;
#X obj 39 192 * 100;
#X obj 291 182 sel 0;
#X text 339 182 page 0;
#X obj 39 474 s screenLine2;
#X msg 39 394 2: Op 3 Ratio \$1;
#X obj 87 179 * 10;
#X obj 105 100 s param;
#X msg 105 72 \$1 2;
#X text 143 73 Second number is index (2);
#X connect 0 0 12 0;
#X connect 0 0 17 0;
#X connect 0 0 19 0;
#X connect 2 0 15 0;
#X connect 3 0 13 0;
#X connect 4 0 8 0;
#X connect 5 0 4 0;
#X connect 6 0 7 0;
#X connect 7 0 4 0;
#X connect 8 0 9 0;
#X connect 8 1 2 1;
#X connect 9 0 16 0;
#X connect 10 0 9 0;
#X connect 10 1 9 1;
#X connect 11 0 10 0;
#X connect 12 0 11 0;
#X connect 13 0 6 0;
#X connect 13 1 5 0;
#X connect 16 0 2 0;
#X connect 17 0 1 0;
#X connect 19 0 18 0;
#X restore 535 531 pd osc_ratio3;
#N canvas 0 50 1143 755 osc_ratio2 0;
#X obj 39 27 inlet;
#X obj 97 154 s 4op_ratio2;
#X obj 39 403 spigot;
#X obj 291 117 r page_select;
#X obj 291 228 change;
#X msg 325 194 0;
#X obj 291 166 delay 10;
#X msg 291 194 1;
#X obj 291 253 t b f;
#X obj 39 310 f;
#X obj 39 265 t b f;
#X obj 39 435 s screenLine1;
#X obj 39 222 i;
#X obj 39 153 * 100;
#X obj 291 143 sel 0;
#X text 339 143 page 0;
#X msg 39 355 1: Op 2 Ratio \$1;
#X obj 97 126 * 10;
#X obj 115 83 s param;
#X msg 115 55 \$1 1;
#X text 153 56 Second number is index (1);
#X text 172 79 Sends value to array \, which can then be saved as a
preset;
#X connect 0 0 13 0;
#X connect 0 0 17 0;
#X connect 0 0 19 0;
#X connect 2 0 11 0;
#X connect 3 0 14 0;
#X connect 4 0 8 0;
#X connect 5 0 4 0;
#X connect 6 0 7 0;
#X connect 7 0 4 0;
#X connect 8 0 9 0;
#X connect 8 1 2 1;
#X connect 9 0 16 0;
#X connect 10 0 9 0;
#X connect 10 1 9 1;
#X connect 12 0 10 0;
#X connect 13 0 12 0;
#X connect 14 0 6 0;
#X connect 14 1 5 0;
#X connect 16 0 2 0;
#X connect 17 0 1 0;
#X connect 19 0 18 0;
#X restore 504 554 pd osc_ratio2;
#N canvas 65 127 1234 659 transp 0;
#X obj 39 209 i;
#X obj 39 256 change -1;
#X obj 39 19 inlet;
#X obj 39 233 - 2;
#X obj 173 109 r page_select;
#X obj 39 455 spigot;
#X obj 173 220 change;
#X msg 207 186 0;
#X obj 173 158 delay 10;
#X msg 39 391 1: Transpose \$1 oct;
#X msg 173 186 1;
#X obj 39 489 s screenLine1;
#X obj 173 245 t b f;
#X obj 39 364 f;
#X obj 39 319 t b f;
#X text 73 355 Parameter Value is stored here and recalled when user
gets back to this page, f 41;
#X obj 39 151 * 4.9;
#X obj 51 176 s transpose;
#X obj 173 135 sel 3;
#X text 221 135 page 3;
#X obj 63 90 s param;
#X msg 63 62 \$1 13;
#X text 105 63 Second number is index (13);
#X connect 0 0 3 0;
#X connect 1 0 14 0;
#X connect 2 0 16 0;
#X connect 2 0 21 0;
#X connect 3 0 1 0;
#X connect 4 0 18 0;
#X connect 5 0 11 0;
#X connect 6 0 12 0;
#X connect 7 0 6 0;
#X connect 8 0 10 0;
#X connect 9 0 5 0;
#X connect 10 0 6 0;
#X connect 12 0 13 0;
#X connect 12 1 5 1;
#X connect 13 0 9 0;
#X connect 14 0 13 0;
#X connect 14 1 13 1;
#X connect 16 0 0 0;
#X connect 16 0 17 0;
#X connect 18 0 8 0;
#X connect 18 1 7 0;
#X connect 21 0 20 0;
#X restore 1195 597 pd transp;
#X obj 1195 329 vsl 15 128 0 1 0 0 empty empty Transpose 0 -9 0 10
-262144 -1 -1 6350 1;
#X obj 1226 341 vsl 15 128 0 1 0 0 empty empty Portamento 0 -9 0 10
-262144 -1 -1 0 1;
#N canvas 76 243 1228 628 param_init 0;
#X text 156 329 Page 0;
#X text 288 332 Page 1;
#X obj 142 303 s p0_k1;
#X obj 288 305 s p1_k1;
#X text 113 388 Nomenclature : [s p0_k1] = send page 0 \, knob 1,
f 25;
#X obj 157 278 s p0_k2;
#X obj 302 280 s p1_k2;
#X obj 169 253 s p0_k3;
#X obj 319 255 s p1_k3;
#X obj 179 226 s p0_k4;
#X obj 334 231 s p1_k4;
#X msg 302 191 0;
#X msg 434 195 0.05;
#X msg 666 191 0;
#X msg 631 192 0.5;
#X obj 480 113 loadbang;
#X text 400 44 Parameter initialization (when patch is loaded);
#X text 374 415 Page 0 Oscillator: 1: Op 2 Ratio \, 2: Op 3 Ratio \,
3: Op 4 Ratio \, 4: Index, f 81;
#X text 374 434 Page 1 LFO: 1: LFO Rate \, 2: LFO Delay \, 3: LFO-Pitch
\, 4: LFO-Index, f 81;
#X text 488 330 Page 2;
#X text 656 335 Page 3;
#X obj 434 288 s p2_k1;
#X obj 473 266 s p2_k2;
#X obj 508 245 s p2_k3;
#X obj 543 222 s p2_k4;
#X obj 631 285 s p3_k1;
#X obj 666 260 s p3_k2;
#X obj 703 237 s p3_k3;
#X obj 742 213 s p3_k4;
#X text 375 452 Page 2 Envelope: 1: Attack \, 2: Decay \, 3: Sustain
\, 4: Release, f 81;
#X msg 179 195 0.125;
#X msg 261 190 0.15;
#X msg 338 190 0.175;
#X msg 129 195 0.525;
#X msg 84 194 0.325;
#X msg 38 194 0.165;
#X msg 385 190 0.05;
#X msg 473 195 0.06;
#X msg 508 195 0.5;
#X msg 742 191 0.6;
#X text 375 470 Page 3 Global: 1: Transpose \, 2: Portamento \, 3:
Sub Mix \, 4: Volume, f 81;
#X msg 703 192 0.3;
#X connect 11 0 6 0;
#X connect 12 0 21 0;
#X connect 13 0 26 0;
#X connect 14 0 25 0;
#X connect 15 0 33 0;
#X connect 15 0 31 0;
#X connect 15 0 11 0;
#X connect 15 0 12 0;
#X connect 15 0 37 0;
#X connect 15 0 38 0;
#X connect 15 0 14 0;
#X connect 15 0 13 0;
#X connect 15 0 39 0;
#X connect 15 0 30 0;
#X connect 15 0 32 0;
#X connect 15 0 36 0;
#X connect 15 0 34 0;
#X connect 15 0 35 0;
#X connect 15 0 41 0;
#X connect 30 0 9 0;
#X connect 31 0 3 0;
#X connect 32 0 8 0;
#X connect 33 0 7 0;
#X connect 34 0 5 0;
#X connect 35 0 2 0;
#X connect 36 0 10 0;
#X connect 37 0 22 0;
#X connect 38 0 23 0;
#X connect 38 0 24 0;
#X connect 39 0 28 0;
#X connect 41 0 27 0;
#X restore 58 49 pd param_init;
#X text 53 28 Parameter initialization;
#X text 238 29 Organelle knobs and screens management;
#X obj 30 515 s note_portamento;
#X obj 30 494 stripnote;
#X text 28 541 Send every note played for portamento, f 21;
#X text 596 122 Page 2 Envelope: 1: Attack \, 2: Decay \, 3: Sustain
\, 4: Release, f 81;
#X text 596 140 Page 3 Global: 1: Transpose \, 2: Portamento \, 3:
Ratio Mode \, 4: Volume, f 81;
#X obj 1090 241 r p2_k1;
#X obj 1091 264 r p2_k2;
#X obj 1092 287 r p2_k3;
#X obj 1092 309 r p2_k4;
#X obj 1338 238 r p3_k1;
#X obj 1338 262 r p3_k2;
#X obj 1338 319 r p3_k4;
#N canvas 0 50 739 798 master_vol 0;
#X obj 39 445 spigot;
#X obj 39 253 i;
#X obj 286 158 r page_select;
#X obj 286 269 change;
#X msg 320 235 0;
#X obj 286 207 delay 10;
#X msg 286 235 1;
#X obj 286 294 t b f;
#X obj 39 352 f;
#X obj 39 307 t b f;
#X obj 39 226 * 100;
#X obj 58 171 s master_vol;
#X obj 39 477 s screenLine4;
#X obj 286 184 sel 3;
#X text 335 184 page 3;
#X obj 39 29 inlet;
#X msg 39 397 4: Volume \$1;
#X obj 79 107 s param;
#X msg 79 79 \$1 16;
#X text 121 80 Second number is index (16);
#X connect 0 0 12 0;
#X connect 1 0 9 0;
#X connect 2 0 13 0;
#X connect 3 0 7 0;
#X connect 4 0 3 0;
#X connect 5 0 6 0;
#X connect 6 0 3 0;
#X connect 7 0 8 0;
#X connect 7 1 0 1;
#X connect 8 0 16 0;
#X connect 9 0 8 0;
#X connect 9 1 8 1;
#X connect 10 0 1 0;
#X connect 13 0 5 0;
#X connect 13 1 4 0;
#X connect 15 0 11 0;
#X connect 15 0 10 0;
#X connect 15 0 18 0;
#X connect 16 0 0 0;
#X connect 18 0 17 0;
#X restore 1289 516 pd master_vol;
#X obj 37 230 r quitting;
#X text 598 36 Glass FM;
#X text 183 1090 Copyright (C) 2016 Jean Michel Pepin // hen_mi@hotmail.com
This program is free software: you can redistribute it and/or modify
it under the terms of the GNU General Public License as published by
the Free Software Foundation \, either version 3 of the License \,
or (at your option) any later version. This program is distributed
in the hope that it will be useful \, but WITHOUT ANY WARRANTY \; without
even the implied warranty of MERCHANTABILITY or FITNESS FOR A PARTICULAR
PURPOSE. See the GNU General Public License for more details. You should
have received a copy of the GNU General Public License along with this
program. If not \, see http://www.gnu.org/licenses/., f 88;
#X obj 184 513 route 1 2 3 4 5 6 7 8 9 10 11 12;
#X text 185 1067 A 12 voices polyphonic 4 operator FM synthesizer for
Organelle, f 63;
#X text 599 53 A 12 voices polyphonic 4 operator FM synthesizer for
Organelle, f 63;
#X obj 184 336 poly 12 1, f 10;
#X obj 1338 289 r p3_k3;
#X obj 1259 354 vsl 15 128 0 1 0 0 empty empty Sub 0 -9 0 10 -262144
-1 -1 3810 1;
#N canvas 0 50 739 798 sub 0;
#X obj 39 449 spigot;
#X obj 39 257 i;
#X obj 286 162 r page_select;
#X obj 286 273 change;
#X msg 320 239 0;
#X obj 286 211 delay 10;
#X msg 286 239 1;
#X obj 286 298 t b f;
#X obj 39 356 f;
#X obj 39 311 t b f;
#X obj 39 230 * 100;
#X obj 286 188 sel 3;
#X text 335 188 page 3;
#X obj 39 29 inlet;
#X obj 57 157 s sub_mix;
#X obj 39 481 s screenLine3;
#X msg 39 401 3: Sub Mix \$1;
#X obj 69 104 s param;
#X msg 69 76 \$1 15;
#X text 111 77 Second number is index (15);
#X connect 0 0 15 0;
#X connect 1 0 9 0;
#X connect 2 0 11 0;
#X connect 3 0 7 0;
#X connect 4 0 3 0;
#X connect 5 0 6 0;
#X connect 6 0 3 0;
#X connect 7 0 8 0;
#X connect 7 1 0 1;
#X connect 8 0 16 0;
#X connect 9 0 8 0;
#X connect 9 1 8 1;
#X connect 10 0 1 0;
#X connect 11 0 5 0;
#X connect 11 1 4 0;
#X connect 13 0 10 0;
#X connect 13 0 14 0;
#X connect 13 0 18 0;
#X connect 16 0 0 0;
#X connect 18 0 17 0;
#X restore 1259 546 pd sub;
#X obj 1138 874 hsl 128 15 0 1 0 0 empty empty Preset_selection -2
-8 0 10 -262144 -1 -1 0 1;
#X floatatom 1213 993 5 0 0 0 - - -, f 5;
#X text 1250 991 Preset selected;
#X obj 1039 832 bng 15 250 50 0 empty empty Save 17 7 0 10 -262144
-1 -1;
#X obj 1064 888 bng 15 250 50 0 empty empty Load 17 7 0 10 -262144
-1 -1;
#X obj 981 925 r param;
#X text 1107 958 12 parameters \, 16 preset files;
#X obj 1014 1162 s p0_k1;
#X obj 1030 1139 s p0_k2;
#X obj 1046 1114 s p0_k3;
#X obj 1062 1090 s p0_k4;
#X obj 1014 960 presets 16 16;
#X obj 1014 1045 route 1 2 3 4 5 6 7 8 9 10 11 12 13 14 15 16;
#X obj 1079 1162 s p1_k1;
#X obj 1095 1139 s p1_k2;
#X obj 1111 1114 s p1_k3;
#X obj 1128 1090 s p1_k4;
#X obj 1144 1162 s p2_k1;
#X obj 1160 1139 s p2_k2;
#X obj 1177 1114 s p2_k3;
#X obj 1193 1090 s p2_k4;
#X obj 1209 1163 s p3_k1;
#X obj 1226 1140 s p3_k2;
#X obj 1242 1115 s p3_k3;
#X obj 1258 1091 s p3_k4;
#X text 1298 1039 Recall preset and send values to parameters, f 24
;
#X text 865 917 receives indexed parameter value, f 16;
#X text 597 158 Page 4 Save sound : 1: Save sound \, 2: to preset slot
\, 3: hold aux to save \, 4: press aux to go to load sound, f 114
;
#X text 598 175 Page 5 Load sound : 1: Load sound \, 2: from preset
slot \, 3: hold aux to load \, 4: press aux to go to oscillator, f
114;
#X obj 1135 806 r p4_k1;
#X obj 1146 829 r p5_k1;
#N canvas 0 50 1143 755 preset_save 0;
#X obj 39 27 inlet;
#X obj 39 403 spigot;
#X obj 291 117 r page_select;
#X obj 291 228 change;
#X msg 325 194 0;
#X obj 291 166 delay 10;
#X msg 291 194 1;
#X obj 291 253 t b f;
#X obj 39 310 f;
#X obj 39 265 t b f;
#X obj 291 143 sel 4;
#X obj 39 435 s screenLine2;
#X text 339 143 page 4;
#X msg 39 355 1: Slot \$1;
#X connect 0 0 9 0;
#X connect 1 0 11 0;
#X connect 2 0 10 0;
#X connect 3 0 7 0;
#X connect 4 0 3 0;
#X connect 5 0 6 0;
#X connect 6 0 3 0;
#X connect 7 0 8 0;
#X connect 7 1 1 1;
#X connect 8 0 13 0;
#X connect 9 0 8 0;
#X connect 9 1 8 1;
#X connect 10 0 5 0;
#X connect 10 1 4 0;
#X connect 13 0 1 0;
#X restore 1093 1018 pd preset_save;
#N canvas 0 50 1143 755 preset_load 0;
#X obj 39 27 inlet;
#X obj 39 403 spigot;
#X obj 291 117 r page_select;
#X obj 291 228 change;
#X msg 325 194 0;
#X obj 291 166 delay 10;
#X msg 291 194 1;
#X obj 291 253 t b f;
#X obj 39 310 f;
#X obj 39 265 t b f;
#X obj 39 435 s screenLine2;
#X obj 291 143 sel 5;
#X text 339 143 page 5;
#X msg 39 355 1: Slot \$1;
#X connect 0 0 9 0;
#X connect 1 0 10 0;
#X connect 2 0 11 0;
#X connect 3 0 7 0;
#X connect 4 0 3 0;
#X connect 5 0 6 0;
#X connect 6 0 3 0;
#X connect 7 0 8 0;
#X connect 7 1 1 1;
#X connect 8 0 13 0;
#X connect 9 0 8 0;
#X connect 9 1 8 1;
#X connect 11 0 5 0;
#X connect 11 1 4 0;
#X connect 13 0 1 0;
#X restore 1100 995 pd preset_load;
#X text 184 1050 Glass FM v0.92;
#X obj 1039 800 r save;
#X obj 1064 863 r load;
#X obj 184 804 fm_voice;
#X obj 357 543 fm_voice;
#X obj 341 567 fm_voice;
#X obj 325 595 fm_voice;
#X obj 311 623 fm_voice;
#X obj 294 647 fm_voice;
#X obj 278 670 fm_voice;
#X obj 262 692 fm_voice;
#X obj 248 715 fm_voice;
#X obj 231 737 fm_voice;
#X obj 215 759 fm_voice;
#X obj 199 781 fm_voice;
#X connect 0 0 1 0;
#X connect 2 0 3 0;
#X connect 4 0 34 0;
#X connect 5 0 6 0;
#X connect 9 0 8 0;
#X connect 9 0 17 0;
#X connect 10 0 118 1;
#X connect 10 0 119 1;
#X connect 10 0 120 1;
#X connect 10 0 121 1;
#X connect 10 0 122 1;
#X connect 10 0 123 1;
#X connect 10 0 124 1;
#X connect 10 0 125 1;
#X connect 10 0 126 1;
#X connect 10 0 127 1;
#X connect 10 0 128 1;
#X connect 10 0 129 1;
#X connect 11 0 14 0;
#X connect 12 0 75 0;
#X connect 13 0 12 1;
#X connect 13 0 60 0;
#X connect 14 0 23 0;
#X connect 14 0 22 0;
#X connect 15 0 71 0;
#X connect 16 0 78 0;
#X connect 17 0 78 0;
#X connect 26 0 29 0;
#X connect 27 0 28 0;
#X connect 31 0 35 0;
#X connect 32 0 33 0;
#X connect 36 0 27 0;
#X connect 37 0 26 0;
#X connect 38 0 32 0;
#X connect 39 0 31 0;
#X connect 40 0 51 0;
#X connect 41 0 52 0;
#X connect 42 0 49 0;
#X connect 43 0 50 0;
#X connect 44 0 41 0;
#X connect 45 0 40 0;
#X connect 46 0 43 0;
#X connect 47 0 42 0;
#X connect 54 0 53 0;
#X connect 55 0 21 0;
#X connect 60 0 59 0;
#X connect 64 0 0 0;
#X connect 65 0 2 0;
#X connect 66 0 4 0;
#X connect 67 0 5 0;
#X connect 68 0 54 0;
#X connect 69 0 55 0;
#X connect 70 0 15 0;
#X connect 72 0 9 0;
#X connect 75 0 118 0;
#X connect 75 1 129 0;
#X connect 75 2 128 0;
#X connect 75 3 127 0;
#X connect 75 4 126 0;
#X connect 75 5 125 0;
#X connect 75 6 124 0;
#X connect 75 7 123 0;
#X connect 75 8 122 0;
#X connect 75 9 121 0;
#X connect 75 10 120 0;
#X connect 75 11 119 0;
#X connect 78 0 12 0;
#X connect 78 1 13 0;
#X connect 78 2 12 2;
#X connect 78 2 60 1;
#X connect 79 0 80 0;
#X connect 80 0 81 0;
#X connect 82 0 93 3;
#X connect 85 0 93 1;
#X connect 86 0 93 2;
#X connect 87 0 93 0;
#X connect 93 0 94 0;
#X connect 93 2 83 0;
#X connect 93 2 113 0;
#X connect 93 2 114 0;
#X connect 94 0 89 0;
#X connect 94 1 90 0;
#X connect 94 2 91 0;
#X connect 94 3 92 0;
#X connect 94 4 95 0;
#X connect 94 5 96 0;
#X connect 94 6 97 0;
#X connect 94 7 98 0;
#X connect 94 8 99 0;
#X connect 94 9 100 0;
#X connect 94 10 101 0;
#X connect 94 11 102 0;
#X connect 94 12 103 0;
#X connect 94 13 104 0;
#X connect 94 14 105 0;
#X connect 94 15 106 0;
#X connect 111 0 82 0;
#X connect 112 0 82 0;
#X connect 116 0 85 0;
#X connect 117 0 86 0;
#X connect 118 0 11 0;
#X connect 119 0 11 1;
#X connect 120 0 11 1;
#X connect 121 0 11 1;
#X connect 122 0 11 1;
#X connect 123 0 11 1;
#X connect 124 0 11 1;
#X connect 125 0 11 1;
#X connect 126 0 11 1;
#X connect 127 0 11 0;
#X connect 128 0 11 0;
#X connect 129 0 11 0;
