#N canvas 73 50 1203 634 10;
#X obj 561 401 r notesIn-\$1;
#X obj 304 491 s notesOut-\$1;
#X obj 23 9 r loaddefs-\$1;
#X msg 23 76 loaddefinitions \$1;
#X obj 181 9 r loadbang-\$1;
#X obj 181 76 print loading definiton for \$1;
#X obj 23 41 symbol;
#X obj 25 186 inlet~ inL-\$1;
#X obj 135 186 inlet~ inR-\$1;
#X obj 27 491 outlet~ outL-\$1;
#X obj 136 491 outlet~ outR-\$1;
#X obj 424 185 r auxIn-\$1;
#X obj 423 208 r expIn-\$1;
#X obj 423 233 r fsIn-\$1;
#X obj 421 76 s aux-label-\$1;
#X obj 516 45 int 0;
#X obj 516 76 s aux-led-\$1;
#X obj 421 45 symbol;
#X obj 1391 574 vsl 15 128 0 1 0 0 empty empty A 0 -9 0 10 -262144
-1 -1 0 1;
#N canvas 4 50 1205 660 att 0;
#X obj 61 72 inlet;
#X obj 61 241 + 1.5;
#X obj 68 267 s attack;
#X obj 61 215 * 3000;
#X text 116 228 Scale from 1.5 to near 3001.5 ms;
#X obj 61 192 pow 2;
#X obj 61 370 i;
#X obj 61 469 f;
#X obj 61 424 t b f;
#X obj 109 140 s param;
#X msg 109 112 \$1 9;
#X text 147 113 Second number is index (9);
#X connect 0 0 5 0;
#X connect 0 0 10 0;
#X connect 1 0 2 0;
#X connect 1 0 6 0;
#X connect 3 0 1 0;
#X connect 5 0 3 0;
#X connect 6 0 8 0;
#X connect 8 0 7 0;
#X connect 8 1 7 1;
#X connect 10 0 9 0;
#X restore 1391 788 pd att;
#X obj 1417 574 vsl 15 128 0 1 0 0 empty empty D 0 -9 0 10 -262144
-1 -1 0 1;
#N canvas 5 50 1209 660 dec 0;
#X obj 79 301 s decay;
#X obj 61 59 inlet;
#X obj 61 262 + 1.5;
#X obj 61 236 * 3000;
#X obj 61 208 pow 2;
#X obj 61 377 i;
#X obj 61 476 f;
#X obj 61 431 t b f;
#X obj 87 131 s param;
#X msg 87 103 \$1 10;
#X text 125 104 Second number is index (10);
#X connect 1 0 4 0;
#X connect 1 0 9 0;
#X connect 2 0 0 0;
#X connect 2 0 5 0;
#X connect 3 0 2 0;
#X connect 4 0 3 0;
#X connect 5 0 7 0;
#X connect 7 0 6 0;
#X connect 7 1 6 1;
#X connect 9 0 8 0;
#X restore 1417 764 pd dec;
#X obj 1443 574 vsl 15 128 0 1 0 0 empty empty S 0 -9 0 10 -262144
-1 -1 0 1;
#X obj 1469 574 vsl 15 128 0 1 0 0 empty empty R 0 -9 0 10 -262144
-1 -1 0 1;
#N canvas 5 50 1192 660 rel 0;
#X text 115 229 Scale from 1.5 to 12001.5;
#X obj 94 285 s release;
#X obj 61 71 inlet;
#X obj 61 254 + 1.5;
#X obj 61 228 * 12000;
#X obj 61 199 pow 2;
#X obj 61 358 i;
#X obj 61 457 f;
#X obj 61 412 t b f;
#X obj 83 134 s param;
#X msg 83 106 \$1 12;
#X text 125 107 Second number is index (12);
#X connect 2 0 5 0;
#X connect 2 0 10 0;
#X connect 3 0 1 0;
#X connect 3 0 6 0;
#X connect 4 0 3 0;
#X connect 5 0 4 0;
#X connect 6 0 8 0;
#X connect 8 0 7 0;
#X connect 8 1 7 1;
#X connect 10 0 9 0;
#X restore 1469 716 pd rel;
#X text 1392 490 Envelope;
#X obj 446 569 s clear_notes;
#X obj 446 487 bng 15 250 50 0 empty empty empty 17 7 0 10 -262144
-1 -1;
#X obj 917 876 lfo_tri;
#X obj 751 1098 +~;
#X obj 593 721 pack 0 0 0;
#N canvas 5 50 710 476 transpose 0;
#X obj 98 194 sel 0 1 2 3 4, f 37;
#X msg 141 221 -12;
#X msg 185 221 0;
#X msg 98 221 -24;
#X msg 229 221 12;
#X msg 273 221 24;
#X obj 98 122 i;
#X obj 98 147 change;
#X floatatom 108 171 5 0 0 0 - - -, f 5;
#X obj 83 252 +;
#X obj 83 68 inlet;
#X text 80 48 Note input (0 127);
#X obj 83 290 clip 0 127;
#X obj 83 330 outlet;
#X text 83 353 Note output;
#X text 315 18 Transpose;
#X obj 98 98 r transpose;
#X text 174 99 Transpose slider input (0. \, 4.9.);
#X connect 0 0 3 0;
#X connect 0 1 1 0;
#X connect 0 2 2 0;
#X connect 0 3 4 0;
#X connect 0 4 5 0;
#X connect 1 0 9 1;
#X connect 2 0 9 1;
#X connect 3 0 9 1;
#X connect 4 0 9 1;
#X connect 5 0 9 1;
#X connect 6 0 7 0;
#X connect 7 0 0 0;
#X connect 7 0 8 0;
#X connect 9 0 12 0;
#X connect 10 0 9 0;
#X connect 12 0 13 0;
#X connect 16 0 6 0;
#X restore 621 659 pd transpose;
#X obj 751 1128 master_vol;
#X obj 1698 602 vsl 15 128 0 1 0 0 empty empty Vol 0 -9 0 10 -262144
-1 -1 0 1;
#X msg 461 511 clear;
#X text 1005 320 Page 0 Oscillator: 1: Op 2 Ratio \, 2: Op 3 Ratio
\, 3: Op 4 Ratio \, 4: Index, f 81;
#X text 1005 339 Page 1 LFO: 1: LFO Rate \, 2: LFO Delay \, 3: LFO-Pitch
\, 4: LFO-Index, f 81;
#N canvas 257 78 791 556 porta 0;
#X obj 39 34 inlet;
#X obj 39 446 spigot;
#X obj 39 254 i;
#X obj 39 353 f;
#X obj 39 308 t b f;
#X obj 49 220 s portamento;
#X obj 39 194 * 1000;
#X text 84 196 Scale to (0. \, 1000);
#X obj 71 105 s param;
#X msg 71 77 \$1 14;
#X text 113 78 Second number is index (14);
#X connect 0 0 6 0;
#X connect 0 0 9 0;
#X connect 2 0 4 0;
#X connect 4 0 3 0;
#X connect 4 1 3 1;
#X connect 6 0 2 0;
#X connect 6 0 5 0;
#X connect 9 0 8 0;
#X restore 1635 811 pd porta;
#X text 851 1199 Organelle DAC;
#X text 556 363 organelle's notes input, f 12;
#X obj 1188 574 vsl 15 128 0 1 0 0 empty empty Delay 0 -9 0 10 -262144
-1 -1 0 1;
#X obj 1151 574 vsl 15 128 0 1 0 0 empty empty Rate 0 -9 0 10 -262144
-1 -1 0 1;
#N canvas 5 50 1143 660 lfo_rate 0;
#X obj 61 155 * 30;
#X obj 61 32 inlet;
#X obj 61 176 + 0.1;
#X obj 88 205 s LFO_tri_freq;
#X obj 61 133 pow 2;
#X obj 61 375 f;
#X obj 61 330 t b f;
#X obj 117 95 s param;
#X msg 117 67 \$1 5;
#X text 155 68 Second number is index (5);
#X connect 0 0 2 0;
#X connect 1 0 4 0;
#X connect 1 0 8 0;
#X connect 2 0 3 0;
#X connect 2 0 6 0;
#X connect 4 0 0 0;
#X connect 6 0 5 0;
#X connect 6 1 5 1;
#X connect 8 0 7 0;
#X restore 1151 790 pd lfo_rate;
#N canvas 7 50 976 660 lfo_delay 0;
#X obj 61 46 inlet;
#X obj 107 234 s LFO_delay_time;
#X obj 61 193 * 5000;
#X obj 61 375 f;
#X obj 61 330 t b f;
#X obj 61 239 i;
#X obj 84 112 s param;
#X msg 84 84 \$1 6;
#X text 122 85 Second number is index (6);
#X connect 0 0 2 0;
#X connect 0 0 7 0;
#X connect 2 0 1 0;
#X connect 2 0 5 0;
#X connect 4 0 3 0;
#X connect 4 1 3 1;
#X connect 5 0 4 0;
#X connect 7 0 6 0;
#X restore 1188 767 pd lfo_delay;
#X text 1202 506 LFO;
#X obj 1262 574 vsl 15 128 0 1 0 0 empty empty Index 0 -9 0 10 -262144
-1 -1 0 1;
#X obj 1225 574 vsl 15 128 0 1 0 0 empty empty Pitch 0 -9 0 10 -262144
-1 -1 0 1;
#N canvas 5 50 1143 660 lfo_pitch 0;
#X obj 40 27 inlet;
#X obj 60 221 s LFO_pitch_depth;
#X obj 40 193 pow 2;
#X obj 40 351 f;
#X obj 40 306 t b f;
#X obj 40 249 * 100;
#X obj 40 276 i;
#X obj 70 93 s param;
#X msg 70 65 \$1 7;
#X text 108 66 Second number is index (7);
#X connect 0 0 2 0;
#X connect 0 0 8 0;
#X connect 2 0 1 0;
#X connect 2 0 5 0;
#X connect 4 0 3 0;
#X connect 4 1 3 1;
#X connect 5 0 6 0;
#X connect 6 0 4 0;
#X connect 8 0 7 0;
#X restore 1225 744 pd lfo_pitch;
#N canvas 4 50 1265 660 sus 0;
#X obj 91 187 s sustain;
#X obj 61 54 inlet;
#X obj 61 276 i;
#X obj 61 375 f;
#X obj 61 330 t b f;
#X obj 61 238 * 100;
#X obj 115 121 s param;
#X msg 115 93 \$1 11;
#X text 160 94 Second number is index (11);
#X connect 1 0 0 0;
#X connect 1 0 5 0;
#X connect 1 0 7 0;
#X connect 2 0 4 0;
#X connect 4 0 3 0;
#X connect 4 1 3 1;
#X connect 5 0 2 0;
#X connect 7 0 6 0;
#X restore 1443 739 pd sus;
#N canvas 5 50 702 634 lfo_index 0;
#X obj 51 41 inlet;
#X obj 92 202 s 4op_LFO_depth;
#X obj 92 169 * 1500;
#X obj 51 375 f;
#X obj 51 330 t b f;
#X obj 51 277 * 100;
#X obj 51 300 i;
#X obj 95 107 s param;
#X msg 95 79 \$1 8;
#X text 133 80 Second number is index (8);
#X connect 0 0 2 0;
#X connect 0 0 5 0;
#X connect 0 0 8 0;
#X connect 2 0 1 0;
#X connect 4 0 3 0;
#X connect 4 1 3 1;
#X connect 5 0 6 0;
#X connect 6 0 4 0;
#X connect 8 0 7 0;
#X restore 1262 721 pd lfo_index;
#X obj 944 574 vsl 15 128 0 1 0 0 empty empty R3 0 -9 0 10 -262144
-1 -1 0 1;
#X obj 913 575 vsl 15 128 0 1 0 0 empty empty R2 0 -9 0 10 -262144
-1 -1 0 1;
#X obj 1005 575 vsl 15 128 0 1 0 0 empty empty Index 0 -9 0 10 -262144
-1 -1 0 1;
#X obj 975 574 vsl 15 128 0 1 0 0 empty empty R4 0 -9 0 10 -262144
-1 -1 0 1;
#X text 925 444 Oscillator;
#N canvas 4 50 761 599 osc_index 0;
#X obj 39 40 inlet;
#X obj 101 181 s 4op_index;
#X obj 101 157 * 3000;
#X obj 39 314 f;
#X obj 39 269 t b f;
#X obj 39 226 i;
#X obj 39 157 * 100;
#X obj 115 112 s param;
#X msg 115 84 \$1 4;
#X text 152 83 Second number is index (4);
#X connect 0 0 2 0;
#X connect 0 0 6 0;
#X connect 0 0 8 0;
#X connect 2 0 1 0;
#X connect 4 0 3 0;
#X connect 4 1 3 1;
#X connect 5 0 4 0;
#X connect 6 0 5 0;
#X connect 8 0 7 0;
#X restore 1005 721 pd osc_index;
#N canvas 4 50 1143 660 osc_ratio4 0;
#X obj 39 27 inlet;
#X obj 98 180 s 4op_ratio4;
#X obj 39 332 f;
#X obj 39 287 t b f;
#X obj 39 244 i;
#X obj 39 175 * 100;
#X obj 115 83 s param;
#X msg 115 55 \$1 3;
#X text 153 56 Second number is index (3);
#X connect 0 0 5 0;
#X connect 0 0 1 0;
#X connect 0 0 7 0;
#X connect 3 0 2 0;
#X connect 3 1 2 1;
#X connect 4 0 3 0;
#X connect 5 0 4 0;
#X connect 7 0 6 0;
#X restore 975 744 pd osc_ratio4;
#N canvas 87 50 1056 634 osc_ratio3 0;
#X obj 39 33 inlet;
#X obj 87 206 s 4op_ratio3;
#X obj 39 349 f;
#X obj 39 304 t b f;
#X obj 39 261 i;
#X obj 39 192 * 100;
#X obj 87 179 * 10;
#X obj 105 100 s param;
#X msg 105 72 \$1 2;
#X text 143 73 Second number is index (2);
#X connect 0 0 5 0;
#X connect 0 0 6 0;
#X connect 0 0 8 0;
#X connect 3 0 2 0;
#X connect 3 1 2 1;
#X connect 4 0 3 0;
#X connect 5 0 4 0;
#X connect 6 0 1 0;
#X connect 8 0 7 0;
#X restore 944 767 pd osc_ratio3;
#N canvas 4 50 1143 660 osc_ratio2 0;
#X obj 39 27 inlet;
#X obj 97 154 s 4op_ratio2;
#X obj 39 310 f;
#X obj 39 265 t b f;
#X obj 39 222 i;
#X obj 39 153 * 100;
#X obj 97 126 * 10;
#X obj 115 83 s param;
#X msg 115 55 \$1 1;
#X text 153 56 Second number is index (1);
#X text 172 79 Sends value to array \, which can then be saved as a
preset;
#X connect 0 0 5 0;
#X connect 0 0 6 0;
#X connect 0 0 8 0;
#X connect 3 0 2 0;
#X connect 3 1 2 1;
#X connect 4 0 3 0;
#X connect 5 0 4 0;
#X connect 6 0 1 0;
#X connect 8 0 7 0;
#X restore 913 790 pd osc_ratio2;
#N canvas 42 50 1234 659 transp 0;
#X obj 39 209 i;
#X obj 39 256 change -1;
#X obj 39 19 inlet;
#X obj 39 233 - 2;
#X obj 39 151 * 4.9;
#X obj 51 176 s transpose;
#X obj 63 90 s param;
#X msg 63 62 \$1 13;
#X text 105 63 Second number is index (13);
#X connect 0 0 3 0;
#X connect 2 0 4 0;
#X connect 2 0 7 0;
#X connect 3 0 1 0;
#X connect 4 0 0 0;
#X connect 4 0 5 0;
#X connect 7 0 6 0;
#X restore 1604 833 pd transp;
#X obj 1604 565 vsl 15 128 0 1 0 0 empty empty Transpose 0 -9 0 10
-262144 -1 -1 0 1;
#X obj 1635 577 vsl 15 128 0 1 0 0 empty empty Portamento 0 -9 0 10
-262144 -1 -1 0 1;
#X obj 439 751 s note_portamento;
#X obj 439 730 stripnote;
#X text 437 777 Send every note played for portamento, f 21;
#X text 1005 358 Page 2 Envelope: 1: Attack \, 2: Decay \, 3: Sustain
\, 4: Release, f 81;
#X text 1005 376 Page 3 Global: 1: Transpose \, 2: Portamento \, 3:
Ratio Mode \, 4: Volume, f 81;
#N canvas 5 50 739 660 master_vol 0;
#X obj 39 253 i;
#X obj 39 352 f;
#X obj 39 307 t b f;
#X obj 39 226 * 100;
#X obj 58 171 s master_vol;
#X obj 39 29 inlet;
#X obj 79 107 s param;
#X msg 79 79 \$1 16;
#X text 121 80 Second number is index (16);
#X connect 0 0 2 0;
#X connect 2 0 1 0;
#X connect 2 1 1 1;
#X connect 3 0 0 0;
#X connect 5 0 4 0;
#X connect 5 0 3 0;
#X connect 5 0 7 0;
#X connect 7 0 6 0;
#X restore 1698 752 pd master_vol;
#X obj 446 466 r quitting;
#X text 1007 272 Glass FM;
#X text 592 1326 Copyright (C) 2016 Jean Michel Pepin // hen_mi@hotmail.com
This program is free software: you can redistribute it and/or modify
it under the terms of the GNU General Public License as published by
the Free Software Foundation \, either version 3 of the License \,
or (at your option) any later version. This program is distributed
in the hope that it will be useful \, but WITHOUT ANY WARRANTY \; without
even the implied warranty of MERCHANTABILITY or FITNESS FOR A PARTICULAR
PURPOSE. See the GNU General Public License for more details. You should
have received a copy of the GNU General Public License along with this
program. If not \, see http://www.gnu.org/licenses/., f 88;
#X obj 593 749 route 1 2 3 4 5 6 7 8 9 10 11 12;
#X text 594 1303 A 12 voices polyphonic 4 operator FM synthesizer for
Organelle, f 63;
#X text 1008 289 A 12 voices polyphonic 4 operator FM synthesizer for
Organelle, f 63;
#X obj 593 572 poly 12 1, f 10;
#X obj 1668 590 vsl 15 128 0 1 0 0 empty empty Sub 0 -9 0 10 -262144
-1 -1 0 1;
#N canvas 4 50 739 660 sub 0;
#X obj 39 257 i;
#X obj 39 356 f;
#X obj 39 311 t b f;
#X obj 39 230 * 100;
#X obj 39 29 inlet;
#X obj 57 157 s sub_mix;
#X obj 69 104 s param;
#X msg 69 76 \$1 15;
#X text 111 77 Second number is index (15);
#X connect 0 0 2 0;
#X connect 2 0 1 0;
#X connect 2 1 1 1;
#X connect 3 0 0 0;
#X connect 4 0 3 0;
#X connect 4 0 5 0;
#X connect 4 0 7 0;
#X connect 7 0 6 0;
#X restore 1668 782 pd sub;
#X text 1006 394 Page 4 Save sound : 1: Save sound \, 2: to preset
slot \, 3: hold aux to save \, 4: press aux to go to load sound, f
114;
#X text 1007 411 Page 5 Load sound : 1: Load sound \, 2: from preset
slot \, 3: hold aux to load \, 4: press aux to go to oscillator, f
114;
#X text 593 1286 Glass FM v0.92;
#X obj 593 1040 fm_voice;
#X obj 766 779 fm_voice;
#X obj 750 803 fm_voice;
#X obj 734 831 fm_voice;
#X obj 720 859 fm_voice;
#X obj 703 883 fm_voice;
#X obj 687 906 fm_voice;
#X obj 671 928 fm_voice;
#X obj 657 951 fm_voice;
#X obj 640 973 fm_voice;
#X obj 624 995 fm_voice;
#X obj 608 1017 fm_voice;
#X obj 24 112 KontrolModule \$1 S-glassfm;
#X obj 181 45 print loaded:glassfm into \$1, f 35;
#X obj 842 472 r oscr2-\$1;
#X obj 841 498 / 100;
#X obj 921 493 / 100;
#X obj 920 472 r oscr3-\$1;
#X obj 999 497 / 100;
#X obj 1083 471 r index-\$1;
#X obj 1080 496 / 100;
#X obj 158 385 +~;
#X obj 58 386 +~;
#X obj 1135 488 r lforate-\$1;
#X obj 1147 535 / 100;
#X obj 1187 518 r lfodelay-\$1;
#X obj 1190 537 / 100;
#X obj 1234 461 r lfopitch-\$1;
#X obj 1235 489 / 100;
#X obj 1284 487 r lfoindex-\$1;
#X obj 1287 507 / 100;
#X obj 1499 477 r attack-\$1;
#X obj 1500 500 r decay-\$1;
#X obj 1502 523 r sustain-\$1;
#X obj 1501 545 r release-\$1;
#X obj 1453 475 / 100;
#X obj 1455 498 / 100;
#X obj 1454 546 / 100;
#X obj 1456 522 / 100;
#X obj 1685 476 / 100;
#X obj 1690 501 / 100;
#X obj 1697 527 / 100;
#X obj 1700 556 / 100;
#X obj 1740 474 r transpose-\$1;
#X obj 1747 498 r porta-\$1;
#X obj 1747 526 r sub-\$1;
#X obj 1747 555 r vol-\$1;
#X obj 999 471 r oscr4-\$1;
#X connect 0 0 1 0;
#X connect 0 0 74 0;
#X connect 2 0 6 0;
#X connect 2 0 5 0;
#X connect 3 0 92 0;
#X connect 4 0 15 0;
#X connect 4 0 17 0;
#X connect 4 0 93 0;
#X connect 6 0 3 0;
#X connect 7 0 102 0;
#X connect 8 0 101 0;
#X connect 15 0 16 0;
#X connect 17 0 14 0;
#X connect 18 0 19 0;
#X connect 20 0 21 0;
#X connect 22 0 48 0;
#X connect 23 0 24 0;
#X connect 27 0 26 0;
#X connect 27 0 34 0;
#X connect 28 0 80 1;
#X connect 28 0 81 1;
#X connect 28 0 82 1;
#X connect 28 0 83 1;
#X connect 28 0 84 1;
#X connect 28 0 85 1;
#X connect 28 0 86 1;
#X connect 28 0 87 1;
#X connect 28 0 88 1;
#X connect 28 0 89 1;
#X connect 28 0 90 1;
#X connect 28 0 91 1;
#X connect 29 0 32 0;
#X connect 30 0 71 0;
#X connect 31 0 30 1;
#X connect 31 0 63 0;
#X connect 32 0 101 1;
#X connect 32 0 102 1;
#X connect 33 0 67 0;
#X connect 34 0 74 0;
#X connect 40 0 43 0;
#X connect 41 0 42 0;
#X connect 45 0 49 0;
#X connect 46 0 47 0;
#X connect 50 0 57 0;
#X connect 51 0 58 0;
#X connect 52 0 55 0;
#X connect 53 0 56 0;
#X connect 60 0 59 0;
#X connect 61 0 37 0;
#X connect 63 0 62 0;
#X connect 68 0 27 0;
#X connect 71 0 80 0;
#X connect 71 1 91 0;
#X connect 71 2 90 0;
#X connect 71 3 89 0;
#X connect 71 4 88 0;
#X connect 71 5 87 0;
#X connect 71 6 86 0;
#X connect 71 7 85 0;
#X connect 71 8 84 0;
#X connect 71 9 83 0;
#X connect 71 10 82 0;
#X connect 71 11 81 0;
#X connect 74 0 30 0;
#X connect 74 1 31 0;
#X connect 74 2 30 2;
#X connect 74 2 63 1;
#X connect 75 0 76 0;
#X connect 80 0 29 0;
#X connect 81 0 29 1;
#X connect 82 0 29 1;
#X connect 83 0 29 1;
#X connect 84 0 29 1;
#X connect 85 0 29 1;
#X connect 86 0 29 1;
#X connect 87 0 29 1;
#X connect 88 0 29 1;
#X connect 89 0 29 0;
#X connect 90 0 29 0;
#X connect 91 0 29 0;
#X connect 94 0 95 0;
#X connect 95 0 51 0;
#X connect 96 0 50 0;
#X connect 97 0 96 0;
#X connect 98 0 53 0;
#X connect 99 0 100 0;
#X connect 100 0 52 0;
#X connect 101 0 10 0;
#X connect 102 0 9 0;
#X connect 103 0 104 0;
#X connect 104 0 41 0;
#X connect 105 0 106 0;
#X connect 106 0 40 0;
#X connect 107 0 108 0;
#X connect 108 0 46 0;
#X connect 109 0 110 0;
#X connect 110 0 45 0;
#X connect 111 0 115 0;
#X connect 112 0 116 0;
#X connect 113 0 118 0;
#X connect 114 0 117 0;
#X connect 115 0 18 0;
#X connect 116 0 20 0;
#X connect 117 0 23 0;
#X connect 118 0 22 0;
#X connect 119 0 60 0;
#X connect 120 0 61 0;
#X connect 121 0 75 0;
#X connect 122 0 33 0;
#X connect 123 0 119 0;
#X connect 124 0 120 0;
#X connect 125 0 121 0;
#X connect 126 0 122 0;
#X connect 127 0 98 0;
