#N canvas 329 53 1280 752 10;
#N canvas 0 50 450 278 (subpatch) 0;
#X array array1 300337 float 2 black black;
#X coords 0 1 300337 -1 200 140 1;
#X restore 458 438 graph;
#X obj 41 -18 soundfiler;
#X floatatom 41 11 10 0 0 0 - - -, f 10;
#X obj 44 -92 loadbang;
#X obj 1032 400 * 1000;
#X msg 44 -61 read -resize flute.wav array1;
#X obj 162 504 tabread4~ array1;
#X obj 41 43 s size;
#X obj 163 429 phasor~;
#X obj 162 458 *~ \$1;
#X obj 263 416 r size;
#N canvas 665 312 450 300 12th 0;
#X obj 57 17 inlet;
#X obj 286 258 outlet;
#X obj 57 48 sel 1 2 3 4 5 6 7 8 9 10 11 12;
#X msg 57 149 1;
#X msg 70 124 1.059;
#X msg 86 99 1.12;
#X msg 101 75 1.187;
#X msg 115 152 1.258;
#X msg 130 126 1.332;
#X msg 145 99 1.41;
#X msg 159 75 1.494;
#X msg 176 153 1.582;
#X msg 190 129 1.675;
#X msg 204 100 1.774;
#X msg 219 75 1.878;
#X obj 286 190 pack;
#X obj 307 138 r lag;
#X floatatom 17 51 5 0 0 0 - - -, f 5;
#X connect 0 0 2 0;
#X connect 0 0 17 0;
#X connect 2 0 3 0;
#X connect 2 1 4 0;
#X connect 2 2 5 0;
#X connect 2 3 6 0;
#X connect 2 4 7 0;
#X connect 2 5 8 0;
#X connect 2 6 9 0;
#X connect 2 7 10 0;
#X connect 2 8 11 0;
#X connect 2 9 12 0;
#X connect 2 10 13 0;
#X connect 2 11 14 0;
#X connect 3 0 15 0;
#X connect 4 0 15 0;
#X connect 5 0 15 0;
#X connect 6 0 15 0;
#X connect 7 0 15 0;
#X connect 8 0 15 0;
#X connect 9 0 15 0;
#X connect 10 0 15 0;
#X connect 11 0 15 0;
#X connect 12 0 15 0;
#X connect 13 0 15 0;
#X connect 14 0 15 0;
#X connect 15 0 1 0;
#X connect 16 0 15 1;
#X restore 164 238 pd 12th root;
#X floatatom 128 119 5 0 0 0 - - -, f 5;
#N canvas 461 366 450 300 12th 0;
#X obj 57 17 inlet;
#X obj 286 258 outlet;
#X obj 57 48 sel 1 2 3 4 5 6 7 8 9 10 11 12;
#X msg 57 149 1;
#X msg 70 124 1.059;
#X msg 86 99 1.12;
#X msg 101 75 1.187;
#X msg 115 152 1.258;
#X msg 130 126 1.332;
#X msg 145 99 1.41;
#X msg 159 75 1.494;
#X msg 176 153 1.582;
#X msg 190 129 1.675;
#X msg 204 100 1.774;
#X msg 219 75 1.878;
#X obj 286 190 / 2;
#X obj 287 218 pack;
#X obj 312 152 r lag;
#X connect 0 0 2 0;
#X connect 2 0 3 0;
#X connect 2 1 4 0;
#X connect 2 2 5 0;
#X connect 2 3 6 0;
#X connect 2 4 7 0;
#X connect 2 5 8 0;
#X connect 2 6 9 0;
#X connect 2 7 10 0;
#X connect 2 8 11 0;
#X connect 2 9 12 0;
#X connect 2 10 13 0;
#X connect 2 11 14 0;
#X connect 3 0 15 0;
#X connect 4 0 15 0;
#X connect 5 0 15 0;
#X connect 6 0 15 0;
#X connect 7 0 15 0;
#X connect 8 0 15 0;
#X connect 9 0 15 0;
#X connect 10 0 15 0;
#X connect 11 0 15 0;
#X connect 12 0 15 0;
#X connect 13 0 15 0;
#X connect 14 0 15 0;
#X connect 15 0 16 0;
#X connect 16 0 1 0;
#X connect 17 0 16 1;
#X restore 59 230 pd 12th root;
#X obj 202 326 osc~;
#X obj 163 397 +~;
#X floatatom 274 249 5 0 0 0 - - -, f 5;
#X obj 203 301 sig~;
#X obj 200 380 *~;
#X floatatom 355 309 5 0 0 0 - - -, f 5;
#X obj 356 338 / 10000;
#X floatatom 360 73 5 0 0 0 - - -, f 5;
#X obj 234 196 s~ press;
#X obj 163 539 *~;
#X obj 268 505 r~ press;
#X obj 163 280 line~;
#X obj 164 208 - 71;
#X obj 615 252 sel 0 1 2 3 4 5;
#X obj 614 353 s v1;
#X obj 629 327 s v2;
#X obj 643 304 s v3;
#X obj 658 279 s v4;
#X obj 669 355 s v5;
#X obj 684 328 s v6;
#X obj 128 -89 r v1;
#X obj 255 -89 r v2;
#X msg 466 -58 read -resize strings.wav array1;
#X obj 465 -86 r v3;
#X msg 256 -61 read -resize violin.wav array1;
#X obj 678 -87 r v4;
#X msg 679 -59 read -resize cello.wav array1;
#X msg 881 -61 read -resize choir.wav array1;
#X obj 880 -89 r v5;
#X obj 1079 -90 r v6;
#X obj 361 41 r env;
#X obj 1104 449 s env;
#X obj 744 406 * 500;
#X obj 743 427 s lag;
#X obj 201 353 +~;
#X obj 240 329 osc~;
#X obj 241 304 sig~;
#X msg 1080 -62 read -resize FMpad.wav array1;
#X obj 941 427 s warb;
#X obj 363 234 r warb;
#X obj 355 266 * 20;
#X obj 356 287 min 10;
#X obj 270 278 / 0.2;
#X obj 942 399 + 0.2;
#X floatatom 125 202 5 0 0 0 - - -, f 5;
#X obj 61 208 - 59;
#X obj 132 81 noteinmono;
#X floatatom 175 118 5 0 0 0 - - -, f 5;
#X obj 265 169 line~;
#X obj 334 140 pack 0 100;
#X obj 334 121 bng 15 250 50 0 empty empty empty 17 7 0 10 -262144
-1 -1;
#X obj 263 131 pack 1 100;
#X obj 266 91 sel 100;
#X obj 159 581 *~ 1.25;
#X obj 1121 76 s screenLine5;
#X msg 182 -16 Aux: Flute;
#X msg 364 -16 Aux: Violin;
#X msg 572 -19 Aux: Strings;
#X msg 780 -17 Aux: Cello;
#X msg 974 -18 Aux: Choir;
#X msg 1114 -17 Aux: FM Pad;
#X obj 127 171 moses 72;
#X floatatom 259 442 8 0 0 0 - - -, f 8;
#X obj 261 471 bng 15 250 50 0 empty empty empty 17 7 0 10 -262144
-1 -1;
#X obj 328 441 delay 50;
#X obj 162 480 +~;
#X obj 473 72 r size;
#X obj 473 112 / 44100;
#X floatatom 473 153 5 0 0 0 - - -, f 5;
#X obj 130 338 *~;
#X obj 461 207 / \$1;
#X msg 445 180 1;
#X floatatom 460 240 5 0 0 0 - - -, f 5;
#X obj 461 282 s tune;
#X obj 160 321 r tune;
#X obj 360 100 + 10;
#X obj 609 211 r inst-\$1;
#X obj 745 356 r lag-\$1;
#X obj 919 352 r warb-\$1;
#X obj 1033 341 r env-\$1;
#X obj 755 381 / 100;
#X obj 942 370 / 100;
#X obj 1031 370 / 100;
#X obj 132 51 inlet;
#X obj 156 612 outlet~;
#X connect 1 0 2 0;
#X connect 2 0 7 0;
#X connect 3 0 5 0;
#X connect 4 0 45 0;
#X connect 5 0 1 0;
#X connect 6 0 23 0;
#X connect 8 0 9 0;
#X connect 9 0 79 0;
#X connect 10 0 76 0;
#X connect 11 0 25 0;
#X connect 12 0 75 0;
#X connect 13 0 25 0;
#X connect 14 0 48 0;
#X connect 15 0 8 0;
#X connect 16 0 56 0;
#X connect 16 0 17 0;
#X connect 17 0 14 0;
#X connect 18 0 15 1;
#X connect 19 0 20 0;
#X connect 20 0 18 1;
#X connect 21 0 89 0;
#X connect 23 0 67 0;
#X connect 24 0 23 1;
#X connect 25 0 83 0;
#X connect 26 0 11 0;
#X connect 27 0 28 0;
#X connect 27 1 29 0;
#X connect 27 2 30 0;
#X connect 27 3 31 0;
#X connect 27 4 32 0;
#X connect 27 5 33 0;
#X connect 34 0 5 0;
#X connect 34 0 69 0;
#X connect 35 0 38 0;
#X connect 35 0 70 0;
#X connect 36 0 1 0;
#X connect 37 0 36 0;
#X connect 37 0 71 0;
#X connect 38 0 1 0;
#X connect 39 0 40 0;
#X connect 39 0 72 0;
#X connect 40 0 1 0;
#X connect 41 0 1 0;
#X connect 42 0 41 0;
#X connect 42 0 73 0;
#X connect 43 0 51 0;
#X connect 43 0 74 0;
#X connect 44 0 21 0;
#X connect 46 0 47 0;
#X connect 48 0 18 0;
#X connect 49 0 48 1;
#X connect 50 0 49 0;
#X connect 51 0 1 0;
#X connect 53 0 54 0;
#X connect 53 0 16 0;
#X connect 54 0 55 0;
#X connect 55 0 19 0;
#X connect 56 0 50 0;
#X connect 57 0 52 0;
#X connect 59 0 13 0;
#X connect 60 0 12 0;
#X connect 60 1 61 0;
#X connect 61 0 66 0;
#X connect 62 0 22 0;
#X connect 63 0 62 0;
#X connect 64 0 63 0;
#X connect 65 0 62 0;
#X connect 66 0 65 0;
#X connect 66 1 64 0;
#X connect 67 0 98 0;
#X connect 69 0 68 0;
#X connect 70 0 68 0;
#X connect 71 0 68 0;
#X connect 72 0 68 0;
#X connect 73 0 68 0;
#X connect 74 0 68 0;
#X connect 75 0 58 0;
#X connect 75 0 59 0;
#X connect 75 1 26 0;
#X connect 76 0 9 1;
#X connect 76 0 77 0;
#X connect 77 0 78 0;
#X connect 78 0 76 0;
#X connect 79 0 6 0;
#X connect 80 0 81 0;
#X connect 81 0 82 0;
#X connect 82 0 84 1;
#X connect 82 0 85 0;
#X connect 83 0 15 0;
#X connect 84 0 86 0;
#X connect 85 0 84 0;
#X connect 86 0 87 0;
#X connect 88 0 83 1;
#X connect 89 0 63 1;
#X connect 89 0 65 1;
#X connect 90 0 27 0;
#X connect 91 0 94 0;
#X connect 92 0 95 0;
#X connect 93 0 96 0;
#X connect 94 0 46 0;
#X connect 95 0 57 0;
#X connect 96 0 4 0;
#X connect 97 0 60 0;
