#N canvas 55 240 1861 804 10;
#X obj 304 186 r notesIn-\$1;
#X obj 304 491 s notesOut-\$1;
#X obj 23 9 r loaddefs-\$1;
#X msg 23 76 loaddefinitions \$1;
#X obj 181 9 r loadbang-\$1;
#X obj 181 76 print loading definiton for \$1;
#X obj 23 41 symbol;
#X obj 25 186 inlet~ inL-\$1;
#X obj 135 186 inlet~ inR-\$1;
#X obj 27 491 outlet~ outL-\$1;
#X obj 136 491 outlet~ outR-\$1;
#X obj 424 185 r auxIn-\$1;
#X obj 423 208 r expIn-\$1;
#X obj 423 233 r fsIn-\$1;
#N canvas 265 67 1651 977 synth 1;
#N canvas 0 50 450 278 (subpatch) 0;
#X array array1 300337 float 2;
#X coords 0 1 300337 -1 200 140 1;
#X restore 1244 544 graph;
#X obj 104 -79 soundfiler;
#X floatatom 104 -50 10 0 0 0 - - -, f 10;
#X obj 1095 339 * 1000;
#X msg 108 -123 read -resize flute.wav array1;
#X obj 104 -18 s size;
#X obj 678 191 sel 0 1 2 3 4 5;
#X obj 677 292 s v1;
#X obj 692 266 s v2;
#X obj 706 243 s v3;
#X obj 721 218 s v4;
#X obj 732 294 s v5;
#X obj 747 267 s v6;
#X obj 191 -150 r v1;
#X obj 318 -150 r v2;
#X msg 529 -119 read -resize strings.wav array1;
#X obj 528 -147 r v3;
#X msg 319 -122 read -resize violin.wav array1;
#X obj 741 -148 r v4;
#X msg 742 -120 read -resize cello.wav array1;
#X msg 944 -122 read -resize choir.wav array1;
#X obj 943 -150 r v5;
#X obj 1142 -151 r v6;
#X obj 1167 388 s env;
#X obj 807 345 * 500;
#X obj 806 366 s lag;
#X msg 1143 -123 read -resize FMpad.wav array1;
#X obj 1004 366 s warb;
#X obj 1005 338 + 0.2;
#X obj 1184 15 s screenLine5;
#X obj 606 38 r size;
#X obj 606 78 / 44100;
#X floatatom 606 119 5 0 0 0 - - -, f 5;
#X msg 578 146 1;
#X floatatom 593 206 5 0 0 0 - - -, f 5;
#X obj 594 248 s tune;
#X obj 672 150 r inst-\$1;
#X obj 808 295 r lag-\$1;
#X obj 982 291 r warb-\$1;
#X obj 1096 280 r env-\$1;
#X obj 818 320 / 100;
#X obj 1005 309 / 100;
#X obj 1094 309 / 100;
#X obj 195 -10 inlet;
#X obj 219 551 outlet~;
#X obj 107 -153 r loadbang-\$1;
#X msg 245 -77 Flute;
#X msg 427 -77 Violin;
#X msg 635 -80 Strings;
#X msg 843 -78 Cello;
#X msg 1037 -79 Choir;
#X msg 1177 -78 FM Pad;
#X obj 594 173 /;
#X obj 80 52 poly 4 1;
#X obj 64 85 pack f f f;
#X obj 16 117 route 1 2 3 4;
#N canvas 648 130 1114 914 voice 1;
#X obj 225 443 tabread4~ array1;
#X obj 226 368 phasor~;
#X obj 326 355 r size;
#N canvas 665 312 450 300 12th 0;
#X obj 57 17 inlet;
#X obj 286 258 outlet;
#X obj 57 48 sel 1 2 3 4 5 6 7 8 9 10 11 12;
#X msg 57 149 1;
#X msg 70 124 1.059;
#X msg 86 99 1.12;
#X msg 101 75 1.187;
#X msg 115 152 1.258;
#X msg 130 126 1.332;
#X msg 145 99 1.41;
#X msg 159 75 1.494;
#X msg 176 153 1.582;
#X msg 190 129 1.675;
#X msg 204 100 1.774;
#X msg 219 75 1.878;
#X obj 286 190 pack;
#X obj 307 138 r lag;
#X floatatom 17 51 5 0 0 0 - - -, f 5;
#X connect 0 0 2 0;
#X connect 0 0 17 0;
#X connect 2 0 3 0;
#X connect 2 1 4 0;
#X connect 2 2 5 0;
#X connect 2 3 6 0;
#X connect 2 4 7 0;
#X connect 2 5 8 0;
#X connect 2 6 9 0;
#X connect 2 7 10 0;
#X connect 2 8 11 0;
#X connect 2 9 12 0;
#X connect 2 10 13 0;
#X connect 2 11 14 0;
#X connect 3 0 15 0;
#X connect 4 0 15 0;
#X connect 5 0 15 0;
#X connect 6 0 15 0;
#X connect 7 0 15 0;
#X connect 8 0 15 0;
#X connect 9 0 15 0;
#X connect 10 0 15 0;
#X connect 11 0 15 0;
#X connect 12 0 15 0;
#X connect 13 0 15 0;
#X connect 14 0 15 0;
#X connect 15 0 1 0;
#X connect 16 0 15 1;
#X restore 227 177 pd 12th root;
#X floatatom 191 58 5 0 0 0 - - -, f 5;
#N canvas 462 363 450 300 12th 0;
#X obj 57 17 inlet;
#X obj 286 258 outlet;
#X obj 57 48 sel 1 2 3 4 5 6 7 8 9 10 11 12;
#X msg 57 149 1;
#X msg 70 124 1.059;
#X msg 86 99 1.12;
#X msg 101 75 1.187;
#X msg 115 152 1.258;
#X msg 130 126 1.332;
#X msg 145 99 1.41;
#X msg 159 75 1.494;
#X msg 176 153 1.582;
#X msg 190 129 1.675;
#X msg 204 100 1.774;
#X msg 219 75 1.878;
#X obj 286 190 / 2;
#X obj 287 218 pack;
#X obj 312 152 r lag;
#X connect 0 0 2 0;
#X connect 2 0 3 0;
#X connect 2 1 4 0;
#X connect 2 2 5 0;
#X connect 2 3 6 0;
#X connect 2 4 7 0;
#X connect 2 5 8 0;
#X connect 2 6 9 0;
#X connect 2 7 10 0;
#X connect 2 8 11 0;
#X connect 2 9 12 0;
#X connect 2 10 13 0;
#X connect 2 11 14 0;
#X connect 3 0 15 0;
#X connect 4 0 15 0;
#X connect 5 0 15 0;
#X connect 6 0 15 0;
#X connect 7 0 15 0;
#X connect 8 0 15 0;
#X connect 9 0 15 0;
#X connect 10 0 15 0;
#X connect 11 0 15 0;
#X connect 12 0 15 0;
#X connect 13 0 15 0;
#X connect 14 0 15 0;
#X connect 15 0 16 0;
#X connect 16 0 1 0;
#X connect 17 0 16 1;
#X restore 133 190 pd 12th root;
#X obj 265 265 osc~;
#X obj 226 336 +~;
#X floatatom 337 188 5 0 0 0 - - -, f 5;
#X obj 266 240 sig~;
#X obj 263 319 *~;
#X floatatom 418 248 5 0 0 0 - - -, f 5;
#X obj 419 277 / 10000;
#X floatatom 436 50 5 0 0 0 - - -, f 5;
#X obj 226 219 line~;
#X obj 227 147 - 71;
#X obj 431 25 r env;
#X obj 264 292 +~;
#X obj 303 268 osc~;
#X obj 304 243 sig~;
#X obj 426 173 r warb;
#X obj 418 205 * 20;
#X obj 419 226 min 10;
#X obj 333 217 / 0.2;
#X floatatom 188 141 5 0 0 0 - - -, f 5;
#X obj 135 168 - 59;
#X floatatom 238 57 5 0 0 0 - - -, f 5;
#X obj 301 157 line~;
#X obj 410 117 pack 0 100;
#X obj 397 60 bng 15 250 50 0 empty empty empty 17 7 0 10 -262144 -1
-1;
#X obj 299 119 pack 1 100;
#X obj 222 520 *~ 1.25;
#X obj 190 110 moses 72;
#X floatatom 322 381 8 0 0 0 - - -, f 8;
#X obj 324 410 bng 15 250 50 0 empty empty empty 17 7 0 10 -262144
-1 -1;
#X obj 391 380 delay 50;
#X obj 225 419 +~;
#X obj 193 277 *~;
#X obj 223 260 r tune;
#X obj 436 77 + 10;
#X obj 225 491 *~;
#X obj 304 69 > 0;
#X obj 298 95 sel 1;
#X obj 225 397 *~;
#X obj 149 7 inlet;
#X obj 147 33 unpack f f;
#X obj 224 574 outlet~;
#X connect 0 0 40 0;
#X connect 1 0 43 0;
#X connect 2 0 33 0;
#X connect 3 0 14 0;
#X connect 4 0 32 0;
#X connect 5 0 14 0;
#X connect 6 0 17 0;
#X connect 7 0 1 0;
#X connect 8 0 23 0;
#X connect 8 0 9 0;
#X connect 9 0 6 0;
#X connect 10 0 7 1;
#X connect 11 0 12 0;
#X connect 12 0 10 1;
#X connect 13 0 39 0;
#X connect 14 0 37 0;
#X connect 15 0 3 0;
#X connect 16 0 13 0;
#X connect 17 0 10 0;
#X connect 18 0 17 1;
#X connect 19 0 18 0;
#X connect 20 0 21 0;
#X connect 20 0 8 0;
#X connect 21 0 22 0;
#X connect 22 0 11 0;
#X connect 23 0 19 0;
#X connect 25 0 5 0;
#X connect 26 0 41 0;
#X connect 27 0 40 1;
#X connect 28 0 27 0;
#X connect 29 0 28 0;
#X connect 30 0 27 0;
#X connect 31 0 46 0;
#X connect 32 0 24 0;
#X connect 32 0 25 0;
#X connect 32 1 15 0;
#X connect 33 0 34 0;
#X connect 33 0 43 1;
#X connect 34 0 35 0;
#X connect 35 0 33 0;
#X connect 36 0 0 0;
#X connect 37 0 7 0;
#X connect 38 0 37 1;
#X connect 39 0 28 1;
#X connect 39 0 30 1;
#X connect 40 0 31 0;
#X connect 41 0 42 0;
#X connect 42 0 30 0;
#X connect 42 1 29 0;
#X connect 43 0 36 0;
#X connect 44 0 45 0;
#X connect 45 0 4 0;
#X connect 45 1 26 0;
#X restore 36 173 pd voice;
#N canvas 647 130 1114 914 voice 0;
#X obj 225 443 tabread4~ array1;
#X obj 226 368 phasor~;
#X obj 326 355 r size;
#N canvas 665 312 450 300 12th 0;
#X obj 57 17 inlet;
#X obj 286 258 outlet;
#X obj 57 48 sel 1 2 3 4 5 6 7 8 9 10 11 12;
#X msg 57 149 1;
#X msg 70 124 1.059;
#X msg 86 99 1.12;
#X msg 101 75 1.187;
#X msg 115 152 1.258;
#X msg 130 126 1.332;
#X msg 145 99 1.41;
#X msg 159 75 1.494;
#X msg 176 153 1.582;
#X msg 190 129 1.675;
#X msg 204 100 1.774;
#X msg 219 75 1.878;
#X obj 286 190 pack;
#X obj 307 138 r lag;
#X floatatom 17 51 5 0 0 0 - - -, f 5;
#X connect 0 0 2 0;
#X connect 0 0 17 0;
#X connect 2 0 3 0;
#X connect 2 1 4 0;
#X connect 2 2 5 0;
#X connect 2 3 6 0;
#X connect 2 4 7 0;
#X connect 2 5 8 0;
#X connect 2 6 9 0;
#X connect 2 7 10 0;
#X connect 2 8 11 0;
#X connect 2 9 12 0;
#X connect 2 10 13 0;
#X connect 2 11 14 0;
#X connect 3 0 15 0;
#X connect 4 0 15 0;
#X connect 5 0 15 0;
#X connect 6 0 15 0;
#X connect 7 0 15 0;
#X connect 8 0 15 0;
#X connect 9 0 15 0;
#X connect 10 0 15 0;
#X connect 11 0 15 0;
#X connect 12 0 15 0;
#X connect 13 0 15 0;
#X connect 14 0 15 0;
#X connect 15 0 1 0;
#X connect 16 0 15 1;
#X restore 227 177 pd 12th root;
#X floatatom 191 58 5 0 0 0 - - -, f 5;
#N canvas 462 363 450 300 12th 0;
#X obj 57 17 inlet;
#X obj 286 258 outlet;
#X obj 57 48 sel 1 2 3 4 5 6 7 8 9 10 11 12;
#X msg 57 149 1;
#X msg 70 124 1.059;
#X msg 86 99 1.12;
#X msg 101 75 1.187;
#X msg 115 152 1.258;
#X msg 130 126 1.332;
#X msg 145 99 1.41;
#X msg 159 75 1.494;
#X msg 176 153 1.582;
#X msg 190 129 1.675;
#X msg 204 100 1.774;
#X msg 219 75 1.878;
#X obj 286 190 / 2;
#X obj 287 218 pack;
#X obj 312 152 r lag;
#X connect 0 0 2 0;
#X connect 2 0 3 0;
#X connect 2 1 4 0;
#X connect 2 2 5 0;
#X connect 2 3 6 0;
#X connect 2 4 7 0;
#X connect 2 5 8 0;
#X connect 2 6 9 0;
#X connect 2 7 10 0;
#X connect 2 8 11 0;
#X connect 2 9 12 0;
#X connect 2 10 13 0;
#X connect 2 11 14 0;
#X connect 3 0 15 0;
#X connect 4 0 15 0;
#X connect 5 0 15 0;
#X connect 6 0 15 0;
#X connect 7 0 15 0;
#X connect 8 0 15 0;
#X connect 9 0 15 0;
#X connect 10 0 15 0;
#X connect 11 0 15 0;
#X connect 12 0 15 0;
#X connect 13 0 15 0;
#X connect 14 0 15 0;
#X connect 15 0 16 0;
#X connect 16 0 1 0;
#X connect 17 0 16 1;
#X restore 133 190 pd 12th root;
#X obj 265 265 osc~;
#X obj 226 336 +~;
#X floatatom 337 188 5 0 0 0 - - -, f 5;
#X obj 266 240 sig~;
#X obj 263 319 *~;
#X floatatom 418 248 5 0 0 0 - - -, f 5;
#X obj 419 277 / 10000;
#X floatatom 436 50 5 0 0 0 - - -, f 5;
#X obj 226 219 line~;
#X obj 227 147 - 71;
#X obj 431 25 r env;
#X obj 264 292 +~;
#X obj 303 268 osc~;
#X obj 304 243 sig~;
#X obj 426 173 r warb;
#X obj 418 205 * 20;
#X obj 419 226 min 10;
#X obj 333 217 / 0.2;
#X floatatom 188 141 5 0 0 0 - - -, f 5;
#X obj 135 168 - 59;
#X floatatom 238 57 5 0 0 0 - - -, f 5;
#X obj 301 157 line~;
#X obj 410 117 pack 0 100;
#X obj 397 60 bng 15 250 50 0 empty empty empty 17 7 0 10 -262144 -1
-1;
#X obj 299 119 pack 1 100;
#X obj 222 520 *~ 1.25;
#X obj 190 110 moses 72;
#X floatatom 322 381 8 0 0 0 - - -, f 8;
#X obj 324 410 bng 15 250 50 0 empty empty empty 17 7 0 10 -262144
-1 -1;
#X obj 391 380 delay 50;
#X obj 225 419 +~;
#X obj 193 277 *~;
#X obj 223 260 r tune;
#X obj 436 77 + 10;
#X obj 225 491 *~;
#X obj 304 69 > 0;
#X obj 298 95 sel 1;
#X obj 225 397 *~;
#X obj 149 7 inlet;
#X obj 147 33 unpack f f;
#X obj 224 574 outlet~;
#X connect 0 0 40 0;
#X connect 1 0 43 0;
#X connect 2 0 33 0;
#X connect 3 0 14 0;
#X connect 4 0 32 0;
#X connect 5 0 14 0;
#X connect 6 0 17 0;
#X connect 7 0 1 0;
#X connect 8 0 23 0;
#X connect 8 0 9 0;
#X connect 9 0 6 0;
#X connect 10 0 7 1;
#X connect 11 0 12 0;
#X connect 12 0 10 1;
#X connect 13 0 39 0;
#X connect 14 0 37 0;
#X connect 15 0 3 0;
#X connect 16 0 13 0;
#X connect 17 0 10 0;
#X connect 18 0 17 1;
#X connect 19 0 18 0;
#X connect 20 0 21 0;
#X connect 20 0 8 0;
#X connect 21 0 22 0;
#X connect 22 0 11 0;
#X connect 23 0 19 0;
#X connect 25 0 5 0;
#X connect 26 0 41 0;
#X connect 27 0 40 1;
#X connect 28 0 27 0;
#X connect 29 0 28 0;
#X connect 30 0 27 0;
#X connect 31 0 46 0;
#X connect 32 0 24 0;
#X connect 32 0 25 0;
#X connect 32 1 15 0;
#X connect 33 0 34 0;
#X connect 33 0 43 1;
#X connect 34 0 35 0;
#X connect 35 0 33 0;
#X connect 36 0 0 0;
#X connect 37 0 7 0;
#X connect 38 0 37 1;
#X connect 39 0 28 1;
#X connect 39 0 30 1;
#X connect 40 0 31 0;
#X connect 41 0 42 0;
#X connect 42 0 30 0;
#X connect 42 1 29 0;
#X connect 43 0 36 0;
#X connect 44 0 45 0;
#X connect 45 0 4 0;
#X connect 45 1 26 0;
#X restore 104 170 pd voice;
#N canvas 647 130 1114 914 voice 0;
#X obj 225 443 tabread4~ array1;
#X obj 226 368 phasor~;
#X obj 326 355 r size;
#N canvas 665 312 450 300 12th 0;
#X obj 57 17 inlet;
#X obj 286 258 outlet;
#X obj 57 48 sel 1 2 3 4 5 6 7 8 9 10 11 12;
#X msg 57 149 1;
#X msg 70 124 1.059;
#X msg 86 99 1.12;
#X msg 101 75 1.187;
#X msg 115 152 1.258;
#X msg 130 126 1.332;
#X msg 145 99 1.41;
#X msg 159 75 1.494;
#X msg 176 153 1.582;
#X msg 190 129 1.675;
#X msg 204 100 1.774;
#X msg 219 75 1.878;
#X obj 286 190 pack;
#X obj 307 138 r lag;
#X floatatom 17 51 5 0 0 0 - - -, f 5;
#X connect 0 0 2 0;
#X connect 0 0 17 0;
#X connect 2 0 3 0;
#X connect 2 1 4 0;
#X connect 2 2 5 0;
#X connect 2 3 6 0;
#X connect 2 4 7 0;
#X connect 2 5 8 0;
#X connect 2 6 9 0;
#X connect 2 7 10 0;
#X connect 2 8 11 0;
#X connect 2 9 12 0;
#X connect 2 10 13 0;
#X connect 2 11 14 0;
#X connect 3 0 15 0;
#X connect 4 0 15 0;
#X connect 5 0 15 0;
#X connect 6 0 15 0;
#X connect 7 0 15 0;
#X connect 8 0 15 0;
#X connect 9 0 15 0;
#X connect 10 0 15 0;
#X connect 11 0 15 0;
#X connect 12 0 15 0;
#X connect 13 0 15 0;
#X connect 14 0 15 0;
#X connect 15 0 1 0;
#X connect 16 0 15 1;
#X restore 227 177 pd 12th root;
#X floatatom 191 58 5 0 0 0 - - -, f 5;
#N canvas 462 363 450 300 12th 0;
#X obj 57 17 inlet;
#X obj 286 258 outlet;
#X obj 57 48 sel 1 2 3 4 5 6 7 8 9 10 11 12;
#X msg 57 149 1;
#X msg 70 124 1.059;
#X msg 86 99 1.12;
#X msg 101 75 1.187;
#X msg 115 152 1.258;
#X msg 130 126 1.332;
#X msg 145 99 1.41;
#X msg 159 75 1.494;
#X msg 176 153 1.582;
#X msg 190 129 1.675;
#X msg 204 100 1.774;
#X msg 219 75 1.878;
#X obj 286 190 / 2;
#X obj 287 218 pack;
#X obj 312 152 r lag;
#X connect 0 0 2 0;
#X connect 2 0 3 0;
#X connect 2 1 4 0;
#X connect 2 2 5 0;
#X connect 2 3 6 0;
#X connect 2 4 7 0;
#X connect 2 5 8 0;
#X connect 2 6 9 0;
#X connect 2 7 10 0;
#X connect 2 8 11 0;
#X connect 2 9 12 0;
#X connect 2 10 13 0;
#X connect 2 11 14 0;
#X connect 3 0 15 0;
#X connect 4 0 15 0;
#X connect 5 0 15 0;
#X connect 6 0 15 0;
#X connect 7 0 15 0;
#X connect 8 0 15 0;
#X connect 9 0 15 0;
#X connect 10 0 15 0;
#X connect 11 0 15 0;
#X connect 12 0 15 0;
#X connect 13 0 15 0;
#X connect 14 0 15 0;
#X connect 15 0 16 0;
#X connect 16 0 1 0;
#X connect 17 0 16 1;
#X restore 133 190 pd 12th root;
#X obj 265 265 osc~;
#X obj 226 336 +~;
#X floatatom 337 188 5 0 0 0 - - -, f 5;
#X obj 266 240 sig~;
#X obj 263 319 *~;
#X floatatom 418 248 5 0 0 0 - - -, f 5;
#X obj 419 277 / 10000;
#X floatatom 436 50 5 0 0 0 - - -, f 5;
#X obj 226 219 line~;
#X obj 227 147 - 71;
#X obj 431 25 r env;
#X obj 264 292 +~;
#X obj 303 268 osc~;
#X obj 304 243 sig~;
#X obj 426 173 r warb;
#X obj 418 205 * 20;
#X obj 419 226 min 10;
#X obj 333 217 / 0.2;
#X floatatom 188 141 5 0 0 0 - - -, f 5;
#X obj 135 168 - 59;
#X floatatom 238 57 5 0 0 0 - - -, f 5;
#X obj 301 157 line~;
#X obj 410 117 pack 0 100;
#X obj 397 60 bng 15 250 50 0 empty empty empty 17 7 0 10 -262144 -1
-1;
#X obj 299 119 pack 1 100;
#X obj 222 520 *~ 1.25;
#X obj 190 110 moses 72;
#X floatatom 322 381 8 0 0 0 - - -, f 8;
#X obj 324 410 bng 15 250 50 0 empty empty empty 17 7 0 10 -262144
-1 -1;
#X obj 391 380 delay 50;
#X obj 225 419 +~;
#X obj 193 277 *~;
#X obj 223 260 r tune;
#X obj 436 77 + 10;
#X obj 225 491 *~;
#X obj 304 69 > 0;
#X obj 298 95 sel 1;
#X obj 225 397 *~;
#X obj 149 7 inlet;
#X obj 147 33 unpack f f;
#X obj 224 574 outlet~;
#X connect 0 0 40 0;
#X connect 1 0 43 0;
#X connect 2 0 33 0;
#X connect 3 0 14 0;
#X connect 4 0 32 0;
#X connect 5 0 14 0;
#X connect 6 0 17 0;
#X connect 7 0 1 0;
#X connect 8 0 23 0;
#X connect 8 0 9 0;
#X connect 9 0 6 0;
#X connect 10 0 7 1;
#X connect 11 0 12 0;
#X connect 12 0 10 1;
#X connect 13 0 39 0;
#X connect 14 0 37 0;
#X connect 15 0 3 0;
#X connect 16 0 13 0;
#X connect 17 0 10 0;
#X connect 18 0 17 1;
#X connect 19 0 18 0;
#X connect 20 0 21 0;
#X connect 20 0 8 0;
#X connect 21 0 22 0;
#X connect 22 0 11 0;
#X connect 23 0 19 0;
#X connect 25 0 5 0;
#X connect 26 0 41 0;
#X connect 27 0 40 1;
#X connect 28 0 27 0;
#X connect 29 0 28 0;
#X connect 30 0 27 0;
#X connect 31 0 46 0;
#X connect 32 0 24 0;
#X connect 32 0 25 0;
#X connect 32 1 15 0;
#X connect 33 0 34 0;
#X connect 33 0 43 1;
#X connect 34 0 35 0;
#X connect 35 0 33 0;
#X connect 36 0 0 0;
#X connect 37 0 7 0;
#X connect 38 0 37 1;
#X connect 39 0 28 1;
#X connect 39 0 30 1;
#X connect 40 0 31 0;
#X connect 41 0 42 0;
#X connect 42 0 30 0;
#X connect 42 1 29 0;
#X connect 43 0 36 0;
#X connect 44 0 45 0;
#X connect 45 0 4 0;
#X connect 45 1 26 0;
#X restore 176 169 pd voice;
#N canvas 647 130 1114 914 voice 0;
#X obj 225 443 tabread4~ array1;
#X obj 226 368 phasor~;
#X obj 326 355 r size;
#N canvas 665 312 450 300 12th 0;
#X obj 57 17 inlet;
#X obj 286 258 outlet;
#X obj 57 48 sel 1 2 3 4 5 6 7 8 9 10 11 12;
#X msg 57 149 1;
#X msg 70 124 1.059;
#X msg 86 99 1.12;
#X msg 101 75 1.187;
#X msg 115 152 1.258;
#X msg 130 126 1.332;
#X msg 145 99 1.41;
#X msg 159 75 1.494;
#X msg 176 153 1.582;
#X msg 190 129 1.675;
#X msg 204 100 1.774;
#X msg 219 75 1.878;
#X obj 286 190 pack;
#X obj 307 138 r lag;
#X floatatom 17 51 5 0 0 0 - - -, f 5;
#X connect 0 0 2 0;
#X connect 0 0 17 0;
#X connect 2 0 3 0;
#X connect 2 1 4 0;
#X connect 2 2 5 0;
#X connect 2 3 6 0;
#X connect 2 4 7 0;
#X connect 2 5 8 0;
#X connect 2 6 9 0;
#X connect 2 7 10 0;
#X connect 2 8 11 0;
#X connect 2 9 12 0;
#X connect 2 10 13 0;
#X connect 2 11 14 0;
#X connect 3 0 15 0;
#X connect 4 0 15 0;
#X connect 5 0 15 0;
#X connect 6 0 15 0;
#X connect 7 0 15 0;
#X connect 8 0 15 0;
#X connect 9 0 15 0;
#X connect 10 0 15 0;
#X connect 11 0 15 0;
#X connect 12 0 15 0;
#X connect 13 0 15 0;
#X connect 14 0 15 0;
#X connect 15 0 1 0;
#X connect 16 0 15 1;
#X restore 227 177 pd 12th root;
#X floatatom 191 58 5 0 0 0 - - -, f 5;
#N canvas 462 363 450 300 12th 0;
#X obj 57 17 inlet;
#X obj 286 258 outlet;
#X obj 57 48 sel 1 2 3 4 5 6 7 8 9 10 11 12;
#X msg 57 149 1;
#X msg 70 124 1.059;
#X msg 86 99 1.12;
#X msg 101 75 1.187;
#X msg 115 152 1.258;
#X msg 130 126 1.332;
#X msg 145 99 1.41;
#X msg 159 75 1.494;
#X msg 176 153 1.582;
#X msg 190 129 1.675;
#X msg 204 100 1.774;
#X msg 219 75 1.878;
#X obj 286 190 / 2;
#X obj 287 218 pack;
#X obj 312 152 r lag;
#X connect 0 0 2 0;
#X connect 2 0 3 0;
#X connect 2 1 4 0;
#X connect 2 2 5 0;
#X connect 2 3 6 0;
#X connect 2 4 7 0;
#X connect 2 5 8 0;
#X connect 2 6 9 0;
#X connect 2 7 10 0;
#X connect 2 8 11 0;
#X connect 2 9 12 0;
#X connect 2 10 13 0;
#X connect 2 11 14 0;
#X connect 3 0 15 0;
#X connect 4 0 15 0;
#X connect 5 0 15 0;
#X connect 6 0 15 0;
#X connect 7 0 15 0;
#X connect 8 0 15 0;
#X connect 9 0 15 0;
#X connect 10 0 15 0;
#X connect 11 0 15 0;
#X connect 12 0 15 0;
#X connect 13 0 15 0;
#X connect 14 0 15 0;
#X connect 15 0 16 0;
#X connect 16 0 1 0;
#X connect 17 0 16 1;
#X restore 133 190 pd 12th root;
#X obj 265 265 osc~;
#X obj 226 336 +~;
#X floatatom 337 188 5 0 0 0 - - -, f 5;
#X obj 266 240 sig~;
#X obj 263 319 *~;
#X floatatom 418 248 5 0 0 0 - - -, f 5;
#X obj 419 277 / 10000;
#X floatatom 436 50 5 0 0 0 - - -, f 5;
#X obj 226 219 line~;
#X obj 227 147 - 71;
#X obj 431 25 r env;
#X obj 264 292 +~;
#X obj 303 268 osc~;
#X obj 304 243 sig~;
#X obj 426 173 r warb;
#X obj 418 205 * 20;
#X obj 419 226 min 10;
#X obj 333 217 / 0.2;
#X floatatom 188 141 5 0 0 0 - - -, f 5;
#X obj 135 168 - 59;
#X floatatom 238 57 5 0 0 0 - - -, f 5;
#X obj 301 157 line~;
#X obj 410 117 pack 0 100;
#X obj 397 60 bng 15 250 50 0 empty empty empty 17 7 0 10 -262144 -1
-1;
#X obj 299 119 pack 1 100;
#X obj 222 520 *~ 1.25;
#X obj 190 110 moses 72;
#X floatatom 322 381 8 0 0 0 - - -, f 8;
#X obj 324 410 bng 15 250 50 0 empty empty empty 17 7 0 10 -262144
-1 -1;
#X obj 391 380 delay 50;
#X obj 225 419 +~;
#X obj 193 277 *~;
#X obj 223 260 r tune;
#X obj 436 77 + 10;
#X obj 225 491 *~;
#X obj 304 69 > 0;
#X obj 298 95 sel 1;
#X obj 225 397 *~;
#X obj 149 7 inlet;
#X obj 147 33 unpack f f;
#X obj 224 574 outlet~;
#X connect 0 0 40 0;
#X connect 1 0 43 0;
#X connect 2 0 33 0;
#X connect 3 0 14 0;
#X connect 4 0 32 0;
#X connect 5 0 14 0;
#X connect 6 0 17 0;
#X connect 7 0 1 0;
#X connect 8 0 23 0;
#X connect 8 0 9 0;
#X connect 9 0 6 0;
#X connect 10 0 7 1;
#X connect 11 0 12 0;
#X connect 12 0 10 1;
#X connect 13 0 39 0;
#X connect 14 0 37 0;
#X connect 15 0 3 0;
#X connect 16 0 13 0;
#X connect 17 0 10 0;
#X connect 18 0 17 1;
#X connect 19 0 18 0;
#X connect 20 0 21 0;
#X connect 20 0 8 0;
#X connect 21 0 22 0;
#X connect 22 0 11 0;
#X connect 23 0 19 0;
#X connect 25 0 5 0;
#X connect 26 0 41 0;
#X connect 27 0 40 1;
#X connect 28 0 27 0;
#X connect 29 0 28 0;
#X connect 30 0 27 0;
#X connect 31 0 46 0;
#X connect 32 0 24 0;
#X connect 32 0 25 0;
#X connect 32 1 15 0;
#X connect 33 0 34 0;
#X connect 33 0 43 1;
#X connect 34 0 35 0;
#X connect 35 0 33 0;
#X connect 36 0 0 0;
#X connect 37 0 7 0;
#X connect 38 0 37 1;
#X connect 39 0 28 1;
#X connect 39 0 30 1;
#X connect 40 0 31 0;
#X connect 41 0 42 0;
#X connect 42 0 30 0;
#X connect 42 1 29 0;
#X connect 43 0 36 0;
#X connect 44 0 45 0;
#X connect 45 0 4 0;
#X connect 45 1 26 0;
#X restore 245 170 pd voice;
#X connect 1 0 2 0;
#X connect 2 0 5 0;
#X connect 3 0 23 0;
#X connect 4 0 1 0;
#X connect 6 0 7 0;
#X connect 6 1 8 0;
#X connect 6 2 9 0;
#X connect 6 3 10 0;
#X connect 6 4 11 0;
#X connect 6 5 12 0;
#X connect 13 0 4 0;
#X connect 13 0 46 0;
#X connect 14 0 17 0;
#X connect 14 0 47 0;
#X connect 15 0 1 0;
#X connect 16 0 15 0;
#X connect 16 0 48 0;
#X connect 17 0 1 0;
#X connect 18 0 19 0;
#X connect 18 0 49 0;
#X connect 19 0 1 0;
#X connect 20 0 1 0;
#X connect 21 0 20 0;
#X connect 21 0 50 0;
#X connect 22 0 26 0;
#X connect 22 0 51 0;
#X connect 24 0 25 0;
#X connect 26 0 1 0;
#X connect 28 0 27 0;
#X connect 30 0 31 0;
#X connect 31 0 32 0;
#X connect 32 0 33 0;
#X connect 32 0 52 1;
#X connect 33 0 52 0;
#X connect 34 0 35 0;
#X connect 36 0 6 0;
#X connect 37 0 40 0;
#X connect 38 0 41 0;
#X connect 39 0 42 0;
#X connect 40 0 24 0;
#X connect 41 0 28 0;
#X connect 42 0 3 0;
#X connect 43 0 53 0;
#X connect 45 0 4 0;
#X connect 46 0 29 0;
#X connect 47 0 29 0;
#X connect 48 0 29 0;
#X connect 49 0 29 0;
#X connect 50 0 29 0;
#X connect 51 0 29 0;
#X connect 52 0 34 0;
#X connect 53 0 54 0;
#X connect 53 1 54 1;
#X connect 53 2 54 2;
#X connect 54 0 55 0;
#X connect 55 0 56 0;
#X connect 55 1 57 0;
#X connect 55 2 58 0;
#X connect 55 3 59 0;
#X connect 56 0 44 0;
#X connect 57 0 44 0;
#X connect 58 0 44 0;
#X connect 59 0 44 0;
#X restore 62 315 pd synth;
#X obj 25 376 +~;
#X obj 136 381 +~;
#X obj 182 35 print loaded:S-tapesynth into \$1, f 35;
#X obj 24 111 KontrolModule \$1 S-tapesynth;
#X connect 0 0 1 0;
#X connect 0 0 14 0;
#X connect 2 0 6 0;
#X connect 2 0 5 0;
#X connect 3 0 18 0;
#X connect 4 0 17 0;
#X connect 6 0 3 0;
#X connect 7 0 15 0;
#X connect 8 0 16 0;
#X connect 14 0 15 1;
#X connect 14 0 16 1;
#X connect 15 0 9 0;
#X connect 16 0 10 0;
