#N canvas 51 81 1210 603 10;
#X obj 836 33 r notesIn-\$1;
#X obj 836 69 s notesOut-\$1;
#X obj 24 10 r loaddefs-\$1;
#X msg 24 76 loaddefinitions \$1;
#X obj 182 10 r loadbang-\$1;
#X obj 182 76 print loading definiton for \$1;
#X obj 24 42 symbol;
#X obj 424 186 r auxIn-\$1;
#X obj 424 208 r expIn-\$1;
#X obj 424 234 r fsIn-\$1;
#X obj 422 76 s aux-label-\$1;
#X obj 516 46 int 0;
#X obj 516 76 s aux-led-\$1;
#X obj 422 46 symbol;
#X obj 644 698 *~;
#X obj 644 806 *~;
#N canvas 0 50 450 300 delWrite 0;
#X obj 68 80 delwrite~ \$0-comp 500;
#X obj 68 40 inlet~;
#X obj 68 156 outlet~;
#X connect 1 0 0 0;
#X restore 478 482 pd delWrite;
#X obj 660 658 lop~;
#X obj 660 604 clip~ 0 1;
#X obj 660 782 line~;
#X obj 660 760 pack f 5;
#N canvas 45 63 939 621 rms 0;
#X obj 258 108 env~ 512;
#X obj 258 246 -~;
#X obj 258 294 *~;
#X obj 258 346 +~;
#X obj 258 386 /~;
#X obj 378 222 +~ 0;
#X obj 258 34 inlet~;
#X obj 258 408 outlet~;
#X obj 374 38 inlet;
#X obj 374 60 switch~;
#X obj 258 136 dbtorms~;
#X text 222 75 Input;
#X text 232 137 RMS;
#X text 424 59 turn DSP on/off for this sub-patch;
#X obj 487 214 dbtorms;
#X obj 489 178 + 100;
#X obj 498 315 /;
#X obj 498 285 swap 1;
#X obj 486 148 r thresh-\$1;
#X obj 626 285 r ratio-\$1;
#X connect 0 0 10 0;
#X connect 1 0 2 0;
#X connect 2 0 3 0;
#X connect 3 0 4 0;
#X connect 4 0 7 0;
#X connect 5 0 4 1;
#X connect 6 0 0 0;
#X connect 8 0 9 0;
#X connect 10 0 1 0;
#X connect 10 0 5 0;
#X connect 14 0 1 1;
#X connect 14 0 3 1;
#X connect 15 0 14 0;
#X connect 16 0 2 1;
#X connect 17 0 16 0;
#X connect 17 1 16 1;
#X connect 18 0 15 0;
#X connect 19 0 17 0;
#X restore 660 480 pd rms;
#N canvas 8 50 859 604 peak 0;
#X obj 244 134 abs~;
#X obj 244 244 -~;
#X obj 244 292 *~;
#X obj 244 344 +~;
#X obj 244 384 /~;
#X obj 366 220 +~ 0;
#X obj 244 50 inlet~;
#X obj 244 406 outlet~;
#X obj 470 126 inlet;
#X obj 470 148 switch~;
#X text 206 99 Input;
#X text 208 135 Peak;
#X text 522 149 turn DSP on/off for this sub-patch;
#X obj 497 252 dbtorms;
#X obj 509 223 + 100;
#X obj 498 315 /;
#X obj 498 285 swap 1;
#X obj 530 191 r thresh-\$1;
#X obj 626 285 r ratio-\$1;
#X connect 0 0 1 0;
#X connect 0 0 5 0;
#X connect 1 0 2 0;
#X connect 2 0 3 0;
#X connect 3 0 4 0;
#X connect 4 0 7 0;
#X connect 5 0 4 1;
#X connect 6 0 0 0;
#X connect 8 0 9 0;
#X connect 13 0 1 1;
#X connect 13 0 3 1;
#X connect 14 0 13 0;
#X connect 15 0 2 1;
#X connect 16 0 15 0;
#X connect 16 1 15 1;
#X connect 17 0 14 0;
#X connect 18 0 16 0;
#X restore 708 480 pd peak;
#X obj 692 422 == 0;
#X obj 692 378 t f f;
#X text 598 269 Input;
#X text 418 479 delwrite~;
#X text 444 513 dymmy;
#X text 442 525 cable;
#X text 424 557 delread~;
#X text 534 513 Lookahead in ms;
#X text 726 601 Clip signal;
#X text 690 657 Attack/release using LPF;
#X text 733 749 Gain Control;
#X text 710 503 Gain computation;
#X text 710 517 RMS/Peak;
#X text 801 788 Make-up gain;
#X text 732 377 RMS/Peak;
#X text 732 391 selector;
#X obj 747 763 + 100;
#X obj 747 785 dbtorms;
#X obj 905 750 /;
#X obj 905 728 swap 1000;
#X obj 573 297 inlet~ inL-\$1;
#X obj 643 832 outlet~ outL-\$1;
#X obj 24 113 KontrolModule \$1 F-compressor;
#X obj 182 46 print loaded:compressor into \$1, f 35;
#X obj 691 354 r rmspeak-\$1;
#X obj 534 534 r lookahead-\$1;
#X obj 904 698 r response-\$1;
#X obj 749 732 r gain-\$1;
#X obj 1019 682 *~;
#X obj 1019 790 *~;
#N canvas 0 50 450 300 delWrite 0;
#X obj 68 80 delwrite~ \$0-comp 500;
#X obj 68 40 inlet~;
#X obj 68 156 outlet~;
#X connect 1 0 0 0;
#X restore 853 466 pd delWrite;
#X obj 1035 642 lop~;
#X obj 1035 588 clip~ 0 1;
#X obj 1035 766 line~;
#X obj 1035 744 pack f 5;
#N canvas 45 63 939 621 rms 0;
#X obj 258 108 env~ 512;
#X obj 258 246 -~;
#X obj 258 294 *~;
#X obj 258 346 +~;
#X obj 258 386 /~;
#X obj 378 222 +~ 0;
#X obj 258 34 inlet~;
#X obj 258 408 outlet~;
#X obj 374 38 inlet;
#X obj 374 60 switch~;
#X obj 258 136 dbtorms~;
#X text 222 75 Input;
#X text 232 137 RMS;
#X text 424 59 turn DSP on/off for this sub-patch;
#X obj 487 214 dbtorms;
#X obj 489 178 + 100;
#X obj 498 315 /;
#X obj 498 285 swap 1;
#X obj 486 148 r thresh-\$1;
#X obj 626 285 r ratio-\$1;
#X connect 0 0 10 0;
#X connect 1 0 2 0;
#X connect 2 0 3 0;
#X connect 3 0 4 0;
#X connect 4 0 7 0;
#X connect 5 0 4 1;
#X connect 6 0 0 0;
#X connect 8 0 9 0;
#X connect 10 0 1 0;
#X connect 10 0 5 0;
#X connect 14 0 1 1;
#X connect 14 0 3 1;
#X connect 15 0 14 0;
#X connect 16 0 2 1;
#X connect 17 0 16 0;
#X connect 17 1 16 1;
#X connect 18 0 15 0;
#X connect 19 0 17 0;
#X restore 1035 464 pd rms;
#N canvas 8 50 859 604 peak 0;
#X obj 244 134 abs~;
#X obj 244 244 -~;
#X obj 244 292 *~;
#X obj 244 344 +~;
#X obj 244 384 /~;
#X obj 366 220 +~ 0;
#X obj 244 50 inlet~;
#X obj 244 406 outlet~;
#X obj 470 126 inlet;
#X obj 470 148 switch~;
#X text 206 99 Input;
#X text 208 135 Peak;
#X text 522 149 turn DSP on/off for this sub-patch;
#X obj 497 252 dbtorms;
#X obj 509 223 + 100;
#X obj 498 315 /;
#X obj 498 285 swap 1;
#X obj 530 191 r thresh-\$1;
#X obj 626 285 r ratio-\$1;
#X connect 0 0 1 0;
#X connect 0 0 5 0;
#X connect 1 0 2 0;
#X connect 2 0 3 0;
#X connect 3 0 4 0;
#X connect 4 0 7 0;
#X connect 5 0 4 1;
#X connect 6 0 0 0;
#X connect 8 0 9 0;
#X connect 13 0 1 1;
#X connect 13 0 3 1;
#X connect 14 0 13 0;
#X connect 15 0 2 1;
#X connect 16 0 15 0;
#X connect 16 1 15 1;
#X connect 17 0 14 0;
#X connect 18 0 16 0;
#X restore 1083 464 pd peak;
#X obj 1067 406 == 0;
#X obj 1067 362 t f f;
#N canvas 0 50 450 300 delRead 0;
#X obj 68 42 inlet~;
#X obj 134 156 outlet~;
#X obj 134 42 inlet lookAhead;
#X obj 134 116 delread~ \$0-comp 0;
#X connect 2 0 3 0;
#X connect 3 0 1 0;
#X restore 853 542 pd delRead;
#X text 973 253 Input;
#X text 793 463 delwrite~;
#X text 799 541 delread~;
#X text 909 497 Lookahead in ms;
#X text 1101 585 Clip signal;
#X text 1065 641 Attack/release using LPF;
#X text 1108 733 Gain Control;
#X text 1085 487 Gain computation;
#X text 1085 501 RMS/Peak;
#X text 1176 772 Make-up gain;
#X text 1107 361 RMS/Peak;
#X text 1107 375 selector;
#X obj 1122 747 + 100;
#X obj 1122 769 dbtorms;
#X obj 1280 734 /;
#X obj 1280 712 swap 1000;
#X obj 1066 338 r rmspeak-\$1;
#X obj 909 518 r lookahead-\$1;
#X obj 1279 682 r response-\$1;
#X obj 1124 716 r gain-\$1;
#X obj 950 281 inlet~ inR-\$1;
#X obj 1018 816 outlet~ outR-\$1;
#N canvas 5 50 504 345 delRead 0;
#X obj 68 42 inlet~;
#X obj 134 156 outlet~;
#X obj 134 42 inlet lookAhead;
#X obj 134 116 delread~ \$0-comp 0;
#X connect 2 0 3 0;
#X connect 3 0 1 0;
#X restore 478 558 pd delRead 1;
#X connect 0 0 1 0;
#X connect 2 0 6 0;
#X connect 2 0 5 0;
#X connect 3 0 45 0;
#X connect 4 0 11 0;
#X connect 4 0 13 0;
#X connect 4 0 46 0;
#X connect 6 0 3 0;
#X connect 11 0 12 0;
#X connect 13 0 10 0;
#X connect 14 0 15 0;
#X connect 15 0 44 0;
#X connect 16 0 85 0;
#X connect 17 0 14 1;
#X connect 18 0 17 0;
#X connect 19 0 15 1;
#X connect 20 0 19 0;
#X connect 21 0 18 0;
#X connect 22 0 18 0;
#X connect 23 0 21 1;
#X connect 24 0 23 0;
#X connect 24 1 22 1;
#X connect 39 0 40 0;
#X connect 40 0 20 0;
#X connect 41 0 17 1;
#X connect 42 0 41 0;
#X connect 42 1 41 1;
#X connect 43 0 16 0;
#X connect 43 0 21 0;
#X connect 43 0 22 0;
#X connect 47 0 24 0;
#X connect 48 0 85 1;
#X connect 49 0 42 0;
#X connect 50 0 39 0;
#X connect 51 0 52 0;
#X connect 52 0 84 0;
#X connect 53 0 62 0;
#X connect 54 0 51 1;
#X connect 55 0 54 0;
#X connect 56 0 52 1;
#X connect 57 0 56 0;
#X connect 58 0 55 0;
#X connect 59 0 55 0;
#X connect 60 0 58 1;
#X connect 61 0 60 0;
#X connect 61 1 59 1;
#X connect 62 0 51 0;
#X connect 75 0 76 0;
#X connect 76 0 57 0;
#X connect 77 0 54 1;
#X connect 78 0 77 0;
#X connect 78 1 77 1;
#X connect 79 0 61 0;
#X connect 80 0 62 1;
#X connect 81 0 78 0;
#X connect 82 0 75 0;
#X connect 83 0 53 0;
#X connect 83 0 58 0;
#X connect 83 0 59 0;
#X connect 85 0 14 0;
