#N canvas -8 -8 1366 725 10;
#X obj 61 153 inlet;
#X obj 61 175 unpack 0 0, f 23;
#X obj 52 363 mtof~;
#X obj 22 223 sig~;
#X obj 59 656 *~;
#X obj 59 731 outlet~;
#X obj 59 708 hip~ 5;
#X obj 219 198 / 127;
#X obj 219 220 sqrt;
#X obj 219 242 sqrt;
#X obj 59 678 *~ 0.5;
#X obj 59 315 +~, f 5;
#X obj 94 292 r~ add-transpose-sig-\$1;
#X obj 184 571 tabread~ skel-band-table-\$1;
#X obj 58 572 catch~ \$1-bus-\$2;
#X obj 61 408 s~ \$1-root-\$2;
#X obj 219 267 s \$1-trig-\$2;
#X obj 399 181 additive-synth-partial \$1 \$2 0;
#X obj 399 281 additive-synth-partial \$1 \$2 5;
#X obj 402 238 additive-synth-partial \$1 \$2 3;
#X obj 399 360 additive-synth-partial \$1 \$2 9;
#X obj 399 321 additive-synth-partial \$1 \$2 7;
#X obj 399 341 additive-synth-partial \$1 \$2 8;
#X obj 399 407 additive-synth-partial \$1 \$2 11;
#X obj 399 201 additive-synth-partial \$1 \$2 1;
#X obj 399 221 additive-synth-partial \$1 \$2 2;
#X obj 398 260 additive-synth-partial \$1 \$2 4;
#X obj 398 301 additive-synth-partial \$1 \$2 6;
#X obj 399 383 additive-synth-partial \$1 \$2 10;
#X obj 106 356 mtof_micro \$1;
#X obj 101 221 r add_trans-\$1;
#X obj 61 281 +;
#X obj 116 377 sig~;
#X connect 0 0 1 0;
#X connect 1 0 3 0;
#X connect 1 0 31 0;
#X connect 1 1 7 0;
#X connect 3 0 11 0;
#X connect 4 0 10 0;
#X connect 6 0 5 0;
#X connect 7 0 8 0;
#X connect 8 0 9 0;
#X connect 9 0 16 0;
#X connect 10 0 6 0;
#X connect 12 0 11 1;
#X connect 13 0 4 1;
#X connect 14 0 4 0;
#X connect 29 0 32 0;
#X connect 30 0 31 1;
#X connect 31 0 29 0;
#X connect 32 0 15 0;
#X connect 32 0 13 0;
