#N canvas -43 39 1366 725 10;
#X obj 56 128 pack 0 0 0, f 11;
#X obj 56 154 route 1 2 3 4 5 6 7 8, f 81;
#X obj 898 336 sel 0 1 2 3, f 60;
#X obj 1002 398 s screenLine5;
#X obj 898 454 s screenLine5;
#X obj 1093 444 s screenLine5;
#X obj 1210 392 s screenLine5;
#X text 24 19 basic polyphonic patch with 8 voices;
#X text 405 132 aircraft carrier;
#X obj 79 317 bng 15 250 50 0 empty empty empty 17 7 0 10 -262144 -1
-1;
#X obj 230 233 *~ 0.3;
#X obj 307 290 +~;
#X obj 58 104 poly 6, f 11;
#X obj 56 75 inlet;
#X obj 381 373 outlet~;
#X obj 56 180 voice \$1;
#X obj 916 290 r folder_type-\$1;
#X msg 898 428 Type: Sine Folder;
#X msg 1002 372 Type: Tanh Folder;
#X msg 1124 364 Type: Static Sine;
#X msg 1093 418 Type: Resonant Saw Folder;
#X obj 126 181 voice \$1;
#X obj 197 182 voice \$1;
#X obj 265 186 voice \$1;
#X obj 319 196 voice \$1;
#X obj 388 196 voice \$1;
#X obj 774 172 sig~ 1;
#X obj 767 72 r folder_vol-\$1;
#X obj 680 260 lop~ 5;
#X obj 387 322 *~;
#X obj 825 136 / 100;
#X connect 0 0 1 0;
#X connect 1 0 9 0;
#X connect 1 0 15 0;
#X connect 1 1 21 0;
#X connect 1 2 22 0;
#X connect 1 3 23 0;
#X connect 1 4 24 0;
#X connect 1 5 25 0;
#X connect 2 0 17 0;
#X connect 2 1 18 0;
#X connect 2 2 20 0;
#X connect 2 3 19 0;
#X connect 10 0 11 0;
#X connect 11 0 29 0;
#X connect 12 0 0 0;
#X connect 12 1 0 1;
#X connect 12 2 0 2;
#X connect 13 0 12 0;
#X connect 15 0 10 0;
#X connect 16 0 2 0;
#X connect 17 0 4 0;
#X connect 18 0 3 0;
#X connect 19 0 6 0;
#X connect 20 0 5 0;
#X connect 21 0 10 0;
#X connect 22 0 10 0;
#X connect 23 0 10 0;
#X connect 24 0 10 0;
#X connect 25 0 10 0;
#X connect 26 0 28 0;
#X connect 27 0 30 0;
#X connect 28 0 29 1;
#X connect 29 0 14 0;
#X connect 30 0 26 0;
