#N canvas 0 50 1356 691 10;
#X text 352 43 note messages;
#X obj 306 59 inlet;
#X obj 374 571 outlet~;
#X text 25 10 synth voice with waveform change;
#X obj 329 80 unpack 0 0;
#X obj 378 162 mtof;
#X obj 450 440 *~;
#X obj 339 189 / 2;
#X obj 668 149 osc~ 5;
#X obj 412 211 sig~;
#X obj 540 227 *~ 0.1;
#X obj 476 159 * 0.001;
#X obj 651 89 r mod_speed;
#X obj 509 21 r vibrato_depth;
#X obj 691 175 r tremolo_depth;
#X obj 585 379 +~ 1;
#X obj 438 526 *~;
#X obj 550 338 *~ 0.1;
#X obj 567 47 nbx 5 14 -1e+037 1e+037 0 0 empty empty empty 0 -8 0
10 -262144 -1 -1 0 256;
#X obj 320 329 *~;
#X obj 216 172 r filt_q;
#X obj 175 207 r filt_cutoff;
#X obj 331 458 vcf~ 3;
#X obj 292 264 * 12;
#X obj 357 491 *~ 0;
#X obj 452 478 *~ 1;
#X obj 531 434 r envfilt;
#X obj 530 466 * -1;
#X obj 529 491 + 1;
#X obj 356 139 + 0;
#X obj 393 128 r tranpose;
#X obj 72 124 block~ 64 1 4;
#X obj 408 257 tableosc;
#X obj 459 296 env_parabolic;
#X connect 1 0 4 0;
#X connect 4 0 29 0;
#X connect 4 1 33 0;
#X connect 5 0 7 0;
#X connect 5 0 11 0;
#X connect 6 0 25 0;
#X connect 7 0 9 0;
#X connect 7 0 23 0;
#X connect 7 0 32 0;
#X connect 8 0 10 0;
#X connect 8 0 17 0;
#X connect 9 0 32 1;
#X connect 10 0 32 1;
#X connect 11 0 10 1;
#X connect 12 0 8 0;
#X connect 13 0 11 1;
#X connect 13 0 18 0;
#X connect 14 0 17 1;
#X connect 15 0 16 1;
#X connect 16 0 2 0;
#X connect 17 0 15 0;
#X connect 19 0 22 1;
#X connect 20 0 22 2;
#X connect 21 0 23 1;
#X connect 22 0 24 0;
#X connect 23 0 19 1;
#X connect 24 0 16 0;
#X connect 25 0 16 0;
#X connect 26 0 25 1;
#X connect 26 0 27 0;
#X connect 27 0 28 0;
#X connect 28 0 24 1;
#X connect 29 0 5 0;
#X connect 30 0 29 1;
#X connect 32 0 6 0;
#X connect 32 0 22 0;
#X connect 33 0 6 1;
#X connect 33 0 19 0;
