#N canvas 673 50 678 716 10;
#X obj 273 236 phasor~;
#X obj 201 234 phasor~;
#X obj 405 238 phasor~;
#X obj 333 236 phasor~;
#X obj 128 231 phasor~;
#X obj 57 241 phasor~;
#X obj 405 238 phasor~;
#X obj 333 236 phasor~;
#X obj 475 242 phasor~;
#X obj 475 242 phasor~;
#X obj 255 367 hip~;
#X obj 222 26 inlet;
#X obj 351 4 inlet;
#X obj 65 165 * -0.107;
#X obj 68 189 + 1;
#X obj 202 54 f;
#X obj 347 100 t b f;
#X obj 52 216 * 1;
#X obj 131 207 * 1;
#X obj 200 210 * 1;
#X obj 275 211 * 1;
#X obj 336 211 + 1;
#X obj 404 213 + 1;
#X obj 480 214 + 1;
#X obj 149 183 + 1;
#X obj 214 184 + 1;
#X obj 343 185 + 1;
#X obj 411 187 + 1;
#X obj 492 190 + 1;
#X obj 250 428 *~ 0.1;
#X obj 250 493 dac~;
#X obj 146 159 * -0.059;
#X obj 212 160 * -0.04;
#X obj 339 161 * 0.035;
#X obj 408 163 * 0.063;
#X obj 489 166 * -0.106;
#X obj 77 3 hsl 128 15 110 440 0 0 empty empty empty -2 -8 0 10 -262144
-1 -1 8200 1;
#X obj 419 26 hsl 128 15 0 1 0 0 empty empty empty -2 -8 0 10 -262144
-1 -1 3800 1;
#X obj 273 86 * 0.9;
#X obj 371 53 t f f;
#X obj 441 119 *;
#X connect 0 0 10 0;
#X connect 1 0 10 0;
#X connect 2 0 10 0;
#X connect 3 0 10 0;
#X connect 4 0 10 0;
#X connect 5 0 10 0;
#X connect 8 0 10 0;
#X connect 10 0 29 0;
#X connect 11 0 15 0;
#X connect 11 0 38 0;
#X connect 12 0 39 0;
#X connect 13 0 14 0;
#X connect 14 0 17 1;
#X connect 15 0 17 0;
#X connect 15 0 18 0;
#X connect 15 0 19 0;
#X connect 15 0 20 0;
#X connect 15 0 21 0;
#X connect 15 0 22 0;
#X connect 15 0 23 0;
#X connect 16 0 15 0;
#X connect 16 1 13 0;
#X connect 16 1 31 0;
#X connect 16 1 32 0;
#X connect 16 1 33 0;
#X connect 16 1 34 0;
#X connect 16 1 35 0;
#X connect 17 0 5 0;
#X connect 18 0 4 0;
#X connect 19 0 1 0;
#X connect 20 0 0 0;
#X connect 21 0 3 0;
#X connect 22 0 2 0;
#X connect 23 0 8 0;
#X connect 24 0 18 1;
#X connect 25 0 19 1;
#X connect 26 0 21 1;
#X connect 27 0 22 1;
#X connect 28 0 23 1;
#X connect 29 0 30 0;
#X connect 29 0 30 1;
#X connect 31 0 24 0;
#X connect 32 0 25 0;
#X connect 33 0 26 0;
#X connect 34 0 27 0;
#X connect 35 0 28 0;
#X connect 36 0 15 0;
#X connect 36 0 38 0;
#X connect 37 0 39 0;
#X connect 38 0 10 1;
#X connect 39 0 40 0;
#X connect 39 1 40 1;
#X connect 40 0 16 0;
