#N canvas 673 50 678 716 10;
#X obj 222 26 inlet;
#X obj 351 4 inlet;
#X obj 65 165 * -0.107;
#X obj 68 189 + 1;
#X obj 202 54 f;
#X obj 347 100 t b f;
#X obj 52 216 * 1;
#X obj 131 207 * 1;
#X obj 200 210 * 1;
#X obj 275 211 * 1;
#X obj 336 211 + 1;
#X obj 404 213 + 1;
#X obj 480 214 + 1;
#X obj 149 183 + 1;
#X obj 214 184 + 1;
#X obj 343 185 + 1;
#X obj 411 187 + 1;
#X obj 492 190 + 1;
#X obj 250 428 *~ 0.1;
#X obj 250 493 dac~;
#X obj 146 159 * -0.059;
#X obj 212 160 * -0.04;
#X obj 339 161 * 0.035;
#X obj 408 163 * 0.063;
#X obj 489 166 * -0.106;
#X obj 104 6 hsl 128 15 110 440 0 0 empty empty empty -2 -8 0 10 -262144
-1 -1 2500 1;
#X obj 419 26 hsl 128 15 0 1 0 0 empty empty empty -2 -8 0 10 -262144
-1 -1 2200 1;
#X obj 371 53 t f f;
#X obj 441 119 *;
#X obj 255 366 hip~ 1;
#X obj 57 241 suposc~;
#X obj 129 231 suposc~;
#X obj 201 234 suposc~;
#X obj 273 236 suposc~;
#X obj 325 241 suposc~;
#X obj 405 239 suposc~;
#X obj 475 244 suposc~;
#X obj 273 86 * 2;
#X connect 0 0 4 0;
#X connect 0 0 37 0;
#X connect 1 0 27 0;
#X connect 2 0 3 0;
#X connect 3 0 6 1;
#X connect 4 0 6 0;
#X connect 4 0 7 0;
#X connect 4 0 8 0;
#X connect 4 0 9 0;
#X connect 4 0 10 0;
#X connect 4 0 11 0;
#X connect 4 0 12 0;
#X connect 5 0 4 0;
#X connect 5 1 2 0;
#X connect 5 1 20 0;
#X connect 5 1 21 0;
#X connect 5 1 22 0;
#X connect 5 1 23 0;
#X connect 5 1 24 0;
#X connect 6 0 30 0;
#X connect 7 0 31 0;
#X connect 8 0 32 0;
#X connect 9 0 33 0;
#X connect 10 0 34 0;
#X connect 11 0 35 0;
#X connect 12 0 36 0;
#X connect 13 0 7 1;
#X connect 14 0 8 1;
#X connect 15 0 10 1;
#X connect 16 0 11 1;
#X connect 17 0 12 1;
#X connect 18 0 19 0;
#X connect 18 0 19 1;
#X connect 20 0 13 0;
#X connect 21 0 14 0;
#X connect 22 0 15 0;
#X connect 23 0 16 0;
#X connect 24 0 17 0;
#X connect 25 0 4 0;
#X connect 25 0 37 0;
#X connect 26 0 27 0;
#X connect 27 0 28 0;
#X connect 27 1 28 1;
#X connect 28 0 5 0;
#X connect 29 0 18 0;
#X connect 30 0 29 0;
#X connect 31 0 29 0;
#X connect 32 0 29 0;
#X connect 33 0 29 0;
#X connect 34 0 29 0;
#X connect 35 0 29 0;
#X connect 36 0 29 0;
#X connect 37 0 29 1;
