#N canvas 0 50 779 300 10;
#X obj 214 82 inlet;
#X obj 233 185 outlet~;
#X obj 255 136 phasor~;
#X obj 327 162 expr~ if ($v1 > 0.5 \, -1 \, 1);
#X connect 0 0 2 0;
#X connect 2 0 3 0;
#X connect 3 0 1 0;
