#N canvas 486 61 717 509 10;
#X obj 334 245 fiddle~ 2048 3;
#N canvas 0 50 1366 725 makenote 0;
#X obj 357 240 unpack;
#X obj 347 279 nbx 5 14 -1e+037 1e+037 0 0 empty empty empty 0 -8 0
10 -262144 -1 -1 0 256;
#X obj 393 285 nbx 5 14 -1e+037 1e+037 0 0 empty empty empty 0 -8 0
10 -262144 -1 -1 0 256;
#X obj 337 375 int;
#X obj 344 397 change -1;
#X obj 345 330 + 0.5;
#X obj 345 431 nbx 5 14 -1e+037 1e+037 0 0 empty empty empty 0 -8 0
10 -262144 -1 -1 0 256;
#X obj 489 451 int;
#X obj 489 426 + 20;
#X obj 395 616 poly 1 1;
#X obj 426 544 f \$1;
#X msg 514 494 0;
#X obj 526 449 select 0;
#X obj 526 428 > 20;
#X obj 418 580 pack 0 0;
#X obj 403 655 pack 0 0 0;
#X obj 366 202 inlet;
#X obj 436 695 outlet;
#X connect 0 0 1 0;
#X connect 0 1 2 0;
#X connect 1 0 5 0;
#X connect 2 0 8 0;
#X connect 2 0 13 0;
#X connect 3 0 4 0;
#X connect 4 0 6 0;
#X connect 5 0 3 0;
#X connect 6 0 14 0;
#X connect 6 0 10 1;
#X connect 7 0 14 1;
#X connect 8 0 7 0;
#X connect 9 0 15 0;
#X connect 9 1 15 1;
#X connect 9 2 15 2;
#X connect 10 0 14 0;
#X connect 11 0 14 1;
#X connect 12 0 11 0;
#X connect 12 0 10 0;
#X connect 13 0 12 0;
#X connect 14 0 9 0;
#X connect 15 0 17 0;
#X connect 16 0 0 0;
#X restore 328 369 pd makenote;
#N canvas 0 50 1366 725 makenote 0;
#X obj 357 240 unpack;
#X obj 347 279 nbx 5 14 -1e+037 1e+037 0 0 empty empty empty 0 -8 0
10 -262144 -1 -1 0 256;
#X obj 393 285 nbx 5 14 -1e+037 1e+037 0 0 empty empty empty 0 -8 0
10 -262144 -1 -1 0 256;
#X obj 337 375 int;
#X obj 344 397 change -1;
#X obj 345 330 + 0.5;
#X obj 345 431 nbx 5 14 -1e+037 1e+037 0 0 empty empty empty 0 -8 0
10 -262144 -1 -1 0 256;
#X obj 489 451 int;
#X obj 489 426 + 20;
#X obj 395 616 poly 1 1;
#X obj 426 544 f \$1;
#X msg 514 494 0;
#X obj 526 449 select 0;
#X obj 526 428 > 20;
#X obj 418 580 pack 0 0;
#X obj 403 655 pack 0 0 0;
#X obj 366 202 inlet;
#X obj 436 695 outlet;
#X connect 0 0 1 0;
#X connect 0 1 2 0;
#X connect 1 0 5 0;
#X connect 2 0 8 0;
#X connect 2 0 13 0;
#X connect 3 0 4 0;
#X connect 4 0 6 0;
#X connect 5 0 3 0;
#X connect 6 0 14 0;
#X connect 6 0 10 1;
#X connect 7 0 14 1;
#X connect 8 0 7 0;
#X connect 9 0 15 0;
#X connect 9 1 15 1;
#X connect 9 2 15 2;
#X connect 10 0 14 0;
#X connect 11 0 14 1;
#X connect 12 0 11 0;
#X connect 12 0 10 0;
#X connect 13 0 12 0;
#X connect 14 0 9 0;
#X connect 15 0 17 0;
#X connect 16 0 0 0;
#X restore 451 395 pd makenote;
#N canvas 0 50 1366 725 makenote 0;
#X obj 357 240 unpack;
#X obj 347 279 nbx 5 14 -1e+037 1e+037 0 0 empty empty empty 0 -8 0
10 -262144 -1 -1 0 256;
#X obj 393 285 nbx 5 14 -1e+037 1e+037 0 0 empty empty empty 0 -8 0
10 -262144 -1 -1 0 256;
#X obj 337 375 int;
#X obj 344 397 change -1;
#X obj 345 330 + 0.5;
#X obj 345 431 nbx 5 14 -1e+037 1e+037 0 0 empty empty empty 0 -8 0
10 -262144 -1 -1 0 256;
#X obj 489 451 int;
#X obj 489 426 + 20;
#X obj 395 616 poly 1 1;
#X obj 426 544 f \$1;
#X msg 514 494 0;
#X obj 526 449 select 0;
#X obj 526 428 > 20;
#X obj 418 580 pack 0 0;
#X obj 403 655 pack 0 0 0;
#X obj 366 202 inlet;
#X obj 436 695 outlet;
#X connect 0 0 1 0;
#X connect 0 1 2 0;
#X connect 1 0 5 0;
#X connect 2 0 8 0;
#X connect 2 0 13 0;
#X connect 3 0 4 0;
#X connect 4 0 6 0;
#X connect 5 0 3 0;
#X connect 6 0 14 0;
#X connect 6 0 10 1;
#X connect 7 0 14 1;
#X connect 8 0 7 0;
#X connect 9 0 15 0;
#X connect 9 1 15 1;
#X connect 9 2 15 2;
#X connect 10 0 14 0;
#X connect 11 0 14 1;
#X connect 12 0 11 0;
#X connect 12 0 10 0;
#X connect 13 0 12 0;
#X connect 14 0 9 0;
#X connect 15 0 17 0;
#X connect 16 0 0 0;
#X restore 371 388 pd makenote;
#X obj 407 454 outlet;
#X obj 307 192 inlet~;
#X connect 0 2 1 0;
#X connect 0 3 3 0;
#X connect 0 4 2 0;
#X connect 1 0 4 0;
#X connect 2 0 4 0;
#X connect 3 0 4 0;
#X connect 5 0 0 0;
