#N canvas 444 50 835 716 10;
#X obj 386 228 unpack;
#X floatatom 385 251 0 0 0 0 - - -;
#X text 359 269 raw pitch;
#X text 350 283 and amplitude;
#X obj 294 275 int;
#X floatatom 294 297 5 0 0 0 - - -, f 5;
#X floatatom 294 228 5 0 0 0 - - -, f 5;
#X obj 431 323 int;
#X floatatom 431 252 5 0 0 0 - - -, f 5;
#X obj 431 298 + 20;
#X obj 337 488 poly 1 1;
#X obj 368 416 f \$1;
#X msg 456 366 0;
#X obj 468 321 select 0;
#X obj 468 300 > 20;
#X obj 293 252 + 0.5;
#X obj 360 452 pack 0 0;
#X obj 357 307 bng 15 250 50 0 empty empty empty 17 7 0 10 -262144
-1 -1;
#X obj 273 181 fiddle~ 2048 1;
#X obj 311 122 inlet~;
#X obj 360 569 outlet;
#X obj 346 527 pack 0 0;
#X obj 461 123 r threshold-\$1;
#X connect 0 0 1 0;
#X connect 0 1 8 0;
#X connect 4 0 5 0;
#X connect 5 0 11 1;
#X connect 5 0 16 0;
#X connect 6 0 15 0;
#X connect 7 0 16 1;
#X connect 8 0 9 0;
#X connect 8 0 14 0;
#X connect 9 0 7 0;
#X connect 10 1 21 0;
#X connect 10 2 21 1;
#X connect 11 0 16 0;
#X connect 12 0 16 1;
#X connect 13 0 12 0;
#X connect 13 0 11 0;
#X connect 14 0 13 0;
#X connect 15 0 4 0;
#X connect 16 0 10 0;
#X connect 18 0 6 0;
#X connect 18 1 17 0;
#X connect 18 2 0 0;
#X connect 19 0 18 0;
#X connect 21 0 20 0;
#X connect 22 0 14 1;
