#N canvas -8 -8 1360 725 10;
#X obj 304 186 r notesIn-\$1;
#X obj 304 491 s notesOut-\$1;
#X obj 23 9 r loaddefs-\$1;
#X msg 23 76 loaddefinitions \$1;
#X obj 181 9 r loadbang-\$1;
#X obj 181 77 print loading definiton for \$1;
#X obj 23 41 symbol;
#X obj 25 186 inlet~ inL-\$1;
#X obj 135 186 inlet~ inR-\$1;
#X obj 27 491 outlet~ outL-\$1;
#X obj 136 491 outlet~ outR-\$1;
#X obj 424 185 r auxIn-\$1;
#X obj 423 208 r expIn-\$1;
#X obj 423 233 r fsIn-\$1;
#X obj 663 339 r muchord_harm-\$1;
#X obj 685 262 r muchord_offset-\$1;
#X obj 651 463 r muchord_inv-\$1;
#X obj 340 361 zchord \$1;
#X obj 22 112 KontrolModule \$1 U-muchord;
#X obj 182 35 print loaded:muchord into \$1, f 35;
#X connect 0 0 17 0;
#X connect 2 0 6 0;
#X connect 2 0 5 0;
#X connect 3 0 18 0;
#X connect 4 0 19 0;
#X connect 6 0 3 0;
#X connect 7 0 9 0;
#X connect 8 0 10 0;
#X connect 17 0 1 0;
