#N canvas -8 -8 1366 725 10;
#X obj 562 348 nbx 5 14 -1e+037 1e+037 0 0 empty empty empty 0 -8 0
10 -262144 -1 -1 0 256;
#N canvas 0 50 450 250 (subpatch) 0;
#X array kick-\$1 5081 float 2;
#X coords 0 1 5081 -1 200 140 1 0 0;
#X restore 1082 498 graph;
#X obj 824 390 soundfiler;
#X obj 629 104 openpanel;
#X obj 629 88 bng 15 250 50 0 empty empty empty 17 7 0 10 -262144 -1
-1;
#X msg 603 130 read -resize \$1 kick, f 21;
#X obj 596 225 float;
#X obj 566 280 + 1;
#X obj 563 309 nbx 5 14 -1e+037 1e+037 0 0 empty empty empty 0 -8 0
10 -262144 -1 -1 0 256;
#N canvas 0 50 450 250 (subpatch) 0;
#X array hat-\$1 4273 float 2;
#X coords 0 1 4273 -1 200 140 1 0 0;
#X restore 1064 214 graph;
#N canvas 0 50 450 250 (subpatch) 0;
#X array perc-\$1 5372 float 2;
#X coords 0 1 5372 -1 200 140 1 0 0;
#X restore 1045 534 graph;
#X obj 800 103 openpanel;
#X obj 800 87 bng 15 250 50 0 empty empty empty 17 7 0 10 -262144 -1
-1;
#X msg 801 127 read -resize \$1 hat;
#X obj 966 97 openpanel;
#X obj 966 81 bng 15 250 50 0 empty empty empty 17 7 0 10 -262144 -1
-1;
#X msg 967 121 read -resize \$1 snare;
#N canvas 0 50 450 250 (subpatch) 0;
#X array arp_notes 3 float 3;
#A 0 10.3714 6.36429 1.02143;
#X coords 0 0 3 11 200 140 1 0 0;
#X restore 1088 14 graph;
#X obj 590 185 r sixteenths;
#X msg 76 222 symbol kick.txt;
#X obj 81 362 bng 15 250 50 0 empty empty empty 17 7 0 10 -262144 -1
-1;
#X obj 207 363 bng 15 250 50 0 empty empty empty 17 7 0 10 -262144
-1 -1;
#X obj 346 373 bng 15 250 50 0 empty empty empty 17 7 0 10 -262144
-1 -1;
#X msg 202 223 symbol snare.txt;
#X msg 341 233 symbol hat.txt;
#X obj 146 173 loadbang;
#X obj 209 303 route x;
#X obj 213 335 sel 1;
#X obj 85 333 sel 1;
#X obj 351 345 sel 1;
#X obj 76 301 route x;
#X obj 301 318 route x;
#X msg 52 104 symbol \$1/kick.txt;
#X msg 264 95 symbol \$1/snare.txt;
#X msg 421 101 symbol \$1/hat.txt;
#X obj 704 292 r reset;
#X msg 665 276 0;
#N canvas 0 50 450 250 (subpatch) 0;
#X array snare-\$1 4449 float 2;
#X coords 0 1 4449 -1 200 140 1 0 0;
#X restore 1060 354 graph;
#X obj 920 160 openpanel;
#X obj 920 144 bng 15 250 50 0 empty empty empty 17 7 0 10 -262144
-1 -1;
#X msg 926 244 read -resize \$1 perc;
#X obj 468 259 bng 15 250 50 0 empty empty empty 17 7 0 10 -262144
-1 -1;
#X obj 469 373 bng 15 250 50 0 empty empty empty 17 7 0 10 -262144
-1 -1;
#X obj 474 345 sel 1;
#X obj 424 318 route x;
#X obj 462 168 r style;
#X msg 452 207 symbol \$1/perc.txt;
#X obj 706 45 t b b b b;
#X msg 645 56;
#X msg 723 195 read -resize hat.wav hat;
#X msg 724 219 read -resize snare.wav snare;
#X msg 725 242 read -resize kick.wav kick;
#X msg 756 258 read -resize perc.wav perc;
#X obj 816 31 bng 15 250 50 0 empty empty empty 17 7 0 10 -262144 -1
-1;
#X obj 307 622 outlet~;
#X obj 62 65 r otto_style-\$1;
#X obj 257 36 r otto_style-\$1;
#X obj 430 37 r otto_style-\$1;
#X obj 75 279 seq_txt \$1;
#X obj 202 280 seq_txt \$1;
#X obj 340 290 seq_txt \$1;
#X obj 463 290 seq_txt \$1;
#X obj 554 453 s step-\$1;
#X obj 702 19 r loadbang-\$1;
#X floatatom 672 458 5 0 0 0 - - -, f 5;
#X obj 678 437 r otto_kit-\$1;
#X obj 489 473 nbx 5 14 -1e+037 1e+037 0 0 empty empty empty 0 -8 0
10 -262144 -1 -1 0 256;
#X msg 725 533 read -resize ./drums/\$1/snare.wav snare-\$2;
#X msg 725 567 read -resize ./drums/\$1/kick.wav kick-\$2;
#X msg 728 601 read -resize ./drums/\$1/perc.wav perc-\$2;
#X obj 87 419 tabplay~ kick-\$1;
#X obj 214 421 tabplay~ snare-\$1;
#X obj 329 401 tabplay~ hat-\$1;
#X obj 424 440 tabplay~ perc-\$1;
#X msg 684 497 read -resize ./drums/\$1/hat.wav hat-\$2;
#X obj 530 517 symbol \$1;
#X obj 510 496 t a b;
#X obj 493 594 pack 0 s;
#X obj 293 575 *~ 0.01;
#X obj 627 334 r otto_play-\$1;
#X obj 605 386 spigot 1;
#X obj 727 348 sel 1;
#X obj 699 371 tgl 15 1 empty empty empty 17 7 0 10 -262144 -1 -1 1
1;
#X text 727 371 freeze;
#X obj 580 418 spigot 1;
#X obj 738 323 r fsIn-\$1;
#X obj 140 523 sel 1;
#X obj 95 607 s aux-label-\$1;
#X msg 68 561 Stopped;
#X msg 133 571 Playing;
#X connect 0 0 80 0;
#X connect 3 0 5 0;
#X connect 4 0 3 0;
#X connect 5 0 2 0;
#X connect 6 0 7 0;
#X connect 7 0 8 0;
#X connect 8 0 0 0;
#X connect 8 0 6 1;
#X connect 11 0 13 0;
#X connect 12 0 11 0;
#X connect 13 0 2 0;
#X connect 14 0 16 0;
#X connect 15 0 14 0;
#X connect 16 0 2 0;
#X connect 18 0 6 0;
#X connect 19 0 58 0;
#X connect 20 0 70 0;
#X connect 21 0 71 0;
#X connect 22 0 72 0;
#X connect 23 0 59 0;
#X connect 24 0 60 0;
#X connect 25 0 19 0;
#X connect 25 0 23 0;
#X connect 25 0 24 0;
#X connect 26 1 27 0;
#X connect 27 0 21 0;
#X connect 28 0 20 0;
#X connect 29 0 22 0;
#X connect 30 1 28 0;
#X connect 31 1 29 0;
#X connect 32 0 58 0;
#X connect 33 0 59 0;
#X connect 34 0 60 0;
#X connect 35 0 36 0;
#X connect 36 0 6 1;
#X connect 38 0 40 0;
#X connect 39 0 38 0;
#X connect 40 0 2 0;
#X connect 41 0 73 0;
#X connect 42 0 73 0;
#X connect 43 0 42 0;
#X connect 44 1 43 0;
#X connect 45 0 46 0;
#X connect 46 0 61 0;
#X connect 47 0 49 0;
#X connect 47 1 50 0;
#X connect 47 2 51 0;
#X connect 47 3 52 0;
#X connect 49 0 2 0;
#X connect 50 0 2 0;
#X connect 51 0 2 0;
#X connect 52 0 2 0;
#X connect 53 0 47 0;
#X connect 55 0 32 0;
#X connect 56 0 33 0;
#X connect 57 0 34 0;
#X connect 58 0 30 0;
#X connect 59 0 26 0;
#X connect 60 0 31 0;
#X connect 61 0 44 0;
#X connect 63 0 47 0;
#X connect 64 0 66 0;
#X connect 65 0 64 0;
#X connect 66 0 76 0;
#X connect 67 0 2 0;
#X connect 68 0 2 0;
#X connect 69 0 2 0;
#X connect 70 0 78 0;
#X connect 71 0 78 0;
#X connect 72 0 78 0;
#X connect 73 0 78 0;
#X connect 74 0 2 0;
#X connect 75 0 77 1;
#X connect 76 0 77 0;
#X connect 76 1 75 0;
#X connect 77 0 74 0;
#X connect 77 0 67 0;
#X connect 77 0 68 0;
#X connect 77 0 69 0;
#X connect 78 0 54 0;
#X connect 79 0 80 1;
#X connect 80 0 84 0;
#X connect 81 0 82 0;
#X connect 82 0 84 1;
#X connect 82 0 86 0;
#X connect 84 0 62 0;
#X connect 85 0 81 0;
#X connect 86 0 89 0;
#X connect 86 1 88 0;
#X connect 88 0 87 0;
#X connect 89 0 87 0;
