#N canvas 13 67 1351 720 10;
#X obj 403 296 r notesIn-\$1;
#X obj 304 491 s notesOut-\$1;
#X obj 23 9 r loaddefs-\$1;
#X msg 23 76 loaddefinitions \$1;
#X obj 181 9 r loadbang-\$1;
#X obj 181 77 print loading definiton for \$1;
#X obj 23 41 symbol;
#X obj 25 186 inlet~ inL-\$1;
#X obj 135 186 inlet~ inR-\$1;
#X obj 27 491 outlet~ outL-\$1;
#X obj 136 491 outlet~ outR-\$1;
#X obj 424 185 r auxIn-\$1;
#X obj 423 208 r expIn-\$1;
#X obj 423 233 r fsIn-\$1;
#X obj 340 361 otto \$1;
#X obj 233 306 r otto_volume-\$1;
#X obj 204 421 *~ 1;
#X obj 383 412 spigot 0;
#X obj 432 360 r otto_midi_thru-\$1;
#X obj 22 112 KontrolModule \$1 U-ottorhythm;
#X obj 182 35 print loaded:ottorhythm into \$1, f 35;
#X obj 298 436 print otto_notes;
#X connect 0 0 17 0;
#X connect 2 0 6 0;
#X connect 2 0 5 0;
#X connect 3 0 19 0;
#X connect 4 0 20 0;
#X connect 6 0 3 0;
#X connect 7 0 9 0;
#X connect 8 0 10 0;
#X connect 14 0 16 0;
#X connect 14 1 1 0;
#X connect 15 0 16 1;
#X connect 16 0 10 0;
#X connect 16 0 9 0;
#X connect 17 0 1 0;
#X connect 18 0 17 1;
