#N canvas 8 74 1345 720 10;
#X obj 165 270 unpack 0 0;
#X obj 162 333 pack 0 0 0;
#X obj 162 298 poly 8 1, f 10;
#N canvas 9 50 588 574 format_for_array 0;
#X obj 111 44 inlet;
#X obj 102 128 f;
#X obj 144 151 sel 0;
#X msg 121 188 0;
#X obj 167 181 t b b;
#X obj 137 126 f;
#X obj 79 268 t f b;
#X obj 75 336 pack 0 0;
#X obj 85 75 unpack 0 0 0;
#X obj 41 132 t b f;
#X obj 117 304 f;
#X obj 78 389 outlet;
#X obj 133 274 - 1;
#X text 169 280 array index starts at 0 \, poly index starts at 1;
#X text 223 150 if the velocity is > 0 \, outputs note number. If =
0 \, it outputs 0 for note number;
#X connect 0 0 8 0;
#X connect 1 0 6 0;
#X connect 2 0 3 0;
#X connect 2 1 4 0;
#X connect 3 0 6 0;
#X connect 4 0 1 0;
#X connect 5 0 2 0;
#X connect 6 0 7 0;
#X connect 6 1 10 0;
#X connect 7 0 11 0;
#X connect 8 0 9 0;
#X connect 8 1 1 1;
#X connect 8 2 5 1;
#X connect 9 0 5 0;
#X connect 9 1 12 0;
#X connect 10 0 7 1;
#X connect 12 0 10 1;
#X restore 162 362 pd format_for_array;
#X obj 189 175 sel 1;
#N canvas 337 162 886 691 latch 1;
#X obj 43 371 latch-notes;
#X obj 263 200 bng 15 250 50 0 empty empty empty 17 7 0 10 -262144
-1 -1;
#X obj 263 232 tgl 15 0 empty empty empty 17 7 0 10 -262144 -1 -1 1
1;
#X obj 171 374 spigot 1;
#X obj 43 298 spigot 0;
#X obj 208 268 == 0;
#X obj 124 298 bng 15 250 50 0 empty empty empty 17 7 0 10 -262144
-1 -1;
#X obj 269 172 t b b, f 7;
#X obj 262 106 inlet;
#X obj 43 626 outlet;
#X obj 43 106 inlet;
#X text 389 95 bang enable / disables latch;
#X text 44 53 incoming notes get sent through latch if enabled \, or
directly to output if disabled;
#X obj 611 123 inlet;
#X obj 325 437 s screenLine5;
#X msg 246 380 Latch on;
#X msg 383 363 Latch off;
#X obj 322 265 sel 1;
#X obj 596 164 nbx 5 14 -1e+37 1e+37 0 0 empty empty empty 0 -8 0 10
-262144 -1 -1 1 256;
#X obj 629 259 == 0;
#X obj 627 321 nbx 5 14 -1e+37 1e+37 0 0 empty empty empty 0 -8 0 10
-262144 -1 -1 0 256;
#X obj 289 144 spigot 1;
#X obj 436 139 spigot 0;
#X connect 0 0 9 0;
#X connect 1 0 2 0;
#X connect 2 0 5 0;
#X connect 2 0 4 1;
#X connect 2 0 17 0;
#X connect 3 0 9 0;
#X connect 4 0 0 0;
#X connect 5 0 3 1;
#X connect 6 0 0 1;
#X connect 7 0 1 0;
#X connect 7 1 6 0;
#X connect 8 0 21 0;
#X connect 8 0 22 0;
#X connect 10 0 4 0;
#X connect 10 0 3 0;
#X connect 13 0 2 0;
#X connect 13 0 18 0;
#X connect 13 0 22 1;
#X connect 15 0 14 0;
#X connect 16 0 14 0;
#X connect 17 0 15 0;
#X connect 17 1 16 0;
#X connect 18 0 19 0;
#X connect 19 0 20 0;
#X connect 20 0 21 1;
#X connect 21 0 7 0;
#X connect 22 0 6 0;
#X restore 162 239 pd latch;
#N canvas 8 60 1351 720 bass 0;
#X obj 491 88 nbx 5 14 -1e+37 1e+37 0 0 empty empty empty 0 -8 0 10
-262144 -1 -1 3 256;
#X obj 319 92 nbx 5 14 -1e+37 1e+37 0 0 empty empty empty 0 -8 0 10
-262144 -1 -1 0 256;
#X obj 476 241 nbx 5 14 -1e+37 1e+37 0 0 empty empty empty 0 -8 0 10
-262144 -1 -1 0 256;
#X obj 481 206 mod;
#X obj 345 157 /;
#X obj 329 208 nbx 5 14 -1e+37 1e+37 0 0 empty empty empty 0 -8 0 10
-262144 -1 -1 0 256;
#X obj 426 145 expr floor($f1);
#X obj 353 289 * 12;
#X obj 383 116 t f f;
#X obj 391 324 +;
#X obj 334 231 min 1;
#X obj 333 256 max -1;
#X obj 169 120 route x;
#X msg 184 55 symbol bass.txt;
#X obj 146 30 loadbang;
#X msg 31 94 symbol \$1/bass.txt;
#X obj 200 184 s newbar;
#X obj 241 144 sel 0;
#X obj 830 252 nbx 5 14 -1e+37 1e+37 0 0 empty empty empty 0 -8 0 10
-262144 -1 -1 0 256;
#X obj 696 238 route x;
#X msg 687 134 symbol chord.txt;
#X obj 797 344 bng 15 250 50 0 empty empty empty 17 7 0 10 -262144
-1 -1;
#X obj 713 443 until 0;
#X obj 729 402 float;
#X obj 782 370 t b b;
#X msg 866 480 0;
#X obj 707 482 float;
#X obj 729 504 + 1;
#X obj 784 488 nbx 5 14 -1e+37 1e+37 0 0 empty empty empty 0 -8 0 10
-262144 -1 -1 3 256;
#X msg 814 86 symbol \$1/chord.txt;
#X obj 703 102 loadbang;
#X obj 813 154 nbx 5 14 -1e+37 1e+37 0 0 empty empty empty 0 -8 0 10
-262144 -1 -1 1 256;
#X obj 825 304 t b f;
#X obj 258 230 int;
#X obj 284 205 + 50;
#X obj 246 256 - 50;
#X obj 590 39 r \$0-num-down;
#X obj 827 34 r otto_style-\$1;
#X obj 691 529 tabread \$0-notes-increasing;
#X obj 532 674 outlet;
#X obj 368 554 makenote 100 500;
#X obj 398 600 pack 0 0;
#X obj 41 57 r otto_style-\$1;
#X obj 171 82 seq_txt \$1;
#X obj 698 200 seq_txt \$1;
#X obj 902 382 * 12;
#X obj 706 553 + 12;
#X obj 407 267 tabread \$0-notes-increasing;
#X obj 399 358 - 12;
#X obj 832 562 + 0;
#X obj 393 472 spigot 1;
#X obj 452 426 r otto_bass_on-\$1;
#X obj 438 499 r otto_bass_vel-\$1;
#X obj 470 524 r otto_bass_len-\$1;
#X obj 443 381 r otto_bass_oct-\$1;
#X obj 428 409 * 12;
#X obj 392 441 + 0;
#X obj 918 612 makenote 100 500;
#X obj 948 658 pack 0 0;
#X obj 905 581 spigot 1;
#X obj 940 518 * 12;
#X obj 904 560 + 0;
#X obj 955 490 r otto_chrd_oct-\$1;
#X obj 964 535 r otto_chrd_on-\$1;
#X obj 987 570 r otto_chrd_vel-\$1;
#X obj 1033 592 r otto_chrd_len-\$1;
#X obj 323 501 bng 15 250 50 0 empty empty empty 17 7 0 10 -262144
-1 -1;
#X obj 648 316 > 0;
#X obj 363 515 spigot 0;
#X obj 656 357 nbx 5 14 -1e+37 1e+37 0 0 empty empty empty 0 -8 0 10
-262144 -1 -1 1 256;
#X obj 508 335 nbx 5 14 -1e+37 1e+37 0 0 empty empty empty 0 -8 0 10
-262144 -1 -1 69 256;
#X connect 0 0 3 1;
#X connect 0 0 4 1;
#X connect 1 0 8 0;
#X connect 2 0 47 0;
#X connect 3 0 2 0;
#X connect 4 0 6 0;
#X connect 4 0 34 0;
#X connect 5 0 10 0;
#X connect 7 0 9 1;
#X connect 8 0 3 0;
#X connect 8 1 4 0;
#X connect 9 0 48 0;
#X connect 10 0 11 0;
#X connect 11 0 7 0;
#X connect 12 1 1 0;
#X connect 13 0 43 0;
#X connect 14 0 13 0;
#X connect 15 0 43 0;
#X connect 17 0 16 0;
#X connect 18 0 32 0;
#X connect 19 1 18 0;
#X connect 20 0 44 0;
#X connect 21 0 24 0;
#X connect 22 0 26 0;
#X connect 23 0 22 0;
#X connect 24 0 23 0;
#X connect 24 1 25 0;
#X connect 25 0 26 1;
#X connect 26 0 27 0;
#X connect 26 0 38 0;
#X connect 27 0 26 1;
#X connect 27 0 28 0;
#X connect 29 0 44 0;
#X connect 30 0 20 0;
#X connect 32 0 21 0;
#X connect 32 1 45 0;
#X connect 33 0 35 0;
#X connect 34 0 33 0;
#X connect 35 0 5 0;
#X connect 36 0 0 0;
#X connect 36 0 23 1;
#X connect 36 0 67 0;
#X connect 37 0 29 0;
#X connect 38 0 46 0;
#X connect 40 0 41 0;
#X connect 40 1 41 1;
#X connect 41 0 39 0;
#X connect 42 0 15 0;
#X connect 43 0 12 0;
#X connect 43 1 17 0;
#X connect 44 0 19 0;
#X connect 44 1 31 0;
#X connect 45 0 46 1;
#X connect 46 0 49 0;
#X connect 47 0 9 0;
#X connect 47 0 70 0;
#X connect 48 0 56 0;
#X connect 49 0 61 0;
#X connect 50 0 68 0;
#X connect 51 0 50 1;
#X connect 52 0 40 1;
#X connect 53 0 40 2;
#X connect 54 0 55 0;
#X connect 55 0 56 1;
#X connect 56 0 50 0;
#X connect 57 0 58 0;
#X connect 57 1 58 1;
#X connect 58 0 39 0;
#X connect 59 0 57 0;
#X connect 60 0 61 1;
#X connect 61 0 59 0;
#X connect 62 0 60 0;
#X connect 63 0 59 1;
#X connect 64 0 57 1;
#X connect 65 0 57 2;
#X connect 67 0 69 0;
#X connect 68 0 40 0;
#X connect 69 0 68 1;
#X restore 592 146 pd bass;
#X obj 110 114 r notesIn-\$1;
#X obj 195 53 r auxIn-\$1;
#X obj 78 497 unpack, f 54;
#X obj 78 526 t b b b b f, f 54;
#X obj 78 557 s \$0-others;
#X obj 171 557 s \$0-reorder;
#X obj 265 557 s \$0-copy;
#X obj 359 556 s \$0-countem;
#X obj 453 556 tabwrite \$0-notes-from-poly;
#N canvas 155 81 826 699 array-sort 0;
#X obj 263 111 until;
#X obj 263 153 f;
#X obj 296 154 + 1, f 4;
#X msg 321 91 0, f 2;
#X obj 312 267 f;
#X obj 264 232 t f b;
#X obj 262 182 t f f;
#X obj 249 452 f;
#X obj 306 399 sel 1;
#X obj 214 485 f;
#X obj 173 537 f;
#X obj 213 553 t b b;
#X obj 333 550 t b f;
#X obj 250 580 f;
#X obj 343 -90 until;
#X obj 344 -46 f;
#X obj 376 -47 + 1, f 4;
#X msg 401 -110 0, f 2;
#X obj 345 -139 t b b;
#X obj 329 -11 t b f;
#X obj 252 48 t b b b b;
#X msg 324 575 0, f 2;
#X msg 357 89 0;
#X obj 217 333 expr if ($f1 > $f2 \, $f1 \, $f2) \; if ($f1 > $f2 \,
1 \, 0);
#X msg 344 -115 8, f 2;
#X msg 263 83 8, f 2;
#X text 419 137 sort array a into b. a gets clobbered in the process
probably a much better way to do this ...;
#X obj 345 -174 r \$0-reorder;
#X obj 264 210 tabread \$0-notes-squashed;
#X obj 324 611 tabwrite \$0-notes-squashed;
#X obj 139 648 tabwrite \$0-notes-decreasing;
#X obj 348 -155 delay 10;
#X obj 595 -25 delay 10;
#X obj 579 65 outlet;
#X connect 0 0 1 0;
#X connect 1 0 2 0;
#X connect 1 0 6 0;
#X connect 2 0 1 1;
#X connect 3 0 1 1;
#X connect 4 0 23 1;
#X connect 5 0 23 0;
#X connect 5 1 4 0;
#X connect 6 0 28 0;
#X connect 6 1 7 1;
#X connect 7 0 9 1;
#X connect 8 0 7 0;
#X connect 9 0 11 0;
#X connect 9 0 12 0;
#X connect 10 0 30 0;
#X connect 11 0 10 0;
#X connect 11 1 13 0;
#X connect 12 0 21 0;
#X connect 12 1 29 1;
#X connect 13 0 30 1;
#X connect 14 0 15 0;
#X connect 15 0 16 0;
#X connect 15 0 19 0;
#X connect 16 0 15 1;
#X connect 17 0 15 1;
#X connect 18 0 24 0;
#X connect 18 1 17 0;
#X connect 19 0 20 0;
#X connect 19 1 13 1;
#X connect 20 0 9 0;
#X connect 20 1 25 0;
#X connect 20 2 3 0;
#X connect 20 3 22 0;
#X connect 21 0 29 0;
#X connect 22 0 4 1;
#X connect 23 0 4 1;
#X connect 23 0 10 1;
#X connect 23 1 8 0;
#X connect 24 0 14 0;
#X connect 25 0 0 0;
#X connect 27 0 31 0;
#X connect 28 0 5 0;
#X connect 31 0 18 0;
#X connect 31 0 32 0;
#X connect 32 0 33 0;
#X restore 767 311 pd array-sort;
#X text 1127 148 array1 is raw data from poly (notes with 0 velocity
are given 0 pitch);
#X text 1082 312 here are the notes sorted...;
#X floatatom 755 98 5 0 0 0 - - -, f 5;
#N canvas 173 60 726 720 increasing 0;
#X obj 156 260 until;
#X obj 157 304 f;
#X obj 189 303 + 1, f 4;
#X msg 214 240 0, f 2;
#X obj 155 236 f 0;
#X obj 156 357 - 0;
#X obj 157 408 abs;
#X obj 157 326 t f f;
#X obj 266 471 f;
#X obj 156 469 t f b;
#X obj 156 379 + 1;
#X obj 416 331 until;
#X obj 416 373 f;
#X obj 449 374 + 1, f 4;
#X msg 474 311 0, f 2;
#X obj 416 276 t b b;
#X obj 424 398 t b f;
#X msg 415 423 0, f 2;
#X msg 416 303 8, f 2;
#X obj 155 197 t b b b;
#X obj 153 67 inlet;
#X obj 321 197 r \$0-num-down;
#X obj 156 437 tabread \$0-notes-decreasing;
#X obj 152 508 tabwrite \$0-notes-increasing;
#X obj 413 448 tabwrite \$0-notes-increasing;
#X connect 0 0 1 0;
#X connect 1 0 2 0;
#X connect 1 0 7 0;
#X connect 2 0 1 1;
#X connect 3 0 1 1;
#X connect 4 0 0 0;
#X connect 5 0 10 0;
#X connect 6 0 22 0;
#X connect 7 0 5 0;
#X connect 7 1 8 1;
#X connect 8 0 23 1;
#X connect 9 0 23 0;
#X connect 9 1 8 0;
#X connect 10 0 6 0;
#X connect 11 0 12 0;
#X connect 12 0 13 0;
#X connect 12 0 16 0;
#X connect 13 0 12 1;
#X connect 14 0 12 1;
#X connect 15 0 18 0;
#X connect 15 1 14 0;
#X connect 16 0 17 0;
#X connect 16 1 24 1;
#X connect 17 0 24 0;
#X connect 18 0 11 0;
#X connect 19 0 4 0;
#X connect 19 1 3 0;
#X connect 19 2 15 0;
#X connect 20 0 19 0;
#X connect 21 0 4 1;
#X connect 21 0 5 1;
#X connect 22 0 9 0;
#X restore 774 478 pd increasing;
#N canvas 18 67 1000 647 array-copy 0;
#X obj 228 194 until;
#X obj 228 236 f;
#X obj 261 237 + 1, f 4;
#X msg 286 174 0, f 2;
#X obj 426 272 until;
#X obj 426 314 f;
#X obj 459 315 + 1, f 4;
#X msg 484 252 0, f 2;
#X obj 426 217 t b b;
#X obj 426 339 t b f;
#X msg 426 364 0, f 2;
#X obj 228 121 t b b b;
#X msg 228 166 8, f 2;
#X msg 426 244 8, f 2;
#X text 324 97 this removes 0 elements (or actually just moves the
following elements over 1 place);
#X text 528 296 first zero out the destination array;
#X obj 228 258 t f f;
#X obj 228 297 tabread \$0-notes-from-poly;
#X obj 426 385 tabwrite \$0-notes-squashed;
#X obj 228 410 tabwrite \$0-notes-squashed;
#X obj 228 97 b;
#X obj 228 75 r \$0-copy;
#X connect 0 0 1 0;
#X connect 1 0 2 0;
#X connect 1 0 16 0;
#X connect 2 0 1 1;
#X connect 3 0 1 1;
#X connect 4 0 5 0;
#X connect 5 0 6 0;
#X connect 5 0 9 0;
#X connect 6 0 5 1;
#X connect 7 0 5 1;
#X connect 8 0 13 0;
#X connect 8 1 7 0;
#X connect 9 0 10 0;
#X connect 9 1 18 1;
#X connect 10 0 18 0;
#X connect 11 0 12 0;
#X connect 11 1 3 0;
#X connect 11 2 8 0;
#X connect 12 0 0 0;
#X connect 13 0 4 0;
#X connect 16 0 17 0;
#X connect 16 1 19 1;
#X connect 17 0 19 0;
#X connect 20 0 11 0;
#X connect 21 0 20 0;
#X restore 764 225 pd array-copy;
#X text 1095 406 then increasing;
#X text 1112 222 array squash pulls out 0 notes. this array gets clobbered
by the sorting function so it always looks blank;
#N canvas 645 243 533 527 countnotes 0;
#X obj 104 289 > 0;
#X obj 104 316 sel 1;
#X obj 158 352 + 1, f 4;
#X obj 110 353 f 0;
#X obj 141 130 until;
#X obj 142 174 f;
#X obj 174 173 + 1, f 4;
#X msg 319 198 0, f 2;
#X msg 142 105 8, f 2;
#X obj 89 395 f 0;
#X obj 89 458 outlet;
#X obj 83 200 t f f;
#X obj 36 244 sel 7;
#X obj 143 81 t b b;
#X obj 143 35 r \$0-countem;
#X obj 106 234 tabread \$0-notes-from-poly;
#X connect 0 0 1 0;
#X connect 1 0 3 0;
#X connect 2 0 3 1;
#X connect 2 0 9 1;
#X connect 3 0 2 0;
#X connect 4 0 5 0;
#X connect 5 0 6 0;
#X connect 5 0 11 0;
#X connect 6 0 5 1;
#X connect 7 0 5 1;
#X connect 7 0 3 1;
#X connect 7 0 9 1;
#X connect 8 0 4 0;
#X connect 9 0 10 0;
#X connect 11 0 12 0;
#X connect 11 1 15 0;
#X connect 12 0 9 0;
#X connect 13 0 8 0;
#X connect 13 1 7 0;
#X connect 14 0 13 0;
#X connect 15 0 0 0;
#X restore 755 72 pd countnotes;
#X obj 755 124 s \$0-num-down;
#X obj 767 377 r \$0-others;
#X obj 890 161 table \$0-notes-from-poly 8;
#X obj 894 225 table \$0-notes-squashed 8;
#X obj 879 312 table \$0-notes-decreasing 8;
#X obj 896 407 table \$0-notes-increasing 8;
#X obj 513 286 drums \$1;
#X obj 585 229 r otto_style-\$1;
#X obj 505 427 outlet~;
#X obj 566 421 outlet;
#X text 319 177 todo: fix the latch param;
#X obj 298 149 r otto_hold-\$1;
#X obj 705 527 bng 15 250 50 0 empty empty empty 17 7 0 10 -262144
-1 -1;
#X obj 782 421 bng 15 250 50 0 empty empty empty 17 7 0 10 -262144
-1 -1;
#X connect 0 0 2 0;
#X connect 0 1 2 1;
#X connect 1 0 3 0;
#X connect 2 0 1 0;
#X connect 2 1 1 1;
#X connect 2 2 1 2;
#X connect 3 0 9 0;
#X connect 4 0 5 1;
#X connect 5 0 0 0;
#X connect 6 0 34 0;
#X connect 7 0 5 0;
#X connect 8 0 4 0;
#X connect 9 0 10 0;
#X connect 9 1 15 1;
#X connect 10 0 11 0;
#X connect 10 1 12 0;
#X connect 10 2 13 0;
#X connect 10 3 14 0;
#X connect 10 4 15 0;
#X connect 16 0 38 0;
#X connect 19 0 25 0;
#X connect 24 0 19 0;
#X connect 26 0 37 0;
#X connect 31 0 33 0;
#X connect 36 0 5 2;
#X connect 38 0 20 0;
