#N canvas 0 50 1360 725 10;
#X obj 204 94 t b b b b b;
#X msg 418 188 0;
#X msg 268 196 read /root/version;
#X msg 207 194 rewind;
#X obj 238 293 textfile;
#X obj 197 351 f;
#X obj 167 55 loadbang;
#X obj 245 383 >= 2;
#X obj 208 536 outlet;
#X obj 138 535 outlet;
#X obj 102 486 spigot 1;
#X obj 205 487 spigot 0;
#X obj 200 380 < 2;
#X obj 81 132 inlet;
#X connect 0 0 5 0;
#X connect 0 1 4 0;
#X connect 0 2 3 0;
#X connect 0 3 2 0;
#X connect 0 4 1 0;
#X connect 1 0 5 1;
#X connect 2 0 4 0;
#X connect 3 0 4 0;
#X connect 4 0 5 1;
#X connect 5 0 7 0;
#X connect 5 0 12 0;
#X connect 6 0 0 0;
#X connect 7 0 10 1;
#X connect 10 0 9 0;
#X connect 11 0 8 0;
#X connect 12 0 11 1;
#X connect 13 0 10 0;
#X connect 13 0 11 0;
