#N canvas -8 -8 1360 725 10;
#X obj 533 96 tgl 15 0 empty empty empty 17 7 0 10 -262144 -1 -1 0
1;
#X floatatom 607 153 5 0 0 0 - - -, f 5;
#X obj 535 171 f 0;
#X obj 535 124 sel 1;
#X msg 505 247 1;
#X obj 386 16 bng 15 250 50 0 empty empty empty 17 7 0 10 -262144 -1
-1;
#X obj 368 84 nbx 5 14 -1e+037 1e+037 0 0 empty empty empty 0 -8 0
10 -262144 -1 -1 0 256;
#X obj 360 58 random 9999;
#X obj 52 133 bng 15 250 50 0 empty empty empty 17 7 0 10 -262144 -1
-1;
#X obj 589 606 writesf~;
#X msg 842 353 1;
#X msg 802 299 stop;
#X msg 500 478 start;
#X msg 574 466 stop;
#X obj 719 212 sel 0 1 2;
#X msg 699 262 2;
#X msg 740 252 0;
#X obj 786 336 bng 15 250 50 0 empty empty empty 17 7 0 10 -262144
-1 -1;
#X obj 485 42 inlet;
#X obj 470 530 inlet~;
#X msg 745 358 Recording;
#X msg 497 327 Ready;
#X msg 764 316 Idle;
#X obj 592 398 outlet;
#X obj 113 310 folder_list;
#X obj 190 391 + 1;
#X obj 177 352 f 0;
#X msg 249 338 0;
#X obj 174 416 nbx 5 14 -1e+037 1e+037 0 0 empty empty empty 0 -8 0
10 -262144 -1 -1 0 256;
#X msg 147 156 5607;
#X obj 124 399 f 0;
#X obj 138 333 bng 15 250 50 0 empty empty empty 17 7 0 10 -262144
-1 -1;
#X obj 139 452 sel 0;
#X obj 139 475 bng 15 250 50 0 empty empty empty 17 7 0 10 -262144
-1 -1;
#X obj 375 626 outlet;
#X obj 172 477 bng 15 250 50 0 empty empty empty 17 7 0 10 -262144
-1 -1;
#X text 61 478 used to check if file already exists!;
#X obj 373 147 symbol \$1;
#X obj 374 173 list;
#X obj 373 121 t b f;
#X obj 797 45 nbx 5 14 -1e+037 1e+037 0 0 empty empty empty 0 -8 0
10 -262144 -1 -1 0 256;
#X obj 845 458 print;
#X msg 132 274 symbol ../../Samples/\$1;
#X obj 234 216 t a a;
#X obj 138 198 t b a b;
#X msg 375 196 symbol \$1_\$2.wav;
#X obj 384 310 list;
#X obj 422 450 list;
#X msg 688 521 open ../../Samples/\$1;
#X obj 613 49 inlet;
#X obj 688 103 tgl 15 0 empty empty empty 17 7 0 10 -262144 -1 -1 0
1;
#X obj 690 178 f 0;
#X obj 690 131 sel 1;
#X obj 834 323 delay 20000;
#X obj 529 214 sel 0 1 2;
#X obj 632 448 os_switch;
#X msg 629 496 open /tmp/media/samples/\$1;
#X obj 104 225 os_switch;
#X msg 86 252 symbol /tmp/media/samples/\$1;
#X connect 0 0 3 0;
#X connect 1 0 2 1;
#X connect 1 0 51 1;
#X connect 2 0 54 0;
#X connect 3 0 2 0;
#X connect 4 0 1 0;
#X connect 4 0 21 0;
#X connect 5 0 7 0;
#X connect 6 0 39 0;
#X connect 7 0 6 0;
#X connect 8 0 5 0;
#X connect 10 0 3 0;
#X connect 11 0 53 0;
#X connect 12 0 9 0;
#X connect 13 0 9 0;
#X connect 14 1 15 0;
#X connect 14 2 16 0;
#X connect 15 0 1 0;
#X connect 15 0 20 0;
#X connect 15 0 12 0;
#X connect 16 0 1 0;
#X connect 16 0 22 0;
#X connect 16 0 13 0;
#X connect 16 0 11 0;
#X connect 17 0 53 0;
#X connect 18 0 0 0;
#X connect 19 0 9 0;
#X connect 20 0 17 0;
#X connect 20 0 23 0;
#X connect 21 0 5 0;
#X connect 21 0 23 0;
#X connect 22 0 23 0;
#X connect 24 0 31 0;
#X connect 25 0 26 1;
#X connect 25 0 28 0;
#X connect 26 0 25 0;
#X connect 27 0 26 1;
#X connect 27 0 30 1;
#X connect 28 0 30 1;
#X connect 29 0 44 0;
#X connect 30 0 32 0;
#X connect 31 0 26 0;
#X connect 32 0 33 0;
#X connect 32 1 35 0;
#X connect 33 0 47 0;
#X connect 35 0 7 0;
#X connect 37 0 38 0;
#X connect 38 0 45 0;
#X connect 39 0 37 0;
#X connect 39 1 38 1;
#X connect 42 0 24 0;
#X connect 43 0 44 0;
#X connect 43 1 47 1;
#X connect 44 0 30 0;
#X connect 44 1 57 0;
#X connect 44 2 27 0;
#X connect 45 0 43 0;
#X connect 47 0 34 0;
#X connect 47 0 55 0;
#X connect 48 0 9 0;
#X connect 49 0 50 0;
#X connect 50 0 52 0;
#X connect 51 0 14 0;
#X connect 52 0 51 0;
#X connect 53 0 10 0;
#X connect 54 0 4 0;
#X connect 54 1 15 0;
#X connect 54 2 16 0;
#X connect 55 0 56 0;
#X connect 55 1 48 0;
#X connect 56 0 9 0;
#X connect 57 0 58 0;
#X connect 57 1 42 0;
#X connect 58 0 24 0;
