#N canvas 194 227 1540 726 10;
#X obj 304 186 r notesIn-\$1;
#X obj 304 491 s notesOut-\$1;
#X obj 23 9 r loaddefs-\$1;
#X msg 23 76 loaddefinitions \$1;
#X obj 181 9 r loadbang-\$1;
#X obj 181 76 print loading definiton for \$1;
#X obj 23 41 symbol;
#X obj 25 186 inlet~ inL-\$1;
#X obj 135 186 inlet~ inR-\$1;
#X obj 27 491 outlet~ outL-\$1;
#X obj 136 491 outlet~ outR-\$1;
#X obj 424 185 r auxIn-\$1;
#X obj 423 208 r expIn-\$1;
#X obj 423 233 r fsIn-\$1;
#X obj 516 45 int 0;
#X obj 516 76 s aux-led-\$1;
#X obj 628 169 s aux-label-\$1;
#X msg 628 137 Audio/Notes passthru;
#X obj 181 45 print loaded:roganelle into \$1, f 35;
#X obj 23 112 KontrolModule \$1 S-roganelle;
#X obj 32 311 +~;
#X obj 137 317 +~;
#X obj 838 345 pack f f f;
#X obj 845 263 unpack 0 0;
#X obj 845 315 poly 5 1;
#X obj 838 370 route 1 2 3 4 5;
#X obj 882 471 *~ 1;
#X obj 701 381 string \$1;
#X obj 779 400 string \$1;
#X obj 861 413 string \$1;
#X obj 968 409 string \$1;
#X obj 1117 392 string \$1;
#X obj 877 572 bob~, f 21;
#X obj 1020 525 line~;
#X obj 1020 500 pack 0 50;
#X obj 1166 570 pack 0 50;
#X obj 1166 597 line~;
#X obj 877 594 hip~ 5;
#X obj 1020 450 / 100;
#X obj 1131 482 r ro_cutoff-\$1;
#X obj 1020 322 r ro_resonance-\$1;
#X obj 1020 475 * 4;
#X connect 0 0 1 0;
#X connect 0 0 23 0;
#X connect 2 0 6 0;
#X connect 2 0 5 0;
#X connect 3 0 19 0;
#X connect 4 0 14 0;
#X connect 4 0 17 0;
#X connect 4 0 18 0;
#X connect 6 0 3 0;
#X connect 7 0 20 0;
#X connect 8 0 21 0;
#X connect 14 0 15 0;
#X connect 17 0 16 0;
#X connect 20 0 9 0;
#X connect 21 0 10 0;
#X connect 22 0 25 0;
#X connect 23 0 24 0;
#X connect 23 1 24 1;
#X connect 24 0 22 0;
#X connect 24 1 22 1;
#X connect 24 2 22 2;
#X connect 25 0 27 0;
#X connect 25 1 28 0;
#X connect 25 2 29 0;
#X connect 25 3 30 0;
#X connect 25 4 31 0;
#X connect 26 0 32 0;
#X connect 27 0 26 0;
#X connect 28 0 26 0;
#X connect 29 0 26 0;
#X connect 30 0 26 0;
#X connect 31 0 26 0;
#X connect 32 0 37 0;
#X connect 33 0 32 2;
#X connect 34 0 33 0;
#X connect 35 0 36 0;
#X connect 36 0 32 1;
#X connect 37 0 21 1;
#X connect 37 0 20 1;
#X connect 38 0 41 0;
#X connect 39 0 35 0;
#X connect 40 0 38 0;
#X connect 41 0 34 0;
