#N canvas 405 114 1208 831 10;
#X obj 350 24 inlet;
#X obj 350 59 unpack f f;
#X obj 561 179 mtof;
#X obj 368 517 outlet~;
#X obj 558 260 sig~;
#X obj 567 336 blsaw;
#X obj 914 161 sel 0;
#X obj 941 338 vline~;
#X obj 1040 244 bng 15 250 50 0 empty empty empty 17 7 0 10 -262144
-1 -1;
#X obj 84 382 blsaw;
#X obj 904 384 *~;
#X obj 1040 302 pack 1 f;
#X obj 907 278 pack 0 f;
#X obj 84 350 +~;
#X obj 37 284 samphold~;
#X obj 177 145 - 12;
#X obj 179 191 mtof;
#X obj 178 224 sig~;
#X obj 271 376 blsaw;
#X obj 269 342 +~;
#X obj 222 276 samphold~;
#X obj 364 183 mtof;
#X obj 363 216 sig~;
#X obj 724 185 mtof;
#X obj 721 266 sig~;
#X obj 730 342 blsaw;
#X obj 345 428 *~ 0;
#X obj 367 463 *~;
#X obj 359 141 - 5;
#X obj 86 416 *~ 1;
#X obj 270 243 *~ 3;
#X obj 85 250 *~ 4;
#X obj 84 218 phasor~ 2;
#X obj 269 210 phasor~ 3;
#X obj 699 143 + 19;
#X obj 505 132 + 12;
#X obj 727 316 +~;
#X obj 783 289 *~;
#X obj 782 255 osc~;
#X obj 824 264 sig~;
#X obj 779 229 sig~;
#X msg 779 201 5;
#X msg 825 226 2;
#X obj 557 310 +~;
#X obj 613 283 *~;
#X obj 612 249 osc~;
#X obj 654 258 sig~;
#X obj 609 223 sig~;
#X msg 609 195 3;
#X msg 655 220 1;
#X obj 199 251 hip~ 500;
#X obj 32 227 noise~;
#X obj 591 149 r loadbang-\$1;
#X obj 785 161 r loadbang-\$1;
#X obj 147 331 r ro_viola-\$1;
#X obj 147 368 / 100;
#X obj 377 319 r ro_violin-\$1;
#X obj 399 386 / 100;
#X obj 927 249 r ro_release-\$1;
#X obj 1090 232 r ro_attack-\$1;
#X connect 0 0 1 0;
#X connect 1 0 15 0;
#X connect 1 0 28 0;
#X connect 1 0 34 0;
#X connect 1 0 35 0;
#X connect 1 1 6 0;
#X connect 2 0 4 0;
#X connect 4 0 43 0;
#X connect 5 0 29 0;
#X connect 6 0 12 0;
#X connect 6 1 8 0;
#X connect 7 0 10 1;
#X connect 7 0 10 0;
#X connect 8 0 11 0;
#X connect 9 0 29 0;
#X connect 10 0 27 1;
#X connect 11 0 7 0;
#X connect 12 0 7 0;
#X connect 13 0 9 0;
#X connect 14 0 13 0;
#X connect 15 0 16 0;
#X connect 16 0 17 0;
#X connect 17 0 13 1;
#X connect 18 0 26 0;
#X connect 19 0 18 0;
#X connect 20 0 19 0;
#X connect 21 0 22 0;
#X connect 22 0 19 1;
#X connect 23 0 24 0;
#X connect 24 0 36 0;
#X connect 25 0 26 0;
#X connect 26 0 27 0;
#X connect 27 0 3 0;
#X connect 28 0 21 0;
#X connect 29 0 27 0;
#X connect 30 0 20 1;
#X connect 31 0 14 1;
#X connect 32 0 31 0;
#X connect 33 0 30 0;
#X connect 34 0 23 0;
#X connect 35 0 2 0;
#X connect 36 0 25 0;
#X connect 37 0 36 1;
#X connect 38 0 37 0;
#X connect 39 0 37 1;
#X connect 40 0 38 0;
#X connect 41 0 40 0;
#X connect 42 0 39 0;
#X connect 43 0 5 0;
#X connect 44 0 43 1;
#X connect 45 0 44 0;
#X connect 46 0 44 1;
#X connect 47 0 45 0;
#X connect 48 0 47 0;
#X connect 49 0 46 0;
#X connect 50 0 20 0;
#X connect 51 0 14 0;
#X connect 51 0 50 0;
#X connect 52 0 48 0;
#X connect 52 0 49 0;
#X connect 53 0 41 0;
#X connect 53 0 42 0;
#X connect 54 0 55 0;
#X connect 55 0 29 1;
#X connect 56 0 57 0;
#X connect 57 0 26 1;
#X connect 58 0 12 1;
#X connect 59 0 11 1;
