#N canvas 553 107 976 644 10;
#X obj 159 248 pack f f f;
#X obj 166 166 unpack 0 0;
#X obj 166 191 - 0;
#X obj 166 102 r notes;
#X obj 166 218 poly 5 1;
#X obj 159 273 route 1 2 3 4 5;
#N canvas 546 174 966 628 knob1 0;
#X obj 666 416 s chorvc;
#X obj 672 250 hsl 128 15 0 1 0 0 empty empty empty -2 -8 0 10 -262144
-1 -1 0 1;
#X obj 667 304 + 1;
#X obj 667 348 i;
#X obj 667 391 change;
#X floatatom 738 406 5 0 0 0 - - -, f 5;
#X obj 669 278 * 2.8;
#X obj 739 453 s screenLine1;
#X msg 739 429 1: Chorus Voice \$1;
#X obj 668 32 r knob1;
#X obj 669 193 override;
#X obj 735 226 bng 15 250 50 0 empty empty empty 17 7 0 10 -262144
-1 -1;
#X obj 691 151 r lock3;
#X obj 733 195 sel 0;
#X obj 338 484 osc~;
#X obj 315 32 r chorspd;
#X obj 336 343 sig~;
#X obj 374 493 sig~;
#X obj 412 27 r knob1;
#X obj 352 572 s~ lfodpth;
#X obj 413 171 hsl 128 15 0 1 0 0 empty empty empty -2 -8 0 10 -262144
-1 -1 0 1;
#X obj 412 116 override;
#X obj 478 149 bng 15 250 50 0 empty empty empty 17 7 0 10 -262144
-1 -1;
#X obj 476 118 sel 0;
#X obj 434 74 r lock2;
#X floatatom 491 287 5 0 0 0 - - -, f 5;
#X obj 492 334 s screenLine1;
#X obj 479 218 * 100;
#X obj 492 247 i;
#X msg 492 310 1: LFO Depth \$1;
#X obj 397 251 log;
#X floatatom 397 277 5 0 0 0 - - -, f 5;
#X floatatom 398 476 5 0 0 0 - - -, f 5;
#X obj 397 324 abs;
#X obj 398 349 + 1;
#X msg 565 152 0;
#X msg 822 229 0;
#X obj 578 236 delay 20;
#X obj 833 335 delay 20;
#X obj 826 197 r bang1;
#X obj 569 120 r bang2;
#X obj 351 518 +~;
#X obj 394 223 + 1;
#X obj 360 201 * 400000;
#X obj 396 301 - 12.9;
#X obj 351 545 lop~ 100;
#X floatatom 478 419 5 0 0 0 - - -, f 5;
#X obj 479 452 s LFOoffset;
#X obj 478 396 + 1;
#X obj 478 371 * 1;
#X obj 439 351 bng 15 250 50 0 empty empty empty 17 7 0 10 -262144
-1 -1;
#X floatatom 373 382 5 0 0 0 - - -, f 5;
#X obj 399 435 line 0;
#X obj 411 407 pack f f;
#X msg 425 387 250;
#X connect 1 0 6 0;
#X connect 2 0 3 0;
#X connect 3 0 4 0;
#X connect 4 0 0 0;
#X connect 4 0 5 0;
#X connect 5 0 8 0;
#X connect 6 0 2 0;
#X connect 8 0 7 0;
#X connect 9 0 10 0;
#X connect 10 0 1 0;
#X connect 11 0 1 0;
#X connect 11 0 38 0;
#X connect 12 0 10 1;
#X connect 12 0 13 0;
#X connect 13 0 11 0;
#X connect 14 0 41 0;
#X connect 15 0 16 0;
#X connect 16 0 14 0;
#X connect 17 0 41 1;
#X connect 18 0 21 0;
#X connect 20 0 27 0;
#X connect 20 0 43 0;
#X connect 20 0 49 0;
#X connect 21 0 20 0;
#X connect 22 0 20 0;
#X connect 22 0 37 0;
#X connect 23 0 22 0;
#X connect 24 0 21 1;
#X connect 24 0 23 0;
#X connect 25 0 29 0;
#X connect 27 0 28 0;
#X connect 28 0 25 0;
#X connect 29 0 26 0;
#X connect 30 0 31 0;
#X connect 31 0 44 0;
#X connect 32 0 17 0;
#X connect 33 0 34 0;
#X connect 34 0 50 0;
#X connect 34 0 51 0;
#X connect 35 0 20 0;
#X connect 36 0 1 0;
#X connect 37 0 25 0;
#X connect 38 0 5 0;
#X connect 39 0 36 0;
#X connect 40 0 35 0;
#X connect 41 0 45 0;
#X connect 42 0 30 0;
#X connect 43 0 42 0;
#X connect 44 0 33 0;
#X connect 45 0 19 0;
#X connect 46 0 47 0;
#X connect 48 0 46 0;
#X connect 49 0 48 0;
#X connect 50 0 54 0;
#X connect 51 0 53 0;
#X connect 52 0 32 0;
#X connect 53 0 52 0;
#X connect 54 0 53 1;
#X restore 884 194 pd knob1;
#N canvas 248 153 868 522 knob2 0;
#X obj 36 177 override;
#X obj 58 135 r lock1;
#X obj 103 213 bng 15 250 50 0 empty empty empty 17 7 0 10 -262144
-1 -1;
#X obj 100 179 sel 0;
#X obj 34 25 r knob2;
#X obj 35 296 hsl 128 15 0 1 0 0 empty empty empty -2 -8 0 10 -262144
-1 -1 0 1;
#X obj 115 436 s screenLine2;
#X obj 115 325 * 100;
#X obj 115 358 i;
#X obj 595 185 override;
#X obj 661 218 bng 15 250 50 0 empty empty empty 17 7 0 10 -262144
-1 -1;
#X obj 617 143 r lock3;
#X obj 659 187 sel 0;
#X obj 594 24 r knob2;
#X obj 593 501 s chorspd;
#X floatatom 592 469 5 0 0 0 - - -, f 5;
#X obj 594 311 hsl 128 15 0 1 0 0 empty empty empty -2 -8 0 10 -262144
-1 -1 0 1;
#X obj 591 341 * 7;
#X obj 683 500 s screenLine2;
#X msg 683 478 2: Chorus Spd \$1;
#X obj 643 365 * 100;
#X obj 678 397 i;
#X obj 680 421 / 100;
#X obj 32 328 s violin;
#X msg 115 414 2: Violin Vol \$1;
#X obj 332 178 override;
#X obj 398 211 bng 15 250 50 0 empty empty empty 17 7 0 10 -262144
-1 -1;
#X obj 396 180 sel 0;
#X obj 331 17 r knob2;
#X floatatom 329 462 5 0 0 0 - - -, f 5;
#X obj 331 304 hsl 128 15 0 1 0 0 empty empty empty -2 -8 0 10 -262144
-1 -1 0 1;
#X obj 420 493 s screenLine2;
#X obj 381 357 * 100;
#X obj 416 389 i;
#X obj 418 413 / 100;
#X obj 354 136 r lock2;
#X obj 330 494 s verb;
#X msg 420 471 2: verb \$1;
#X msg 148 261 1;
#X msg 503 180 0;
#X msg 766 187 0.1;
#X obj 228 309 delay 20;
#X floatatom 114 387 5 0 0 0 - - -, f 5;
#X floatatom 419 443 5 0 0 0 - - -, f 5;
#X obj 495 345 delay 20;
#X floatatom 684 450 5 0 0 0 - - -, f 5;
#X obj 764 334 delay 20;
#X obj 152 229 r bang3;
#X obj 507 148 r bang2;
#X obj 770 155 r bang1;
#X connect 0 0 5 0;
#X connect 1 0 0 1;
#X connect 1 0 3 0;
#X connect 2 0 5 0;
#X connect 2 0 41 0;
#X connect 3 0 2 0;
#X connect 4 0 0 0;
#X connect 5 0 7 0;
#X connect 5 0 23 0;
#X connect 7 0 8 0;
#X connect 8 0 42 0;
#X connect 9 0 16 0;
#X connect 10 0 16 0;
#X connect 10 0 46 0;
#X connect 11 0 9 1;
#X connect 11 0 12 0;
#X connect 12 0 10 0;
#X connect 13 0 9 0;
#X connect 15 0 14 0;
#X connect 16 0 17 0;
#X connect 17 0 15 0;
#X connect 17 0 20 0;
#X connect 19 0 18 0;
#X connect 20 0 21 0;
#X connect 21 0 22 0;
#X connect 22 0 45 0;
#X connect 24 0 6 0;
#X connect 25 0 30 0;
#X connect 26 0 30 0;
#X connect 26 0 44 0;
#X connect 27 0 26 0;
#X connect 28 0 25 0;
#X connect 29 0 36 0;
#X connect 30 0 29 0;
#X connect 30 0 32 0;
#X connect 32 0 33 0;
#X connect 33 0 34 0;
#X connect 34 0 43 0;
#X connect 35 0 25 1;
#X connect 35 0 27 0;
#X connect 37 0 31 0;
#X connect 38 0 5 0;
#X connect 39 0 30 0;
#X connect 40 0 16 0;
#X connect 41 0 42 0;
#X connect 42 0 24 0;
#X connect 43 0 37 0;
#X connect 44 0 43 0;
#X connect 45 0 19 0;
#X connect 46 0 45 0;
#X connect 47 0 38 0;
#X connect 48 0 39 0;
#X connect 49 0 40 0;
#X restore 883 223 pd knob2;
#N canvas 247 141 858 518 knob3 0;
#X obj 307 165 override;
#X obj 329 123 r lock2;
#X obj 373 198 bng 15 250 50 0 empty empty empty 17 7 0 10 -262144
-1 -1;
#X obj 549 153 override;
#X obj 615 186 bng 15 250 50 0 empty empty empty 17 7 0 10 -262144
-1 -1;
#X obj 571 111 r lock3;
#X obj 371 167 sel 0;
#X obj 613 155 sel 0;
#X obj 310 254 hsl 128 15 0 1 0 0 empty empty empty -2 -8 0 10 -262144
-1 -1 0 1;
#X obj 552 218 hsl 128 15 0 1 0 0 empty empty empty -2 -8 0 10 -262144
-1 -1 0 1;
#X obj 291 489 s screenLine3;
#X obj 306 43 r knob3;
#X obj 548 31 r knob3;
#X obj 308 279 * 4;
#X obj 311 364 sig~;
#X obj 346 412 s~ resonance;
#X msg 291 467 3: Resonance \$1;
#X obj 538 486 s screenLine3;
#X obj 613 354 s chordpth;
#X floatatom 611 329 5 0 0 0 - - -, f 5;
#X msg 538 464 3: Chorus Dpth \$1;
#X floatatom 66 242 5 0 0 0 - - -, f 5;
#X obj 66 298 i;
#X floatatom 66 331 5 0 0 0 - - -, f 5;
#X obj 67 408 change -1;
#X obj 95 379 s attack;
#X obj 66 261 * 3000;
#X obj 68 153 override;
#X obj 134 186 bng 15 250 50 0 empty empty empty 17 7 0 10 -262144
-1 -1;
#X obj 132 155 sel 0;
#X obj 67 31 r knob3;
#X obj 90 111 r lock1;
#X obj 541 327 * 10;
#X obj 541 353 i;
#X obj 67 497 s screenLine3;
#X obj 263 304 * 100;
#X obj 263 329 i;
#X obj 265 353 / 100;
#X obj 550 268 exp;
#X obj 549 243 * 2.5;
#X obj 550 294 - 0.9;
#X obj 535 390 min 100;
#X floatatom 536 439 5 0 0 0 - - -, f 5;
#X msg 12 165 0.1;
#X msg 256 158 0.1;
#X msg 495 120 0.2;
#X obj 16 134 r bang3;
#X obj 260 126 r bang2;
#X obj 499 88 r bang1;
#X obj 134 294 delay 20;
#X floatatom 274 396 5 0 0 0 - - -, f 5;
#X obj 442 294 delay 20;
#X obj 736 312 delay 20;
#X floatatom 67 446 5 0 0 0 - - -, f 5;
#X msg 67 475 3: Attack \$1;
#X connect 0 0 8 0;
#X connect 1 0 0 1;
#X connect 1 0 6 0;
#X connect 2 0 8 0;
#X connect 2 0 51 0;
#X connect 3 0 9 0;
#X connect 4 0 9 0;
#X connect 4 0 52 0;
#X connect 5 0 3 1;
#X connect 5 0 7 0;
#X connect 6 0 2 0;
#X connect 7 0 4 0;
#X connect 8 0 13 0;
#X connect 9 0 39 0;
#X connect 11 0 0 0;
#X connect 12 0 3 0;
#X connect 13 0 14 0;
#X connect 13 0 35 0;
#X connect 14 0 15 0;
#X connect 16 0 10 0;
#X connect 19 0 18 0;
#X connect 20 0 17 0;
#X connect 21 0 26 0;
#X connect 22 0 23 0;
#X connect 23 0 24 0;
#X connect 23 0 25 0;
#X connect 24 0 53 0;
#X connect 26 0 22 0;
#X connect 27 0 21 0;
#X connect 28 0 21 0;
#X connect 28 0 49 0;
#X connect 29 0 28 0;
#X connect 30 0 27 0;
#X connect 31 0 27 1;
#X connect 31 0 29 0;
#X connect 32 0 33 0;
#X connect 33 0 41 0;
#X connect 35 0 36 0;
#X connect 36 0 37 0;
#X connect 37 0 50 0;
#X connect 38 0 40 0;
#X connect 39 0 38 0;
#X connect 40 0 19 0;
#X connect 40 0 32 0;
#X connect 41 0 42 0;
#X connect 42 0 20 0;
#X connect 43 0 21 0;
#X connect 44 0 8 0;
#X connect 45 0 9 0;
#X connect 46 0 43 0;
#X connect 47 0 44 0;
#X connect 48 0 45 0;
#X connect 49 0 53 0;
#X connect 50 0 16 0;
#X connect 51 0 50 0;
#X connect 52 0 42 0;
#X connect 53 0 54 0;
#X connect 54 0 34 0;
#X restore 884 256 pd knob3;
#N canvas 0 102 873 530 knob4 0;
#X obj 411 132 override;
#X obj 433 90 r lock2;
#X obj 477 165 bng 15 250 50 0 empty empty empty 17 7 0 10 -262144
-1 -1;
#X obj 653 120 override;
#X obj 719 153 bng 15 250 50 0 empty empty empty 17 7 0 10 -262144
-1 -1;
#X obj 675 78 r lock3;
#X obj 475 134 sel 0;
#X obj 717 122 sel 0;
#X obj 414 248 hsl 128 15 0 1 0 0 empty empty empty -2 -8 0 10 -262144
-1 -1 0 1;
#X obj 652 246 hsl 128 15 0 1 0 0 empty empty empty -2 -8 0 10 -262144
-1 -1 0 1;
#X obj 411 35 r knob4;
#X obj 653 23 r knob4;
#X obj 424 410 sig~;
#X obj 423 443 lop~ 5;
#X obj 424 470 s~ cutoff;
#X obj 516 378 i;
#X obj 516 402 change -1;
#X msg 516 452 4: Cutoff \$1 Hz;
#X obj 516 476 s screenLine4;
#X obj 723 473 s screenLine4;
#X obj 650 313 s mix;
#X obj 730 316 * 100;
#X obj 734 345 i;
#X msg 723 449 4: Chorus Mix \$1;
#X msg 602 135 0.5;
#X obj 84 123 override;
#X obj 150 156 bng 15 250 50 0 empty empty empty 17 7 0 10 -262144
-1 -1;
#X obj 148 125 sel 0;
#X obj 84 333 i;
#X floatatom 82 373 5 0 0 0 - - -, f 5;
#X obj 156 411 change -1;
#X obj 79 433 s release;
#X obj 83 293 * 3000;
#X obj 87 241 hsl 128 15 0 1 0 0 empty empty empty -2 -8 0 10 -262144
-1 -1 0 1;
#X obj 84 26 r knob4;
#X msg 157 460 4: Release \$1;
#X obj 105 81 r lock1;
#X obj 157 482 s screenLine4;
#X floatatom 414 320 5 0 0 0 - - -, f 5;
#X msg 26 179 0.2;
#X msg 345 159 1;
#X obj 30 147 r bang3;
#X obj 349 127 r bang2;
#X obj 606 103 r bang1;
#X obj 249 239 delay 20;
#X obj 568 247 delay 20;
#X floatatom 515 430 5 0 0 0 - - -, f 5;
#X floatatom 729 403 5 0 0 0 - - -, f 5;
#X obj 810 258 delay 20;
#X floatatom 158 435 5 0 0 0 - - -, f 5;
#X obj 412 282 * 1000;
#X obj 495 277 r LFOoffset;
#X obj 461 298 bng 15 250 50 0 empty empty empty 17 7 0 10 -262144
-1 -1;
#X obj 419 388 * 1;
#X obj 411 353 + 0;
#X connect 0 0 8 0;
#X connect 1 0 0 1;
#X connect 1 0 6 0;
#X connect 2 0 8 0;
#X connect 2 0 45 0;
#X connect 3 0 9 0;
#X connect 4 0 9 0;
#X connect 4 0 48 0;
#X connect 5 0 3 1;
#X connect 5 0 7 0;
#X connect 6 0 2 0;
#X connect 7 0 4 0;
#X connect 8 0 50 0;
#X connect 9 0 20 0;
#X connect 9 0 21 0;
#X connect 10 0 0 0;
#X connect 11 0 3 0;
#X connect 12 0 13 0;
#X connect 13 0 14 0;
#X connect 15 0 16 0;
#X connect 16 0 46 0;
#X connect 17 0 18 0;
#X connect 21 0 22 0;
#X connect 22 0 47 0;
#X connect 23 0 19 0;
#X connect 24 0 9 0;
#X connect 25 0 33 0;
#X connect 26 0 33 0;
#X connect 26 0 44 0;
#X connect 27 0 26 0;
#X connect 28 0 29 0;
#X connect 29 0 30 0;
#X connect 29 0 31 0;
#X connect 30 0 49 0;
#X connect 32 0 28 0;
#X connect 33 0 32 0;
#X connect 34 0 25 0;
#X connect 35 0 37 0;
#X connect 36 0 25 1;
#X connect 36 0 27 0;
#X connect 38 0 54 0;
#X connect 39 0 33 0;
#X connect 40 0 8 0;
#X connect 41 0 39 0;
#X connect 42 0 40 0;
#X connect 43 0 24 0;
#X connect 44 0 49 0;
#X connect 45 0 46 0;
#X connect 46 0 17 0;
#X connect 47 0 23 0;
#X connect 48 0 47 0;
#X connect 49 0 35 0;
#X connect 50 0 38 0;
#X connect 51 0 52 0;
#X connect 51 0 53 1;
#X connect 52 0 53 0;
#X connect 53 0 12 0;
#X connect 54 0 15 0;
#X connect 54 0 53 0;
#X restore 884 287 pd knob4;
#X obj 203 374 *~ 1;
#X obj 84 311 string;
#X obj 146 567 outlet~ outL;
#X obj 249 570 outlet~ outR;
#X obj 275 318 string;
#X obj 134 313 string;
#X obj 182 316 string;
#X obj 226 317 string;
#X connect 0 0 5 0;
#X connect 1 0 2 0;
#X connect 1 1 4 1;
#X connect 2 0 4 0;
#X connect 3 0 1 0;
#X connect 4 0 0 0;
#X connect 4 1 0 1;
#X connect 4 2 0 2;
#X connect 5 0 11 0;
#X connect 5 1 15 0;
#X connect 5 2 16 0;
#X connect 5 3 17 0;
#X connect 5 4 14 0;
#X connect 10 0 13 0;
#X connect 10 0 12 0;
#X connect 11 0 10 0;
#X connect 14 0 10 0;
#X connect 15 0 10 0;
#X connect 16 0 10 0;
#X connect 17 0 10 0;
