#N canvas 132 13 1366 580 10;
#X obj 374 137 sel 1;
#X obj 466 136 sel 0;
#X obj 449 363 f;
#X msg 446 399 0 \$1;
#X msg 371 400 1 \$1;
#X obj 342 352 float;
#X obj 539 226 delay 100;
#X msg 540 409 \$1 \$2;
#X obj 539 362 list;
#X obj 545 334 float;
#X obj 398 277 r attack;
#X obj 499 184 r decay;
#X obj 846 231 r sustain;
#X msg 573 149 stop;
#X obj 458 465 lop~ 25;
#X floatatom 404 304 5 0 0 0 - - -, f 5;
#X floatatom 504 276 5 0 0 0 - - -, f 5;
#X floatatom 687 343 5 0 0 0 - - -, f 5;
#X obj 678 168 r release;
#X floatatom 683 206 5 0 0 0 - - -, f 5;
#X obj 348 22 tgl 15 0 empty empty empty 17 7 0 10 -262144 -1 -1 0
1;
#X obj 450 444 parabolic_line~;
#X obj 397 61 > 0;
#X obj 393 235 bng 15 250 50 0 empty empty empty 17 7 0 10 -262144
-1 -1;
#X obj 418 28 inlet;
#X obj 457 510 outlet~;
#X connect 0 0 5 0;
#X connect 0 0 23 0;
#X connect 1 0 2 0;
#X connect 1 0 13 0;
#X connect 2 0 3 0;
#X connect 3 0 21 0;
#X connect 4 0 21 0;
#X connect 5 0 4 0;
#X connect 6 0 9 0;
#X connect 7 0 21 0;
#X connect 8 0 7 0;
#X connect 9 0 8 0;
#X connect 10 0 15 0;
#X connect 11 0 16 0;
#X connect 12 0 17 0;
#X connect 13 0 6 0;
#X connect 14 0 25 0;
#X connect 15 0 5 1;
#X connect 15 0 6 1;
#X connect 16 0 8 1;
#X connect 17 0 9 1;
#X connect 18 0 19 0;
#X connect 19 0 2 1;
#X connect 20 0 22 0;
#X connect 21 0 14 0;
#X connect 22 0 0 0;
#X connect 22 0 1 0;
#X connect 23 0 6 0;
#X connect 24 0 22 0;
