#N canvas 0 50 1360 725 10;
#X obj 329 24 phasor~ 220;
#X obj 243 53 +~ 0.5;
#X obj 241 134 tabread4~ wavemap;
#X obj 236 80 +~;
#X obj 54 29 mtof;
#X obj 26 35 nbx 5 14 -1e+037 1e+037 0 0 empty empty empty 0 -8 0 10
-262144 -1 -1 0 256;
#X obj 76 125 nbx 8 14 -1e+037 1e+037 0 0 empty empty empty 0 -8 0
10 -262144 -1 -1 0 256;
#X obj 85 161 pow -1;
#X obj 94 234 nbx 5 14 -1e+037 1e+037 0 0 empty empty empty 0 -8 0
10 -262144 -1 -1 0 256;
#X obj 86 188 * 44100;
#X obj 111 281 nbx 5 14 -1e+037 1e+037 0 0 empty empty empty 0 -8 0
10 -262144 -1 -1 0 256;
#X obj 187 280 expr log;
#X obj 163 216 nbx 5 14 -1e+037 1e+037 0 0 empty empty empty 0 -8 0
10 -262144 -1 -1 0 256;
#X obj 100 265 / 512;
#X obj 119 321 pow -1;
#X obj 194 349 nbx 5 14 -1e+037 1e+037 0 0 empty empty empty 0 -8 0
10 -262144 -1 -1 0 256;
#X obj 44 291 nbx 5 14 -1e+037 1e+037 0 0 empty empty empty 0 -8 0
10 -262144 -1 -1 0 256;
#X obj 113 364 expr log($f1)/log(2);
#X obj 81 413 nbx 5 14 -1e+037 1e+037 0 0 empty empty empty 0 -8 0
10 -262144 -1 -1 0 256;
#X obj 275 339 int;
#X obj 267 401 nbx 5 14 -1e+037 1e+037 0 0 empty empty empty 0 -8 0
10 -262144 -1 -1 0 256;
#X obj 222 481 min 5;
#X obj 260 506 max 0;
#X obj 187 149 *~ 0.1;
#X obj 606 493 * 2;
#X obj 238 107 *~ 512;
#X obj 189 442 + 0.8;
#X obj 112 38 inlet;
#X obj 514 13 inlet~;
#X obj 187 583 outlet~;
#X connect 0 0 1 0;
#X connect 1 0 3 0;
#X connect 2 0 23 0;
#X connect 2 0 29 0;
#X connect 3 0 25 0;
#X connect 4 0 6 0;
#X connect 4 0 0 0;
#X connect 5 0 4 0;
#X connect 6 0 7 0;
#X connect 7 0 9 0;
#X connect 7 0 12 0;
#X connect 8 0 13 0;
#X connect 9 0 8 0;
#X connect 10 0 14 0;
#X connect 13 0 10 0;
#X connect 14 0 15 0;
#X connect 14 0 17 0;
#X connect 16 0 17 0;
#X connect 17 0 18 0;
#X connect 17 0 26 0;
#X connect 19 0 20 0;
#X connect 20 0 24 0;
#X connect 21 0 22 0;
#X connect 22 0 19 0;
#X connect 24 0 3 1;
#X connect 25 0 2 0;
#X connect 26 0 21 0;
#X connect 27 0 6 0;
#X connect 28 0 0 0;
