#N canvas 20 70 1202 614 10;
#X obj 304 186 r notesIn-\$1;
#X obj 304 491 s notesOut-\$1;
#X obj 23 9 r loaddefs-\$1;
#X msg 23 76 loaddefinitions \$1;
#X obj 191 6 r loadbang-\$1;
#X obj 181 76 print loading definiton for \$1;
#X obj 23 41 symbol;
#X obj 25 186 inlet~ inL-\$1;
#X obj 135 186 inlet~ inR-\$1;
#X obj 27 491 outlet~ outL-\$1;
#X obj 136 491 outlet~ outR-\$1;
#X obj 535 -19 r auxIn-\$1;
#X obj 423 208 r expIn-\$1;
#X obj 423 233 r fsIn-\$1;
#X msg 535 118 1;
#X text 535 62 always running. mute incoming BPM to turn off in other
Modules;
#N canvas 49 64 1227 620 metro 1;
#X obj 217 164 tgl 15 0 empty empty empty 17 7 0 10 -262144 -1 -1 1
1;
#X floatatom 375 164 5 0 0 0 - - -, f 5;
#N canvas 285 555 292 294 mstobpm 0;
#X obj 45 13 inlet;
#X obj 46 145 timer;
#X obj 47 238 outlet;
#X obj 46 172 expr 60000 / $f1;
#X obj 46 108 t b b;
#X obj 45 78 sel 0;
#X text 97 55 time 16th notes;
#X obj 43 45 % 24;
#X obj 48 206 / 1;
#X connect 0 0 7 0;
#X connect 1 0 3 0;
#X connect 3 0 8 0;
#X connect 4 0 1 0;
#X connect 4 1 1 1;
#X connect 5 0 4 0;
#X connect 7 0 5 0;
#X connect 8 0 2 0;
#X restore 123 626 pd mstobpm;
#X floatatom 123 665 5 0 0 0 - - -, f 5;
#N canvas 171 50 902 660 mainmetro 0;
#X obj 254 49 inlet;
#X obj 443 49 inlet;
#X obj 280 156 metro 50;
#X obj 389 438 + 1, f 5;
#X obj 280 462 f;
#X floatatom 280 581 5 0 0 0 - - -, f 5;
#X obj 280 607 outlet;
#X msg 565 496 0;
#X obj 350 484 >= 23;
#X obj 350 516 sel 1;
#X obj 408 145 midirealtimein;
#X obj 280 387 spigot 1;
#X obj 408 388 spigot 0;
#X obj 423 300 tgl 15 0 empty empty empty 17 7 0 10 -262144 -1 -1 0
1;
#X obj 333 323 ==;
#X obj 333 349 tgl 15 0 empty empty empty 17 7 0 10 -262144 -1 -1 1
1;
#X obj 461 350 tgl 15 0 empty empty empty 17 7 0 10 -262144 -1 -1 0
1;
#X obj 408 167 sel 248 250 251;
#X obj 580 243 delay 1000;
#X msg 423 241 1;
#X obj 408 190 t b b b b, f 25;
#X msg 580 218 stop;
#X msg 580 267 0;
#X text 67 12 autoswitch between internal and MIDI clock;
#X text 525 144 MIDI 248 = clock \; 250 = start \; 251 = continue.
;
#X obj 562 362 s midi-clock-present;
#X msg 325 229 0;
#X obj 266 90 t f b;
#X text 28 87 reset back to 0 when it starts;
#X text 356 587 24 pulses per quarter note output;
#X text 503 50 metro speed in ms;
#X text 298 48 start stop;
#N canvas 945 298 174 171 dialinbpm 0;
#X obj 29 41 inlet;
#X obj 29 72 expr 1000/($f1/60);
#X floatatom 29 121 5 0 0 0 - - -, f 5;
#X obj 29 96 / 24;
#X obj 30 150 outlet;
#X connect 0 0 1 0;
#X connect 1 0 3 0;
#X connect 2 0 4 0;
#X connect 3 0 2 0;
#X restore 397 95 pd dialinbpm;
#X obj 325 207 r loadbang-\$1;
#X connect 0 0 27 0;
#X connect 1 0 32 0;
#X connect 2 0 11 0;
#X connect 3 0 4 1;
#X connect 4 0 3 0;
#X connect 4 0 5 0;
#X connect 4 0 8 0;
#X connect 5 0 6 0;
#X connect 7 0 4 1;
#X connect 8 0 9 0;
#X connect 9 0 7 0;
#X connect 10 0 17 0;
#X connect 11 0 4 0;
#X connect 12 0 4 0;
#X connect 13 0 14 0;
#X connect 13 0 16 0;
#X connect 13 0 25 0;
#X connect 14 0 15 0;
#X connect 15 0 11 1;
#X connect 16 0 12 1;
#X connect 17 0 20 0;
#X connect 17 1 7 0;
#X connect 17 2 7 0;
#X connect 18 0 22 0;
#X connect 19 0 13 0;
#X connect 20 0 12 0;
#X connect 20 1 18 0;
#X connect 20 2 19 0;
#X connect 20 3 21 0;
#X connect 21 0 18 0;
#X connect 22 0 13 0;
#X connect 26 0 13 0;
#X connect 27 0 2 0;
#X connect 27 1 7 0;
#X connect 32 0 2 1;
#X connect 33 0 26 0;
#X restore 217 256 pd mainmetro;
#X obj 217 116 inlet;
#X obj 375 116 inlet;
#X obj 271 742 spigot 1;
#X obj 123 742 spigot 0;
#X obj 278 586 r midi-clock-present;
#X obj 278 630 ==;
#X obj 375 142 i;
#X obj 123 845 outlet;
#X obj 269 845 outlet;
#N canvas 239 342 450 300 triplets 0;
#X obj 73 41 inlet;
#X obj 58 168 outlet;
#X obj 76 86 sel 0 8 16;
#X connect 0 0 2 0;
#X connect 2 0 1 0;
#X connect 2 1 1 0;
#X connect 2 2 1 0;
#X restore 1035 281 pd triplets;
#N canvas 0 50 1360 725 sixteenths 0;
#X obj 73 41 inlet;
#X obj 94 224 outlet;
#X obj 76 86 sel 0 6 12 18;
#X connect 0 0 2 0;
#X connect 2 0 1 0;
#X connect 2 1 1 0;
#X connect 2 2 1 0;
#X connect 2 3 1 0;
#X restore 1131 282 pd sixteenths;
#X obj 1035 308 s triplets;
#X obj 1131 309 s sixteenths;
#X obj 793 312 s quarters;
#X obj 913 311 s eighths;
#X text 46 560 if getting clock from MIDI \, measure the BPM;
#N canvas 236 394 450 300 quarters 0;
#X obj 73 41 inlet;
#X obj 73 75 sel 0;
#X obj 73 111 outlet;
#X connect 0 0 1 0;
#X connect 1 0 2 0;
#X restore 793 282 pd quarters;
#N canvas 0 50 1360 725 eighths 0;
#X obj 73 41 inlet;
#X obj 71 195 outlet;
#X obj 76 86 sel 0 12;
#X connect 0 0 2 0;
#X connect 2 0 1 0;
#X connect 2 1 1 0;
#X restore 913 282 pd eighths;
#X obj 696 268 s 24ppq;
#X obj 851 418 r 24ppq;
#X msg 851 496 248;
#X obj 851 538 midiout;
#X text 410 115 bpm input;
#X text 256 867 separate BPM midi \, LINK \, and internal for display
purposes;
#N canvas 185 50 815 554 LINK 0;
#X msg 355 126 tempo \$1;
#X msg 144 127 resolution \$1;
#X msg 247 147 reset \$1 \$2;
#X obj 247 126 pack f f;
#X floatatom 266 247 5 0 0 1 beat_time - -, f 5;
#X floatatom 267 304 5 0 0 1 phase - -, f 5;
#X floatatom 180 285 5 0 0 1 step - -, f 5;
#X floatatom 378 246 5 0 0 1 tempo - -, f 5;
#X obj 59 105 tgl 15 0 empty empty empty 17 7 0 10 -262144 -1 -1 1
1;
#X obj 180 199 abl_link~ 1 0 4 134;
#X floatatom 355 107 5 0 0 2 tempo - -, f 5;
#X floatatom 292 107 5 0 0 2 quantum - -, f 5;
#X floatatom 247 107 5 0 0 2 beat - -, f 5;
#X floatatom 144 107 5 0 0 2 resolution - -, f 5;
#X msg 59 125 connect \$1;
#X floatatom 501 206 5 0 0 0 - - -, f 5;
#X obj 501 184 r #abl_link_num_peers;
#X obj 32 67 delay 100;
#X obj 267 326 wrap;
#X floatatom 267 351 5 0 0 0 - - -, f 5;
#X obj 267 370 * 24;
#X obj 267 392 i;
#X floatatom 267 414 5 0 0 0 - - -, f 5;
#X obj 267 444 change;
#X obj 285 31 inlet;
#X obj 388 273 i;
#X obj 267 472 outlet;
#X obj 388 295 outlet;
#X obj 510 261 > 0;
#X obj 510 283 s link-session-present;
#X obj 32 12 r loadbang-\$1;
#X obj 31 38 bng 15 250 50 0 empty empty empty 17 7 0 10 -262144 -1
-1;
#X connect 0 0 9 0;
#X connect 1 0 9 0;
#X connect 2 0 9 0;
#X connect 3 0 2 0;
#X connect 5 0 18 0;
#X connect 7 0 25 0;
#X connect 8 0 14 0;
#X connect 9 0 6 0;
#X connect 9 1 5 0;
#X connect 9 2 4 0;
#X connect 9 3 7 0;
#X connect 10 0 0 0;
#X connect 11 0 3 1;
#X connect 12 0 3 0;
#X connect 13 0 1 0;
#X connect 14 0 9 0;
#X connect 15 0 28 0;
#X connect 16 0 15 0;
#X connect 17 0 8 0;
#X connect 18 0 19 0;
#X connect 19 0 20 0;
#X connect 20 0 21 0;
#X connect 21 0 22 0;
#X connect 22 0 23 0;
#X connect 23 0 26 0;
#X connect 24 0 10 0;
#X connect 25 0 27 0;
#X connect 28 0 29 0;
#X connect 30 0 31 0;
#X connect 31 0 17 0;
#X restore 537 270 pd LINK;
#X obj 377 348 spigot 1;
#X obj 217 304 spigot 1;
#X obj 489 353 spigot 0;
#X obj 683 153 r link-session-present;
#X floatatom 683 187 5 0 0 0 - - -, f 5;
#X obj 422 271 == 0;
#X obj 574 742 spigot 0;
#X obj 574 845 outlet;
#X obj 619 451 r link-session-present;
#X obj 487 381 spigot 0;
#X obj 123 587 r master-ticks;
#X text 183 7 a MIDI and LINK enabled master metronome;
#X text 162 31 if a LINK session is present \, use that. otherwise
use internal or MIDI clock if present.;
#X obj 851 465 spigot 0;
#X obj 915 418 r c_midiout-\$1;
#X text 849 398 midi clock output;
#N canvas 0 50 450 250 (subpatch) 0;
#X array swing-\$1 4 float 3;
#A 0 0 0.28 0.64 0.2;
#X coords 0 1 4 -1 50 50 1 0 0;
#X restore 1139 401 graph;
#X obj 992 576 tabread4 swing-\$1;
#X obj 1012 624 nbx 5 14 -1e+37 1e+37 0 0 empty empty empty 0 -8 0
10 -262144 -1 -1 0 256;
#X obj 990 527 nbx 5 14 -1e+37 1e+37 0 0 empty empty empty 0 -8 0 10
-262144 -1 -1 0 256;
#X obj 946 209 t a;
#X obj 971 88 t a a;
#X obj 978 171 pipe 0;
#X obj 1050 118 random 1024;
#X obj 1078 165 nbx 5 14 -1e+37 1e+37 0 0 empty empty empty 0 -8 0
10 -262144 -1 -1 27.75 256;
#X obj 1049 94 bng 15 250 50 0 empty empty empty 17 7 0 10 -262144
-1 -1;
#X obj 1205 137 clip 0 1;
#X obj 1193 259 nbx 5 14 -1e+37 1e+37 0 0 empty empty empty 0 -8 0
10 -262144 -1 -1 0 256;
#X obj 1193 112 +;
#X obj 1110 32 - 512;
#X obj 1122 49 / 512;
#X obj 1101 214 +;
#X obj 789 93 / 100;
#X obj 614 79 / 100;
#X obj 1153 182 hsl 64 15 0 1 0 0 empty empty empty -2 -8 0 10 -262144
-1 -1 0 1;
#X obj 1149 94 * 1;
#X obj 1011 84 % 6;
#X obj 1012 103 sel 0;
#X obj 1252 109 * 0.999;
#X obj 1196 89 * 0.025;
#X obj 1079 147 / 32;
#X obj 622 48 r c_jitter-\$1;
#X obj 770 57 r c_drift-\$1;
#X obj 1103 241 nbx 5 14 -1e+37 1e+37 0 0 empty empty empty 0 -8 0
10 -262144 -1 -1 0 256;
#X obj 1102 196 * 0;
#X obj 1231 233 * 0;
#X obj 1252 194 hsl 64 15 0 1 0 0 empty empty empty -2 -8 0 10 -262144
-1 -1 0 1;
#X obj 1212 38 / 100;
#X obj 1193 18 r c_driftrate-\$1;
#X obj 1220 65 * 0.1;
#X obj 1264 43 hsl 64 15 0 1 0 0 empty empty empty -2 -8 0 10 -262144
-1 -1 0 1;
#N canvas 8 60 1345 720 swing 0;
#X obj 450 146 r delay8-\$1;
#X obj 539 149 r delay16-\$1;
#X obj 88 31 inlet;
#X obj 162 339 outlet;
#X obj 246 202 pipe 0;
#X obj 297 203 pipe 0;
#X obj 359 202 pipe 0;
#X obj 75 63 sel 6 12 18, f 67;
#X msg 187 138 6, f 1;
#X msg 228 140 12, f 4;
#X msg 271 132 18, f 2;
#X connect 0 0 5 1;
#X connect 1 0 4 1;
#X connect 1 0 6 1;
#X connect 2 0 7 0;
#X connect 4 0 3 0;
#X connect 5 0 3 0;
#X connect 6 0 3 0;
#X connect 7 0 8 0;
#X connect 7 1 9 0;
#X connect 7 2 10 0;
#X connect 7 3 3 0;
#X connect 8 0 4 0;
#X connect 9 0 5 0;
#X connect 10 0 6 0;
#X restore 957 58 pd swing;
#X obj 487 413 s master-ticks-internal;
#X obj 702 371 s master-ticks;
#X obj 926 28 r master-ticks-internal;
#X obj 274 453 bng 15 250 50 0 empty empty empty 17 7 0 10 -262144
-1 -1;
#X obj 217 352 s master-ticks-internal;
#X obj 1201 201 * 64;
#X obj 569 819 /;
#X obj 273 823 /;
#X obj 121 823 /;
#X obj 417 837 s bpm;
#X obj 1274 1214 bng 15 250 50 0 empty empty empty 17 7 0 10 -262144
-1 -1;
#X obj 1274 1268 bng 15 250 50 0 empty empty empty 17 7 0 10 -262144
-1 -1;
#X obj 1277 989 r quarters;
#X floatatom 1265 1145 5 0 0 0 - - -, f 5;
#X obj 1265 1082 f 0;
#X obj 1277 1038 bng 15 250 50 0 empty empty empty 17 7 0 10 -262144
-1 -1;
#X obj 1189 1207 sel 0;
#X text 1405 1218 on click;
#X text 1396 1270 on accent;
#X obj 1277 1011 t b b;
#X obj 1300 1081 + 1;
#X floatatom 1362 1077 5 0 0 0 - - -, f 5;
#X obj 1265 1115 % 4;
#X obj 1522 823 i;
#X obj 1522 795 * 11;
#X obj 1487 878 expr if($f1 <= 1 \, 0 \, $f1);
#X obj 1458 922 sel 0;
#X msg 1409 956 1e+07;
#X text 1478 958 not really off \, just really long hahah;
#X msg 1075 1356 0;
#X obj 1123 1297 t b b;
#X msg 1254 1348 3;
#X msg 1183 1363 0;
#X obj 1231 1304 t b b;
#X msg 1146 1341 7;
#X obj 1075 1334 delay 50;
#X obj 1183 1341 delay 50;
#X obj 1522 845 change -1;
#X text 1463 748 knob 2 selects beat accent;
#X text 1158 922 reset counter on midi start;
#X obj 1189 1388 s aux-led-\$1;
#X obj 1086 1388 s aux-led-\$1;
#X obj 1406 849 r accent-\$1;
#X obj 1654 1187 r metrovol-\$1;
#X obj 1543 1268 *~;
#X obj 1523 1155 catch~ samp_voice_out;
#X obj 1274 1237 sampler-voice metro1.wav 0;
#X obj 1502 1363 throw~ outL;
#X obj 1612 1363 throw~ outR;
#X obj 1274 1291 sampler-voice metro2.wav 6;
#X obj 1660 1224 / 90;
#X connect 0 0 4 0;
#X connect 0 0 32 1;
#X connect 1 0 30 0;
#X connect 1 0 29 0;
#X connect 1 0 4 1;
#X connect 2 0 3 0;
#X connect 3 0 8 0;
#X connect 4 0 31 0;
#X connect 5 0 0 0;
#X connect 6 0 11 0;
#X connect 7 0 89 0;
#X connect 8 0 90 0;
#X connect 9 0 8 1;
#X connect 9 0 10 0;
#X connect 10 0 7 1;
#X connect 11 0 1 0;
#X connect 14 0 16 0;
#X connect 15 0 17 0;
#X connect 21 0 18 0;
#X connect 22 0 19 0;
#X connect 24 0 43 0;
#X connect 25 0 26 0;
#X connect 29 0 32 0;
#X connect 29 1 36 0;
#X connect 30 0 7 0;
#X connect 31 0 85 0;
#X connect 31 0 86 0;
#X connect 32 0 39 0;
#X connect 33 0 34 0;
#X connect 34 0 35 0;
#X connect 34 0 39 1;
#X connect 35 0 30 1;
#X connect 35 0 31 1;
#X connect 36 0 88 0;
#X connect 38 0 36 1;
#X connect 39 0 82 0;
#X connect 40 0 2 0;
#X connect 43 0 25 0;
#X connect 44 0 43 1;
#X connect 47 0 48 0;
#X connect 49 0 47 0;
#X connect 50 0 21 0;
#X connect 50 0 22 0;
#X connect 50 0 14 0;
#X connect 50 0 15 0;
#X connect 50 0 23 0;
#X connect 50 0 83 0;
#X connect 51 0 52 0;
#X connect 51 1 66 0;
#X connect 52 0 50 0;
#X connect 53 0 59 0;
#X connect 53 0 70 0;
#X connect 54 0 74 0;
#X connect 55 0 53 0;
#X connect 56 0 68 0;
#X connect 56 0 87 0;
#X connect 57 0 61 1;
#X connect 58 0 56 0;
#X connect 59 0 60 0;
#X connect 60 0 65 0;
#X connect 61 0 52 1;
#X connect 61 0 73 0;
#X connect 62 0 75 1;
#X connect 63 0 74 1;
#X connect 64 0 74 1;
#X connect 65 0 69 0;
#X connect 66 0 67 0;
#X connect 67 0 55 0;
#X connect 68 0 58 1;
#X connect 69 0 58 0;
#X connect 70 0 54 0;
#X connect 71 0 63 0;
#X connect 72 0 62 0;
#X connect 74 0 61 0;
#X connect 75 0 57 0;
#X connect 76 0 75 1;
#X connect 77 0 79 0;
#X connect 78 0 77 0;
#X connect 79 0 69 1;
#X connect 80 0 79 0;
#X connect 81 0 51 0;
#X connect 84 0 81 0;
#X connect 87 0 75 0;
#X connect 88 0 37 0;
#X connect 88 0 91 0;
#X connect 89 0 13 0;
#X connect 89 0 91 0;
#X connect 90 0 12 0;
#X connect 90 0 91 0;
#X connect 92 0 128 0;
#X connect 93 0 131 0;
#X connect 94 0 101 0;
#X connect 95 0 92 0;
#X connect 95 0 98 0;
#X connect 96 0 102 0;
#X connect 96 0 104 0;
#X connect 97 0 96 0;
#X connect 98 0 93 0;
#X connect 98 0 112 0;
#X connect 98 1 115 0;
#X connect 101 0 97 0;
#X connect 102 0 96 1;
#X connect 103 0 104 1;
#X connect 104 0 95 0;
#X connect 105 0 119 0;
#X connect 106 0 105 0;
#X connect 108 0 109 0;
#X connect 108 1 103 0;
#X connect 109 0 103 0;
#X connect 111 0 123 0;
#X connect 112 0 117 0;
#X connect 112 1 116 0;
#X connect 113 0 122 0;
#X connect 114 0 122 0;
#X connect 115 0 118 0;
#X connect 115 1 113 0;
#X connect 116 0 123 0;
#X connect 117 0 111 0;
#X connect 118 0 114 0;
#X connect 119 0 107 0;
#X connect 124 0 108 0;
#X connect 125 0 132 0;
#X connect 126 0 129 0;
#X connect 126 0 130 0;
#X connect 127 0 126 0;
#X connect 132 0 126 1;
#X restore 577 181 pd metro;
#X text 704 214 Master Metro Module. Only use one for each Modular
Patch. Sends 24 ticks per Beat (master-ticks). Sends a Beat count relative
to set time signature (master-beats). master-timeSig sends how many
beats in a measure to use in other modules;
#X obj 481 717 s master-bpm;
#X obj 490 465 i;
#X obj 672 465 i;
#X obj 803 465 i;
#X text 992 163 update row 5 only if active module;
#X obj 679 121 r c_bpm-\$1;
#X msg 490 541 set Tempo \$1 BPM MIDI \;;
#X msg 672 541 set Tempo \$1 BPM \;;
#X msg 803 541 set Tempo \$1 BPM LINK \;;
#X obj 490 503 t b f;
#X obj 672 503 t b f;
#X obj 803 503 t b f;
#X obj 636 680 s aux-label-\$1;
#X obj 588 380 f;
#X obj 673 350 r loadbang-global;
#X obj 834 308 r c_swing8-\$1;
#X obj 944 309 r c_swing16-\$1;
#X obj 1062 311 r c_bpm-\$1;
#X obj 1058 332 expr 1000/($f1/60);
#X obj 1050 359 / 2;
#X obj 1001 366 / 4;
#X obj 935 522 s delay8-\$1;
#X obj 1032 520 s delay16-\$1;
#X obj 1047 394 t b f;
#X obj 972 399 t b f;
#X obj 1018 426 f 0;
#X obj 953 439 f 0;
#X obj 954 467 *;
#X obj 862 355 / 100;
#X obj 922 354 / 100;
#X obj 1040 469 *;
#X floatatom 1043 493 5 0 0 0 - - -, f 5;
#X floatatom 947 492 5 0 0 0 - - -, f 5;
#X obj 23 112 KontrolModule \$1 U-clockswing;
#X obj 181 35 print loaded:clockswing into \$1, f 35;
#X obj 838 370 nbx 5 14 -1e+37 1e+37 0 0 empty empty empty 0 -8 0 10
-262144 -1 -1 0 256;
#X obj 1117 374 nbx 5 14 -1e+37 1e+37 0 0 empty empty empty 0 -8 0
10 -262144 -1 -1 500 256;
#X obj 803 437 spigot;
#X obj 674 441 spigot;
#X obj 490 439 spigot;
#X obj 355 672 s aux-label-\$1;
#X obj 537 38 tgl 15 0 empty empty empty 17 7 0 10 -262144 -1 -1 0
1;
#X obj 534 8 sel 1;
#X msg 580 135 0;
#X text 839 705 to pd metro;
#X msg 719 650 TEMPO 114 BPM;
#X msg 384 577 Clock Stopped;
#X msg 260 570 Clock Runnning;
#X text 397 156 aux button stops clock;
#X obj 157 683 s aux-label-\$1;
#X obj 296 701 s aux-label-\$1;
#X msg 169 650 Aux to Start/Stop;
#X obj 185 619 delay 2000;
#X obj 537 95 sel 0;
#X obj 584 108 sel 1;
#X connect 0 0 1 0;
#X connect 2 0 6 0;
#X connect 2 0 5 0;
#X connect 3 0 51 0;
#X connect 4 0 52 0;
#X connect 4 0 16 0;
#X connect 4 0 69 0;
#X connect 6 0 3 0;
#X connect 7 0 9 0;
#X connect 8 0 10 0;
#X connect 11 0 60 0;
#X connect 14 0 16 0;
#X connect 16 0 31 0;
#X connect 16 0 57 0;
#X connect 16 1 31 0;
#X connect 16 1 56 0;
#X connect 16 2 31 0;
#X connect 16 2 55 0;
#X connect 19 0 27 0;
#X connect 20 0 28 0;
#X connect 21 0 29 0;
#X connect 23 0 16 1;
#X connect 24 0 63 0;
#X connect 25 0 63 0;
#X connect 26 0 63 0;
#X connect 27 0 63 0;
#X connect 27 1 24 0;
#X connect 28 0 63 0;
#X connect 28 1 25 0;
#X connect 29 0 63 0;
#X connect 29 1 26 0;
#X connect 31 0 18 0;
#X connect 32 0 31 0;
#X connect 33 0 46 0;
#X connect 33 0 53 0;
#X connect 34 0 47 0;
#X connect 35 0 36 0;
#X connect 36 0 37 0;
#X connect 36 0 38 0;
#X connect 36 0 54 0;
#X connect 37 0 41 0;
#X connect 38 0 42 0;
#X connect 41 0 43 0;
#X connect 41 1 48 1;
#X connect 42 0 44 0;
#X connect 42 1 45 1;
#X connect 43 0 48 0;
#X connect 44 0 45 0;
#X connect 45 0 50 0;
#X connect 46 0 44 0;
#X connect 47 0 43 0;
#X connect 48 0 49 0;
#X connect 49 0 40 0;
#X connect 50 0 39 0;
#X connect 55 0 21 0;
#X connect 56 0 20 0;
#X connect 57 0 19 0;
#X connect 59 0 71 0;
#X connect 59 0 72 0;
#X connect 60 0 59 0;
#X connect 61 0 16 0;
#X connect 63 0 30 0;
#X connect 64 0 58 0;
#X connect 65 0 68 0;
#X connect 69 0 67 0;
#X connect 70 0 69 0;
#X connect 71 0 14 0;
#X connect 71 0 65 0;
#X connect 71 0 70 0;
#X connect 72 0 61 0;
#X connect 72 0 64 0;
#X connect 72 0 70 0;
