#N canvas 103 52 1360 725 10;
#X obj 476 35 random 1024;
#X obj 500 114 / 1024;
#X obj 505 141 nbx 5 14 -1e+037 1e+037 0 0 empty empty empty 0 -8 0
10 -262144 -1 -1 0 256;
#X obj 510 71 - 512;
#X obj 516 190 +;
#X obj 579 191 * 0.99;
#X obj 395 115 hsl 64 15 0 1 0 0 empty empty empty -2 -8 0 10 -262144
-1 -1 0 1;
#X obj 652 76 hsl 64 15 0 0.99 0 0 empty empty empty -2 -8 0 10 -262144
-1 -1 0 1;
#X obj 666 130 * 0.1;
#X obj 496 462 nbx 5 14 -1e+037 1e+037 0 0 empty empty empty 0 -8 0
10 -262144 -1 -1 0 256;
#X obj 491 521 change -1;
#X msg 497 553 49 3 19 \$1;
#X obj 516 342 / 2;
#X obj 724 341 / 2;
#X obj 533 260 clip -1 1;
#X obj 526 290 + 1;
#X obj 499 440 + \$1;
#X obj 492 599 s sysex-\$3;
#X obj 858 415 append;
#X obj 679 467 list prepend \$5;
#X obj 502 500 int;
#X obj 683 420 list prepend \$6;
#X obj 674 501 list prepend \$4;
#X obj 469 0 bng 15 250 50 0 empty empty empty 17 7 0 10 -262144 -1
-1;
#X obj 558 4 r randclock-\$3;
#X obj 213 38 cnv 15 100 60 empty empty empty 20 12 0 14 -233017 -66577
0;
#X floatatom 107 114 5 0 0 0 - - -, f 5;
#X obj 109 170 hsl 128 15 0 1 0 0 empty empty empty -2 -8 0 10 -262144
-1 -1 0 1;
#X obj 111 131 hsl 128 15 0 1 0 0 empty empty empty -2 -8 0 10 -262144
-1 -1 0 1;
#X obj 107 151 nbx 5 14 -1e+037 1e+037 0 0 empty empty empty 0 -8 0
10 -262144 -1 -1 0 256;
#X obj 108 198 nbx 5 14 -1e+037 1e+037 0 0 empty empty empty 0 -8 0
10 -262144 -1 -1 0 256;
#X obj 349 143 * \$2;
#X obj 346 163 + \$1;
#X obj 383 218 * \$2;
#X obj 379 258 + \$1;
#X obj 515 369 t f b;
#X obj 609 346 f \$2;
#X obj 589 415 - \$1;
#X obj 501 413 *;
#X connect 0 0 3 0;
#X connect 1 0 2 0;
#X connect 2 0 8 0;
#X connect 3 0 1 0;
#X connect 4 0 14 0;
#X connect 5 0 4 1;
#X connect 6 0 8 1;
#X connect 7 0 5 1;
#X connect 8 0 4 0;
#X connect 9 0 20 0;
#X connect 10 0 11 0;
#X connect 10 0 21 0;
#X connect 10 0 26 0;
#X connect 12 0 35 0;
#X connect 14 0 5 0;
#X connect 14 0 15 0;
#X connect 15 0 12 0;
#X connect 16 0 9 0;
#X connect 19 0 22 0;
#X connect 20 0 10 0;
#X connect 21 0 19 0;
#X connect 22 0 17 0;
#X connect 23 0 0 0;
#X connect 24 0 0 0;
#X connect 27 0 33 0;
#X connect 28 0 31 0;
#X connect 31 0 32 0;
#X connect 32 0 29 0;
#X connect 32 0 16 1;
#X connect 32 0 37 1;
#X connect 33 0 34 0;
#X connect 34 0 30 0;
#X connect 34 0 36 1;
#X connect 35 0 38 0;
#X connect 35 1 36 0;
#X connect 36 0 37 0;
#X connect 37 0 38 1;
#X connect 38 0 16 0;
#X coords 0 -1 1 1 150 120 1 100 100;
