#N canvas -4 0 1360 716 10;
#X obj 815 316;
#X obj 24 24 opctrl \$1 0;
#N canvas 308 61 450 300 midi 0;
#X obj 187 318 midiout;
#X msg 8 55 240 \, 67 \, 16 \, 127 \, 28 \, 5 \, 48 \, 0 \, 16 \, 0
\, 247;
#X msg 82 119 240 \, 67 \, 16 \, 127 \, 28 \, 5 \, 48 \, 0 \, 16 \,
\$1 \, 247;
#X obj 85 87 nbx 5 14 -1e+037 1e+037 0 0 empty empty empty 0 -8 0 10
-262144 -1 -1 0 256;
#X msg 252 192 240 \, 67 \, 16 \, 127 \, 28 \, 5 \, \$1 \, \$2 \, \$3
\, \$4 \, 247;
#X msg 334 278 1;
#X obj 332 251 r loadbang-\$0;
#X obj 405 -22 r sysex-0;
#X obj 340 -44 r sysex-\$1;
#X connect 1 0 0 0;
#X connect 2 0 0 0;
#X connect 3 0 2 0;
#X connect 4 0 0 0;
#X connect 5 0 0 1;
#X connect 6 0 5 0;
#X connect 7 0 4 0;
#X connect 8 0 4 0;
#X restore 1269 273 pd midi;
#X obj 1162 374 sysmaster \$1;
#X obj 1139 251 s driftspeed-0;
#X obj 1183 182 hsl 128 15 0 1 0 0 empty empty empty -2 -8 0 10 -262144
-1 -1 0 1;
#X obj 1189 226 nbx 5 14 -1e+037 1e+037 0 0 empty empty empty 0 -8
0 10 -262144 -1 -1 0 256;
#X obj 1178 310 bng 15 250 50 0 empty empty empty 17 7 0 10 -262144
-1 -1;
#X obj 1180 338 s loadbang-0;
#X obj 1172 281 loadbang;
#X obj 1105 39 sysctrl lfotyp 0 6 \$1 48 0 17 0 6;
#X obj 926 28 sysctrl lfospd 0 127 \$1 48 0 18 0 127;
#X obj 969 261 sysctrl fx1type 0 7 \$1 48 0 29 0 7;
#X obj 926 97 sysctrl pmd 0 127 \$1 48 0 20 0 10;
#X obj 951 165 sysctrl algo 0 12 \$1 48 0 16 0 12;
#X obj 966 329 sysctrl fx1p1 0 127 \$1 48 0 30 0 127;
#X obj 963 398 sysctrl fx1p2 0 127 \$1 48 0 31 0 127;
#X obj 955 463 sysctrl fx2type 0 7 \$1 48 0 32 0 7;
#X obj 952 533 sysctrl fx2p1 0 127 \$1 48 0 33 0 127;
#X obj 950 599 sysctrl fx2p2 0 127 \$1 48 0 34 0 127;
#X obj 21 191 opctrl \$1 1;
#X obj 26 349 opctrl \$1 2;
#X obj 26 505 opctrl \$1 3;
#X connect 5 0 6 0;
#X connect 6 0 4 0;
#X connect 7 0 8 0;
#X connect 9 0 7 0;
