#N canvas 0 104 1356 714 10;
#X obj 498 47 random 1024;
#X obj 500 114 / 1024;
#X obj 505 141 nbx 5 14 -1e+037 1e+037 0 0 empty empty empty 0 -8 0
10 -262144 -1 -1 -0.172852 256;
#X obj 510 71 - 512;
#X obj 516 190 +;
#X obj 579 191 * 0.99;
#X obj 395 115 hsl 64 15 0 1 0 0 empty empty empty -2 -8 0 10 -262144
-1 -1 0 1;
#X obj 652 76 hsl 64 15 0 0.99 0 0 empty empty empty -2 -8 0 10 -262144
-1 -1 0 1;
#X obj 516 168 * 0.1;
#X obj 496 462 nbx 5 14 -1e+037 1e+037 0 0 empty empty empty 0 -8 0
10 -262144 -1 -1 3.40234 256;
#X obj 491 521 change -1;
#X msg 497 553 49 3 19 \$1;
#X obj 516 342 / 2;
#X obj 533 260 clip -1 1;
#X obj 526 290 + 1;
#X obj 502 500 int;
#X obj 469 0 bng 15 250 50 0 empty empty empty 17 7 0 10 -262144 -1
-1;
#X obj 213 38 cnv 15 100 60 empty empty empty 20 12 0 14 -233017 -66577
0;
#X floatatom 235 142 4 0 0 0 - - -, f 4;
#X obj 110 141 hsl 80 15 0 1 0 1 empty empty empty -2 -8 0 10 -262144
-1 -1 7900 1;
#X obj 110 121 hsl 80 15 0 1 0 0 empty empty \$1 -2 -8 0 10 -262144
-1 -1 0 1;
#X obj 196 122 nbx 3 14 -1e+037 1e+037 0 0 empty empty empty 0 -8 0
10 -262144 -1 -1 0 256;
#X obj 196 141 nbx 3 14 -1e+037 1e+037 0 0 empty empty empty 0 -8 0
10 -262144 -1 -1 6 256;
#X obj 515 369 t f b;
#X obj 501 413 *;
#X obj 47 215 + \$2;
#X obj 50 195 * \$3;
#X obj 536 4 r randclock-\$4;
#X obj 128 190 * \$3;
#X obj 129 213 + \$2;
#X obj 575 399 f \$3;
#X obj 499 440 + \$2;
#X obj 683 420 list prepend \$7;
#X obj 679 467 list prepend \$6;
#X obj 674 501 list prepend \$5;
#X obj 492 599 s sysex-\$4;
#X obj 242 124 tgl 15 0 empty empty empty 17 7 0 10 -262144 -1 -1 0
1;
#X obj 536 23 spigot 0;
#X obj 188 103 tgl 15 0 empty empty empty 17 7 0 10 -262144 -1 -1 0
1;
#X obj 719 11 r randjump-\$4;
#X obj 809 98 random 1024;
#X obj 821 122 - 512;
#X obj 811 165 / 512;
#X obj 724 44 spigot 0;
#X obj 69 34 r drift_all-\$4;
#X obj 62 63 r rand_all-\$4;
#X obj 208 103 bng 15 250 50 0 empty empty empty 17 7 0 10 -262144
-1 -1;
#X obj 566 443 + 0.5;
#X obj 576 128 r driftspeed-\$4;
#X obj 325 152 r loadbang-\$4;
#X obj 157 253 int;
#X obj 43 248 int;
#X obj 319 222 / \$3;
#X obj 372 225 / \$3;
#X obj 324 190 i \$8;
#X obj 368 194 i \$9;
#X obj 449 181 bng 15 250 50 0 empty empty empty 17 7 0 10 -262144
-1 -1;
#X obj 69 14 r \$1-\$4;
#X obj 339 44 spigot 0;
#X obj 320 5 r drift-\$4;
#X obj 97 324 r min-\$4;
#X obj 27 319 r max-\$4;
#X obj 101 347 spigot 0;
#X obj 31 339 spigot 0;
#X connect 0 0 3 0;
#X connect 1 0 2 0;
#X connect 2 0 8 0;
#X connect 3 0 1 0;
#X connect 4 0 13 0;
#X connect 5 0 4 1;
#X connect 6 0 8 1;
#X connect 7 0 5 1;
#X connect 8 0 4 0;
#X connect 9 0 15 0;
#X connect 10 0 11 0;
#X connect 10 0 18 0;
#X connect 10 0 32 0;
#X connect 12 0 23 0;
#X connect 13 0 5 0;
#X connect 13 0 14 0;
#X connect 14 0 12 0;
#X connect 15 0 10 0;
#X connect 16 0 0 0;
#X connect 19 0 28 0;
#X connect 20 0 26 0;
#X connect 23 0 24 0;
#X connect 23 1 30 0;
#X connect 24 0 31 0;
#X connect 25 0 31 1;
#X connect 25 0 51 0;
#X connect 26 0 25 0;
#X connect 27 0 37 0;
#X connect 28 0 29 0;
#X connect 29 0 30 1;
#X connect 29 0 50 0;
#X connect 30 0 47 0;
#X connect 31 0 9 0;
#X connect 32 0 33 0;
#X connect 33 0 34 0;
#X connect 34 0 35 0;
#X connect 36 0 37 1;
#X connect 37 0 0 0;
#X connect 38 0 43 1;
#X connect 38 0 58 1;
#X connect 39 0 43 0;
#X connect 40 0 41 0;
#X connect 41 0 42 0;
#X connect 42 0 13 0;
#X connect 43 0 40 0;
#X connect 44 0 36 0;
#X connect 45 0 38 0;
#X connect 46 0 40 0;
#X connect 47 0 24 1;
#X connect 48 0 8 1;
#X connect 49 0 54 0;
#X connect 49 0 55 0;
#X connect 49 0 56 0;
#X connect 50 0 22 0;
#X connect 51 0 21 0;
#X connect 52 0 20 0;
#X connect 53 0 19 0;
#X connect 54 0 52 0;
#X connect 55 0 53 0;
#X connect 57 0 38 0;
#X connect 57 0 62 1;
#X connect 57 0 63 1;
#X connect 58 0 36 0;
#X connect 59 0 58 0;
#X connect 60 0 62 0;
#X connect 61 0 63 0;
#X connect 62 0 19 0;
#X connect 63 0 19 0;
#X coords 0 -1 1 1 170 60 2 100 100;
