#N canvas 366 13 1364 725 10;
#X obj 105 317 bng 15 250 50 0 empty empty random 17 7 0 10 -262144
-1 -1;
#X obj 482 198 s randjump-\$1;
#X obj 392 360 metro 250;
#X obj 388 403 s randclock-\$1;
#X msg 486 279 1000;
#X msg 438 270 200;
#X msg 417 317 0;
#X obj 571 60 cnv 15 100 60 empty empty empty 20 12 0 14 -233017 -66577
0;
#X obj 106 122 tgl 15 0 empty empty drift-on 17 7 0 10 -262144 -1 -1
1 1;
#X obj 105 189 tgl 15 0 empty empty all 17 7 0 10 -262144 -1 -1 1 1
;
#X obj 107 144 tgl 15 0 empty empty drift-all 17 7 0 10 -262144 -1
-1 0 1;
#X obj 197 499 s rand_all-\$1;
#X obj 718 218 loadbang;
#X obj 726 275 s loadbang-\$1;
#X obj 332 66 fx-all;
#X obj 120 211 tgl 15 0 empty empty fx 17 7 0 10 -262144 -1 -1 0 1
;
#X obj 532 530 s fx1type-\$1;
#X obj 533 550 s fx1p1-\$1;
#X obj 531 572 s fx1p2-\$1;
#X obj 671 534 s fx2type-\$1;
#X obj 673 551 s fx2p1-\$1;
#X obj 670 576 s fx2p2-\$1;
#X obj 139 250 tgl 15 0 empty empty coarse 17 7 0 10 -262144 -1 -1
0 1;
#X obj 137 269 tgl 15 0 empty empty fine 17 7 0 10 -262144 -1 -1 0
1;
#X text 108 171 select;
#X obj 105 337 tgl 15 0 empty empty drift 17 7 0 10 -262144 -1 -1 1
1;
#X obj 245 461 s drift_all-\$1;
#X obj 19 452 s drift-\$1;
#X obj 108 377 hsl 75 15 0 1 0 1 empty empty empty -2 -8 0 10 -262144
-1 -1 7400 1;
#X obj 108 355 hsl 75 15 0 1 0 0 empty empty empty -2 -8 0 10 -262144
-1 -1 0 1;
#X obj 85 501 s min-\$1;
#X obj 59 564 s max-\$1;
#X obj 178 556 opsend \$1 coarse;
#X obj 178 585 opsend \$1 fine;
#X obj 120 232 tgl 15 0 empty empty op 17 7 0 10 -262144 -1 -1 1 1
;
#X obj 361 560 opsend \$1 level;
#X obj 358 585 opsend \$1 detune;
#X obj 356 605 opsend \$1 fb;
#X obj 351 634 opsend \$1 lfodep;
#X obj 138 287 tgl 15 0 empty empty detune 17 7 0 10 -262144 -1 -1
1 1;
#X obj 662 369 opsend \$1 peg;
#X obj 659 394 opsend \$1 fmode;
#X obj 657 414 opsend \$1 pmd;
#X obj 657 442 opsend \$1 fbtype;
#X obj 346 184 o;
#X obj 139 306 tgl 15 0 empty empty 0/1 17 7 0 10 -262144 -1 -1 0 1
;
#X connect 0 0 1 0;
#X connect 2 0 3 0;
#X connect 4 0 2 1;
#X connect 5 0 2 1;
#X connect 6 0 2 0;
#X connect 8 0 2 0;
#X connect 9 0 11 0;
#X connect 9 0 15 0;
#X connect 9 0 22 0;
#X connect 9 0 23 0;
#X connect 9 0 34 0;
#X connect 10 0 26 0;
#X connect 12 0 13 0;
#X connect 15 0 16 0;
#X connect 15 0 17 0;
#X connect 15 0 18 0;
#X connect 15 0 19 0;
#X connect 15 0 20 0;
#X connect 15 0 21 0;
#X connect 22 0 32 0;
#X connect 23 0 33 0;
#X connect 25 0 27 0;
#X connect 28 0 31 0;
#X connect 29 0 30 0;
#X connect 34 0 22 0;
#X connect 34 0 23 0;
#X connect 34 0 35 0;
#X connect 34 0 37 0;
#X connect 34 0 38 0;
#X connect 34 0 39 0;
#X connect 34 0 45 0;
#X connect 39 0 36 0;
#X connect 45 0 40 0;
#X connect 45 0 41 0;
#X connect 45 0 42 0;
#X connect 45 0 43 0;
#X coords 0 -1 1 1 100 300 1 100 100;
