#N canvas 334 300 1077 554 10;
#X obj 142 39 inlet aux;
#N canvas 6 50 1163 752 print-grid 0;
#X obj 606 425 s oscOut;
#X msg 566 355 /oled/gFlip 3;
#X msg 655 328 /oled/gFillArea 3 0 8 128 56 0;
#X text 480 480 Line \, start x \, y \, end x \, y \, color (0 or 1)
;
#X obj 370 249 f;
#X obj 403 249 + 1;
#X obj 370 214 until;
#X msg 414 215 0;
#X obj 370 179 t a b;
#X msg 370 156 6;
#X obj 370 271 * 11;
#X msg 351 353 /oled/gLine 3 0 \$1 127 \$1 1;
#X obj 370 293 + 8;
#X msg 745 361 /oled/gClear 3 1;
#X obj 457 243 f;
#X obj 490 243 + 1;
#X obj 457 208 until;
#X msg 501 209 0;
#X obj 457 173 t a b;
#X msg 457 150 3;
#X msg 459 315 /oled/gLine 3 \$1 9 \$1 63 1;
#X obj 457 288 min 127;
#X obj 458 264 * 64;
#X obj 406 101 t b b b b;
#X obj 431 49 inlet;
#X connect 1 0 0 0;
#X connect 2 0 0 0;
#X connect 4 0 5 0;
#X connect 4 0 10 0;
#X connect 5 0 4 1;
#X connect 6 0 4 0;
#X connect 7 0 4 1;
#X connect 8 0 6 0;
#X connect 8 1 7 0;
#X connect 9 0 8 0;
#X connect 10 0 12 0;
#X connect 11 0 0 0;
#X connect 12 0 11 0;
#X connect 13 0 0 0;
#X connect 14 0 15 0;
#X connect 14 0 22 0;
#X connect 15 0 14 1;
#X connect 16 0 14 0;
#X connect 17 0 14 1;
#X connect 18 0 16 0;
#X connect 18 1 17 0;
#X connect 19 0 18 0;
#X connect 20 0 0 0;
#X connect 21 0 20 0;
#X connect 22 0 21 0;
#X connect 23 0 1 0;
#X connect 23 1 9 0;
#X connect 23 2 19 0;
#X connect 23 3 2 0;
#X connect 24 0 23 0;
#X restore 223 279 pd print-grid;
#X obj 142 173 sel 1 0, f 16;
#X obj 433 330 route 61 63 66 68 70 73 75 78 80 82, f 81;
#X text 204 201 go back to home screen;
#N canvas 905 441 871 385 re-print 0;
#X obj 96 30 inlet;
#X text 614 82 clear the screen;
#X msg 88 89 /oled/gFillArea 3 0 8 128 56 0;
#X obj 88 111 s oscOut;
#X connect 0 0 2 0;
#X connect 2 0 3 0;
#X restore 196 218 pd re-print;
#X obj 433 20 inlet notes;
#X obj 567 132 ==;
#N canvas 5 50 450 300 just-note-offs 0;
#X obj 67 16 inlet;
#X obj 67 38 unpack;
#X obj 67 89 sel 0;
#X obj 67 60 swap, f 6;
#X obj 67 116 f, f 7;
#X obj 67 138 pack 0 0;
#X obj 67 160 outlet;
#X connect 0 0 1 0;
#X connect 1 0 3 0;
#X connect 1 1 3 1;
#X connect 2 0 4 0;
#X connect 3 0 2 0;
#X connect 3 1 4 1;
#X connect 4 0 5 0;
#X connect 5 0 6 0;
#X restore 540 249 pd just-note-offs;
#X obj 514 290 outlet;
#X obj 433 42 t a a, f 12;
#X text 717 310 top line of keys "the black keys";
#X text 668 248 so notes dont get stuck;
#X obj 142 81 t f f f f, f 87;
#X obj 799 214 outlet mute-print;
#X obj 514 169 spigot 1;
#X obj 433 169 spigot 0;
#X obj 142 254 t b b, f 12;
#X obj 142 103 t f f;
#X obj 174 131 s cgSc-\$1-aux;
#X obj 748 151 del 1;
#X obj 748 115 sel 0 1, f 15;
#X msg 748 173 0;
#X msg 799 145 1;
#X obj 142 307 s cgSc-\$1-print!;
#X obj 578 401 sc-module \$1 5;
#X obj 548 432 sc-module \$1 4;
#X obj 507 456 sc-module \$1 3;
#X obj 469 484 sc-module \$1 2;
#X obj 429 509 sc-module \$1 1;
#X obj 716 487 sc-module \$1 6;
#X obj 758 462 sc-module \$1 7;
#X obj 794 435 sc-module \$1 8;
#X obj 876 391 sc-module \$1 9;
#X obj 918 362 sc-module \$1 10;
#X connect 0 0 13 0;
#X connect 2 0 17 0;
#X connect 2 1 5 0;
#X connect 3 0 29 0;
#X connect 3 1 28 0;
#X connect 3 2 27 0;
#X connect 3 3 26 0;
#X connect 3 4 25 0;
#X connect 3 5 30 0;
#X connect 3 6 31 0;
#X connect 3 7 32 0;
#X connect 3 8 33 0;
#X connect 3 9 34 0;
#X connect 6 0 10 0;
#X connect 7 0 15 1;
#X connect 8 0 9 0;
#X connect 10 0 16 0;
#X connect 10 1 15 0;
#X connect 13 0 18 0;
#X connect 13 1 16 1;
#X connect 13 2 7 0;
#X connect 13 3 21 0;
#X connect 15 0 9 0;
#X connect 16 0 3 0;
#X connect 16 0 8 0;
#X connect 17 0 24 0;
#X connect 17 1 1 0;
#X connect 18 0 2 0;
#X connect 18 1 19 0;
#X connect 20 0 22 0;
#X connect 21 0 20 0;
#X connect 21 1 23 0;
#X connect 22 0 14 0;
#X connect 23 0 14 0;
