#N canvas 179 121 1531 923 10;
#X obj 490 668 s notesOut-\$1;
#X obj 23 9 r loaddefs-\$1;
#X msg 23 76 loaddefinitions \$1;
#X obj 181 9 r loadbang-\$1;
#X obj 181 76 print loading definiton for \$1;
#X obj 23 41 symbol;
#X obj 25 186 inlet~ inL-\$1;
#X obj 155 186 inlet~ inR-\$1;
#X obj 27 491 outlet~ outL-\$1;
#X obj 156 491 outlet~ outR-\$1;
#X obj 490 473 r auxIn-\$1;
#X obj 423 208 r expIn-\$1;
#X obj 423 233 r fsIn-\$1;
#X text 595 38 Sequencer2: A simple sequencer Module.;
#X text 584 108 uses the input aux button to start / stop / record
a sequence. Only two inputs needed: (r seq2-\$1-aux) and (r seq2-\$1-notes-in)
, f 43;
#X obj 1117 573 s aux-label-\$1;
#X obj 876 256 s aux-led-\$1;
#X obj 592 579 s \$0-muter;
#X obj 928 430 r master-ticks;
#X obj 876 227 r seq3-1-led;
#X obj 1117 518 route list;
#X obj 1117 446 list append;
#X obj 1117 387 t b a;
#X msg 1117 409 1;
#X obj 1117 468 route 1;
#X obj 881 353 sel 0;
#X obj 1117 496 list prepend Sequence:;
#X obj 928 481 * 15;
#X obj 928 511 i, f 4;
#X obj 928 564 clockfix;
#X obj 881 380 del 1;
#X obj 23 112 KontrolModule \$1 U-seq3-Odub;
#X obj 181 37 print loaded:seq3-Odub into \$1, f 35;
#X obj 782 530 r cgSc-1-slots;
#X obj 592 516 r \$0-reprint-port;
#N canvas 179 85 1042 663 saver 0;
#X obj 276 54 loadbang;
#X obj 588 226 text define slot;
#X obj 276 76 t b b;
#X obj 276 155 text get slot;
#X obj 431 313 text set slot;
#X obj 431 259 t a b;
#X msg 460 288 0;
#X msg 276 98 0;
#X obj 434 50 r cgSc-1-slots;
#X obj 184 225 outlet;
#X obj 276 232 s init-slot;
#X obj 434 76 t b f, f 6;
#X obj 276 120 pipe 5;
#X msg 588 142 read slot.txt;
#X msg 434 106 write slot.txt;
#X connect 0 0 2 0;
#X connect 2 0 7 0;
#X connect 2 1 13 0;
#X connect 3 0 9 0;
#X connect 3 0 10 0;
#X connect 5 0 4 0;
#X connect 5 1 6 0;
#X connect 6 0 4 1;
#X connect 7 0 12 0;
#X connect 8 0 11 0;
#X connect 11 0 14 0;
#X connect 11 1 5 0;
#X connect 12 0 3 0;
#X connect 13 0 1 0;
#X connect 14 0 1 0;
#X restore 810 562 pd saver;
#X obj 490 548 shortcut 1 0 \$1;
#N canvas 577 87 906 682 seq-control 0;
#X obj 139 278 outlet;
#X obj 65 121 t b;
#X msg 65 143 2;
#X obj 298 126 t b;
#X msg 298 148 3;
#X text 437 5 when aux is pressed after recording starts immediatley
end the rec and play the loop;
#X obj 170 70 sel 0;
#X obj 202 94 t b;
#X msg 202 116 1;
#X obj 33 66 r cgSc-1-2;
#X obj 171 48 r cgSc-1-1;
#X obj 33 88 sel 0;
#X obj 266 99 sel 0;
#X obj 317 272 r seq3-1-actions;
#X obj 317 294 sel 1, f 12;
#X obj 398 327 t b, f 4;
#X obj 317 445 s cgSc-1-1label;
#X obj 507 308 r seq3-1-actions;
#X obj 588 353 t b, f 4;
#X obj 507 329 sel 2 3, f 12;
#X obj 733 319 r seq3-1-actions;
#X obj 814 364 t b, f 4;
#X msg 814 409 Latch:Off;
#X msg 733 409 Latch:On;
#X obj 507 441 s cgSc-1-2label;
#X text 521 279 print to the shortcut menu;
#X obj 378 141 f 0;
#X obj 130 0 r midi-start;
#X msg 130 22 4;
#X obj 373 105 r midi-stop;
#X obj 507 125 t b;
#X obj 475 98 sel 0;
#X msg 507 147 5;
#X obj 302 487 r seq3-1-actions;
#X obj 383 532 t b, f 4;
#X obj 302 508 sel 5, f 12;
#X obj 317 373 f;
#X msg 317 403 \$1Seq:Stop;
#X obj 398 372 f;
#X msg 398 402 \$1Seq:Play;
#X msg 507 399 \$1Rec:Armd;
#X msg 588 397 \$1Rec:On;
#X msg 659 398 \$1Rec:Off;
#X obj 507 374 f;
#X obj 582 373 f;
#X obj 649 370 f;
#X obj 383 554 f;
#X obj 302 560 f;
#X msg 302 607 \$1Dub:On;
#X obj 201 287 r cgSc-1-slots;
#X obj 201 329 t b f f;
#X obj 166 439 s seq3-1-actions;
#X obj 166 415 v seq3-1-state;
#X obj 201 309 + 1;
#X obj 668 299 + 1;
#X obj 668 251 r cgSc-1-slots;
#X obj 431 507 + 1;
#X obj 431 483 r cgSc-1-slots;
#X obj 559 76 sel 1;
#X obj 612 80 r seq3-1-actions;
#X obj 559 174 t b b;
#X msg 640 152 0;
#X obj 559 152 spigot 0;
#X msg 612 129 1;
#X msg 559 196 1;
#X obj 302 650 s cgSc-1-3label;
#X obj 475 71 r cgSc-1-3;
#X obj 559 52 r cgSc-1-aux;
#X obj 733 452 s cgSc-1-5label;
#X obj 733 340 sel 4, f 12;
#X obj 267 72 r cgSc-1-5;
#X obj 358 53 t b;
#X obj 326 26 sel 0;
#X obj 327 -1 r cgSc-1-4;
#X msg 358 75 6;
#X obj 575 480 r seq3-1-actions;
#X obj 617 558 f;
#X obj 694 501 + 1;
#X obj 694 477 r cgSc-1-slots;
#X obj 575 643 s cgSc-1-4label;
#X obj 612 104 sel 3, f 12;
#X msg 383 607 \$1Dub:Off;
#X obj 575 501 sel 6, f 10;
#X obj 642 526 t b;
#X obj 575 585 spigot 1;
#X obj 662 582 spigot 0;
#X obj 785 510 r seq3-1-actions;
#X obj 785 532 sel 3;
#X obj 701 537 ==;
#X obj 747 564 f;
#X msg 747 533 1;
#X msg 818 615 0;
#X msg 662 607 \$1:Undo;
#X msg 575 610 \$1:Undid;
#X obj 575 523 t b b;
#X connect 1 0 2 0;
#X connect 2 0 0 0;
#X connect 3 0 4 0;
#X connect 4 0 0 0;
#X connect 6 1 7 0;
#X connect 7 0 8 0;
#X connect 8 0 0 0;
#X connect 9 0 11 0;
#X connect 10 0 6 0;
#X connect 11 1 1 0;
#X connect 12 1 3 0;
#X connect 13 0 14 0;
#X connect 14 0 36 0;
#X connect 14 1 15 0;
#X connect 15 0 38 0;
#X connect 17 0 19 0;
#X connect 18 0 45 0;
#X connect 19 0 43 0;
#X connect 19 1 44 0;
#X connect 19 2 18 0;
#X connect 20 0 69 0;
#X connect 21 0 22 0;
#X connect 22 0 68 0;
#X connect 23 0 68 0;
#X connect 26 0 0 0;
#X connect 27 0 28 0;
#X connect 28 0 0 0;
#X connect 29 0 26 0;
#X connect 30 0 32 0;
#X connect 31 1 30 0;
#X connect 32 0 0 0;
#X connect 33 0 35 0;
#X connect 34 0 46 0;
#X connect 35 0 47 0;
#X connect 35 1 34 0;
#X connect 36 0 37 0;
#X connect 37 0 16 0;
#X connect 38 0 39 0;
#X connect 39 0 16 0;
#X connect 40 0 24 0;
#X connect 41 0 24 0;
#X connect 42 0 24 0;
#X connect 43 0 40 0;
#X connect 44 0 41 0;
#X connect 45 0 42 0;
#X connect 46 0 81 0;
#X connect 47 0 48 0;
#X connect 48 0 65 0;
#X connect 49 0 53 0;
#X connect 50 0 52 0;
#X connect 50 1 36 1;
#X connect 50 2 38 1;
#X connect 52 0 51 0;
#X connect 53 0 50 0;
#X connect 54 0 45 1;
#X connect 54 0 44 1;
#X connect 54 0 43 1;
#X connect 55 0 54 0;
#X connect 56 0 46 1;
#X connect 56 0 47 1;
#X connect 57 0 56 0;
#X connect 58 0 62 0;
#X connect 59 0 80 0;
#X connect 60 0 64 0;
#X connect 60 1 61 0;
#X connect 61 0 62 1;
#X connect 62 0 60 0;
#X connect 63 0 62 1;
#X connect 64 0 0 0;
#X connect 66 0 31 0;
#X connect 67 0 58 0;
#X connect 69 0 23 0;
#X connect 69 1 21 0;
#X connect 70 0 12 0;
#X connect 71 0 74 0;
#X connect 72 1 71 0;
#X connect 73 0 72 0;
#X connect 74 0 0 0;
#X connect 75 0 82 0;
#X connect 76 0 84 0;
#X connect 76 0 85 0;
#X connect 77 0 76 1;
#X connect 78 0 77 0;
#X connect 80 0 63 0;
#X connect 81 0 65 0;
#X connect 82 0 94 0;
#X connect 82 1 83 0;
#X connect 83 0 76 0;
#X connect 84 0 93 0;
#X connect 85 0 92 0;
#X connect 86 0 87 0;
#X connect 87 0 90 0;
#X connect 88 0 84 1;
#X connect 89 0 88 0;
#X connect 89 0 85 1;
#X connect 90 0 89 0;
#X connect 91 0 89 0;
#X connect 92 0 79 0;
#X connect 93 0 79 0;
#X connect 94 0 76 0;
#X connect 94 1 91 0;
#X restore 696 487 pd seq-control;
#X obj 1000 119 r seq3-1-actions;
#X obj 1000 181 sel 0 1 2 3 4 5 6, f 47;
#X msg 1045 229 Playing;
#X msg 1000 203 Stopped;
#X obj 1125 330 symbol;
#X msg 1074 205 Armed;
#X msg 1124 226 Recording;
#X msg 1315 248 Undo;
#X msg 1185 206 Latched;
#X msg 1274 216 Overdub;
#X obj 490 615 seq3-Overdub 1 1 sequences 1 \$1, f 63;
#X obj 1117 541 spigot 0;
#X obj 1054 529 ==;
#X connect 1 0 5 0;
#X connect 1 0 4 0;
#X connect 2 0 31 0;
#X connect 3 0 32 0;
#X connect 5 0 2 0;
#X connect 6 0 8 0;
#X connect 7 0 9 0;
#X connect 10 0 25 0;
#X connect 10 0 36 0;
#X connect 10 0 50 0;
#X connect 18 0 27 0;
#X connect 19 0 16 0;
#X connect 20 0 49 0;
#X connect 21 0 24 0;
#X connect 22 0 23 0;
#X connect 22 1 21 1;
#X connect 23 0 21 0;
#X connect 24 0 26 0;
#X connect 25 0 30 0;
#X connect 26 0 20 0;
#X connect 27 0 28 0;
#X connect 28 0 29 0;
#X connect 29 0 48 3;
#X connect 30 0 23 0;
#X connect 33 0 48 2;
#X connect 34 0 36 1;
#X connect 35 0 48 2;
#X connect 36 0 48 0;
#X connect 36 1 17 0;
#X connect 37 0 48 1;
#X connect 38 0 39 0;
#X connect 39 0 41 0;
#X connect 39 1 40 0;
#X connect 39 2 43 0;
#X connect 39 3 44 0;
#X connect 39 4 46 0;
#X connect 39 5 47 0;
#X connect 39 6 45 0;
#X connect 40 0 42 0;
#X connect 41 0 42 0;
#X connect 42 0 22 0;
#X connect 43 0 42 0;
#X connect 44 0 42 0;
#X connect 45 0 42 0;
#X connect 46 0 42 0;
#X connect 47 0 42 0;
#X connect 48 0 0 0;
#X connect 49 0 15 0;
#X connect 50 0 49 1;
