#N canvas 253 248 1351 720 10;
#X obj 304 186 r notesIn-\$1;
#X obj 304 491 s notesOut-\$1;
#X obj 23 9 r loaddefs-\$1;
#X msg 23 76 loaddefinitions \$1;
#X obj 181 9 r loadbang-\$1;
#X obj 181 76 print loading definiton for \$1;
#X obj 23 41 symbol;
#X obj 25 186 inlet~ inL-\$1;
#X obj 135 186 inlet~ inR-\$1;
#X obj 27 491 outlet~ outL-\$1;
#X obj 136 491 outlet~ outR-\$1;
#X obj 424 185 r auxIn-\$1;
#X obj 423 208 r expIn-\$1;
#X obj 423 233 r fsIn-\$1;
#X text 446 35 C&G basic polyphonic patch with 8 voices;
#X obj 29 406 +~;
#X obj 137 407 +~;
#X obj 747 242 micro_master \$1;
#X obj 632 306 r microtuning-label-\$1;
#X obj 682 360 s aux-label-\$1;
#X obj 24 112 KontrolModule \$1 U-micro;
#X obj 179 36 print loaded:microtonal into \$1, f 35;
#X obj 306 247 unpack 0 0;
#X obj 321 389 pack 0 0;
#X obj 272 303 mtom_micro \$1;
#X connect 0 0 22 0;
#X connect 2 0 6 0;
#X connect 2 0 5 0;
#X connect 3 0 20 0;
#X connect 4 0 21 0;
#X connect 6 0 3 0;
#X connect 7 0 15 0;
#X connect 8 0 16 0;
#X connect 15 0 9 0;
#X connect 16 0 10 0;
#X connect 18 0 19 0;
#X connect 22 0 24 0;
#X connect 22 1 23 1;
#X connect 23 0 1 0;
#X connect 24 0 23 0;
