#N canvas 1496 149 1489 842 10;
#X obj 186 8 inlet;
#X obj 186 54 unpack f f, f 21;
#X obj 441 588 *~;
#X obj 484 794 outlet~;
#X obj 992 222 sel 0;
#X obj 1010 424 vline~;
#X msg 398 651 reset;
#X obj 77 349 *~;
#X obj 1011 470 *~;
#X obj 515 645 r~ as-\$1-cutoff-local;
#X obj 441 552 *~ 1;
#X obj 484 767 hip~ 5;
#X obj 485 698 moog~;
#X obj 187 215 sig~;
#X obj 187 163 +;
#X obj 187 185 mtof;
#X obj 99 421 blsaw \$1;
#X obj 69 300 receive~ sm-\$1-f;
#X floatatom 239 120 5 0 0 0 - - -, f 5;
#X obj 566 674 sig~ 0.1;
#X floatatom 1075 324 5 0 0 0 - - -, f 5;
#X obj 1063 279 bng 15 250 50 0 empty empty empty 17 7 0 10 -262144
-1 -1;
#X floatatom 926 334 5 0 0 0 - - -, f 5;
#X obj 910 279 bng 15 250 50 0 empty empty empty 17 7 0 10 -262144
-1 -1;
#X msg 1075 346 1 \$1;
#X msg 925 354 0 \$1;
#X msg 1085 301 set \$1;
#X msg 933 307 set \$1;
#X obj 136 390 phasor~;
#X floatatom 138 365 5 0 0 0 - - -, f 5;
#X obj 121 328 random 40;
#X obj 127 348 / 10;
#X obj 335 183 r loadbang-\$1;
#X obj 220 403 blsaw \$1;
#X obj 214 368 phasor~;
#X floatatom 216 350 5 0 0 0 - - -, f 5;
#X obj 205 305 random 40;
#X obj 208 326 / 10;
#X obj 446 413 blsaw \$1;
#X obj 483 381 phasor~;
#X floatatom 482 363 5 0 0 0 - - -, f 5;
#X obj 474 318 random 40;
#X obj 474 339 / 10;
#X obj 440 353 *~;
#X obj 425 282 receive~ sm-\$1-f;
#X obj 427 318 *~ -1;
#X obj 311 307 phasor~;
#X floatatom 122 572 5 0 0 0 - - -, f 5;
#X obj 150 611 * -1;
#X obj 150 633 phasor~;
#X obj 77 635 phasor~;
#X obj 76 662 *~ 2;
#X obj 148 661 *~ 2;
#X obj 77 687 -~ 1;
#X obj 145 684 -~ 1;
#X obj 77 709 clip~ 0 1;
#X obj 171 712 clip~ 0 1;
#X obj 132 750 +~;
#X obj 329 374 abs~;
#X obj 291 409 expr~ $v1 > $v2;
#X msg 124 531 2.6;
#X obj 132 772 *~ 0.5;
#X obj 931 279 r sm_envelope-\$1;
#X obj 1084 278 r sm_envelope-\$1;
#X obj 219 87 r sm_transpose-\$1;
#X obj 484 745 *~ 0.25;
#X connect 0 0 1 0;
#X connect 1 0 14 0;
#X connect 1 1 4 0;
#X connect 2 0 12 0;
#X connect 4 0 23 0;
#X connect 4 1 21 0;
#X connect 5 0 8 1;
#X connect 5 0 8 0;
#X connect 6 0 12 0;
#X connect 7 0 16 0;
#X connect 8 0 2 1;
#X connect 9 0 12 1;
#X connect 10 0 2 0;
#X connect 11 0 3 0;
#X connect 12 0 65 0;
#X connect 13 0 7 0;
#X connect 13 0 33 0;
#X connect 13 0 43 0;
#X connect 13 0 46 0;
#X connect 14 0 15 0;
#X connect 15 0 13 0;
#X connect 16 0 10 0;
#X connect 17 0 7 1;
#X connect 18 0 14 1;
#X connect 19 0 12 2;
#X connect 20 0 24 0;
#X connect 21 0 20 0;
#X connect 22 0 25 0;
#X connect 23 0 22 0;
#X connect 24 0 5 0;
#X connect 25 0 5 0;
#X connect 26 0 20 0;
#X connect 27 0 22 0;
#X connect 28 0 16 1;
#X connect 29 0 28 0;
#X connect 30 0 31 0;
#X connect 31 0 29 0;
#X connect 32 0 30 0;
#X connect 32 0 36 0;
#X connect 32 0 41 0;
#X connect 32 0 60 0;
#X connect 33 0 10 0;
#X connect 34 0 33 1;
#X connect 35 0 34 0;
#X connect 36 0 37 0;
#X connect 37 0 35 0;
#X connect 38 0 10 0;
#X connect 39 0 38 1;
#X connect 40 0 39 0;
#X connect 41 0 42 0;
#X connect 42 0 40 0;
#X connect 43 0 38 0;
#X connect 44 0 45 0;
#X connect 45 0 43 1;
#X connect 46 0 59 0;
#X connect 47 0 48 0;
#X connect 47 0 50 0;
#X connect 48 0 49 0;
#X connect 49 0 52 0;
#X connect 50 0 51 0;
#X connect 51 0 53 0;
#X connect 52 0 54 0;
#X connect 53 0 55 0;
#X connect 54 0 56 0;
#X connect 55 0 57 1;
#X connect 56 0 57 0;
#X connect 57 0 61 0;
#X connect 58 0 59 1;
#X connect 59 0 10 0;
#X connect 60 0 47 0;
#X connect 61 0 58 0;
#X connect 62 0 27 0;
#X connect 63 0 26 0;
#X connect 64 0 18 0;
#X connect 65 0 11 0;
