#N canvas 361 76 1370 646 10;
#X obj 304 186 r notesIn-\$1;
#X obj 304 491 s notesOut-\$1;
#X obj 23 9 r loaddefs-\$1;
#X msg 23 76 loaddefinitions \$1;
#X obj 181 9 r loadbang-\$1;
#X obj 181 76 print loading definiton for \$1;
#X obj 23 41 symbol;
#X obj 27 186 inlet~ inL-\$1;
#X obj 136 186 inlet~ inR-\$1;
#X obj 27 491 outlet~ outL-\$1;
#X obj 136 491 outlet~ outR-\$1;
#X obj 424 185 r auxIn-\$1;
#X obj 423 208 r expIn-\$1;
#X obj 768 125 r fsIn-\$1;
#X obj 23 112 KontrolModule \$1 S-stringmachine;
#N canvas 1941 92 989 781 synth 0;
#X obj 193 424 outlet~;
#X obj 187 100 inlet;
#X obj 135 281 as-simple \$1;
#X obj 234 282 as-simple \$1;
#X obj 335 282 as-simple \$1;
#X obj 34 281 as-simple \$1;
#X obj 432 281 as-simple \$1;
#X obj 163 217 route 1 2 3 4 5;
#X obj 186 130 poly 5 1;
#X obj 178 157 pack 0 0 0;
#X obj 193 402 *~ 0.5;
#X connect 1 0 8 0;
#X connect 2 0 10 0;
#X connect 3 0 10 0;
#X connect 4 0 10 0;
#X connect 5 0 10 0;
#X connect 6 0 10 0;
#X connect 7 0 5 0;
#X connect 7 1 2 0;
#X connect 7 2 3 0;
#X connect 7 3 4 0;
#X connect 7 4 6 0;
#X connect 8 0 9 0;
#X connect 8 1 9 1;
#X connect 8 2 9 2;
#X connect 9 0 7 0;
#X connect 10 0 0 0;
#X restore 58 337 pd synth;
#X obj 628 152 sig~;
#X obj 627 183 lop~ 5;
#X obj 938 105 sig~;
#X obj 937 134 lop~ 5;
#X obj 938 82 * 2;
#X obj 625 447 sig~;
#X obj 625 475 lop~ 5;
#X obj 625 419 * 4;
#X obj 803 437 sig~;
#X obj 803 462 lop~ 5;
#X obj 681 188 + 1;
#X floatatom 681 211 5 0 0 0 - - -, f 5;
#X obj 628 235 *~ 1;
#X obj 628 103 mtof;
#X obj 628 125 / 8.1785;
#X obj 936 160 send~ as-\$1-offset;
#X obj 625 503 send~ as-\$1-resonance;
#X obj 803 487 s~ as-\$1-cutoff-local;
#X obj 939 18 r as_oscratio-\$1;
#X obj 625 363 r as_reso-\$1;
#X obj 938 52 / 100;
#X obj 625 391 / 100;
#X obj 27 442 +~;
#X obj 136 444 +~;
#X obj 181 35 print loaded:string machine into \$1;
#X obj 627 26 r sm_detune-\$1;
#X obj 628 258 send~ sm-\$1-f;
#X obj 801 357 r sm_cutoff-\$1;
#X connect 0 0 1 0;
#X connect 0 0 15 0;
#X connect 2 0 6 0;
#X connect 2 0 5 0;
#X connect 3 0 14 0;
#X connect 4 0 40 0;
#X connect 6 0 3 0;
#X connect 7 0 38 0;
#X connect 8 0 39 0;
#X connect 13 0 26 0;
#X connect 15 0 38 1;
#X connect 15 0 39 1;
#X connect 16 0 17 0;
#X connect 17 0 28 0;
#X connect 18 0 19 0;
#X connect 19 0 31 0;
#X connect 20 0 18 0;
#X connect 21 0 22 0;
#X connect 22 0 32 0;
#X connect 23 0 21 0;
#X connect 24 0 25 0;
#X connect 25 0 33 0;
#X connect 26 0 27 0;
#X connect 27 0 28 1;
#X connect 28 0 42 0;
#X connect 29 0 30 0;
#X connect 30 0 16 0;
#X connect 34 0 36 0;
#X connect 35 0 37 0;
#X connect 36 0 20 0;
#X connect 37 0 23 0;
#X connect 38 0 9 0;
#X connect 39 0 10 0;
#X connect 41 0 29 0;
#X connect 43 0 24 0;
