#N canvas -7 0 1360 716 10;
#X obj 64 94 pack 0 0 0, f 11;
#X obj 47 115 route 1 2 3 4 5 6 7 8, f 81;
#X text 24 19 basic polyphonic patch with 8 voices;
#X text 299 98 aircraft carrier;
#X obj 79 317 bng 15 250 50 0 empty empty empty 17 7 0 10 -262144 -1
-1;
#X obj 319 329 +~;
#X obj 300 248 *~ 0.35;
#X obj 71 72 poly 8, f 11;
#X obj 403 480 +~ 8;
#X obj 405 427 osc~ 0.5;
#X obj 406 454 *~ 0;
#X obj 400 554 *~ 0;
#X obj 484 451 * 2;
#X obj 479 473 + 2;
#X obj 137 41 inlet;
#X obj 235 546 outlet~;
#N canvas 0 50 450 250 (subpatch) 0;
#X array wavemap-\$1 6144 float 2;
#X coords 0 1 6144 -1 400 50 1 0 0;
#X restore 372 18 graph;
#X obj 550 285 soundfiler;
#X obj 573 231 list \$1;
#X obj 577 207 nbx 5 14 -1e+037 1e+037 0 0 empty empty empty 0 -8 0
10 -262144 -1 -1 54 256;
#X msg 578 256 read -resize ./samplemap/\$1.wav wavemap-\$2;
#X obj 110 358 delwrite~ chorusline-\$1 250;
#X obj 398 507 vd~ chorusline-\$1;
#X obj 421 531 r chorus_mix-\$1;
#X obj 483 422 r chorus_depth-\$1;
#X obj 447 394 r chorus_rate-\$1;
#X obj 599 175 r waveselect-\$1;
#X obj 56 180 voice \$1;
#X obj 127 181 voice \$1;
#X obj 197 181 voice \$1;
#X obj 265 187 voice \$1;
#X obj 350 159 voice \$1;
#X obj 420 159 voice \$1;
#X obj 479 165 voice \$1;
#X obj 556 156 voice \$1;
#X connect 0 0 1 0;
#X connect 1 0 4 0;
#X connect 1 0 27 0;
#X connect 1 1 28 0;
#X connect 1 2 29 0;
#X connect 1 3 30 0;
#X connect 1 4 31 0;
#X connect 1 5 32 0;
#X connect 1 6 33 0;
#X connect 1 7 34 0;
#X connect 5 0 15 0;
#X connect 6 0 21 0;
#X connect 6 0 5 0;
#X connect 7 0 0 0;
#X connect 7 1 0 1;
#X connect 7 2 0 2;
#X connect 8 0 22 0;
#X connect 9 0 10 0;
#X connect 10 0 8 0;
#X connect 11 0 5 0;
#X connect 12 0 13 0;
#X connect 13 0 8 1;
#X connect 14 0 7 0;
#X connect 18 0 20 0;
#X connect 19 0 18 0;
#X connect 20 0 17 0;
#X connect 22 0 11 0;
#X connect 23 0 11 1;
#X connect 24 0 10 1;
#X connect 24 0 12 0;
#X connect 25 0 9 0;
#X connect 26 0 19 0;
#X connect 27 0 6 0;
#X connect 28 0 6 0;
#X connect 29 0 6 0;
#X connect 30 0 6 0;
#X connect 31 0 6 0;
#X connect 32 0 6 0;
#X connect 33 0 6 0;
#X connect 34 0 6 0;
