#N canvas 0 50 1356 691 10;
#X text 352 43 note messages;
#X obj 306 59 inlet;
#X obj 438 599 outlet~;
#X text 25 10 synth voice with waveform change;
#X obj 329 80 unpack 0 0;
#X obj 274 194 mtof;
#X obj 450 440 *~;
#X obj 244 223 / 2;
#X obj 668 149 osc~ 5;
#X obj 317 245 sig~;
#X obj 379 247 *~ 0.1;
#X obj 383 197 * 0.001;
#X obj 585 379 +~ 1;
#X obj 439 558 *~;
#X obj 550 338 *~ 0.1;
#X obj 567 47 nbx 5 14 -1e+037 1e+037 0 0 empty empty empty 0 -8 0
10 -262144 -1 -1 0 256;
#X obj 665 376 *~;
#X obj 443 508 vcf~ 3;
#X obj 452 478 *~ 1;
#X obj 843 291 * -1;
#X obj 842 316 + 1;
#X obj 261 173 + 0;
#X obj 72 124 block~ 64 1 4;
#X obj 509 21 r vibrato_depth-\$1;
#X obj 651 89 r mod_speed-\$1;
#X obj 691 175 r tremolo_depth-\$1;
#X obj 521 488 r filt_q-\$1;
#X obj 705 379 r filt_cutoff-\$1;
#X obj 781 268 r envfilt-\$1;
#X obj 487 281 env_parabolic \$1;
#X obj 560 125 / 1000;
#X obj 664 408 *~ 12;
#X obj 305 139 r transpose-\$1;
#X obj 687 219 env_parabolic f-\$1;
#X obj 811 334 +~ 1;
#X obj 706 319 *~ 0;
#X obj 182 314 tableosc 1-\$1;
#X obj 336 326 tableosc 2-\$1;
#X connect 1 0 4 0;
#X connect 4 0 21 0;
#X connect 4 1 29 0;
#X connect 4 1 33 0;
#X connect 5 0 7 0;
#X connect 5 0 11 0;
#X connect 6 0 18 0;
#X connect 7 0 9 0;
#X connect 7 0 16 1;
#X connect 7 0 36 0;
#X connect 7 0 37 0;
#X connect 8 0 10 0;
#X connect 8 0 14 0;
#X connect 9 0 36 1;
#X connect 9 0 37 1;
#X connect 10 0 36 1;
#X connect 10 0 37 1;
#X connect 11 0 10 1;
#X connect 12 0 13 1;
#X connect 13 0 2 0;
#X connect 14 0 12 0;
#X connect 16 0 31 0;
#X connect 17 0 13 0;
#X connect 18 0 17 0;
#X connect 19 0 20 0;
#X connect 20 0 34 1;
#X connect 21 0 5 0;
#X connect 23 0 15 0;
#X connect 23 0 30 0;
#X connect 24 0 8 0;
#X connect 25 0 14 1;
#X connect 26 0 17 2;
#X connect 27 0 31 1;
#X connect 28 0 19 0;
#X connect 28 0 35 1;
#X connect 29 0 6 1;
#X connect 30 0 11 1;
#X connect 31 0 17 1;
#X connect 32 0 21 1;
#X connect 33 0 35 0;
#X connect 34 0 16 0;
#X connect 35 0 34 0;
#X connect 36 0 6 0;
#X connect 37 0 6 0;
