#N canvas 0 50 1366 725 10;
#X text 451 49 note messages;
#X obj 405 65 inlet;
#X obj 537 605 outlet~;
#X text 25 10 synth voice with waveform change;
#X obj 428 86 unpack 0 0;
#X obj 549 446 *~;
#X obj 438 195 / 2;
#X obj 767 155 osc~ 5;
#X obj 511 217 sig~;
#X obj 639 233 *~ 0.1;
#X obj 575 165 * 0.001;
#X obj 684 385 +~ 1;
#X obj 554 584 *~;
#X obj 649 344 *~ 0.1;
#X obj 666 53 nbx 5 14 -1e+037 1e+037 0 0 empty empty empty 0 -8 0
10 -262144 -1 -1 0 256;
#X obj 764 382 *~;
#X obj 529 469 *~ 1;
#X obj 942 297 * -1;
#X obj 941 322 + 1;
#X obj 455 145 + 0;
#X obj 608 27 r vibrato_depth-\$1;
#X obj 750 95 r mod_speed-\$1;
#X obj 790 181 r tremolo_depth-\$1;
#X obj 664 494 r filt_q-\$1;
#X obj 804 385 r filt_cutoff-\$1;
#X obj 881 240 r envfilt-\$1;
#X obj 586 287 env_parabolic \$1;
#X obj 482 381 tableosc \$1;
#X obj 659 131 / 1000;
#X obj 763 414 *~ 12;
#X obj 498 108 r transpose-\$1;
#X obj 786 225 env_parabolic f-\$1;
#X obj 910 340 +~ 1;
#X obj 805 325 *~ 0;
#N canvas 0 50 1366 725 moog 0;
#X obj 209 122 sig~ 3;
#X obj 166 142 moog~;
#X obj 104 56 inlet~;
#X obj 185 41 inlet~;
#X obj 248 98 inlet;
#X obj 173 207 outlet~;
#X obj 396 171 switch~;
#X msg 359 113 0;
#X obj 332 52 r loadbang-\$0;
#X obj 443 53 r filttype-\$0;
#X msg 500 136 1;
#X obj 457 85 sel 2;
#X connect 0 0 1 2;
#X connect 1 0 5 0;
#X connect 2 0 1 0;
#X connect 3 0 1 1;
#X connect 4 0 0 0;
#X connect 7 0 6 0;
#X connect 8 0 7 0;
#X connect 9 0 11 0;
#X connect 10 0 6 0;
#X connect 11 0 10 0;
#X connect 11 1 7 0;
#X restore 538 549 pd moog;
#N canvas 0 50 1366 725 vcf 0;
#X obj 104 56 inlet~;
#X obj 185 41 inlet~;
#X obj 248 98 inlet;
#X obj 173 207 outlet~;
#X obj 166 143 vcf~ 3;
#X obj 395 171 switch~;
#X msg 358 113 0;
#X obj 331 52 r loadbang-\$0;
#X obj 442 53 r filttype-\$0;
#X msg 499 136 1;
#X obj 456 85 sel 1;
#X connect 0 0 4 0;
#X connect 1 0 4 1;
#X connect 2 0 4 2;
#X connect 4 0 3 0;
#X connect 6 0 5 0;
#X connect 7 0 6 0;
#X connect 8 0 10 0;
#X connect 9 0 5 0;
#X connect 10 0 9 0;
#X connect 10 1 6 0;
#X restore 625 543 pd vcf;
#X obj 63 69 r envpitch-\$1;
#X obj 179 56 r sustain-f-\$1;
#X text 38 303 Pitch = input*((1- depth*sustain+depth*env_val));
#X obj 543 300 *~ 0;
#X obj 188 91 t b f;
#X obj 74 178 - 1;
#X obj 60 205 * -1;
#X obj 61 228 sig~ 1;
#X obj 526 326 *~;
#X obj 87 150 * 1;
#X obj 100 117 f 0;
#X obj 375 496 == 0;
#X obj 370 466 r filttype-\$0;
#X obj 418 540 *~ 1;
#X obj 392 167 micro/mtof_micro \$1;
#X connect 1 0 4 0;
#X connect 4 0 19 0;
#X connect 4 1 26 0;
#X connect 4 1 31 0;
#X connect 5 0 16 0;
#X connect 6 0 8 0;
#X connect 6 0 27 0;
#X connect 6 0 15 1;
#X connect 7 0 9 0;
#X connect 7 0 13 0;
#X connect 8 0 44 0;
#X connect 9 0 27 1;
#X connect 10 0 9 1;
#X connect 11 0 12 1;
#X connect 12 0 2 0;
#X connect 13 0 11 0;
#X connect 15 0 29 0;
#X connect 16 0 34 0;
#X connect 16 0 35 0;
#X connect 16 0 49 0;
#X connect 17 0 18 0;
#X connect 18 0 32 1;
#X connect 19 0 50 0;
#X connect 20 0 14 0;
#X connect 20 0 28 0;
#X connect 21 0 7 0;
#X connect 22 0 13 1;
#X connect 23 0 35 2;
#X connect 23 0 34 2;
#X connect 24 0 29 1;
#X connect 25 0 17 0;
#X connect 25 0 33 1;
#X connect 26 0 5 1;
#X connect 27 0 5 0;
#X connect 28 0 10 1;
#X connect 29 0 35 1;
#X connect 29 0 34 1;
#X connect 30 0 19 1;
#X connect 31 0 33 0;
#X connect 31 0 39 0;
#X connect 32 0 15 0;
#X connect 33 0 32 0;
#X connect 34 0 12 0;
#X connect 35 0 12 0;
#X connect 36 0 39 1;
#X connect 36 0 46 0;
#X connect 37 0 40 0;
#X connect 39 0 44 1;
#X connect 40 0 46 0;
#X connect 40 1 45 1;
#X connect 41 0 42 0;
#X connect 42 0 43 0;
#X connect 43 0 44 1;
#X connect 44 0 27 1;
#X connect 45 0 41 0;
#X connect 46 0 45 0;
#X connect 47 0 49 1;
#X connect 48 0 47 0;
#X connect 49 0 12 0;
#X connect 50 0 6 0;
#X connect 50 0 10 0;
