#N canvas 18 77 1345 720 10;
#X obj 222 165 r notesIn-\$1;
#X obj 304 491 s notesOut-\$1;
#X obj 23 9 r loaddefs-\$1;
#X msg 23 76 loaddefinitions \$1;
#X obj 181 9 r loadbang-\$1;
#X obj 181 77 print loading definiton for \$1;
#X obj 23 41 symbol;
#X obj 25 186 inlet~ inL-\$1;
#X obj 135 186 inlet~ inR-\$1;
#X obj 27 491 outlet~ outL-\$1;
#X obj 136 491 outlet~ outR-\$1;
#X obj 424 185 r auxIn-\$1;
#X obj 423 208 r expIn-\$1;
#X obj 423 233 r fsIn-\$1;
#X obj 184 35 print loaded:sampletwig into \$1, f 35;
#X obj 602 181 r samp_lopass-\$1;
#X obj 745 246 r samp_hipass-\$1;
#X obj 437 355 lop~ 22000;
#X obj 341 356 lop~ 22000;
#X obj 427 380 hip~ 0;
#X obj 340 378 hip~ 0;
#X obj 724 322 * 8000;
#X obj 606 225 t f f;
#X obj 615 246 *;
#X obj 615 271 * 24000;
#N canvas 8 60 450 463 notegen 0;
#X obj 109 41 bng 15 250 50 0 empty empty empty 17 7 0 10 -262144 -1
-1;
#X obj 120 14 inlet;
#X obj 108 138 f 0;
#X obj 104 99 bng 15 250 50 0 empty empty empty 17 7 0 10 -262144 -1
-1;
#X obj 142 92 + 1;
#X obj 152 134 % 4;
#X obj 122 174 sel 0 1 2 3;
#X msg 114 208 60;
#X msg 214 207 67;
#X obj 117 345 outlet;
#X obj 294 153 nbx 5 14 -1e+037 1e+037 0 0 empty empty empty 0 -8 0
10 -262144 -1 -1 0 256;
#X obj 150 312 pack 0 0;
#X msg 148 208 62;
#X msg 174 208 65;
#X obj 127 69 metro 400;
#X msg 156 40 stop;
#X obj 128 250 makenote 100 300;
#X connect 0 0 14 0;
#X connect 1 0 0 0;
#X connect 2 0 4 0;
#X connect 2 0 6 0;
#X connect 2 0 10 0;
#X connect 3 0 2 0;
#X connect 4 0 5 0;
#X connect 5 0 2 1;
#X connect 6 0 7 0;
#X connect 6 1 12 0;
#X connect 6 2 13 0;
#X connect 6 3 8 0;
#X connect 7 0 16 0;
#X connect 8 0 16 0;
#X connect 11 0 9 0;
#X connect 12 0 16 0;
#X connect 13 0 16 0;
#X connect 14 0 3 0;
#X connect 15 0 14 0;
#X connect 16 0 11 0;
#X connect 16 1 11 1;
#X restore 528 109 pd notegen;
#X obj 540 79 bng 15 250 50 0 empty empty empty 17 7 0 10 -262144 -1
-1;
#X obj 346 170 sel 1;
#N canvas 273 97 886 691 latch 0;
#X obj 263 200 bng 15 250 50 0 empty empty empty 17 7 0 10 -262144
-1 -1;
#X obj 263 232 tgl 15 0 empty empty empty 17 7 0 10 -262144 -1 -1 0
1;
#X obj 171 374 spigot 1;
#X obj 43 298 spigot 0;
#X obj 208 268 == 0;
#X obj 124 298 bng 15 250 50 0 empty empty empty 17 7 0 10 -262144
-1 -1;
#X obj 269 172 t b b, f 7;
#X obj 262 106 inlet;
#X obj 43 626 outlet;
#X obj 43 106 inlet;
#X text 389 95 bang enable / disables latch;
#X text 44 53 incoming notes get sent through latch if enabled \, or
directly to output if disabled;
#X obj 611 123 inlet;
#X obj 325 437 s screenLine5;
#X msg 246 380 Latch on;
#X msg 383 363 Latch off;
#X obj 322 265 sel 1;
#X obj 596 164 nbx 5 14 -1e+037 1e+037 0 0 empty empty empty 0 -8 0
10 -262144 -1 -1 0 256;
#X obj 629 259 == 0;
#X obj 627 321 nbx 5 14 -1e+037 1e+037 0 0 empty empty empty 0 -8 0
10 -262144 -1 -1 0 256;
#X obj 225 141 spigot 1;
#X obj 43 371 latch-notes;
#X obj 327 136 spigot 0;
#X connect 0 0 1 0;
#X connect 1 0 4 0;
#X connect 1 0 3 1;
#X connect 1 0 16 0;
#X connect 2 0 8 0;
#X connect 3 0 21 0;
#X connect 4 0 2 1;
#X connect 5 0 21 1;
#X connect 6 0 0 0;
#X connect 6 1 5 0;
#X connect 7 0 20 0;
#X connect 7 0 22 0;
#X connect 9 0 3 0;
#X connect 9 0 2 0;
#X connect 12 0 1 0;
#X connect 12 0 17 0;
#X connect 14 0 13 0;
#X connect 15 0 13 0;
#X connect 16 0 14 0;
#X connect 16 1 15 0;
#X connect 17 0 18 0;
#X connect 17 0 22 1;
#X connect 18 0 19 0;
#X connect 19 0 20 1;
#X connect 19 0 5 0;
#X connect 20 0 6 0;
#X connect 21 0 8 0;
#X connect 22 0 5 0;
#X restore 321 212 pd latch;
#X obj 351 140 r auxIn-\$1;
#X obj 423 152 r samp_hold-\$1;
#X obj 575 412 s samp_ctrlsmooth-\$1;
#X obj 588 376 hsl 128 15 0.5 50 1 0 empty empty empty -2 -8 0 10 -262144
-1 -1 0 1;
#X obj 578 396 nbx 5 14 -1e+037 1e+037 0 0 empty empty empty 0 -8 0
10 -262144 -1 -1 0 256;
#X obj 772 96 route 1 2 3 4, f 61;
#X obj 772 32 poly 4 1, f 11;
#X obj 772 54 pack 0 0 0, f 11;
#X obj 767 125 unpack 0 0;
#X obj 720 173 samp/samp_voice \$1;
#X obj 833 148 > 0;
#X obj 909 144 unpack 0 0;
#X obj 862 192 samp/samp_voice \$1;
#X obj 975 167 > 0;
#X obj 1041 154 unpack 0 0;
#X obj 994 202 samp/samp_voice \$1;
#X obj 1107 177 > 0;
#X obj 1183 173 unpack 0 0;
#X obj 1136 221 samp/samp_voice \$1;
#X obj 1249 196 > 0;
#X obj 1035 282 +~;
#X obj 923 291 +~;
#X obj 22 112 KontrolModule \$1 S-polytwig;
#X connect 0 0 1 0;
#X connect 0 0 28 0;
#X connect 2 0 6 0;
#X connect 2 0 5 0;
#X connect 3 0 51 0;
#X connect 4 0 14 0;
#X connect 6 0 3 0;
#X connect 7 0 9 0;
#X connect 8 0 10 0;
#X connect 15 0 22 0;
#X connect 16 0 21 0;
#X connect 17 0 19 0;
#X connect 18 0 20 0;
#X connect 19 0 10 0;
#X connect 20 0 9 0;
#X connect 21 0 19 1;
#X connect 21 0 20 1;
#X connect 22 0 23 0;
#X connect 22 1 23 1;
#X connect 23 0 24 0;
#X connect 24 0 18 1;
#X connect 24 0 17 1;
#X connect 26 0 25 0;
#X connect 27 0 28 1;
#X connect 28 0 35 0;
#X connect 29 0 27 0;
#X connect 30 0 28 2;
#X connect 32 0 33 0;
#X connect 33 0 31 0;
#X connect 34 0 37 0;
#X connect 34 1 40 0;
#X connect 34 2 43 0;
#X connect 34 3 46 0;
#X connect 35 0 36 0;
#X connect 35 1 36 1;
#X connect 35 2 36 2;
#X connect 36 0 34 0;
#X connect 37 0 38 0;
#X connect 37 1 39 0;
#X connect 38 0 50 0;
#X connect 38 1 49 0;
#X connect 39 0 38 1;
#X connect 40 0 41 0;
#X connect 40 1 42 0;
#X connect 41 0 50 0;
#X connect 41 1 49 0;
#X connect 42 0 41 1;
#X connect 43 0 44 0;
#X connect 43 1 45 0;
#X connect 44 0 50 0;
#X connect 44 1 49 0;
#X connect 45 0 44 1;
#X connect 46 0 47 0;
#X connect 46 1 48 0;
#X connect 47 0 50 0;
#X connect 47 1 49 0;
#X connect 48 0 47 1;
#X connect 49 0 17 0;
#X connect 50 0 18 0;
