#N canvas 55 240 1861 804 10;
#X obj 304 186 r notesIn-\$1;
#X obj 304 491 s notesOut-\$1;
#X obj 23 9 r loaddefs-\$1;
#X msg 23 76 loaddefinitions \$1;
#X obj 181 9 r loadbang-\$1;
#X obj 181 76 print loading definiton for \$1;
#X obj 23 41 symbol;
#X obj 25 186 inlet~ inL-\$1;
#X obj 135 186 inlet~ inR-\$1;
#X obj 27 491 outlet~ outL-\$1;
#X obj 136 491 outlet~ outR-\$1;
#X obj 424 185 r auxIn-\$1;
#X obj 423 208 r expIn-\$1;
#X obj 423 233 r fsIn-\$1;
#N canvas 193 67 1651 977 synth 1;
#X obj 65 682 outlet~;
#X obj 173 677 outlet~;
#X text 138 25 Sampler Manager;
#X obj 183 282 catch~ samp_voice_out;
#X obj 83 59 sampler-voice 1.wav 0;
#X obj 181 319 *~ 1;
#X obj 256 225 sampler-voice 16.wav 15;
#X obj 83 177 sampler-voice 6.wav 5;
#X obj 83 130 sampler-voice 4.wav 3;
#X obj 83 83 sampler-voice 2.wav 1;
#X obj 83 106 sampler-voice 3.wav 2;
#X obj 83 154 sampler-voice 5.wav 4;
#X obj 83 200 sampler-voice 7.wav 6;
#X obj 82 223 sampler-voice 8.wav 7;
#X obj 260 61 sampler-voice 9.wav 8;
#X obj 259 83 sampler-voice 10.wav 9;
#X obj 259 106 sampler-voice 11.wav 10;
#X obj 258 129 sampler-voice 12.wav 11;
#X obj 258 152 sampler-voice 13.wav 12;
#X obj 257 176 sampler-voice 14.wav 13;
#X obj 256 201 sampler-voice 15.wav 14;
#X obj 464 59 sampler-voice 17.wav 16;
#X obj 463 83 sampler-voice 18.wav 17;
#X obj 463 107 sampler-voice 19.wav 18;
#X obj 463 131 sampler-voice 20.wav 19;
#X obj 462 155 sampler-voice 21.wav 20;
#X obj 462 179 sampler-voice 22.wav 21;
#X obj 462 203 sampler-voice 23.wav 22;
#X obj 462 227 sampler-voice 24.wav 23;
#X obj 343 380 r notesIn-\$1;
#X obj 475 371 r decay-\$1;
#X obj 489 427 s lofipianoDecay;
#X obj 350 420 s lofiPianoNotes;
#X obj 637 371 r loadbang-\$1;
#X obj 642 434 s lofipianoStartBang;
#X obj 219 397 hip~ 5;
#X connect 3 0 5 0;
#X connect 5 0 35 0;
#X connect 29 0 32 0;
#X connect 30 0 31 0;
#X connect 33 0 34 0;
#X connect 35 0 1 0;
#X connect 35 0 0 0;
#X restore 62 315 pd synth;
#X obj 25 376 +~;
#X obj 136 381 +~;
#X obj 23 111 KontrolModule \$1 S-lofipiano;
#X obj 182 35 print loaded:S-lofipiano into \$1, f 35;
#X obj 546 317 makenote 127 2000;
#X obj 558 344 pack f f;
#X obj 646 371 s tempnote;
#X msg 542 280 20;
#X connect 0 0 1 0;
#X connect 2 0 6 0;
#X connect 2 0 5 0;
#X connect 3 0 17 0;
#X connect 4 0 18 0;
#X connect 6 0 3 0;
#X connect 7 0 15 0;
#X connect 8 0 16 0;
#X connect 14 0 15 1;
#X connect 14 1 16 1;
#X connect 15 0 9 0;
#X connect 16 0 10 0;
#X connect 19 0 20 0;
#X connect 19 1 20 1;
#X connect 20 0 21 0;
#X connect 22 0 19 0;
