#N canvas 11 96 1265 412 10;
#X obj 758 372 r notesIn-\$1;
#X obj 757 435 s notesOut-\$1;
#X obj 23 9 r loaddefs-\$1;
#X msg 23 76 loaddefinitions \$1;
#X obj 156 8 r loadbang-\$1;
#X obj 181 76 print loading definiton for \$1;
#X obj 23 41 symbol;
#X obj 25 186 inlet~ inL-\$1;
#X obj 135 186 inlet~ inR-\$1;
#X obj 110 877 outlet~ outL-\$1;
#X obj 231 880 outlet~ outR-\$1;
#X obj 424 185 r auxIn-\$1;
#X obj 423 208 r expIn-\$1;
#X obj 423 233 r fsIn-\$1;
#X msg 269 446 wet \$1;
#X msg 326 447 dry \$1;
#X obj 106 515 freeverb~;
#X msg 75 402 \$1 40;
#X obj 75 425 line 0 1;
#X msg 75 448 roomsize \$1;
#X msg 171 406 \$1 40;
#X obj 171 426 line 0 1;
#X msg 171 447 damping \$1;
#X obj 75 313 r rev_size-\$1;
#X obj 171 364 r rev_damp-\$1;
#X obj 171 386 / 100;
#X obj 75 335 / 100;
#X obj 75 379 * 0.99;
#N canvas 257 52 920 511 size 0;
#X obj 165 207 pack 0 50;
#X obj 200 254 line~;
#X obj 274 305 line~;
#X obj 274 281 pack 0 50;
#X obj 358 261 pack 0 50;
#X obj 274 330 osc~;
#X obj 340 355 *~;
#X obj 273 387 *~, f 10;
#X obj 186 424 +~, f 13;
#X obj 358 285 line~;
#X obj 241 489 snapshot~;
#X obj 319 423 metro 5;
#X floatatom 283 522 5 0 0 0 - - -, f 5;
#X obj 300 455 bng 15 250 50 0 empty empty empty 17 7 0 10 -262144
-1 -1;
#X obj 358 237 / 100;
#X obj 164 160 inlet;
#X obj 410 480 outlet;
#X obj 386 382 r loadbang-\$1;
#X obj 264 141 r size_rate-\$1;
#X obj 383 143 r size_depth-\$1;
#X obj 269 212 / 25;
#X connect 0 0 1 0;
#X connect 1 0 6 0;
#X connect 1 0 8 0;
#X connect 2 0 5 0;
#X connect 3 0 2 0;
#X connect 4 0 9 0;
#X connect 5 0 7 0;
#X connect 6 0 7 1;
#X connect 7 0 8 1;
#X connect 8 0 10 0;
#X connect 9 0 6 1;
#X connect 10 0 12 0;
#X connect 11 0 13 0;
#X connect 12 0 16 0;
#X connect 13 0 10 0;
#X connect 14 0 4 0;
#X connect 15 0 0 0;
#X connect 17 0 11 0;
#X connect 18 0 20 0;
#X connect 19 0 14 0;
#X connect 20 0 3 0;
#X restore 75 356 pd size lfo;
#X obj 94 605 AudioPan, f 28;
#X obj 269 402 r loadbang-\$1;
#X msg 269 421 1;
#X msg 302 421 0;
#X text 289 365 keep signal within freeverb all wet \, handle dry/wet
externally;
#X obj 310 609 AudioPan, f 28;
#X obj 328 669 sig~ 1;
#X obj 335 702 -~;
#X obj 140 759 *~;
#X obj 94 752 *~;
#X obj 264 829 *~;
#X obj 233 832 *~;
#X obj 706 640 r rev_dw-\$1;
#X obj 944 768 expr 1 - $f1;
#N canvas 7 50 1098 552 pan 0;
#X obj 94 146 sel 60 61 62 63 64 65 66 67 68 69 70 71;
#X obj 94 121 stripnote;
#X obj 95 82 inlet;
#X obj 193 382 outlet;
#X msg 11 211 0;
#X msg 45 211 0.083;
#X msg 98 212 0.166;
#X msg 149 212 0.249;
#X msg 194 215 0.332;
#X msg 233 217 0.415;
#X msg 273 217 0.498;
#X msg 310 218 0.581;
#X msg 353 219 0.664;
#X msg 484 214 1;
#X msg 441 215 0.9;
#X msg 398 214 0.78;
#X connect 0 0 4 0;
#X connect 0 1 5 0;
#X connect 0 2 6 0;
#X connect 0 3 7 0;
#X connect 0 4 8 0;
#X connect 0 5 9 0;
#X connect 0 6 10 0;
#X connect 0 7 11 0;
#X connect 0 8 12 0;
#X connect 0 9 15 0;
#X connect 0 10 14 0;
#X connect 0 11 13 0;
#X connect 1 0 0 0;
#X connect 2 0 1 0;
#X connect 4 0 3 0;
#X connect 5 0 3 0;
#X connect 6 0 3 0;
#X connect 7 0 3 0;
#X connect 8 0 3 0;
#X connect 9 0 3 0;
#X connect 10 0 3 0;
#X connect 11 0 3 0;
#X connect 12 0 3 0;
#X connect 13 0 3 0;
#X connect 14 0 3 0;
#X connect 15 0 3 0;
#X restore 944 519 pd pan notes;
#X text 1038 767 magic expression for reversing input values in use
cases like panning;
#X obj 523 111 s aux-label-\$1;
#X msg 522 84 oct1 pan oct2 d/w;
#N canvas 9 50 1098 552 dw 0;
#X obj 94 121 stripnote;
#X obj 95 82 inlet;
#X obj 193 382 outlet;
#X msg 11 211 0;
#X msg 45 211 0.083;
#X msg 98 212 0.166;
#X msg 149 212 0.249;
#X msg 194 215 0.332;
#X msg 233 217 0.415;
#X msg 273 217 0.498;
#X msg 310 218 0.581;
#X msg 353 219 0.664;
#X msg 484 214 1;
#X msg 441 215 0.9;
#X msg 398 214 0.78;
#X obj 94 147 sel 72 73 74 75 76 77 78 79 80 81 82 83;
#X connect 0 0 15 0;
#X connect 1 0 0 0;
#X connect 3 0 2 0;
#X connect 4 0 2 0;
#X connect 5 0 2 0;
#X connect 6 0 2 0;
#X connect 7 0 2 0;
#X connect 8 0 2 0;
#X connect 9 0 2 0;
#X connect 10 0 2 0;
#X connect 11 0 2 0;
#X connect 12 0 2 0;
#X connect 13 0 2 0;
#X connect 14 0 2 0;
#X connect 15 0 3 0;
#X connect 15 1 4 0;
#X connect 15 2 5 0;
#X connect 15 3 6 0;
#X connect 15 4 7 0;
#X connect 15 5 8 0;
#X connect 15 6 9 0;
#X connect 15 7 10 0;
#X connect 15 8 11 0;
#X connect 15 9 14 0;
#X connect 15 10 13 0;
#X connect 15 11 12 0;
#X restore 586 622 pd dw notes;
#X obj 430 772 lop~ 6;
#X obj 619 724 *;
#X obj 703 663 / 100;
#X obj 179 35 print loaded:collapser into \$1, f 35;
#X obj 23 110 KontrolModule \$1 F-collapser;
#X obj 914 593 f;
#X obj 945 554 t b f;
#X obj 917 637 *;
#X obj 594 683 f;
#X obj 605 652 t b f;
#X floatatom 957 790 5 0 0 0 - - -, f 5;
#X obj 773 496 r pan_depth-\$1;
#X obj 776 525 / 100;
#X obj 956 602 - 0.5;
#X obj 862 705 + 0.5;
#X obj 953 692 + 0.5;
#X floatatom 884 749 5 0 0 0 - - -, f 5;
#X obj 943 811 lop~ 5;
#X obj 865 793 lop~ 5;
#X connect 0 0 1 0;
#X connect 0 0 43 0;
#X connect 0 0 47 0;
#X connect 2 0 6 0;
#X connect 2 0 5 0;
#X connect 3 0 52 0;
#X connect 4 0 46 0;
#X connect 4 0 51 0;
#X connect 6 0 3 0;
#X connect 7 0 38 0;
#X connect 7 0 16 0;
#X connect 8 0 40 0;
#X connect 8 0 16 1;
#X connect 14 0 16 0;
#X connect 15 0 16 0;
#X connect 16 0 29 0;
#X connect 16 1 34 0;
#X connect 17 0 18 0;
#X connect 18 0 19 0;
#X connect 19 0 16 0;
#X connect 20 0 21 0;
#X connect 21 0 22 0;
#X connect 22 0 16 0;
#X connect 23 0 26 0;
#X connect 24 0 25 0;
#X connect 25 0 20 0;
#X connect 26 0 28 0;
#X connect 27 0 17 0;
#X connect 28 0 27 0;
#X connect 29 0 37 0;
#X connect 30 0 31 0;
#X connect 30 0 32 0;
#X connect 31 0 14 0;
#X connect 32 0 15 0;
#X connect 34 0 39 0;
#X connect 35 0 36 0;
#X connect 36 0 38 1;
#X connect 36 0 40 1;
#X connect 37 0 9 0;
#X connect 38 0 9 0;
#X connect 39 0 10 0;
#X connect 40 0 10 0;
#X connect 41 0 50 0;
#X connect 42 0 58 0;
#X connect 42 0 65 0;
#X connect 43 0 54 0;
#X connect 46 0 45 0;
#X connect 47 0 57 0;
#X connect 48 0 36 1;
#X connect 48 0 39 1;
#X connect 48 0 37 1;
#X connect 49 0 48 0;
#X connect 50 0 56 0;
#X connect 53 0 55 0;
#X connect 54 0 53 0;
#X connect 54 1 61 0;
#X connect 55 0 62 0;
#X connect 55 0 63 0;
#X connect 56 0 49 0;
#X connect 57 0 56 0;
#X connect 57 1 49 1;
#X connect 59 0 60 0;
#X connect 60 0 53 0;
#X connect 61 0 55 1;
#X connect 62 0 64 0;
#X connect 62 0 66 0;
#X connect 63 0 42 0;
#X connect 65 0 29 1;
#X connect 66 0 34 1;
