#N canvas 328 194 1360 725 10;
#X obj 117 32 inlet;
#X obj 180 452 outlet;
#X obj 197 156 nbx 5 14 -1e+037 1e+037 0 0 empty empty empty 0 -8 0
10 -262144 -1 -1 0 256;
#X obj 172 355 makenote 100 500;
#X obj 128 58 t f b b b b;
#X obj 255 42 r ng_octmin-\$1;
#X obj 301 71 r ng_octmax-\$1;
#X obj 184 188 * 12;
#X obj 174 219 + 60;
#X obj 138 306 +;
#X obj 369 105 r ng_velmin-\$1;
#X obj 415 134 r ng_velmax-\$1;
#X obj 397 199 r ng_lenmin-\$1;
#X obj 443 228 r ng_lenmax-\$1;
#X obj 196 392 pack 0 0;
#X obj 324 167 randrange 127;
#X obj 336 210 nbx 5 14 -1e+037 1e+037 0 0 empty empty empty 0 -8 0
10 -262144 -1 -1 78 256;
#X obj 210 104 randrange 1;
#X obj 352 262 randrange 400;
#X connect 0 0 4 0;
#X connect 2 0 7 0;
#X connect 3 0 14 0;
#X connect 3 1 14 1;
#X connect 4 0 9 0;
#X connect 4 2 18 0;
#X connect 4 3 15 0;
#X connect 4 4 17 0;
#X connect 5 0 17 1;
#X connect 6 0 17 2;
#X connect 7 0 8 0;
#X connect 8 0 9 1;
#X connect 9 0 3 0;
#X connect 10 0 15 1;
#X connect 11 0 15 2;
#X connect 12 0 18 1;
#X connect 13 0 18 2;
#X connect 14 0 1 0;
#X connect 15 0 3 1;
#X connect 15 0 16 0;
#X connect 17 0 2 0;
#X connect 18 0 3 2;
