#N canvas -8 -8 1366 725 10;
#N canvas 0 50 450 250 (subpatch) 0;
#X array probarray-\$1 12 float 2;
#X coords 0 1 12 0 200 140 1 0 0;
#X restore 530 47 graph;
#X obj 88 265 tabread probarray-\$1;
#X obj 65 187 until;
#X msg 55 130 12;
#X obj 63 224 f;
#X obj 94 226 + 1;
#X obj 180 519 nbx 5 14 -1e+037 1e+037 0 0 empty empty empty 0 -8 0
10 -262144 -1 -1 1.09286 256;
#X obj 44 78 t b b;
#X msg 105 134 0;
#X obj 84 331 f;
#X obj 83 294 t b f;
#X obj 130 362 +;
#X obj 43 53 bng 15 250 50 0 empty empty empty 17 7 0 10 -262144 -1
-1;
#X obj 328 210 bng 15 250 50 0 empty empty empty 17 7 0 10 -262144
-1 -1;
#X obj 328 287 nbx 5 14 -1e+037 1e+037 0 0 empty empty empty 0 -8 0
10 -262144 -1 -1 0.4542 256;
#X obj 331 239 random 10000;
#X obj 333 260 / 10000;
#N canvas 0 50 450 250 (subpatch) 0;
#X array probsum-\$1 12 float 2;
#X coords 0 12 12 0 200 140 1 0 0;
#X restore 294 35 graph;
#X obj 127 246 t f f;
#X obj 157 387 tabwrite probsum-\$1;
#X obj 366 433 until;
#X msg 356 376 12;
#X msg 406 380 0;
#X obj 345 324 t b f;
#X obj 361 539 tabread probsum-\$1;
#X obj 367 470 f;
#X obj 398 472 + 1;
#X obj 422 622 sel 1;
#X obj 457 498 nbx 5 14 -1e+037 1e+037 0 0 empty empty empty 0 -8 0
10 -262144 -1 -1 0 256;
#X obj 457 578 *;
#X obj 471 610 nbx 5 14 -1e+037 1e+037 0 0 empty empty empty 0 -8 0
10 -262144 -1 -1 0.496376 256;
#X obj 263 619 nbx 5 14 -1e+037 1e+037 0 0 empty empty empty 0 -8 0
10 -262144 -1 -1 0.871429 256;
#X obj 369 650 nbx 5 14 -1e+037 1e+037 0 0 empty empty empty 0 -8 0
10 -262144 -1 -1 1 256;
#X obj 378 614 >=;
#X connect 1 0 10 0;
#X connect 2 0 4 0;
#X connect 3 0 2 0;
#X connect 4 0 5 0;
#X connect 4 0 18 0;
#X connect 5 0 4 1;
#X connect 6 0 29 1;
#X connect 7 0 3 0;
#X connect 7 1 8 0;
#X connect 8 0 4 1;
#X connect 8 0 9 1;
#X connect 9 0 11 0;
#X connect 10 0 9 0;
#X connect 10 1 11 1;
#X connect 11 0 6 0;
#X connect 11 0 9 1;
#X connect 11 0 19 0;
#X connect 12 0 7 0;
#X connect 13 0 15 0;
#X connect 14 0 23 0;
#X connect 15 0 16 0;
#X connect 16 0 14 0;
#X connect 18 0 1 0;
#X connect 18 1 19 1;
#X connect 20 0 25 0;
#X connect 21 0 20 0;
#X connect 22 0 25 1;
#X connect 23 0 21 0;
#X connect 23 1 22 0;
#X connect 23 1 29 0;
#X connect 24 0 31 0;
#X connect 24 0 33 0;
#X connect 25 0 26 0;
#X connect 25 0 24 0;
#X connect 25 0 28 0;
#X connect 26 0 25 1;
#X connect 27 0 20 1;
#X connect 29 0 30 0;
#X connect 29 0 33 1;
#X connect 33 0 27 0;
#X connect 33 0 32 0;
