#N canvas 0 54 451 300 10;
#X obj 88 26 inlet;
#X obj 170 38 inlet;
#X obj 255 36 inlet;
#X obj 185 125 -;
#X obj 179 79 f 0;
#X obj 228 77 t b f;
#X obj 189 168 abs;
#X obj 265 182 min;
#X obj 186 233 +;
#X obj 180 263 outlet;
#X obj 191 198 + 1;
#X obj 110 215 random \$1;
#X connect 0 0 11 0;
#X connect 1 0 4 0;
#X connect 2 0 5 0;
#X connect 3 0 6 0;
#X connect 4 0 3 0;
#X connect 4 0 7 0;
#X connect 5 0 4 0;
#X connect 5 1 3 1;
#X connect 5 1 7 1;
#X connect 6 0 10 0;
#X connect 7 0 8 1;
#X connect 8 0 9 0;
#X connect 10 0 11 1;
#X connect 11 0 8 0;
