#N canvas 401 173 1366 725 10;
#X obj 198 304 readsf~;
#X obj 142 103 inlet;
#X msg 184 260 open \$1 \, 1;
#X obj 376 468 outlet;
#X msg 200 364 stop;
#X text 435 370 blocksize;
#X obj 158 386 tabwrite~ \$1;
#X obj 409 414 min \$2;
#X obj 158 212 t b a;
#X obj 274 142 print \$1;
#X obj 217 233 list;
#X obj 416 246 soundfile_info;
#X msg 288 228 read \$1;
#X msg 437 285 \$3;
#X obj 523 318 nbx 10 14 -1e+037 1e+037 0 0 empty empty empty 0 -8
0 10 -262144 -1 -1 0 256;
#X obj 78 411 block~ 64 1 2;
#X connect 0 0 6 0;
#X connect 0 1 4 0;
#X connect 1 0 8 0;
#X connect 1 0 9 0;
#X connect 2 0 0 0;
#X connect 4 0 6 0;
#X connect 7 0 3 0;
#X connect 8 0 6 0;
#X connect 8 1 10 0;
#X connect 10 0 2 0;
#X connect 10 0 12 0;
#X connect 11 0 13 0;
#X connect 12 0 11 0;
#X connect 13 0 14 0;
#X connect 14 0 7 0;
