#N canvas 14 0 1366 729 10;
#N canvas 0 50 450 250 (subpatch) 0;
#X array \$0-plot 40000 float 2;
#X coords 0 1 40000 -1 200 280 1 0 0;
#X restore 1012 352 graph;
#X obj 139 75 t b b;
#X obj 142 52 bng 15 250 50 0 empty empty empty 17 7 0 10 -262144 -1
-1;
#X obj 58 291 loop~;
#X msg 55 252 bang;
#N canvas 0 50 450 250 (subpatch) 0;
#X array \$0-plot2 40000 float 2;
#X coords 0 1 40000 0 200 140 1 0 0;
#X restore 1013 171 graph;
#X msg 21 194 1;
#X obj 184 173 r~ \$0-len;
#X obj 174 242 *~ 20000;
#X obj 315 563 *~;
#X obj 370 597 /~ 20000;
#N canvas 0 50 450 300 rand~ 0;
#X obj 95 148 outlet~;
#X obj 123 64 noise~;
#X obj 144 95 *~ 0.5;
#X obj 156 134 +~ 0.5;
#X connect 1 0 2 0;
#X connect 2 0 3 0;
#X connect 3 0 0 0;
#X restore 32 382 pd rand~;
#X obj 32 425 samphold~;
#X obj 142 271 max~ 64;
#X obj 815 553 snapshot~;
#X obj 826 581 nbx 8 14 -1e+037 1e+037 0 0 empty empty empty 0 -8 0
10 -262144 -1 -1 469263 256;
#X obj 850 498 bng 15 250 50 0 empty empty empty 17 7 0 10 -262144
-1 -1;
#X obj 881 551 snapshot~;
#X obj 892 579 nbx 5 14 -1e+037 1e+037 0 0 empty empty empty 0 -8 0
10 -262144 -1 -1 0.591826 256;
#N canvas 0 50 450 250 (subpatch) 0;
#X array \$0-plot4 40000 float 2;
#X coords 0 1 40000 0 200 140 1 0 0;
#X restore 753 42 graph;
#N canvas 0 50 450 250 (subpatch) 0;
#X array \$0-plot3 40000 float 2;
#X coords 0 1 40000 0 200 140 1 0 0;
#X restore 1014 31 graph;
#X obj 267 673 tabwrite~ \$0-plot4;
#N canvas 0 50 450 250 (subpatch) 0;
#X array sample 1.86043e+006 float 2;
#X coords 0 1 1.86043e+006 -1 200 140 1;
#X restore 353 33 graph;
#X obj 569 217 soundfiler;
#X msg 535 183 read -resize \$1 sample;
#X obj 607 126 openpanel;
#X obj 624 75 bng 15 250 50 0 empty empty empty 17 7 0 10 -262144 -1
-1;
#X obj 670 573 tabread4~ sample;
#X obj 729 660 dac~;
#X obj 544 549 *~ 20000;
#X obj 690 630 *~ 0.5;
#X obj 443 655 +~;
#X msg 81 229 0.25;
#X msg 63 199 0.5;
#X obj 686 517 +~ 1024;
#X obj 594 267 nbx 10 14 -1e+037 1e+037 0 0 empty empty empty 0 -8
0 10 -262144 -1 -1 20993.1 256;
#X obj 443 675;
#N canvas 0 50 450 300 rand~ 0;
#X obj 95 148 outlet~;
#X obj 123 64 noise~;
#X obj 144 95 *~ 0.5;
#X obj 156 134 +~ 0.5;
#X connect 1 0 2 0;
#X connect 2 0 3 0;
#X connect 3 0 0 0;
#X restore 137 396 pd rand~;
#X obj 136 425 samphold~;
#X obj 78 637 sh_buffer;
#X obj 40 481 sig~ 1;
#X obj 41 509 -~;
#X obj 142 544 *~;
#X obj 75 585 s~ \$0-len;
#X msg 220 77 20000;
#X obj 466 327 -~ 0.5;
#X obj 482 395 *~;
#X obj 488 364 *~ 2;
#X obj 574 334 sig~ 1;
#X obj 589 395 -~;
#X obj 685 606 *~;
#X obj 788 371 expr~ tanh($v1*$v2);
#X obj 821 315 sig~ 1;
#X obj 816 217 nbx 5 14 -1e+037 1e+037 0 0 empty empty empty 0 -8 0
10 -262144 -1 -1 6 256;
#X obj 799 289 / 10;
#X obj 144 481 *~;
#X msg 17 227 2;
#X obj 332 534 *~ 1;
#X obj 673 244 *;
#X obj 695 206 hsl 128 15 0 1 0 0 empty empty empty -2 -8 0 10 -262144
-1 -1 1400 1;
#X obj 661 325 *;
#X obj 683 287 hsl 128 15 0 1 0 0 empty empty empty -2 -8 0 10 -262144
-1 -1 3100 1;
#X obj 727 240 *;
#X connect 1 1 21 0;
#X connect 2 0 1 0;
#X connect 3 0 9 0;
#X connect 3 0 12 1;
#X connect 3 0 38 1;
#X connect 3 0 39 1;
#X connect 3 0 45 0;
#X connect 3 1 14 0;
#X connect 3 1 57 0;
#X connect 4 0 3 0;
#X connect 6 0 3 0;
#X connect 7 0 8 0;
#X connect 8 0 13 0;
#X connect 9 0 10 0;
#X connect 10 0 31 0;
#X connect 11 0 12 0;
#X connect 12 0 41 1;
#X connect 12 0 39 0;
#X connect 13 0 3 1;
#X connect 14 0 15 0;
#X connect 16 0 14 0;
#X connect 16 0 17 0;
#X connect 17 0 18 0;
#X connect 23 0 35 0;
#X connect 23 0 58 1;
#X connect 23 0 60 1;
#X connect 24 0 23 0;
#X connect 25 0 24 0;
#X connect 26 0 25 0;
#X connect 27 0 50 0;
#X connect 29 0 34 0;
#X connect 29 0 14 0;
#X connect 30 0 28 0;
#X connect 30 0 28 1;
#X connect 31 0 36 0;
#X connect 31 0 29 0;
#X connect 31 0 21 0;
#X connect 32 0 3 0;
#X connect 33 0 3 0;
#X connect 34 0 27 0;
#X connect 35 0 8 1;
#X connect 35 0 10 1;
#X connect 35 0 29 1;
#X connect 35 0 4 0;
#X connect 37 0 38 0;
#X connect 38 0 55 0;
#X connect 38 0 55 1;
#X connect 39 0 31 0;
#X connect 40 0 41 0;
#X connect 41 0 42 0;
#X connect 42 0 43 0;
#X connect 44 0 35 0;
#X connect 45 0 47 0;
#X connect 46 0 49 1;
#X connect 47 0 46 0;
#X connect 47 0 46 1;
#X connect 48 0 49 0;
#X connect 49 0 51 0;
#X connect 50 0 30 0;
#X connect 51 0 50 1;
#X connect 51 0 17 0;
#X connect 52 0 51 1;
#X connect 53 0 54 0;
#X connect 54 0 52 0;
#X connect 55 0 42 1;
#X connect 56 0 3 0;
#X connect 57 0 9 1;
#X connect 58 0 35 0;
#X connect 59 0 62 0;
#X connect 59 0 62 1;
#X connect 60 0 34 1;
#X connect 61 0 60 0;
#X connect 62 0 58 0;
