#N canvas 570 188 450 300 10;
#X obj 67 39 inlet~;
#X obj 64 245 outlet~;
#X obj 78 81 s~ \$0-s;
#X obj 81 143 r~ \$0-s;
#X obj 99 201 samphold~;
#X obj 205 29 inlet~;
#X connect 0 0 2 0;
#X connect 3 0 4 0;
#X connect 4 0 1 0;
#X connect 5 0 4 1;
