#N canvas 859 240 575 651 10;
#X obj 304 186 r notesIn-\$1;
#X obj 304 431 s notesOut-\$1;
#X obj 23 9 r loaddefs-\$1;
#X msg 23 76 loaddefinitions \$1;
#X obj 181 9 r loadbang-\$1;
#X obj 181 76 print loading definiton for \$1;
#X obj 23 41 symbol;
#X obj 25 186 inlet~ inL-\$1;
#X obj 135 186 inlet~ inR-\$1;
#X obj 27 601 outlet~ outL-\$1;
#X obj 167 601 outlet~ outR-\$1;
#X obj 453 144 r auxIn-\$1;
#X obj 452 167 r expIn-\$1;
#X obj 452 192 r fsIn-\$1;
#X obj 43 549 +~;
#X obj 182 546 +~;
#X obj 182 568 saturate~ 0.3;
#X obj 43 571 saturate~ 0.3;
#X text 281 589 cc \, by \; kyle werle \; may 2018 \;;
#X text 32 162 pyramid constructors;
#X text 286 566 geodesic growth;
#X obj 235 126 cnv 15 15 15 empty empty TITAN 20 12 0 32 -262144 -66577
0;
#X obj 36 314 poly 1 1;
#X obj 80 363 r transpose-\$1;
#X obj 62 338 - 12;
#X obj 62 387 +;
#X obj 62 413 synthDrum~ \$1;
#X obj 23 112 KontrolModule \$1 S-TITAN;
#X obj 181 45 print loaded:TITAN into \$1, f 35;
#X connect 0 0 1 0;
#X connect 0 0 22 0;
#X connect 2 0 6 0;
#X connect 2 0 5 0;
#X connect 3 0 27 0;
#X connect 4 0 28 0;
#X connect 6 0 3 0;
#X connect 7 0 9 0;
#X connect 8 0 10 0;
#X connect 14 0 17 0;
#X connect 15 0 16 0;
#X connect 16 0 10 0;
#X connect 17 0 9 0;
#X connect 22 1 24 0;
#X connect 22 2 26 1;
#X connect 23 0 25 1;
#X connect 24 0 25 0;
#X connect 25 0 26 0;
#X connect 26 0 14 1;
#X connect 26 0 15 1;
