#N canvas 1095 85 434 877 10;
#X obj 34 634 *~;
#X obj 290 596 vline~;
#X obj 290 521 f;
#X msg 146 147 1 1 \, 0 \$1 1;
#X obj 146 176 vline~;
#X obj 146 208 *~;
#X obj 146 228 *~;
#X obj 146 126 f;
#X obj 146 351 *~;
#X obj 221 269 pack 0 50;
#X obj 221 291 line~;
#X obj 34 367 +~;
#X obj 34 346 line~;
#X obj 34 852 outlet~;
#X obj 221 313 +~;
#X obj 221 335 clip~ 0 0.5;
#N canvas 298 106 758 559 anti-alias 0;
#X obj 144 23 inlet~;
#X obj 144 509 outlet~;
#X obj 144 69 osc~;
#N canvas 815 217 827 636 wform-xfader 0;
#X obj 101 424 *~;
#X obj 102 504 outlet~;
#X obj 101 365 inlet~ A;
#X obj 238 428 *~;
#X obj 235 373 inlet~ B;
#X obj 389 434 *~;
#X obj 386 379 inlet~ C;
#X obj 90 159 clip~ 0 1;
#X obj 90 285 lop~ 10;
#X obj 208 285 lop~ 10;
#X obj 327 285 lop~ 10;
#X obj 90 186 expr~ if ($v1 < 0.5 \, (1-$v1*2) \, 0 ) \; if ($v1 <
0.5 \, $v1*2 \, (1-$v1+0.5)*2-1 ) \; if ($v1 > 0.5 \, ($v1*2-1) \,
0 );
#X obj 90 234 clip~ 0 1;
#X obj 208 241 clip~ 0 1;
#X obj 327 240 clip~ 0 1;
#X obj 410 61 inlet~ D;
#X connect 0 0 1 0;
#X connect 2 0 0 0;
#X connect 3 0 1 0;
#X connect 4 0 3 0;
#X connect 5 0 1 0;
#X connect 6 0 5 0;
#X connect 7 0 11 0;
#X connect 8 0 0 1;
#X connect 9 0 3 1;
#X connect 10 0 5 1;
#X connect 11 0 12 0;
#X connect 11 1 13 0;
#X connect 11 2 14 0;
#X connect 12 0 8 0;
#X connect 13 0 9 0;
#X connect 14 0 10 0;
#X connect 15 0 7 0;
#X restore 144 283 pd wform-xfader;
#X obj 388 77 phasor~;
#X obj 388 99 expr~ $v1 > 0.5;
#X obj 388 121 *~ 2;
#X obj 388 143 -~ 1;
#X obj 211 91 phasor~;
#X obj 211 223 -~ 1;
#X obj 211 113 *~ 2;
#X obj 246 257 inlet~;
#X connect 0 0 2 0;
#X connect 0 0 4 0;
#X connect 0 0 8 0;
#X connect 2 0 3 0;
#X connect 3 0 1 0;
#X connect 4 0 5 0;
#X connect 5 0 6 0;
#X connect 6 0 7 0;
#X connect 7 0 3 2;
#X connect 8 0 10 0;
#X connect 9 0 3 1;
#X connect 10 0 9 0;
#X connect 11 0 3 3;
#X restore 34 569 pd anti-alias;
#X obj 82 46 inlet;
#X obj 290 618 sqrt~;
#X obj 34 304 mtof;
#X text 338 493 decay;
#X text 274 247 EG amt;
#X obj 34 325 pack 0 7.3;
#X obj 146 248 *~;
#X obj 146 277 *~ 3141;
#X obj 164 102 f;
#X obj 221 247 * 0.25;
#X obj 34 259 inlet;
#X obj 343 523 / 127;
#X obj 290 547 pack f f;
#X obj 82 68 sel 0;
#X text 195 102 EG decay;
#X obj 308 492 f;
#X text 80 27 velocity;
#X obj 101 300 r glide-\$1;
#X obj 164 79 r EGdecay-\$1;
#X obj 221 203 r EGamt-\$1;
#X obj 308 468 r decay-\$1;
#X obj 121 478 *~ -1;
#X obj 121 456 phasor~ 50;
#X obj 121 500 +~ 1;
#X obj 120 389 r waveFreq-\$1;
#X obj 120 411 sig~;
#X obj 120 433 lop~ 10;
#X obj 209 440 r waveAmt-\$1;
#X obj 209 484 sig~;
#X obj 209 506 lop~ 10;
#X obj 121 522 *~;
#X obj 209 462 / 100;
#X obj 221 225 / 100;
#X msg 188 415 0;
#X obj 82 91 t b b b f;
#X obj 121 712 osc~;
#X obj 121 778 *~;
#X obj 121 734 +~ 2;
#X obj 121 756 *~ 700;
#X msg 290 574 \$2 33 \, 0 \$1 1;
#X obj 122 800 +~ 150;
#X obj 34 684 lop~ 150;
#X obj 34 661 lop~ 150;
#X obj 102 826 vcf~ 4;
#X obj 193 696 r filtAmt-\$1;
#X obj 193 718 / 100;
#X obj 193 740 sig~;
#X obj 193 762 lop~ 10;
#X obj 121 666 sig~;
#X obj 121 688 lop~ 10;
#X obj 121 643 r filtFreq-\$1;
#X connect 0 0 59 0;
#X connect 0 0 60 0;
#X connect 1 0 18 0;
#X connect 2 0 29 0;
#X connect 3 0 4 0;
#X connect 4 0 5 0;
#X connect 4 0 5 1;
#X connect 5 0 6 0;
#X connect 5 0 6 1;
#X connect 6 0 23 0;
#X connect 6 0 23 1;
#X connect 7 0 3 0;
#X connect 8 0 11 1;
#X connect 9 0 10 0;
#X connect 10 0 14 0;
#X connect 11 0 16 0;
#X connect 12 0 11 0;
#X connect 14 0 15 0;
#X connect 15 0 8 1;
#X connect 16 0 0 0;
#X connect 17 0 30 0;
#X connect 18 0 0 1;
#X connect 19 0 22 0;
#X connect 22 0 12 0;
#X connect 23 0 24 0;
#X connect 24 0 8 0;
#X connect 25 0 7 1;
#X connect 26 0 9 0;
#X connect 27 0 19 0;
#X connect 28 0 29 1;
#X connect 29 0 56 0;
#X connect 30 1 51 0;
#X connect 32 0 2 1;
#X connect 34 0 22 1;
#X connect 35 0 25 0;
#X connect 36 0 49 0;
#X connect 37 0 32 0;
#X connect 38 0 40 0;
#X connect 39 0 38 0;
#X connect 40 0 47 0;
#X connect 41 0 42 0;
#X connect 42 0 43 0;
#X connect 43 0 39 0;
#X connect 44 0 48 0;
#X connect 45 0 46 0;
#X connect 46 0 47 1;
#X connect 47 0 16 1;
#X connect 48 0 45 0;
#X connect 49 0 26 0;
#X connect 50 0 39 1;
#X connect 51 0 2 0;
#X connect 51 1 7 0;
#X connect 51 2 50 0;
#X connect 51 3 28 0;
#X connect 52 0 54 0;
#X connect 53 0 57 0;
#X connect 54 0 55 0;
#X connect 55 0 53 0;
#X connect 56 0 1 0;
#X connect 57 0 60 1;
#X connect 58 0 13 0;
#X connect 59 0 58 0;
#X connect 60 0 13 0;
#X connect 61 0 62 0;
#X connect 62 0 63 0;
#X connect 63 0 64 0;
#X connect 64 0 53 1;
#X connect 65 0 66 0;
#X connect 66 0 52 0;
#X connect 67 0 65 0;
