#N canvas 1439 23 1121 977 10;
#X obj 153 798 list split 3;
#X floatatom 410 804 5 0 0 0 - - -, f 5;
#X text 447 796 amt of notes;
#X obj 129 201 change;
#X msg 677 229 0 0 0 0 0;
#X msg 625 260 -1 0 0 0 0;
#X msg 292 442 -1 -1 -1 0 0;
#X msg 410 377 -1 0 -1 0 0;
#X msg 209 509 -1 0 -1 -1 0;
#X obj 157 821 list-rot;
#X floatatom 375 723 5 0 0 0 - - -, f 5;
#X obj 361 908 s toDisplay;
#X msg 545 285 -1 0 1 0 0;
#X msg 516 309 -1 -1 0 0 0;
#X msg 451 342 -1 -1 0 1 1;
#X msg 358 409 -1 1 -1 0 1;
#X msg 249 473 -1 -1 -1 1 1;
#X msg 165 539 -1 1 -1 -1 1;
#X msg 122 567 -1 -1 -1 -1 1;
#X msg 545 285 -1 0 1 0 0;
#X msg 98 599 -2 0 2 1 0;
#X msg 62 621 -2 1 1 2 0;
#X obj 129 224 sel 14 13 12 11 10 9 8 7 6 5 4 3 2 1;
#X obj 154 774 list;
#X obj 350 753 t b f;
#X text 561 728 every chord has its own send/list that is banged when
the corresponding chord is played.;
#X obj 189 849 print;
#X obj 65 759 bng 15 250 50 0 empty empty empty 17 7 0 10 -262144 -1
-1;
#X msg 235 709 set \$1 \$2 \$3 \$4 \$5;
#X msg 238 744 -1 1 -1 0 1;
#X text 378 699 rotate notes;
#X obj 159 881 s chord\$0Trans;
#X obj 398 770 r noteAmt-\$1;
#X obj 400 639 r rot\$0-\$1;
#X obj 621 512 print STUFF;
#X obj 614 426 loadbang;
#X obj 127 154 r pos\$1-\$1;
#X msg 619 460 \$1;
#X connect 0 0 9 0;
#X connect 1 0 0 1;
#X connect 3 0 22 0;
#X connect 4 0 23 0;
#X connect 5 0 23 0;
#X connect 6 0 23 0;
#X connect 7 0 23 0;
#X connect 8 0 23 0;
#X connect 9 0 26 0;
#X connect 9 0 31 0;
#X connect 10 0 24 0;
#X connect 13 0 23 0;
#X connect 14 0 23 0;
#X connect 15 0 23 0;
#X connect 16 0 23 0;
#X connect 17 0 23 0;
#X connect 18 0 23 0;
#X connect 19 0 23 0;
#X connect 20 0 23 0;
#X connect 21 0 23 0;
#X connect 22 0 21 0;
#X connect 22 1 20 0;
#X connect 22 2 18 0;
#X connect 22 3 17 0;
#X connect 22 4 8 0;
#X connect 22 5 16 0;
#X connect 22 6 6 0;
#X connect 22 7 15 0;
#X connect 22 8 7 0;
#X connect 22 9 14 0;
#X connect 22 10 13 0;
#X connect 22 11 19 0;
#X connect 22 12 5 0;
#X connect 22 13 4 0;
#X connect 23 0 0 0;
#X connect 23 0 28 0;
#X connect 24 0 29 0;
#X connect 24 1 9 1;
#X connect 27 0 23 0;
#X connect 28 0 29 0;
#X connect 29 0 0 0;
#X connect 32 0 1 0;
#X connect 33 0 10 0;
#X connect 35 0 37 0;
#X connect 36 0 3 0;
#X connect 37 0 34 0;
