#N canvas 190 169 1540 726 10;
#X obj 304 186 r notesIn-\$1;
#X obj 23 112 KontrolModule \$1 U-default;
#X obj 304 491 s notesOut-\$1;
#X obj 23 9 r loaddefs-\$1;
#X msg 23 76 loaddefinitions \$1;
#X obj 181 9 r loadbang-\$1;
#X obj 181 76 print loading definiton for \$1;
#X obj 23 41 symbol;
#X obj 25 186 inlet~ inL-\$1;
#X obj 135 186 inlet~ inR-\$1;
#X obj 27 491 outlet~ outL-\$1;
#X obj 136 491 outlet~ outR-\$1;
#X obj 424 185 r auxIn-\$1;
#X obj 423 208 r expIn-\$1;
#X obj 423 233 r fsIn-\$1;
#X obj 181 45 print loaded:default into \$1, f 35;
#X obj 516 45 int 0;
#X obj 516 76 s aux-led-\$1;
#X obj 628 169 s aux-label-\$1;
#X msg 628 137 Audio/Notes passthru;
#N canvas 304 50 1612 968 chorder 1;
#X floatatom 308 253 5 0 0 0 - - -, f 5;
#X floatatom 205 265 5 0 0 0 - - -, f 5;
#X text 268 188 Degree of the chord in the major scale;
#X floatatom 737 900 5 0 0 0 - - -, f 5;
#X text 636 877 You might want to transpose as well;
#X obj 735 923 musical.cycle5;
#X floatatom 735 947 5 0 0 0 - - -, f 5;
#X text 277 201 1 is the first degree \, not 0;
#X obj 230 316 musical.degree2chord;
#X obj 174 922 makenote 127 1000;
#X obj 207 84 t b b;
#X floatatom 121 180 5 0 0 0 - - -, f 5;
#X obj 230 340 list-sort;
#X obj 173 973 outlet;
#X obj 66 504 unpack f f f f f;
#X msg 142 112 1 2 4 5 1 1 1 1;
#X text 324 233 Number of notes in the chord (3-5);
#X obj 172 950 pack 0 0;
#N canvas 7 50 450 300 counter 0;
#X obj 55 100 f;
#X obj 89 98 + 1;
#X obj 50 78 bng 15 250 50 0 empty empty empty 17 7 0 10 -262144 -1
-1;
#X floatatom 64 169 5 0 0 0 - - -, f 5;
#X obj 57 124 % 4;
#X obj 33 36 inlet;
#X obj 66 208 outlet;
#X floatatom 177 112 5 0 0 0 - - -, f 5;
#X obj 148 80 r chordAmt-\$1;
#X connect 0 0 1 0;
#X connect 0 0 4 0;
#X connect 1 0 0 1;
#X connect 2 0 0 0;
#X connect 3 0 6 0;
#X connect 4 0 3 0;
#X connect 5 0 2 0;
#X connect 8 0 4 1;
#X connect 8 0 7 0;
#X restore 254 125 pd counter;
#X obj 188 181 list-nth;
#X obj 288 217 r noteAmt-\$1;
#X obj 106 747 + 60;
#X obj 149 745 + 60;
#X obj 193 750 + 60;
#X obj 182 810 spigot;
#X obj 241 809 spigot;
#X obj 292 809 spigot;
#X obj 240 751 + 60;
#X obj 289 757 + 60;
#X obj 223 792 tgl 15 0 empty empty empty 17 7 0 10 -262144 -1 -1 0
1;
#X obj 276 788 tgl 15 0 empty empty empty 17 7 0 10 -262144 -1 -1 0
1;
#X obj 326 785 tgl 15 0 empty empty empty 17 7 0 10 -262144 -1 -1 0
1;
#X obj 383 735 r noteAmt-\$1;
#N canvas 64 298 931 473 scalelabels 0;
#X msg 481 50 major;
#X msg 499 74 harmonic minor;
#X msg 529 102 lydian-dominant (jazzy);
#X msg 546 135 middle-east-like minor;
#X msg 569 164 chromatic blues;
#X msg 585 194 wholetone;
#X msg 599 225 diminished scale;
#X msg 614 253 pentatonic;
#X msg 629 280 pentatonic blues;
#X msg 321 50 0 2 4 5 7 9 11;
#X msg 400 131 0 1 4 5 7 8 11;
#X msg 355 100 0 2 4 6 7 9 10;
#X msg 334 77 0 2 3 5 7 8 11;
#X msg 402 184 0 2 4 6 8 10;
#X msg 421 208 0 2 3 5 6 8 9 11;
#X msg 390 162 0 2 3 4 5 6 7 9 10 11;
#X msg 429 234 0 2 4 7 9;
#X msg 425 260 0 2 3 4 7 8 9;
#X obj 386 7 r scale-\$1;
#X obj 535 34 sel 1 2 3 4 5 6 7 8 9;
#X obj 454 355 outlet;
#X obj 608 352 s aux-label-\$1;
#X obj 186 23 loadbang;
#X msg 186 57 1;
#X obj 742 358 s curScale;
#X connect 0 0 21 0;
#X connect 0 0 24 0;
#X connect 1 0 21 0;
#X connect 1 0 24 0;
#X connect 2 0 21 0;
#X connect 2 0 24 0;
#X connect 3 0 21 0;
#X connect 3 0 24 0;
#X connect 4 0 21 0;
#X connect 4 0 24 0;
#X connect 5 0 21 0;
#X connect 5 0 24 0;
#X connect 6 0 21 0;
#X connect 6 0 24 0;
#X connect 7 0 21 0;
#X connect 7 0 24 0;
#X connect 8 0 21 0;
#X connect 8 0 24 0;
#X connect 9 0 20 0;
#X connect 10 0 20 0;
#X connect 11 0 20 0;
#X connect 12 0 20 0;
#X connect 13 0 20 0;
#X connect 14 0 20 0;
#X connect 15 0 20 0;
#X connect 16 0 20 0;
#X connect 17 0 20 0;
#X connect 18 0 19 0;
#X connect 19 0 0 0;
#X connect 19 0 9 0;
#X connect 19 1 12 0;
#X connect 19 1 1 0;
#X connect 19 2 11 0;
#X connect 19 2 2 0;
#X connect 19 3 10 0;
#X connect 19 3 3 0;
#X connect 19 4 15 0;
#X connect 19 4 4 0;
#X connect 19 5 13 0;
#X connect 19 5 5 0;
#X connect 19 6 14 0;
#X connect 19 6 6 0;
#X connect 19 7 16 0;
#X connect 19 7 7 0;
#X connect 19 8 17 0;
#X connect 19 8 8 0;
#X connect 22 0 23 0;
#X connect 23 0 19 0;
#X restore 364 98 pd scalelabels;
#N canvas 910 388 450 300 COUNTMEASURE 0;
#X obj 73 41 r master-ticks;
#N canvas 10 50 450 300 counter 0;
#X obj 55 100 f;
#X obj 89 98 + 1;
#X obj 50 78 bng 15 250 50 0 empty empty empty 17 7 0 10 -262144 -1
-1;
#X floatatom 64 169 5 0 0 0 - - -, f 5;
#X obj 57 124 % 4;
#X obj 33 36 inlet;
#X obj 66 208 outlet;
#X obj 85 46 inlet;
#X connect 0 0 1 0;
#X connect 0 0 4 0;
#X connect 1 0 0 1;
#X connect 2 0 0 0;
#X connect 3 0 6 0;
#X connect 4 0 3 0;
#X connect 5 0 2 0;
#X connect 7 0 0 1;
#X restore 162 113 pd counter;
#X obj 159 137 sel 0;
#X obj 162 173 bng 15 250 50 0 empty empty empty 17 7 0 10 -262144
-1 -1;
#X obj 160 79 sel 0;
#X text 181 170 bars;
#X obj 243 139 sel 0;
#X obj 246 175 bng 15 250 50 0 empty empty empty 17 7 0 10 -262144
-1 -1;
#X obj 244 81 sel 0;
#N canvas 11 50 450 300 counter 0;
#X obj 55 100 f;
#X obj 89 98 + 1;
#X obj 50 78 bng 15 250 50 0 empty empty empty 17 7 0 10 -262144 -1
-1;
#X floatatom 64 169 5 0 0 0 - - -, f 5;
#X obj 33 36 inlet;
#X obj 66 208 outlet;
#X obj 85 46 inlet;
#X obj 57 124 % 8;
#X connect 0 0 1 0;
#X connect 0 0 7 0;
#X connect 1 0 0 1;
#X connect 2 0 0 0;
#X connect 3 0 5 0;
#X connect 4 0 2 0;
#X connect 6 0 0 1;
#X connect 7 0 3 0;
#X restore 242 113 pd counter;
#X msg 311 82 0;
#X obj 315 54 loadbang;
#X text 265 172 2 bars;
#N canvas 11 50 450 300 counter 0;
#X obj 55 100 f;
#X obj 89 98 + 1;
#X obj 50 78 bng 15 250 50 0 empty empty empty 17 7 0 10 -262144 -1
-1;
#X floatatom 64 169 5 0 0 0 - - -, f 5;
#X obj 33 36 inlet;
#X obj 66 208 outlet;
#X obj 85 46 inlet;
#X obj 57 124 % 2;
#X connect 0 0 1 0;
#X connect 0 0 7 0;
#X connect 1 0 0 1;
#X connect 2 0 0 0;
#X connect 3 0 5 0;
#X connect 4 0 2 0;
#X connect 6 0 0 1;
#X connect 7 0 3 0;
#X restore 52 109 pd counter;
#X obj 49 133 sel 0;
#X obj 52 169 bng 15 250 50 0 empty empty empty 17 7 0 10 -262144 -1
-1;
#X obj 50 75 sel 0;
#X text 71 166 0.5 bar;
#X obj 172 231 outlet;
#X connect 0 0 4 0;
#X connect 0 0 8 0;
#X connect 0 0 16 0;
#X connect 1 0 2 0;
#X connect 2 0 3 0;
#X connect 3 0 18 0;
#X connect 4 0 1 0;
#X connect 6 0 7 0;
#X connect 8 0 9 0;
#X connect 9 0 6 0;
#X connect 10 0 1 1;
#X connect 10 0 9 1;
#X connect 10 0 13 1;
#X connect 11 0 10 0;
#X connect 13 0 14 0;
#X connect 14 0 15 0;
#X connect 16 0 13 0;
#X restore 205 29 pd COUNTMEASURE;
#N canvas 4 50 1055 610 makeChordProg 0;
#X obj 29 27 r chord1-\$1;
#X obj 127 27 r chord2-\$1;
#X obj 214 27 r chord3-\$1;
#X obj 299 25 r chord4-\$1;
#X obj 35 105 r chord5-\$1;
#X obj 125 103 r chord6-\$1;
#X obj 217 94 r chord7-\$1;
#X obj 308 102 r chord8-\$1;
#X obj 60 207 pack f f f f f f f f f;
#X obj 125 51 t b f;
#X obj 207 48 t b f;
#X obj 305 51 t b f;
#X obj 31 125 t b f;
#X obj 124 122 t b f;
#X obj 208 125 t b f, f 7;
#X obj 309 126 t b f, f 7;
#X obj 63 243 outlet;
#X connect 0 0 8 0;
#X connect 1 0 9 0;
#X connect 2 0 10 0;
#X connect 3 0 11 0;
#X connect 4 0 12 0;
#X connect 5 0 13 0;
#X connect 6 0 14 0;
#X connect 7 0 15 0;
#X connect 8 0 16 0;
#X connect 9 0 8 0;
#X connect 9 1 8 1;
#X connect 10 0 8 0;
#X connect 10 1 8 2;
#X connect 11 0 8 0;
#X connect 11 1 8 3;
#X connect 12 0 8 0;
#X connect 12 1 8 4;
#X connect 13 0 8 0;
#X connect 13 1 8 5;
#X connect 14 0 8 0;
#X connect 14 1 8 6;
#X connect 15 0 8 0;
#X connect 15 1 8 7;
#X restore 11 44 pd makeChordProg;
#X msg 5 81 set \$1 \$2 \$3 \$4 \$5 \$6 \$7 \$8;
#X obj 187 214 sel 0;
#N canvas 93 413 612 418 chordLength 0;
#X obj 33 278 outlet;
#X obj 67 23 r master-bpm;
#X floatatom 93 53 5 0 0 0 - - -, f 5;
#X obj 127 120 t b f;
#X obj 134 156 /;
#X msg 76 138 60000;
#X floatatom 133 183 5 0 0 0 - - -, f 5;
#X obj 159 226 *;
#X obj 212 89 r chordlngth-\$1;
#X floatatom 232 120 5 0 0 0 - - -, f 5;
#X obj 207 187 t b f;
#X obj 130 81 * 0.5;
#X obj 217 147 / 100;
#X connect 1 0 2 0;
#X connect 2 0 11 0;
#X connect 3 0 5 0;
#X connect 3 1 4 1;
#X connect 4 0 6 0;
#X connect 5 0 4 0;
#X connect 6 0 7 0;
#X connect 7 0 0 0;
#X connect 8 0 9 0;
#X connect 9 0 12 0;
#X connect 10 0 6 0;
#X connect 10 1 7 1;
#X connect 11 0 3 0;
#X connect 12 0 10 0;
#X restore 272 893 pd chordLength;
#X obj 93 723 + 0;
#X obj 154 725 + 0;
#X obj 204 724 + 0;
#X obj 250 726 + 0;
#X obj 300 725 + 0;
#X obj 287 158 s whichChordPlaying;
#X msg 384 598 set \$1 \$2 \$3 \$4 \$5;
#X obj 255 520 r whichChordPlaying;
#X obj 260 579 sel 1 2 3 4 5 6 7 8;
#X msg 340 634 0 0 0 0 0;
#X msg 505 595 set \$1 \$2 \$3 \$4 \$5;
#X msg 507 631 -1 0 0 0 0;
#N canvas 292 51 1086 805 chordpos1 0;
#X obj 203 474 list split 3;
#X floatatom 460 480 5 0 0 0 - - -, f 5;
#X text 497 472 amt of notes;
#X obj 179 -123 change;
#X msg 727 -95 0 0 0 0 0;
#X msg 675 -64 -1 0 0 0 0;
#X msg 342 118 -1 -1 -1 0 0;
#X msg 460 53 -1 0 -1 0 0;
#X msg 259 185 -1 0 -1 -1 0;
#X obj 207 497 list-rot;
#X floatatom 425 399 5 0 0 0 - - -, f 5;
#X obj 297 525 s toDisplay;
#X msg 595 -39 -1 0 1 0 0;
#X msg 566 -15 -1 -1 0 0 0;
#X msg 501 18 -1 -1 0 1 1;
#X msg 408 85 -1 1 -1 0 1;
#X msg 299 149 -1 -1 -1 1 1;
#X msg 215 215 -1 1 -1 -1 1;
#X msg 172 243 -1 -1 -1 -1 1;
#X msg 595 -39 -1 0 1 0 0;
#X msg 148 275 -2 0 2 1 0;
#X msg 112 297 -2 1 1 2 0;
#X obj 179 -100 sel 14 13 12 11 10 9 8 7 6 5 4 3 2 1;
#X obj 204 450 list;
#X obj 400 429 t b f;
#X text 573 372 every chord has its own send/list that is banged when
the corresponding chord is played.;
#X obj 115 435 bng 15 250 50 0 empty empty empty 17 7 0 10 -262144
-1 -1;
#X msg 285 385 set \$1 \$2 \$3 \$4 \$5;
#X msg 288 420 0 0 0 0 0;
#X text 428 375 rotate notes;
#X obj 448 446 r noteAmt-\$1;
#X obj 177 -170 r pos1-\$1;
#X obj 206 526 s chordTrans1;
#X obj 450 315 r rot1-\$1;
#X connect 0 0 9 0;
#X connect 1 0 0 1;
#X connect 3 0 22 0;
#X connect 4 0 23 0;
#X connect 5 0 23 0;
#X connect 6 0 23 0;
#X connect 7 0 23 0;
#X connect 8 0 23 0;
#X connect 9 0 32 0;
#X connect 9 0 11 0;
#X connect 10 0 24 0;
#X connect 13 0 23 0;
#X connect 14 0 23 0;
#X connect 15 0 23 0;
#X connect 16 0 23 0;
#X connect 17 0 23 0;
#X connect 18 0 23 0;
#X connect 19 0 23 0;
#X connect 20 0 23 0;
#X connect 21 0 23 0;
#X connect 22 0 21 0;
#X connect 22 1 20 0;
#X connect 22 2 18 0;
#X connect 22 3 17 0;
#X connect 22 4 8 0;
#X connect 22 5 16 0;
#X connect 22 6 6 0;
#X connect 22 7 15 0;
#X connect 22 8 7 0;
#X connect 22 9 14 0;
#X connect 22 10 13 0;
#X connect 22 11 19 0;
#X connect 22 12 5 0;
#X connect 22 13 4 0;
#X connect 23 0 0 0;
#X connect 23 0 27 0;
#X connect 24 0 28 0;
#X connect 24 1 9 1;
#X connect 26 0 23 0;
#X connect 27 0 28 0;
#X connect 28 0 0 0;
#X connect 30 0 1 0;
#X connect 31 0 3 0;
#X connect 33 0 10 0;
#X restore 468 463 pd chordpos1;
#X obj 398 566 r chordTrans1;
#X obj 519 563 r chordTrans2;
#N canvas 1055 50 1086 805 chordpos2 0;
#X obj 203 474 list split 3;
#X floatatom 460 480 5 0 0 0 - - -, f 5;
#X text 497 472 amt of notes;
#X obj 179 -123 change;
#X msg 727 -95 0 0 0 0 0;
#X msg 675 -64 -1 0 0 0 0;
#X msg 342 118 -1 -1 -1 0 0;
#X msg 460 53 -1 0 -1 0 0;
#X msg 259 185 -1 0 -1 -1 0;
#X obj 207 497 list-rot;
#X floatatom 425 399 5 0 0 0 - - -, f 5;
#X obj 297 525 s toDisplay;
#X msg 595 -39 -1 0 1 0 0;
#X msg 566 -15 -1 -1 0 0 0;
#X msg 501 18 -1 -1 0 1 1;
#X msg 408 85 -1 1 -1 0 1;
#X msg 299 149 -1 -1 -1 1 1;
#X msg 215 215 -1 1 -1 -1 1;
#X msg 172 243 -1 -1 -1 -1 1;
#X msg 595 -39 -1 0 1 0 0;
#X msg 148 275 -2 0 2 1 0;
#X msg 112 297 -2 1 1 2 0;
#X obj 179 -100 sel 14 13 12 11 10 9 8 7 6 5 4 3 2 1;
#X obj 204 450 list;
#X obj 400 429 t b f;
#X text 573 372 every chord has its own send/list that is banged when
the corresponding chord is played.;
#X obj 115 435 bng 15 250 50 0 empty empty empty 17 7 0 10 -262144
-1 -1;
#X msg 285 385 set \$1 \$2 \$3 \$4 \$5;
#X msg 288 420 -1 0 0 0 0;
#X text 428 375 rotate notes;
#X obj 448 446 r noteAmt-\$1;
#X obj 177 -170 r pos2-\$1;
#X obj 450 315 r rot2-\$1;
#X obj 206 525 s chordTrans2;
#X connect 0 0 9 0;
#X connect 1 0 0 1;
#X connect 3 0 22 0;
#X connect 4 0 23 0;
#X connect 5 0 23 0;
#X connect 6 0 23 0;
#X connect 7 0 23 0;
#X connect 8 0 23 0;
#X connect 9 0 11 0;
#X connect 9 0 33 0;
#X connect 10 0 24 0;
#X connect 13 0 23 0;
#X connect 14 0 23 0;
#X connect 15 0 23 0;
#X connect 16 0 23 0;
#X connect 17 0 23 0;
#X connect 18 0 23 0;
#X connect 19 0 23 0;
#X connect 20 0 23 0;
#X connect 21 0 23 0;
#X connect 22 0 21 0;
#X connect 22 1 20 0;
#X connect 22 2 18 0;
#X connect 22 3 17 0;
#X connect 22 4 8 0;
#X connect 22 5 16 0;
#X connect 22 6 6 0;
#X connect 22 7 15 0;
#X connect 22 8 7 0;
#X connect 22 9 14 0;
#X connect 22 10 13 0;
#X connect 22 11 19 0;
#X connect 22 12 5 0;
#X connect 22 13 4 0;
#X connect 23 0 0 0;
#X connect 23 0 27 0;
#X connect 24 0 28 0;
#X connect 24 1 9 1;
#X connect 26 0 23 0;
#X connect 27 0 28 0;
#X connect 28 0 0 0;
#X connect 30 0 1 0;
#X connect 31 0 3 0;
#X connect 32 0 10 0;
#X restore 548 463 pd chordpos2;
#N canvas 1055 50 1086 805 chordpos3 0;
#X obj 203 474 list split 3;
#X floatatom 460 480 5 0 0 0 - - -, f 5;
#X text 497 472 amt of notes;
#X obj 179 -123 change;
#X msg 727 -95 0 0 0 0 0;
#X msg 675 -64 -1 0 0 0 0;
#X msg 342 118 -1 -1 -1 0 0;
#X msg 460 53 -1 0 -1 0 0;
#X msg 259 185 -1 0 -1 -1 0;
#X obj 207 497 list-rot;
#X floatatom 425 399 5 0 0 0 - - -, f 5;
#X obj 297 525 s toDisplay;
#X msg 595 -39 -1 0 1 0 0;
#X msg 566 -15 -1 -1 0 0 0;
#X msg 501 18 -1 -1 0 1 1;
#X msg 408 85 -1 1 -1 0 1;
#X msg 299 149 -1 -1 -1 1 1;
#X msg 215 215 -1 1 -1 -1 1;
#X msg 172 243 -1 -1 -1 -1 1;
#X msg 595 -39 -1 0 1 0 0;
#X msg 148 275 -2 0 2 1 0;
#X msg 112 297 -2 1 1 2 0;
#X obj 179 -100 sel 14 13 12 11 10 9 8 7 6 5 4 3 2 1;
#X obj 204 450 list;
#X obj 400 429 t b f;
#X text 573 372 every chord has its own send/list that is banged when
the corresponding chord is played.;
#X obj 115 435 bng 15 250 50 0 empty empty empty 17 7 0 10 -262144
-1 -1;
#X msg 285 385 set \$1 \$2 \$3 \$4 \$5;
#X msg 288 420 -1 -1 0 0 0;
#X text 428 375 rotate notes;
#X obj 448 446 r noteAmt-\$1;
#X obj 177 -170 r pos3-\$1;
#X obj 206 526 s chordTrans3;
#X obj 450 315 r rot3-\$1;
#X connect 0 0 9 0;
#X connect 1 0 0 1;
#X connect 3 0 22 0;
#X connect 4 0 23 0;
#X connect 5 0 23 0;
#X connect 6 0 23 0;
#X connect 7 0 23 0;
#X connect 8 0 23 0;
#X connect 9 0 11 0;
#X connect 9 0 32 0;
#X connect 10 0 24 0;
#X connect 13 0 23 0;
#X connect 14 0 23 0;
#X connect 15 0 23 0;
#X connect 16 0 23 0;
#X connect 17 0 23 0;
#X connect 18 0 23 0;
#X connect 19 0 23 0;
#X connect 20 0 23 0;
#X connect 21 0 23 0;
#X connect 22 0 21 0;
#X connect 22 1 20 0;
#X connect 22 2 18 0;
#X connect 22 3 17 0;
#X connect 22 4 8 0;
#X connect 22 5 16 0;
#X connect 22 6 6 0;
#X connect 22 7 15 0;
#X connect 22 8 7 0;
#X connect 22 9 14 0;
#X connect 22 10 13 0;
#X connect 22 11 19 0;
#X connect 22 12 5 0;
#X connect 22 13 4 0;
#X connect 23 0 0 0;
#X connect 23 0 27 0;
#X connect 24 0 28 0;
#X connect 24 1 9 1;
#X connect 26 0 23 0;
#X connect 27 0 28 0;
#X connect 28 0 0 0;
#X connect 30 0 1 0;
#X connect 31 0 3 0;
#X connect 33 0 10 0;
#X restore 631 463 pd chordpos3;
#N canvas 1055 50 1086 805 chordpos4 0;
#X obj 203 474 list split 3;
#X floatatom 460 480 5 0 0 0 - - -, f 5;
#X text 497 472 amt of notes;
#X obj 179 -123 change;
#X msg 727 -95 0 0 0 0 0;
#X msg 675 -64 -1 0 0 0 0;
#X msg 342 118 -1 -1 -1 0 0;
#X msg 460 53 -1 0 -1 0 0;
#X msg 259 185 -1 0 -1 -1 0;
#X obj 207 497 list-rot;
#X floatatom 425 399 5 0 0 0 - - -, f 5;
#X obj 297 525 s toDisplay;
#X msg 595 -39 -1 0 1 0 0;
#X msg 566 -15 -1 -1 0 0 0;
#X msg 501 18 -1 -1 0 1 1;
#X msg 408 85 -1 1 -1 0 1;
#X msg 299 149 -1 -1 -1 1 1;
#X msg 215 215 -1 1 -1 -1 1;
#X msg 172 243 -1 -1 -1 -1 1;
#X msg 595 -39 -1 0 1 0 0;
#X msg 148 275 -2 0 2 1 0;
#X msg 112 297 -2 1 1 2 0;
#X obj 179 -100 sel 14 13 12 11 10 9 8 7 6 5 4 3 2 1;
#X obj 204 450 list;
#X obj 400 429 t b f;
#X text 573 372 every chord has its own send/list that is banged when
the corresponding chord is played.;
#X obj 115 435 bng 15 250 50 0 empty empty empty 17 7 0 10 -262144
-1 -1;
#X msg 285 385 set \$1 \$2 \$3 \$4 \$5;
#X msg 288 420 -1 -1 0 1 1;
#X text 428 375 rotate notes;
#X obj 448 446 r noteAmt-\$1;
#X obj 177 -170 r pos4-\$1;
#X obj 450 315 r rot4-\$1;
#X obj 206 526 s chordTrans4;
#X connect 0 0 9 0;
#X connect 1 0 0 1;
#X connect 3 0 22 0;
#X connect 4 0 23 0;
#X connect 5 0 23 0;
#X connect 6 0 23 0;
#X connect 7 0 23 0;
#X connect 8 0 23 0;
#X connect 9 0 11 0;
#X connect 9 0 33 0;
#X connect 10 0 24 0;
#X connect 13 0 23 0;
#X connect 14 0 23 0;
#X connect 15 0 23 0;
#X connect 16 0 23 0;
#X connect 17 0 23 0;
#X connect 18 0 23 0;
#X connect 19 0 23 0;
#X connect 20 0 23 0;
#X connect 21 0 23 0;
#X connect 22 0 21 0;
#X connect 22 1 20 0;
#X connect 22 2 18 0;
#X connect 22 3 17 0;
#X connect 22 4 8 0;
#X connect 22 5 16 0;
#X connect 22 6 6 0;
#X connect 22 7 15 0;
#X connect 22 8 7 0;
#X connect 22 9 14 0;
#X connect 22 10 13 0;
#X connect 22 11 19 0;
#X connect 22 12 5 0;
#X connect 22 13 4 0;
#X connect 23 0 0 0;
#X connect 23 0 27 0;
#X connect 24 0 28 0;
#X connect 24 1 9 1;
#X connect 26 0 23 0;
#X connect 27 0 28 0;
#X connect 28 0 0 0;
#X connect 30 0 1 0;
#X connect 31 0 3 0;
#X connect 32 0 10 0;
#X restore 711 463 pd chordpos4;
#N canvas 1055 50 1086 805 chordpos5 0;
#X obj 203 474 list split 3;
#X floatatom 460 480 5 0 0 0 - - -, f 5;
#X text 497 472 amt of notes;
#X obj 179 -123 change;
#X msg 727 -95 0 0 0 0 0;
#X msg 675 -64 -1 0 0 0 0;
#X msg 342 118 -1 -1 -1 0 0;
#X msg 460 53 -1 0 -1 0 0;
#X msg 259 185 -1 0 -1 -1 0;
#X obj 207 497 list-rot;
#X floatatom 425 399 5 0 0 0 - - -, f 5;
#X obj 297 525 s toDisplay;
#X msg 595 -39 -1 0 1 0 0;
#X msg 566 -15 -1 -1 0 0 0;
#X msg 501 18 -1 -1 0 1 1;
#X msg 408 85 -1 1 -1 0 1;
#X msg 299 149 -1 -1 -1 1 1;
#X msg 215 215 -1 1 -1 -1 1;
#X msg 172 243 -1 -1 -1 -1 1;
#X msg 595 -39 -1 0 1 0 0;
#X msg 148 275 -2 0 2 1 0;
#X msg 112 297 -2 1 1 2 0;
#X obj 179 -100 sel 14 13 12 11 10 9 8 7 6 5 4 3 2 1;
#X obj 204 450 list;
#X obj 400 429 t b f;
#X text 573 372 every chord has its own send/list that is banged when
the corresponding chord is played.;
#X obj 115 435 bng 15 250 50 0 empty empty empty 17 7 0 10 -262144
-1 -1;
#X msg 285 385 set \$1 \$2 \$3 \$4 \$5;
#X msg 288 420 0 0 0 0 0;
#X text 428 375 rotate notes;
#X obj 448 446 r noteAmt-\$1;
#X obj 177 -170 r pos5-\$1;
#X obj 450 315 r rot5-\$1;
#X obj 206 526 s chordTrans5;
#X connect 0 0 9 0;
#X connect 1 0 0 1;
#X connect 3 0 22 0;
#X connect 4 0 23 0;
#X connect 5 0 23 0;
#X connect 6 0 23 0;
#X connect 7 0 23 0;
#X connect 8 0 23 0;
#X connect 9 0 11 0;
#X connect 9 0 33 0;
#X connect 10 0 24 0;
#X connect 13 0 23 0;
#X connect 14 0 23 0;
#X connect 15 0 23 0;
#X connect 16 0 23 0;
#X connect 17 0 23 0;
#X connect 18 0 23 0;
#X connect 19 0 23 0;
#X connect 20 0 23 0;
#X connect 21 0 23 0;
#X connect 22 0 21 0;
#X connect 22 1 20 0;
#X connect 22 2 18 0;
#X connect 22 3 17 0;
#X connect 22 4 8 0;
#X connect 22 5 16 0;
#X connect 22 6 6 0;
#X connect 22 7 15 0;
#X connect 22 8 7 0;
#X connect 22 9 14 0;
#X connect 22 10 13 0;
#X connect 22 11 19 0;
#X connect 22 12 5 0;
#X connect 22 13 4 0;
#X connect 23 0 0 0;
#X connect 23 0 27 0;
#X connect 24 0 28 0;
#X connect 24 1 9 1;
#X connect 26 0 23 0;
#X connect 27 0 28 0;
#X connect 28 0 0 0;
#X connect 30 0 1 0;
#X connect 31 0 3 0;
#X connect 32 0 10 0;
#X restore 468 482 pd chordpos5;
#N canvas 1055 50 1086 805 chordpos6 0;
#X obj 203 474 list split 3;
#X floatatom 460 480 5 0 0 0 - - -, f 5;
#X text 497 472 amt of notes;
#X obj 179 -123 change;
#X msg 727 -95 0 0 0 0 0;
#X msg 675 -64 -1 0 0 0 0;
#X msg 342 118 -1 -1 -1 0 0;
#X msg 460 53 -1 0 -1 0 0;
#X msg 259 185 -1 0 -1 -1 0;
#X obj 207 497 list-rot;
#X floatatom 425 399 5 0 0 0 - - -, f 5;
#X obj 297 525 s toDisplay;
#X msg 595 -39 -1 0 1 0 0;
#X msg 566 -15 -1 -1 0 0 0;
#X msg 501 18 -1 -1 0 1 1;
#X msg 408 85 -1 1 -1 0 1;
#X msg 299 149 -1 -1 -1 1 1;
#X msg 215 215 -1 1 -1 -1 1;
#X msg 172 243 -1 -1 -1 -1 1;
#X msg 595 -39 -1 0 1 0 0;
#X msg 148 275 -2 0 2 1 0;
#X msg 112 297 -2 1 1 2 0;
#X obj 179 -100 sel 14 13 12 11 10 9 8 7 6 5 4 3 2 1;
#X obj 204 450 list;
#X obj 400 429 t b f;
#X text 573 372 every chord has its own send/list that is banged when
the corresponding chord is played.;
#X obj 115 435 bng 15 250 50 0 empty empty empty 17 7 0 10 -262144
-1 -1;
#X msg 285 385 set \$1 \$2 \$3 \$4 \$5;
#X msg 288 420 0 0 0 0 0;
#X text 428 375 rotate notes;
#X obj 448 446 r noteAmt-\$1;
#X obj 177 -170 r pos6-\$1;
#X obj 450 315 r rot6-\$1;
#X obj 206 525 s chordTrans6;
#X connect 0 0 9 0;
#X connect 1 0 0 1;
#X connect 3 0 22 0;
#X connect 4 0 23 0;
#X connect 5 0 23 0;
#X connect 6 0 23 0;
#X connect 7 0 23 0;
#X connect 8 0 23 0;
#X connect 9 0 11 0;
#X connect 9 0 33 0;
#X connect 10 0 24 0;
#X connect 13 0 23 0;
#X connect 14 0 23 0;
#X connect 15 0 23 0;
#X connect 16 0 23 0;
#X connect 17 0 23 0;
#X connect 18 0 23 0;
#X connect 19 0 23 0;
#X connect 20 0 23 0;
#X connect 21 0 23 0;
#X connect 22 0 21 0;
#X connect 22 1 20 0;
#X connect 22 2 18 0;
#X connect 22 3 17 0;
#X connect 22 4 8 0;
#X connect 22 5 16 0;
#X connect 22 6 6 0;
#X connect 22 7 15 0;
#X connect 22 8 7 0;
#X connect 22 9 14 0;
#X connect 22 10 13 0;
#X connect 22 11 19 0;
#X connect 22 12 5 0;
#X connect 22 13 4 0;
#X connect 23 0 0 0;
#X connect 23 0 27 0;
#X connect 24 0 28 0;
#X connect 24 1 9 1;
#X connect 26 0 23 0;
#X connect 27 0 28 0;
#X connect 28 0 0 0;
#X connect 30 0 1 0;
#X connect 31 0 3 0;
#X connect 32 0 10 0;
#X restore 548 483 pd chordpos6;
#N canvas 1055 50 1086 805 chordpos7 0;
#X obj 203 474 list split 3;
#X floatatom 460 480 5 0 0 0 - - -, f 5;
#X text 497 472 amt of notes;
#X obj 179 -123 change;
#X msg 727 -95 0 0 0 0 0;
#X msg 675 -64 -1 0 0 0 0;
#X msg 342 118 -1 -1 -1 0 0;
#X msg 460 53 -1 0 -1 0 0;
#X msg 259 185 -1 0 -1 -1 0;
#X obj 207 497 list-rot;
#X floatatom 425 399 5 0 0 0 - - -, f 5;
#X obj 297 525 s toDisplay;
#X msg 595 -39 -1 0 1 0 0;
#X msg 566 -15 -1 -1 0 0 0;
#X msg 501 18 -1 -1 0 1 1;
#X msg 408 85 -1 1 -1 0 1;
#X msg 299 149 -1 -1 -1 1 1;
#X msg 215 215 -1 1 -1 -1 1;
#X msg 172 243 -1 -1 -1 -1 1;
#X msg 595 -39 -1 0 1 0 0;
#X msg 148 275 -2 0 2 1 0;
#X msg 112 297 -2 1 1 2 0;
#X obj 179 -100 sel 14 13 12 11 10 9 8 7 6 5 4 3 2 1;
#X obj 204 450 list;
#X obj 400 429 t b f;
#X text 573 372 every chord has its own send/list that is banged when
the corresponding chord is played.;
#X obj 115 435 bng 15 250 50 0 empty empty empty 17 7 0 10 -262144
-1 -1;
#X msg 285 385 set \$1 \$2 \$3 \$4 \$5;
#X msg 288 420 0 0 0 0 0;
#X text 428 375 rotate notes;
#X obj 448 446 r noteAmt-\$1;
#X obj 177 -170 r pos7-\$1;
#X obj 206 526 s chordTrans7;
#X obj 450 315 r rot7-\$1;
#X connect 0 0 9 0;
#X connect 1 0 0 1;
#X connect 3 0 22 0;
#X connect 4 0 23 0;
#X connect 5 0 23 0;
#X connect 6 0 23 0;
#X connect 7 0 23 0;
#X connect 8 0 23 0;
#X connect 9 0 11 0;
#X connect 9 0 32 0;
#X connect 10 0 24 0;
#X connect 13 0 23 0;
#X connect 14 0 23 0;
#X connect 15 0 23 0;
#X connect 16 0 23 0;
#X connect 17 0 23 0;
#X connect 18 0 23 0;
#X connect 19 0 23 0;
#X connect 20 0 23 0;
#X connect 21 0 23 0;
#X connect 22 0 21 0;
#X connect 22 1 20 0;
#X connect 22 2 18 0;
#X connect 22 3 17 0;
#X connect 22 4 8 0;
#X connect 22 5 16 0;
#X connect 22 6 6 0;
#X connect 22 7 15 0;
#X connect 22 8 7 0;
#X connect 22 9 14 0;
#X connect 22 10 13 0;
#X connect 22 11 19 0;
#X connect 22 12 5 0;
#X connect 22 13 4 0;
#X connect 23 0 0 0;
#X connect 23 0 27 0;
#X connect 24 0 28 0;
#X connect 24 1 9 1;
#X connect 26 0 23 0;
#X connect 27 0 28 0;
#X connect 28 0 0 0;
#X connect 30 0 1 0;
#X connect 31 0 3 0;
#X connect 33 0 10 0;
#X restore 631 483 pd chordpos7;
#N canvas 1055 50 1086 805 chordpos8 0;
#X obj 203 474 list split 3;
#X floatatom 460 480 5 0 0 0 - - -, f 5;
#X text 497 472 amt of notes;
#X obj 179 -123 change;
#X msg 727 -95 0 0 0 0 0;
#X msg 675 -64 -1 0 0 0 0;
#X msg 342 118 -1 -1 -1 0 0;
#X msg 460 53 -1 0 -1 0 0;
#X msg 259 185 -1 0 -1 -1 0;
#X obj 207 497 list-rot;
#X floatatom 425 399 5 0 0 0 - - -, f 5;
#X obj 297 525 s toDisplay;
#X msg 595 -39 -1 0 1 0 0;
#X msg 566 -15 -1 -1 0 0 0;
#X msg 501 18 -1 -1 0 1 1;
#X msg 408 85 -1 1 -1 0 1;
#X msg 299 149 -1 -1 -1 1 1;
#X msg 215 215 -1 1 -1 -1 1;
#X msg 172 243 -1 -1 -1 -1 1;
#X msg 595 -39 -1 0 1 0 0;
#X msg 148 275 -2 0 2 1 0;
#X msg 112 297 -2 1 1 2 0;
#X obj 179 -100 sel 14 13 12 11 10 9 8 7 6 5 4 3 2 1;
#X obj 204 450 list;
#X obj 400 429 t b f;
#X text 573 372 every chord has its own send/list that is banged when
the corresponding chord is played.;
#X obj 115 435 bng 15 250 50 0 empty empty empty 17 7 0 10 -262144
-1 -1;
#X msg 285 385 set \$1 \$2 \$3 \$4 \$5;
#X msg 288 420 0 0 0 0 0;
#X text 428 375 rotate notes;
#X obj 448 446 r noteAmt-\$1;
#X obj 177 -170 r pos8-\$1;
#X obj 206 526 s chordTrans8;
#X obj 450 315 r rot8-\$1;
#X connect 0 0 9 0;
#X connect 1 0 0 1;
#X connect 3 0 22 0;
#X connect 4 0 23 0;
#X connect 5 0 23 0;
#X connect 6 0 23 0;
#X connect 7 0 23 0;
#X connect 8 0 23 0;
#X connect 9 0 11 0;
#X connect 9 0 32 0;
#X connect 10 0 24 0;
#X connect 13 0 23 0;
#X connect 14 0 23 0;
#X connect 15 0 23 0;
#X connect 16 0 23 0;
#X connect 17 0 23 0;
#X connect 18 0 23 0;
#X connect 19 0 23 0;
#X connect 20 0 23 0;
#X connect 21 0 23 0;
#X connect 22 0 21 0;
#X connect 22 1 20 0;
#X connect 22 2 18 0;
#X connect 22 3 17 0;
#X connect 22 4 8 0;
#X connect 22 5 16 0;
#X connect 22 6 6 0;
#X connect 22 7 15 0;
#X connect 22 8 7 0;
#X connect 22 9 14 0;
#X connect 22 10 13 0;
#X connect 22 11 19 0;
#X connect 22 12 5 0;
#X connect 22 13 4 0;
#X connect 23 0 0 0;
#X connect 23 0 27 0;
#X connect 24 0 28 0;
#X connect 24 1 9 1;
#X connect 26 0 23 0;
#X connect 27 0 28 0;
#X connect 28 0 0 0;
#X connect 30 0 1 0;
#X connect 31 0 3 0;
#X connect 33 0 10 0;
#X restore 711 483 pd chordpos8;
#X msg 634 593 set \$1 \$2 \$3 \$4 \$5;
#X msg 636 629 -1 -1 0 0 0;
#X obj 648 561 r chordTrans3;
#X msg 758 592 set \$1 \$2 \$3 \$4 \$5;
#X msg 760 628 -1 -1 0 0 0;
#X obj 772 560 r chordTrans4;
#X msg 882 589 set \$1 \$2 \$3 \$4 \$5;
#X msg 884 625 0 0 0 0 0;
#X obj 896 557 r chordTrans5;
#X msg 1008 591 set \$1 \$2 \$3 \$4 \$5;
#X msg 1010 627 0 0 0 0 0;
#X obj 1022 559 r chordTrans6;
#X msg 1130 590 set \$1 \$2 \$3 \$4 \$5;
#X msg 1132 626 0 0 0 0 0;
#X obj 1145 557 r chordTrans7;
#X msg 1250 588 set \$1 \$2 \$3 \$4 \$5;
#X msg 1252 624 0 0 0 0 0;
#X obj 1265 555 r chordTrans8;
#X obj 409 660 unpack 0 0 0 0 0;
#X obj 177 859 +;
#X obj 298 855 * 12;
#X obj 299 832 r transpose-\$1;
#X obj 831 751 r toDisplay;
#X obj 835 779 s aux-label-\$1;
#X obj 362 682 * 12;
#X obj 399 688 * 12;
#X obj 435 689 * 12;
#X obj 471 688 * 12;
#X obj 507 689 * 12;
#X obj 1361 913 r whichChordPlaying;
#X obj 82 239 s scaleDegree;
#X obj 1246 702 r scaleDegree;
#X obj 1308 758 sel 0 1 2 3 4 5 6 7;
#X msg 1233 806 symbol I;
#X msg 1297 802 symbol II;
#X msg 1342 824 symbol III;
#X msg 1349 851 symbol IV;
#X msg 1412 853 symbol V;
#X msg 1374 797 symbol VI;
#X msg 1484 803 symbol VII;
#X obj 1511 863 r curScale;
#X obj 1362 951 + 1;
#X obj 1511 930 list prepend;
#X msg 1510 908 symbol;
#X obj 1524 888 t b a;
#X obj 1171 943 list-l2s;
#X obj 1360 713 - 1;
#X floatatom 373 141 5 0 0 0 - - -, f 5;
#X obj 277 551 + 1;
#X msg 438 877 C;
#X msg 456 899 C#;
#X msg 474 921 D;
#X msg 487 942 D#;
#X msg 496 957 E;
#X msg 521 909 F;
#X msg 535 929 F#;
#X msg 552 950 G;
#X msg 558 971 G#;
#X msg 575 908 A;
#X msg 593 951 B;
#X msg 586 931 A#;
#X obj 581 819 sel 0 1 2 3 4 5 6 7 8 9 10 11;
#X obj 397 965 s basescl;
#X obj 952 923 s toDisplay;
#X obj 942 895 r basescl;
#X obj 1256 900 pack s 0 s s;
#X obj 1127 764 list-l2s;
#X obj 1124 710 r basescl;
#X obj 441 823 r basenote-\$1;
#X obj 173 891 +;
#X msg 982 811 ch\$2: \$4 \$1. \$3;
#X obj 117 812 spigot;
#X obj 161 793 tgl 15 0 empty empty empty 17 7 0 10 -262144 -1 -1 1
1;
#X obj 386 761 expr if ($f1 > 2 \, 1 \, 0) \; if ($f1 > 3 \, 1 \, 0)
\; if ($f1 > 4 \, 1 \, 0) \; if ($f1 > 1 \, 1 \, 0) \;;
#X obj 217 52 spigot;
#X obj 284 54 tgl 15 0 empty empty empty 17 7 0 10 -262144 -1 -1 0
1;
#X obj 372 20 inlet;
#X obj 332 66 spigot;
#X obj 434 56 tgl 15 0 empty empty empty 17 7 0 10 -262144 -1 -1 1
1;
#X obj 546 74 expr if ($f1 == 0 \, 1 \, 0) \; if ($f1 == 1 \, 1 \,
0) \;;
#X obj 539 41 r bpmOrNoteIn-\$1;
#X obj 433 29 unpack f f;
#X obj 715 171 stripnote;
#X connect 0 0 8 1;
#X connect 1 0 8 0;
#X connect 3 0 5 0;
#X connect 5 0 6 0;
#X connect 8 0 12 0;
#X connect 9 0 17 0;
#X connect 9 1 17 1;
#X connect 10 0 15 0;
#X connect 10 1 18 0;
#X connect 12 0 14 0;
#X connect 14 0 39 0;
#X connect 14 1 40 0;
#X connect 14 2 41 0;
#X connect 14 3 42 0;
#X connect 14 4 43 0;
#X connect 15 0 19 0;
#X connect 17 0 13 0;
#X connect 18 0 19 1;
#X connect 18 0 44 0;
#X connect 18 0 108 0;
#X connect 19 0 11 0;
#X connect 19 0 37 0;
#X connect 19 0 91 0;
#X connect 20 0 0 0;
#X connect 21 0 80 0;
#X connect 22 0 132 0;
#X connect 23 0 24 0;
#X connect 24 0 80 0;
#X connect 25 0 80 0;
#X connect 26 0 80 0;
#X connect 27 0 25 0;
#X connect 28 0 26 0;
#X connect 29 0 24 1;
#X connect 30 0 25 1;
#X connect 31 0 26 1;
#X connect 32 0 134 0;
#X connect 33 0 8 2;
#X connect 34 0 135 0;
#X connect 35 0 36 0;
#X connect 36 0 15 0;
#X connect 37 1 1 0;
#X connect 38 0 9 2;
#X connect 39 0 21 0;
#X connect 40 0 22 0;
#X connect 41 0 23 0;
#X connect 42 0 27 0;
#X connect 43 0 28 0;
#X connect 45 0 48 0;
#X connect 46 0 109 0;
#X connect 47 0 48 0;
#X connect 47 1 50 0;
#X connect 47 2 62 0;
#X connect 47 3 65 0;
#X connect 47 4 68 0;
#X connect 47 5 71 0;
#X connect 47 6 74 0;
#X connect 47 7 77 0;
#X connect 48 0 79 0;
#X connect 49 0 50 0;
#X connect 50 0 79 0;
#X connect 52 0 45 0;
#X connect 53 0 49 0;
#X connect 61 0 62 0;
#X connect 62 0 79 0;
#X connect 63 0 61 0;
#X connect 64 0 65 0;
#X connect 65 0 79 0;
#X connect 66 0 64 0;
#X connect 67 0 68 0;
#X connect 68 0 79 0;
#X connect 69 0 67 0;
#X connect 70 0 71 0;
#X connect 71 0 79 0;
#X connect 72 0 70 0;
#X connect 73 0 74 0;
#X connect 74 0 79 0;
#X connect 75 0 73 0;
#X connect 76 0 77 0;
#X connect 77 0 79 0;
#X connect 78 0 76 0;
#X connect 79 0 85 0;
#X connect 79 1 86 0;
#X connect 79 2 87 0;
#X connect 79 3 88 0;
#X connect 79 4 89 0;
#X connect 80 0 130 0;
#X connect 81 0 80 1;
#X connect 82 0 81 0;
#X connect 83 0 84 0;
#X connect 85 0 39 1;
#X connect 86 0 40 1;
#X connect 87 0 41 1;
#X connect 88 0 42 1;
#X connect 89 0 43 1;
#X connect 90 0 102 0;
#X connect 92 0 107 0;
#X connect 93 0 94 0;
#X connect 93 1 95 0;
#X connect 93 2 96 0;
#X connect 93 3 97 0;
#X connect 93 4 98 0;
#X connect 93 5 99 0;
#X connect 93 6 100 0;
#X connect 94 0 126 0;
#X connect 95 0 126 0;
#X connect 96 0 126 0;
#X connect 97 0 126 0;
#X connect 98 0 126 0;
#X connect 99 0 126 0;
#X connect 100 0 126 0;
#X connect 101 0 105 0;
#X connect 102 0 126 1;
#X connect 103 0 106 0;
#X connect 104 0 103 0;
#X connect 105 0 104 0;
#X connect 105 1 103 1;
#X connect 106 0 126 2;
#X connect 107 0 93 0;
#X connect 109 0 47 0;
#X connect 110 0 123 0;
#X connect 111 0 123 0;
#X connect 112 0 123 0;
#X connect 113 0 123 0;
#X connect 114 0 123 0;
#X connect 115 0 123 0;
#X connect 116 0 123 0;
#X connect 117 0 123 0;
#X connect 118 0 123 0;
#X connect 119 0 123 0;
#X connect 120 0 123 0;
#X connect 121 0 123 0;
#X connect 122 0 110 0;
#X connect 122 1 111 0;
#X connect 122 2 112 0;
#X connect 122 3 113 0;
#X connect 122 4 114 0;
#X connect 122 5 115 0;
#X connect 122 6 116 0;
#X connect 122 7 117 0;
#X connect 122 8 118 0;
#X connect 122 9 119 0;
#X connect 122 10 121 0;
#X connect 122 11 120 0;
#X connect 125 0 124 0;
#X connect 126 0 131 0;
#X connect 127 0 126 3;
#X connect 128 0 127 0;
#X connect 129 0 122 0;
#X connect 129 0 130 1;
#X connect 130 0 9 0;
#X connect 131 0 84 0;
#X connect 132 0 80 0;
#X connect 133 0 132 1;
#X connect 134 0 29 0;
#X connect 134 1 30 0;
#X connect 134 2 31 0;
#X connect 134 3 133 0;
#X connect 135 0 10 0;
#X connect 136 0 135 1;
#X connect 137 0 142 0;
#X connect 138 0 10 0;
#X connect 139 0 138 1;
#X connect 140 0 136 0;
#X connect 140 1 139 0;
#X connect 141 0 140 0;
#X connect 142 0 143 0;
#X connect 142 1 143 1;
#X connect 143 0 138 0;
#X restore 335 272 pd chorder;
#X obj 487 298 r noteThrough-\$1;
#X obj 300 238 spigot;
#X connect 0 0 20 0;
#X connect 0 0 22 0;
#X connect 3 0 7 0;
#X connect 3 0 6 0;
#X connect 4 0 1 0;
#X connect 5 0 15 0;
#X connect 5 0 16 0;
#X connect 5 0 19 0;
#X connect 7 0 4 0;
#X connect 8 0 10 0;
#X connect 9 0 11 0;
#X connect 16 0 17 0;
#X connect 19 0 18 0;
#X connect 20 0 2 0;
#X connect 21 0 22 1;
#X connect 22 0 2 0;
