#N canvas 751 98 1071 808 10;
#X obj 191 419 list;
#X obj 754 455 inlet;
#X obj 146 87 inlet;
#X text 776 428 Scale;
#X obj 224 174 t b f;
#X text 94 54 Offset (degree) of the chord to get;
#X obj 459 192 init.df \$1 3;
#X obj 412 179 inlet;
#X text 418 153 Number of notes in the chord;
#X obj 415 224 f;
#X obj 183 694 outlet;
#X obj 183 639 list.cycle 2 3;
#X obj 226 130 - 1;
#X text 199 89 In music \, index 1 is the first degree. In computer
sciences \, it is index 0;
#X text 302 464 The offset are the inverse (negative) than those in
list-rot;
#X obj 156 524 list-rot;
#X msg 249 590 2;
#X obj 253 523 loadbang;
#X obj 263 557 delay 100;
#X obj 256 465 t b;
#X connect 0 0 15 0;
#X connect 1 0 0 1;
#X connect 2 0 12 0;
#X connect 4 0 0 0;
#X connect 4 1 15 1;
#X connect 6 0 9 0;
#X connect 7 0 9 0;
#X connect 9 0 11 2;
#X connect 9 0 19 0;
#X connect 11 0 10 0;
#X connect 12 0 4 0;
#X connect 15 0 11 0;
#X connect 16 0 11 1;
#X connect 17 0 16 0;
#X connect 17 0 18 0;
#X connect 18 0 16 0;
#X connect 19 0 16 0;
