#N canvas 32 21 1276 691 10;
#X obj 304 248 sig~;
#X text 352 43 note messages;
#X text 426 225 knob 1 controls overall pitch;
#X obj 726 638 f;
#X obj 726 596 bng 15 250 50 0 empty empty empty 17 7 0 10 -262144
-1 -1;
#X obj 726 703 line~;
#X msg 726 674 0 \$1;
#X obj 304 96 unpack;
#X obj 393 98 sel 0;
#X text 437 99 selects note off messages so we can set decay time later
;
#X text 482 171 convert it to signal so frequency will be constantly
updated;
#X obj 304 44 inlet;
#X obj 317 864 outlet~;
#X text 764 641 decay time;
#X text 25 10 synth voice with waveform change;
#X obj 661 770 *~;
#X obj 315 834 *~;
#X obj 462 668 snapshot~;
#X obj 462 636 bng 15 250 50 0 empty empty empty 17 7 0 10 -262144
-1 -1;
#X floatatom 462 692 5 0 0 0 - - -, f 5;
#X obj 428 478 -~ 1;
#X obj 428 500 abs~;
#X obj 427 544 *~;
#X obj 426 632 *~;
#X obj 428 423 /~ 5000;
#X obj 427 448 clip~ 0 5000;
#X text 491 411 sorta arbitrary scale of harmonic content amount to
avoid aliasing... assumes 44.1k sampling rate .....;
#X obj 505 568 *~ 0.8;
#X obj 306 230 * 1;
#X obj 234 450 lop~ 100;
#X obj 576 520;
#X obj 709 492 r decay-\$1;
#X obj 510 495 r~ tonesmooth-\$1;
#X obj 304 187 +;
#X obj 304 209 mtof_micro \$1;
#X obj 322 162 r trans-\$1;
#X obj 773 582 nbx 5 14 -1e+037 1e+037 0 0 empty empty empty 0 -8 0
10 -262144 -1 -1 0 256;
#X obj 388 694 s_buzz \$1;
#X obj 883 539 / 128;
#X msg 888 636 \$1 5;
#X connect 0 0 24 0;
#X connect 0 0 29 0;
#X connect 3 0 6 0;
#X connect 4 0 3 0;
#X connect 5 0 15 1;
#X connect 5 0 15 0;
#X connect 6 0 5 0;
#X connect 7 0 33 0;
#X connect 7 1 8 0;
#X connect 8 0 4 0;
#X connect 8 1 38 0;
#X connect 11 0 7 0;
#X connect 15 0 16 1;
#X connect 16 0 12 0;
#X connect 17 0 19 0;
#X connect 18 0 17 0;
#X connect 20 0 21 0;
#X connect 21 0 22 1;
#X connect 21 0 22 0;
#X connect 22 0 23 0;
#X connect 23 0 17 0;
#X connect 23 0 37 1;
#X connect 24 0 25 0;
#X connect 25 0 20 0;
#X connect 27 0 23 1;
#X connect 28 0 0 0;
#X connect 29 0 37 0;
#X connect 31 0 3 1;
#X connect 31 0 36 0;
#X connect 32 0 27 0;
#X connect 33 0 34 0;
#X connect 34 0 28 0;
#X connect 35 0 33 1;
#X connect 37 0 16 0;
#X connect 38 0 39 0;
#X connect 39 0 5 0;
