#N canvas 13 116 1351 720 10;
#X obj 304 186 r notesIn-\$1;
#X obj 304 491 s notesOut-\$1;
#X obj 23 9 r loaddefs-\$1;
#X msg 23 76 loaddefinitions \$1;
#X obj 181 9 r loadbang-\$1;
#X obj 181 76 print loading definiton for \$1;
#X obj 23 41 symbol;
#X obj 25 186 inlet~ inL-\$1;
#X obj 135 186 inlet~ inR-\$1;
#X obj 27 491 outlet~ outL-\$1;
#X obj 136 491 outlet~ outR-\$1;
#X obj 424 185 r auxIn-\$1;
#X obj 423 208 r expIn-\$1;
#X obj 423 233 r fsIn-\$1;
#N canvas 13 67 1351 720 synth 0;
#X obj 16 108 pack 0 0 0, f 11;
#X obj 16 134 route 1 2 3 4 5 6 7 8, f 81;
#X text 365 112 aircraft carrier;
#X obj 232 233 *~ 0.3;
#X obj 16 81 poly 8 1, f 11;
#X obj 234 341 outlet~;
#X obj 16 55 inlet;
#X obj 233 315 hip~ 5;
#X obj 689 133 / 100;
#X obj 665 178 lop~ 10;
#X obj 691 158 sig~ 0.5;
#X obj 601 218 s~ tonesmooth-\$1;
#X obj 742 72 r tone-\$1;
#X obj 233 293 lop~ 8000;
#X obj 587 390 nbx 5 14 -1e+037 1e+037 0 0 empty empty empty 0 -8 0
10 -262144 -1 -1 0 256;
#X obj 580 445 s decay-0;
#X obj 158 163 leadvoice \$1;
#X obj 86 199 leadvoice \$1;
#X obj 16 162 leadvoice \$1;
#X obj 227 188 leadvoice \$1;
#X obj 288 164 leadvoice \$1;
#X obj 368 194 leadvoice \$1;
#X obj 439 165 leadvoice \$1;
#X obj 508 193 leadvoice \$1;
#X connect 0 0 1 0;
#X connect 1 0 18 0;
#X connect 1 1 17 0;
#X connect 1 2 16 0;
#X connect 1 3 19 0;
#X connect 1 4 20 0;
#X connect 1 5 21 0;
#X connect 1 6 22 0;
#X connect 1 7 23 0;
#X connect 3 0 13 0;
#X connect 4 0 0 0;
#X connect 4 1 0 1;
#X connect 4 2 0 2;
#X connect 6 0 4 0;
#X connect 7 0 5 0;
#X connect 8 0 10 0;
#X connect 9 0 11 0;
#X connect 10 0 9 0;
#X connect 12 0 8 0;
#X connect 13 0 7 0;
#X connect 14 0 15 0;
#X connect 16 0 3 0;
#X connect 17 0 3 0;
#X connect 18 0 3 0;
#X connect 19 0 3 0;
#X connect 20 0 3 0;
#X connect 21 0 3 0;
#X connect 22 0 3 0;
#X connect 23 0 3 0;
#X restore 142 319 pd synth;
#X text 446 35 C&G basic polyphonic patch with 8 voices;
#X obj 29 406 +~;
#X obj 137 407 +~;
#X obj 249 220 ../../../../in_tester;
#X obj 350 447 C:/users/alexd_000/Documents/PD/out_tester;
#X obj 23 112 KontrolModule \$1 S-buzz;
#X obj 180 35 print loaded:buzzy into \$1, f 35;
#X connect 0 0 1 0;
#X connect 0 0 14 0;
#X connect 2 0 6 0;
#X connect 2 0 5 0;
#X connect 3 0 20 0;
#X connect 4 0 21 0;
#X connect 6 0 3 0;
#X connect 7 0 16 0;
#X connect 8 0 17 0;
#X connect 14 0 17 1;
#X connect 14 0 16 1;
#X connect 14 0 19 0;
#X connect 14 0 19 1;
#X connect 16 0 9 0;
#X connect 17 0 10 0;
#X connect 18 2 14 0;
