#N canvas 8 60 1351 716 10;
#X obj 304 186 r notesIn-\$1;
#X obj 299 491 s notesOut-\$1;
#X obj 23 9 r loaddefs-\$1;
#X msg 23 76 loaddefinitions \$1;
#X obj 181 9 r loadbang-\$1;
#X obj 181 76 print loading definiton for \$1;
#X obj 23 41 symbol;
#X obj 25 186 inlet~ inL-\$1;
#X obj 135 186 inlet~ inR-\$1;
#X obj 27 491 outlet~ outL-\$1;
#X obj 136 491 outlet~ outR-\$1;
#X obj 464 185 r auxIn-\$1;
#X obj 603 178 r expIn-\$1;
#X obj 603 203 r fsIn-\$1;
#X obj 760 204 s aux-label-\$1;
#X obj 321 290 polystep \$1;
#X obj 181 45 print loaded:polystep into \$1, f 35;
#X obj 25 112 KontrolModule \$1 U-polystep;
#X obj 512 248 r ps_thru-\$1;
#X obj 441 304 spigot 1;
#X connect 0 0 15 0;
#X connect 0 0 19 0;
#X connect 2 0 6 0;
#X connect 2 0 5 0;
#X connect 3 0 17 0;
#X connect 4 0 16 0;
#X connect 6 0 3 0;
#X connect 7 0 9 0;
#X connect 8 0 10 0;
#X connect 15 0 1 0;
#X connect 18 0 19 1;
#X connect 19 0 1 0;
