#N canvas 32 67 1351 716 10;
#X obj 142 70 poly 8 0;
#X obj 140 109 pack 0 0 0;
#N canvas 0 50 450 250 (subpatch) 0;
#X array velarray-\$0 520 float 2;
#X coords 0 128 520 0 200 140 1 0 0;
#X restore 963 253 graph;
#X obj 141 162 unpack 0 0 0, f 7;
#X obj 83 162 unpack 0 0 0, f 6;
#X obj 143 425 tabwrite notearray-\$0;
#X obj 340 4 testkeys;
#X obj 339 24 bng 15 250 50 0 empty empty empty 17 7 0 10 -262144 -1
-1;
#X obj 403 26 bng 15 250 50 0 empty empty empty 17 7 0 10 -262144 -1
-1;
#X obj 164 242 + 0, f 4;
#X obj 210 72 nbx 5 14 -1e+37 1e+37 0 0 empty empty empty 0 -8 0 10
-262144 -1 -1 65 256;
#X obj 82 66 nbx 5 14 -1e+37 1e+37 0 0 empty empty empty 0 -8 0 10
-262144 -1 -1 8 256;
#X obj 321 128 sel 0;
#X obj 354 164 f 0;
#X obj 333 204 nbx 5 14 -1e+37 1e+37 0 0 empty empty empty 0 -8 0 10
-262144 -1 -1 0 256;
#X obj 357 183 + 1;
#X obj 320 182 - 1;
#X obj 320 163 f 0;
#X obj 321 147 bng 15 250 50 0 empty empty empty 17 7 0 10 -262144
-1 -1;
#X obj 353 146 bng 15 250 50 0 empty empty empty 17 7 0 10 -262144
-1 -1;
#X msg 423 253 0;
#X obj 336 225 sel 0;
#X obj 336 249 f 0;
#X obj 345 320 nbx 5 14 -1e+37 1e+37 0 0 empty empty empty 0 -8 0 10
-262144 -1 -1 16 256;
#X obj 338 267 + 1;
#X obj 125 122 t a a a;
#X obj 204 149 unpack 0 0 0, f 6;
#X obj 252 211 * 8;
#X obj 240 287 + 1;
#X obj 247 307 sel 8;
#X obj 244 271 f;
#X msg 246 252 0;
#X obj 245 234 t f f;
#X obj 232 330 + 0, f 5;
#X obj 228 357 t f f;
#X msg 216 381 0;
#X floatatom 486 434 5 0 0 2 steps - -, f 5;
#X obj 138 2 inlet;
#X obj 134 34 spigot 0;
#X obj 632 220 f;
#X obj 626 173 sel 1;
#X obj 609 136 t f f, f 12;
#X obj 631 240 sel 1;
#X obj 419 87 spigot 1;
#X obj 723 195 sel 0;
#X msg 736 236 stop;
#X obj 775 241 bng 15 250 50 0 empty empty empty 17 7 0 10 -262144
-1 -1;
#N canvas 8 111 1351 716 player 1;
#X obj 213 488 tabread notearray-\$0;
#X obj 282 448 + 0;
#X obj 226 126 bng 15 250 50 0 empty empty empty 17 7 0 10 -262144
-1 -1;
#X obj 230 144 f 0;
#X obj 198 236 nbx 5 14 -1e+37 1e+37 0 0 empty empty empty 0 -8 0 10
-262144 -1 -1 10 256;
#X obj 235 170 + 1;
#X obj 241 191 mod 64;
#X obj 265 524 sel 0;
#X obj 278 318 t b f;
#X obj 342 358 * 8;
#X msg 305 372 0;
#X obj 227 409 + 1;
#X obj 263 424 sel 8;
#X msg 246 358 0;
#X obj 357 412 nbx 5 14 -1e+37 1e+37 0 0 empty empty empty 0 -8 0 10
-262144 -1 -1 72 256;
#X obj 339 451 nbx 5 14 -1e+37 1e+37 0 0 empty empty empty 0 -8 0 10
-262144 -1 -1 72 256;
#X obj 245 379 f;
#X floatatom 95 74 5 0 0 2 steps - -, f 5;
#N canvas 13 67 1351 716 step 0;
#X obj 200 76 beatdiv;
#X obj 148 146 sel 0;
#X obj 177 101 f 0;
#X obj 217 141 mod 1;
#X obj 152 65 bng 15 250 50 0 empty empty empty 17 7 0 10 -262144 -1
-1;
#X obj 124 118 nbx 5 14 -1e+37 1e+37 0 0 empty empty empty 0 -8 0 10
-262144 -1 -1 0 256;
#X obj 143 164 bng 15 250 50 0 empty empty empty 17 7 0 10 -262144
-1 -1;
#X obj 244 115 nbx 5 14 -1e+37 1e+37 0 0 empty empty empty 0 -8 0 10
-262144 -1 -1 1 256;
#X obj 216 123 + 1;
#X obj 227 264 outlet;
#X obj 231 46 r ps_div-\$1;
#X obj 245 93 r ps_mul-\$1;
#X obj 127 24 r 24ppq;
#X connect 0 0 2 0;
#X connect 1 0 6 0;
#X connect 2 0 5 0;
#X connect 3 0 2 1;
#X connect 4 0 2 0;
#X connect 5 0 1 0;
#X connect 5 0 8 0;
#X connect 6 0 9 0;
#X connect 7 0 3 1;
#X connect 8 0 3 0;
#X connect 10 0 0 1;
#X connect 11 0 7 0;
#X connect 12 0 0 0;
#X restore 191 42 pd step;
#X obj 323 107 t f f;
#X msg 328 134 0;
#X obj 449 187 sel 1;
#X msg 390 206 -1;
#X msg 427 234 1;
#X obj 116 36 inlet;
#X obj 392 647 outlet;
#X obj 303 593 makenote 120 500;
#X obj 328 57 r ps_play-\$1;
#X obj 499 114 r ps_rev-\$1;
#X obj 548 161 r ps_rand-\$1;
#X obj 569 273 random 0;
#X obj 570 296 nbx 5 14 -1e+37 1e+37 0 0 empty empty empty 0 -8 0 10
-262144 -1 -1 14 256;
#X obj 246 285 spigot 1;
#X obj 332 298 spigot 0;
#X obj 543 212 == 0;
#X obj 490 513 r ps_length-\$1, f 17;
#X obj 539 371 r ps_velo-\$1, f 17;
#X obj 206 84 spigot 1;
#X obj 380 619 pack 0 0;
#X obj 573 439 sel 0;
#X obj 458 427 spigot 0;
#X obj 515 397 == 0;
#X obj 293 467 t f f;
#X obj 366 488 tabread velarray-\$0;
#X obj 261 570 max 1;
#X obj 71 474 r ps_transpose-\$1;
#X obj 264 551 +;
#X connect 0 0 7 0;
#X connect 1 0 15 0;
#X connect 1 0 42 0;
#X connect 2 0 3 0;
#X connect 2 0 30 0;
#X connect 3 0 5 0;
#X connect 3 0 32 0;
#X connect 4 0 3 1;
#X connect 5 0 6 0;
#X connect 6 0 4 0;
#X connect 7 1 46 0;
#X connect 8 0 13 0;
#X connect 8 1 9 0;
#X connect 8 1 10 0;
#X connect 9 0 1 1;
#X connect 9 0 14 0;
#X connect 11 0 12 0;
#X connect 12 1 16 0;
#X connect 13 0 16 0;
#X connect 16 0 11 0;
#X connect 16 0 1 0;
#X connect 17 0 6 1;
#X connect 17 0 30 1;
#X connect 18 0 37 0;
#X connect 19 0 37 1;
#X connect 19 1 20 0;
#X connect 20 0 3 1;
#X connect 21 0 22 0;
#X connect 21 1 23 0;
#X connect 22 0 5 1;
#X connect 23 0 5 1;
#X connect 24 0 17 0;
#X connect 26 0 38 0;
#X connect 26 1 38 1;
#X connect 27 0 19 0;
#X connect 28 0 21 0;
#X connect 29 0 34 0;
#X connect 29 0 33 1;
#X connect 30 0 31 0;
#X connect 31 0 33 0;
#X connect 32 0 8 0;
#X connect 33 0 8 0;
#X connect 34 0 32 1;
#X connect 35 0 26 2;
#X connect 36 0 39 0;
#X connect 36 0 41 0;
#X connect 37 0 2 0;
#X connect 38 0 25 0;
#X connect 39 1 26 1;
#X connect 40 0 43 0;
#X connect 41 0 40 1;
#X connect 42 0 0 0;
#X connect 42 1 40 0;
#X connect 43 0 26 1;
#X connect 44 0 26 0;
#X connect 45 0 46 1;
#X connect 46 0 44 0;
#X restore 485 451 pd player;
#X obj 192 12 r ps_record-\$1;
#X obj 328 348 s activestep-\$0;
#X obj 513 360 r activestep-\$0;
#X obj 420 205 r clear-\$0;
#X text 308 102 determine when we go to a new step;
#X text 815 280 params: play 0/1 record 0/1 beat div beat mul reverse
random slot 1-16 aux mode: erase save load, f 11;
#X obj 343 288 min 65;
#X obj 505 397 min 64;
#X msg 704 479 steps: \$1;
#X obj 166 212 - 1;
#X obj 501 489 outlet;
#X obj 486 19 r ps_record-\$1;
#X obj 516 190 timer;
#X obj 518 213 nbx 5 14 -1e+37 1e+37 0 0 empty empty empty 0 -8 0 10
-262144 -1 -1 1882.27 256;
#X floatatom 512 140 5 0 0 0 - - -, f 5;
#X obj 494 163 sel 1;
#X obj 558 167 sel 0;
#X obj 517 250 int;
#X obj 516 269 nbx 5 14 -1e+37 1e+37 0 0 empty empty empty 0 -8 0 10
-262144 -1 -1 1 256;
#X obj 514 298 sel 0;
#X obj 601 72 r auxIn-\$1;
#X obj 532 108 r auxIn-\$1;
#X obj 504 333 bng 15 250 50 0 empty empty empty 17 7 0 10 -262144
-1 -1;
#X obj 517 232 / 1500;
#X obj 629 196 del 1500;
#N canvas 0 50 450 250 (subpatch) 0;
#X array notearray-\$0 520 float 2;
#X coords 0 128 520 0 200 140 1 0 0;
#X restore 866 45 graph;
#X obj 39 310 spigot 1;
#X text 45 274 only write note ons;
#X obj 34 567 tabwrite velarray-\$0;
#X obj 109 313 spigot 1;
#X obj 125 342 bng 15 250 50 0 empty empty empty 17 7 0 10 -262144
-1 -1;
#X obj 113 364 nbx 5 14 -1e+37 1e+37 0 0 empty empty empty 0 -8 0 10
-262144 -1 -1 100 256;
#X obj 325 374 r activestep-\$0;
#X obj 335 392 - 1;
#X obj 338 414 max 0;
#X obj 328 484 f;
#X obj 313 445 r undo-\$0;
#X obj 323 412 bng 15 250 50 0 empty empty empty 17 7 0 10 -262144
-1 -1;
#N canvas 8 60 1351 720 aux 0;
#X obj 166 66 inlet;
#X obj 50 223 bng 15 250 50 0 empty empty clear 17 7 0 10 -262144 -1
-1;
#X obj 33 277 s clear-\$0;
#X obj 162 452 s aux-label-\$1;
#X obj 168 105 f 0;
#X obj 169 140 sel 0 1 2 3;
#X obj 319 159 sel 0 1 2 3;
#X msg 278 255 aux: erase;
#X msg 297 272 aux: undo;
#X msg 311 283 aux: save;
#X msg 336 324 aux: load;
#X obj 316 116 r ps_aux-\$1;
#X obj 145 206 bng 15 250 50 0 empty empty empty 17 7 0 10 -262144
-1 -1;
#X obj 145 261 s undo-\$0;
#X obj 471 99 r ps_slot-\$1;
#X obj 455 265 f 0;
#X obj 574 261 f 0;
#X msg 406 378 write notes_\$1.txt;
#X msg 437 397 write vel_\$1.txt;
#X msg 457 422 write len_\$1.txt;
#X obj 372 448 s notearray-\$0;
#X obj 451 206 bng 15 250 50 0 empty empty empty 17 7 0 10 -262144
-1 -1;
#X obj 433 468 s velarray-\$0;
#X obj 484 492 s len-\$0;
#X obj 662 447 s notearray-\$0;
#X obj 691 465 s velarray-\$0;
#X obj 719 484 s len-\$0;
#X msg 732 374 read notes_\$1.txt;
#X msg 748 400 read vel_\$1.txt;
#X msg 756 424 read len_\$1.txt;
#X obj 573 477 tabread len-\$0;
#X msg 596 444 0;
#X obj 586 336 t b f;
#X obj 573 503 s len-load-\$0;
#X obj 561 194 bng 15 250 50 0 empty empty empty 17 7 0 10 -262144
-1 -1;
#X text 646 325 load then send out sequence length;
#X msg 416 300 saved!;
#X msg 426 320 loaded!;
#X obj 276 465 delay 5000;
#X obj 226 531 s steplabel-\$0;
#X obj 304 438 bng 15 250 50 0 empty empty empty 17 7 0 10 -262144
-1 -1;
#N canvas 0 50 450 250 (subpatch) 0;
#X array len_file-\$0 1 float 3;
#A 0 16;
#X coords 0 65 1 0 10 50 1 0 0;
#X restore 923 64 graph;
#X msg 922 387 slot empty;
#X msg 1017 391 slot len \$1;
#X msg 773 234 read len_\$1.txt;
#X msg 667 223 0;
#X text 779 138 load then send out sequence length;
#X obj 645 267 tabread len_file-\$0;
#X obj 791 263 s len_file-\$0;
#X obj 697 190 t b f b;
#X obj 791 219 tabwrite len_file-\$0;
#X msg 788 193 0;
#X obj 995 326 sel 0;
#X obj 924 473 s aux-label-\$1;
#X obj 1038 486 delay 5000;
#X obj 988 552 s steplabel-\$0;
#X obj 1066 459 bng 15 250 50 0 empty empty empty 17 7 0 10 -262144
-1 -1;
#X text 437 144 load then send out sequence length;
#X connect 0 0 4 0;
#X connect 1 0 2 0;
#X connect 4 0 5 0;
#X connect 5 0 1 0;
#X connect 5 1 12 0;
#X connect 5 2 15 0;
#X connect 5 3 16 0;
#X connect 6 0 7 0;
#X connect 6 1 8 0;
#X connect 6 2 9 0;
#X connect 6 3 10 0;
#X connect 7 0 3 0;
#X connect 8 0 3 0;
#X connect 9 0 3 0;
#X connect 10 0 3 0;
#X connect 11 0 6 0;
#X connect 11 0 4 1;
#X connect 11 0 40 0;
#X connect 12 0 13 0;
#X connect 14 0 15 1;
#X connect 14 0 16 1;
#X connect 14 0 49 0;
#X connect 15 0 17 0;
#X connect 15 0 18 0;
#X connect 15 0 19 0;
#X connect 15 0 36 0;
#X connect 15 0 40 0;
#X connect 16 0 32 0;
#X connect 16 0 37 0;
#X connect 16 0 40 0;
#X connect 17 0 20 0;
#X connect 18 0 22 0;
#X connect 19 0 23 0;
#X connect 21 0 15 0;
#X connect 27 0 24 0;
#X connect 28 0 25 0;
#X connect 29 0 26 0;
#X connect 30 0 33 0;
#X connect 31 0 30 0;
#X connect 32 0 31 0;
#X connect 32 1 27 0;
#X connect 32 1 28 0;
#X connect 32 1 29 0;
#X connect 34 0 16 0;
#X connect 36 0 3 0;
#X connect 37 0 3 0;
#X connect 38 0 39 0;
#X connect 40 0 38 0;
#X connect 42 0 56 0;
#X connect 42 0 53 0;
#X connect 43 0 56 0;
#X connect 43 0 53 0;
#X connect 44 0 48 0;
#X connect 45 0 47 0;
#X connect 47 0 52 0;
#X connect 49 0 45 0;
#X connect 49 1 44 0;
#X connect 49 2 51 0;
#X connect 51 0 50 0;
#X connect 52 0 42 0;
#X connect 52 1 43 0;
#X connect 54 0 55 0;
#X connect 56 0 54 0;
#X restore 633 274 pd aux;
#X obj 702 502 s aux-label-\$1;
#N canvas 0 50 450 250 (subpatch) 0;
#X array len-\$0 1 float 3;
#A 0 16;
#X coords 0 65 1 0 10 50 1 0 0;
#X restore 861 413 graph;
#X obj 564 438 tabwrite len-\$0;
#X obj 397 297 r len-load-\$0;
#X obj 697 450 f;
#X obj 693 427 bng 15 250 50 0 empty empty empty 17 7 0 10 -262144
-1 -1;
#X obj 689 407 r steplabel-\$0;
#X obj 178 452 r ps_velo_rec-\$1;
#X obj 181 476 == 0;
#X obj 226 481 != 0;
#X obj 124 490 bng 15 250 50 0 empty empty empty 17 7 0 10 -262144
-1 -1;
#X obj 35 526 spigot 1;
#X obj 113 520 spigot 0;
#X obj 110 544 f;
#X obj 547 50 r fsIn-\$1;
#X connect 0 0 1 0;
#X connect 0 0 11 0;
#X connect 0 1 1 1;
#X connect 0 1 10 0;
#X connect 0 2 1 2;
#X connect 1 0 25 0;
#X connect 3 0 57 0;
#X connect 3 2 77 1;
#X connect 3 2 74 1;
#X connect 4 1 74 0;
#X connect 4 2 77 0;
#X connect 6 0 7 0;
#X connect 6 1 8 0;
#X connect 6 1 41 0;
#X connect 6 1 62 0;
#X connect 9 0 5 1;
#X connect 9 0 76 1;
#X connect 12 0 18 0;
#X connect 12 1 19 0;
#X connect 13 0 15 0;
#X connect 14 0 13 1;
#X connect 14 0 17 1;
#X connect 14 0 21 0;
#X connect 15 0 14 0;
#X connect 16 0 14 0;
#X connect 17 0 16 0;
#X connect 18 0 17 0;
#X connect 19 0 13 0;
#X connect 20 0 14 0;
#X connect 20 0 23 0;
#X connect 21 0 22 0;
#X connect 22 0 24 0;
#X connect 23 0 22 1;
#X connect 23 0 27 0;
#X connect 23 0 49 0;
#X connect 24 0 54 0;
#X connect 25 0 26 0;
#X connect 25 1 4 0;
#X connect 25 2 3 0;
#X connect 26 2 12 0;
#X connect 27 0 9 1;
#X connect 27 0 32 0;
#X connect 28 0 29 0;
#X connect 29 1 30 0;
#X connect 30 0 28 0;
#X connect 30 0 33 0;
#X connect 31 0 30 0;
#X connect 32 0 31 0;
#X connect 32 1 33 1;
#X connect 33 0 34 0;
#X connect 34 0 35 0;
#X connect 34 1 5 1;
#X connect 35 0 5 0;
#X connect 36 0 47 0;
#X connect 37 0 38 0;
#X connect 38 0 0 0;
#X connect 39 0 42 0;
#X connect 40 0 72 0;
#X connect 41 0 40 0;
#X connect 41 1 39 1;
#X connect 41 1 44 0;
#X connect 42 0 86 0;
#X connect 43 0 22 0;
#X connect 44 0 45 0;
#X connect 44 0 46 0;
#X connect 45 0 72 0;
#X connect 47 0 58 0;
#X connect 48 0 38 1;
#X connect 50 0 55 0;
#X connect 50 0 89 0;
#X connect 51 0 20 0;
#X connect 54 0 23 0;
#X connect 55 0 36 0;
#X connect 55 0 91 0;
#X connect 56 0 87 0;
#X connect 57 0 9 0;
#X connect 59 0 43 1;
#X connect 60 0 61 0;
#X connect 61 0 71 0;
#X connect 62 0 63 0;
#X connect 62 0 64 0;
#X connect 63 0 60 0;
#X connect 64 0 60 1;
#X connect 65 0 66 0;
#X connect 66 0 67 0;
#X connect 67 0 43 0;
#X connect 67 0 70 0;
#X connect 68 0 41 0;
#X connect 69 0 62 0;
#X connect 71 0 65 0;
#X connect 72 0 39 0;
#X connect 74 0 5 0;
#X connect 77 0 78 0;
#X connect 77 0 79 0;
#X connect 77 0 97 0;
#X connect 77 0 98 0;
#X connect 80 0 81 0;
#X connect 81 0 82 0;
#X connect 82 0 83 1;
#X connect 83 0 23 0;
#X connect 84 0 83 0;
#X connect 85 0 83 0;
#X connect 90 0 23 0;
#X connect 91 0 56 0;
#X connect 92 0 91 0;
#X connect 93 0 92 0;
#X connect 94 0 95 0;
#X connect 94 0 96 0;
#X connect 94 0 100 1;
#X connect 95 0 98 1;
#X connect 96 0 99 1;
#X connect 97 0 99 0;
#X connect 98 0 76 0;
#X connect 99 0 100 0;
#X connect 100 0 76 0;
#X connect 101 0 62 0;
#X connect 101 0 41 0;
