#N canvas 157 109 1351 548 10;
#X obj 142 70 poly 8 0;
#X obj 140 109 pack 0 0 0;
#N canvas 0 50 450 250 (subpatch) 0;
#X array notearray-\$0 520 float 2;
#X coords 0 128 520 0 200 140 1 0 0;
#X restore 866 45 graph;
#X obj 141 162 unpack 0 0 0, f 7;
#X obj 83 162 unpack 0 0 0, f 6;
#X obj 159 411 tabwrite notearray-\$0;
#X obj 340 4 testkeys;
#X obj 339 24 bng 15 250 50 0 empty empty empty 17 7 0 10 -262144 -1
-1;
#X obj 403 26 bng 15 250 50 0 empty empty empty 17 7 0 10 -262144 -1
-1;
#X obj 164 242 + 0, f 4;
#X obj 210 72 nbx 5 14 -1e+37 1e+37 0 0 empty empty empty 0 -8 0 10
-262144 -1 -1 69 256;
#X obj 82 66 nbx 5 14 -1e+37 1e+37 0 0 empty empty empty 0 -8 0 10
-262144 -1 -1 5 256;
#X obj 321 128 sel 0;
#X obj 354 164 f 0;
#X obj 333 204 nbx 5 14 -1e+37 1e+37 0 0 empty empty empty 0 -8 0 10
-262144 -1 -1 0 256;
#X obj 357 183 + 1;
#X obj 320 182 - 1;
#X obj 320 163 f 0;
#X obj 321 147 bng 15 250 50 0 empty empty empty 17 7 0 10 -262144
-1 -1;
#X obj 353 146 bng 15 250 50 0 empty empty empty 17 7 0 10 -262144
-1 -1;
#X msg 423 253 0;
#X obj 336 225 sel 0;
#X obj 336 249 f 0;
#X obj 344 310 nbx 5 14 -1e+37 1e+37 0 0 empty empty empty 0 -8 0 10
-262144 -1 -1 65 256;
#X obj 338 267 + 1;
#X obj 128 134 t a a a;
#X obj 198 165 unpack 0 0 0, f 6;
#X obj 252 211 * 8;
#X obj 240 287 + 1;
#X obj 247 307 sel 8;
#X obj 250 262 f;
#X msg 232 242 0;
#X obj 245 234 t f f;
#X obj 232 330 + 0, f 5;
#X obj 228 357 t f f;
#X msg 216 381 0;
#X obj 413 160 sel 1;
#X floatatom 486 434 5 0 0 2 steps - -, f 5;
#X obj 138 2 inlet;
#X obj 134 34 spigot 0;
#X obj 694 73 r aux-\$1;
#X obj 632 220 f;
#X obj 626 173 sel 1;
#X obj 609 136 t f f, f 12;
#X obj 631 240 sel 1;
#X obj 635 266 bng 15 250 50 0 empty empty clear 17 7 0 10 -262144
-1 -1;
#X obj 419 87 spigot 1;
#X obj 723 195 sel 0;
#X msg 736 236 stop;
#X obj 775 241 bng 15 250 50 0 empty empty empty 17 7 0 10 -262144
-1 -1;
#X obj 628 196 del 3000;
#X msg 634 294 seq cleared;
#N canvas -265 325 1351 716 player 0;
#X obj 274 488 tabread notearray-\$0;
#X obj 281 462 + 0;
#X obj 226 126 bng 15 250 50 0 empty empty empty 17 7 0 10 -262144
-1 -1;
#X obj 230 149 f 0;
#X obj 217 212 nbx 5 14 -1e+37 1e+37 0 0 empty empty empty 0 -8 0 10
-262144 -1 -1 34 256;
#X obj 235 170 + 1;
#X obj 241 191 mod 64;
#X obj 283 525 sel 0;
#X obj 284 336 t b f;
#X obj 342 358 * 8;
#X msg 305 372 0;
#X obj 227 409 + 1;
#X obj 263 424 sel 8;
#X msg 246 358 0;
#X obj 357 412 nbx 5 14 -1e+37 1e+37 0 0 empty empty empty 0 -8 0 10
-262144 -1 -1 144 256;
#X obj 349 462 nbx 5 14 -1e+37 1e+37 0 0 empty empty empty 0 -8 0 10
-262144 -1 -1 144 256;
#X obj 245 379 f;
#X obj 299 222 print step;
#X floatatom 95 74 5 0 0 2 steps - -, f 5;
#N canvas 13 67 1351 716 step 0;
#X obj 200 76 beatdiv;
#X obj 148 146 sel 0;
#X obj 177 101 f 0;
#X obj 217 141 mod 1;
#X obj 152 65 bng 15 250 50 0 empty empty empty 17 7 0 10 -262144 -1
-1;
#X obj 124 118 nbx 5 14 -1e+37 1e+37 0 0 empty empty empty 0 -8 0 10
-262144 -1 -1 2 256;
#X obj 143 164 bng 15 250 50 0 empty empty empty 17 7 0 10 -262144
-1 -1;
#X obj 244 115 nbx 5 14 -1e+37 1e+37 0 0 empty empty empty 0 -8 0 10
-262144 -1 -1 5 256;
#X obj 216 123 + 1;
#X obj 227 264 outlet;
#X obj 231 46 r ps_div-\$1;
#X obj 245 93 r ps_mul-\$1;
#X obj 127 24 r 24ppq;
#X connect 0 0 2 0;
#X connect 1 0 6 0;
#X connect 2 0 5 0;
#X connect 3 0 2 1;
#X connect 4 0 2 0;
#X connect 5 0 1 0;
#X connect 5 0 8 0;
#X connect 6 0 9 0;
#X connect 7 0 3 1;
#X connect 8 0 3 0;
#X connect 10 0 0 1;
#X connect 11 0 7 0;
#X connect 12 0 0 0;
#X restore 191 42 pd step;
#X obj 323 107 t f f;
#X msg 344 144 0;
#X obj 449 187 sel 1;
#X msg 390 206 -1;
#X msg 427 234 1;
#X obj 116 36 inlet;
#X obj 365 620 outlet;
#X obj 318 552 makenote 120 500;
#X obj 328 57 r ps_play-\$1;
#X obj 499 114 r ps_rev-\$1;
#X obj 548 161 r ps_rand-\$1;
#X obj 569 273 random 0;
#X obj 570 296 nbx 5 14 -1e+37 1e+37 0 0 empty empty empty 0 -8 0 10
-262144 -1 -1 18 256;
#X obj 246 285 spigot 1;
#X obj 332 298 spigot 0;
#X obj 543 212 == 0;
#X obj 490 513 r ps_length-\$1, f 17;
#X obj 479 468 r ps_velo-\$1, f 17;
#X obj 206 84 spigot 1;
#X obj 353 592 pack 0 0;
#X connect 0 0 7 0;
#X connect 1 0 0 0;
#X connect 1 0 15 0;
#X connect 2 0 3 0;
#X connect 2 0 31 0;
#X connect 3 0 5 0;
#X connect 4 0 3 1;
#X connect 4 0 17 0;
#X connect 4 0 33 0;
#X connect 5 0 6 0;
#X connect 6 0 4 0;
#X connect 7 1 27 0;
#X connect 8 0 13 0;
#X connect 8 1 9 0;
#X connect 8 1 10 0;
#X connect 9 0 1 1;
#X connect 9 0 14 0;
#X connect 11 0 12 0;
#X connect 12 1 16 0;
#X connect 13 0 16 0;
#X connect 16 0 11 0;
#X connect 16 0 1 0;
#X connect 18 0 6 1;
#X connect 18 0 31 1;
#X connect 19 0 38 0;
#X connect 20 0 38 1;
#X connect 20 1 21 0;
#X connect 21 0 3 1;
#X connect 22 0 23 0;
#X connect 22 1 24 0;
#X connect 23 0 5 1;
#X connect 24 0 5 1;
#X connect 25 0 18 0;
#X connect 27 0 39 0;
#X connect 27 1 39 1;
#X connect 28 0 20 0;
#X connect 29 0 22 0;
#X connect 30 0 35 0;
#X connect 30 0 34 1;
#X connect 31 0 32 0;
#X connect 32 0 34 0;
#X connect 33 0 8 0;
#X connect 34 0 8 0;
#X connect 35 0 33 1;
#X connect 36 0 27 2;
#X connect 37 0 27 1;
#X connect 38 0 2 0;
#X connect 39 0 26 0;
#X restore 485 451 pd player;
#X obj 192 12 r ps_record-\$1;
#X obj 322 346 s activestep-\$0;
#X obj 479 366 r activestep-\$0;
#X obj 420 224 r clear-\$0;
#X obj 670 272 s clear-\$0;
#X text 308 102 determine when we go to a new step;
#X text 815 280 params: play 0/1 record 0/1 beat div beat mul reverse
random slot 1-16 aux mode: erase save load, f 11;
#X obj 343 288 min 65;
#X obj 505 397 min 64;
#X msg 569 440 steps: \$1;
#X obj 567 463 s screenLine5;
#X obj 166 212 - 1;
#X obj 710 414;
#X obj 628 332 s aux-label-\$1;
#X obj 501 489 outlet;
#X obj 486 32 r ps_record-\$1;
#X obj 516 190 timer;
#X obj 518 213 nbx 5 14 -1e+37 1e+37 0 0 empty empty empty 0 -8 0 10
-262144 -1 -1 355.941 256;
#X floatatom 512 140 5 0 0 0 - - -, f 5;
#X obj 494 163 sel 1;
#X obj 558 167 sel 0;
#X obj 517 250 int;
#X obj 516 269 nbx 5 14 -1e+37 1e+37 0 0 empty empty empty 0 -8 0 10
-262144 -1 -1 0 256;
#X obj 514 298 sel 0;
#X obj 517 232 / 3000;
#X obj 601 72 r auxIn-\$1;
#X obj 520 121 r auxIn-\$1;
#X connect 0 0 1 0;
#X connect 0 0 11 0;
#X connect 0 1 1 1;
#X connect 0 1 10 0;
#X connect 0 2 1 2;
#X connect 1 0 25 0;
#X connect 3 0 64 0;
#X connect 4 1 5 0;
#X connect 6 0 7 0;
#X connect 6 0 0 0;
#X connect 6 1 8 0;
#X connect 6 1 43 0;
#X connect 6 1 71 0;
#X connect 9 0 5 1;
#X connect 12 0 18 0;
#X connect 12 1 19 0;
#X connect 13 0 15 0;
#X connect 14 0 13 1;
#X connect 14 0 17 1;
#X connect 14 0 21 0;
#X connect 15 0 14 0;
#X connect 16 0 14 0;
#X connect 17 0 16 0;
#X connect 18 0 17 0;
#X connect 19 0 13 0;
#X connect 20 0 14 0;
#X connect 20 0 23 0;
#X connect 21 0 22 0;
#X connect 22 0 24 0;
#X connect 23 0 22 1;
#X connect 23 0 27 0;
#X connect 23 0 54 0;
#X connect 24 0 60 0;
#X connect 25 0 26 0;
#X connect 25 1 4 0;
#X connect 25 2 3 0;
#X connect 26 2 12 0;
#X connect 27 0 9 1;
#X connect 27 0 32 0;
#X connect 28 0 29 0;
#X connect 29 1 30 0;
#X connect 30 0 28 0;
#X connect 30 0 33 0;
#X connect 31 0 30 0;
#X connect 32 0 31 0;
#X connect 32 1 33 1;
#X connect 33 0 34 0;
#X connect 34 0 35 0;
#X connect 34 1 5 1;
#X connect 35 0 5 0;
#X connect 36 0 22 0;
#X connect 37 0 52 0;
#X connect 38 0 39 0;
#X connect 39 0 0 0;
#X connect 41 0 44 0;
#X connect 42 0 50 0;
#X connect 43 0 42 0;
#X connect 43 1 41 1;
#X connect 43 1 47 0;
#X connect 44 0 45 0;
#X connect 45 0 51 0;
#X connect 45 0 57 0;
#X connect 46 0 36 0;
#X connect 47 0 48 0;
#X connect 47 0 49 0;
#X connect 48 0 50 0;
#X connect 50 0 41 0;
#X connect 51 0 66 0;
#X connect 52 0 67 0;
#X connect 53 0 39 1;
#X connect 55 0 61 0;
#X connect 56 0 20 0;
#X connect 60 0 23 0;
#X connect 61 0 37 0;
#X connect 61 0 62 0;
#X connect 62 0 63 0;
#X connect 64 0 9 0;
#X connect 68 0 46 1;
#X connect 69 0 70 0;
#X connect 70 0 77 0;
#X connect 71 0 72 0;
#X connect 71 0 73 0;
#X connect 72 0 69 0;
#X connect 73 0 69 1;
#X connect 74 0 75 0;
#X connect 75 0 76 0;
#X connect 76 0 46 0;
#X connect 77 0 74 0;
#X connect 78 0 43 0;
#X connect 79 0 71 0;
