#N canvas -8 -8 1360 725 10;
#X obj 171 449 s key1;
#X text 169 388 z;
#X text 295 387 x;
#X text 138 104 q;
#X text 201 4 2;
#X text 260 103 w;
#X text 334 3 3;
#X text 508 101 r;
#X text 381 102 e;
#X text 632 101 t;
#X text 758 100 y;
#X text 881 100 u;
#X text 829 2 7;
#X text 706 2 6;
#X text 583 2 5;
#X text 220 252 s;
#X text 343 252 d;
#X text 592 251 g;
#X text 715 251 h;
#X text 840 251 j;
#X text 416 386 c;
#X text 542 385 v;
#X text 667 385 b;
#X text 793 383 n;
#X text 916 384 m;
#X obj 214 321 s key2;
#X obj 297 448 s key3;
#X obj 338 321 s key4;
#X obj 418 447 s key5;
#X obj 544 446 s key6;
#X obj 586 320 s key7;
#X obj 669 446 s key8;
#X obj 709 320 s key9;
#X obj 795 445 s key10;
#X obj 832 320 s key11;
#X obj 919 445 s key12;
#X obj 142 184 s key13;
#X obj 264 183 s key15;
#X obj 327 59 s key16;
#X obj 386 182 s key17;
#X obj 513 181 s key18;
#X obj 573 60 s key19;
#X obj 636 181 s key20;
#X obj 696 61 s key21;
#X obj 763 180 s key22;
#X obj 819 61 s key23;
#X obj 885 180 s key24;
#X text 12 198 1;
#X obj 46 239 key;
#X obj 115 241 keyup;
#X obj 36 279 sel 49;
#X obj 117 282 sel 49;
#X obj 31 315 t b b;
#X msg 23 383 1;
#X obj 53 457 change;
#X msg 69 343 stop;
#X msg 104 416 0;
#X obj 109 384 delay 250;
#X obj 999 364 s key13;
#X obj 1034 243 s key14;
#X obj 1081 364 s key15;
#X obj 1127 243 s key16;
#X obj 1175 367 s key17;
#X text 989 366 \,;
#X text 1077 284 .;
#X text 1170 287 /;
#X text 1045 186 l;
#X text 1137 184 \;;
#N canvas 262 51 783 535 morekeys 0;
#X obj 147 195 s key25;
#X obj 191 63 s key26;
#X obj 269 194 s key27;
#X obj 324 62 s key28;
#X obj 391 193 s key29;
#X obj 517 192 s key30;
#X obj 573 60 s key31;
#X obj 641 192 s key32;
#X text 143 114 i;
#X text 265 114 o;
#X text 386 113 p;
#X text 513 112 [;
#X text 637 113 ];
#X text 201 4 9;
#X text 334 3 0;
#X text 582 2 =;
#X obj 179 32 keyfilter2 57 85;
#X obj 320 33 keyfilter2 48 87;
#X obj 564 31 keyfilter2 61 90;
#X obj 124 152 keyfilter2 105 84;
#X obj 257 151 keyfilter2 111 86;
#X obj 383 151 keyfilter2 112 88;
#X obj 499 151 keyfilter2 91 89;
#X obj 632 152 keyfilter2 93 91;
#X connect 16 0 1 0;
#X connect 17 0 3 0;
#X connect 18 0 6 0;
#X connect 19 0 0 0;
#X connect 20 0 2 0;
#X connect 21 0 4 0;
#X connect 22 0 5 0;
#X connect 23 0 7 0;
#X restore 1006 118 pd morekeys;
#X text 991 93 extended keys i-];
#X obj 179 26 keyfilter2 50 73;
#X obj 182 57 s key14;
#X obj 320 33 keyfilter2 51 75;
#X obj 564 32 keyfilter2 53 78;
#X obj 686 34 keyfilter2 54 80;
#X obj 789 32 keyfilter2 55 82;
#X obj 119 140 keyfilter2 113 72;
#X obj 252 140 keyfilter2 119 74;
#X obj 379 140 keyfilter2 101 76;
#X obj 493 139 keyfilter2 114 77;
#X obj 627 141 keyfilter2 116 79;
#X obj 746 139 keyfilter2 121 81;
#X obj 866 140 keyfilter2 117 83;
#X obj 195 289 keyfilter2 115 61;
#X obj 336 290 keyfilter2 100 63;
#X obj 580 289 keyfilter2 103 66;
#X obj 702 291 keyfilter2 104 68;
#X obj 825 294 keyfilter2 106 70;
#X obj 1022 212 keyfilter2 108 73;
#X obj 1144 213 keyfilter2 59 75;
#X obj 976 320 keyfilter2 44 72;
#X obj 1066 340 keyfilter2 46 74;
#X obj 1168 324 keyfilter2 47 76;
#X obj 169 422 keyfilter2 122 60;
#X obj 303 420 keyfilter2 120 62;
#X obj 430 420 keyfilter2 99 64;
#X obj 544 420 keyfilter2 118 65;
#X obj 678 421 keyfilter2 98 67;
#X obj 797 419 keyfilter2 110 69;
#X obj 917 420 keyfilter2 109 71;
#X obj 1034 414 r pageup;
#X obj 1086 414 r pagedown;
#X obj 1111 502 float;
#X obj 1005 497 float;
#X obj 1020 539 + 1;
#X obj 1083 540 - 1;
#X floatatom 1028 580 5 0 0 0 - - -, f 5;
#X obj 1106 474 sel 1;
#X obj 1095 453 change;
#X obj 1036 474 sel 1;
#X obj 1048 454 change;
#X obj 1016 610 * 12;
#X obj 1015 629 s octave;
#X obj 1142 606 s octave_disp_in;
#X obj 1153 530 r octave_disp_out;
#X obj 436 513 r keybd_notes;
#X obj 446 600 outlet;
#X obj 581 625 outlet;
#X connect 48 0 50 0;
#X connect 49 0 51 0;
#X connect 50 0 52 0;
#X connect 51 0 57 0;
#X connect 52 0 53 0;
#X connect 52 1 55 0;
#X connect 53 0 54 0;
#X connect 54 0 117 0;
#X connect 55 0 57 0;
#X connect 56 0 54 0;
#X connect 57 0 56 0;
#X connect 70 0 71 0;
#X connect 72 0 38 0;
#X connect 73 0 41 0;
#X connect 74 0 43 0;
#X connect 75 0 45 0;
#X connect 76 0 36 0;
#X connect 77 0 37 0;
#X connect 78 0 39 0;
#X connect 79 0 40 0;
#X connect 80 0 42 0;
#X connect 81 0 44 0;
#X connect 82 0 46 0;
#X connect 83 0 25 0;
#X connect 84 0 27 0;
#X connect 85 0 30 0;
#X connect 86 0 32 0;
#X connect 87 0 34 0;
#X connect 88 0 59 0;
#X connect 89 0 61 0;
#X connect 90 0 58 0;
#X connect 91 0 60 0;
#X connect 92 0 62 0;
#X connect 93 0 0 0;
#X connect 94 0 26 0;
#X connect 95 0 28 0;
#X connect 96 0 29 0;
#X connect 97 0 31 0;
#X connect 98 0 33 0;
#X connect 99 0 35 0;
#X connect 100 0 110 0;
#X connect 101 0 108 0;
#X connect 102 0 105 0;
#X connect 103 0 104 0;
#X connect 104 0 103 1;
#X connect 104 0 102 1;
#X connect 104 0 106 0;
#X connect 105 0 102 1;
#X connect 105 0 103 1;
#X connect 105 0 106 0;
#X connect 106 0 111 0;
#X connect 106 0 113 0;
#X connect 107 0 102 0;
#X connect 108 0 107 0;
#X connect 109 0 103 0;
#X connect 110 0 109 0;
#X connect 111 0 112 0;
#X connect 114 0 102 1;
#X connect 114 0 103 1;
#X connect 114 0 111 0;
#X connect 115 0 116 0;
