#N canvas 754 50 1103 863 10;
#X obj 112 498 outlet~;
#X obj 112 466 *~ 0.9;
#X obj 111 355 route 1 2 3 4, f 61;
#N canvas 247 223 1526 821 presets 0;
#X obj 218 324 until;
#X obj 218 346 f;
#X obj 248 346 + 1;
#X obj 218 368 t f f, f 11;
#X obj 383 308 until;
#X obj 383 330 f;
#X obj 413 330 + 1;
#X obj 1035 319 until;
#X obj 1035 341 f;
#X obj 1065 341 + 1;
#X msg 248 298 0;
#X obj 218 275 t b b;
#X msg 413 284 0;
#X obj 383 261 t b b;
#X msg 1065 295 0;
#X obj 1035 272 t b b;
#X obj 396 223 t b a;
#X obj 1073 246 t b a;
#X text 641 64 init values;
#X obj 383 352 t f f, f 11;
#X obj 1035 363 t f f, f 11;
#X obj 1035 424 expr $f2 - (($f1 / 13)*$f2);
#X obj 825 321 until;
#X obj 825 343 f;
#X obj 855 343 + 1;
#X msg 855 297 0;
#X obj 825 274 t b b;
#X obj 863 248 t b a;
#X obj 825 365 t f f, f 11;
#X obj 825 426 expr $f2 - (($f1 / 13)*$f2);
#X obj 611 324 until;
#X obj 611 346 f;
#X obj 641 346 + 1;
#X msg 641 300 0;
#X obj 611 277 t b b;
#X obj 649 251 t b a;
#X obj 611 368 t f f, f 11;
#X obj 611 429 expr $f2 - (($f1 / 13)*$f2);
#X obj 218 476 pack 0 0 s;
#X msg 218 503 \; \$3-level-\$2 \$1;
#X obj 383 487 pack 0 0 s;
#X obj 611 520 pack 0 0 s;
#X obj 825 523 pack 0 0 s;
#X obj 1035 518 pack 0 0 s;
#X msg 383 514 \; \$3-a-\$2 \$1;
#X msg 611 547 \; \$3-d-\$2 \$1;
#X msg 825 550 \; \$3-s-\$2 \$1;
#X msg 1035 545 \; \$3-r-\$2 \$1;
#X obj 467 112 del 500;
#X msg 863 199 1, f 7;
#X msg 1072 189 0.78, f 7;
#X obj 825 387 + 1;
#X obj 384 379 + 1;
#X obj 382 409 expr ($f2*14) - ($f1*$f2);
#X msg 467 150 1;
#X msg 572 197 1;
#X msg 218 410 1 \$1;
#X obj 218 432 /;
#X obj 218 390 + 1;
#X obj 447 80 bng 15 250 50 0 empty empty empty 17 7 0 10 -262144 -1
-1;
#X msg 218 298 16;
#X msg 383 284 16;
#X msg 611 300 16;
#X msg 825 297 16;
#X msg 1035 295 16;
#X obj 285 429 symbol \$1;
#X obj 450 460 symbol \$1;
#X obj 678 473 symbol \$1;
#X obj 895 475 symbol \$1;
#X obj 1102 471 symbol \$1;
#X text 153 17 argument 1: Add-Synth Number;
#X text 152 37 argument 2: voice number;
#X text 152 57 argument 3: Partial Number;
#X obj 486 52 r loadbang-\$1;
#X obj 285 408 r loadbang-\$1;
#X obj 450 439 r loadbang-\$1;
#X obj 678 452 r loadbang-\$1;
#X obj 892 455 r loadbang-\$1;
#X obj 1103 450 r loadbang-\$1;
#X connect 0 0 1 0;
#X connect 1 0 2 0;
#X connect 1 0 3 0;
#X connect 2 0 1 1;
#X connect 3 0 58 0;
#X connect 3 1 38 1;
#X connect 4 0 5 0;
#X connect 5 0 6 0;
#X connect 5 0 19 0;
#X connect 6 0 5 1;
#X connect 7 0 8 0;
#X connect 8 0 9 0;
#X connect 8 0 20 0;
#X connect 9 0 8 1;
#X connect 10 0 1 1;
#X connect 11 0 60 0;
#X connect 11 1 10 0;
#X connect 12 0 5 1;
#X connect 13 0 61 0;
#X connect 13 1 12 0;
#X connect 14 0 8 1;
#X connect 15 0 64 0;
#X connect 15 1 14 0;
#X connect 16 0 13 0;
#X connect 16 1 53 1;
#X connect 17 0 15 0;
#X connect 17 1 21 1;
#X connect 19 0 52 0;
#X connect 19 1 40 1;
#X connect 20 0 21 0;
#X connect 20 1 43 1;
#X connect 21 0 43 0;
#X connect 22 0 23 0;
#X connect 23 0 24 0;
#X connect 23 0 28 0;
#X connect 24 0 23 1;
#X connect 25 0 23 1;
#X connect 26 0 63 0;
#X connect 26 1 25 0;
#X connect 27 0 26 0;
#X connect 27 1 29 1;
#X connect 28 0 51 0;
#X connect 28 1 42 1;
#X connect 29 0 42 0;
#X connect 30 0 31 0;
#X connect 31 0 32 0;
#X connect 31 0 36 0;
#X connect 32 0 31 1;
#X connect 33 0 31 1;
#X connect 34 0 62 0;
#X connect 34 1 33 0;
#X connect 35 0 34 0;
#X connect 35 1 37 1;
#X connect 36 0 37 0;
#X connect 36 1 41 1;
#X connect 37 0 41 0;
#X connect 38 0 39 0;
#X connect 40 0 44 0;
#X connect 41 0 45 0;
#X connect 42 0 46 0;
#X connect 43 0 47 0;
#X connect 48 0 54 0;
#X connect 48 0 49 0;
#X connect 48 0 11 0;
#X connect 48 0 55 0;
#X connect 48 0 50 0;
#X connect 49 0 27 0;
#X connect 50 0 17 0;
#X connect 51 0 29 0;
#X connect 52 0 53 0;
#X connect 53 0 40 0;
#X connect 54 0 16 0;
#X connect 55 0 35 0;
#X connect 56 0 57 0;
#X connect 57 0 38 0;
#X connect 58 0 56 0;
#X connect 59 0 48 0;
#X connect 60 0 0 0;
#X connect 61 0 4 0;
#X connect 62 0 30 0;
#X connect 63 0 22 0;
#X connect 64 0 7 0;
#X connect 65 0 38 2;
#X connect 66 0 40 2;
#X connect 67 0 41 2;
#X connect 68 0 42 2;
#X connect 69 0 43 2;
#X connect 73 0 48 0;
#X connect 74 0 65 0;
#X connect 75 0 66 0;
#X connect 76 0 67 0;
#X connect 77 0 68 0;
#X connect 78 0 69 0;
#X restore 606 313 pd presets;
#X obj 111 182 inlet notes;
#X obj 111 291 poly 4 1, f 11;
#X obj 111 313 pack 0 0 0, f 11;
#X msg 603 188 write skel-band-store.txt;
#X msg 579 157 read skel-band-store.txt;
#X obj 595 124 r loadbang-\$1;
#X obj 577 216 array define skel-band-table-\$1;
#X obj 323 380 additive-synth-voice \$1 3;
#X obj 111 381 additive-synth-voice \$1 1;
#X obj 217 407 additive-synth-voice \$1 2;
#X obj 429 412 additive-synth-voice \$1 4;
#X obj 698 807 s~ add-transpose-sig-\$1;
#X obj 698 780 lop~ 10;
#X obj 172 626 s \$1-attack-local;
#X obj 312 626 s \$1-decay-local;
#X obj 442 626 s \$1-sustain-local;
#X obj 586 629 s \$1-release-local;
#X text 725 460 partial master list.;
#X text 516 781 partials;
#X text 872 394 read the .txt file;
#X obj 79 775 change -1;
#X msg 712 399 read addsyn-relTxt.txt;
#X msg 845 496 write addsyn-relTxt.txt;
#X obj 481 781 * 15;
#X obj 712 428 text define \$1-relTxt;
#X obj 79 799 text get \$1-relTxt;
#X obj 250 783 s \$1-filterRez-local;
#X obj 481 812 s \$1-filterPole-local;
#X obj 79 823 s \$1-freqset-local;
#X text 299 41 two page additive synth;
#X obj 698 749 r add_trans-\$1;
#X obj 79 749 r add_preset-\$1;
#X obj 712 366 r loadbang-\$1;
#X obj 481 750 r add_cutoff-\$1;
#X floatatom 41 782 5 0 0 0 - - -, f 5;
#X obj 294 747 r add_reso-\$1;
#X obj 170 581 r add_attack-\$1;
#X obj 320 581 r add_decay-\$1;
#X obj 450 581 r add_sustain-\$1;
#X obj 600 581 r add_release-\$1;
#X connect 1 0 0 0;
#X connect 2 0 12 0;
#X connect 2 1 13 0;
#X connect 2 2 11 0;
#X connect 2 3 14 0;
#X connect 4 0 5 0;
#X connect 5 0 6 0;
#X connect 5 1 6 1;
#X connect 5 2 6 2;
#X connect 6 0 2 0;
#X connect 8 0 10 0;
#X connect 9 0 8 0;
#X connect 11 0 1 0;
#X connect 12 0 1 0;
#X connect 13 0 1 0;
#X connect 14 0 1 0;
#X connect 16 0 15 0;
#X connect 24 0 29 0;
#X connect 25 0 28 0;
#X connect 27 0 31 0;
#X connect 29 0 32 0;
#X connect 34 0 16 0;
#X connect 35 0 24 0;
#X connect 35 0 38 0;
#X connect 36 0 25 0;
#X connect 37 0 27 0;
#X connect 39 0 30 0;
#X connect 40 0 17 0;
#X connect 41 0 18 0;
#X connect 42 0 19 0;
#X connect 43 0 20 0;
