#N canvas 283 160 1405 714 10;
#X obj 304 186 r notesIn-\$1;
#X obj 304 491 s notesOut-\$1;
#X obj 23 9 r loaddefs-\$1;
#X msg 23 76 loaddefinitions \$1;
#X obj 181 9 r loadbang-\$1;
#X obj 181 76 print loading definiton for \$1;
#X obj 23 41 symbol;
#X obj 27 186 inlet~ inL-\$1;
#X obj 136 186 inlet~ inR-\$1;
#X obj 27 491 outlet~ outL-\$1;
#X obj 136 491 outlet~ outR-\$1;
#X obj 505 193 r auxIn-\$1;
#X obj 504 216 r expIn-\$1;
#N canvas 211 130 1524 914 synth 0;
#X obj 513 477 outlet~;
#X obj 513 445 *~ 0.9;
#X obj 512 334 route 1 2 3 4, f 61;
#N canvas 250 223 1526 821 presets 0;
#X obj 218 324 until;
#X obj 218 346 f;
#X obj 248 346 + 1;
#X obj 218 368 t f f, f 11;
#X obj 383 308 until;
#X obj 383 330 f;
#X obj 413 330 + 1;
#X obj 1035 319 until;
#X obj 1035 341 f;
#X obj 1065 341 + 1;
#X msg 248 298 0;
#X obj 218 275 t b b;
#X msg 413 284 0;
#X obj 383 261 t b b;
#X msg 1065 295 0;
#X obj 1035 272 t b b;
#X obj 396 223 t b a;
#X obj 1073 246 t b a;
#X text 641 64 init values;
#X obj 383 352 t f f, f 11;
#X obj 1035 363 t f f, f 11;
#X obj 1035 424 expr $f2 - (($f1 / 13)*$f2);
#X obj 825 321 until;
#X obj 825 343 f;
#X obj 855 343 + 1;
#X msg 855 297 0;
#X obj 825 274 t b b;
#X obj 863 248 t b a;
#X obj 825 365 t f f, f 11;
#X obj 825 426 expr $f2 - (($f1 / 13)*$f2);
#X obj 611 324 until;
#X obj 611 346 f;
#X obj 641 346 + 1;
#X msg 641 300 0;
#X obj 611 277 t b b;
#X obj 649 251 t b a;
#X obj 611 368 t f f, f 11;
#X obj 611 429 expr $f2 - (($f1 / 13)*$f2);
#X obj 218 476 pack 0 0 s;
#X msg 218 503 \; \$3-level-\$2 \$1;
#X obj 383 487 pack 0 0 s;
#X obj 611 520 pack 0 0 s;
#X obj 825 523 pack 0 0 s;
#X obj 1035 518 pack 0 0 s;
#X msg 383 514 \; \$3-a-\$2 \$1;
#X msg 611 547 \; \$3-d-\$2 \$1;
#X msg 825 550 \; \$3-s-\$2 \$1;
#X msg 1035 545 \; \$3-r-\$2 \$1;
#X obj 467 112 del 500;
#X msg 863 199 1, f 7;
#X msg 1072 189 0.78, f 7;
#X obj 825 387 + 1;
#X obj 384 379 + 1;
#X obj 382 409 expr ($f2*14) - ($f1*$f2);
#X msg 467 150 1;
#X msg 572 197 1;
#X msg 218 410 1 \$1;
#X obj 218 432 /;
#X obj 218 390 + 1;
#X obj 447 80 bng 15 250 50 0 empty empty empty 17 7 0 10 -262144 -1
-1;
#X obj 285 429 symbol \$1;
#X obj 450 460 symbol \$1;
#X obj 678 473 symbol \$1;
#X obj 895 475 symbol \$1;
#X obj 1102 471 symbol \$1;
#X text 153 17 argument 1: Add-Synth Number;
#X text 152 37 argument 2: voice number;
#X text 152 57 argument 3: Partial Number;
#X obj 486 52 r loadbang-\$1;
#X obj 285 408 r loadbang-\$1;
#X obj 450 439 r loadbang-\$1;
#X obj 678 452 r loadbang-\$1;
#X obj 892 455 r loadbang-\$1;
#X obj 1103 450 r loadbang-\$1;
#X msg 218 298 12;
#X msg 383 284 12;
#X msg 611 300 12;
#X msg 825 297 12;
#X msg 1035 295 12;
#X connect 0 0 1 0;
#X connect 1 0 2 0;
#X connect 1 0 3 0;
#X connect 2 0 1 1;
#X connect 3 0 58 0;
#X connect 3 1 38 1;
#X connect 4 0 5 0;
#X connect 5 0 6 0;
#X connect 5 0 19 0;
#X connect 6 0 5 1;
#X connect 7 0 8 0;
#X connect 8 0 9 0;
#X connect 8 0 20 0;
#X connect 9 0 8 1;
#X connect 10 0 1 1;
#X connect 11 0 74 0;
#X connect 11 1 10 0;
#X connect 12 0 5 1;
#X connect 13 0 75 0;
#X connect 13 1 12 0;
#X connect 14 0 8 1;
#X connect 15 0 78 0;
#X connect 15 1 14 0;
#X connect 16 0 13 0;
#X connect 16 1 53 1;
#X connect 17 0 15 0;
#X connect 17 1 21 1;
#X connect 19 0 52 0;
#X connect 19 1 40 1;
#X connect 20 0 21 0;
#X connect 20 1 43 1;
#X connect 21 0 43 0;
#X connect 22 0 23 0;
#X connect 23 0 24 0;
#X connect 23 0 28 0;
#X connect 24 0 23 1;
#X connect 25 0 23 1;
#X connect 26 0 77 0;
#X connect 26 1 25 0;
#X connect 27 0 26 0;
#X connect 27 1 29 1;
#X connect 28 0 51 0;
#X connect 28 1 42 1;
#X connect 29 0 42 0;
#X connect 30 0 31 0;
#X connect 31 0 32 0;
#X connect 31 0 36 0;
#X connect 32 0 31 1;
#X connect 33 0 31 1;
#X connect 34 0 76 0;
#X connect 34 1 33 0;
#X connect 35 0 34 0;
#X connect 35 1 37 1;
#X connect 36 0 37 0;
#X connect 36 1 41 1;
#X connect 37 0 41 0;
#X connect 38 0 39 0;
#X connect 40 0 44 0;
#X connect 41 0 45 0;
#X connect 42 0 46 0;
#X connect 43 0 47 0;
#X connect 48 0 54 0;
#X connect 48 0 49 0;
#X connect 48 0 11 0;
#X connect 48 0 55 0;
#X connect 48 0 50 0;
#X connect 49 0 27 0;
#X connect 50 0 17 0;
#X connect 51 0 29 0;
#X connect 52 0 53 0;
#X connect 53 0 40 0;
#X connect 54 0 16 0;
#X connect 55 0 35 0;
#X connect 56 0 57 0;
#X connect 57 0 38 0;
#X connect 58 0 56 0;
#X connect 59 0 48 0;
#X connect 60 0 38 2;
#X connect 61 0 40 2;
#X connect 62 0 41 2;
#X connect 63 0 42 2;
#X connect 64 0 43 2;
#X connect 68 0 48 0;
#X connect 69 0 60 0;
#X connect 70 0 61 0;
#X connect 71 0 62 0;
#X connect 72 0 63 0;
#X connect 73 0 64 0;
#X connect 74 0 0 0;
#X connect 75 0 4 0;
#X connect 76 0 30 0;
#X connect 77 0 22 0;
#X connect 78 0 7 0;
#X restore 1007 292 pd presets;
#X obj 512 161 inlet notes;
#X obj 512 270 poly 4 1, f 11;
#X obj 512 292 pack 0 0 0, f 11;
#X msg 1004 167 write skel-band-store.txt;
#X msg 980 136 read skel-band-store.txt;
#X obj 996 103 r loadbang-\$1;
#X obj 978 195 array define skel-band-table-\$1;
#X obj 830 391 additive-synth-voice \$1 4;
#X obj 1099 786 s~ add-transpose-sig-\$1;
#X obj 1099 759 lop~ 10;
#X obj 573 655 s \$1-attack-local;
#X obj 727 652 s \$1-decay-local;
#X obj 845 605 s \$1-sustain-local;
#X obj 1001 579 s \$1-release-local;
#X text 215 577 partial master list.;
#X text 362 511 read the .txt file;
#X msg 202 516 read addsyn-relTxt.txt;
#X obj 202 545 text define \$1-relTxt;
#X obj 328 702 text get \$1-relTxt;
#X obj 658 817 s \$1-filterRez-local;
#X obj 882 841 s \$1-filterPole-local;
#X obj 328 846 s \$1-freqset-local;
#X text 700 20 two page additive synth;
#X obj 1099 728 r add_trans-\$1;
#X obj 328 602 r add_preset-\$1;
#X obj 137 469 r loadbang-\$1;
#X obj 882 639 r add_cutoff-\$1;
#X obj 644 693 r add_reso-\$1;
#X obj 571 516 r add_attack-\$1;
#X obj 721 520 r add_decay-\$1;
#X obj 845 506 r add_sustain-\$1;
#X obj 1002 499 r add_release-\$1;
#X obj 644 715 / 100;
#X obj 882 661 / 100;
#X obj 644 737 t f f;
#X obj 644 759 *;
#X obj 882 683 t f f;
#X obj 882 705 *;
#X obj 845 528 / 100;
#X obj 845 550 sqrt;
#X obj 845 572 sqrt;
#X obj 571 542 / 100;
#X obj 721 542 / 100;
#X obj 1002 521 / 100;
#X obj 1002 543 * 5000;
#X obj 721 564 * 300;
#X obj 882 783 * 11;
#X obj 328 724 list split 12;
#X obj 378 808 s aux-label-\$1;
#X obj 377 767 list prepend Preset:;
#X msg 375 536 write addsyn-relTxt.txt;
#X obj 571 564 t f f;
#X obj 571 586 *;
#X obj 571 614 * 150;
#X obj 721 586 max 10;
#X obj 724 359 additive-synth-voice \$1 3;
#X obj 512 360 additive-synth-voice \$1 1;
#X obj 618 386 additive-synth-voice \$1 2;
#X obj 137 491 t b b;
#X obj 137 513 del 500;
#X obj 328 674 f;
#X connect 1 0 0 0;
#X connect 2 0 60 0;
#X connect 2 1 61 0;
#X connect 2 2 59 0;
#X connect 2 3 11 0;
#X connect 4 0 5 0;
#X connect 5 0 6 0;
#X connect 5 1 6 1;
#X connect 5 2 6 2;
#X connect 6 0 2 0;
#X connect 8 0 10 0;
#X connect 9 0 8 0;
#X connect 11 0 1 0;
#X connect 13 0 12 0;
#X connect 20 0 21 0;
#X connect 22 0 51 0;
#X connect 27 0 13 0;
#X connect 28 0 64 0;
#X connect 29 0 62 0;
#X connect 30 0 37 0;
#X connect 31 0 36 0;
#X connect 32 0 45 0;
#X connect 33 0 46 0;
#X connect 34 0 42 0;
#X connect 35 0 47 0;
#X connect 36 0 38 0;
#X connect 37 0 40 0;
#X connect 38 0 39 0;
#X connect 38 1 39 1;
#X connect 39 0 23 0;
#X connect 40 0 41 0;
#X connect 40 1 41 1;
#X connect 41 0 50 0;
#X connect 42 0 43 0;
#X connect 43 0 44 0;
#X connect 44 0 16 0;
#X connect 45 0 55 0;
#X connect 46 0 49 0;
#X connect 47 0 48 0;
#X connect 48 0 17 0;
#X connect 49 0 58 0;
#X connect 50 0 24 0;
#X connect 51 0 25 0;
#X connect 51 1 53 0;
#X connect 53 0 52 0;
#X connect 55 0 56 0;
#X connect 55 1 56 1;
#X connect 56 0 57 0;
#X connect 57 0 14 0;
#X connect 58 0 15 0;
#X connect 59 0 1 0;
#X connect 60 0 1 0;
#X connect 61 0 1 0;
#X connect 62 0 63 0;
#X connect 62 1 20 0;
#X connect 63 0 64 0;
#X connect 64 0 22 0;
#X restore 219 315 pd synth;
#X obj 27 442 +~;
#X obj 136 444 +~;
#X obj 23 112 KontrolModule \$1 S-additive;
#X obj 181 35 print loaded:additive synth into \$1;
#X obj 304 208 t a a;
#X connect 0 0 18 0;
#X connect 2 0 6 0;
#X connect 2 0 5 0;
#X connect 3 0 16 0;
#X connect 4 0 17 0;
#X connect 6 0 3 0;
#X connect 7 0 14 0;
#X connect 8 0 15 0;
#X connect 13 0 14 1;
#X connect 13 0 15 1;
#X connect 14 0 9 0;
#X connect 15 0 10 0;
#X connect 18 0 13 0;
#X connect 18 1 1 0;
