#N canvas 413 405 484 257 10;
#X obj 40 190 delwrite~ \$0-short 100;
#X text 40 218 0 - 100 mSec allpass;
#X obj 64 79 delread~ \$0-short;
#X obj 37 29 inlet~;
#X obj 39 145 +~;
#X obj 59 114 *~;
#X obj 91 30 inlet;
#X obj 134 31 inlet;
#X text 37 10 sound;
#X text 95 9 time;
#X text 138 9 gain;
#X obj 142 55 * -1;
#X obj 138 115 *~;
#X obj 122 144 +~;
#X obj 192 189 outlet~;
#X obj 251 191 outlet~;
#X obj 239 71 delread~ \$0-short;
#X obj 232 32 inlet;
#X text 231 14 time;
#X obj 367 191 outlet~;
#X obj 355 71 delread~ \$0-short;
#X obj 348 32 inlet;
#X text 347 14 time;
#X connect 2 0 5 0;
#X connect 2 0 13 0;
#X connect 3 0 4 0;
#X connect 4 0 0 0;
#X connect 4 0 12 0;
#X connect 5 0 4 1;
#X connect 6 0 2 0;
#X connect 7 0 5 1;
#X connect 7 0 11 0;
#X connect 11 0 12 1;
#X connect 12 0 13 1;
#X connect 13 0 14 0;
#X connect 16 0 15 0;
#X connect 17 0 16 0;
#X connect 20 0 19 0;
#X connect 21 0 20 0;
