#N canvas 575 269 331 315 10;
#X obj 43 231 delwrite~ \$0-short 100;
#X text 43 259 0 - 100 mSec allpass;
#X obj 37 29 inlet~;
#X obj 42 203 +~;
#X obj 62 172 *~;
#X obj 91 30 inlet;
#X obj 134 31 inlet;
#X text 37 10 sound;
#X text 95 9 time;
#X text 138 9 gain;
#X obj 142 55 * -1;
#X obj 141 173 *~;
#X obj 125 202 +~;
#X obj 206 233 outlet~;
#X obj 67 137 vd~ \$0-short;
#X obj 182 30 inlet;
#X obj 185 56 osc~;
#X obj 70 113 +~;
#X text 179 9 freq;
#X obj 185 77 *~ 4;
#X connect 2 0 3 0;
#X connect 3 0 0 0;
#X connect 3 0 11 0;
#X connect 4 0 3 1;
#X connect 5 0 17 0;
#X connect 6 0 4 1;
#X connect 6 0 10 0;
#X connect 10 0 11 1;
#X connect 11 0 12 1;
#X connect 12 0 13 0;
#X connect 14 0 4 0;
#X connect 14 0 12 0;
#X connect 15 0 16 0;
#X connect 16 0 19 0;
#X connect 17 0 14 0;
#X connect 19 0 17 1;
