#N canvas 55 240 1861 804 10;
#X obj 304 186 r notesIn-\$1;
#X obj 304 491 s notesOut-\$1;
#X obj 23 9 r loaddefs-\$1;
#X msg 23 76 loaddefinitions \$1;
#X obj 181 9 r loadbang-\$1;
#X obj 181 76 print loading definiton for \$1;
#X obj 23 41 symbol;
#X obj 25 186 inlet~ inL-\$1;
#X obj 135 186 inlet~ inR-\$1;
#X obj 27 491 outlet~ outL-\$1;
#X obj 136 491 outlet~ outR-\$1;
#X obj 424 185 r auxIn-\$1;
#X obj 423 208 r expIn-\$1;
#X obj 423 233 r fsIn-\$1;
#N canvas 139 73 1201 635 synth 1;
#X obj 147 115 pack 0 0 0;
#X obj 721 317 s at;
#X obj 769 317 s dc;
#X obj 832 317 s su;
#X obj 882 317 s re;
#X obj 720 138 vsl 15 128 5 2000 0 0 empty empty empty 0 -9 0 10 -262144
-1 -1 0 1;
#X obj 769 138 vsl 15 128 0 2000 0 0 empty empty empty 0 -9 0 10 -262144
-1 -1 0 1;
#X obj 831 140 vsl 15 128 0 1 0 0 empty empty empty 0 -9 0 10 -262144
-1 -1 0 1;
#X obj 883 137 vsl 15 128 5 2000 0 0 empty empty empty 0 -9 0 10 -262144
-1 -1 0 1;
#X floatatom 882 286 5 0 0 0 - - -, f 5;
#X floatatom 832 286 5 0 0 0 - - -, f 5;
#X floatatom 769 286 5 0 0 0 - - -, f 5;
#X floatatom 721 286 5 0 0 0 - - -, f 5;
#X obj 1091 415 vsl 15 128 0 2000 0 0 empty empty empty 0 -9 0 10 -262144
-1 -1 0 1;
#X obj 1140 416 vsl 15 128 0 2000 0 0 empty empty empty 0 -9 0 10 -262144
-1 -1 0 1;
#X obj 1202 415 vsl 15 128 0 1 0 0 empty empty empty 0 -9 0 10 -262144
-1 -1 0 1;
#X obj 1252 415 vsl 15 128 0 2000 0 0 empty empty empty 0 -9 0 10 -262144
-1 -1 0 1;
#X floatatom 1257 556 5 0 0 0 - - -, f 5;
#X floatatom 1203 556 5 0 0 0 - - -, f 5;
#X floatatom 1141 556 5 0 0 0 - - -, f 5;
#X floatatom 1097 556 5 0 0 0 - - -, f 5;
#X obj 1098 578 s fat;
#X obj 1145 578 s fdc;
#X obj 1204 579 s fsu;
#X obj 1258 578 s fre;
#X obj 923 257 bng 15 250 50 0 empty empty empty 17 7 0 10 -262144
-1 -1;
#X obj 1050 535 bng 15 250 50 0 empty empty empty 17 7 0 10 -262144
-1 -1;
#X obj 917 414 vsl 15 128 0 4000 0 0 empty empty empty 0 -9 0 10 -262144
-1 -1 0 1;
#X floatatom 917 557 5 0 0 0 - - -, f 5;
#X obj 1001 415 vsl 15 128 0 4 0 0 empty empty empty 0 -9 0 10 -262144
-1 -1 0 1;
#X obj 915 578 s filtercut;
#X obj 1002 578 s resonance;
#X floatatom 1000 556 5 0 0 0 - - -, f 5;
#X obj 822 579 s filter-eg;
#X obj 823 422 vsl 15 128 -1 1 0 0 empty empty empty 0 -9 0 10 -262144
-1 -1 0 1;
#X floatatom 822 561 5 0 0 0 - - -, f 5;
#X obj 137 627 clip~ -1 1;
#X obj 369 619 clip~ -1 1;
#X obj 1314 629 s~ vibrato;
#X obj 1313 583 osc~;
#X obj 1310 415 vsl 15 128 0 10 0 0 empty empty empty 0 -9 0 10 -262144
-1 -1 0 1;
#X floatatom 1312 552 5 0 0 0 - - -, f 5;
#X obj 1314 606 *~;
#X obj 1373 413 vsl 15 128 0 10 0 0 empty empty empty 0 -9 0 10 -262144
-1 -1 0 1;
#X floatatom 1374 552 5 0 0 0 - - -, f 5;
#N canvas 0 50 1243 774 voice 0;
#X obj 74 34 inlet;
#X obj 673 668 outlet~;
#X obj 541 496 bob~, f 18;
#X obj 140 81 unpack;
#X obj 917 92 sel 0;
#X obj 1092 100 r at;
#X obj 1089 202 vline~;
#X msg 1088 174 1 \$2 \, \$4 \$3 \$2;
#X obj 1019 147 pack f f;
#X obj 1087 147 pack f f f f;
#X msg 1047 174 0 \$2;
#X obj 1131 99 r dc;
#X obj 1166 100 r su;
#X obj 1017 122 r re;
#X obj 670 599 *~;
#X obj 633 244 r filtercut;
#X obj 662 464 r resonance;
#X obj 632 309 line~;
#X obj 633 286 pack 0 50;
#X obj 754 228 vline~;
#X msg 753 200 1 \$2 \, \$4 \$3 \$2;
#X obj 688 102 sel 0;
#X obj 684 173 pack f f;
#X obj 752 173 pack f f f f;
#X msg 712 200 0 \$2;
#X obj 677 149 r fre;
#X obj 757 126 r fat;
#X obj 796 126 r fdc;
#X obj 836 125 r fsu;
#X obj 744 271 *~;
#X obj 900 219 r filter-eg;
#X obj 722 307 *~;
#X obj 722 337 *~ 1000;
#X obj 650 373 +~;
#X obj 681 409 clip~ 0.1 3000;
#X obj 351 107 mtof;
#X obj 452 122 r~ vibrato;
#X obj 559 116 / 100;
#X obj 405 205 *~;
#X obj 351 251 +~;
#X obj 444 318 noise~;
#X obj 351 290 blsquare~;
#X obj 447 352 *~ 0.07;
#X connect 0 0 3 0;
#X connect 2 0 14 0;
#X connect 3 0 35 0;
#X connect 3 1 4 0;
#X connect 3 1 21 0;
#X connect 4 0 8 0;
#X connect 4 1 9 0;
#X connect 5 0 9 1;
#X connect 6 0 14 1;
#X connect 7 0 6 0;
#X connect 8 0 10 0;
#X connect 9 0 7 0;
#X connect 10 0 6 0;
#X connect 11 0 9 2;
#X connect 12 0 9 3;
#X connect 13 0 8 1;
#X connect 14 0 1 0;
#X connect 15 0 18 0;
#X connect 16 0 2 2;
#X connect 17 0 33 0;
#X connect 18 0 17 0;
#X connect 19 0 29 0;
#X connect 19 0 29 1;
#X connect 20 0 19 0;
#X connect 21 0 22 0;
#X connect 21 1 23 0;
#X connect 22 0 24 0;
#X connect 23 0 20 0;
#X connect 24 0 19 0;
#X connect 25 0 22 1;
#X connect 26 0 23 1;
#X connect 27 0 23 2;
#X connect 28 0 23 3;
#X connect 29 0 31 1;
#X connect 30 0 31 0;
#X connect 31 0 32 0;
#X connect 32 0 33 1;
#X connect 33 0 34 0;
#X connect 34 0 2 1;
#X connect 35 0 37 0;
#X connect 35 0 39 0;
#X connect 36 0 38 0;
#X connect 37 0 38 1;
#X connect 38 0 39 1;
#X connect 39 0 41 0;
#X connect 40 0 42 0;
#X connect 41 0 2 0;
#X connect 42 0 2 0;
#X restore 159 219 pd voice;
#X obj 153 163 route 1 2 3 4 5;
#N canvas 0 50 1243 774 voice 0;
#X obj 74 34 inlet;
#X obj 673 668 outlet~;
#X obj 541 496 bob~, f 18;
#X obj 140 81 unpack;
#X obj 917 92 sel 0;
#X obj 1092 100 r at;
#X obj 1089 202 vline~;
#X msg 1088 174 1 \$2 \, \$4 \$3 \$2;
#X obj 1019 147 pack f f;
#X obj 1087 147 pack f f f f;
#X msg 1047 174 0 \$2;
#X obj 1131 99 r dc;
#X obj 1166 100 r su;
#X obj 1017 122 r re;
#X obj 670 599 *~;
#X obj 633 244 r filtercut;
#X obj 662 464 r resonance;
#X obj 632 309 line~;
#X obj 633 286 pack 0 50;
#X obj 754 228 vline~;
#X msg 753 200 1 \$2 \, \$4 \$3 \$2;
#X obj 688 102 sel 0;
#X obj 684 173 pack f f;
#X obj 752 173 pack f f f f;
#X msg 712 200 0 \$2;
#X obj 677 149 r fre;
#X obj 757 126 r fat;
#X obj 796 126 r fdc;
#X obj 836 125 r fsu;
#X obj 744 271 *~;
#X obj 900 219 r filter-eg;
#X obj 722 307 *~;
#X obj 722 337 *~ 1000;
#X obj 650 373 +~;
#X obj 681 409 clip~ 0.1 3000;
#X obj 351 107 mtof;
#X obj 452 122 r~ vibrato;
#X obj 559 116 / 100;
#X obj 405 205 *~;
#X obj 351 251 +~;
#X obj 444 318 noise~;
#X obj 351 290 blsquare~;
#X obj 447 352 *~ 0.07;
#X connect 0 0 3 0;
#X connect 2 0 14 0;
#X connect 3 0 35 0;
#X connect 3 1 4 0;
#X connect 3 1 21 0;
#X connect 4 0 8 0;
#X connect 4 1 9 0;
#X connect 5 0 9 1;
#X connect 6 0 14 1;
#X connect 7 0 6 0;
#X connect 8 0 10 0;
#X connect 9 0 7 0;
#X connect 10 0 6 0;
#X connect 11 0 9 2;
#X connect 12 0 9 3;
#X connect 13 0 8 1;
#X connect 14 0 1 0;
#X connect 15 0 18 0;
#X connect 16 0 2 2;
#X connect 17 0 33 0;
#X connect 18 0 17 0;
#X connect 19 0 29 0;
#X connect 19 0 29 1;
#X connect 20 0 19 0;
#X connect 21 0 22 0;
#X connect 21 1 23 0;
#X connect 22 0 24 0;
#X connect 23 0 20 0;
#X connect 24 0 19 0;
#X connect 25 0 22 1;
#X connect 26 0 23 1;
#X connect 27 0 23 2;
#X connect 28 0 23 3;
#X connect 29 0 31 1;
#X connect 30 0 31 0;
#X connect 31 0 32 0;
#X connect 32 0 33 1;
#X connect 33 0 34 0;
#X connect 34 0 2 1;
#X connect 35 0 37 0;
#X connect 35 0 39 0;
#X connect 36 0 38 0;
#X connect 37 0 38 1;
#X connect 38 0 39 1;
#X connect 39 0 41 0;
#X connect 40 0 42 0;
#X connect 41 0 2 0;
#X connect 42 0 2 0;
#X restore 223 219 pd voice;
#N canvas 0 50 1243 774 voice 0;
#X obj 74 34 inlet;
#X obj 673 668 outlet~;
#X obj 541 496 bob~, f 18;
#X obj 140 81 unpack;
#X obj 917 92 sel 0;
#X obj 1092 100 r at;
#X obj 1089 202 vline~;
#X msg 1088 174 1 \$2 \, \$4 \$3 \$2;
#X obj 1019 147 pack f f;
#X obj 1087 147 pack f f f f;
#X msg 1047 174 0 \$2;
#X obj 1131 99 r dc;
#X obj 1166 100 r su;
#X obj 1017 122 r re;
#X obj 670 599 *~;
#X obj 633 244 r filtercut;
#X obj 662 464 r resonance;
#X obj 632 309 line~;
#X obj 633 286 pack 0 50;
#X obj 754 228 vline~;
#X msg 753 200 1 \$2 \, \$4 \$3 \$2;
#X obj 688 102 sel 0;
#X obj 684 173 pack f f;
#X obj 752 173 pack f f f f;
#X msg 712 200 0 \$2;
#X obj 677 149 r fre;
#X obj 757 126 r fat;
#X obj 796 126 r fdc;
#X obj 836 125 r fsu;
#X obj 744 271 *~;
#X obj 900 219 r filter-eg;
#X obj 722 307 *~;
#X obj 722 337 *~ 1000;
#X obj 650 373 +~;
#X obj 681 409 clip~ 0.1 3000;
#X obj 351 107 mtof;
#X obj 452 122 r~ vibrato;
#X obj 559 116 / 100;
#X obj 405 205 *~;
#X obj 351 251 +~;
#X obj 444 318 noise~;
#X obj 351 290 blsquare~;
#X obj 447 352 *~ 0.07;
#X connect 0 0 3 0;
#X connect 2 0 14 0;
#X connect 3 0 35 0;
#X connect 3 1 4 0;
#X connect 3 1 21 0;
#X connect 4 0 8 0;
#X connect 4 1 9 0;
#X connect 5 0 9 1;
#X connect 6 0 14 1;
#X connect 7 0 6 0;
#X connect 8 0 10 0;
#X connect 9 0 7 0;
#X connect 10 0 6 0;
#X connect 11 0 9 2;
#X connect 12 0 9 3;
#X connect 13 0 8 1;
#X connect 14 0 1 0;
#X connect 15 0 18 0;
#X connect 16 0 2 2;
#X connect 17 0 33 0;
#X connect 18 0 17 0;
#X connect 19 0 29 0;
#X connect 19 0 29 1;
#X connect 20 0 19 0;
#X connect 21 0 22 0;
#X connect 21 1 23 0;
#X connect 22 0 24 0;
#X connect 23 0 20 0;
#X connect 24 0 19 0;
#X connect 25 0 22 1;
#X connect 26 0 23 1;
#X connect 27 0 23 2;
#X connect 28 0 23 3;
#X connect 29 0 31 1;
#X connect 30 0 31 0;
#X connect 31 0 32 0;
#X connect 32 0 33 1;
#X connect 33 0 34 0;
#X connect 34 0 2 1;
#X connect 35 0 37 0;
#X connect 35 0 39 0;
#X connect 36 0 38 0;
#X connect 37 0 38 1;
#X connect 38 0 39 1;
#X connect 39 0 41 0;
#X connect 40 0 42 0;
#X connect 41 0 2 0;
#X connect 42 0 2 0;
#X restore 287 219 pd voice;
#N canvas 0 50 1243 774 voice 0;
#X obj 74 34 inlet;
#X obj 673 668 outlet~;
#X obj 541 496 bob~, f 18;
#X obj 140 81 unpack;
#X obj 917 92 sel 0;
#X obj 1092 100 r at;
#X obj 1089 202 vline~;
#X msg 1088 174 1 \$2 \, \$4 \$3 \$2;
#X obj 1019 147 pack f f;
#X obj 1087 147 pack f f f f;
#X msg 1047 174 0 \$2;
#X obj 1131 99 r dc;
#X obj 1166 100 r su;
#X obj 1017 122 r re;
#X obj 670 599 *~;
#X obj 633 244 r filtercut;
#X obj 662 464 r resonance;
#X obj 632 309 line~;
#X obj 633 286 pack 0 50;
#X obj 754 228 vline~;
#X msg 753 200 1 \$2 \, \$4 \$3 \$2;
#X obj 688 102 sel 0;
#X obj 684 173 pack f f;
#X obj 752 173 pack f f f f;
#X msg 712 200 0 \$2;
#X obj 677 149 r fre;
#X obj 757 126 r fat;
#X obj 796 126 r fdc;
#X obj 836 125 r fsu;
#X obj 744 271 *~;
#X obj 900 219 r filter-eg;
#X obj 722 307 *~;
#X obj 722 337 *~ 1000;
#X obj 650 373 +~;
#X obj 681 409 clip~ 0.1 3000;
#X obj 351 107 mtof;
#X obj 452 122 r~ vibrato;
#X obj 559 116 / 100;
#X obj 405 205 *~;
#X obj 351 251 +~;
#X obj 444 318 noise~;
#X obj 351 290 blsquare~;
#X obj 447 352 *~ 0.07;
#X connect 0 0 3 0;
#X connect 2 0 14 0;
#X connect 3 0 35 0;
#X connect 3 1 4 0;
#X connect 3 1 21 0;
#X connect 4 0 8 0;
#X connect 4 1 9 0;
#X connect 5 0 9 1;
#X connect 6 0 14 1;
#X connect 7 0 6 0;
#X connect 8 0 10 0;
#X connect 9 0 7 0;
#X connect 10 0 6 0;
#X connect 11 0 9 2;
#X connect 12 0 9 3;
#X connect 13 0 8 1;
#X connect 14 0 1 0;
#X connect 15 0 18 0;
#X connect 16 0 2 2;
#X connect 17 0 33 0;
#X connect 18 0 17 0;
#X connect 19 0 29 0;
#X connect 19 0 29 1;
#X connect 20 0 19 0;
#X connect 21 0 22 0;
#X connect 21 1 23 0;
#X connect 22 0 24 0;
#X connect 23 0 20 0;
#X connect 24 0 19 0;
#X connect 25 0 22 1;
#X connect 26 0 23 1;
#X connect 27 0 23 2;
#X connect 28 0 23 3;
#X connect 29 0 31 1;
#X connect 30 0 31 0;
#X connect 31 0 32 0;
#X connect 32 0 33 1;
#X connect 33 0 34 0;
#X connect 34 0 2 1;
#X connect 35 0 37 0;
#X connect 35 0 39 0;
#X connect 36 0 38 0;
#X connect 37 0 38 1;
#X connect 38 0 39 1;
#X connect 39 0 41 0;
#X connect 40 0 42 0;
#X connect 41 0 2 0;
#X connect 42 0 2 0;
#X restore 351 219 pd voice;
#N canvas 0 50 1243 774 voice 0;
#X obj 74 34 inlet;
#X obj 673 668 outlet~;
#X obj 541 496 bob~, f 18;
#X obj 140 81 unpack;
#X obj 917 92 sel 0;
#X obj 1092 100 r at;
#X obj 1089 202 vline~;
#X msg 1088 174 1 \$2 \, \$4 \$3 \$2;
#X obj 1019 147 pack f f;
#X obj 1087 147 pack f f f f;
#X msg 1047 174 0 \$2;
#X obj 1131 99 r dc;
#X obj 1166 100 r su;
#X obj 1017 122 r re;
#X obj 670 599 *~;
#X obj 633 244 r filtercut;
#X obj 662 464 r resonance;
#X obj 632 309 line~;
#X obj 633 286 pack 0 50;
#X obj 754 228 vline~;
#X msg 753 200 1 \$2 \, \$4 \$3 \$2;
#X obj 688 102 sel 0;
#X obj 684 173 pack f f;
#X obj 752 173 pack f f f f;
#X msg 712 200 0 \$2;
#X obj 677 149 r fre;
#X obj 757 126 r fat;
#X obj 796 126 r fdc;
#X obj 836 125 r fsu;
#X obj 744 271 *~;
#X obj 900 219 r filter-eg;
#X obj 722 307 *~;
#X obj 722 337 *~ 1000;
#X obj 650 373 +~;
#X obj 681 409 clip~ 0.1 3000;
#X obj 351 107 mtof;
#X obj 452 122 r~ vibrato;
#X obj 559 116 / 100;
#X obj 405 205 *~;
#X obj 351 251 +~;
#X obj 444 318 noise~;
#X obj 351 290 blsquare~;
#X obj 447 352 *~ 0.07;
#X connect 0 0 3 0;
#X connect 2 0 14 0;
#X connect 3 0 35 0;
#X connect 3 1 4 0;
#X connect 3 1 21 0;
#X connect 4 0 8 0;
#X connect 4 1 9 0;
#X connect 5 0 9 1;
#X connect 6 0 14 1;
#X connect 7 0 6 0;
#X connect 8 0 10 0;
#X connect 9 0 7 0;
#X connect 10 0 6 0;
#X connect 11 0 9 2;
#X connect 12 0 9 3;
#X connect 13 0 8 1;
#X connect 14 0 1 0;
#X connect 15 0 18 0;
#X connect 16 0 2 2;
#X connect 17 0 33 0;
#X connect 18 0 17 0;
#X connect 19 0 29 0;
#X connect 19 0 29 1;
#X connect 20 0 19 0;
#X connect 21 0 22 0;
#X connect 21 1 23 0;
#X connect 22 0 24 0;
#X connect 23 0 20 0;
#X connect 24 0 19 0;
#X connect 25 0 22 1;
#X connect 26 0 23 1;
#X connect 27 0 23 2;
#X connect 28 0 23 3;
#X connect 29 0 31 1;
#X connect 30 0 31 0;
#X connect 31 0 32 0;
#X connect 32 0 33 1;
#X connect 33 0 34 0;
#X connect 34 0 2 1;
#X connect 35 0 37 0;
#X connect 35 0 39 0;
#X connect 36 0 38 0;
#X connect 37 0 38 1;
#X connect 38 0 39 1;
#X connect 39 0 41 0;
#X connect 40 0 42 0;
#X connect 41 0 2 0;
#X connect 42 0 2 0;
#X restore 414 219 pd voice;
#X obj 158 270 *~ 0.22;
#X obj 168 796 outlet~;
#X obj 276 791 outlet~;
#X obj 136 55 inlet;
#X obj 657 107 r attack-\$1;
#X obj 744 102 r decay-\$1;
#X obj 813 101 r sustain-\$1;
#X obj 893 101 r release-\$1;
#X obj 709 386 r filter-eg-\$1;
#X obj 873 360 r cutoff-\$1;
#X obj 972 364 r resonance-\$1;
#X obj 1071 360 r fat-\$1;
#X obj 1131 358 r fdc-\$1;
#X obj 1195 360 r fsu-\$1;
#X obj 1206 333 r fre-\$1;
#X obj 1277 336 r vibosc-\$1;
#X obj 1321 380 r vibdep-\$1;
#X obj 150 84 poly 5 1;
#X connect 0 0 46 0;
#X connect 5 0 12 0;
#X connect 6 0 11 0;
#X connect 7 0 10 0;
#X connect 8 0 9 0;
#X connect 9 0 4 0;
#X connect 10 0 3 0;
#X connect 11 0 2 0;
#X connect 12 0 1 0;
#X connect 13 0 20 0;
#X connect 14 0 19 0;
#X connect 15 0 18 0;
#X connect 16 0 17 0;
#X connect 17 0 24 0;
#X connect 18 0 23 0;
#X connect 19 0 22 0;
#X connect 20 0 21 0;
#X connect 25 0 12 0;
#X connect 25 0 11 0;
#X connect 25 0 10 0;
#X connect 25 0 9 0;
#X connect 26 0 17 0;
#X connect 26 0 18 0;
#X connect 26 0 19 0;
#X connect 26 0 20 0;
#X connect 26 0 32 0;
#X connect 26 0 28 0;
#X connect 26 0 35 0;
#X connect 26 0 41 0;
#X connect 26 0 44 0;
#X connect 27 0 28 0;
#X connect 28 0 30 0;
#X connect 29 0 32 0;
#X connect 32 0 31 0;
#X connect 34 0 35 0;
#X connect 35 0 33 0;
#X connect 36 0 52 0;
#X connect 37 0 53 0;
#X connect 39 0 42 0;
#X connect 40 0 41 0;
#X connect 41 0 39 0;
#X connect 42 0 38 0;
#X connect 43 0 44 0;
#X connect 44 0 42 1;
#X connect 45 0 51 0;
#X connect 46 0 45 0;
#X connect 46 1 47 0;
#X connect 46 2 48 0;
#X connect 46 3 49 0;
#X connect 46 4 50 0;
#X connect 47 0 51 0;
#X connect 48 0 51 0;
#X connect 49 0 51 0;
#X connect 50 0 51 0;
#X connect 51 0 36 0;
#X connect 51 0 37 0;
#X connect 54 0 68 0;
#X connect 55 0 5 0;
#X connect 56 0 6 0;
#X connect 57 0 7 0;
#X connect 58 0 8 0;
#X connect 59 0 34 0;
#X connect 60 0 27 0;
#X connect 61 0 29 0;
#X connect 62 0 13 0;
#X connect 63 0 14 0;
#X connect 64 0 15 0;
#X connect 65 0 16 0;
#X connect 66 0 40 0;
#X connect 67 0 43 0;
#X connect 68 0 0 0;
#X connect 68 1 0 1;
#X connect 68 2 0 2;
#X restore 62 315 pd synth;
#X obj 25 376 +~;
#X obj 136 381 +~;
#X obj 24 111 KontrolModule \$1 S-spacekittens;
#X obj 182 35 print loaded:spacekittens into \$1, f 35;
#X connect 0 0 1 0;
#X connect 0 0 14 0;
#X connect 2 0 6 0;
#X connect 2 0 5 0;
#X connect 3 0 17 0;
#X connect 4 0 18 0;
#X connect 6 0 3 0;
#X connect 7 0 15 0;
#X connect 8 0 16 0;
#X connect 14 0 15 1;
#X connect 14 1 16 1;
#X connect 15 0 9 0;
#X connect 16 0 10 0;
