#N canvas 1740 186 1280 726 10;
#X obj 304 186 r notesIn-\$1;
#X obj 304 491 s notesOut-\$1;
#X obj 23 9 r loaddefs-\$1;
#X msg 23 76 loaddefinitions \$1;
#X obj 181 9 r loadbang-\$1;
#X obj 181 76 print loading definiton for \$1;
#X obj 23 41 symbol;
#X obj 25 186 inlet~ inL-\$1;
#X obj 135 186 inlet~ inR-\$1;
#X obj 27 491 outlet~ outL-\$1;
#X obj 136 491 outlet~ outR-\$1;
#X text 595 38 Sequencer2: A simple sequencer Module.;
#N canvas 257 837 790 477 killnotes 1;
#X obj 298 26 inlet;
#X obj 297 398 outlet;
#X obj 170 123 unpack 0 0;
#X obj 183 160 > 0, f 7;
#X obj 430 236 == 0;
#X obj 182 235 > 50;
#X obj 186 186 bng 15 250 50 0 empty empty empty 17 7 0 10 -262144
-1 -1;
#X obj 184 261 == 1;
#X obj 299 81 t l l;
#X obj 371 276 spigot;
#X obj 279 307 spigot;
#X obj 419 82 r rg_pcnt-\$1;
#X floatatom 424 214 5 0 0 0 - - -, f 5;
#X obj 410 176 -;
#X obj 424 113 t b f;
#X msg 407 144 100;
#X obj 183 208 random 100;
#X connect 0 0 8 0;
#X connect 2 1 3 0;
#X connect 2 1 4 0;
#X connect 3 0 6 0;
#X connect 4 0 9 1;
#X connect 5 0 7 0;
#X connect 6 0 16 0;
#X connect 7 0 10 1;
#X connect 8 0 9 0;
#X connect 8 0 10 0;
#X connect 8 1 2 0;
#X connect 9 0 1 0;
#X connect 10 0 1 0;
#X connect 11 0 14 0;
#X connect 13 0 12 0;
#X connect 13 0 5 1;
#X connect 14 0 15 0;
#X connect 14 1 13 1;
#X connect 15 0 13 0;
#X connect 16 0 5 0;
#X restore 340 325 pd killnotes;
#X obj 181 35 print loaded:notefilter into \$1, f 35;
#X obj 23 112 KontrolModule \$1 U-notefilter;
#X connect 0 0 12 0;
#X connect 2 0 6 0;
#X connect 2 0 5 0;
#X connect 3 0 14 0;
#X connect 4 0 13 0;
#X connect 6 0 3 0;
#X connect 7 0 9 0;
#X connect 8 0 10 0;
#X connect 12 0 1 0;
