#N canvas -8 -8 1366 725 10;
#N canvas 0 50 450 250 (subpatch) 0;
#X array \$0-plot 40000 float 2;
#X coords 0 1 40000 -1 200 280 1 0 0;
#X restore 1012 352 graph;
#X obj 139 75 t b b;
#X obj 142 52 bng 15 250 50 0 empty empty empty 17 7 0 10 -262144 -1
-1;
#X obj 58 291 loop~;
#X msg 55 252 bang;
#X obj 144 454 samphold~;
#N canvas 0 50 450 250 (subpatch) 0;
#X array \$0-plot2 40000 float 2;
#X coords 0 1 40000 0 200 140 1 0 0;
#X restore 1013 171 graph;
#X msg 18 226 1;
#X obj 78 595 s~ \$0-len;
#X obj 184 187 r~ \$0-len;
#X obj 174 242 *~ 20000;
#X obj 315 563 *~;
#X obj 370 597 /~ 20000;
#X obj 151 512 samphold~;
#N canvas 0 50 450 300 rand~ 0;
#X obj 95 148 outlet~;
#X obj 123 64 noise~;
#X obj 144 95 *~ 0.5;
#X obj 156 134 +~ 0.5;
#X connect 1 0 2 0;
#X connect 2 0 3 0;
#X connect 3 0 0 0;
#X restore 100 329 pd rand~;
#X obj 81 367 samphold~;
#X obj 87 520 -~;
#X obj 89 570 abs~;
#X obj 142 271 max~ 64;
#X obj 815 553 snapshot~;
#X obj 826 581 nbx 5 14 -1e+037 1e+037 0 0 empty empty empty 0 -8 0
10 -262144 -1 -1 0 256;
#X obj 850 498 bng 15 250 50 0 empty empty empty 17 7 0 10 -262144
-1 -1;
#X obj 881 551 snapshot~;
#X obj 892 579 nbx 5 14 -1e+037 1e+037 0 0 empty empty empty 0 -8 0
10 -262144 -1 -1 0 256;
#X obj 135 391 s~ \$0-s;
#X obj 97 409 r~ \$0-s;
#X obj 188 603 -~;
#X obj 325 478 s~ \$0-s2;
#X obj 368 513 r~ \$0-s2;
#X obj 165 637 abs~;
#X obj 204 659 /~;
#X obj 332 535 *~;
#N canvas 0 50 450 250 (subpatch) 0;
#X array \$0-plot4 40000 float 2;
#X coords 0 1 40000 0 200 140 1 0 0;
#X restore 753 42 graph;
#N canvas 0 50 450 250 (subpatch) 0;
#X array \$0-plot3 40000 float 2;
#X coords 0 1 40000 0 200 140 1 0 0;
#X restore 1014 31 graph;
#X obj 267 673 tabwrite~ \$0-plot4;
#X obj 443 655 +~;
#X msg 81 229 0.25;
#X msg 63 199 0.5;
#X obj 594 267 nbx 10 14 -1e+037 1e+037 0 0 empty empty empty 0 -8
0 10 -262144 -1 -1 0 256;
#X obj 215 53 inlet;
#X text 95 73 pitch;
#X text 228 24 looplen;
#X obj 41 90 inlet;
#X obj 636 664 outlet~;
#X obj 617 173 inlet;
#X text 598 133 on//off;
#X obj 580 503 *~ 0;
#X connect 1 1 34 0;
#X connect 2 0 1 0;
#X connect 3 0 5 1;
#X connect 3 0 11 0;
#X connect 3 0 13 1;
#X connect 3 0 15 1;
#X connect 3 1 31 0;
#X connect 4 0 3 0;
#X connect 5 0 16 1;
#X connect 5 0 27 0;
#X connect 5 0 26 0;
#X connect 7 0 3 0;
#X connect 9 0 10 0;
#X connect 9 0 19 0;
#X connect 10 0 18 0;
#X connect 11 0 12 0;
#X connect 12 0 35 0;
#X connect 13 0 26 1;
#X connect 13 0 35 1;
#X connect 14 0 15 0;
#X connect 15 0 16 0;
#X connect 15 0 24 0;
#X connect 16 0 17 0;
#X connect 17 0 8 0;
#X connect 18 0 3 1;
#X connect 19 0 20 0;
#X connect 21 0 19 0;
#X connect 21 0 22 0;
#X connect 22 0 23 0;
#X connect 25 0 5 0;
#X connect 26 0 30 1;
#X connect 26 0 29 0;
#X connect 28 0 13 0;
#X connect 29 0 30 0;
#X connect 30 0 31 1;
#X connect 31 0 11 1;
#X connect 35 0 34 0;
#X connect 35 0 46 0;
#X connect 36 0 3 0;
#X connect 37 0 3 0;
#X connect 38 0 10 1;
#X connect 38 0 12 1;
#X connect 39 0 38 0;
#X connect 39 0 4 0;
#X connect 42 0 3 0;
#X connect 44 0 46 1;
#X connect 46 0 43 0;
