#N canvas 546 208 598 417 10;
#X obj 165 357 outlet~;
#X obj 15 44 samp_voice 60 72 \$1 \$2;
#X obj 343 323 outlet~;
#X obj 299 0 inlet;
#X obj 155 0 inlet;
#X obj 41 65 samp_voice 61 73 \$1 \$2;
#X obj 67 87 samp_voice 62 74 \$1 \$2;
#X obj 78 105 samp_voice 63 75 \$1 \$2;
#X obj 170 43 samp_voice 64 76 \$1 \$2;
#X obj 197 64 samp_voice 65 77 \$1 \$2;
#X obj 227 101 samp_voice 66 78 \$1 \$2;
#X obj 237 118 samp_voice 67 79 \$1 \$2;
#X obj 354 45 samp_voice 68 80 \$1 \$2;
#X obj 380 66 samp_voice 69 81 \$1 \$2;
#X obj 406 88 samp_voice 70 82 \$1 \$2;
#X obj 417 106 samp_voice 71 83 \$1 \$2;
#X connect 1 0 0 0;
#X connect 1 1 2 0;
#X connect 3 0 1 0;
#X connect 3 0 5 0;
#X connect 3 0 6 0;
#X connect 3 0 7 0;
#X connect 3 0 8 0;
#X connect 3 0 9 0;
#X connect 3 0 10 0;
#X connect 3 0 11 0;
#X connect 3 0 12 0;
#X connect 3 0 13 0;
#X connect 3 0 14 0;
#X connect 3 0 15 0;
#X connect 4 0 1 1;
#X connect 4 0 5 1;
#X connect 4 0 6 1;
#X connect 4 0 7 1;
#X connect 4 0 8 1;
#X connect 4 0 9 1;
#X connect 4 0 10 1;
#X connect 4 0 11 1;
#X connect 4 0 12 1;
#X connect 4 0 13 1;
#X connect 4 0 14 1;
#X connect 4 0 15 1;
#X connect 5 0 0 0;
#X connect 5 1 2 0;
#X connect 6 0 0 0;
#X connect 6 1 2 0;
#X connect 7 0 0 0;
#X connect 7 1 2 0;
#X connect 8 0 0 0;
#X connect 8 1 2 0;
#X connect 9 0 0 0;
#X connect 9 1 2 0;
#X connect 10 0 0 0;
#X connect 10 1 2 0;
#X connect 11 0 0 0;
#X connect 11 1 2 0;
#X connect 12 0 0 0;
#X connect 12 1 2 0;
#X connect 13 0 0 0;
#X connect 13 1 2 0;
#X connect 14 0 0 0;
#X connect 14 1 2 0;
#X connect 15 0 0 0;
#X connect 15 1 2 0;
