#N canvas 219 151 1360 725 10;
#X obj 274 333 outlet;
#X obj 80 24 inlet;
#X text 207 8 \$1-sample \, \$2-page \, \$3-knob;
#X text 356 195 0-1 val;
#X obj 290 198 nbx 5 14 -1e+037 1e+037 0 0 empty empty empty 0 -8 0
10 -262144 -1 -1 0.33333 256;
#X obj 173 19 r \$1-sel;
#X obj 288 125 r p\$2k\$3;
#X obj 103 272 s p\$2s\$3;
#X obj 116 152 list;
#X obj 123 175 list trim;
#X obj 110 98 t b a;
#X obj 208 117 bng 15 250 50 0 empty empty empty 17 7 0 10 -262144
-1 -1;
#X obj 297 224 spigot;
#X obj 172 101 bng 15 250 50 0 empty empty empty 17 7 0 10 -262144
-1 -1;
#X obj 233 86 sel 1;
#X obj 366 215 r sampparam_off;
#X obj 219 258 nbx 5 14 -1e+037 1e+037 0 0 empty empty empty 0 -8 0
10 -262144 -1 -1 0.421053 256;
#X obj 182 45 t f f;
#X obj 177 311 v p\$2k\$3;
#X obj 220 198 f \$4;
#X obj 407 262 bng 15 250 50 0 empty empty empty 17 7 0 10 -262144
-1 -1;
#X obj 121 238 spigot;
#X obj 168 75 sel 1;
#X obj 297 285 / 0.998;
#X obj 296 309 min 1;
#X obj 67 205 screensave \$2;
#X obj 606 77 r quitting;
#X obj 569 415 textfile;
#X obj 642 172 f \$1;
#X obj 662 198 f \$2;
#X obj 663 242 list;
#X obj 634 294 list;
#X msg 625 330 write \$1_\$2_\$3.txt;
#X obj 614 139 t b b b b b;
#X obj 620 104 bng 15 250 50 0 empty empty empty 17 7 0 10 -262144
-1 -1;
#X obj 460 311 f \$4;
#X msg 446 371 add \$1;
#X msg 546 356 clear;
#X obj 695 226 f \$3;
#X obj 802 186 f \$1;
#X obj 822 212 f \$2;
#X obj 823 256 list;
#X obj 794 308 list;
#X obj 773 128 t b b b b b;
#X obj 855 240 f \$3;
#X msg 827 334 read \$1_\$2_\$3.txt;
#X obj 727 250 bng 15 250 50 0 empty empty empty 17 7 0 10 -262144
-1 -1;
#X obj 792 97 bng 15 250 50 0 empty empty empty 17 7 0 10 -262144 -1
-1;
#X obj 801 387 textfile;
#X msg 755 219 rewind;
#X obj 778 56 loadbang;
#X obj 800 419 nbx 5 14 -1e+037 1e+037 0 0 empty empty empty 0 -8 0
10 -262144 -1 -1 0.421053 256;
#X obj 294 446;
#X floatatom 300 252 5 0 0 0 - - -, f 5;
#X obj 839 77 delay 25;
#X connect 1 0 10 0;
#X connect 4 0 12 0;
#X connect 4 0 20 0;
#X connect 5 0 17 0;
#X connect 6 0 4 0;
#X connect 8 0 9 0;
#X connect 9 0 25 0;
#X connect 10 0 8 0;
#X connect 10 1 8 1;
#X connect 11 0 19 0;
#X connect 12 0 53 0;
#X connect 13 0 8 0;
#X connect 14 0 11 0;
#X connect 15 0 12 1;
#X connect 17 0 12 1;
#X connect 17 0 22 0;
#X connect 17 1 14 0;
#X connect 17 1 21 1;
#X connect 19 0 16 0;
#X connect 19 0 18 0;
#X connect 21 0 7 0;
#X connect 22 0 13 0;
#X connect 23 0 24 0;
#X connect 24 0 0 0;
#X connect 25 0 21 0;
#X connect 26 0 34 0;
#X connect 28 0 31 0;
#X connect 29 0 30 0;
#X connect 30 0 31 1;
#X connect 31 0 32 0;
#X connect 32 0 27 0;
#X connect 33 0 28 0;
#X connect 33 1 35 0;
#X connect 33 2 37 0;
#X connect 33 3 29 0;
#X connect 33 4 38 0;
#X connect 34 0 33 0;
#X connect 35 0 36 0;
#X connect 36 0 27 0;
#X connect 37 0 27 0;
#X connect 38 0 30 1;
#X connect 39 0 42 0;
#X connect 40 0 41 0;
#X connect 41 0 42 1;
#X connect 42 0 45 0;
#X connect 43 0 46 0;
#X connect 43 1 49 0;
#X connect 43 2 39 0;
#X connect 43 3 40 0;
#X connect 43 4 44 0;
#X connect 44 0 41 1;
#X connect 45 0 48 0;
#X connect 46 0 48 0;
#X connect 47 0 43 0;
#X connect 48 0 51 0;
#X connect 49 0 48 0;
#X connect 50 0 54 0;
#X connect 51 0 53 0;
#X connect 53 0 23 0;
#X connect 53 0 35 1;
#X connect 53 0 19 1;
#X connect 54 0 47 0;
