#N canvas 18 67 1345 714 10;
#N canvas 0 50 450 250 (subpatch) 0;
#X array \$0-sample 1.1251e+06 float 2;
#X coords 0 1 1.1251e+06 -1 40 28 1 0 0;
#X restore 1251 33 graph;
#X obj 796 647 outlet~;
#X obj 616 477 tabread4~ \$0-sample;
#X obj 82 186 soundfiler;
#X obj 634 151 max 100;
#X obj 648 169 / 44100;
#X obj 539 297 nbx 5 14 -1e+37 1e+37 0 0 empty empty freq 0 -8 0 10
-262144 -1 -1 0.0517203 256;
#X obj 537 214 expr 1/$f1;
#X obj 85 102 list;
#X obj 111 75 f \$0;
#X msg 77 150 read -resize \$1 \$2-sample;
#X obj 84 207 s \$0-samplesize;
#X obj 789 487 *~;
#X obj 731 96 bng 15 250 50 0 empty empty empty 17 7 0 10 -262144 -1
-1;
#X obj 890 255 * 1000;
#X obj 202 205 print;
#X obj 1176 154 hsl 128 15 -24 24 0 0 empty empty pitch -2 -8 0 10
-262144 -1 -1 0 1;
#X obj 543 272 * 1;
#X obj 534 252 f 1;
#X obj 554 233 t b f;
#X floatatom 1030 218 5 0 0 0 - - -, f 5;
#X msg 663 308 0;
#X obj 663 283 del 3;
#X obj 794 628 *~;
#X obj 867 642 outlet~;
#X obj 865 614 *~;
#X obj 768 576 *~;
#X obj 707 -26 inlet;
#X obj 577 14 inlet;
#X obj 622 133 r \$0-slen;
#X obj 631 409 r \$0-offset;
#X obj 618 342 r \$0-dir;
#X obj 619 363 == -1;
#X obj 551 384 *~ 1;
#X obj 557 411 +~ 0;
#N canvas 8 108 1345 512 sample_bounds 0;
#X floatatom 221 206 10 0 0 2 sample_size #0-samplesize -, f 10;
#X obj 72 178 nbx 5 14 -1e+37 1e+37 0 0 empty empty empty 0 -8 0 10
-262144 -1 -1 0.364614 256;
#X obj 242 149 nbx 5 14 -1e+37 1e+37 0 0 empty empty empty 0 -8 0 10
-262144 -1 -1 0.683284 256;
#X obj 114 199 -;
#X obj 195 174 t b f;
#X obj 120 263 nbx 5 14 -1e+37 1e+37 0 0 empty empty empty 0 -8 0 10
-262144 -1 -1 0.318671 256;
#X obj 121 281 * 44100;
#X obj 123 314 nbx 5 14 -1e+37 1e+37 0 0 empty empty samplen 0 -8 0
10 -262144 -1 -1 358536 256;
#X obj 223 230 t b f;
#X obj 97 354 s \$0-slen;
#X obj 139 245 f 1;
#X obj 173 186 min 0;
#X obj 214 267 f 0;
#X obj 200 327 nbx 5 14 -1e+37 1e+37 0 0 empty empty offset 0 -8 0
10 -262144 -1 -1 410227 256;
#X obj 222 292 * 44100;
#X obj 299 343 nbx 5 14 -1e+37 1e+37 0 0 empty empty dir 0 -8 0 10
-262144 -1 -1 1 256;
#X obj 119 218 abs;
#X obj 306 276 * 2;
#X obj 302 298 - 1;
#X obj 313 237 <;
#X obj 348 306 nbx 5 14 -1e+37 1e+37 0 0 empty empty empty 0 -8 0 10
-262144 -1 -1 1 256;
#X obj 174 343 s \$0-offset;
#X obj 271 356 s \$0-dir;
#X obj 79 94 r samp_start-\$1;
#X obj 243 91 r samp_end-\$1;
#X obj 76 122 / 100;
#X obj 241 125 / 100;
#X connect 0 0 8 0;
#X connect 1 0 3 0;
#X connect 1 0 11 0;
#X connect 1 0 19 0;
#X connect 2 0 4 0;
#X connect 3 0 16 0;
#X connect 4 0 1 0;
#X connect 4 1 3 1;
#X connect 4 1 11 1;
#X connect 4 1 19 1;
#X connect 5 0 6 0;
#X connect 6 0 7 0;
#X connect 7 0 9 0;
#X connect 8 0 10 0;
#X connect 8 0 12 0;
#X connect 8 1 6 1;
#X connect 8 1 14 1;
#X connect 10 0 5 0;
#X connect 11 0 12 0;
#X connect 12 0 14 0;
#X connect 13 0 21 0;
#X connect 14 0 13 0;
#X connect 15 0 22 0;
#X connect 16 0 10 0;
#X connect 17 0 18 0;
#X connect 18 0 15 0;
#X connect 19 0 17 0;
#X connect 19 0 20 0;
#X connect 23 0 25 0;
#X connect 24 0 26 0;
#X connect 25 0 1 0;
#X connect 26 0 2 0;
#X restore 32 403 pd sample_bounds;
#X obj 557 358 *~ 1;
#N canvas 1 50 1356 714 loopstyle 0;
#X msg 82 248 gate;
#X msg 136 217 trigger;
#X msg 213 187 loop;
#X msg 274 179 pingpong;
#X obj 332 417 list;
#X msg 368 171 randcut;
#X msg 445 172 randpp;
#X obj 933 241 nbx 1 14 -1e+37 1e+37 0 0 empty empty empty 0 -8 0 10
-262144 -1 -1 0 256;
#X obj 958 243 nbx 1 14 -1e+37 1e+37 0 0 empty empty empty 0 -8 0 10
-262144 -1 -1 0 256;
#X obj 982 243 nbx 1 14 -1e+37 1e+37 0 0 empty empty empty 0 -8 0 10
-262144 -1 -1 1 256;
#X obj 1007 245 nbx 1 14 -1e+37 1e+37 0 0 empty empty empty 0 -8 0
10 -262144 -1 -1 0 256;
#X obj 1034 244 nbx 1 14 -1e+37 1e+37 0 0 empty empty empty 0 -8 0
10 -262144 -1 -1 0 256;
#X obj 1057 245 nbx 1 14 -1e+37 1e+37 0 0 empty empty empty 0 -8 0
10 -262144 -1 -1 0 256;
#X text 719 59 normal phasor;
#X text 718 36 gate (not trigger);
#X text 718 50 loop;
#X text 718 103 latch;
#X text 718 69 pingpong;
#X text 718 80 randcut;
#X text 719 91 randpp;
#X msg 703 39 1 0 0 1 0 0 0, f 1;
#X obj 903 268 s \$0-gate;
#X obj 927 289 s \$0-loop;
#X obj 993 266 s \$0-pp;
#X obj 1105 291 s \$0-latch;
#X obj 1010 287 s \$0-randcut;
#X obj 943 310 s \$0-normal;
#X obj 1062 267 s \$0-randpp;
#X obj 926 199 unpack 0 0 0 0 0 0 0;
#X obj 1079 246 nbx 1 14 -1e+37 1e+37 0 0 empty empty empty 0 -8 0
10 -262144 -1 -1 0 256;
#X msg 529 366 1 0 1 0 0 0 0, f 1;
#X msg 552 366 0 0 1 0 0 0 0, f 1;
#X msg 572 365 1 1 1 0 0 0 0, f 1;
#X msg 616 367 1 1 0 0 1 0 0, f 1;
#X msg 668 363 1 1 1 0 0 0 1, f 1;
#X msg 595 366 1 1 0 1 0 0 0, f 1;
#X msg 711 364 1 1 0 0 1 0 1, f 1;
#X msg 692 366 1 1 0 1 0 0 1, f 1;
#X msg 737 361 1 1 0 0 0 1 1, f 1;
#X msg 639 365 1 1 0 0 0 1 0, f 1;
#X msg 510 173 lp_latch;
#X msg 596 172 pp_latch;
#X msg 678 195 rc_latch;
#X msg 745 231 rpp_latch;
#X obj 397 53 sel 0 1 2 3 4 5 6 7 8 9;
#X msg 310 516 LoopStyle: \$1;
#X obj 356 575 s screenLine5;
#X obj 384 9 r samp_mode-\$1;
#X connect 0 0 4 0;
#X connect 0 0 30 0;
#X connect 1 0 4 0;
#X connect 1 0 31 0;
#X connect 2 0 4 0;
#X connect 2 0 32 0;
#X connect 3 0 4 0;
#X connect 3 0 35 0;
#X connect 4 0 45 0;
#X connect 5 0 4 0;
#X connect 5 0 33 0;
#X connect 6 0 39 0;
#X connect 6 0 4 0;
#X connect 7 0 21 0;
#X connect 8 0 22 0;
#X connect 9 0 26 0;
#X connect 10 0 23 0;
#X connect 11 0 25 0;
#X connect 12 0 27 0;
#X connect 20 0 28 0;
#X connect 28 0 7 0;
#X connect 28 1 8 0;
#X connect 28 2 9 0;
#X connect 28 3 10 0;
#X connect 28 4 11 0;
#X connect 28 5 12 0;
#X connect 28 6 29 0;
#X connect 29 0 24 0;
#X connect 30 0 28 0;
#X connect 31 0 28 0;
#X connect 32 0 28 0;
#X connect 33 0 28 0;
#X connect 34 0 28 0;
#X connect 35 0 28 0;
#X connect 36 0 28 0;
#X connect 37 0 28 0;
#X connect 38 0 28 0;
#X connect 39 0 28 0;
#X connect 40 0 4 0;
#X connect 40 0 34 0;
#X connect 41 0 4 0;
#X connect 41 0 37 0;
#X connect 42 0 4 0;
#X connect 42 0 36 0;
#X connect 43 0 4 0;
#X connect 43 0 38 0;
#X connect 44 0 0 0;
#X connect 44 1 1 0;
#X connect 44 2 2 0;
#X connect 44 3 3 0;
#X connect 44 4 5 0;
#X connect 44 5 6 0;
#X connect 44 6 40 0;
#X connect 44 7 41 0;
#X connect 44 8 42 0;
#X connect 44 9 43 0;
#X connect 45 0 46 0;
#X connect 47 0 44 0;
#X restore 41 440 pd loopstyle;
#N canvas 8 60 1345 720 panning 0;
#X obj 375 107 hsl 128 15 0 1 0 0 empty empty empty -2 -8 0 10 -262144
-1 -1 0 1;
#X obj 323 155 nbx 5 14 -1e+37 1e+37 0 0 empty empty empty 0 -8 0 10
-262144 -1 -1 1 256;
#X obj 392 158 nbx 5 14 -1e+37 1e+37 0 0 empty empty empty 0 -8 0 10
-262144 -1 -1 1 256;
#X obj 331 109 - 1;
#X obj 330 130 abs;
#X obj 282 286 outlet~;
#X obj 354 276 outlet~;
#X obj 369 81 r samp_pan-\$1;
#X obj 403 221 siglop~ 0.5;
#X obj 316 230 siglop~ 0.5;
#X obj 394 135 + 1;
#X connect 0 0 3 0;
#X connect 0 0 10 0;
#X connect 1 0 9 0;
#X connect 2 0 8 0;
#X connect 3 0 4 0;
#X connect 4 0 1 0;
#X connect 7 0 0 0;
#X connect 8 0 6 0;
#X connect 9 0 5 0;
#X connect 10 0 2 0;
#X restore 794 584 pd panning;
#X obj 775 93 bng 15 250 50 0 empty empty empty 17 7 0 10 -262144 -1
-1;
#X obj 323 166 t b a;
#X obj 883 506 * 1.2;
#X obj 543 164 nbx 5 14 -1e+37 1e+37 0 0 empty empty empty 0 -8 0 10
-262144 -1 -1 358536 256;
#X obj 332 214 list;
#X obj 539 336 phasor~;
#X obj 548 439 *~;
#X obj 533 466 +~;
#X obj 309 148 ../soundshare/soundshare_select;
#X obj 1096 271 nbx 5 14 -1e+37 1e+37 0 0 empty empty empty 0 -8 0
10 -262144 -1 -1 -15 256;
#X obj 1125 295 mtof;
#X obj 1130 315 nbx 5 14 -1e+37 1e+37 0 0 empty empty empty 0 -8 0
10 -262144 -1 -1 3.4375 256;
#X obj 1141 336 / 8.175;
#X obj 1145 360 nbx 5 14 -1e+37 1e+37 0 0 empty empty empty 0 -8 0
10 -262144 -1 -1 0.420489 256;
#X obj 976 175 * 1;
#N canvas 0 50 1364 725 pp_gen 0;
#X obj 149 155 / 2;
#X obj 181 247 *~ 2;
#X obj 190 265 -~ 1;
#X obj 196 290 abs~;
#X obj 204 314 -~ 1;
#X obj 178 339 abs~;
#X obj 201 124 r \$0-pp;
#X obj 173 370 *~ 0;
#X obj 230 146 != 1;
#X obj 172 228 phasor~;
#X obj 146 63 inlet;
#X obj 182 446 outlet~;
#X obj 429 101 inlet;
#X text 218 66 freq;
#X text 482 85 restart;
#X obj 589 90 inlet~;
#X obj 550 143 /~ 2;
#X obj 170 208 +~;
#X obj 151 187 siglop~ 0.5 \$1;
#X connect 0 0 18 0;
#X connect 1 0 2 0;
#X connect 2 0 3 0;
#X connect 3 0 4 0;
#X connect 4 0 5 0;
#X connect 5 0 7 0;
#X connect 6 0 8 0;
#X connect 6 0 7 1;
#X connect 7 0 11 0;
#X connect 9 0 1 0;
#X connect 10 0 0 0;
#X connect 12 0 9 1;
#X connect 15 0 16 0;
#X connect 16 0 17 1;
#X connect 17 0 9 0;
#X connect 18 0 17 0;
#X restore 473 370 pd pp_gen;
#N canvas 0 50 1366 725 env 0;
#X obj 396 443 vline~;
#X obj 409 68 bng 15 250 50 0 empty empty empty 17 7 0 10 -262144 -1
-1;
#X obj 386 208 f 1000;
#X obj 384 230 / 1;
#X obj 487 208 abs;
#X obj 382 270 - 25;
#X obj 445 163 spigot 1;
#X obj 493 137 r \$0-gate;
#X obj 390 295 spigot 1;
#X obj 471 294 spigot 0;
#X obj 479 256 r \$0-loop;
#X obj 437 270 != 1;
#X obj 439 116 v \$0-env;
#X msg 441 140 0 \$1;
#X obj 509 68 bng 15 250 50 0 empty empty empty 17 7 0 10 -262144 -1
-1;
#X obj 527 355 t b f;
#X obj 395 248 r \$0-env;
#X obj 526 377 v \$0-env;
#X obj 528 403 list;
#X msg 528 425 0 2 \, 1 \$1 2 \, 0 \$1 \$2;
#X obj 781 76 * 1;
#X obj 365 540 outlet~;
#X obj 380 29 inlet;
#X obj 510 33 inlet;
#X obj 774 29 inlet;
#X obj 679 30 inlet;
#X obj 626 103 * 1;
#X msg 457 231 1e+07;
#X connect 0 0 21 0;
#X connect 1 0 2 0;
#X connect 1 0 27 0;
#X connect 2 0 3 0;
#X connect 3 0 5 0;
#X connect 4 0 3 1;
#X connect 5 0 8 0;
#X connect 6 0 0 0;
#X connect 7 0 6 1;
#X connect 8 0 15 0;
#X connect 9 0 15 0;
#X connect 10 0 9 1;
#X connect 10 0 11 0;
#X connect 11 0 8 1;
#X connect 12 0 13 0;
#X connect 13 0 6 0;
#X connect 14 0 12 0;
#X connect 15 0 17 0;
#X connect 15 1 18 1;
#X connect 16 0 5 1;
#X connect 17 0 18 0;
#X connect 18 0 19 0;
#X connect 19 0 0 0;
#X connect 20 0 4 0;
#X connect 22 0 1 0;
#X connect 23 0 14 0;
#X connect 24 0 20 0;
#X connect 25 0 26 0;
#X connect 26 0 2 1;
#X connect 27 0 9 0;
#X restore 858 336 pd env;
#N canvas 0 265 1356 714 envparam 0;
#X obj 170 235;
#X obj 105 167 t f f;
#X obj 112 196 *;
#X obj 115 227 nbx 5 14 -1e+37 1e+37 0 0 empty empty empty 0 -8 0 10
-262144 -1 -1 0.00674229 256;
#X obj 101 143 * 1.4;
#X obj 81 280 s \$0-env;
#X obj 229 279 nbx 5 14 -1e+37 1e+37 0 0 empty empty empty 0 -8 0 10
-262144 -1 -1 20.2269 256;
#X obj 202 231 v \$0-env;
#X obj 119 253 * 3000;
#X obj 213 74 r samp_attack-\$1, f 17;
#X obj 106 88 hsl 40 15 0 1 0 0 empty empty empty -2 -8 0 10 -262144
-1 -1 0 1;
#X connect 1 0 2 0;
#X connect 1 1 2 1;
#X connect 2 0 3 0;
#X connect 3 0 8 0;
#X connect 4 0 1 0;
#X connect 8 0 5 0;
#X connect 8 0 6 0;
#X connect 8 0 7 0;
#X connect 9 0 4 0;
#X connect 10 0 4 0;
#X restore 164 439 pd envparam;
#X obj 770 286 r \$0-slen;
#X obj 763 312 r \$0-randcut;
#X obj 594 263 r \$0-normal;
#X obj 762 431 *~;
#X obj 939 365 r \$0-randpp;
#X obj 347 267 bng 15 250 50 0 empty empty empty 17 7 0 10 -262144
-1 -1;
#X obj 18 240 nbx 10 14 -1e+37 1e+37 0 0 empty empty empty 0 -8 0 10
-262144 -1 -1 1.1251e+06 256;
#X obj 152 352 s \$0-samplesize;
#X obj 163 241 spigot 0;
#X obj 149 328 nbx 10 14 -1e+37 1e+37 0 0 empty empty empty 0 -8 0
10 -262144 -1 -1 0 256;
#X obj 152 304 loadsample \$0-sample 882000;
#X obj 327 192 del 400;
#X floatatom 1093 405 5 0 0 0 pitch_param - -, f 5;
#X obj 313 57 r samp_select-\$1;
#X obj 1057 23 r samp_semitone-\$1;
#X obj 1144 45 r samp_cent-\$1;
#X obj 459 678 r samp_pan-\$1;
#X obj 473 660 r samp_vol-\$1;
#X obj 491 620 r samp_start-\$1;
#X obj 492 641 r samp_end-\$1;
#X obj 64 644 r samp_decay-\$1;
#X obj 472 502 r samp_modrate-\$1;
#X obj 480 522 r samp_moddepth-\$1;
#X obj 318 130 hsl 64 8 0 1 0 0 empty empty empty -2 -8 0 10 -262144
-1 -1 5259 1;
#X obj 492 557 r samp_select-\$1;
#X msg 393 208 Sample: \$1;
#X obj 1133 122 f;
#X obj 1066 144 f;
#X obj 1121 99 t b f;
#X obj 1088 179 +;
#X obj 1097 216 nbx 5 14 -1e+37 1e+37 0 0 empty empty empty 0 -8 0
10 -262144 -1 -1 -5 256;
#X obj 1125 142 / 100;
#X obj 493 579 r samp_semitone-\$1;
#X obj 493 601 r samp_cent-\$1;
#X obj 54 496 s samp_start-\$1;
#X obj 180 501 s samp_end-\$1;
#X obj 182 469 hsl 64 15 0 1 0 0 empty empty empty -2 -8 0 10 -262144
-1 -1 0 1;
#X obj 72 470 hsl 64 15 0 1 0 0 empty empty empty -2 -8 0 10 -262144
-1 -1 0 1;
#X obj 881 482 r samp_vol-\$1;
#X obj 401 241 s screenLine5;
#X obj 492 539 r samp_mode-\$1;
#X obj 85 545 s samp_mode-\$1;
#X obj 88 521 hradio 15 1 0 6 empty empty empty 0 -8 0 10 -262144 -1
-1 2;
#X obj 267 324 r samp_modrate-\$1;
#X obj 358 341 r samp_moddepth-\$1;
#X obj 319 444 *~ 0;
#X obj 390 366 hsl 64 15 0 1 0 0 empty empty empty -2 -8 0 10 -262144
-1 -1 0 1;
#X obj 398 437 *~ 0;
#X obj 345 482 s~ mod-\$1;
#X obj 710 370 randcut_mod \$1;
#X obj 848 381 randpp_mod \$1;
#N canvas 8 60 1345 714 pitch_mod 0;
#X obj 34 57 inlet;
#X obj 88 155 *~;
#X obj 180 118 r~ mod-\$1;
#X obj 79 95 r loadbang-\$1;
#X obj 125 179 snapshot~;
#X obj 61 213 t b f;
#X obj 85 189 nbx 5 14 -1e+37 1e+37 0 0 empty empty empty 0 -8 0 10
-262144 -1 -1 -0.00295001 256;
#X obj 52 233 f;
#X obj 53 261 +;
#X obj 82 136 metro 10;
#X obj 75 382 outlet;
#X obj 107 66 bng 15 250 50 0 empty empty empty 17 7 0 10 -262144 -1
-1;
#X obj 121 39 loadbang;
#X connect 0 0 1 1;
#X connect 0 0 7 0;
#X connect 1 0 4 0;
#X connect 2 0 1 0;
#X connect 3 0 9 0;
#X connect 4 0 6 0;
#X connect 5 0 7 0;
#X connect 5 1 8 1;
#X connect 6 0 5 0;
#X connect 7 0 8 0;
#X connect 8 0 10 0;
#X connect 9 0 4 0;
#X connect 11 0 9 0;
#X connect 12 0 11 0;
#X restore 936 284 pd pitch_mod;
#X obj 296 388 osc~ 0.2;
#X obj 730 28 sel 1 0;
#X obj 580 43 - 72;
#X obj 572 80 nbx 5 14 -1e+37 1e+37 0 0 empty empty empty 0 -8 0 10
-262144 -1 -1 -10 256;
#X obj 663 67 t b f;
#X obj 1106 246 +;
#X obj 655 654 snapshot~;
#X obj 657 676 nbx 5 14 -1e+37 1e+37 0 0 empty empty empty 0 -8 0 10
-262144 -1 -1 0 256;
#X obj 687 580 bng 15 250 50 0 empty empty empty 17 7 0 10 -262144
-1 -1;
#X obj 365 389 t f f;
#X obj 360 420 *;
#X obj 870 528 siglop~ 1;
#X obj 539 314 siglop~ 1 \$1;
#X obj 614 387 siglop~ 44100 \$1;
#X obj 632 432 siglop~ 0 \$1;
#X obj 757 -4 change -1;
#X obj 280 361 hsl 64 15 0.1 10 1 0 empty empty empty -2 -8 0 10 -262144
-1 -1 0 1;
#X obj 190 20 r loadbang-\$1;
#X obj 86 29 bng 15 250 50 0 empty empty empty 17 7 0 10 -262144 -1
-1;
#X obj 410 186 list;
#X obj 345 100 / 100;
#X obj 356 369 / 100;
#X obj 345 532 r samp_rc_size-\$1;
#X obj 704 258 r samp_rc_env-\$1;
#X connect 2 0 12 0;
#X connect 2 0 115 0;
#X connect 3 0 11 0;
#X connect 3 0 63 0;
#X connect 4 0 5 0;
#X connect 4 0 122 0;
#X connect 5 0 7 0;
#X connect 5 0 14 0;
#X connect 6 0 54 0;
#X connect 6 0 104 1;
#X connect 6 0 121 0;
#X connect 7 0 18 0;
#X connect 8 0 10 0;
#X connect 9 0 8 1;
#X connect 10 0 3 0;
#X connect 10 0 15 0;
#X connect 12 0 26 0;
#X connect 13 0 22 0;
#X connect 13 0 55 0;
#X connect 14 0 55 2;
#X connect 16 0 84 0;
#X connect 17 0 6 0;
#X connect 18 0 17 0;
#X connect 19 0 18 0;
#X connect 19 1 17 1;
#X connect 21 0 44 1;
#X connect 21 0 54 1;
#X connect 22 0 21 0;
#X connect 23 0 1 0;
#X connect 25 0 24 0;
#X connect 26 0 23 0;
#X connect 26 0 25 0;
#X connect 27 0 124 0;
#X connect 28 0 111 0;
#X connect 29 0 4 0;
#X connect 29 0 42 0;
#X connect 30 0 123 0;
#X connect 31 0 32 0;
#X connect 31 0 33 1;
#X connect 32 0 34 1;
#X connect 33 0 34 0;
#X connect 34 0 45 0;
#X connect 36 0 33 0;
#X connect 38 0 23 1;
#X connect 38 1 25 1;
#X connect 39 0 55 1;
#X connect 40 0 68 0;
#X connect 40 1 43 1;
#X connect 41 0 120 0;
#X connect 43 0 8 0;
#X connect 44 0 36 0;
#X connect 45 0 46 0;
#X connect 46 0 2 0;
#X connect 47 0 40 0;
#X connect 47 1 128 0;
#X connect 48 0 49 0;
#X connect 49 0 50 0;
#X connect 50 0 51 0;
#X connect 51 0 52 0;
#X connect 52 0 53 0;
#X connect 52 0 69 0;
#X connect 53 0 19 0;
#X connect 53 0 20 0;
#X connect 53 0 55 3;
#X connect 53 0 108 0;
#X connect 54 0 33 0;
#X connect 55 0 60 1;
#X connect 57 0 106 1;
#X connect 57 0 107 1;
#X connect 58 0 106 3;
#X connect 59 0 36 1;
#X connect 60 0 12 1;
#X connect 61 0 107 2;
#X connect 65 0 67 0;
#X connect 66 0 64 0;
#X connect 67 0 66 0;
#X connect 68 0 43 0;
#X connect 70 0 129 0;
#X connect 71 0 84 0;
#X connect 72 0 85 0;
#X connect 80 0 47 0;
#X connect 82 0 96 0;
#X connect 83 0 88 0;
#X connect 84 0 86 0;
#X connect 85 0 84 0;
#X connect 85 1 83 0;
#X connect 86 0 87 0;
#X connect 87 0 114 0;
#X connect 88 0 86 1;
#X connect 93 0 92 0;
#X connect 94 0 91 0;
#X connect 95 0 41 0;
#X connect 99 0 98 0;
#X connect 100 0 109 0;
#X connect 101 0 130 0;
#X connect 102 0 104 0;
#X connect 102 0 105 0;
#X connect 103 0 118 0;
#X connect 104 0 54 2;
#X connect 104 0 44 0;
#X connect 106 0 46 0;
#X connect 106 1 60 0;
#X connect 107 0 34 0;
#X connect 108 0 106 0;
#X connect 108 0 107 0;
#X connect 109 0 102 0;
#X connect 110 0 13 0;
#X connect 110 1 39 0;
#X connect 111 0 112 0;
#X connect 111 0 113 0;
#X connect 113 0 84 0;
#X connect 113 1 114 1;
#X connect 114 0 48 0;
#X connect 115 0 116 0;
#X connect 117 0 115 0;
#X connect 118 0 119 0;
#X connect 118 1 119 1;
#X connect 119 0 102 1;
#X connect 120 0 26 1;
#X connect 121 0 44 0;
#X connect 122 0 45 1;
#X connect 123 0 46 1;
#X connect 124 0 110 0;
#X connect 125 0 109 0;
#X connect 126 0 9 0;
#X connect 126 0 47 1;
#X connect 127 0 9 0;
#X connect 127 0 47 1;
#X connect 128 0 82 0;
#X connect 129 0 80 0;
#X connect 130 0 118 0;
#X connect 132 0 106 2;
