#N canvas 18 74 1345 720 10;
#X obj 785 -15 hsl 128 15 0 1000 0 0 empty empty empty -2 -8 0 10 -262144
-1 -1 0 1;
#X obj 576 11 nbx 5 14 -1e+037 1e+037 0 0 empty empty empty 0 -8 0
10 -262144 -1 -1 0 256;
#X obj 649 35 hsl 128 15 -10 10 0 0 empty empty empty -2 -8 0 10 -262144
-1 -1 0 1;
#X obj 735 77 nbx 5 14 -1e+037 1e+037 0 0 empty empty empty 0 -8 0
10 -262144 -1 -1 0 256;
#X obj 789 35 nbx 5 14 -1e+037 1e+037 0 0 empty empty empty 0 -8 0
10 -262144 -1 -1 0 256;
#X msg 827 77 0.5;
#X obj 209 252 lop~ 4000;
#X obj 874 241 hsl 128 15 0 3 0 0 empty empty empty -2 -8 0 10 -262144
-1 -1 0 1;
#N canvas 8 60 1345 708 del 1;
#X obj 293 318 *~;
#X obj 347 433 *~;
#X obj 290 249 phasor~ 3.01;
#X obj 532 207 inlet~;
#X obj 365 497 outlet~;
#X obj 270 187 inlet~;
#X obj 582 280 noise~;
#X obj 557 324 lop~ 0.5;
#X obj 270 365 +~ 10;
#X obj 397 364 +~;
#X obj 381 312 *~ -1;
#X obj 564 626 outlet~;
#X obj 535 459 expr~ tanh(8*$v1*(1-$v1));
#X obj 284 396 vd~ del_line-\$1;
#X connect 0 0 10 0;
#X connect 1 0 4 0;
#X connect 2 0 0 0;
#X connect 2 0 12 0;
#X connect 3 0 0 1;
#X connect 3 0 9 1;
#X connect 5 0 2 0;
#X connect 6 0 7 0;
#X connect 7 0 2 0;
#X connect 8 0 13 0;
#X connect 9 0 8 0;
#X connect 10 0 9 0;
#X connect 12 0 1 1;
#X connect 12 0 11 0;
#X connect 13 0 1 0;
#X restore 860 154 pd del;
#N canvas 8 60 1345 708 del 0;
#X obj 293 318 *~;
#X obj 347 433 *~;
#X obj 290 249 phasor~ 3.01;
#X obj 532 207 inlet~;
#X obj 394 532 outlet~;
#X obj 270 187 inlet~;
#X obj 582 280 noise~;
#X obj 557 324 lop~ 0.5;
#X obj 270 365 +~ 10;
#X obj 397 364 +~;
#X obj 381 312 *~ -1;
#X obj 485 480 expr~ tanh(8*$v1*(1-$v1));
#X obj 284 396 vd~ del_line-\$1;
#X connect 0 0 10 0;
#X connect 1 0 4 0;
#X connect 2 0 0 0;
#X connect 2 0 11 0;
#X connect 3 0 0 1;
#X connect 3 0 9 1;
#X connect 5 0 2 0;
#X connect 6 0 7 0;
#X connect 7 0 2 0;
#X connect 8 0 12 0;
#X connect 9 0 8 0;
#X connect 10 0 9 0;
#X connect 11 0 1 1;
#X connect 12 0 1 0;
#X restore 818 189 pd del;
#N canvas 0 50 1345 708 del 0;
#X obj 293 318 *~;
#X obj 347 433 *~;
#X obj 290 249 phasor~ 3.01;
#X obj 532 207 inlet~;
#X obj 272 498 outlet~;
#X obj 270 187 inlet~;
#X obj 582 280 noise~;
#X obj 557 324 lop~ 0.5;
#X obj 270 365 +~ 10;
#X obj 397 364 +~;
#X obj 381 312 *~ -1;
#X obj 487 479 expr~ tanh(8*$v1*(1-$v1));
#X obj 365 497 outlet~;
#X obj 324 397 vd~ del_line-\$1;
#X connect 0 0 10 0;
#X connect 1 0 4 0;
#X connect 2 0 0 0;
#X connect 2 0 11 0;
#X connect 3 0 0 1;
#X connect 3 0 9 1;
#X connect 5 0 2 0;
#X connect 6 0 7 0;
#X connect 7 0 2 0;
#X connect 8 0 12 0;
#X connect 8 0 13 0;
#X connect 9 0 8 0;
#X connect 10 0 9 0;
#X connect 11 0 1 1;
#X connect 13 0 1 0;
#X restore 748 178 pd del;
#X obj 910 90 lop~ 5;
#X obj 654 252 +~;
#X obj 643 276 *~ 0.01;
#X obj 658 124 sig~ 1;
#X obj 120 146 +~;
#X obj 866 33 sig~ 1000;
#X obj 227 299 *~ 0.5;
#X obj 277 298 *~ 0.5;
#X obj 237 276 freeverb~;
#X msg 230 87 roomsize \$1;
#X msg 361 94 damping \$1;
#X obj 373 71 hsl 60 18 0 2 0 1 empty empty damping 2 9 1 12 -261689
-1 -1 813 0;
#X obj 242 64 hsl 60 18 0.11 1.1 0 1 empty empty roomsize 2 9 1 12
-261689 -1 -1 5300 0;
#X obj 137 21 inlet~;
#X obj 31 18 inlet~;
#X obj 81 638 outlet~;
#X obj 187 642 outlet~;
#X obj 574 398 r shim_drywet-\$1;
#X obj 236 580 c_xfade;
#X obj 92 603 c_xfade;
#X obj 527 488 sig~ 0.5;
#X obj 474 28 r shim_shift-\$1;
#X obj 488 66 sel 0 1 2 3 4 5;
#X msg 460 99 1;
#X msg 491 100 -3;
#X msg 524 101 0.5;
#X msg 557 101 -2.5;
#X obj 387 -12 r shim_revdamp-\$1;
#X obj 226 3 r shim_revsize-\$1;
#X obj 720 239 r shim_feedback-\$1;
#X obj 730 279 *;
#X obj 724 262 t f f;
#X obj 264 413 c_xfade;
#X obj 311 385 sig~ 0.5;
#X obj 321 362 r shim_pmix-\$1;
#X obj 220 227 c_xfade;
#X obj 313 229 c_xfade;
#X obj 316 253 lop~ 4000;
#X obj 398 219 r shim_revfilt-\$1;
#X obj 348 134 r shim_revmix-\$1;
#X obj 293 439 lop~ 4000;
#X obj 378 407 r shim_pfilt-\$1;
#X obj 656 305 hip~ 3;
#X obj 104 536 *~ 0.8;
#X obj 234 536 *~ 0.8;
#X obj 341 174 sig~ 0.5;
#X obj 298 118 nbx 5 14 -1e+037 1e+037 0 0 empty empty empty 0 -8 0
10 -262144 -1 -1 0 256;
#X obj 894 342 sel 0 1 2 3 4 5;
#X msg 845 408 +1oct;
#X msg 895 424 +1oct reverse;
#X msg 965 407 +7;
#X msg 998 394 +7 rev;
#X msg 606 90 0.33333;
#X msg 1065 420 +5;
#X obj 897 298 r shim_shift-\$1;
#X obj 1085 310 bng 15 250 50 0 empty empty empty 17 7 0 10 -262144
-1 -1;
#X obj 879 466 s screenLine5;
#X obj 301 33 / 100;
#X obj 289 467 delwrite~ del_line-\$1 2000;
#X connect 0 0 1 0;
#X connect 0 0 16 0;
#X connect 2 0 3 0;
#X connect 2 0 14 0;
#X connect 4 0 14 0;
#X connect 5 0 14 0;
#X connect 6 0 19 0;
#X connect 7 0 13 1;
#X connect 8 0 12 0;
#X connect 9 0 12 0;
#X connect 10 0 12 0;
#X connect 11 0 8 1;
#X connect 11 0 9 1;
#X connect 11 0 10 1;
#X connect 12 0 13 0;
#X connect 13 0 53 0;
#X connect 14 0 9 0;
#X connect 14 0 8 0;
#X connect 14 0 10 0;
#X connect 15 0 43 0;
#X connect 16 0 11 0;
#X connect 17 0 43 1;
#X connect 17 0 54 0;
#X connect 18 0 43 1;
#X connect 18 0 55 0;
#X connect 19 0 17 0;
#X connect 19 1 18 0;
#X connect 20 0 19 0;
#X connect 21 0 19 0;
#X connect 22 0 21 0;
#X connect 23 0 20 0;
#X connect 24 0 15 0;
#X connect 24 0 29 0;
#X connect 24 0 47 0;
#X connect 25 0 15 0;
#X connect 25 0 30 0;
#X connect 25 0 46 0;
#X connect 28 0 31 0;
#X connect 29 0 27 0;
#X connect 30 0 26 0;
#X connect 31 0 29 2;
#X connect 31 0 30 2;
#X connect 32 0 33 0;
#X connect 33 0 34 0;
#X connect 33 1 35 0;
#X connect 33 2 36 0;
#X connect 33 3 37 0;
#X connect 33 4 63 0;
#X connect 34 0 14 0;
#X connect 35 0 14 0;
#X connect 36 0 14 0;
#X connect 37 0 14 0;
#X connect 38 0 22 0;
#X connect 39 0 68 0;
#X connect 40 0 42 0;
#X connect 41 0 13 1;
#X connect 42 0 41 0;
#X connect 42 1 41 1;
#X connect 43 0 51 0;
#X connect 44 0 43 2;
#X connect 45 0 44 0;
#X connect 46 0 6 0;
#X connect 47 0 48 0;
#X connect 48 0 19 1;
#X connect 49 0 48 1;
#X connect 49 0 6 1;
#X connect 50 0 56 0;
#X connect 51 0 69 0;
#X connect 52 0 51 1;
#X connect 53 0 47 1;
#X connect 53 0 46 1;
#X connect 54 0 30 1;
#X connect 55 0 29 1;
#X connect 56 0 47 2;
#X connect 56 0 46 2;
#X connect 58 0 59 0;
#X connect 58 1 60 0;
#X connect 58 2 61 0;
#X connect 58 3 62 0;
#X connect 58 4 64 0;
#X connect 59 0 67 0;
#X connect 60 0 67 0;
#X connect 61 0 67 0;
#X connect 62 0 67 0;
#X connect 63 0 14 0;
#X connect 64 0 67 0;
#X connect 65 0 58 0;
#X connect 65 0 66 0;
#X connect 68 0 57 0;
#X connect 68 0 20 0;
