#N canvas 1402 354 263 552 10;
#X obj 156 178 t f f;
#X obj 172 201 del;
#X obj 40 74 t b b b;
#X obj 40 299 line~;
#X obj 40 520 outlet~;
#X obj 40 207 / 100;
#X obj 40 405 *~;
#X obj 58 376 osc~ 60;
#X obj 156 223 / 4;
#X obj 40 321 *~;
#X obj 40 343 *~;
#X obj 156 138 * 14;
#X obj 40 471 hip~ 20;
#X obj 40 449 hip~ 20;
#X obj 181 7 inlet;
#X obj 40 493 *~ 0.7;
#X obj 181 29 * -1;
#X obj 181 51 + 1;
#X obj 156 158 + 3;
#X obj 181 95 + 1;
#X obj 181 73 * 30;
#X obj 40 427 lop~ 3000;
#X obj 40 96 t b b;
#X obj 72 163 + 0.5;
#X obj 40 229 pack f f;
#X msg 40 257 \$1 \, 0 \$2;
#X obj 72 141 / 15;
#X obj 72 119 random 100;
#X obj 156 118 random 100;
#X obj 40 187 random 100;
#X obj 40 53 r loadbang-\$1;
#X connect 0 0 8 0;
#X connect 0 1 1 1;
#X connect 1 0 2 0;
#X connect 2 0 22 0;
#X connect 2 1 1 0;
#X connect 2 2 28 0;
#X connect 3 0 9 0;
#X connect 3 0 9 1;
#X connect 5 0 24 0;
#X connect 6 0 21 0;
#X connect 7 0 6 1;
#X connect 8 0 7 0;
#X connect 9 0 10 0;
#X connect 9 0 10 1;
#X connect 10 0 6 0;
#X connect 11 0 18 0;
#X connect 12 0 15 0;
#X connect 13 0 12 0;
#X connect 14 0 16 0;
#X connect 15 0 4 0;
#X connect 16 0 17 0;
#X connect 17 0 20 0;
#X connect 18 0 0 0;
#X connect 19 0 11 1;
#X connect 20 0 19 0;
#X connect 21 0 13 0;
#X connect 22 0 29 0;
#X connect 22 1 27 0;
#X connect 23 0 24 1;
#X connect 24 0 25 0;
#X connect 25 0 3 0;
#X connect 26 0 23 0;
#X connect 27 0 26 0;
#X connect 28 0 11 0;
#X connect 29 0 5 0;
#X connect 30 0 2 0;
