#N canvas 933 132 761 652 10;
#X obj 304 186 r notesIn-\$1;
#X obj 304 431 s notesOut-\$1;
#X obj 23 9 r loaddefs-\$1;
#X msg 23 76 loaddefinitions \$1;
#X obj 181 9 r loadbang-\$1;
#X obj 181 76 print loading definiton for \$1;
#X obj 23 41 symbol;
#X obj 25 186 inlet~ inL-\$1;
#X obj 135 186 inlet~ inR-\$1;
#X obj 27 601 outlet~ outL-\$1;
#X obj 167 601 outlet~ outR-\$1;
#X obj 596 162 r auxIn-\$1;
#X obj 595 185 r expIn-\$1;
#X obj 595 210 r fsIn-\$1;
#X obj 23 112 KontrolModule \$1 F-dust;
#X obj 181 45 print loaded:dust into \$1, f 35;
#X obj 25 231 delwrite~ pitchL 200;
#X obj 135 209 delwrite~ pitchR 200;
#X obj 43 437 osc~ 2;
#X obj 43 503 vd~ pitchL;
#X obj 245 489 vd~ pitchR;
#X obj 43 459 +~ 1;
#X obj 43 481 *~;
#X obj 245 417 osc~ 2;
#X obj 245 439 +~ 1;
#X obj 245 461 *~;
#X obj 123 378 * 10;
#X msg 268 367 0;
#X msg 205 256 \$1 11;
#X obj 255 254 * 5;
#X text 278 234 rate;
#X text 76 380 depth;
#X obj 123 422 sig~;
#X obj 123 444 lop~ 70;
#X obj 123 400 + 0.5;
#N canvas 421 411 223 302 oscDrift 0;
#X msg 37 200 \$1 \$2;
#X obj 37 179 pack f f;
#X obj 98 156 t f f;
#X obj 114 179 del;
#X obj 37 54 t b b b;
#X obj 37 220 line~;
#X obj 98 136 + 33;
#X obj 37 240 outlet~;
#X obj 98 116 * 77;
#X obj 37 95 / 600;
#X obj 98 96 random 100;
#X obj 37 75 random 100;
#X obj 37 33 r loadbang-\$1;
#X connect 0 0 5 0;
#X connect 1 0 0 0;
#X connect 2 0 1 1;
#X connect 2 1 3 1;
#X connect 3 0 4 0;
#X connect 4 0 11 0;
#X connect 4 1 3 0;
#X connect 4 2 10 0;
#X connect 5 0 7 0;
#X connect 6 0 2 0;
#X connect 8 0 6 0;
#X connect 9 0 1 0;
#X connect 10 0 8 0;
#X connect 11 0 9 0;
#X connect 12 0 4 0;
#X restore 223 302 pd oscDrift;
#X obj 205 326 +~;
#X obj 205 278 line~;
#X obj 255 276 + 0.1;
#N canvas 4 77 252 500 backgndNoise~ 0;
#X obj 52 440 outlet~;
#X obj 60 25 noise~;
#X obj 60 69 hip~ 30;
#X obj 52 402 *~;
#X obj 51 134 samphold~;
#X obj 60 91 *~ 1;
#X obj 76 181 samphold~;
#X obj 60 47 lop~ 1000;
#X obj 51 156 *~ 0.5;
#X obj 52 279 +~;
#X obj 52 345 *~ 0.33;
#X obj 70 378 inlet~;
#X obj 111 106 phasor~ 7777;
#X obj 136 153 phasor~ 22;
#X obj 52 301 hip~ 77;
#X obj 76 247 hip~ 60;
#X obj 76 225 hip~ 40;
#X obj 76 203 lop~ 4000;
#X obj 52 323 lop~ 6000;
#X connect 1 0 7 0;
#X connect 2 0 5 0;
#X connect 3 0 0 0;
#X connect 4 0 8 0;
#X connect 5 0 4 0;
#X connect 5 0 6 0;
#X connect 6 0 17 0;
#X connect 7 0 2 0;
#X connect 8 0 9 0;
#X connect 9 0 14 0;
#X connect 10 0 3 0;
#X connect 11 0 3 1;
#X connect 12 0 4 1;
#X connect 13 0 6 1;
#X connect 14 0 18 0;
#X connect 15 0 9 1;
#X connect 16 0 15 0;
#X connect 17 0 16 0;
#X connect 18 0 10 0;
#X restore 388 352 pd backgndNoise~;
#X obj 388 306 sig~;
#X obj 388 328 lop~ 88;
#X obj 467 288 t f f f f f;
#X obj 575 313 min 1;
#X obj 575 291 + 0.17;
#X obj 575 269 * 2;
#X msg 575 335 \$1 15;
#X obj 575 357 line~;
#X obj 467 253 t f f;
#X obj 388 243 r noise-\$1;
#X obj 205 234 r rate-\$1;
#X obj 123 333 r depth-\$1;
#X obj 388 264 / 100;
#X obj 123 356 / 100;
#X obj 467 233 / 100;
#X obj 562 479 +~;
#X obj 449 479 +~;
#X obj 388 285 + 0.02;
#X obj 43 549 +~;
#X obj 245 545 +~;
#X obj 245 567 saturate~ 0.3;
#X obj 43 571 saturate~ 0.3;
#X text 281 589 cc \, by \; kyle werle \; may 2018 \;;
#X text 515 242 pyramid constructors;
#X text 343 565 geodesic growth;
#X obj 276 126 cnv 15 15 15 empty empty DUST 20 12 0 32 -262144 -66577
0;
#X obj 554 420 *~ 0.7;
#X obj 484 421 *~ 0.5;
#X obj 622 419 *~ 0.5;
#X obj 413 422 *~;
#X obj 484 442 *~;
#X obj 554 441 *~;
#X obj 622 440 *~;
#X obj 691 419 *~;
#X obj 467 182 r dust-density-\$1;
#X obj 268 345 r loadbang-\$1;
#X obj 413 401 dust~ \$1;
#X obj 484 400 dust~ \$1;
#X obj 554 399 dust~ \$1;
#X obj 622 398 dust~ \$1;
#X obj 691 398 dust~ \$1;
#X connect 0 0 1 0;
#X connect 2 0 6 0;
#X connect 2 0 5 0;
#X connect 3 0 14 0;
#X connect 4 0 15 0;
#X connect 6 0 3 0;
#X connect 7 0 16 0;
#X connect 8 0 17 0;
#X connect 18 0 21 0;
#X connect 19 0 58 0;
#X connect 20 0 59 0;
#X connect 21 0 22 0;
#X connect 22 0 19 0;
#X connect 23 0 24 0;
#X connect 24 0 25 0;
#X connect 25 0 20 0;
#X connect 26 0 34 0;
#X connect 27 0 23 1;
#X connect 27 0 18 1;
#X connect 28 0 37 0;
#X connect 29 0 38 0;
#X connect 32 0 33 0;
#X connect 33 0 22 1;
#X connect 33 0 25 1;
#X connect 34 0 32 0;
#X connect 35 0 36 1;
#X connect 36 0 18 0;
#X connect 36 0 23 0;
#X connect 37 0 36 0;
#X connect 39 0 56 0;
#X connect 39 0 55 0;
#X connect 40 0 41 0;
#X connect 41 0 39 0;
#X connect 42 0 76 0;
#X connect 42 1 77 0;
#X connect 42 2 78 0;
#X connect 42 3 79 0;
#X connect 42 4 80 0;
#X connect 43 0 46 0;
#X connect 44 0 43 0;
#X connect 45 0 44 0;
#X connect 46 0 47 0;
#X connect 47 0 73 1;
#X connect 47 0 72 1;
#X connect 47 0 71 1;
#X connect 47 0 70 1;
#X connect 47 0 69 1;
#X connect 48 0 42 0;
#X connect 48 1 45 0;
#X connect 49 0 52 0;
#X connect 50 0 28 0;
#X connect 51 0 53 0;
#X connect 52 0 57 0;
#X connect 53 0 26 0;
#X connect 54 0 48 0;
#X connect 55 0 59 1;
#X connect 56 0 58 1;
#X connect 57 0 40 0;
#X connect 58 0 61 0;
#X connect 59 0 60 0;
#X connect 60 0 10 0;
#X connect 61 0 9 0;
#X connect 66 0 71 0;
#X connect 67 0 70 0;
#X connect 68 0 72 0;
#X connect 69 0 56 0;
#X connect 70 0 56 1;
#X connect 71 0 56 1;
#X connect 71 0 55 0;
#X connect 72 0 55 0;
#X connect 73 0 55 1;
#X connect 74 0 54 0;
#X connect 75 0 27 0;
#X connect 76 0 69 0;
#X connect 77 0 67 0;
#X connect 78 0 66 0;
#X connect 79 0 68 0;
#X connect 80 0 73 0;
