#N canvas 839 451 398 244 10;
#X obj 71 60 inlet~;
#X obj 212 39 inlet;
#X obj 71 185 outlet~;
#X msg 212 59 \$1 30;
#X obj 212 79 line~;
#X obj 139 21 loadbang;
#X obj 212 98 +~ 1;
#X obj 71 145 expr~ tanh($v1*$v2*1.07);
#X obj 139 43 \$1;
#X connect 0 0 7 0;
#X connect 1 0 3 0;
#X connect 3 0 4 0;
#X connect 4 0 6 0;
#X connect 5 0 8 0;
#X connect 6 0 7 1;
#X connect 7 0 2 0;
#X connect 8 0 3 0;
