#N canvas 0 50 1364 726 10;
#X obj 304 186 r notesIn-\$1;
#X obj 304 491 s notesOut-\$1;
#X obj 23 9 r loaddefs-\$1;
#X msg 23 76 loaddefinitions \$1;
#X obj 181 9 r loadbang-\$1;
#X obj 181 76 print loading definiton for \$1;
#X obj 23 41 symbol;
#X obj 25 186 inlet~ inL-\$1;
#X obj 135 186 inlet~ inR-\$1;
#X obj 27 491 outlet~ outL-\$1;
#X obj 136 491 outlet~ outR-\$1;
#X obj 424 185 r auxIn-\$1;
#X obj 423 208 r expIn-\$1;
#X obj 423 233 r fsIn-\$1;
#N canvas 209 96 1364 725 synth 1;
#X obj 16 108 pack 0 0 0, f 11;
#X obj 16 134 route 1 2 3 4 5 6 7 8, f 81;
#X text 365 112 aircraft carrier;
#X obj 232 233 *~ 0.3;
#X obj 16 81 poly 8 1, f 11;
#X obj 238 384 outlet~;
#X obj 16 55 inlet;
#X obj 233 315 hip~ 5;
#X obj 296 162 bp-voice \$1;
#X obj 86 199 bp-voice \$1;
#X obj 16 162 bp-voice \$1;
#X obj 158 163 bp-voice \$1;
#X obj 227 188 bp-voice \$1;
#X obj 368 194 bp-voice \$1;
#X obj 439 166 bp-voice \$1;
#X obj 508 193 bp-voice \$1;
#X obj 294 299 r ms_volume-\$1;
#X obj 285 351 *~ 1;
#X obj 580 267 hsl 128 15 0 100 0 0 empty empty empty -2 -8 0 10 -262144
-1 -1 12700 1;
#X obj 314 327 / 25;
#X connect 0 0 1 0;
#X connect 1 0 10 0;
#X connect 1 1 9 0;
#X connect 1 2 11 0;
#X connect 1 3 12 0;
#X connect 1 4 8 0;
#X connect 1 5 13 0;
#X connect 1 6 14 0;
#X connect 1 7 15 0;
#X connect 3 0 7 0;
#X connect 4 0 0 0;
#X connect 4 1 0 1;
#X connect 4 2 0 2;
#X connect 6 0 4 0;
#X connect 7 0 17 0;
#X connect 8 0 3 0;
#X connect 9 0 3 0;
#X connect 10 0 3 0;
#X connect 11 0 3 0;
#X connect 12 0 3 0;
#X connect 13 0 3 0;
#X connect 14 0 3 0;
#X connect 15 0 3 0;
#X connect 16 0 19 0;
#X connect 17 0 5 0;
#X connect 18 0 19 0;
#X connect 19 0 17 1;
#X restore 142 319 pd synth;
#X text 446 35 C&G basic polyphonic patch with 8 voices;
#X obj 29 406 +~;
#X obj 137 407 +~;
#X obj 181 36 print loaded:modalsyn into \$1, f 35;
#X obj 23 111 KontrolModule \$1 S-modalsyn;
#X obj 58 276 ../../../../in_tester;
#X obj 174 392 C:/users/alexd_000/Documents/PD/out_tester;
#X msg 785 96 500;
#X msg 882 101 5000;
#X msg 930 104 3000;
#X msg 831 101 1500;
#X obj 883 188 s ms_q-0;
#X obj 527 303 r ms_m1_coarse-\$1;
#X obj 567 325 r ms_m1_fine-\$1;
#X obj 595 380 / 100;
#X obj 563 412 +;
#X obj 568 354 t b f;
#X obj 538 385 f 1;
#X obj 551 446 s ms_m1-\$1;
#X obj 773 390 / 100;
#X obj 741 422 +;
#X obj 746 364 t b f;
#X obj 716 395 f 1;
#X obj 922 385 / 100;
#X obj 890 417 +;
#X obj 895 359 t b f;
#X obj 865 390 f 1;
#X obj 1100 395 / 100;
#X obj 1068 427 +;
#X obj 1073 369 t b f;
#X obj 1043 400 f 1;
#X obj 705 313 r ms_m2_coarse-\$1;
#X obj 748 333 r ms_m2_fine-\$1;
#X obj 729 456 s ms_m2-\$1;
#X obj 854 308 r ms_m3_coarse-\$1;
#X obj 894 331 r ms_m3_fine-\$1;
#X obj 845 497 s ms_m3-\$1;
#X obj 1031 319 r ms_m4_coarse-\$1;
#X obj 1073 339 r ms_m4_fine-\$1;
#X obj 1057 461 s ms_m4-\$1;
#X obj 597 203 nbx 5 14 -1e+037 1e+037 0 0 empty empty empty 0 -8 0
10 -262144 -1 -1 126 256;
#X obj 855 438 nbx 5 14 -1e+037 1e+037 0 0 empty empty empty 0 -8 0
10 -262144 -1 -1 0 256;
#X obj 907 481 s ms_m3-0;
#X connect 0 0 1 0;
#X connect 0 0 14 0;
#X connect 2 0 6 0;
#X connect 2 0 5 0;
#X connect 3 0 19 0;
#X connect 4 0 18 0;
#X connect 6 0 3 0;
#X connect 7 0 16 0;
#X connect 8 0 17 0;
#X connect 14 0 17 1;
#X connect 14 0 16 1;
#X connect 14 0 21 0;
#X connect 14 0 21 1;
#X connect 16 0 9 0;
#X connect 17 0 10 0;
#X connect 20 2 14 0;
#X connect 22 0 26 0;
#X connect 23 0 26 0;
#X connect 24 0 26 0;
#X connect 25 0 26 0;
#X connect 27 0 32 0;
#X connect 28 0 31 0;
#X connect 29 0 30 1;
#X connect 30 0 33 0;
#X connect 31 0 32 0;
#X connect 31 1 29 0;
#X connect 32 0 30 0;
#X connect 34 0 35 1;
#X connect 35 0 48 0;
#X connect 36 0 37 0;
#X connect 36 1 34 0;
#X connect 37 0 35 0;
#X connect 38 0 39 1;
#X connect 39 0 51 0;
#X connect 40 0 41 0;
#X connect 40 1 38 0;
#X connect 41 0 39 0;
#X connect 42 0 43 1;
#X connect 43 0 54 0;
#X connect 44 0 45 0;
#X connect 44 1 42 0;
#X connect 45 0 43 0;
#X connect 46 0 37 0;
#X connect 47 0 36 0;
#X connect 49 0 41 0;
#X connect 50 0 40 0;
#X connect 52 0 45 0;
#X connect 53 0 44 0;
#X connect 55 0 48 0;
#X connect 56 0 51 0;
#X connect 56 0 57 0;
