#N canvas 24 7 1366 546 10;
#X obj 304 186 r notesIn-\$1;
#X obj 300 557 s notesOut-\$1;
#X obj 23 9 r loaddefs-\$1;
#X msg 23 76 loaddefinitions \$1;
#X obj 181 9 r loadbang-\$1;
#X obj 181 76 print loading definiton for \$1;
#X obj 23 41 symbol;
#X obj 25 186 inlet~ inL-\$1;
#X obj 135 186 inlet~ inR-\$1;
#X obj 17 543 outlet~ outL-\$1;
#X obj 158 539 outlet~ outR-\$1;
#X obj 424 185 r auxIn-\$1;
#X obj 423 208 r expIn-\$1;
#X obj 423 233 r fsIn-\$1;
#X obj 350 480 env/env_parabolic \$1;
#X obj 181 35 print loaded:envelope into \$1, f 35;
#X obj 23 112 KontrolModule \$1 F-envelope;
#X obj 230 461 *~;
#X obj 58 486 *~;
#X obj 260 304 *~ 100;
#X obj 310 330 /~ 100;
#X obj 404 443 spigot 1;
#X msg 311 403 1;
#X msg 387 397 0;
#X obj 496 306 poly 1 1;
#X obj 534 359 > 0;
#X obj 573 432 spigot 0;
#X obj 529 414 == 0;
#X obj 596 375 r midi-\$1;
#X obj 312 367 threshold~ 10 50 9 50;
#X obj 344 299 r threshold-\$1;
#X msg 587 511 0;
#X obj 648 432 change -1;
#X obj 259 259 abs~;
#X obj 259 281 lop~ 20;
#X obj 258 236 hip~ 5;
#X connect 0 0 1 0;
#X connect 0 0 24 0;
#X connect 2 0 6 0;
#X connect 2 0 5 0;
#X connect 3 0 16 0;
#X connect 4 0 15 0;
#X connect 6 0 3 0;
#X connect 7 0 18 0;
#X connect 7 0 35 0;
#X connect 8 0 17 0;
#X connect 8 0 35 0;
#X connect 14 0 17 1;
#X connect 14 0 18 1;
#X connect 17 0 10 0;
#X connect 18 0 9 0;
#X connect 19 0 20 0;
#X connect 20 0 29 0;
#X connect 21 0 14 0;
#X connect 22 0 21 0;
#X connect 23 0 21 0;
#X connect 24 2 25 0;
#X connect 25 0 26 0;
#X connect 26 0 14 0;
#X connect 27 0 21 1;
#X connect 28 0 27 0;
#X connect 28 0 26 1;
#X connect 28 0 32 0;
#X connect 29 0 22 0;
#X connect 29 1 23 0;
#X connect 30 0 20 1;
#X connect 31 0 14 0;
#X connect 32 0 31 0;
#X connect 33 0 34 0;
#X connect 34 0 19 0;
#X connect 35 0 33 0;
