#N canvas 28 91 1345 720 10;
#X obj 222 165 r notesIn-\$1;
#X obj 304 491 s notesOut-\$1;
#X obj 23 9 r loaddefs-\$1;
#X msg 23 76 loaddefinitions \$1;
#X obj 181 9 r loadbang-\$1;
#X obj 181 77 print loading definiton for \$1;
#X obj 23 41 symbol;
#X obj 25 186 inlet~ inL-\$1;
#X obj 135 186 inlet~ inR-\$1;
#X obj 27 491 outlet~ outL-\$1;
#X obj 136 491 outlet~ outR-\$1;
#X obj 307 326 fluid~;
#X obj 185 38 print loaded:sfplayer into \$1, f 35;
#X obj 23 112 KontrolModule \$1 S-sfplayer;
#X obj 340 378 *~ 0.7;
#X obj 427 380 *~ 0.7;
#X obj 563 305 r sf_vol-\$1;
#X obj 458 229 r sf_select-\$1;
#X obj 466 264 / 100;
#X obj 419 307 sfshare_select;
#X obj 548 356 print;
#X connect 2 0 6 0;
#X connect 2 0 5 0;
#X connect 3 0 13 0;
#X connect 4 0 12 0;
#X connect 6 0 3 0;
#X connect 7 0 9 0;
#X connect 8 0 10 0;
#X connect 14 0 9 0;
#X connect 15 0 10 0;
#X connect 16 0 15 1;
#X connect 16 0 14 1;
#X connect 17 0 18 0;
#X connect 18 0 19 0;
#X connect 19 0 20 0;
