#N canvas 253 123 450 300 10;
#X obj 96 226 outlet~;
#X obj 77 115 sig~;
#X obj 69 62 r \$2-\$1;
#X obj 152 61 r \$2_lfo-\$1;
#X obj 180 151 *~ 0;
#X obj 204 113 / 100;
#X obj 172 179 *~ 1;
#X obj 271 117 *~ -1;
#X obj 96 179 +~;
#X text 73 23 \$2 and \$2_lfo \, outputs signal with lfo;
#X obj 238 61 r~ rcrsv-lfo-\$1;
#X connect 1 0 8 0;
#X connect 2 0 1 0;
#X connect 2 0 6 1;
#X connect 3 0 5 0;
#X connect 4 0 6 0;
#X connect 5 0 4 1;
#X connect 6 0 8 1;
#X connect 7 0 4 0;
#X connect 8 0 0 0;
#X connect 10 0 7 0;
