#N canvas -8 -8 1366 725 10;
#X obj 23 9 r loaddefs-\$1;
#X msg 23 76 loaddefinitions \$1;
#X obj 181 9 r loadbang-\$1;
#X obj 181 76 print loading definiton for \$1;
#X obj 23 41 symbol;
#X obj 25 186 inlet~ inL-\$1;
#X obj 136 181 inlet~ inR-\$1;
#X obj 18 703 outlet~ outL-\$1;
#X obj 149 704 outlet~ outR-\$1;
#X obj 460 91 r auxIn-\$1;
#X obj 552 78 r expIn-\$1;
#X obj 552 103 r fsIn-\$1;
#X obj 23 114 KontrolModule \$1 S-rcrsv;
#X obj 181 46 print loaded:rcrsv into \$1, f 35;
#X obj 459 14 r notesIn-\$1;
#X obj 458 35 s notesOut-\$1;
#X obj 311 307 delwrite~ rcrsv-\$1 8000;
#X obj 150 617 *~ 1;
#X obj 40 621 *~ 1;
#X obj 54 568 / 100;
#X obj 247 166 noise~;
#X obj 258 235 *~;
#X obj 295 201 lop~ 2;
#X obj 305 175 sig~ 1;
#X obj 252 199 *~ 0;
#X obj 323 260 *~ 1;
#X obj 389 279 +~;
#N canvas 8 60 550 439 allpass 0;
#X obj 153 70 inlet~;
#X obj 140 363 outlet~;
#X obj 128 166 rpole~;
#X obj 128 141 rzero_rev~;
#X obj 128 215 rpole~;
#X obj 128 190 rzero_rev~;
#X obj 128 263 rpole~;
#X obj 128 238 rzero_rev~;
#X obj 128 312 rpole~;
#X obj 128 287 rzero_rev~;
#X obj 250 51 lfo_param \$1 rcrsv_ap;
#X connect 0 0 3 0;
#X connect 2 0 5 0;
#X connect 3 0 2 0;
#X connect 4 0 7 0;
#X connect 5 0 4 0;
#X connect 6 0 9 0;
#X connect 7 0 6 0;
#X connect 8 0 1 0;
#X connect 9 0 8 0;
#X connect 10 0 3 1;
#X connect 10 0 2 1;
#X connect 10 0 5 1;
#X connect 10 0 4 1;
#X connect 10 0 7 1;
#X connect 10 0 6 1;
#X connect 10 0 9 1;
#X connect 10 0 8 1;
#X restore 251 468 pd allpass;
#X obj 206 377 *~ 0;
#X obj 120 570 / 100;
#X obj 114 599 *~ 1;
#X obj 289 558 *~ 0.5;
#X obj 359 500 / 100;
#X obj 180 451 vcf~ 1;
#X obj 306 153 / 100;
#X obj 528 208 +~ 1;
#X obj 529 232 *~ 0.5;
#X obj 527 186 osc~ 1;
#X obj 527 162 r rcrsv_lfof-\$1;
#X obj 187 340 / 100;
#X obj 372 220 / 100;
#X obj 298 133 r rcrsv_noise-\$1;
#X obj 364 200 r rcrsv_in-\$1;
#X obj 179 321 r rcrsv_byp-\$1;
#X obj 317 431 r rcrsv_res-\$1;
#X obj 367 474 r rcrsv_fb-\$1;
#X obj 17 545 r rcrsv_dry-\$1;
#X obj 128 544 r rcrsv_wet-\$1;
#X obj 528 263 s~ rcrsv-lfo-\$1;
#X obj 308 373 vd~ rcrsv-\$1;
#X obj 317 407 lfo_param \$1 rcrsv_lp;
#X obj 468 576 lop~ 3000;
#X obj 229 521 +~;
#X obj 198 492 *~ 1.778;
#N canvas 0 50 1366 725 delcalc 0;
#X obj 139 420 outlet~;
#X obj 77 115 sig~;
#X obj 180 151 *~ 0;
#X obj 204 113 / 100;
#X obj 172 179 *~ 1;
#X obj 271 117 *~ -1;
#X obj 124 303 +~;
#X text 73 23 \$2 and \$2_lfo \, outputs signal with lfo;
#X obj 302 75 r~ rcrsv-lfo-\$1;
#X obj 26 54 r rcrsv_del-\$1;
#X obj 152 61 r rcrsv_del_lfo-\$1;
#X obj 516 86 / 523.251;
#X obj 517 36 mtof;
#X obj 508 180 /;
#X msg 494 146 1;
#X obj 533 128 t b f;
#X obj 504 204 nbx 5 14 -1e+037 1e+037 0 0 empty empty empty 0 -8 0
10 -262144 -1 -1 0 256;
#X obj 491 386 vline~;
#X msg 572 339 \$1 \$1;
#X obj 565 313 list;
#X obj 507 17 nbx 5 14 -1e+037 1e+037 0 0 empty empty empty 0 -8 0
10 -262144 -1 -1 0 256;
#X obj 147 366 *~;
#X obj 637 264 sel 0;
#X obj 554 277 spigot 0;
#X obj 591 435 r loadbang-\$1;
#X msg 648 362 1 100;
#X obj 473 411 lop~ 5;
#X obj 558 296 min 8000;
#X obj 448 3 inlet;
#X obj 632 218 r rcrsv_midinote_\$1;
#X connect 1 0 6 0;
#X connect 2 0 4 0;
#X connect 3 0 2 1;
#X connect 4 0 6 1;
#X connect 5 0 2 0;
#X connect 6 0 21 0;
#X connect 8 0 5 0;
#X connect 9 0 1 0;
#X connect 9 0 4 1;
#X connect 10 0 3 0;
#X connect 11 0 15 0;
#X connect 12 0 11 0;
#X connect 13 0 16 0;
#X connect 14 0 13 0;
#X connect 15 0 14 0;
#X connect 15 1 13 1;
#X connect 16 0 23 0;
#X connect 17 0 26 0;
#X connect 18 0 17 0;
#X connect 19 0 18 0;
#X connect 20 0 12 0;
#X connect 21 0 0 0;
#X connect 22 0 25 0;
#X connect 23 0 27 0;
#X connect 24 0 25 0;
#X connect 25 0 17 0;
#X connect 26 0 21 1;
#X connect 27 0 19 0;
#X connect 28 0 20 0;
#X connect 29 0 22 0;
#X connect 29 0 23 1;
#X restore 467 359 pd delcalc;
#X obj 334 668;
#X obj 533 337 nbx 5 14 -1e+037 1e+037 0 0 empty empty empty 0 -8 0
10 -262144 -1 -1 0 256;
#X obj 616 332 nbx 5 14 -1e+037 1e+037 0 0 empty empty empty 0 -8 0
10 -262144 -1 -1 0 256;
#X obj 537 305 notein_mono;
#X obj 757 379 spigot 0;
#X obj 830 462 sig~ 1;
#X obj 632 218 r rcrsv_midigate_\$1;
#X obj 820 302 sel 0;
#X obj 854 366 1;
#X obj 823 554 lop~ 5;
#X connect 0 0 4 0;
#X connect 0 0 3 0;
#X connect 1 0 12 0;
#X connect 2 0 13 0;
#X connect 4 0 1 0;
#X connect 5 0 18 0;
#X connect 5 0 21 0;
#X connect 6 0 17 0;
#X connect 6 0 21 0;
#X connect 14 0 15 0;
#X connect 14 0 58 0;
#X connect 17 0 8 0;
#X connect 18 0 7 0;
#X connect 19 0 17 1;
#X connect 19 0 18 1;
#X connect 20 0 24 0;
#X connect 21 0 25 0;
#X connect 21 0 28 0;
#X connect 22 0 21 1;
#X connect 23 0 22 0;
#X connect 24 0 21 0;
#X connect 25 0 26 0;
#X connect 26 0 16 0;
#X connect 28 0 33 0;
#X connect 29 0 30 1;
#X connect 30 0 8 0;
#X connect 30 0 7 0;
#X connect 31 0 26 1;
#X connect 32 0 31 1;
#X connect 33 1 53 0;
#X connect 34 0 24 1;
#X connect 35 0 36 0;
#X connect 36 0 48 0;
#X connect 37 0 35 0;
#X connect 38 0 37 0;
#X connect 39 0 28 1;
#X connect 40 0 25 1;
#X connect 41 0 34 0;
#X connect 42 0 40 0;
#X connect 43 0 39 0;
#X connect 44 0 33 2;
#X connect 45 0 32 0;
#X connect 46 0 19 0;
#X connect 47 0 29 0;
#X connect 49 0 33 0;
#X connect 49 0 27 0;
#X connect 49 0 51 0;
#X connect 50 0 33 1;
#X connect 52 0 31 0;
#X connect 52 0 30 0;
#X connect 53 0 52 0;
#X connect 54 0 49 0;
#X connect 56 0 54 0;
#X connect 57 0 59 0;
#X connect 58 0 56 0;
#X connect 58 1 57 0;
#X connect 59 0 60 0;
#X connect 60 0 64 0;
#X connect 61 0 62 0;
#X connect 61 0 59 1;
#X connect 62 0 63 0;
