#N canvas -7 0 681 716 10;
#X obj 23 9 r loaddefs-\$1;
#X msg 23 76 loaddefinitions \$1;
#X obj 181 9 r loadbang-\$1;
#X obj 181 76 print loading definiton for \$1;
#X obj 23 41 symbol;
#X obj 25 186 inlet~ inL-\$1;
#X obj 136 181 inlet~ inR-\$1;
#X obj 23 592 outlet~ outL-\$1;
#X obj 154 593 outlet~ outR-\$1;
#X obj 460 91 r auxIn-\$1;
#X obj 552 78 r expIn-\$1;
#X obj 552 103 r fsIn-\$1;
#X obj 23 114 KontrolModule \$1 S-rcrsv;
#X obj 181 46 print loaded:rcrsv into \$1, f 35;
#X obj 459 14 r notesIn-\$1;
#X obj 458 35 s notesOut-\$1;
#X obj 350 348 delwrite~ rcrsv-\$1 8000;
#X obj 346 363 delread4~ rcrsv-\$1;
#X obj 155 506 *~ 1;
#X obj 45 510 *~ 1;
#X obj 22 434 r rcsrv_dry-\$1;
#X obj 59 457 / 100;
#X obj 247 166 noise~;
#X obj 258 235 *~;
#X obj 295 201 lop~ 2;
#X obj 305 175 sig~ 1;
#X obj 252 199 *~ 0;
#X obj 323 277 *~ 1;
#X obj 350 322 +~;
#X obj 267 372 vcf~;
#N canvas 0 50 450 300 allpass 0;
#X obj 188 143 inlet~;
#X obj 194 204 outlet~;
#X connect 0 0 1 0;
#X restore 269 413 pd allpass;
#X obj 253 329 *~ 0;
#X obj 125 459 / 100;
#X obj 133 433 r rcsrv_wet-\$1;
#X obj 119 488 *~ 1;
#X obj 274 454 *~ 0.5;
#X obj 369 433 / 100;
#X obj 377 407 r rcsrv_fb-\$1;
#X connect 0 0 4 0;
#X connect 0 0 3 0;
#X connect 1 0 12 0;
#X connect 2 0 13 0;
#X connect 4 0 1 0;
#X connect 5 0 19 0;
#X connect 5 0 23 0;
#X connect 6 0 18 0;
#X connect 6 0 23 0;
#X connect 14 0 15 0;
#X connect 17 0 29 0;
#X connect 18 0 8 0;
#X connect 19 0 7 0;
#X connect 20 0 21 0;
#X connect 21 0 18 1;
#X connect 21 0 19 1;
#X connect 22 0 26 0;
#X connect 23 0 27 0;
#X connect 23 0 31 0;
#X connect 24 0 23 1;
#X connect 25 0 24 0;
#X connect 26 0 23 0;
#X connect 27 0 28 0;
#X connect 28 0 16 0;
#X connect 29 0 30 0;
#X connect 30 0 34 0;
#X connect 30 0 35 0;
#X connect 31 0 29 0;
#X connect 32 0 34 1;
#X connect 33 0 32 0;
#X connect 34 0 8 0;
#X connect 34 0 7 0;
#X connect 35 0 28 1;
#X connect 36 0 35 1;
#X connect 37 0 36 0;
