#N canvas 579 174 1004 596 10;
#X obj 279 77 osc~ 440;
#X obj 460 433 vd~ \$0-delay;
#X obj 210 423 delwrite~ \$0-delay 4000;
#X obj 468 359 vline~;
#X obj 454 521 *~ 0.1;
#X obj 477 567 dac~;
#X msg 467 129 1000 1000;
#X msg 598 179 500 500;
#X obj 148 -3;
#X msg 545 92 2000 2000;
#X msg 613 224 750 750;
#X msg 510 153 4000 4000;
#X obj 462 391 lop~ 4;
#X obj 725 108 mtof;
#X obj 736 80 nbx 5 14 -1e+037 1e+037 0 0 empty empty empty 0 -8 0
10 -262144 -1 -1 -77 256;
#X obj 716 145 nbx 5 14 -1e+037 1e+037 0 0 empty empty empty 0 -8 0
10 -262144 -1 -1 0.095702 256;
#X obj 728 227 /;
#X msg 714 193 1;
#X obj 753 175 t b f;
#X obj 719 313 nbx 5 14 -1e+037 1e+037 0 0 empty empty empty 0 -8 0
10 -262144 -1 -1 1044.91 256;
#X obj 726 277 * 100;
#X msg 665 332 \$1 \$1;
#X obj 754 374 list;
#X msg 666 47 -84;
#X msg 833 43 -72;
#X obj 338 485 *~ 0.8;
#X msg 753 47 -77;
#X connect 0 0 2 0;
#X connect 0 0 4 0;
#X connect 1 0 4 0;
#X connect 1 0 25 0;
#X connect 3 0 12 0;
#X connect 4 0 5 0;
#X connect 4 0 5 1;
#X connect 6 0 3 0;
#X connect 7 0 3 0;
#X connect 9 0 3 0;
#X connect 10 0 3 0;
#X connect 11 0 3 0;
#X connect 12 0 1 0;
#X connect 13 0 15 0;
#X connect 14 0 13 0;
#X connect 15 0 18 0;
#X connect 16 0 20 0;
#X connect 17 0 16 0;
#X connect 18 0 17 0;
#X connect 18 1 16 1;
#X connect 19 0 22 0;
#X connect 20 0 19 0;
#X connect 21 0 3 0;
#X connect 22 0 21 0;
#X connect 23 0 14 0;
#X connect 24 0 14 0;
#X connect 25 0 2 0;
#X connect 26 0 14 0;
