#N canvas 170 121 1531 923 10;
#X obj 680 488 r notesIn-\$1;
#X obj 490 673 s notesOut-\$1;
#X obj 23 9 r loaddefs-\$1;
#X msg 23 76 loaddefinitions \$1;
#X obj 181 9 r loadbang-\$1;
#X obj 181 76 print loading definiton for \$1;
#X obj 23 41 symbol;
#X obj 25 186 inlet~ inL-\$1;
#X obj 155 186 inlet~ inR-\$1;
#X obj 27 491 outlet~ outL-\$1;
#X obj 156 491 outlet~ outR-\$1;
#X obj 636 452 r auxIn-\$1;
#X obj 423 208 r expIn-\$1;
#X obj 423 233 r fsIn-\$1;
#X text 595 38 Sequencer2: A simple sequencer Module.;
#X text 584 108 uses the input aux button to start / stop / record
a sequence. Only two inputs needed: (r seq2-\$1-aux) and (r seq2-\$1-notes-in)
, f 43;
#X obj 23 112 KontrolModule \$1 U-seq2;
#X obj 171 28 print loaded:seq2 into \$1, f 35;
#X obj 582 350 s aux-label-\$1;
#X obj 749 276 s aux-led-\$1;
#N canvas 546 180 906 682 seq-control 0;
#X obj 139 238 outlet;
#X obj 65 121 t b;
#X msg 65 143 2;
#X obj 298 126 t b;
#X msg 298 148 3;
#X obj 501 70 r cgSc-1-aux;
#X obj 501 92 sel 1;
#X msg 501 193 1;
#X obj 598 70 r seq3-1-actions;
#X obj 598 94 sel 3;
#X msg 598 116 1;
#X obj 501 144 spigot 0;
#X obj 501 166 t b b;
#X msg 603 162 0;
#X text 437 5 when aux is pressed after recording starts immediatley
end the rec and play the loop;
#X obj 170 70 sel 0;
#X obj 202 94 t b;
#X msg 202 116 1;
#X obj 33 66 r cgSc-1-2;
#X obj 171 48 r cgSc-1-1;
#X obj 266 72 r cgSc-1-3;
#X obj 33 88 sel 0;
#X obj 266 99 sel 0;
#X obj 171 316 r seq3-1-actions;
#X obj 171 338 sel 1, f 12;
#X obj 252 361 t b, f 4;
#X obj 171 449 s cgSc-1-1label;
#X obj 331 322 r seq3-1-actions;
#X obj 412 367 t b, f 4;
#X msg 331 413 Rec:Armd;
#X msg 412 412 Rec:On;
#X obj 331 343 sel 2 3, f 12;
#X msg 483 412 Rec:Off;
#X obj 587 323 r seq3-1-actions;
#X obj 668 368 t b, f 4;
#X obj 587 344 sel 4, f 12;
#X msg 668 413 Latch:Off;
#X msg 587 413 Latch:On;
#X obj 331 455 s cgSc-1-2label;
#X obj 587 456 s cgSc-1-3label;
#X msg 171 407 Seq:Play;
#X msg 252 406 Seq:Stop;
#X text 375 283 print to the shortcut menu;
#X obj 359 159 f 0;
#X obj 330 3 r midi-start;
#X msg 330 25 4;
#X obj 373 110 r midi-stop;
#X obj 359 136 r loadbang-\$1;
#X connect 1 0 2 0;
#X connect 2 0 0 0;
#X connect 3 0 4 0;
#X connect 4 0 0 0;
#X connect 5 0 6 0;
#X connect 6 0 11 0;
#X connect 7 0 0 0;
#X connect 8 0 9 0;
#X connect 9 0 10 0;
#X connect 10 0 11 1;
#X connect 11 0 12 0;
#X connect 12 0 7 0;
#X connect 12 1 13 0;
#X connect 13 0 11 1;
#X connect 15 1 16 0;
#X connect 16 0 17 0;
#X connect 17 0 0 0;
#X connect 18 0 21 0;
#X connect 19 0 15 0;
#X connect 20 0 22 0;
#X connect 21 1 1 0;
#X connect 22 1 3 0;
#X connect 23 0 24 0;
#X connect 24 0 40 0;
#X connect 24 1 25 0;
#X connect 25 0 41 0;
#X connect 27 0 31 0;
#X connect 28 0 32 0;
#X connect 29 0 38 0;
#X connect 30 0 38 0;
#X connect 31 0 29 0;
#X connect 31 1 30 0;
#X connect 31 2 28 0;
#X connect 32 0 38 0;
#X connect 33 0 35 0;
#X connect 34 0 36 0;
#X connect 35 0 37 0;
#X connect 35 1 34 0;
#X connect 36 0 39 0;
#X connect 37 0 39 0;
#X connect 40 0 26 0;
#X connect 41 0 26 0;
#X connect 43 0 0 0;
#X connect 44 0 45 0;
#X connect 45 0 0 0;
#X connect 46 0 43 0;
#X connect 47 0 43 0;
#X restore 782 513 pd seq-control;
#X obj 669 558 s \$0-muter;
#X obj 998 523 r saveState;
#X msg 928 491 read /tmp/patch/seq.txt;
#X msg 998 545 write /tmp/patch/seq.txt;
#X obj 490 459 r master-ticks;
#X obj 749 247 r seq3-1-led;
#X obj 582 162 r seq3-1-line5;
#X obj 582 315 route list;
#X obj 582 243 list append;
#X obj 582 184 t b a;
#X msg 582 206 1;
#X obj 582 265 route 1;
#X obj 730 417 sel 0;
#X obj 582 293 list prepend Sequence:;
#X obj 490 616 seq3 1 1 \$1, f 63;
#X obj 928 469 r loadbang-\$1;
#X obj 636 527 shortcut 1 \$1;
#X obj 489 490 * 15;
#X obj 489 520 i, f 4;
#X obj 489 573 clockfix;
#X obj 730 444 del 1;
#X connect 0 0 37 1;
#X connect 0 0 1 0;
#X connect 2 0 6 0;
#X connect 2 0 5 0;
#X connect 3 0 16 0;
#X connect 4 0 17 0;
#X connect 6 0 3 0;
#X connect 7 0 9 0;
#X connect 8 0 10 0;
#X connect 11 0 33 0;
#X connect 11 0 37 0;
#X connect 20 0 35 2;
#X connect 22 0 24 0;
#X connect 23 0 35 3;
#X connect 24 0 35 3;
#X connect 25 0 38 0;
#X connect 26 0 19 0;
#X connect 27 0 30 0;
#X connect 28 0 18 0;
#X connect 29 0 32 0;
#X connect 30 0 31 0;
#X connect 30 1 29 1;
#X connect 31 0 29 0;
#X connect 32 0 34 0;
#X connect 33 0 41 0;
#X connect 34 0 28 0;
#X connect 35 0 1 0;
#X connect 36 0 23 0;
#X connect 37 0 35 1;
#X connect 37 1 21 0;
#X connect 38 0 39 0;
#X connect 39 0 40 0;
#X connect 40 0 35 0;
#X connect 41 0 31 0;
