#N canvas 263 50 1534 925 10;
#X obj 311 781 outlet;
#N canvas 241 50 1524 881 states 0;
#X obj 226 17 inlet;
#X msg 1180 222 stop;
#X msg 1121 221 0;
#X text 1156 223 =;
#X text 1156 253 =;
#X msg 1121 251 1;
#X msg 1180 252 start;
#X text 1156 283 =;
#X msg 1121 281 2;
#X msg 1180 282 recenable;
#X text 125 516 when something is recorded switch the variable to 3
;
#X text 1156 313 =;
#X msg 1120 311 3;
#X msg 1180 312 record;
#X text 1156 343 =;
#X msg 1120 341 4;
#X msg 1179 341 latch on;
#X text 112 580 latch off is simply in all of these \, eg right outlet
of select;
#X obj 129 660 r cg-midi-start;
#X obj 129 733 t f f, f 17;
#X obj 129 764 v seq3-\$1-state;
#X obj 245 764 s seq3-\$1-actions;
#X obj 129 682 t b;
#X msg 129 704 1;
#X obj 379 730 t f f, f 17;
#X obj 379 764 v seq3-\$1-state;
#X obj 495 764 s seq3-\$1-actions;
#X obj 379 682 t b;
#X obj 379 659 r cg-midi-stop;
#X msg 379 705 0;
#X text 533 14 the states controlled by the new shortcut approach;
#X obj 226 407 t f f;
#X obj 226 449 v seq3-\$1-state;
#X obj 258 429 s seq3-\$1-actions;
#X text 285 14 Controls State with 0-4;
#X obj 291 295 v seq3-\$1-state;
#X msg 226 127 0;
#X msg 291 361 0;
#X msg 365 376 1;
#X obj 423 323 v seq3-\$1-state;
#X obj 423 352 sel 4, f 14;
#X obj 518 381 t b;
#X msg 518 403 4;
#X obj 423 444 t f f;
#X obj 423 486 v seq3-\$1-state;
#X obj 455 466 s seq3-\$1-actions;
#X msg 423 377 0;
#X obj 291 317 sel 1, f 14;
#X obj 365 353 t b;
#X obj 357 130 v seq3-\$1-state;
#X obj 357 152 sel 2, f 7;
#X msg 357 175 0;
#X obj 403 175 t b;
#X obj 357 223 t f f;
#X obj 357 265 v seq3-\$1-state;
#X obj 389 245 s seq3-\$1-actions;
#X msg 403 198 2;
#X text 449 164 if 2 is on turn off \, otherwise turn on 2;
#X obj 1020 561 t b b b, f 22;
#X msg 1037 633 stop;
#X obj 1156 766 f 0;
#X obj 1142 625 sel 0 1 2 3 4, f 21;
#X msg 1142 647 0;
#X msg 1174 669 3;
#X msg 1211 663 6;
#X msg 1286 694 1;
#X msg 1260 659 4;
#X msg 1095 594 7;
#X obj 1020 663 del 50;
#X obj 1020 491 spigot;
#X obj 1095 797 f 0;
#X obj 1059 461 r seq3-\$1-actions;
#X obj 1142 603 r seq3-\$1-actions;
#X obj 1096 817 s seq3-\$1-led;
#X obj 569 184 v seq3-\$1-state;
#X obj 664 242 t b;
#X obj 569 305 t f f;
#X obj 569 347 v seq3-\$1-state;
#X obj 601 327 s seq3-\$1-actions;
#X obj 569 213 sel 1, f 14;
#X msg 569 238 1;
#X msg 664 264 1;
#X obj 1216 449 sel 0 1 2 3 4, f 21;
#X msg 1216 471 0;
#X msg 1248 493 3;
#X msg 1285 487 6;
#X msg 1316 502 1;
#X msg 1334 483 4;
#X obj 1216 427 r seq3-\$1-actions;
#X obj 1216 532 s seq3-\$1-led;
#X obj 1020 421 sel 0;
#X obj 1020 513 spigot \$2;
#X text 341 52 0 stops everything \, 1 is play toggle \, 2 is rec enabled
\, 3 is latch toggle \, 4 play and if playing keep playing \, 5 toggle
quantize;
#X obj 226 105 sel 0 1 2 3 4 5, f 84;
#X obj 760 284 t f f;
#X obj 792 306 s seq3-\$1-quan;
#X obj 760 326 v seq3-\$1-quan;
#X obj 760 154 v seq3-\$1-quan;
#X obj 760 196 sel 0 1;
#X msg 760 218 1;
#X msg 791 218 0;
#X obj 1091 485 r seq3-\$1-quan;
#X obj 835 246 \$2;
#X obj 1020 399 r \$0-beat-clock;
#X obj 835 224 r loadbang-\$3;
#X connect 0 0 93 0;
#X connect 18 0 22 0;
#X connect 19 0 20 0;
#X connect 19 1 21 0;
#X connect 22 0 23 0;
#X connect 23 0 19 0;
#X connect 24 0 25 0;
#X connect 24 1 26 0;
#X connect 27 0 29 0;
#X connect 28 0 27 0;
#X connect 29 0 24 0;
#X connect 31 0 32 0;
#X connect 31 1 33 0;
#X connect 35 0 47 0;
#X connect 36 0 31 0;
#X connect 37 0 31 0;
#X connect 38 0 31 0;
#X connect 39 0 40 0;
#X connect 40 0 46 0;
#X connect 40 1 41 0;
#X connect 41 0 42 0;
#X connect 42 0 43 0;
#X connect 43 0 44 0;
#X connect 43 1 45 0;
#X connect 46 0 43 0;
#X connect 47 0 37 0;
#X connect 47 1 48 0;
#X connect 48 0 38 0;
#X connect 49 0 50 0;
#X connect 50 0 51 0;
#X connect 50 1 52 0;
#X connect 51 0 53 0;
#X connect 52 0 56 0;
#X connect 53 0 54 0;
#X connect 53 1 55 0;
#X connect 56 0 53 0;
#X connect 58 0 68 0;
#X connect 58 1 67 0;
#X connect 58 2 59 0;
#X connect 59 0 68 0;
#X connect 60 0 70 0;
#X connect 61 0 62 0;
#X connect 61 1 63 0;
#X connect 61 2 64 0;
#X connect 61 3 65 0;
#X connect 61 4 66 0;
#X connect 62 0 60 1;
#X connect 62 0 70 0;
#X connect 63 0 60 1;
#X connect 64 0 60 1;
#X connect 65 0 60 1;
#X connect 66 0 60 1;
#X connect 67 0 70 0;
#X connect 68 0 60 0;
#X connect 69 0 91 0;
#X connect 70 0 73 0;
#X connect 71 0 69 1;
#X connect 72 0 61 0;
#X connect 74 0 79 0;
#X connect 75 0 81 0;
#X connect 76 0 77 0;
#X connect 76 1 78 0;
#X connect 79 0 80 0;
#X connect 79 1 75 0;
#X connect 80 0 76 0;
#X connect 81 0 76 0;
#X connect 82 0 83 0;
#X connect 82 1 84 0;
#X connect 82 2 85 0;
#X connect 82 3 86 0;
#X connect 82 4 87 0;
#X connect 83 0 89 0;
#X connect 84 0 89 0;
#X connect 85 0 89 0;
#X connect 86 0 89 0;
#X connect 87 0 89 0;
#X connect 88 0 82 0;
#X connect 90 0 69 0;
#X connect 91 0 58 0;
#X connect 93 0 36 0;
#X connect 93 1 35 0;
#X connect 93 2 49 0;
#X connect 93 3 39 0;
#X connect 93 4 74 0;
#X connect 93 5 97 0;
#X connect 94 0 96 0;
#X connect 94 1 95 0;
#X connect 97 0 98 0;
#X connect 98 0 99 0;
#X connect 98 1 100 0;
#X connect 99 0 94 0;
#X connect 100 0 94 0;
#X connect 101 0 91 1;
#X connect 102 0 94 0;
#X connect 103 0 90 0;
#X connect 104 0 102 0;
#X restore 695 93 pd states;
#X obj 695 67 inlet aux;
#X obj 519 234 r seq3-\$1-actions;
#X obj 519 256 sel 2, f 12;
#X obj 269 84 t a a;
#N canvas 9 50 1183 836 countem 0;
#X obj 443 416 s seq3-\$1-count-notes;
#X obj 346 183 inlet;
#X obj 440 380 + 1;
#X msg 402 333 -1;
#X msg 445 333 1;
#X obj 364 303 t b b;
#X obj 364 394 max 0;
#X obj 424 302 t b b;
#X obj 346 205 unpack 0 0;
#X obj 413 231 sel 0;
#X obj 364 372 f 0;
#X connect 1 0 8 0;
#X connect 2 0 10 1;
#X connect 2 0 0 0;
#X connect 3 0 2 1;
#X connect 4 0 2 1;
#X connect 5 0 10 0;
#X connect 5 1 3 0;
#X connect 6 0 2 0;
#X connect 7 0 10 0;
#X connect 7 1 4 0;
#X connect 8 1 9 0;
#X connect 9 0 5 0;
#X connect 9 1 7 0;
#X connect 10 0 6 0;
#X restore 301 109 pd countem;
#X obj 269 161 t a a;
#X obj 301 190 s \$0-pass;
#X obj 269 62 inlet notes, f 17;
#X obj 16 446 r seq3-\$1-actions;
#X floatatom 16 468 5 0 0 0 - - -, f 5;
#X text 4 11 arg 1: unique number;
#X text 694 115 state control;
#X text 393 108 count the incoming notes;
#X text 329 172 incoming notes get passed to the outlet;
#X text 6 425 heads up display of states;
#X msg 1115 510 quantize-length \$1;
#X obj 269 257 seq-format-event note;
#X msg 719 440 play;
#X msg 795 439 play-sync;
#N canvas 14 50 468 388 flush-stuck-notes 0;
#X obj 167 212 bag;
#X msg 203 161 flush;
#X msg 160 254 \$1 0;
#X obj 124 157 t a a;
#X obj 137 354 outlet;
#X obj 101 22 inlet;
#X obj 258 20 inlet;
#X obj 238 107 bang;
#X obj 114 102 route note;
#X obj 248 61 route end stop;
#X obj 232 338 outlet other messages;
#X connect 0 0 2 0;
#X connect 1 0 0 0;
#X connect 2 0 4 0;
#X connect 3 0 4 0;
#X connect 3 1 0 0;
#X connect 5 0 8 0;
#X connect 6 0 9 0;
#X connect 7 0 1 0;
#X connect 8 0 3 0;
#X connect 8 1 10 0;
#X connect 9 0 7 0;
#X connect 9 1 7 0;
#X restore 311 664 pd flush-stuck-notes;
#X text 594 554 beat clock \, events \, controls in;
#X text 496 614 events and status out;
#X text 1136 486 round seq length to multiple of beats;
#X text 1243 443 loop or not;
#X obj 400 503 r \$0-events-in;
#X obj 269 327 s \$0-events-in;
#X msg 1193 441 loop 1;
#X obj 1115 412 f \$2;
#X obj 656 231 r seq3-\$1-actions;
#X obj 834 326 tgl 15 0 empty empty empty 17 7 0 10 -262144 -1 -1 1
1;
#X obj 719 412 spigot;
#X obj 795 411 spigot;
#X text 861 326 lock start to beat;
#X obj 723 309 t b;
#X obj 795 367 ==;
#X obj 834 244 sel 0 1 2, f 28;
#X msg 834 266 0;
#X msg 898 293 1;
#X text 956 195 see the quantize stuff for the global quantize options
with arg2;
#X text 1046 250 0 = no q at all. 1+2 wait for beat to start seq;
#X obj 1115 536 s \$0-arg-2-seq;
#X obj 490 553 r \$0-arg-2-seq;
#X obj 719 486 s \$0-arg-2-seq;
#X obj 519 353 s \$0-arg-2-seq;
#N canvas 10 50 1276 866 auto-knobs 0;
#X obj 435 470 s seq3-\$1-k1;
#X obj 771 398 s seq3-\$1-k4;
#X obj 679 426 s seq3-\$1-k3;
#X obj 547 448 s seq3-\$1-k2;
#X obj 435 181 inlet;
#X text 849 417 <--- drop these as receives in the parent patches knobs!
;
#X obj 435 295 route knob1 knob2 knob3 knob4, f 64;
#X connect 4 0 6 0;
#X connect 6 0 0 0;
#X connect 6 1 3 0;
#X connect 6 2 2 0;
#X connect 6 3 1 0;
#X restore 448 744 pd auto-knobs;
#X obj 338 724 r \$0-pass;
#X obj 490 659 sel end rec, f 34;
#X obj 607 714 t f f;
#X obj 607 756 v seq3-\$1-state;
#X obj 639 736 s seq3-\$1-actions;
#X msg 607 692 3;
#X obj 490 633 symbol;
#X obj 719 354 t b b b;
#X obj 656 270 sel 0 1 3, f 10;
#X msg 653 437 stop;
#X obj 935 69 inlet save and recall;
#X obj 935 95 s \$0-arg-2-seq;
#X msg 519 303 arm;
#X text 4 31 arg 2: 0 no sync \, 1 sync;
#X obj 15 56 inlet beat-clock;
#X obj 15 78 s \$0-beat-clock;
#X obj 311 471 r \$0-beat-clock;
#X obj 1003 629 r seq3-\$1-actions;
#X obj 1003 651 sel 0 1 2 3 4 5, f 28;
#X msg 1003 673 Off;
#X msg 1037 677 Playing;
#X msg 1115 714 Armed;
#X msg 1111 690 Recording;
#X obj 1055 797 s seq3-\$1-line5;
#X obj 834 182 f \$2;
#X obj 834 146 r loadbang-\$3;
#X obj 1194 359 r loadbang-\$3;
#X obj 311 599 seq seq\$1 \$3, f 26;
#X obj 542 597 print;
#X msg 1193 577 quantize-length 1;
#X connect 2 0 1 0;
#X connect 3 0 4 0;
#X connect 4 0 59 0;
#X connect 5 0 7 0;
#X connect 5 1 6 0;
#X connect 7 0 18 0;
#X connect 7 1 8 0;
#X connect 9 0 5 0;
#X connect 10 0 11 0;
#X connect 17 0 42 0;
#X connect 18 0 27 0;
#X connect 19 0 44 0;
#X connect 20 0 44 0;
#X connect 21 0 0 0;
#X connect 21 1 46 0;
#X connect 26 0 74 1;
#X connect 28 0 42 0;
#X connect 29 0 17 0;
#X connect 30 0 55 0;
#X connect 31 0 36 0;
#X connect 31 0 33 1;
#X connect 32 0 19 0;
#X connect 33 0 20 0;
#X connect 35 0 56 0;
#X connect 36 0 32 1;
#X connect 37 0 38 0;
#X connect 37 1 39 0;
#X connect 37 2 39 0;
#X connect 38 0 31 0;
#X connect 39 0 31 0;
#X connect 43 0 74 2;
#X connect 43 0 75 0;
#X connect 47 0 0 0;
#X connect 48 1 52 0;
#X connect 49 0 50 0;
#X connect 49 1 51 0;
#X connect 52 0 49 0;
#X connect 53 0 48 0;
#X connect 54 0 32 0;
#X connect 54 1 33 0;
#X connect 55 0 35 0;
#X connect 55 1 54 0;
#X connect 55 3 35 0;
#X connect 56 0 44 0;
#X connect 57 0 58 0;
#X connect 59 0 45 0;
#X connect 61 0 62 0;
#X connect 63 0 74 0;
#X connect 64 0 65 0;
#X connect 65 0 66 0;
#X connect 65 1 67 0;
#X connect 65 2 68 0;
#X connect 65 3 69 0;
#X connect 66 0 70 0;
#X connect 67 0 70 0;
#X connect 68 0 70 0;
#X connect 69 0 70 0;
#X connect 71 0 37 0;
#X connect 72 0 71 0;
#X connect 73 0 28 0;
#X connect 73 0 29 0;
#X connect 74 0 21 0;
#X connect 74 1 21 1;
#X connect 74 1 53 0;
#X connect 76 0 42 0;
