#N canvas 142 50 1680 936 10;
#N canvas 12 50 867 431 latch 0;
#X text 482 130 THE LATCH!;
#X msg 523 237 1;
#X msg 555 237 0;
#X obj 428 95 inlet;
#X obj 428 313 outlet;
#X obj 523 192 sel 4;
#X obj 555 212 t b;
#N canvas 8 50 759 486 latch-notes 0;
#N canvas 1010 59 817 631 latcher 0;
#X obj 220 378 bag;
#X msg 317 311 flush;
#X obj 169 81 t a a, f 17;
#X obj 285 257 t a b;
#X obj 169 44 inlet;
#X obj 285 475 outlet;
#X obj 443 58 inlet;
#X obj 285 126 stripnote;
#X obj 285 228 pack, f 9;
#X obj 443 142 t b;
#X obj 169 103 unpack;
#X obj 169 156 swap;
#X obj 169 198 pack;
#X obj 169 220 route 0;
#X obj 220 400 pack 1 0;
#X obj 169 241 pack 0 100;
#X connect 0 0 14 0;
#X connect 1 0 0 0;
#X connect 2 0 10 0;
#X connect 2 1 7 0;
#X connect 3 0 5 0;
#X connect 3 1 1 0;
#X connect 4 0 2 0;
#X connect 6 0 9 0;
#X connect 7 0 8 0;
#X connect 7 1 8 1;
#X connect 8 0 3 0;
#X connect 9 0 1 0;
#X connect 10 0 11 0;
#X connect 10 1 11 1;
#X connect 11 0 12 0;
#X connect 11 1 12 1;
#X connect 12 0 13 0;
#X connect 13 0 15 0;
#X connect 14 0 5 0;
#X connect 15 0 0 0;
#X restore 43 413 pd latcher;
#X obj 173 298 spigot 1;
#X obj 43 298 spigot 0;
#X obj 226 272 == 0;
#X obj 193 134 inlet;
#X obj 43 626 outlet;
#X obj 43 106 inlet;
#X text 241 135 bang enable / disables latch;
#X text 44 53 incoming notes get sent through latch if enabled \, or
directly to output if disabled;
#X obj 309 298 b;
#X obj 193 159 t f f b, f 17;
#X connect 0 0 5 0;
#X connect 1 0 5 0;
#X connect 2 0 0 0;
#X connect 3 0 1 1;
#X connect 4 0 10 0;
#X connect 6 0 2 0;
#X connect 6 0 1 0;
#X connect 9 0 0 1;
#X connect 10 0 2 1;
#X connect 10 1 3 0;
#X connect 10 2 9 0;
#X restore 428 270 pd latch-notes;
#X obj 523 167 r seq3-\$1-actions;
#X connect 1 0 7 1;
#X connect 2 0 7 1;
#X connect 3 0 7 0;
#X connect 5 0 1 0;
#X connect 5 1 6 0;
#X connect 6 0 2 0;
#X connect 7 0 4 0;
#X connect 8 0 5 0;
#X restore 47 177 pd latch;
#N canvas 265 50 1524 881 states 0;
#X obj 226 17 inlet;
#X msg 1180 142 stop;
#X msg 1121 141 0;
#X text 1156 143 =;
#X text 1156 173 =;
#X msg 1121 171 1;
#X msg 1180 172 start;
#X text 1156 203 =;
#X msg 1121 201 2;
#X msg 1180 202 recenable;
#X text 125 516 when something is recorded switch the variable to 3
;
#X text 1156 233 =;
#X msg 1120 231 3;
#X msg 1180 232 record;
#X text 1156 263 =;
#X msg 1120 261 4;
#X msg 1179 261 latch on;
#X text 112 580 latch off is simply in all of these \, eg right outlet
of select;
#X obj 129 660 r cg-midi-start;
#X obj 129 733 t f f, f 17;
#X obj 129 764 v seq3-\$1-state;
#X obj 245 764 s seq3-\$1-actions;
#X obj 129 682 t b;
#X msg 129 704 1;
#X obj 379 730 t f f, f 17;
#X obj 379 764 v seq3-\$1-state;
#X obj 495 764 s seq3-\$1-actions;
#X obj 379 682 t b;
#X obj 379 659 r cg-midi-stop;
#X msg 379 705 0;
#X text 533 14 the states controlled by the new shortcut approach;
#X obj 226 407 t f f;
#X obj 226 449 v seq3-\$1-state;
#X obj 258 429 s seq3-\$1-actions;
#X text 285 14 Controls State with 0-4;
#X obj 254 278 v seq3-\$1-state;
#X msg 226 127 0;
#X msg 254 347 0;
#X msg 328 362 1;
#X obj 557 323 v seq3-\$1-state;
#X obj 557 352 sel 4, f 14;
#X obj 652 381 t b;
#X msg 652 403 4;
#X obj 557 444 t f f;
#X obj 557 486 v seq3-\$1-state;
#X obj 589 466 s seq3-\$1-actions;
#X msg 557 377 0;
#X obj 254 303 sel 1, f 11;
#X obj 328 339 t b;
#X obj 404 149 v seq3-\$1-state;
#X obj 404 171 sel 2, f 7;
#X msg 404 194 0;
#X obj 450 194 t b;
#X obj 404 242 t f f;
#X obj 404 284 v seq3-\$1-state;
#X obj 436 264 s seq3-\$1-actions;
#X msg 450 217 2;
#X text 425 117 if 2 is on turn off \, otherwise turn on 2;
#X obj 1020 561 t b b b, f 22;
#X msg 1037 633 stop;
#X obj 1156 766 f 0;
#X msg 1142 647 0;
#X msg 1175 669 3;
#X msg 1208 663 6;
#X msg 1275 659 4;
#X msg 1095 594 7;
#X obj 1020 663 del 50;
#X obj 1014 496 spigot;
#X obj 1095 797 f 0;
#X obj 1059 468 r seq3-\$1-actions;
#X obj 1142 603 r seq3-\$1-actions;
#X obj 1096 817 s seq3-\$1-led;
#X obj 679 163 v seq3-\$1-state;
#X obj 774 221 t b;
#X obj 679 284 t f f;
#X obj 679 326 v seq3-\$1-state;
#X obj 711 306 s seq3-\$1-actions;
#X obj 679 192 sel 1, f 14;
#X msg 679 231 1;
#X msg 774 243 1;
#X msg 1216 381 0;
#X msg 1248 403 3;
#X msg 1285 397 6;
#X msg 1334 393 4;
#X obj 1216 337 r seq3-\$1-actions;
#X obj 1216 537 s seq3-\$1-led;
#X obj 1020 419 r beat-clock;
#X obj 1020 441 sel 0;
#X text 343 52 0 stops everything \, 1 is play toggle \, 2 is rec enabled
\, 3 is latch toggle \, 4 play and if playing keep playing \, 5 overdub
;
#X obj 226 84 sel 0 1 2 3 4 5, f 89;
#X text 1156 293 =;
#X msg 1120 291 5;
#X msg 1179 291 overdub;
#X obj 858 124 v seq3-\$1-state;
#X obj 858 146 sel 5;
#X msg 858 168 0;
#X msg 890 190 5;
#X obj 858 310 v seq3-\$1-state;
#X obj 890 283 s seq3-\$1-actions;
#X obj 1216 359 sel 0 1 2 3 4 5, f 28;
#X obj 1142 625 sel 0 1 2 3 4 5, f 29;
#X msg 1308 662 2;
#X msg 1373 394 2;
#X obj 1020 532 spigot \$2;
#X obj 1080 507 r seq3-\$1-quan;
#X obj 1370 508 r seq3-\$1-overdub-on;
#X obj 1370 532 + 1;
#X obj 1347 559 f;
#X obj 1284 717 r seq3-\$1-overdub-on;
#X obj 1284 741 + 1;
#X obj 1261 768 f;
#X obj 858 228 t f f;
#X obj 890 168 t b b;
#X msg 934 188 0;
#X connect 0 0 89 0;
#X connect 18 0 22 0;
#X connect 19 0 20 0;
#X connect 19 1 21 0;
#X connect 22 0 23 0;
#X connect 23 0 19 0;
#X connect 24 0 25 0;
#X connect 24 1 26 0;
#X connect 27 0 29 0;
#X connect 28 0 27 0;
#X connect 29 0 24 0;
#X connect 31 0 32 0;
#X connect 31 1 33 0;
#X connect 35 0 47 0;
#X connect 36 0 31 0;
#X connect 37 0 31 0;
#X connect 38 0 31 0;
#X connect 39 0 40 0;
#X connect 40 0 46 0;
#X connect 40 1 41 0;
#X connect 41 0 42 0;
#X connect 42 0 43 0;
#X connect 43 0 44 0;
#X connect 43 1 45 0;
#X connect 46 0 43 0;
#X connect 47 0 37 0;
#X connect 47 1 48 0;
#X connect 48 0 38 0;
#X connect 49 0 50 0;
#X connect 50 0 51 0;
#X connect 50 1 52 0;
#X connect 51 0 53 0;
#X connect 52 0 56 0;
#X connect 53 0 54 0;
#X connect 53 1 55 0;
#X connect 56 0 53 0;
#X connect 58 0 66 0;
#X connect 58 1 65 0;
#X connect 58 2 59 0;
#X connect 59 0 66 0;
#X connect 60 0 68 0;
#X connect 61 0 60 1;
#X connect 61 0 68 0;
#X connect 62 0 60 1;
#X connect 63 0 60 1;
#X connect 64 0 60 1;
#X connect 65 0 68 0;
#X connect 66 0 60 0;
#X connect 67 0 103 0;
#X connect 68 0 71 0;
#X connect 69 0 67 1;
#X connect 70 0 100 0;
#X connect 72 0 77 0;
#X connect 73 0 79 0;
#X connect 74 0 75 0;
#X connect 74 1 76 0;
#X connect 77 0 78 0;
#X connect 77 1 73 0;
#X connect 78 0 74 0;
#X connect 79 0 74 0;
#X connect 80 0 85 0;
#X connect 81 0 85 0;
#X connect 82 0 85 0;
#X connect 83 0 85 0;
#X connect 84 0 99 0;
#X connect 86 0 87 0;
#X connect 87 0 67 0;
#X connect 89 0 36 0;
#X connect 89 1 35 0;
#X connect 89 2 49 0;
#X connect 89 3 39 0;
#X connect 89 4 72 0;
#X connect 89 5 93 0;
#X connect 93 0 94 0;
#X connect 94 0 95 0;
#X connect 94 1 112 0;
#X connect 95 0 111 0;
#X connect 96 0 111 0;
#X connect 99 0 80 0;
#X connect 99 1 81 0;
#X connect 99 2 82 0;
#X connect 99 3 107 0;
#X connect 99 4 83 0;
#X connect 99 5 102 0;
#X connect 100 0 61 0;
#X connect 100 1 62 0;
#X connect 100 2 63 0;
#X connect 100 3 110 0;
#X connect 100 4 64 0;
#X connect 100 5 101 0;
#X connect 101 0 60 1;
#X connect 102 0 85 0;
#X connect 103 0 58 0;
#X connect 104 0 103 1;
#X connect 105 0 106 0;
#X connect 106 0 107 1;
#X connect 107 0 85 0;
#X connect 108 0 109 0;
#X connect 109 0 110 1;
#X connect 110 0 60 1;
#X connect 111 0 97 0;
#X connect 111 1 98 0;
#X connect 112 0 96 0;
#X connect 112 1 113 0;
#X connect 113 0 111 0;
#X restore 689 121 pd states;
#X obj 689 65 inlet aux;
#X obj 47 126 t a a;
#N canvas 9 50 1183 836 countem 0;
#X obj 443 416 s seq3-\$1-count-notes;
#X obj 346 183 inlet;
#X obj 440 380 + 1;
#X msg 402 333 -1;
#X msg 445 333 1;
#X obj 364 303 t b b;
#X obj 364 394 max 0;
#X obj 424 302 t b b;
#X obj 346 205 unpack 0 0;
#X obj 413 231 sel 0;
#X obj 364 372 f 0;
#X connect 1 0 8 0;
#X connect 2 0 10 1;
#X connect 2 0 0 0;
#X connect 3 0 2 1;
#X connect 4 0 2 1;
#X connect 5 0 10 0;
#X connect 5 1 3 0;
#X connect 6 0 2 0;
#X connect 7 0 10 0;
#X connect 7 1 4 0;
#X connect 8 1 9 0;
#X connect 9 0 5 0;
#X connect 9 1 7 0;
#X connect 10 0 6 0;
#X restore 79 151 pd countem;
#X obj 93 229 s \$0-pass;
#X obj 47 104 inlet notes, f 17;
#X obj 385 102 r seq3-\$1-actions;
#X floatatom 385 124 5 0 0 0 - - -, f 5;
#X text 269 21 arg 1: unique number;
#X text 688 143 state control;
#X text 171 150 count the incoming notes;
#X text 124 179 latch incoming notes;
#X text 107 214 incoming notes get passed to the outlet;
#X text 429 124 heads up display of states;
#X obj 908 171 loadbang;
#X obj 47 289 seq-format-event note;
#X text 851 298 round seq length to multiple of beats;
#X obj 47 359 s \$0-events-in;
#N canvas 22 50 1296 821 the-knobs 0;
#X obj 280 211 r knob1;
#X obj 414 205 r knob2;
#X obj 532 208 r knob3;
#X obj 673 208 r knob4;
#X obj 503 439 outlet;
#X obj 221 295 seq-format-event knob1;
#X obj 401 293 seq-format-event knob2;
#X obj 566 292 seq-format-event knob3;
#X obj 747 289 seq-format-event knob4;
#X connect 0 0 5 0;
#X connect 1 0 6 0;
#X connect 2 0 7 0;
#X connect 3 0 8 0;
#X connect 5 0 4 0;
#X connect 6 0 4 0;
#X connect 7 0 4 0;
#X connect 8 0 4 0;
#X restore 86 321 pd the-knobs;
#X obj 830 224 f \$2;
#X obj 830 348 s \$0-arg-2-seq;
#X obj 1185 11 inlet save and recall;
#X text 268 40 arg 2: 0 no sync \, 1 sync;
#X obj 111 869 outlet;
#N canvas 14 50 468 388 flush-stuck-notes 0;
#X obj 167 212 bag;
#X msg 203 161 flush;
#X msg 160 254 \$1 0;
#X obj 124 157 t a a;
#X obj 137 354 outlet;
#X obj 101 22 inlet;
#X obj 258 20 inlet;
#X obj 238 107 bang;
#X obj 114 102 route note;
#X obj 248 61 route end stop;
#X obj 232 338 outlet other messages;
#X connect 0 0 2 0;
#X connect 1 0 0 0;
#X connect 2 0 4 0;
#X connect 3 0 4 0;
#X connect 3 1 0 0;
#X connect 5 0 8 0;
#X connect 6 0 9 0;
#X connect 7 0 1 0;
#X connect 8 0 3 0;
#X connect 8 1 10 0;
#X connect 9 0 7 0;
#X connect 9 1 7 0;
#X restore 111 611 pd flush-stuck-notes;
#X text 530 494 beat clock \, events \, controls in;
#X text 421 561 events and status out;
#N canvas 12 50 1276 866 auto-knobs 0;
#X obj 435 470 s seq3-\$1-k1;
#X obj 771 398 s seq3-\$1-k4;
#X obj 679 426 s seq3-\$1-k3;
#X obj 547 448 s seq3-\$1-k2;
#X obj 435 181 inlet;
#X text 849 417 <--- drop these as receives in the parent patches knobs!
;
#X obj 435 295 route knob1 knob2 knob3 knob4, f 64;
#X connect 4 0 6 0;
#X connect 6 0 0 0;
#X connect 6 1 3 0;
#X connect 6 2 2 0;
#X connect 6 3 1 0;
#X restore 216 737 pd auto-knobs;
#X obj 138 832 r \$0-pass;
#X obj 494 714 t f f;
#X obj 494 756 v seq3-\$1-state;
#X obj 526 736 s seq3-\$1-actions;
#X msg 494 692 3;
#X obj 416 580 symbol;
#X obj 111 411 r beat-clock;
#X obj 143 776 seq-format-event note;
#X obj 111 694 t a a;
#N canvas 14 50 468 388 flush-stuck-notes 0;
#X obj 167 212 bag;
#X msg 203 161 flush;
#X msg 160 254 \$1 0;
#X obj 124 157 t a a;
#X obj 137 354 outlet;
#X obj 101 22 inlet;
#X obj 258 20 inlet;
#X obj 238 107 bang;
#X obj 114 102 route note;
#X obj 248 61 route end stop;
#X obj 232 338 outlet other messages;
#X connect 0 0 2 0;
#X connect 1 0 0 0;
#X connect 2 0 4 0;
#X connect 3 0 4 0;
#X connect 3 1 0 0;
#X connect 5 0 8 0;
#X connect 6 0 9 0;
#X connect 7 0 1 0;
#X connect 8 0 3 0;
#X connect 8 1 10 0;
#X connect 9 0 7 0;
#X connect 9 1 7 0;
#X restore 780 712 pd flush-stuck-notes;
#X text 1082 582 beat clock \, events \, controls in;
#X text 1080 668 events and status out;
#N canvas 10 50 1276 866 auto-knobs 0;
#X obj 435 470 s seq3-\$1-k1;
#X obj 771 398 s seq3-\$1-k4;
#X obj 679 426 s seq3-\$1-k3;
#X obj 547 448 s seq3-\$1-k2;
#X obj 435 181 inlet;
#X text 849 417 <--- drop these as receives in the parent patches knobs!
;
#X obj 435 295 route knob1 knob2 knob3 knob4, f 64;
#X connect 4 0 6 0;
#X connect 6 0 0 0;
#X connect 6 1 3 0;
#X connect 6 2 2 0;
#X connect 6 3 1 0;
#X restore 882 832 pd auto-knobs;
#X obj 1084 744 t f f;
#X obj 1084 786 v seq3-\$1-state;
#X obj 1116 766 s seq3-\$1-actions;
#X msg 1084 722 3;
#X obj 1006 671 symbol;
#X obj 780 482 r beat-clock;
#X obj 959 581 r \$0-arg-2-seq;
#X obj 869 527 r \$0-events-in;
#X obj 959 602 route 1;
#X obj 263 294 r \$0-events-in;
#X obj 416 517 route 0;
#X text 994 235 loop or not;
#X msg 908 254 0 loop 1 \, 1 loop 1;
#X msg 830 322 0 quantize-length \$1 \, 1 quantize-length \$1;
#N canvas 277 55 1559 876 overdub 0;
#X obj 223 31 r seq3-\$1-actions;
#X obj 223 732 s \$0-arg-2-seq;
#X obj 223 173 v seq3-\$1-od;
#X text 243 4 overdub;
#X obj 223 684 list prepend;
#X obj 223 706 list trim;
#X msg 223 637 play;
#X msg 299 636 play-sync;
#X obj 338 513 tgl 15 0 empty empty empty 17 7 0 10 -262144 -1 -1 0
1;
#X obj 223 609 spigot;
#X obj 299 608 spigot;
#X obj 338 367 loadbang;
#X obj 299 544 ==;
#X msg 338 483 0;
#X obj 338 389 f \$2;
#X obj 223 556 t b b a;
#X obj 499 295 ==;
#X obj 369 434 r seq3-1-quan;
#X obj 418 372 s \$0-arg-2-seq;
#X obj 418 324 list prepend;
#X obj 418 346 list trim;
#X msg 418 295 arm;
#X obj 418 251 t b a, f 12;
#X text 529 295 opposite;
#X obj 338 461 sel 0, f 8;
#X obj 391 485 t b;
#X msg 391 514 1;
#X msg 645 389 1;
#X obj 592 417 spigot 0;
#X obj 592 439 t b b;
#X msg 694 435 0;
#X obj 592 461 v seq3-\$1-od;
#X obj 629 579 v seq3-\$1-od;
#X obj 647 552 s \$0-stop;
#X obj 592 329 r cgSc-\$1-aux;
#X obj 592 352 sel 1;
#X msg 610 604 0;
#X obj 666 529 s \$0-save-current;
#X obj 523 555 loadbang;
#X obj 610 636 s seq3-\$1-overdub-on;
#X obj 938 324 s seq3-\$1-overdub-on;
#X msg 938 292 1;
#X obj 592 483 ==;
#X obj 223 58 sel 5, f 16;
#X msg 873 389 1;
#X obj 592 506 t b b f b b;
#X obj 223 206 t a a b a, f 84;
#X obj 808 264 t b a b, f 19;
#X obj 872 422 list prepend;
#X obj 873 443 list trim;
#X obj 873 363 t b a, f 10;
#X obj 873 469 s \$0-odub-arm;
#N canvas 4 50 1414 749 countdown 0;
#X obj 44 16 inlet;
#X obj 56 134 f;
#X obj 92 134 + 1;
#X obj 56 156 sel 2;
#X obj 88 184 t b b;
#X obj 44 50 t b b b;
#X msg 105 81 0;
#X msg 67 77 stop;
#X msg 84 374 2;
#X obj 136 349 del 100;
#X msg 136 371 0;
#X obj 113 279 t b b b;
#X msg 159 305 stop;
#X obj 84 431 s seq3-\$1-led;
#X obj 44 212 t b;
#X obj 56 106 del 500;
#X obj 60 514 outlet;
#X connect 0 0 5 0;
#X connect 1 0 2 0;
#X connect 1 0 3 0;
#X connect 2 0 1 1;
#X connect 3 0 16 0;
#X connect 3 1 4 0;
#X connect 4 0 14 0;
#X connect 4 1 15 0;
#X connect 5 0 14 0;
#X connect 5 0 15 0;
#X connect 5 1 7 0;
#X connect 5 2 6 0;
#X connect 6 0 1 1;
#X connect 7 0 15 0;
#X connect 8 0 13 0;
#X connect 9 0 10 0;
#X connect 10 0 13 0;
#X connect 11 0 8 0;
#X connect 11 1 9 0;
#X connect 11 2 12 0;
#X connect 12 0 9 0;
#X connect 14 0 11 0;
#X connect 15 0 1 0;
#X restore 223 116 pd countdown;
#X connect 0 0 43 0;
#X connect 2 0 46 0;
#X connect 4 0 5 0;
#X connect 5 0 1 0;
#X connect 6 0 4 0;
#X connect 7 0 4 0;
#X connect 8 0 12 0;
#X connect 8 0 10 1;
#X connect 9 0 6 0;
#X connect 10 0 7 0;
#X connect 11 0 14 0;
#X connect 12 0 9 1;
#X connect 13 0 8 0;
#X connect 14 0 24 0;
#X connect 15 0 9 0;
#X connect 15 1 10 0;
#X connect 15 2 4 1;
#X connect 16 0 19 1;
#X connect 17 0 24 0;
#X connect 19 0 20 0;
#X connect 20 0 18 0;
#X connect 21 0 19 0;
#X connect 22 0 21 0;
#X connect 22 1 16 0;
#X connect 24 0 13 0;
#X connect 24 1 25 0;
#X connect 25 0 26 0;
#X connect 26 0 8 0;
#X connect 27 0 28 1;
#X connect 28 0 29 0;
#X connect 29 0 31 0;
#X connect 29 1 30 0;
#X connect 30 0 28 1;
#X connect 31 0 42 0;
#X connect 34 0 35 0;
#X connect 35 0 28 0;
#X connect 36 0 39 0;
#X connect 38 0 36 0;
#X connect 41 0 40 0;
#X connect 42 0 45 0;
#X connect 43 0 52 0;
#X connect 44 0 48 0;
#X connect 45 1 36 0;
#X connect 45 2 32 0;
#X connect 45 3 33 0;
#X connect 45 4 37 0;
#X connect 46 0 15 0;
#X connect 46 1 22 0;
#X connect 46 2 27 0;
#X connect 46 3 47 0;
#X connect 47 1 50 0;
#X connect 47 2 41 0;
#X connect 48 0 49 0;
#X connect 49 0 51 0;
#X connect 50 0 44 0;
#X connect 50 1 48 1;
#X connect 52 0 2 0;
#X restore 592 262 pd overdub;
#N canvas 40 50 1261 754 play+stop+rec 0;
#X msg 360 388 play;
#X msg 436 387 play-sync;
#X obj 297 69 r seq3-\$1-actions;
#X obj 475 244 tgl 15 0 empty empty empty 17 7 0 10 -262144 -1 -1 0
1;
#X obj 360 360 spigot;
#X obj 436 359 spigot;
#X text 502 244 lock start to beat;
#X obj 475 108 loadbang;
#X obj 297 262 t b;
#X obj 436 295 ==;
#X obj 475 192 sel 0 1 2, f 28;
#X msg 475 214 0;
#X msg 550 221 1;
#X obj 475 130 f \$2;
#X obj 360 514 s \$0-arg-2-seq;
#X obj 360 414 t a b;
#X obj 392 438 v seq3-\$1-od;
#X obj 360 462 list prepend;
#X obj 360 484 list trim;
#X obj 518 143 r seq3-1-quan;
#X msg 236 378 0 stop \, 1 stop;
#X obj 297 107 sel 0 1 2 3 4 5;
#X msg 300 327 arm;
#X obj 217 219 r \$0-stop;
#X obj 360 302 t b b;
#X obj 796 347 spigot 0;
#X obj 796 369 t b b;
#X msg 891 358 0;
#X msg 849 315 1;
#X obj 796 631 s \$0-arg-2-seq;
#X obj 828 555 v seq3-\$1-od;
#X obj 796 579 list prepend;
#X obj 796 601 list trim;
#X obj 796 531 t a b;
#X obj 849 459 symbol \$3;
#X obj 796 485 pack 0 s;
#X obj 849 431 loadbang;
#X msg 796 508 write \$2/seq\$1.txt;
#X obj 814 400 r \$0-current-slot;
#X obj 796 428 f;
#X obj 796 286 sel 1 3, f 12;
#X obj 796 308 del 1;
#X obj 796 264 r seq3-\$1-actions;
#X connect 0 0 15 0;
#X connect 1 0 15 0;
#X connect 2 0 21 0;
#X connect 3 0 9 0;
#X connect 3 0 5 1;
#X connect 4 0 0 0;
#X connect 5 0 1 0;
#X connect 7 0 13 0;
#X connect 8 0 20 0;
#X connect 9 0 4 1;
#X connect 10 0 11 0;
#X connect 10 1 12 0;
#X connect 10 2 12 0;
#X connect 11 0 3 0;
#X connect 12 0 3 0;
#X connect 13 0 10 0;
#X connect 15 0 17 0;
#X connect 15 1 16 0;
#X connect 16 0 17 1;
#X connect 17 0 18 0;
#X connect 18 0 14 0;
#X connect 19 0 10 0;
#X connect 20 0 14 0;
#X connect 21 0 8 0;
#X connect 21 1 24 0;
#X connect 21 2 22 0;
#X connect 22 0 15 0;
#X connect 23 0 8 0;
#X connect 24 0 4 0;
#X connect 24 1 5 0;
#X connect 25 0 26 0;
#X connect 26 0 39 0;
#X connect 26 1 27 0;
#X connect 27 0 25 1;
#X connect 28 0 25 1;
#X connect 30 0 31 1;
#X connect 31 0 32 0;
#X connect 32 0 29 0;
#X connect 33 0 31 0;
#X connect 33 1 30 0;
#X connect 34 0 35 1;
#X connect 35 0 37 0;
#X connect 36 0 34 0;
#X connect 37 0 33 0;
#X connect 38 0 39 1;
#X connect 39 0 35 0;
#X connect 40 0 41 0;
#X connect 40 1 28 0;
#X connect 41 0 25 0;
#X connect 42 0 40 0;
#X restore 593 230 pd play+stop+rec;
#X obj 47 203 t a a;
#X obj 812 866 seq-format-event note;
#X obj 780 784 t a a;
#X obj 812 890 s \$0-overdub-R;
#X obj 143 800 s \$0-overdub-L;
#X obj 416 605 sel end rec play, f 34;
#X obj 1006 697 sel end rec play, f 34;
#X obj 248 666 t a a;
#X obj 240 707 s \$0-overknobs-L;
#X obj 882 774 t a a;
#X obj 904 805 s \$0-overknobs-R;
#N canvas 604 213 923 588 knob-recycle 0;
#X obj 35 19 inlet;
#X obj 35 120 route knob1 knob2 knob3 knob4, f 117;
#X obj 88 212 r knob1;
#X msg 132 264 stop;
#X obj 88 237 t b b b, f 13;
#X msg 88 317 1;
#X msg 176 293 0;
#X obj 88 359 change -1;
#X obj 35 385 spigot 0;
#X obj 35 407 list prepend knob1;
#X obj 35 559 outlet;
#X obj 35 429 list trim;
#X msg 272 264 stop;
#X obj 228 237 t b b b, f 13;
#X msg 228 317 1;
#X msg 316 293 0;
#X obj 228 359 change -1;
#X obj 175 385 spigot 0;
#X obj 175 429 list trim;
#X obj 88 295 del 500;
#X obj 228 295 del 500;
#X msg 442 264 stop;
#X obj 398 237 t b b b, f 13;
#X msg 398 317 1;
#X msg 486 293 0;
#X obj 398 359 change -1;
#X obj 345 385 spigot 0;
#X obj 345 429 list trim;
#X msg 771 264 stop;
#X obj 727 237 t b b b, f 13;
#X msg 727 317 1;
#X msg 815 293 0;
#X obj 727 359 change -1;
#X obj 674 385 spigot 0;
#X obj 674 429 list trim;
#X obj 398 295 del 500;
#X obj 727 295 del 500;
#X obj 727 212 r knob4;
#X obj 674 406 list prepend knob4;
#X obj 398 212 r knob3;
#X obj 345 407 list prepend knob3;
#X obj 175 407 list prepend knob2;
#X obj 228 212 r knob2;
#X connect 0 0 1 0;
#X connect 1 0 8 0;
#X connect 1 1 17 0;
#X connect 1 2 26 0;
#X connect 1 3 33 0;
#X connect 2 0 4 0;
#X connect 3 0 19 0;
#X connect 4 0 19 0;
#X connect 4 1 3 0;
#X connect 4 2 6 0;
#X connect 5 0 7 0;
#X connect 6 0 7 0;
#X connect 7 0 8 1;
#X connect 8 0 9 0;
#X connect 9 0 11 0;
#X connect 11 0 10 0;
#X connect 12 0 20 0;
#X connect 13 0 20 0;
#X connect 13 1 12 0;
#X connect 13 2 15 0;
#X connect 14 0 16 0;
#X connect 15 0 16 0;
#X connect 16 0 17 1;
#X connect 17 0 41 0;
#X connect 18 0 10 0;
#X connect 19 0 5 0;
#X connect 20 0 14 0;
#X connect 21 0 35 0;
#X connect 22 0 35 0;
#X connect 22 1 21 0;
#X connect 22 2 24 0;
#X connect 23 0 25 0;
#X connect 24 0 25 0;
#X connect 25 0 26 1;
#X connect 26 0 40 0;
#X connect 27 0 10 0;
#X connect 28 0 36 0;
#X connect 29 0 36 0;
#X connect 29 1 28 0;
#X connect 29 2 31 0;
#X connect 30 0 32 0;
#X connect 31 0 32 0;
#X connect 32 0 33 1;
#X connect 33 0 38 0;
#X connect 34 0 10 0;
#X connect 35 0 23 0;
#X connect 36 0 30 0;
#X connect 37 0 29 0;
#X connect 38 0 34 0;
#X connect 39 0 22 0;
#X connect 40 0 27 0;
#X connect 41 0 18 0;
#X connect 42 0 13 0;
#X restore 248 638 pd knob-recycle;
#N canvas 604 213 923 588 knob-recycle 0;
#X obj 35 19 inlet;
#X obj 35 120 route knob1 knob2 knob3 knob4, f 117;
#X obj 88 212 r knob1;
#X msg 132 264 stop;
#X obj 88 237 t b b b, f 13;
#X msg 88 317 1;
#X msg 176 293 0;
#X obj 88 359 change -1;
#X obj 35 385 spigot 0;
#X obj 35 407 list prepend knob1;
#X obj 35 559 outlet;
#X obj 35 429 list trim;
#X msg 272 264 stop;
#X obj 228 237 t b b b, f 13;
#X msg 228 317 1;
#X msg 316 293 0;
#X obj 228 359 change -1;
#X obj 175 385 spigot 0;
#X obj 175 429 list trim;
#X obj 88 295 del 500;
#X obj 228 295 del 500;
#X msg 442 264 stop;
#X obj 398 237 t b b b, f 13;
#X msg 398 317 1;
#X msg 486 293 0;
#X obj 398 359 change -1;
#X obj 345 385 spigot 0;
#X obj 345 429 list trim;
#X msg 771 264 stop;
#X obj 727 237 t b b b, f 13;
#X msg 727 317 1;
#X msg 815 293 0;
#X obj 727 359 change -1;
#X obj 674 385 spigot 0;
#X obj 674 429 list trim;
#X obj 398 295 del 500;
#X obj 727 295 del 500;
#X obj 727 212 r knob4;
#X obj 674 406 list prepend knob4;
#X obj 398 212 r knob3;
#X obj 345 407 list prepend knob3;
#X obj 175 407 list prepend knob2;
#X obj 228 212 r knob2;
#X connect 0 0 1 0;
#X connect 1 0 8 0;
#X connect 1 1 17 0;
#X connect 1 2 26 0;
#X connect 1 3 33 0;
#X connect 2 0 4 0;
#X connect 3 0 19 0;
#X connect 4 0 19 0;
#X connect 4 1 3 0;
#X connect 4 2 6 0;
#X connect 5 0 7 0;
#X connect 6 0 7 0;
#X connect 7 0 8 1;
#X connect 8 0 9 0;
#X connect 9 0 11 0;
#X connect 11 0 10 0;
#X connect 12 0 20 0;
#X connect 13 0 20 0;
#X connect 13 1 12 0;
#X connect 13 2 15 0;
#X connect 14 0 16 0;
#X connect 15 0 16 0;
#X connect 16 0 17 1;
#X connect 17 0 41 0;
#X connect 18 0 10 0;
#X connect 19 0 5 0;
#X connect 20 0 14 0;
#X connect 21 0 35 0;
#X connect 22 0 35 0;
#X connect 22 1 21 0;
#X connect 22 2 24 0;
#X connect 23 0 25 0;
#X connect 24 0 25 0;
#X connect 25 0 26 1;
#X connect 26 0 40 0;
#X connect 27 0 10 0;
#X connect 28 0 36 0;
#X connect 29 0 36 0;
#X connect 29 1 28 0;
#X connect 29 2 31 0;
#X connect 30 0 32 0;
#X connect 31 0 32 0;
#X connect 32 0 33 1;
#X connect 33 0 38 0;
#X connect 34 0 10 0;
#X connect 35 0 23 0;
#X connect 36 0 30 0;
#X connect 37 0 29 0;
#X connect 38 0 34 0;
#X connect 39 0 22 0;
#X connect 40 0 27 0;
#X connect 41 0 18 0;
#X connect 42 0 13 0;
#X restore 882 747 pd knob-recycle;
#X obj 1337 412 s \$0-arg-2-seq;
#X obj 1369 296 v seq3-\$1-od;
#X obj 1337 360 list prepend;
#X obj 1337 382 list trim;
#X obj 1369 318 ==;
#X obj 1337 272 t a b;
#X obj 1208 362 v seq3-\$1-od;
#X obj 1208 397 ==;
#X obj 1208 422 v seq3-\$1-od;
#X obj 1185 219 v seq3-\$1-state;
#X obj 1185 293 t b b b;
#X text 268 60 arg 3: path to folder where to save 14 textfiles;
#X obj 1390 190 symbol \$3;
#X obj 1337 216 pack 0 s;
#X msg 1337 239 read \$2/seq\$1.txt;
#X obj 1272 274 t b;
#X obj 1185 241 sel 1;
#X obj 729 270 r seq3-\$1-quan;
#X obj 1390 164 loadbang;
#X obj 1185 57 t f f;
#X obj 1217 81 s \$0-current-slot;
#X obj 1185 33 change -1;
#X obj 1185 102 t b f b, f 44;
#X obj 1106 527 s \$0-arg-2-seq;
#X obj 1138 451 v seq3-\$1-od;
#X obj 1106 475 list prepend;
#X obj 1106 497 list trim;
#X obj 1106 427 t a b;
#N canvas 4 50 874 627 play-modes 0;
#X msg 273 393 play;
#X msg 349 392 play-sync;
#X obj 388 249 tgl 15 0 empty empty empty 17 7 0 10 -262144 -1 -1 0
1;
#X obj 273 365 spigot;
#X obj 349 364 spigot;
#X text 415 249 lock start to beat;
#X obj 388 113 loadbang;
#X obj 349 300 ==;
#X obj 388 197 sel 0 1 2, f 28;
#X msg 388 219 0;
#X msg 463 226 1;
#X obj 388 135 f \$2;
#X obj 431 148 r seq3-1-quan;
#X obj 273 307 t b b;
#X obj 234 83 inlet bang;
#X obj 273 475 outlet play-commands;
#X connect 0 0 15 0;
#X connect 1 0 15 0;
#X connect 2 0 7 0;
#X connect 2 0 4 1;
#X connect 3 0 0 0;
#X connect 4 0 1 0;
#X connect 6 0 11 0;
#X connect 7 0 3 1;
#X connect 8 0 9 0;
#X connect 8 1 10 0;
#X connect 8 2 10 0;
#X connect 9 0 2 0;
#X connect 10 0 2 0;
#X connect 11 0 8 0;
#X connect 12 0 8 0;
#X connect 13 0 3 0;
#X connect 13 1 4 0;
#X connect 14 0 13 0;
#X restore 1106 402 pd play-modes;
#X obj 1490 324 s \$0-arg-2-seq;
#X obj 1522 248 v seq3-\$1-od;
#X obj 1490 272 list prepend;
#X obj 1490 294 list trim;
#X obj 1490 224 t a b;
#X msg 1490 191 stop;
#X text 565 382 if 5 is pressed activate the overdub \, so when the
next record comes open the overdubs than the next anything command
close the spigot;
#N canvas 7 50 1052 658 overdub-management 0;
#X obj 252 358 r \$0-overdub-R;
#X obj 238 337 r \$0-overknobs-R;
#X obj 238 408 outlet;
#X connect 0 0 2 0;
#X connect 1 0 2 0;
#X restore 330 461 pd overdub-management;
#X obj 416 495 r \$0-arg-2-seq;
#N canvas 7 50 1052 658 overdub-management 0;
#X obj 238 408 outlet;
#X obj 239 335 r \$0-overknobs-L;
#X obj 253 356 r \$0-overdub-L;
#X connect 1 0 0 0;
#X connect 2 0 0 0;
#X restore 899 552 pd overdub-management;
#X obj 648 46 loadbang;
#X msg 648 68 0;
#X obj 780 643 seq seq\$1R, f 26;
#X obj 111 542 seq seq\$1L, f 44;
#X connect 0 0 58 0;
#X connect 2 0 1 0;
#X connect 3 0 0 0;
#X connect 3 1 4 0;
#X connect 6 0 3 0;
#X connect 7 0 8 0;
#X connect 15 0 54 0;
#X connect 15 0 20 0;
#X connect 16 0 18 0;
#X connect 19 0 18 0;
#X connect 20 0 55 0;
#X connect 22 0 92 0;
#X connect 25 0 37 0;
#X connect 25 1 69 0;
#X connect 29 0 24 0;
#X connect 30 0 31 0;
#X connect 30 1 32 0;
#X connect 33 0 30 0;
#X connect 34 0 63 0;
#X connect 35 0 113 0;
#X connect 36 0 62 0;
#X connect 37 0 24 0;
#X connect 37 1 36 0;
#X connect 38 0 60 0;
#X connect 38 1 70 0;
#X connect 42 0 43 0;
#X connect 42 1 44 0;
#X connect 45 0 42 0;
#X connect 46 0 64 0;
#X connect 47 0 112 0;
#X connect 48 0 50 0;
#X connect 49 0 112 1;
#X connect 50 0 112 2;
#X connect 51 0 113 1;
#X connect 52 0 113 2;
#X connect 54 0 21 0;
#X connect 55 0 21 0;
#X connect 58 0 16 0;
#X connect 58 1 5 0;
#X connect 59 0 61 0;
#X connect 60 0 24 0;
#X connect 60 1 59 0;
#X connect 63 1 33 0;
#X connect 64 1 45 0;
#X connect 65 0 28 0;
#X connect 65 1 66 0;
#X connect 67 0 41 0;
#X connect 67 1 68 0;
#X connect 69 0 65 0;
#X connect 70 0 67 0;
#X connect 72 0 75 0;
#X connect 73 0 74 0;
#X connect 74 0 71 0;
#X connect 75 0 73 1;
#X connect 76 0 73 0;
#X connect 76 1 72 0;
#X connect 77 0 78 0;
#X connect 78 0 79 0;
#X connect 80 0 87 0;
#X connect 81 0 99 0;
#X connect 81 1 77 0;
#X connect 83 0 84 1;
#X connect 84 0 85 0;
#X connect 85 0 76 0;
#X connect 86 0 77 0;
#X connect 87 0 81 0;
#X connect 87 1 86 0;
#X connect 88 0 55 0;
#X connect 89 0 83 0;
#X connect 90 0 93 0;
#X connect 90 1 91 0;
#X connect 92 0 90 0;
#X connect 93 0 80 0;
#X connect 93 1 84 0;
#X connect 93 2 105 0;
#X connect 95 0 96 1;
#X connect 96 0 97 0;
#X connect 97 0 94 0;
#X connect 98 0 96 0;
#X connect 98 1 95 0;
#X connect 99 0 98 0;
#X connect 101 0 102 1;
#X connect 102 0 103 0;
#X connect 103 0 100 0;
#X connect 104 0 102 0;
#X connect 104 1 101 0;
#X connect 105 0 104 0;
#X connect 107 0 113 1;
#X connect 108 0 52 0;
#X connect 109 0 112 1;
#X connect 110 0 111 0;
#X connect 111 0 1 0;
#X connect 112 0 38 0;
#X connect 112 1 38 1;
#X connect 112 1 46 0;
#X connect 113 0 25 0;
#X connect 113 1 25 1;
#X connect 113 1 34 0;
