#N canvas 362 216 1238 706 10;
#X obj 73 179 inlet aux;
#N canvas 8 50 1163 752 print-grid 0;
#X obj 606 425 s oscOut;
#X msg 566 355 /oled/gFlip 3;
#X msg 655 328 /oled/gFillArea 3 0 8 128 56 0;
#X text 480 480 Line \, start x \, y \, end x \, y \, color (0 or 1)
;
#X obj 370 249 f;
#X obj 403 249 + 1;
#X obj 370 214 until;
#X msg 414 215 0;
#X obj 370 179 t a b;
#X msg 370 156 6;
#X obj 370 271 * 11;
#X msg 351 353 /oled/gLine 3 0 \$1 127 \$1 1;
#X obj 370 293 + 8;
#X msg 745 361 /oled/gClear 3 1;
#X obj 457 243 f;
#X obj 490 243 + 1;
#X obj 457 208 until;
#X msg 501 209 0;
#X obj 457 173 t a b;
#X msg 457 150 3;
#X msg 459 315 /oled/gLine 3 \$1 9 \$1 63 1;
#X obj 457 288 min 127;
#X obj 458 264 * 64;
#X obj 406 101 t b b b b;
#X obj 431 49 inlet;
#X connect 1 0 0 0;
#X connect 2 0 0 0;
#X connect 4 0 5 0;
#X connect 4 0 10 0;
#X connect 5 0 4 1;
#X connect 6 0 4 0;
#X connect 7 0 4 1;
#X connect 8 0 6 0;
#X connect 8 1 7 0;
#X connect 9 0 8 0;
#X connect 10 0 12 0;
#X connect 11 0 0 0;
#X connect 12 0 11 0;
#X connect 13 0 0 0;
#X connect 14 0 15 0;
#X connect 14 0 22 0;
#X connect 15 0 14 1;
#X connect 16 0 14 0;
#X connect 17 0 14 1;
#X connect 18 0 16 0;
#X connect 18 1 17 0;
#X connect 19 0 18 0;
#X connect 20 0 0 0;
#X connect 21 0 20 0;
#X connect 22 0 21 0;
#X connect 23 0 1 0;
#X connect 23 1 9 0;
#X connect 23 2 19 0;
#X connect 23 3 2 0;
#X connect 24 0 23 0;
#X restore 154 420 pd print-grid;
#X obj 73 314 sel 1 0, f 16;
#X obj 363 470 route 61 63 66 68 70 73 75 78 80 82, f 81;
#X text 135 342 go back to home screen;
#N canvas 907 435 871 385 re-print 0;
#X obj 96 30 inlet;
#X text 614 82 clear the screen;
#X msg 88 89 /oled/gFillArea 3 0 8 128 56 0;
#X obj 88 111 s oscOut;
#X connect 0 0 2 0;
#X connect 2 0 3 0;
#X restore 127 359 pd re-print;
#X obj 497 272 ==;
#N canvas 6 50 450 300 just-note-offs 0;
#X obj 67 16 inlet;
#X obj 67 38 unpack;
#X obj 67 89 sel 0;
#X obj 67 60 swap, f 6;
#X obj 67 116 f, f 7;
#X obj 67 138 pack 0 0;
#X obj 67 160 outlet;
#X connect 0 0 1 0;
#X connect 1 0 3 0;
#X connect 1 1 3 1;
#X connect 2 0 4 0;
#X connect 3 0 2 0;
#X connect 3 1 4 1;
#X connect 4 0 5 0;
#X connect 5 0 6 0;
#X restore 470 389 pd just-note-offs;
#X obj 444 430 outlet;
#X text 647 450 top line of keys "the black keys";
#X text 598 388 so notes dont get stuck;
#X obj 746 354 outlet mute-print;
#X obj 444 309 spigot 1;
#X obj 363 309 spigot 0;
#X obj 73 395 t b b, f 12;
#X obj 903 269 s cgSc-\$1-aux;
#X obj 695 291 del 1;
#X obj 695 255 sel 0 1, f 15;
#X msg 695 313 0;
#X msg 746 285 1;
#X obj 73 448 s cgSc-\$1-print!;
#X obj 73 220 t f f f f f, f 119;
#X obj 310 65 moses 60;
#X obj 363 87 moses 84;
#X obj 310 35 unpack 0 0, f 23;
#X obj 363 117 pack 0 0;
#X obj 972 681 s cgSc-\$1-slots;
#N canvas 412 204 1307 642 slots 0;
#X obj 36 25 inlet;
#X obj 36 47 route 60 62 64 65 67 69 71 72 74 76 77 79 81 83, f 144
;
#X obj 36 70 sel 0;
#X obj 68 93 t b;
#X obj 139 186 s \$0-white-keys;
#X msg 68 115 0;
#X obj 107 70 sel 0;
#X obj 139 93 t b;
#X msg 139 115 1;
#X obj 179 70 sel 0;
#X obj 211 93 t b;
#X obj 249 70 sel 0;
#X obj 281 93 t b;
#X msg 211 115 2;
#X msg 281 115 3;
#X obj 390 461 r \$0-white-keys;
#X obj 323 70 sel 0;
#X obj 355 93 t b;
#X obj 426 186 s \$0-white-keys;
#X obj 394 70 sel 0;
#X obj 426 93 t b;
#X obj 466 70 sel 0;
#X obj 498 93 t b;
#X obj 536 70 sel 0;
#X obj 568 93 t b;
#X msg 355 115 4;
#X msg 426 115 5;
#X msg 498 115 6;
#X msg 568 115 7;
#X obj 606 70 sel 0;
#X obj 638 93 t b;
#X obj 709 186 s \$0-white-keys;
#X obj 677 70 sel 0;
#X obj 709 93 t b;
#X obj 749 70 sel 0;
#X obj 781 93 t b;
#X obj 819 70 sel 0;
#X obj 851 93 t b;
#X obj 893 70 sel 0;
#X obj 925 93 t b;
#X obj 996 186 s \$0-white-keys;
#X obj 964 70 sel 0;
#X obj 996 93 t b;
#X msg 638 115 8;
#X msg 709 114 9;
#X msg 781 115 10;
#X msg 851 115 11;
#X msg 925 115 12;
#X msg 996 115 13;
#X obj 390 483 outlet;
#X connect 0 0 1 0;
#X connect 1 0 2 0;
#X connect 1 1 6 0;
#X connect 1 2 9 0;
#X connect 1 3 11 0;
#X connect 1 4 16 0;
#X connect 1 5 19 0;
#X connect 1 6 21 0;
#X connect 1 7 23 0;
#X connect 1 8 29 0;
#X connect 1 9 32 0;
#X connect 1 10 34 0;
#X connect 1 11 36 0;
#X connect 1 12 38 0;
#X connect 1 13 41 0;
#X connect 2 1 3 0;
#X connect 3 0 5 0;
#X connect 5 0 4 0;
#X connect 6 1 7 0;
#X connect 7 0 8 0;
#X connect 8 0 4 0;
#X connect 9 1 10 0;
#X connect 10 0 13 0;
#X connect 11 1 12 0;
#X connect 12 0 14 0;
#X connect 13 0 4 0;
#X connect 14 0 4 0;
#X connect 15 0 49 0;
#X connect 16 1 17 0;
#X connect 17 0 25 0;
#X connect 19 1 20 0;
#X connect 20 0 26 0;
#X connect 21 1 22 0;
#X connect 22 0 27 0;
#X connect 23 1 24 0;
#X connect 24 0 28 0;
#X connect 25 0 18 0;
#X connect 26 0 18 0;
#X connect 27 0 18 0;
#X connect 28 0 18 0;
#X connect 29 1 30 0;
#X connect 30 0 43 0;
#X connect 32 1 33 0;
#X connect 33 0 44 0;
#X connect 34 1 35 0;
#X connect 35 0 45 0;
#X connect 36 1 37 0;
#X connect 37 0 46 0;
#X connect 38 1 39 0;
#X connect 39 0 47 0;
#X connect 41 1 42 0;
#X connect 42 0 48 0;
#X connect 43 0 31 0;
#X connect 44 0 31 0;
#X connect 45 0 31 0;
#X connect 46 0 31 0;
#X connect 47 0 40 0;
#X connect 48 0 40 0;
#X restore 972 569 pd slots;
#X obj 845 45 inlet manual-reprint;
#X obj 227 276 t b b;
#X obj 898 84 r cgSc-\$1-aux;
#X obj 845 107 spigot 0;
#X obj 363 139 t a a;
#X obj 508 541 sc-module \$1 5 \$2;
#X obj 480 572 sc-module \$1 4 \$2;
#X obj 437 595 sc-module \$1 3 \$2;
#X obj 399 624 sc-module \$1 2 \$2;
#X obj 359 649 sc-module \$1 1 \$2;
#X obj 647 627 sc-module \$1 6 \$2;
#X obj 687 603 sc-module \$1 7 \$2;
#X obj 724 574 sc-module \$1 8 \$2;
#X obj 805 531 sc-module \$1 9 \$2;
#X obj 847 502 sc-module \$1 10 \$2;
#X obj 309 8 r notesRaw;
#X connect 0 0 21 0;
#X connect 2 0 14 0;
#X connect 2 1 5 0;
#X connect 3 0 37 0;
#X connect 3 1 36 0;
#X connect 3 2 35 0;
#X connect 3 3 34 0;
#X connect 3 4 33 0;
#X connect 3 5 38 0;
#X connect 3 6 39 0;
#X connect 3 7 40 0;
#X connect 3 8 41 0;
#X connect 3 9 42 0;
#X connect 3 10 27 0;
#X connect 6 0 12 1;
#X connect 7 0 8 0;
#X connect 12 0 8 0;
#X connect 13 0 3 0;
#X connect 13 0 7 0;
#X connect 14 0 20 0;
#X connect 14 1 1 0;
#X connect 16 0 18 0;
#X connect 17 0 16 0;
#X connect 17 1 19 0;
#X connect 18 0 11 0;
#X connect 19 0 11 0;
#X connect 21 0 2 0;
#X connect 21 1 13 1;
#X connect 21 2 6 0;
#X connect 21 3 17 0;
#X connect 21 4 15 0;
#X connect 22 1 23 0;
#X connect 23 0 25 0;
#X connect 24 0 22 0;
#X connect 24 1 25 1;
#X connect 25 0 32 0;
#X connect 27 0 26 0;
#X connect 28 0 31 0;
#X connect 29 0 14 0;
#X connect 29 1 5 0;
#X connect 30 0 31 1;
#X connect 31 0 29 0;
#X connect 32 0 13 0;
#X connect 32 1 12 0;
#X connect 43 0 24 0;
