#N canvas 453 50 823 634 10;
#X obj 304 186 r notesIn-\$1;
#X obj 304 491 s notesOut-\$1;
#X obj 23 9 r loaddefs-\$1;
#X msg 23 76 loaddefinitions \$1;
#X obj 181 9 r loadbang-\$1;
#X obj 181 76 print loading definiton for \$1;
#X obj 23 41 symbol;
#X obj 25 186 inlet~ inL-\$1;
#X obj 135 186 inlet~ inR-\$1;
#X obj 27 491 outlet~ outL-\$1;
#X obj 136 491 outlet~ outR-\$1;
#X obj 424 185 r auxIn-\$1;
#X obj 423 208 r expIn-\$1;
#X obj 423 233 r fsIn-\$1;
#X obj 421 76 s aux-label-\$1;
#X obj 516 45 int 0;
#X obj 516 76 s aux-led-\$1;
#X obj 421 45 symbol;
#N canvas 153 80 998 559 buffershufflr 0;
#N canvas 142 50 824 660 bufferfx1s 0;
#X obj 189 736 outlet~;
#X obj -72 256 inlet~;
#X obj 181 428 phasor~;
#X obj 179 504 *~;
#X obj 276 408 /;
#X obj 272 334 t b f;
#X obj 78 319 metro 500;
#X msg 166 355 1;
#X obj 76 345 t b b;
#X msg 58 366 start;
#X msg 107 365 stop;
#X obj 233 271 + 3;
#X obj 135 263 line;
#X msg 134 232 \$1 20;
#X obj 244 230 line;
#X msg 244 204 \$1 20;
#X msg 245 373 44100;
#X obj 106 115 hsl 128 8 30 1000 0 1 empty empty update -2 5 0 10 -262144
-1 -1 11267 1;
#X obj 106 127 hsl 128 8 3 70 0 1 empty empty length -2 5 0 10 -262144
-1 -1 1844 1;
#X obj 148 37 inlet;
#X obj 242 39 inlet;
#X obj -39 536 table \$0bufferfx1r 44100;
#X obj -31 506 table \$0bufferfx1l 44100;
#X obj -19 412 tabwrite~ \$0bufferfx1l;
#X obj 178 533 tabread4~ \$0bufferfx1l;
#X obj -26 207 inlet~;
#X obj 286 744 outlet~;
#X obj 17 455 tabwrite~ \$0bufferfx1r;
#X obj 248 572 tabread4~ \$0bufferfx1r;
#X obj 207 706 +~;
#X obj 245 686 *~;
#X obj 179 679 *~;
#X obj 202 620 * -1;
#X obj 200 644 + 1;
#X obj 309 714 +~;
#X obj 354 687 *~;
#X obj 284 691 *~;
#X obj 343 39 inlet;
#X obj 106 139 hsl 128 8 0 1 0 1 empty empty dry/wet -2 5 0 10 -262144
-1 -1 4428 1;
#X obj -27 103 r loadbang-\$1;
#X connect 1 0 23 0;
#X connect 1 0 31 1;
#X connect 2 0 3 0;
#X connect 3 0 24 0;
#X connect 3 0 28 0;
#X connect 4 0 3 1;
#X connect 5 0 16 0;
#X connect 5 1 4 1;
#X connect 6 0 7 0;
#X connect 6 0 8 0;
#X connect 7 0 2 1;
#X connect 8 0 9 0;
#X connect 8 1 10 0;
#X connect 9 0 23 0;
#X connect 9 0 27 0;
#X connect 10 0 23 0;
#X connect 10 0 27 0;
#X connect 11 0 5 0;
#X connect 11 0 2 0;
#X connect 12 0 6 1;
#X connect 13 0 12 0;
#X connect 14 0 11 0;
#X connect 15 0 14 0;
#X connect 16 0 4 0;
#X connect 17 0 13 0;
#X connect 18 0 15 0;
#X connect 19 0 17 0;
#X connect 20 0 18 0;
#X connect 24 0 30 1;
#X connect 25 0 27 0;
#X connect 25 0 36 0;
#X connect 28 0 35 1;
#X connect 29 0 0 0;
#X connect 30 0 29 1;
#X connect 31 0 29 0;
#X connect 32 0 33 0;
#X connect 33 0 31 0;
#X connect 33 0 36 1;
#X connect 34 0 26 0;
#X connect 35 0 34 1;
#X connect 36 0 34 0;
#X connect 37 0 38 0;
#X connect 38 0 35 0;
#X connect 38 0 32 0;
#X connect 38 0 30 0;
#X connect 39 0 6 0;
#X coords 0 -1 1 1 140 50 1 100 100;
#X restore 178 317 pd bufferfx1s;
#X floatatom 232 247 5 0 0 0 - - -, f 5;
#X floatatom 278 245 5 0 0 0 - - -, f 5;
#X obj 52 226 inlet~ L;
#X obj 148 229 inlet~ R;
#X obj 179 387 outlet~ L;
#X obj 311 389 outlet~ R;
#X obj 133 65 r buffer_update-\$1;
#X obj 256 113 r buffer_length-\$1;
#X obj 257 189 * 0.7;
#X obj 386 156 r buffer_wet-\$1;
#X obj 371 225 / 100;
#N canvas 228 137 918 513 wetdry 0;
#X obj 165 207 pack 0 50;
#X obj 200 254 line~;
#X obj 274 305 line~;
#X obj 274 281 pack 0 50;
#X obj 358 261 pack 0 50;
#X obj 269 212 / 100;
#X obj 274 330 osc~;
#X obj 340 355 *~;
#X obj 273 387 *~, f 10;
#X obj 186 424 +~, f 13;
#X obj 358 285 line~;
#X obj 241 489 snapshot~;
#X obj 319 423 metro 5;
#X floatatom 283 522 5 0 0 0 - - -, f 5;
#X obj 300 455 bng 15 250 50 0 empty empty empty 17 7 0 10 -262144
-1 -1;
#X obj 358 237 / 100;
#X obj 164 160 inlet;
#X obj 410 480 outlet;
#X obj 386 382 r loadbang-\$1;
#X obj 262 141 r lfo_s-\$1;
#X obj 382 143 r lfo_d-\$1;
#X connect 0 0 1 0;
#X connect 1 0 7 0;
#X connect 1 0 9 0;
#X connect 2 0 6 0;
#X connect 3 0 2 0;
#X connect 4 0 10 0;
#X connect 5 0 3 0;
#X connect 6 0 8 0;
#X connect 7 0 8 1;
#X connect 8 0 9 1;
#X connect 9 0 11 0;
#X connect 10 0 7 1;
#X connect 11 0 13 0;
#X connect 12 0 14 0;
#X connect 13 0 17 0;
#X connect 14 0 11 0;
#X connect 15 0 4 0;
#X connect 16 0 0 0;
#X connect 18 0 12 0;
#X connect 19 0 5 0;
#X connect 20 0 15 0;
#X restore 357 280 pd wetdry lfo;
#X obj 170 133 * 10;
#N canvas 230 131 918 513 length 0;
#X obj 165 207 pack 0 50;
#X obj 200 254 line~;
#X obj 274 305 line~;
#X obj 274 281 pack 0 50;
#X obj 358 261 pack 0 50;
#X obj 269 212 / 100;
#X obj 274 330 osc~;
#X obj 340 355 *~;
#X obj 273 387 *~, f 10;
#X obj 186 424 +~, f 13;
#X obj 358 285 line~;
#X obj 241 489 snapshot~;
#X obj 319 423 metro 5;
#X floatatom 283 522 5 0 0 0 - - -, f 5;
#X obj 300 455 bng 15 250 50 0 empty empty empty 17 7 0 10 -262144
-1 -1;
#X obj 358 237 / 100;
#X obj 164 160 inlet;
#X obj 410 480 outlet;
#X obj 386 382 r loadbang-\$1;
#X obj 262 141 r l_lfo_s-\$1;
#X obj 382 143 r l_lfo_d-\$1;
#X connect 0 0 1 0;
#X connect 1 0 7 0;
#X connect 1 0 9 0;
#X connect 2 0 6 0;
#X connect 3 0 2 0;
#X connect 4 0 10 0;
#X connect 5 0 3 0;
#X connect 6 0 8 0;
#X connect 7 0 8 1;
#X connect 8 0 9 1;
#X connect 9 0 11 0;
#X connect 10 0 7 1;
#X connect 11 0 13 0;
#X connect 12 0 14 0;
#X connect 13 0 17 0;
#X connect 14 0 11 0;
#X connect 15 0 4 0;
#X connect 16 0 0 0;
#X connect 18 0 12 0;
#X connect 19 0 5 0;
#X connect 20 0 15 0;
#X restore 262 148 pd length lfo;
#X connect 0 0 5 0;
#X connect 0 1 6 0;
#X connect 1 0 0 2;
#X connect 2 0 0 3;
#X connect 3 0 0 0;
#X connect 4 0 0 1;
#X connect 7 0 13 0;
#X connect 8 0 14 0;
#X connect 9 0 2 0;
#X connect 10 0 11 0;
#X connect 11 0 12 0;
#X connect 12 0 0 4;
#X connect 13 0 1 0;
#X connect 14 0 9 0;
#X restore 29 307 pd buffershufflr;
#X obj 23 112 KontrolModule \$1 F-buffershufflr;
#X obj 181 45 print loaded:buffershufflr into \$1, f 35;
#X connect 0 0 1 0;
#X connect 2 0 6 0;
#X connect 2 0 5 0;
#X connect 3 0 19 0;
#X connect 4 0 15 0;
#X connect 4 0 17 0;
#X connect 4 0 20 0;
#X connect 6 0 3 0;
#X connect 7 0 18 0;
#X connect 8 0 18 1;
#X connect 15 0 16 0;
#X connect 17 0 14 0;
#X connect 18 0 9 0;
#X connect 18 1 10 0;
