#N canvas 0 50 1364 725 10;
#X obj 213 379 throw~ outL;
#X obj 324 379 throw~ outR;
#X obj 58 44 r notes;
#X obj 64 94 pack 0 0 0, f 11;
#X obj 47 115 route 1 2 3 4 5 6 7 8, f 81;
#X obj 41 457 loadbang;
#X obj 835 49 r aux;
#X obj 813 151 i 0, f 5;
#X obj 883 151 + 1;
#X floatatom 813 221 5 0 0 0 - - -, f 5;
#X obj 835 112 sel 1;
#X obj 813 242 s led;
#X text 506 344 smooth knobs 1-3 \, send param updates to screen;
#X text 45 428 screen lines;
#X obj 813 199 + 2;
#X obj 813 13 loadbang;
#X text 914 148 the aux button changes waveform;
#X obj 977 286 s screenLine5;
#X obj 873 342 s screenLine5;
#X obj 1068 332 s screenLine5;
#X obj 1093 278 s screenLine5;
#X text 24 19 basic polyphonic patch with 8 voices;
#X obj 910 47 r fs;
#X text 299 98 aircraft carrier;
#X obj 79 317 bng 15 250 50 0 empty empty empty 17 7 0 10 -262144 -1
-1;
#X obj 356 321 +~;
#X obj 629 111 read_filter;
#X obj 56 180 voice;
#N canvas 0 50 1356 691 mod 0;
#X obj 197 223 textfile;
#X msg 164 191 bang;
#X msg 201 191 rewind;
#X obj 251 252 list split;
#X obj 227 128 nbx 5 14 -1e+037 1e+037 0 0 empty empty empty 0 -8 0
10 -262144 -1 -1 16 256;
#X obj 217 154 t b b b f;
#X obj 169 267 list length;
#X obj 170 291 nbx 5 14 -1e+037 1e+037 0 0 empty empty empty 0 -8 0
10 -262144 -1 -1 217 256;
#X obj 170 115 * 1;
#X obj 318 128 int;
#X obj 161 457 list;
#X obj 183 82 r knob3;
#X msg 254 192 read mod.txt;
#X msg 146 549 3: Mod \$1;
#X obj 248 539 s mod_speed;
#X obj 398 409 s tremolo_depth;
#X obj 307 488 s vibrato_depth;
#X obj 186 577 s screenLine3;
#X obj 291 70 loadbang;
#X msg 288 95 0;
#X obj 531 131 nbx 5 14 -1e+037 1e+037 0 0 empty empty empty 0 -8 0
10 -262144 -1 -1 0 256;
#X obj 301 220 * 7;
#X obj 278 280 list split 7;
#X obj 169 311 / 7;
#X obj 318 301 unpack s 0 0 0 0 0 0;
#X obj 418 361 s chorus_rate;
#X obj 506 367 s chorus_depth;
#X obj 622 370 s chorus_mix;
#X obj 583 167 nbx 5 14 -1e+037 1e+037 0 0 empty empty empty 0 -8 0
10 -262144 -1 -1 0 256;
#X obj 604 132 nbx 5 14 -1e+037 1e+037 0 0 empty empty empty 0 -8 0
10 -262144 -1 -1 0 256;
#X connect 0 0 3 0;
#X connect 0 0 6 0;
#X connect 1 0 0 0;
#X connect 2 0 0 0;
#X connect 3 1 22 0;
#X connect 4 0 5 0;
#X connect 5 0 1 0;
#X connect 5 1 2 0;
#X connect 5 2 12 0;
#X connect 5 3 21 0;
#X connect 6 0 7 0;
#X connect 7 0 23 0;
#X connect 8 0 9 0;
#X connect 9 0 4 0;
#X connect 10 0 13 0;
#X connect 11 0 8 0;
#X connect 12 0 0 0;
#X connect 13 0 17 0;
#X connect 18 0 19 0;
#X connect 19 0 4 0;
#X connect 20 0 25 0;
#X connect 21 0 3 1;
#X connect 22 0 24 0;
#X connect 23 0 8 1;
#X connect 24 0 10 0;
#X connect 24 1 14 0;
#X connect 24 2 16 0;
#X connect 24 3 15 0;
#X connect 24 4 25 0;
#X connect 24 5 26 0;
#X connect 24 6 27 0;
#X connect 28 0 26 0;
#X connect 29 0 27 0;
#X restore 730 68 pd mod;
#X obj 807 472 s filt_q;
#X obj 706 485 s filt_cutoff;
#X obj 691 378 nbx 5 14 -1e+037 1e+037 0 0 empty empty empty 0 -8 0
10 -262144 -1 -1 0 256;
#X obj 791 406 nbx 5 14 -1e+037 1e+037 0 0 empty empty empty 0 -8 0
10 -262144 -1 -1 0 256;
#X obj 376 296 freeverb~;
#X obj 451 235 delread~ delayline 800;
#X obj 400 260 *~ 0.5;
#X obj 353 286 +~;
#X obj 899 429 loadbang;
#X msg 880 458 2;
#N canvas 0 146 1356 721 effects 0;
#X obj 209 158 textfile;
#X msg 266 126 read effect.txt;
#X msg 176 126 bang;
#X msg 213 126 rewind;
#X obj 263 187 list split;
#X obj 239 63 nbx 5 14 -1e+037 1e+037 0 0 empty empty empty 0 -8 0
10 -262144 -1 -1 8 256;
#X obj 314 155 * 4;
#X obj 286 215 list split 4;
#X obj 229 89 t b b b f;
#X obj 181 202 list length;
#X obj 182 226 nbx 5 14 -1e+037 1e+037 0 0 empty empty empty 0 -8 0
10 -262144 -1 -1 88 256;
#X obj 181 247 / 4;
#X obj 196 17 r knob4;
#X obj 182 50 * 1;
#X obj 414 438 s delaylen;
#X obj 330 461 s delgain;
#X obj 261 474 s revmix;
#X obj 253 274 unpack s 0 0 0;
#X obj 330 63 int;
#X obj 441 298 print;
#X msg 145 441 4: FX \$1;
#X obj 360 308 nbx 5 14 -1e+037 1e+037 0 0 empty empty empty 0 -8 0
10 -262144 -1 -1 500 256;
#X obj 173 392 list;
#X obj 152 476 s screenLine4;
#X obj 470 28 loadbang;
#X msg 467 53 0;
#X connect 0 0 4 0;
#X connect 0 0 9 0;
#X connect 1 0 0 0;
#X connect 2 0 0 0;
#X connect 3 0 0 0;
#X connect 4 1 7 0;
#X connect 5 0 8 0;
#X connect 6 0 4 1;
#X connect 7 0 17 0;
#X connect 7 0 19 0;
#X connect 8 0 2 0;
#X connect 8 1 3 0;
#X connect 8 2 1 0;
#X connect 8 3 6 0;
#X connect 9 0 10 0;
#X connect 10 0 11 0;
#X connect 11 0 13 1;
#X connect 12 0 13 0;
#X connect 13 0 18 0;
#X connect 17 0 19 0;
#X connect 17 0 22 0;
#X connect 17 1 16 0;
#X connect 17 2 15 0;
#X connect 17 3 14 0;
#X connect 17 3 21 0;
#X connect 18 0 5 0;
#X connect 20 0 23 0;
#X connect 22 0 20 0;
#X connect 24 0 25 0;
#X connect 25 0 5 0;
#X restore 589 62 pd effects;
#X obj 465 190 r delaylen;
#X obj 580 215 r delgain;
#X obj 432 318 *~ 0;
#X obj 578 281 r revmix;
#X obj 470 216 nbx 5 14 -1e+037 1e+037 0 0 empty empty empty 0 -8 0
10 -262144 -1 -1 500 256;
#X obj 300 248 *~ 0.35;
#X msg 734 445 8;
#X msg 869 316 Aux: Octave -2;
#X msg 977 259 Aux: Octave -1;
#X msg 1068 306 Aux: Octave 0;
#X msg 1086 229 Aux: Octave +1;
#X obj 1047 496 s tranpose;
#X msg 1003 428 -24;
#X msg 1046 429 -12;
#X msg 1106 423 0;
#X msg 1136 445 12;
#X msg 40 502 \; screenLine1 1: Wave \; screenLine2 2: Env \; screenLine3
3: Mod \; screenLine4 4: FX \; screenLine5 Aux: Octave \;;
#N canvas 0 50 1356 691 env 0;
#X obj 166 535 s screenLine2;
#X obj 177 180 textfile;
#X msg 144 148 bang;
#X msg 181 148 rewind;
#X obj 231 209 list split;
#X obj 207 85 nbx 5 14 -1e+037 1e+037 0 0 empty empty empty 0 -8 0
10 -262144 -1 -1 3 256;
#X obj 197 111 t b b b f;
#X obj 149 224 list length;
#X obj 150 248 nbx 5 14 -1e+037 1e+037 0 0 empty empty empty 0 -8 0
10 -262144 -1 -1 120 256;
#X obj 150 72 * 1;
#X obj 298 85 int;
#X obj 141 414 list;
#X obj 164 39 r knob2;
#X msg 234 148 read env.txt;
#X obj 229 496 s attack;
#X obj 298 483 s decay;
#X obj 318 443 s sustain;
#X obj 386 407 s envfilt;
#X msg 126 506 2: Env \$1;
#X obj 465 323 s filt_q;
#X obj 458 368 s filt_cutoff;
#X obj 221 298 unpack s 0 0 0 0 0 0 0;
#X obj 149 269 / 8;
#X obj 254 237 list split 8;
#X obj 282 177 * 8;
#X obj 341 460 s release;
#X obj 267 34 loadbang;
#X msg 264 59 0;
#X connect 1 0 4 0;
#X connect 1 0 7 0;
#X connect 2 0 1 0;
#X connect 3 0 1 0;
#X connect 4 1 23 0;
#X connect 5 0 6 0;
#X connect 6 0 2 0;
#X connect 6 1 3 0;
#X connect 6 2 13 0;
#X connect 6 3 24 0;
#X connect 7 0 8 0;
#X connect 8 0 22 0;
#X connect 9 0 10 0;
#X connect 10 0 5 0;
#X connect 11 0 18 0;
#X connect 12 0 9 0;
#X connect 13 0 1 0;
#X connect 18 0 0 0;
#X connect 21 0 11 0;
#X connect 21 1 14 0;
#X connect 21 2 15 0;
#X connect 21 3 16 0;
#X connect 21 4 25 0;
#X connect 21 5 17 0;
#X connect 21 6 20 0;
#X connect 21 7 19 0;
#X connect 22 0 9 1;
#X connect 23 0 21 0;
#X connect 24 0 4 1;
#X connect 26 0 27 0;
#X connect 27 0 5 0;
#X restore 679 59 pd env;
#X obj 71 72 poly 8, f 11;
#X obj 110 358 delwrite~ chorusline 250;
#X obj 369 356 delwrite~ delayline 2000;
#X obj 403 480 +~ 8;
#X obj 405 427 osc~ 0.5;
#X obj 126 181 voice;
#X obj 197 181 voice;
#X obj 265 186 voice;
#X obj 350 159 voice;
#X obj 420 160 voice;
#X obj 438 165 voice;
#X obj 491 160 voice;
#X obj 421 531 r chorus_mix;
#X obj 483 422 r chorus_depth;
#X obj 447 392 r chorus_rate;
#X obj 406 454 *~ 0;
#X obj 400 554 *~ 0;
#X obj 484 451 * 2;
#X obj 479 473 + 2;
#X obj 870 203 sel 3 4 0 1 2, f 60;
#X obj 1185 280 s screenLine5;
#X msg 1184 251 Aux: Octave +2;
#X msg 1188 426 24;
#X obj 813 177 % 5;
#X obj 398 507 vd~ chorusline;
#X connect 2 0 58 0;
#X connect 3 0 4 0;
#X connect 4 0 24 0;
#X connect 4 0 27 0;
#X connect 4 1 63 0;
#X connect 4 2 64 0;
#X connect 4 3 65 0;
#X connect 4 4 66 0;
#X connect 4 5 67 0;
#X connect 4 6 68 0;
#X connect 4 7 69 0;
#X connect 6 0 10 0;
#X connect 7 0 8 0;
#X connect 7 0 81 0;
#X connect 8 0 7 1;
#X connect 9 0 11 0;
#X connect 10 0 7 0;
#X connect 14 0 9 0;
#X connect 15 0 7 0;
#X connect 22 0 10 0;
#X connect 25 0 1 0;
#X connect 25 0 0 0;
#X connect 27 0 45 0;
#X connect 31 0 30 0;
#X connect 32 0 29 0;
#X connect 33 0 42 0;
#X connect 34 0 35 0;
#X connect 35 0 36 1;
#X connect 36 0 33 0;
#X connect 36 0 25 0;
#X connect 36 0 60 0;
#X connect 37 0 38 0;
#X connect 37 0 46 0;
#X connect 38 0 29 0;
#X connect 40 0 34 0;
#X connect 40 0 44 0;
#X connect 41 0 35 1;
#X connect 42 0 25 1;
#X connect 43 0 42 1;
#X connect 45 0 36 0;
#X connect 45 0 59 0;
#X connect 46 0 30 0;
#X connect 47 0 18 0;
#X connect 48 0 17 0;
#X connect 49 0 19 0;
#X connect 50 0 20 0;
#X connect 52 0 51 0;
#X connect 53 0 51 0;
#X connect 54 0 51 0;
#X connect 55 0 51 0;
#X connect 58 0 3 0;
#X connect 58 1 3 1;
#X connect 58 2 3 2;
#X connect 61 0 82 0;
#X connect 62 0 73 0;
#X connect 63 0 45 0;
#X connect 64 0 45 0;
#X connect 65 0 45 0;
#X connect 66 0 45 0;
#X connect 67 0 45 0;
#X connect 68 0 45 0;
#X connect 69 0 45 0;
#X connect 70 0 74 1;
#X connect 71 0 73 1;
#X connect 71 0 75 0;
#X connect 72 0 62 0;
#X connect 73 0 61 0;
#X connect 74 0 36 0;
#X connect 75 0 76 0;
#X connect 76 0 61 1;
#X connect 77 0 47 0;
#X connect 77 0 52 0;
#X connect 77 1 48 0;
#X connect 77 1 53 0;
#X connect 77 2 49 0;
#X connect 77 2 54 0;
#X connect 77 3 50 0;
#X connect 77 3 55 0;
#X connect 77 4 79 0;
#X connect 77 4 80 0;
#X connect 79 0 78 0;
#X connect 80 0 51 0;
#X connect 81 0 14 0;
#X connect 81 0 77 0;
#X connect 82 0 74 0;
