#N canvas 0 50 1362 691 10;
#N canvas 0 50 450 250 (subpatch) 0;
#X array wave 337 float 4;
#X coords 0 1 336 -1 200 100 1 0 0;
#X restore 431 22 graph;
#X obj 1189 169 soundfiler;
#N canvas 0 50 450 250 (subpatch) 0;
#X array wave_2x 674 float 2;
#X coords 0 1 674 -1 200 100 1 0 0;
#X restore 430 139 graph;
#X obj 1086 398 t f f;
#X obj 1157 443 % 674;
#X obj 1062 421 % 337;
#X obj 820 384 +~ 0.5;
#X obj 1037 279 until;
#X obj 1054 203 t b b;
#X msg 1101 240 0;
#X obj 1039 315 float;
#X obj 1053 354 nbx 5 14 -1e+037 1e+037 0 0 empty empty empty 0 -8
0 10 -262144 -1 -1 673 256;
#X obj 1103 316 + 1;
#X obj 1126 224 bng 15 250 50 0 empty empty empty 17 7 0 10 -262144
-1 -1;
#X obj 1053 441 tabread wave;
#X obj 1088 469 tabwrite wave_2x;
#X obj 835 451 tabread4~ wave_2x;
#X obj 1179 16 openpanel;
#X obj 1179 0 bng 15 250 50 0 empty empty empty 17 7 0 10 -262144 -1
-1;
#X obj 1190 226 nbx 5 14 -1e+037 1e+037 0 0 empty empty empty 0 -8
0 10 -262144 -1 -1 337 256;
#X obj 1183 341 s wave_2x;
#X msg 1201 309 resize \$1;
#X obj 1202 269 * 2;
#X obj 1030 244 float;
#X obj 1127 202 t b f;
#X obj 979 300 nbx 5 14 -1e+037 1e+037 0 0 empty empty empty 0 -8 0
10 -262144 -1 -1 674 256;
#X obj 1226 397 s tablesize;
#X obj 1219 187 sel 0;
#X msg 1250 90 read -resize \$1 wave;
#X obj 835 478 rfft~;
#X obj 811 530 tabwrite~ real;
#N canvas 0 50 450 250 (subpatch) 0;
#X array real 256 float 2;
#X coords 0 128 256 -128 200 100 1 0 0;
#X restore 647 143 graph;
#X obj 658 266 bng 15 250 50 0 empty empty empty 17 7 0 10 -262144
-1 -1;
#N canvas 0 50 450 250 (subpatch) 0;
#X array imaginary 256 float 2;
#X coords 0 128 256 -128 200 100 1 0 0;
#X restore 644 29 graph;
#X obj 862 506 tabwrite~ imaginary;
#X obj 415 541 tabplay~ imaginary;
#X obj 366 525 tabplay~ real;
#X obj 434 495 bang~;
#X obj 399 558 rifft~;
#N canvas 0 50 450 250 (subpatch) 0;
#X array wavemap 6144 float 2;
#X coords 0 1 6143 -1 400 100 1 0 0;
#X restore 17 18 graph;
#X obj 385 599 /~ 512;
#X obj 267 520 tabwrite~ real;
#X obj 254 497 tabwrite~ imaginary;
#X msg 204 441 start 32;
#X msg 197 392 start 128;
#X msg 205 418 start 64;
#X msg 253 460 start 16;
#X msg 299 473 start 8;
#X obj 828 419 *~ 337;
#X obj 866 394 r tablesize;
#X obj 882 240 delay 50;
#X obj 400 297 delay 50;
#X obj 131 285 metro 50;
#X obj 144 256 t b b;
#X msg 194 286 0;
#X obj 138 307 float;
#X obj 148 237 bng 15 250 50 0 empty empty empty 17 7 0 10 -262144
-1 -1;
#X obj 155 333 + 1;
#X obj 107 362 sel 0 1 2 3 4 5 6 7 8 9 10 11 12;
#X obj 207 627 tabwrite~ wavemap;
#X msg 95 408 start 0;
#X msg 108 436 start 1024;
#X msg 127 471 start 2048;
#X msg 164 511 start 3072;
#X msg 203 544 start 4096;
#X msg 191 569 start 5120;
#X obj 818 347 phasor~ 86.1328;
#X obj 608 584 switch~ 512 1 1;
#X msg 241 287 stop;
#X msg 596 533 0;
#X msg 635 532 1;
#N canvas 0 50 1276 714 filename 0;
#X obj 151 365 textfile;
#X msg 102 308 bang;
#X msg 155 293 rewind;
#X obj 165 384 list split;
#X msg 188 456 \$1;
#X obj 128 246 t b b f b;
#X msg 154 201 0;
#X obj 209 499 list;
#X msg 143 330 read samples/samples.txt;
#X msg 209 557 1: Wave \$1;
#X obj 155 155 change -1;
#X obj 102 119 int;
#X obj 105 85 * 64;
#X obj 152 400 list length;
#X obj 0 200 nbx 5 14 -1e+037 1e+037 0 0 empty empty empty 0 -8 0 10
-262144 -1 -1 78 256;
#X obj 47 124 - 1;
#X obj 66 20 loadbang;
#X msg 69 64 0;
#X obj 218 67 nbx 5 14 -1e+037 1e+037 0 0 empty empty empty 0 -8 0
10 -262144 -1 -1 0 256;
#X obj 96 596 outlet;
#X obj 216 27 inlet;
#X obj 106 503 bng 15 250 50 0 empty empty empty 17 7 0 10 -262144
-1 -1;
#X obj 117 556 list;
#X obj 96 524 delay 100;
#X obj 321 23 r knob1_apt;
#X obj 212 585 s screenLine1_apt;
#X obj 329 390 loadbang;
#X msg 296 414 0;
#X obj 245 468 symbol;
#X obj 266 422 bng 15 250 50 0 empty empty empty 17 7 0 10 -262144
-1 -1;
#X obj 151 36 del 15;
#X obj 321 133 t f b;
#X obj 75 207 change -1;
#X obj 245 225 bng 15 250 50 0 empty empty empty 17 7 0 10 -262144
-1 -1;
#X obj 436 150 * 256;
#X obj 473 210 i;
#X connect 0 0 3 0;
#X connect 0 0 13 0;
#X connect 1 0 0 0;
#X connect 2 0 0 0;
#X connect 3 1 4 0;
#X connect 4 0 28 0;
#X connect 5 0 1 0;
#X connect 5 1 2 0;
#X connect 5 2 3 1;
#X connect 5 3 8 0;
#X connect 6 0 5 0;
#X connect 7 0 9 0;
#X connect 7 0 22 1;
#X connect 7 0 21 0;
#X connect 8 0 0 0;
#X connect 9 0 25 0;
#X connect 10 0 5 0;
#X connect 10 0 33 0;
#X connect 11 0 10 0;
#X connect 12 0 11 0;
#X connect 13 0 15 0;
#X connect 15 0 14 0;
#X connect 15 0 12 1;
#X connect 16 0 30 0;
#X connect 17 0 12 0;
#X connect 18 0 11 0;
#X connect 20 0 11 0;
#X connect 21 0 23 0;
#X connect 22 0 19 0;
#X connect 23 0 22 0;
#X connect 24 0 31 0;
#X connect 26 0 27 0;
#X connect 27 0 4 0;
#X connect 28 0 7 0;
#X connect 29 0 28 0;
#X connect 30 0 17 0;
#X connect 31 0 12 0;
#X restore 1110 63 pd filename;
#X obj 1112 42 nbx 5 14 -1e+037 1e+037 0 0 empty empty empty 0 -8 0
10 -262144 -1 -1 13 256;
#X text 1260 275 1 load wave;
#X text 964 176 2 copy to wave_2x twice;
#X text 803 322 3 create FFT;
#X text 65 189 4 repeatedly remove half of the spectrum \, reconstruct
FFT \, and write to wavemap;
#X text 588 500 turn subpatch DSP on/off;
#X obj 947 83 print;
#X msg 1138 147 read -resize ./samples/\$1 wave;
#X obj 26 323 s mute-\$0;
#X obj 979 140 s quickmute;
#X msg 1033 92 100;
#X obj 1121 109 list;
#X obj 1118 90 del 50;
#X obj 1125 130 list trim;
#X connect 1 0 19 0;
#X connect 1 0 27 0;
#X connect 3 0 5 0;
#X connect 3 1 4 0;
#X connect 4 0 15 1;
#X connect 5 0 14 0;
#X connect 6 0 48 0;
#X connect 7 0 10 0;
#X connect 8 0 23 0;
#X connect 8 1 9 0;
#X connect 9 0 10 1;
#X connect 10 0 11 0;
#X connect 11 0 12 0;
#X connect 11 0 3 0;
#X connect 12 0 10 1;
#X connect 13 0 8 0;
#X connect 13 0 70 0;
#X connect 14 0 15 0;
#X connect 14 0 50 0;
#X connect 16 0 29 0;
#X connect 17 0 28 0;
#X connect 17 0 78 0;
#X connect 18 0 17 0;
#X connect 19 0 22 0;
#X connect 19 0 5 1;
#X connect 19 0 26 0;
#X connect 21 0 20 0;
#X connect 22 0 21 0;
#X connect 22 0 4 1;
#X connect 22 0 23 1;
#X connect 23 0 7 0;
#X connect 23 0 25 0;
#X connect 24 0 13 0;
#X connect 24 1 19 0;
#X connect 27 1 24 0;
#X connect 28 0 1 0;
#X connect 29 0 30 0;
#X connect 29 1 34 0;
#X connect 32 0 30 0;
#X connect 32 0 34 0;
#X connect 32 0 51 0;
#X connect 35 0 38 1;
#X connect 36 0 38 0;
#X connect 37 0 36 0;
#X connect 37 0 35 0;
#X connect 38 0 40 0;
#X connect 40 0 59 0;
#X connect 43 0 42 0;
#X connect 43 0 41 0;
#X connect 44 0 42 0;
#X connect 44 0 41 0;
#X connect 45 0 42 0;
#X connect 45 0 41 0;
#X connect 46 0 42 0;
#X connect 46 0 41 0;
#X connect 47 0 42 0;
#X connect 47 0 41 0;
#X connect 48 0 16 0;
#X connect 49 0 48 1;
#X connect 50 0 32 0;
#X connect 51 0 56 0;
#X connect 52 0 55 0;
#X connect 52 0 80 0;
#X connect 53 0 52 0;
#X connect 53 1 54 0;
#X connect 54 0 55 1;
#X connect 55 0 57 0;
#X connect 55 0 58 0;
#X connect 56 0 53 0;
#X connect 57 0 55 1;
#X connect 58 0 60 0;
#X connect 58 1 44 0;
#X connect 58 2 61 0;
#X connect 58 3 45 0;
#X connect 58 4 62 0;
#X connect 58 5 43 0;
#X connect 58 6 63 0;
#X connect 58 7 46 0;
#X connect 58 8 64 0;
#X connect 58 9 47 0;
#X connect 58 10 65 0;
#X connect 58 11 68 0;
#X connect 58 12 69 0;
#X connect 60 0 59 0;
#X connect 61 0 59 0;
#X connect 62 0 59 0;
#X connect 63 0 59 0;
#X connect 64 0 59 0;
#X connect 65 0 59 0;
#X connect 66 0 6 0;
#X connect 68 0 52 0;
#X connect 69 0 67 0;
#X connect 70 0 67 0;
#X connect 71 0 82 0;
#X connect 71 0 79 0;
#X connect 71 0 84 0;
#X connect 72 0 71 0;
#X connect 79 0 1 0;
#X connect 82 0 81 0;
#X connect 83 0 85 0;
#X connect 84 0 83 0;
#X connect 85 0 79 0;
