#N canvas 255 50 900 634 10;
#X obj 304 186 r notesIn-\$1;
#X obj 304 491 s notesOut-\$1;
#X obj 23 9 r loaddefs-\$1;
#X msg 23 76 loaddefinitions \$1;
#X obj 181 9 r loadbang-\$1;
#X obj 181 76 print loading definiton for \$1;
#X obj 23 41 symbol;
#X obj 25 186 inlet~ inL-\$1;
#X obj 135 186 inlet~ inR-\$1;
#X obj 27 491 outlet~ outL-\$1;
#X obj 144 492 outlet~ outR-\$1;
#X obj 424 185 r auxIn-\$1;
#X obj 423 208 r expIn-\$1;
#X obj 423 233 r fsIn-\$1;
#X obj 181 45 print loaded:default into \$1, f 35;
#X obj 457 129 s aux-label-\$1;
#X obj 606 43 int 0;
#X obj 606 74 s aux-led-\$1;
#X obj 327 288 s lfod-1-notes-in;
#X obj 359 402 s lfod-1-ratea;
#X obj 476 400 s lfod-1-rateb;
#X obj 599 400 s lfod-1-scalar;
#X obj 726 400 s lfod-1-dw;
#X obj 25 248 s~ lfod-1-audio-in;
#X obj 28 349 r~ lfod-1-audio-out;
#X obj 47 301 LFODelay 1;
#X obj 359 369 / 100;
#X obj 474 367 / 100;
#X obj 595 369 / 100;
#X obj 725 366 / 100;
#X obj 359 335 r ratea-\$1;
#X obj 476 334 r rateb-\$1;
#X obj 593 338 r scalar-\$1;
#X obj 726 334 r dw-\$1;
#X obj 24 112 KontrolModule \$1 F-lfodelay;
#X msg 417 99 Oct 1 Dly Oct2 Fdbck;
#X connect 0 0 1 0;
#X connect 0 0 18 0;
#X connect 2 0 6 0;
#X connect 2 0 5 0;
#X connect 3 0 34 0;
#X connect 4 0 14 0;
#X connect 4 0 16 0;
#X connect 4 0 35 0;
#X connect 6 0 3 0;
#X connect 7 0 23 0;
#X connect 8 0 23 0;
#X connect 16 0 17 0;
#X connect 24 0 9 0;
#X connect 24 0 10 0;
#X connect 26 0 19 0;
#X connect 27 0 20 0;
#X connect 28 0 21 0;
#X connect 29 0 22 0;
#X connect 30 0 26 0;
#X connect 31 0 27 0;
#X connect 32 0 28 0;
#X connect 33 0 29 0;
#X connect 35 0 15 0;
