#N canvas 25 90 1360 729 10;
#X obj 170 113 folder_list;
#X msg 183 91 symbol ../../Samples/*.wav;
#X obj 174 25 t b b;
#X obj 249 178 + 1;
#X obj 236 139 f 0;
#X obj 166 133 t a b;
#X msg 282 116 0;
#X obj 249 201 nbx 5 14 -1e+037 1e+037 0 0 empty empty empty 0 -8 0
10 -262144 -1 -1 70 256;
#X obj 142 21 bng 15 250 50 0 empty empty empty 17 7 0 10 -262144 -1
-1;
#X obj 133 176 list append;
#X obj 152 217 list;
#X obj 96 210 bng 15 250 50 0 empty empty empty 17 7 0 10 -262144 -1
-1;
#X obj 104 241 list;
#X obj 173 4 loadbang;
#X obj 49 192 * 1;
#X obj 45 6 inlet;
#X obj 45 237 int;
#X obj 52 268 change;
#X obj 81 284 t b f;
#X obj 185 291 list split 1;
#X obj 174 261 list split 0;
#X obj 80 43 vsl 15 64 0 1 0 0 empty empty empty 0 -9 0 10 -262144
-1 -1 0 1;
#X obj 299 327 s2l /;
#X obj 352 374 list length;
#X obj 311 357 t a a;
#X obj 374 406 - 1;
#X obj 324 438 list split;
#X msg 358 467 \$1;
#X obj 347 493 outlet;
#X obj 396 136 route float stop start;
#X obj 401 74 nbx 5 14 -1e+037 1e+037 0 0 empty empty empty 0 -8 0
10 -262144 -1 -1 0 256;
#X msg 454 88 stop;
#X msg 476 93 start;
#X obj 442 163 bng 15 250 50 0 empty empty empty 17 7 0 10 -262144
-1 -1;
#X obj 486 176 bng 15 250 50 0 empty empty empty 17 7 0 10 -262144
-1 -1;
#X obj 243 548 outlet~;
#X obj 232 509 readsf~;
#X msg 157 486 open \$1;
#X msg 243 568;
#X msg 412 235 0;
#X obj 201 389 list;
#X obj 315 532 bng 15 250 50 0 empty empty empty 17 7 0 10 -262144
-1 -1;
#X obj 492 293 t b b;
#X obj 492 313 del 50;
#X msg 486 356 1;
#X obj 662 45 os_check;
#X obj 178 45 os_switch;
#X msg 135 70 symbol /tmp/media/samples/*.wav;
#X connect 0 0 5 0;
#X connect 1 0 0 0;
#X connect 2 0 46 0;
#X connect 2 1 6 0;
#X connect 3 0 4 1;
#X connect 3 0 7 0;
#X connect 4 0 3 0;
#X connect 5 0 9 0;
#X connect 5 1 4 0;
#X connect 6 0 4 1;
#X connect 7 0 14 1;
#X connect 8 0 2 0;
#X connect 9 0 10 0;
#X connect 10 0 9 1;
#X connect 10 0 12 1;
#X connect 11 0 12 0;
#X connect 12 0 20 0;
#X connect 13 0 2 0;
#X connect 14 0 16 0;
#X connect 15 0 14 0;
#X connect 15 0 29 0;
#X connect 16 0 17 0;
#X connect 17 0 18 0;
#X connect 18 0 12 0;
#X connect 18 1 20 1;
#X connect 19 0 22 0;
#X connect 19 0 40 1;
#X connect 20 1 19 0;
#X connect 21 0 14 0;
#X connect 22 0 24 0;
#X connect 23 0 25 0;
#X connect 24 0 26 0;
#X connect 24 1 23 0;
#X connect 25 0 26 1;
#X connect 26 1 27 0;
#X connect 27 0 28 0;
#X connect 29 1 33 0;
#X connect 29 2 34 0;
#X connect 30 0 29 0;
#X connect 31 0 29 0;
#X connect 32 0 29 0;
#X connect 33 0 39 0;
#X connect 34 0 42 0;
#X connect 36 0 35 0;
#X connect 37 0 36 0;
#X connect 39 0 36 0;
#X connect 40 0 37 0;
#X connect 41 0 40 0;
#X connect 42 0 43 0;
#X connect 42 1 41 0;
#X connect 43 0 44 0;
#X connect 44 0 36 0;
#X connect 46 0 47 0;
#X connect 46 1 1 0;
#X connect 47 0 0 0;
