#N canvas 43 154 674 712 10;
#X obj 47 144 tgl 15 0 key2 key2 empty 17 7 0 10 -33289 -262144 -1
0 1;
#X obj 55 18 vsl 15 96 0 1 0 0 knob1 knob1 empty 0 -9 0 10 -262144
-1 -1 4750 1;
#X obj 84 21 vsl 15 96 0 1 0 0 knob2 knob2 empty 0 -9 0 10 -262144
-1 -1 4750 1;
#X obj 110 22 vsl 15 96 0 1 0 0 knob3 knob3 empty 0 -9 0 10 -262144
-1 -1 4750 1;
#X obj 136 22 vsl 15 96 0 1 0 0 knob4 knob4 empty 0 -9 0 10 -262144
-1 -1 4750 1;
#X obj 207 23 vsl 15 96 0 1 0 0 exp exp empty 0 -9 0 10 -262144 -1
-1 4750 1;
#X obj 6 178 tgl 15 0 aux aux empty 17 7 0 10 -262144 -1 -1 0 1;
#X obj 238 97 tgl 15 0 fs fs empty 17 7 0 10 -262144 -1 -1 0 1;
#N canvas 0 50 1360 725 audioIO 0;
#X obj 513 336 dac~;
#X obj 578 102 catch~ outR;
#X obj 484 104 catch~ outL;
#X obj 196 122 adc~, f 6;
#X obj 285 245 s~ inR;
#X obj 110 244 s~ inL;
#X obj 487 273 *~;
#X obj 576 275 *~;
#X obj 810 69 r vol;
#X obj 810 122 *;
#X obj 810 95 t f f;
#X obj 810 150 sig~;
#X obj 810 176 lop~ 2;
#X obj 482 179 clip~ -1 1;
#X obj 571 179 clip~ -1 1;
#X text 268 34 Receives and sends audio to patch. Outgoing audio is
run through a compressor to provide some headroom if things get too
loud. Also sends values to the Organelle's OLED VU meter.;
#X obj 742 360 vsl 15 128 0 1 0 0 empty empty empty 0 -9 0 10 -262144
-1 -1 10160 1;
#X obj 742 326 r vol;
#X obj 198 178 *~ 2;
#X obj 444 450 tabwrite~ scope;
#X obj 372 339 bng 15 250 50 0 empty scope_start empty 17 7 0 10 -262144
-1 -1;
#X obj 407 335 bng 15 250 50 0 empty scope_stop empty 17 7 0 10 -262144
-1 -1;
#X msg 406 355 stop;
#X obj 354 380 metro 244.648;
#X msg 86 123 \; pd dsp 1, f 10;
#X obj 86 65 loadbang;
#X obj 86 97 delay 100;
#X obj 485 134 *~ 0.3;
#X obj 586 133 *~ 0.3;
#X obj 912 448 writesf~ 2;
#X msg 1014 379 start;
#X text 1002 372 start streaming audio;
#X msg 940 343 open -bytes 4 /tmp/foo.wav;
#X msg 940 316 open -bytes 3 /tmp/foo.wav;
#X msg 974 379 stop;
#X obj 974 212 t b b;
#X msg 941 289 open foo-\$1.wav;
#X obj 974 173 r record_on;
#X obj 901 167 r record_off;
#X obj 1036 210 random 10240;
#X connect 1 0 28 0;
#X connect 2 0 27 0;
#X connect 3 0 18 0;
#X connect 3 1 18 0;
#X connect 6 0 0 0;
#X connect 6 0 19 0;
#X connect 6 0 29 0;
#X connect 7 0 0 1;
#X connect 7 0 19 0;
#X connect 7 0 29 1;
#X connect 8 0 10 0;
#X connect 9 0 11 0;
#X connect 10 0 9 0;
#X connect 10 1 9 1;
#X connect 11 0 12 0;
#X connect 12 0 7 1;
#X connect 12 0 6 1;
#X connect 13 0 6 0;
#X connect 14 0 7 0;
#X connect 17 0 16 0;
#X connect 18 0 4 0;
#X connect 18 0 5 0;
#X connect 20 0 23 0;
#X connect 21 0 22 0;
#X connect 22 0 23 0;
#X connect 23 0 19 0;
#X connect 25 0 26 0;
#X connect 26 0 24 0;
#X connect 27 0 13 0;
#X connect 28 0 14 0;
#X connect 30 0 29 0;
#X connect 34 0 29 0;
#X connect 35 0 30 0;
#X connect 35 1 39 0;
#X connect 36 0 29 0;
#X connect 37 0 35 0;
#X connect 38 0 34 0;
#X connect 39 0 36 0;
#X restore 475 41 pd audioIO;
#N canvas 0 183 1276 690 MIDI 0;
#X obj 372 90 notein;
#X obj 372 126 pack;
#X obj 372 158 spigot 1;
#X obj 446 106 r midiInGate;
#X obj 341 333 s notes;
#X obj 1285 204 spigot 1;
#X obj 1373 160 r midiInGate;
#X obj 1285 153 ctlin 64 1;
#X obj 1285 301 s fs;
#X obj 1285 234 >= 64;
#X obj 1285 266 change;
#X obj 1478 214 spigot 1;
#X obj 1566 170 r midiInGate;
#X obj 1478 244 t f b;
#X obj 1478 282 / 127;
#X obj 1478 175 change;
#X obj 1478 148 ctlin 26 1;
#X obj 1530 277 s expOverride;
#X obj 1478 304 s exp;
#X text 489 536 This desktop mother patch doesn't currently send any
MIDI;
#X obj 432 281 s notes_raw;
#X obj 287 267 r keybd_notes;
#X connect 0 0 1 0;
#X connect 0 1 1 1;
#X connect 1 0 2 0;
#X connect 2 0 4 0;
#X connect 2 0 20 0;
#X connect 3 0 2 1;
#X connect 5 0 9 0;
#X connect 6 0 5 1;
#X connect 7 0 5 0;
#X connect 9 0 10 0;
#X connect 10 0 8 0;
#X connect 11 0 13 0;
#X connect 12 0 11 1;
#X connect 13 0 14 0;
#X connect 13 1 17 0;
#X connect 14 0 18 0;
#X connect 15 0 11 0;
#X connect 16 0 15 0;
#X connect 21 0 4 0;
#X restore 476 68 pd MIDI;
#X obj 60 165 tgl 15 0 key3 key3 empty 17 7 0 10 -262144 -1 -1 0 1
;
#X obj 73 143 tgl 15 0 key4 key4 empty 17 7 0 10 -33289 -262144 -1
0 1;
#X obj 84 165 tgl 15 0 key5 key5 empty 17 7 0 10 -262144 -1 -1 0 1
;
#X obj 110 165 tgl 15 0 key6 key6 empty 17 7 0 10 -262144 -1 -1 0 1
;
#X obj 121 144 tgl 15 0 key7 key7 empty 17 7 0 10 -33289 -262144 -1
0 1;
#X obj 135 165 tgl 15 0 key8 key8 empty 17 7 0 10 -262144 -1 -1 0 1
;
#X obj 146 144 tgl 15 0 key9 key9 empty 17 7 0 10 -33289 -262144 -1
0 1;
#X obj 160 165 tgl 15 0 key10 key10 empty 17 7 0 10 -262144 -1 -1 0
1;
#X obj 172 144 tgl 15 0 key11 key11 empty 17 7 0 10 -33289 -262144
-1 0 1;
#X obj 185 165 tgl 15 0 key12 key12 empty 17 7 0 10 -262144 -33289
-1 0 1;
#X obj 207 165 tgl 15 0 key13 key13 empty 17 7 0 10 -262144 -1 -1 0
1;
#X obj 218 144 tgl 15 0 key14 key14 empty 17 7 0 10 -33289 -262144
-1 0 1;
#X obj 231 165 tgl 15 0 key15 key15 empty 17 7 0 10 -262144 -1 -1 0
1;
#X obj 244 143 tgl 15 0 key16 key16 empty 17 7 0 10 -33289 -262144
-1 0 1;
#X obj 256 165 tgl 15 0 key17 key17 empty 17 7 0 10 -262144 -1 -1 0
1;
#X obj 281 165 tgl 15 0 key18 key18 empty 17 7 0 10 -262144 -1 -1 0
1;
#X obj 292 144 tgl 15 0 key19 key19 empty 17 7 0 10 -33289 -262144
-1 0 1;
#X obj 306 165 tgl 15 0 key20 key20 empty 17 7 0 10 -262144 -1 -1 0
1;
#X obj 317 144 tgl 15 0 key21 key21 empty 17 7 0 10 -33289 -262144
-1 0 1;
#X obj 331 165 tgl 15 0 key22 key22 empty 17 7 0 10 -262144 -1 -1 0
1;
#X obj 343 144 tgl 15 0 key23 key23 empty 17 7 0 10 -33289 -262144
-1 0 1;
#X obj 355 165 tgl 15 0 key24 key24 empty 17 7 0 10 -262144 -33289
-1 0 1;
#X obj 36 165 tgl 15 0 key1 key1 empty 17 7 0 10 -262144 -1 -1 0 1
;
#X text 3 151 aux;
#X obj 167 23 vsl 15 96 0 1 0 0 vol vol empty 0 -9 0 10 -262144 -1
-1 7600 1;
#X obj 239 61 bng 15 250 50 0 send-all-vals empty empty 17 7 0 10 -262144
-1 -1;
#X obj 6 129 cnv 17 17 17 empty empty empty 20 12 0 14 -33289 -262144
0;
#N canvas 92 50 681 716 desktop-stuff 0;
#X obj 32 33 r send-all-vals;
#X obj 84 96 s knob2;
#X obj 44 124 s knob3;
#X obj 99 122 s knob4;
#X obj 116 162 s exp;
#X obj 300 47 r screenLine1;
#X obj 389 46 r screenLine2;
#X obj 476 46 r screenLine3;
#X obj 565 45 r screenLine4;
#X obj 444 43 r screenLine5;
#X obj 67 240 r led;
#X msg 69 429 \; led-canvas color \$1 0;
#X obj 68 335 sel 0 1 2 3 4 5 6 7, f 63;
#X msg 68 365 22;
#X msg 111 365 13;
#X msg 155 366 15;
#X msg 198 364 16;
#X msg 250 367 17;
#X msg 306 367 18;
#X msg 351 376 19;
#X obj 67 284 % 8;
#X msg 396 374 0;
#X obj 202 257 loadbang;
#X msg 202 279 0;
#X obj 5 55 bng 15 250 50 0 empty empty empty 17 7 0 10 -262144 -1
-1;
#N canvas 0 50 1362 691 f 0;
#X obj 63 177 s print1;
#X obj 63 55 r screenLine1;
#X obj 257 67 r screenLine2;
#X obj 437 51 r screenLine3;
#X obj 703 65 r screenLine4;
#X obj 573 45 r screenLine5;
#X obj 257 197 s print2;
#X obj 407 172 s print3;
#X obj 704 183 s print4;
#X obj 584 166 s print5;
#X msg 362 51 set _;
#X obj 357 29 loadbang;
#X msg 413 136 set \$1;
#N canvas 579 238 450 300 concat2 0;
#X obj 198 101 list length;
#X obj 210 170 == 4;
#X obj 100 272 spigot;
#X obj 84 99 t l l;
#X obj 14 191 spigot;
#X obj 58 170 == 1;
#X obj 59 191 spigot;
#X obj 91 168 == 2;
#X obj 140 196 spigot;
#X obj 220 202 == 3;
#X obj 174 248 spigot;
#X obj 308 215 == 5;
#X obj 87 74 list;
#X msg 13 216 \$1;
#X msg 58 216 \$1_\$2;
#X msg 139 221 \$1_\$2_\$3;
#X msg 224 275 \$1_\$2_\$3_\$4_\$5;
#X msg 113 294 \$1_\$2_\$3_\$4;
#X obj 84 327 list;
#X obj 108 24 inlet;
#X obj 81 368 outlet;
#X connect 0 0 1 0;
#X connect 0 0 5 0;
#X connect 0 0 7 0;
#X connect 0 0 9 0;
#X connect 0 0 11 0;
#X connect 1 0 2 1;
#X connect 2 0 17 0;
#X connect 3 0 2 0;
#X connect 3 0 4 0;
#X connect 3 0 6 0;
#X connect 3 0 8 0;
#X connect 3 0 10 0;
#X connect 3 1 0 0;
#X connect 4 0 13 0;
#X connect 5 0 4 1;
#X connect 6 0 14 0;
#X connect 7 0 6 1;
#X connect 8 0 15 0;
#X connect 9 0 8 1;
#X connect 10 0 16 0;
#X connect 11 0 10 1;
#X connect 12 0 3 0;
#X connect 13 0 18 0;
#X connect 14 0 18 0;
#X connect 15 0 18 0;
#X connect 16 0 18 0;
#X connect 17 0 18 0;
#X connect 18 0 20 0;
#X connect 19 0 12 0;
#X restore 409 108 pd concat2;
#X msg 62 127 set \$1;
#N canvas 579 238 450 300 concat2 0;
#X obj 198 101 list length;
#X obj 210 170 == 4;
#X obj 100 272 spigot;
#X obj 84 99 t l l;
#X obj 14 191 spigot;
#X obj 58 170 == 1;
#X obj 59 191 spigot;
#X obj 91 168 == 2;
#X obj 140 196 spigot;
#X obj 220 202 == 3;
#X obj 174 248 spigot;
#X obj 308 215 == 5;
#X obj 87 74 list;
#X msg 13 216 \$1;
#X msg 58 216 \$1_\$2;
#X msg 139 221 \$1_\$2_\$3;
#X msg 224 275 \$1_\$2_\$3_\$4_\$5;
#X msg 113 294 \$1_\$2_\$3_\$4;
#X obj 84 327 list;
#X obj 108 24 inlet;
#X obj 81 368 outlet;
#X connect 0 0 1 0;
#X connect 0 0 5 0;
#X connect 0 0 7 0;
#X connect 0 0 9 0;
#X connect 0 0 11 0;
#X connect 1 0 2 1;
#X connect 2 0 17 0;
#X connect 3 0 2 0;
#X connect 3 0 4 0;
#X connect 3 0 6 0;
#X connect 3 0 8 0;
#X connect 3 0 10 0;
#X connect 3 1 0 0;
#X connect 4 0 13 0;
#X connect 5 0 4 1;
#X connect 6 0 14 0;
#X connect 7 0 6 1;
#X connect 8 0 15 0;
#X connect 9 0 8 1;
#X connect 10 0 16 0;
#X connect 11 0 10 1;
#X connect 12 0 3 0;
#X connect 13 0 18 0;
#X connect 14 0 18 0;
#X connect 15 0 18 0;
#X connect 16 0 18 0;
#X connect 17 0 18 0;
#X connect 18 0 20 0;
#X connect 19 0 12 0;
#X restore 68 98 pd concat2;
#X msg 254 135 set \$1;
#N canvas 579 238 450 300 concat2 0;
#X obj 198 101 list length;
#X obj 210 170 == 4;
#X obj 100 272 spigot;
#X obj 84 99 t l l;
#X obj 14 191 spigot;
#X obj 58 170 == 1;
#X obj 59 191 spigot;
#X obj 91 168 == 2;
#X obj 140 196 spigot;
#X obj 220 202 == 3;
#X obj 174 248 spigot;
#X obj 308 215 == 5;
#X obj 87 74 list;
#X msg 13 216 \$1;
#X msg 58 216 \$1_\$2;
#X msg 139 221 \$1_\$2_\$3;
#X msg 224 275 \$1_\$2_\$3_\$4_\$5;
#X msg 113 294 \$1_\$2_\$3_\$4;
#X obj 84 327 list;
#X obj 108 24 inlet;
#X obj 81 368 outlet;
#X connect 0 0 1 0;
#X connect 0 0 5 0;
#X connect 0 0 7 0;
#X connect 0 0 9 0;
#X connect 0 0 11 0;
#X connect 1 0 2 1;
#X connect 2 0 17 0;
#X connect 3 0 2 0;
#X connect 3 0 4 0;
#X connect 3 0 6 0;
#X connect 3 0 8 0;
#X connect 3 0 10 0;
#X connect 3 1 0 0;
#X connect 4 0 13 0;
#X connect 5 0 4 1;
#X connect 6 0 14 0;
#X connect 7 0 6 1;
#X connect 8 0 15 0;
#X connect 9 0 8 1;
#X connect 10 0 16 0;
#X connect 11 0 10 1;
#X connect 12 0 3 0;
#X connect 13 0 18 0;
#X connect 14 0 18 0;
#X connect 15 0 18 0;
#X connect 16 0 18 0;
#X connect 17 0 18 0;
#X connect 18 0 20 0;
#X connect 19 0 12 0;
#X restore 250 107 pd concat2;
#X msg 579 130 set \$1;
#N canvas 579 238 450 300 concat2 0;
#X obj 198 101 list length;
#X obj 210 170 == 4;
#X obj 100 272 spigot;
#X obj 84 99 t l l;
#X obj 14 191 spigot;
#X obj 58 170 == 1;
#X obj 59 191 spigot;
#X obj 91 168 == 2;
#X obj 140 196 spigot;
#X obj 220 202 == 3;
#X obj 174 248 spigot;
#X obj 308 215 == 5;
#X obj 87 74 list;
#X msg 13 216 \$1;
#X msg 58 216 \$1_\$2;
#X msg 139 221 \$1_\$2_\$3;
#X msg 224 275 \$1_\$2_\$3_\$4_\$5;
#X msg 113 294 \$1_\$2_\$3_\$4;
#X obj 84 327 list;
#X obj 108 24 inlet;
#X obj 81 368 outlet;
#X connect 0 0 1 0;
#X connect 0 0 5 0;
#X connect 0 0 7 0;
#X connect 0 0 9 0;
#X connect 0 0 11 0;
#X connect 1 0 2 1;
#X connect 2 0 17 0;
#X connect 3 0 2 0;
#X connect 3 0 4 0;
#X connect 3 0 6 0;
#X connect 3 0 8 0;
#X connect 3 0 10 0;
#X connect 3 1 0 0;
#X connect 4 0 13 0;
#X connect 5 0 4 1;
#X connect 6 0 14 0;
#X connect 7 0 6 1;
#X connect 8 0 15 0;
#X connect 9 0 8 1;
#X connect 10 0 16 0;
#X connect 11 0 10 1;
#X connect 12 0 3 0;
#X connect 13 0 18 0;
#X connect 14 0 18 0;
#X connect 15 0 18 0;
#X connect 16 0 18 0;
#X connect 17 0 18 0;
#X connect 18 0 20 0;
#X connect 19 0 12 0;
#X restore 575 102 pd concat2;
#X msg 714 134 set \$1;
#N canvas 579 238 450 300 concat2 0;
#X obj 198 101 list length;
#X obj 210 170 == 4;
#X obj 100 272 spigot;
#X obj 84 99 t l l;
#X obj 14 191 spigot;
#X obj 58 170 == 1;
#X obj 59 191 spigot;
#X obj 91 168 == 2;
#X obj 140 196 spigot;
#X obj 220 202 == 3;
#X obj 174 248 spigot;
#X obj 308 215 == 5;
#X obj 87 74 list;
#X msg 13 216 \$1;
#X msg 58 216 \$1_\$2;
#X msg 139 221 \$1_\$2_\$3;
#X msg 224 275 \$1_\$2_\$3_\$4_\$5;
#X msg 113 294 \$1_\$2_\$3_\$4;
#X obj 84 327 list;
#X obj 108 24 inlet;
#X obj 81 368 outlet;
#X connect 0 0 1 0;
#X connect 0 0 5 0;
#X connect 0 0 7 0;
#X connect 0 0 9 0;
#X connect 0 0 11 0;
#X connect 1 0 2 1;
#X connect 2 0 17 0;
#X connect 3 0 2 0;
#X connect 3 0 4 0;
#X connect 3 0 6 0;
#X connect 3 0 8 0;
#X connect 3 0 10 0;
#X connect 3 1 0 0;
#X connect 4 0 13 0;
#X connect 5 0 4 1;
#X connect 6 0 14 0;
#X connect 7 0 6 1;
#X connect 8 0 15 0;
#X connect 9 0 8 1;
#X connect 10 0 16 0;
#X connect 11 0 10 1;
#X connect 12 0 3 0;
#X connect 13 0 18 0;
#X connect 14 0 18 0;
#X connect 15 0 18 0;
#X connect 16 0 18 0;
#X connect 17 0 18 0;
#X connect 18 0 20 0;
#X connect 19 0 12 0;
#X restore 661 110 pd concat2;
#X obj 887 32 r screenLineSeq;
#N canvas 579 238 450 300 concat2 0;
#X obj 198 101 list length;
#X obj 210 170 == 4;
#X obj 100 272 spigot;
#X obj 84 99 t l l;
#X obj 14 191 spigot;
#X obj 58 170 == 1;
#X obj 59 191 spigot;
#X obj 91 168 == 2;
#X obj 140 196 spigot;
#X obj 220 202 == 3;
#X obj 174 248 spigot;
#X obj 308 215 == 5;
#X obj 87 74 list;
#X msg 13 216 \$1;
#X msg 58 216 \$1_\$2;
#X msg 139 221 \$1_\$2_\$3;
#X msg 224 275 \$1_\$2_\$3_\$4_\$5;
#X msg 113 294 \$1_\$2_\$3_\$4;
#X obj 84 327 list;
#X obj 108 24 inlet;
#X obj 81 368 outlet;
#X connect 0 0 1 0;
#X connect 0 0 5 0;
#X connect 0 0 7 0;
#X connect 0 0 9 0;
#X connect 0 0 11 0;
#X connect 1 0 2 1;
#X connect 2 0 17 0;
#X connect 3 0 2 0;
#X connect 3 0 4 0;
#X connect 3 0 6 0;
#X connect 3 0 8 0;
#X connect 3 0 10 0;
#X connect 3 1 0 0;
#X connect 4 0 13 0;
#X connect 5 0 4 1;
#X connect 6 0 14 0;
#X connect 7 0 6 1;
#X connect 8 0 15 0;
#X connect 9 0 8 1;
#X connect 10 0 16 0;
#X connect 11 0 10 1;
#X connect 12 0 3 0;
#X connect 13 0 18 0;
#X connect 14 0 18 0;
#X connect 15 0 18 0;
#X connect 16 0 18 0;
#X connect 17 0 18 0;
#X connect 18 0 20 0;
#X connect 19 0 12 0;
#X restore 890 73 pd concat2;
#X msg 909 137 set \$1;
#X obj 899 187 s printSeq;
#X connect 1 0 15 0;
#X connect 2 0 17 0;
#X connect 3 0 13 0;
#X connect 4 0 21 0;
#X connect 5 0 19 0;
#X connect 10 0 9 0;
#X connect 10 0 8 0;
#X connect 10 0 7 0;
#X connect 10 0 6 0;
#X connect 10 0 0 0;
#X connect 10 0 25 0;
#X connect 11 0 10 0;
#X connect 12 0 7 0;
#X connect 13 0 12 0;
#X connect 14 0 0 0;
#X connect 15 0 14 0;
#X connect 16 0 6 0;
#X connect 17 0 16 0;
#X connect 18 0 9 0;
#X connect 19 0 18 0;
#X connect 20 0 8 0;
#X connect 21 0 20 0;
#X connect 22 0 23 0;
#X connect 23 0 24 0;
#X connect 24 0 25 0;
#X restore 453 264 pd f;
#X msg 511 428 \; pd quit, f 10;
#X obj 475 315 + 1;
#X obj 491 280 float 0;
#X obj 490 349 nbx 5 14 -1e+037 1e+037 0 0 empty empty empty 0 -8 0
10 -262144 -1 -1 0 256;
#X obj 550 240 r quittimer;
#X floatatom 571 288 5 0 0 0 - - -, f 5;
#X obj 571 307 s quitset;
#X obj 551 260 delay 500;
#X obj 551 391 == 4, f 5;
#X obj 499 405 spigot;
#X obj 504 374 t b f;
#N canvas 0 50 1276 691 arrowkeys 0;
#X obj 725 31 keyname, f 8;
#X obj 102 117 sel Up;
#X msg 92 154 1;
#X msg 145 159 0;
#X obj 75 205 spigot;
#X obj 83 251 change;
#X msg 186 152 1;
#X msg 239 157 0;
#X obj 169 203 spigot;
#X obj 177 249 change;
#X msg 283 155 1;
#X msg 336 160 0;
#X obj 266 206 spigot;
#X obj 274 252 change;
#X msg 377 153 1;
#X msg 430 158 0;
#X obj 360 204 spigot;
#X obj 368 250 change;
#X obj 172 312 nbx 5 14 -1e+037 1e+037 0 0 empty empty empty 0 -8 0
10 -262144 -1 -1 0 256;
#X obj 82 312 nbx 5 14 -1e+037 1e+037 0 0 empty empty empty 0 -8 0
10 -262144 -1 -1 0 256;
#X obj 356 323 nbx 5 14 -1e+037 1e+037 0 0 empty empty empty 0 -8 0
10 -262144 -1 -1 0 256;
#X obj 266 323 nbx 5 14 -1e+037 1e+037 0 0 empty empty empty 0 -8 0
10 -262144 -1 -1 0 256;
#X obj 195 115 sel Down;
#X obj 293 118 sel Left;
#X obj 387 117 sel Right;
#X obj 49 360 s uparrow;
#X obj 123 364 s downarrow;
#X obj 245 363 s leftarrow;
#X obj 343 367 s rightarrow;
#X msg 537 168 1;
#X msg 590 173 0;
#X obj 520 219 spigot;
#X obj 528 265 change;
#X obj 516 338 nbx 5 14 -1e+037 1e+037 0 0 empty empty empty 0 -8 0
10 -262144 -1 -1 0 256;
#X obj 534 112 sel Prior;
#X msg 719 178 1;
#X msg 772 183 0;
#X obj 702 229 spigot;
#X obj 710 275 change;
#X obj 698 348 nbx 5 14 -1e+037 1e+037 0 0 empty empty empty 0 -8 0
10 -262144 -1 -1 0 256;
#X obj 716 122 sel Next;
#X obj 519 362 s pageup;
#X obj 691 393 s pagedown;
#X msg 855 190 1;
#X msg 908 195 0;
#X obj 838 241 spigot;
#X obj 846 287 change;
#X obj 834 360 nbx 5 14 -1e+037 1e+037 0 0 empty empty empty 0 -8 0
10 -262144 -1 -1 0 256;
#X msg 985 189 1;
#X msg 1038 194 0;
#X obj 968 240 spigot;
#X obj 976 286 change;
#X obj 964 359 nbx 5 14 -1e+037 1e+037 0 0 empty empty empty 0 -8 0
10 -262144 -1 -1 0 256;
#X obj 852 134 sel Home;
#X obj 982 131 sel End;
#X obj 827 405 s home;
#X obj 957 404 s end;
#X connect 0 0 4 0;
#X connect 0 0 8 0;
#X connect 0 0 12 0;
#X connect 0 0 16 0;
#X connect 0 0 31 0;
#X connect 0 0 37 0;
#X connect 0 0 45 0;
#X connect 0 0 50 0;
#X connect 0 1 1 0;
#X connect 0 1 22 0;
#X connect 0 1 23 0;
#X connect 0 1 24 0;
#X connect 0 1 34 0;
#X connect 0 1 40 0;
#X connect 0 1 53 0;
#X connect 0 1 54 0;
#X connect 1 0 2 0;
#X connect 1 1 3 0;
#X connect 2 0 4 1;
#X connect 3 0 4 1;
#X connect 4 0 5 0;
#X connect 5 0 19 0;
#X connect 6 0 8 1;
#X connect 7 0 8 1;
#X connect 8 0 9 0;
#X connect 9 0 18 0;
#X connect 10 0 12 1;
#X connect 11 0 12 1;
#X connect 12 0 13 0;
#X connect 13 0 21 0;
#X connect 14 0 16 1;
#X connect 15 0 16 1;
#X connect 16 0 17 0;
#X connect 17 0 20 0;
#X connect 18 0 26 0;
#X connect 19 0 25 0;
#X connect 20 0 28 0;
#X connect 21 0 27 0;
#X connect 22 0 6 0;
#X connect 22 1 7 0;
#X connect 23 0 10 0;
#X connect 23 1 11 0;
#X connect 24 0 14 0;
#X connect 24 1 15 0;
#X connect 29 0 31 1;
#X connect 30 0 31 1;
#X connect 31 0 32 0;
#X connect 32 0 33 0;
#X connect 33 0 41 0;
#X connect 34 0 29 0;
#X connect 34 1 30 0;
#X connect 35 0 37 1;
#X connect 36 0 37 1;
#X connect 37 0 38 0;
#X connect 38 0 39 0;
#X connect 39 0 42 0;
#X connect 40 0 35 0;
#X connect 40 1 36 0;
#X connect 43 0 45 1;
#X connect 44 0 45 1;
#X connect 45 0 46 0;
#X connect 46 0 47 0;
#X connect 47 0 55 0;
#X connect 48 0 50 1;
#X connect 49 0 50 1;
#X connect 50 0 51 0;
#X connect 51 0 52 0;
#X connect 52 0 56 0;
#X connect 53 0 43 0;
#X connect 53 1 44 0;
#X connect 54 0 48 0;
#X connect 54 1 49 0;
#X restore 347 213 pd arrowkeys;
#N canvas 0 50 1276 714 arrowparam 0;
#X obj 447 44 r leftarrow;
#X obj 540 47 r rightarrow;
#X floatatom 567 79 5 0 0 0 - - -, f 5;
#X obj 457 137 float;
#X obj 507 235 % 6;
#X obj 421 89 sel 1;
#X obj 470 164 - 1;
#X obj 500 202 + 6;
#X obj 563 148 float;
#X obj 563 173 + 1;
#X obj 477 92 sel 1;
#X obj 601 126 s sel_param;
#X obj 668 81 r sel_param;
#X obj 682 116 == 0;
#X obj 680 143 tgl 15 0 empty empty empty 17 7 0 10 -262144 -1 -1 0
1;
#X obj 748 143 tgl 15 0 empty empty empty 17 7 0 10 -262144 -1 -1 0
1;
#X obj 749 117 == 1;
#X obj 784 143 tgl 15 0 empty empty empty 17 7 0 10 -262144 -1 -1 0
1;
#X obj 824 144 tgl 15 0 empty empty empty 17 7 0 10 -262144 -1 -1 0
1;
#X obj 866 146 tgl 15 0 empty empty empty 17 7 0 10 -262144 -1 -1 0
1;
#X obj 906 147 tgl 15 0 empty empty empty 17 7 0 10 -262144 -1 -1 0
1;
#X obj 786 117 == 2;
#X obj 825 118 == 3;
#X obj 174 341 r sel_param;
#X obj 176 371 == 0;
#X obj 174 398 tgl 15 0 empty empty empty 17 7 0 10 -262144 -1 -1 0
1;
#X floatatom 156 458 5 0 0 0 - - -, f 5;
#X obj 128 585 s knob1;
#X obj 976 55 r uparrow;
#X obj 1131 59 r downarrow;
#X obj 957 81 sel 1;
#X obj 1134 84 sel 1;
#X obj 113 476 +;
#X obj 110 503 max 0;
#X obj 117 526 min 1;
#X obj 110 428 *;
#X msg 1053 116 stop;
#X obj 977 116 delay 500;
#X obj 1009 85 sel 0;
#X msg 1200 121 stop;
#X obj 1139 113 delay 500;
#X obj 1189 86 sel 0;
#X obj 1018 154 metro 25;
#X obj 1161 145 metro 25;
#X obj 67 379 r paramchange;
#X obj 1048 232 s paramchange;
#X obj 380 368 r sel_param;
#X obj 380 425 tgl 15 0 empty empty empty 17 7 0 10 -262144 -1 -1 0
1;
#X floatatom 362 485 5 0 0 0 - - -, f 5;
#X obj 319 503 +;
#X obj 316 530 max 0;
#X obj 323 553 min 1;
#X obj 316 455 *;
#X obj 273 406 r paramchange;
#X obj 559 372 r sel_param;
#X obj 559 429 tgl 15 0 empty empty empty 17 7 0 10 -262144 -1 -1 0
1;
#X floatatom 541 489 5 0 0 0 - - -, f 5;
#X obj 498 507 +;
#X obj 495 534 max 0;
#X obj 502 557 min 1;
#X obj 495 459 *;
#X obj 452 410 r paramchange;
#X obj 781 375 r sel_param;
#X obj 781 432 tgl 15 0 empty empty empty 17 7 0 10 -262144 -1 -1 0
1;
#X floatatom 763 492 5 0 0 0 - - -, f 5;
#X obj 720 510 +;
#X obj 717 537 max 0;
#X obj 724 560 min 1;
#X obj 717 462 *;
#X obj 674 413 r paramchange;
#X obj 987 402 r sel_param;
#X obj 987 459 tgl 15 0 empty empty empty 17 7 0 10 -262144 -1 -1 0
1;
#X floatatom 969 519 5 0 0 0 - - -, f 5;
#X obj 926 537 +;
#X obj 923 564 max 0;
#X obj 930 587 min 1;
#X obj 923 489 *;
#X obj 880 440 r paramchange;
#X obj 1166 406 r sel_param;
#X obj 1166 463 tgl 15 0 empty empty empty 17 7 0 10 -262144 -1 -1
0 1;
#X floatatom 1148 523 5 0 0 0 - - -, f 5;
#X obj 1105 541 +;
#X obj 1102 568 max 0;
#X obj 1109 591 min 1;
#X obj 1102 493 *;
#X obj 1059 444 r paramchange;
#X obj 382 398 == 1;
#X obj 561 402 == 2;
#X obj 783 405 == 3;
#X obj 159 429 r knob1;
#X obj 365 456 r knob2;
#X obj 544 460 r knob3;
#X obj 766 463 r knob4;
#X obj 972 490 r exp;
#X obj 1151 494 r vol;
#X obj 325 580 s knob2;
#X obj 503 584 s knob3;
#X obj 722 601 s knob4;
#X obj 932 614 s exp;
#X obj 1103 620 s vol;
#X obj 651 236 s knob2_sel;
#X obj 799 249 s knob4_sel;
#X obj 711 270 s knob3_sel;
#X obj 925 234 s vol_sel;
#X obj 869 261 s exp_sel;
#X obj 553 294 s knob1_sel;
#X obj 989 432 == 5;
#X obj 1168 436 == 4;
#X obj 867 120 == 5;
#X obj 908 121 == 4;
#X obj 71 292 s knob1;
#X obj 129 293 s knob2;
#X obj 187 294 s knob3;
#X obj 253 295 s knob4;
#X obj 314 294 s exp;
#X obj 369 296 s vol;
#X obj 189 208 loadbang;
#X msg 114 242 0.5;
#X msg 114 242;
#X msg 277 241 0.8;
#X msg 231 251 0.5;
#X msg 1016 192 0.0078125;
#X msg 1124 186 -0.0078125;
#X connect 0 0 5 0;
#X connect 1 0 10 0;
#X connect 2 0 3 1;
#X connect 2 0 8 1;
#X connect 2 0 11 0;
#X connect 3 0 6 0;
#X connect 4 0 2 0;
#X connect 5 0 3 0;
#X connect 6 0 7 0;
#X connect 7 0 4 0;
#X connect 8 0 9 0;
#X connect 9 0 7 0;
#X connect 10 0 8 0;
#X connect 12 0 13 0;
#X connect 12 0 16 0;
#X connect 12 0 21 0;
#X connect 12 0 22 0;
#X connect 12 0 108 0;
#X connect 12 0 109 0;
#X connect 13 0 14 0;
#X connect 14 0 105 0;
#X connect 15 0 100 0;
#X connect 16 0 15 0;
#X connect 17 0 102 0;
#X connect 18 0 101 0;
#X connect 19 0 104 0;
#X connect 20 0 103 0;
#X connect 21 0 17 0;
#X connect 22 0 18 0;
#X connect 23 0 24 0;
#X connect 24 0 25 0;
#X connect 25 0 35 1;
#X connect 26 0 32 1;
#X connect 28 0 30 0;
#X connect 28 0 38 0;
#X connect 29 0 31 0;
#X connect 29 0 41 0;
#X connect 30 0 121 0;
#X connect 30 0 37 0;
#X connect 31 0 40 0;
#X connect 31 0 122 0;
#X connect 32 0 33 0;
#X connect 33 0 34 0;
#X connect 34 0 27 0;
#X connect 35 0 32 0;
#X connect 36 0 42 0;
#X connect 36 0 37 0;
#X connect 37 0 42 0;
#X connect 38 0 36 0;
#X connect 39 0 43 0;
#X connect 39 0 40 0;
#X connect 40 0 43 0;
#X connect 41 0 39 0;
#X connect 42 0 121 0;
#X connect 43 0 122 0;
#X connect 44 0 35 0;
#X connect 46 0 86 0;
#X connect 47 0 52 1;
#X connect 48 0 49 1;
#X connect 49 0 50 0;
#X connect 50 0 51 0;
#X connect 51 0 95 0;
#X connect 52 0 49 0;
#X connect 53 0 52 0;
#X connect 54 0 87 0;
#X connect 55 0 60 1;
#X connect 56 0 57 1;
#X connect 57 0 58 0;
#X connect 58 0 59 0;
#X connect 59 0 96 0;
#X connect 60 0 57 0;
#X connect 61 0 60 0;
#X connect 62 0 88 0;
#X connect 63 0 68 1;
#X connect 64 0 65 1;
#X connect 65 0 66 0;
#X connect 66 0 67 0;
#X connect 67 0 97 0;
#X connect 68 0 65 0;
#X connect 69 0 68 0;
#X connect 70 0 106 0;
#X connect 71 0 76 1;
#X connect 72 0 73 1;
#X connect 73 0 74 0;
#X connect 74 0 75 0;
#X connect 75 0 98 0;
#X connect 76 0 73 0;
#X connect 77 0 76 0;
#X connect 78 0 107 0;
#X connect 79 0 84 1;
#X connect 80 0 81 1;
#X connect 81 0 82 0;
#X connect 82 0 83 0;
#X connect 83 0 99 0;
#X connect 84 0 81 0;
#X connect 85 0 84 0;
#X connect 86 0 47 0;
#X connect 87 0 55 0;
#X connect 88 0 63 0;
#X connect 89 0 26 0;
#X connect 90 0 48 0;
#X connect 91 0 56 0;
#X connect 92 0 64 0;
#X connect 93 0 72 0;
#X connect 94 0 80 0;
#X connect 106 0 71 0;
#X connect 107 0 79 0;
#X connect 108 0 19 0;
#X connect 109 0 20 0;
#X connect 116 0 119 0;
#X connect 116 0 120 0;
#X connect 116 0 117 0;
#X connect 117 0 110 0;
#X connect 117 0 111 0;
#X connect 117 0 112 0;
#X connect 117 0 113 0;
#X connect 119 0 115 0;
#X connect 120 0 114 0;
#X connect 121 0 45 0;
#X connect 122 0 45 0;
#X restore 364 267 pd arrowparam;
#X obj 250 275 delay 250;
#X obj 290 296 s send-all-vals;
#X obj 345 530 r encup;
#X obj 286 527 r encdown;
#X msg 383 566 1;
#X obj 331 602 s enc;
#X msg 212 575 0;
#X obj 410 541 r encbut_bang;
#X msg 437 585 1;
#X obj 493 575 bng 15 250 50 0 empty empty empty 17 7 0 10 -262144
-1 -1;
#X obj 473 606 s encbut;
#X obj 62 474 r encup_mother;
#X obj 63 518 t b b;
#X obj 108 537 t b b;
#X obj 110 509 r encdown_mother;
#X obj 124 562 s encdown;
#X obj 62 559 s encup;
#X obj 399 606 bng 15 250 50 0 empty empty empty 17 7 0 10 -262144
-1 -1;
#X obj 323 564 bng 15 250 50 0 empty empty empty 17 7 0 10 -262144
-1 -1;
#X obj 333 571 bng 15 250 50 0 empty empty empty 17 7 0 10 -262144
-1 -1;
#X obj 23 598 s encbut_bang;
#X obj 585 508 keyname;
#X obj 256 435 r home;
#X obj 383 466 r end;
#X obj 217 453 sel 1;
#X obj 216 480 sel 1;
#X obj 402 98 list;
#X obj 156 14 loadbang;
#X obj 148 73 s send-all-vals;
#X obj 245 25 bng 15 250 50 0 empty empty empty 17 7 0 10 -262144 -1
-1;
#X obj 186 48 metro 2000;
#X obj 19 164 s knob1_bang;
#X obj 282 130 r knob1;
#X obj 259 160 f 0;
#X obj 345 160 f 0;
#X obj 410 162 f 0;
#X obj 496 162 f 0;
#X obj 254 189 s knob1;
#X obj 340 187 s knob2;
#X obj 404 188 s knob3;
#X obj 489 189 s knob4;
#X obj 368 130 r knob2;
#X obj 433 132 r knob3;
#X obj 519 132 r knob4;
#X connect 0 0 1 0;
#X connect 0 0 2 0;
#X connect 0 0 3 0;
#X connect 0 0 4 0;
#X connect 0 0 70 0;
#X connect 5 0 65 0;
#X connect 6 0 65 0;
#X connect 7 0 65 0;
#X connect 8 0 65 0;
#X connect 9 0 65 0;
#X connect 10 0 20 0;
#X connect 12 0 13 0;
#X connect 12 1 14 0;
#X connect 12 2 15 0;
#X connect 12 3 16 0;
#X connect 12 4 17 0;
#X connect 12 5 18 0;
#X connect 12 6 19 0;
#X connect 12 7 21 0;
#X connect 13 0 11 0;
#X connect 14 0 11 0;
#X connect 15 0 11 0;
#X connect 16 0 11 0;
#X connect 17 0 11 0;
#X connect 18 0 11 0;
#X connect 19 0 11 0;
#X connect 20 0 12 0;
#X connect 21 0 11 0;
#X connect 22 0 23 0;
#X connect 22 0 39 0;
#X connect 23 0 12 0;
#X connect 24 0 70 0;
#X connect 27 0 28 1;
#X connect 27 0 29 0;
#X connect 28 0 27 0;
#X connect 29 0 36 0;
#X connect 30 0 33 0;
#X connect 30 0 28 0;
#X connect 31 0 32 0;
#X connect 31 0 28 1;
#X connect 33 0 31 0;
#X connect 34 0 35 1;
#X connect 35 0 26 0;
#X connect 36 0 35 0;
#X connect 36 1 34 0;
#X connect 39 0 40 0;
#X connect 41 0 43 0;
#X connect 41 0 57 0;
#X connect 42 0 45 0;
#X connect 43 0 44 0;
#X connect 45 0 44 0;
#X connect 46 0 47 0;
#X connect 46 0 48 0;
#X connect 46 0 56 0;
#X connect 47 0 49 0;
#X connect 50 0 51 0;
#X connect 51 0 59 0;
#X connect 51 1 55 0;
#X connect 52 0 59 0;
#X connect 52 1 54 0;
#X connect 53 0 52 0;
#X connect 61 0 63 0;
#X connect 62 0 64 0;
#X connect 63 0 52 0;
#X connect 64 0 51 0;
#X connect 66 0 69 0;
#X connect 68 0 69 0;
#X connect 69 0 72 0;
#X connect 69 0 73 0;
#X connect 69 0 74 0;
#X connect 69 0 75 0;
#X connect 71 0 72 1;
#X connect 72 0 76 0;
#X connect 73 0 77 0;
#X connect 74 0 78 0;
#X connect 75 0 79 0;
#X connect 80 0 73 1;
#X connect 81 0 74 1;
#X connect 82 0 75 1;
#X restore 475 112 pd desktop-stuff;
#X obj 7 130 cnv 15 15 15 empty led-canvas empty 20 12 0 14 -1 -262144
0;
#X text 154 1 volume;
#X text 227 42 resend;
#X symbolatom 282 42 24 0 0 0 - print3 -, f 24;
#X symbolatom 282 9 24 0 0 0 - print1 -, f 24;
#X symbolatom 282 26 24 0 0 0 - print2 -, f 24;
#X symbolatom 282 79 24 0 0 0 - print5 -, f 24;
#X symbolatom 282 59 24 0 0 0 - print4 -, f 24;
#X text 232 111 foot;
#X obj 412 165 bng 15 250 50 0 quittimer empty QUIT 17 7 0 10 -262144
-1 -1;
#N canvas -8 -8 1366 725 keyboard-keys 0;
#X obj 171 449 s key1;
#X text 169 388 z;
#X text 295 387 x;
#X text 138 104 q;
#X text 201 4 2;
#X text 260 103 w;
#X text 334 3 3;
#X text 508 101 r;
#X text 381 102 e;
#X text 632 101 t;
#X text 758 100 y;
#X text 881 100 u;
#X text 829 2 7;
#X text 706 2 6;
#X text 583 2 5;
#X text 220 252 s;
#X text 343 252 d;
#X text 592 251 g;
#X text 715 251 h;
#X text 840 251 j;
#X text 416 386 c;
#X text 542 385 v;
#X text 667 385 b;
#X text 793 383 n;
#X text 916 384 m;
#X obj 214 321 s key2;
#X obj 297 448 s key3;
#X obj 338 321 s key4;
#X obj 418 447 s key5;
#X obj 544 446 s key6;
#X obj 586 320 s key7;
#X obj 669 446 s key8;
#X obj 709 320 s key9;
#X obj 795 445 s key10;
#X obj 832 320 s key11;
#X obj 919 445 s key12;
#X obj 142 184 s key13;
#X obj 264 183 s key15;
#X obj 327 59 s key16;
#X obj 386 182 s key17;
#X obj 513 181 s key18;
#X obj 573 60 s key19;
#X obj 636 181 s key20;
#X obj 696 61 s key21;
#X obj 763 180 s key22;
#X obj 819 61 s key23;
#X obj 885 180 s key24;
#X text 12 198 1;
#X obj 46 239 key;
#X obj 115 241 keyup;
#X obj 36 279 sel 49;
#X obj 117 282 sel 49;
#X obj 31 315 t b b;
#X msg 23 383 1;
#X obj 53 457 change;
#X msg 69 343 stop;
#X msg 104 416 0;
#X obj 109 384 delay 250;
#X obj 61 491 s aux;
#X obj 999 364 s key13;
#X obj 1034 243 s key14;
#X obj 1081 364 s key15;
#X obj 1127 243 s key16;
#X obj 1175 367 s key17;
#X text 989 366 \,;
#X text 1077 284 .;
#X text 1170 287 /;
#X text 1045 186 l;
#X text 1137 184 \;;
#N canvas 262 51 783 535 morekeys 0;
#X obj 147 195 s key25;
#X obj 191 63 s key26;
#X obj 269 194 s key27;
#X obj 324 62 s key28;
#X obj 391 193 s key29;
#X obj 517 192 s key30;
#X obj 573 60 s key31;
#X obj 641 192 s key32;
#X text 143 114 i;
#X text 265 114 o;
#X text 386 113 p;
#X text 513 112 [;
#X text 637 113 ];
#X text 201 4 9;
#X text 334 3 0;
#X text 582 2 =;
#X obj 179 32 keyfilter2 57 85;
#X obj 320 33 keyfilter2 48 87;
#X obj 564 31 keyfilter2 61 90;
#X obj 124 152 keyfilter2 105 84;
#X obj 257 151 keyfilter2 111 86;
#X obj 383 151 keyfilter2 112 88;
#X obj 499 151 keyfilter2 91 89;
#X obj 632 152 keyfilter2 93 91;
#X connect 16 0 1 0;
#X connect 17 0 3 0;
#X connect 18 0 6 0;
#X connect 19 0 0 0;
#X connect 20 0 2 0;
#X connect 21 0 4 0;
#X connect 22 0 5 0;
#X connect 23 0 7 0;
#X restore 1006 118 pd morekeys;
#X text 991 93 extended keys i-];
#X obj 179 26 keyfilter2 50 73;
#X obj 182 57 s key14;
#X obj 320 33 keyfilter2 51 75;
#X obj 564 32 keyfilter2 53 78;
#X obj 686 34 keyfilter2 54 80;
#X obj 789 32 keyfilter2 55 82;
#X obj 119 140 keyfilter2 113 72;
#X obj 252 140 keyfilter2 119 74;
#X obj 379 140 keyfilter2 101 76;
#X obj 493 139 keyfilter2 114 77;
#X obj 627 141 keyfilter2 116 79;
#X obj 746 139 keyfilter2 121 81;
#X obj 866 140 keyfilter2 117 83;
#X obj 195 289 keyfilter2 115 61;
#X obj 336 290 keyfilter2 100 63;
#X obj 580 289 keyfilter2 103 66;
#X obj 702 291 keyfilter2 104 68;
#X obj 825 294 keyfilter2 106 70;
#X obj 1022 212 keyfilter2 108 73;
#X obj 1144 213 keyfilter2 59 75;
#X obj 976 320 keyfilter2 44 72;
#X obj 1066 340 keyfilter2 46 74;
#X obj 1168 324 keyfilter2 47 76;
#X obj 169 422 keyfilter2 122 60;
#X obj 303 420 keyfilter2 120 62;
#X obj 430 420 keyfilter2 99 64;
#X obj 544 420 keyfilter2 118 65;
#X obj 678 421 keyfilter2 98 67;
#X obj 797 419 keyfilter2 110 69;
#X obj 917 420 keyfilter2 109 71;
#X obj 1034 414 r pageup;
#X obj 1086 414 r pagedown;
#X obj 1111 502 float;
#X obj 1005 497 float;
#X obj 1020 539 + 1;
#X obj 1083 540 - 1;
#X floatatom 1028 580 5 0 0 0 - - -, f 5;
#X obj 1106 474 sel 1;
#X obj 1095 453 change;
#X obj 1036 474 sel 1;
#X obj 1048 454 change;
#X obj 1016 610 * 12;
#X obj 1015 629 s octave;
#X obj 1142 606 s octave_disp_in;
#X obj 1153 530 r octave_disp_out;
#X connect 48 0 50 0;
#X connect 49 0 51 0;
#X connect 50 0 52 0;
#X connect 51 0 57 0;
#X connect 52 0 53 0;
#X connect 52 1 55 0;
#X connect 53 0 54 0;
#X connect 54 0 58 0;
#X connect 55 0 57 0;
#X connect 56 0 54 0;
#X connect 57 0 56 0;
#X connect 71 0 72 0;
#X connect 73 0 38 0;
#X connect 74 0 41 0;
#X connect 75 0 43 0;
#X connect 76 0 45 0;
#X connect 77 0 36 0;
#X connect 78 0 37 0;
#X connect 79 0 39 0;
#X connect 80 0 40 0;
#X connect 81 0 42 0;
#X connect 82 0 44 0;
#X connect 83 0 46 0;
#X connect 84 0 25 0;
#X connect 85 0 27 0;
#X connect 86 0 30 0;
#X connect 87 0 32 0;
#X connect 88 0 34 0;
#X connect 89 0 60 0;
#X connect 90 0 62 0;
#X connect 91 0 59 0;
#X connect 92 0 61 0;
#X connect 93 0 63 0;
#X connect 94 0 0 0;
#X connect 95 0 26 0;
#X connect 96 0 28 0;
#X connect 97 0 29 0;
#X connect 98 0 31 0;
#X connect 99 0 33 0;
#X connect 100 0 35 0;
#X connect 101 0 111 0;
#X connect 102 0 109 0;
#X connect 103 0 106 0;
#X connect 104 0 105 0;
#X connect 105 0 104 1;
#X connect 105 0 103 1;
#X connect 105 0 107 0;
#X connect 106 0 103 1;
#X connect 106 0 104 1;
#X connect 106 0 107 0;
#X connect 107 0 112 0;
#X connect 107 0 114 0;
#X connect 108 0 103 0;
#X connect 109 0 108 0;
#X connect 110 0 104 0;
#X connect 111 0 110 0;
#X connect 112 0 113 0;
#X connect 115 0 103 1;
#X connect 115 0 104 1;
#X connect 115 0 112 0;
#X restore 475 90 pd keyboard-keys;
#X text 203 1 exp;
#X obj 85 125 tgl 10 0 empty knob2_sel empty 17 7 0 10 -262144 -1 -1
0 1;
#X obj 58 125 tgl 10 0 empty knob1_sel empty 17 7 0 10 -262144 -1 -1
0 1;
#X obj 139 125 tgl 10 0 empty knob4_sel empty 17 7 0 10 -262144 -1
-1 0 1;
#X obj 113 125 tgl 10 0 empty knob3_sel empty 17 7 0 10 -262144 -1
-1 0 1;
#X obj 208 125 tgl 10 0 empty exp_sel empty 17 7 0 10 -262144 -1 -1
0 1;
#X obj 167 125 tgl 10 0 empty vol_sel empty 17 7 0 10 -262144 -1 -1
0 1;
#N canvas 0 50 450 250 (subpatch) 0;
#X array scope 1000 float 0;
#X coords 0 -0.3 1000 0.3 200 100 1 0 0;
#X restore 463 188 graph;
#X obj 564 169 bng 15 250 50 0 scope_stop empty stop 17 7 0 10 -262144
-1 -1;
#X floatatom 375 140 5 0 0 3 Octave octave_disp_in octave_disp_out
, f 5;
#X obj 516 169 bng 15 250 50 0 scope_start empty start 17 7 0 10 -262144
-1 -1;
#X obj 9 50 bng 15 250 50 0 encdown_mother empty empty 17 7 0 10 -262144
-1 -1;
#X obj 8 72 bng 15 250 50 0 encup_mother empty empty 17 7 0 10 -262144
-1 -1;
#X text 3 96 2.1 enc;
#X text 460 137 record;
#X obj 585 137 bng 15 250 50 0 record_off empty stop 17 7 0 10 -262144
-1 -1;
#X obj 517 139 bng 15 250 50 0 record_on empty start 17 7 0 10 -262144
-1 -1;
#X obj 489 14 bng 15 250 50 0 quitting empty quitting 17 7 0 10 -262144
-1 -1;
#X obj 246 353 r notes;
#X obj 280 401 outlet;
#X connect 67 0 68 0;
