#N canvas 0 50 1362 691 10;
#X obj 61 25 key;
#X obj 116 25 keyup;
#X obj 70 136 change;
#X msg 65 97 1;
#X msg 120 96 0;
#X obj 69 296 outlet;
#X obj 61 62 sel \$1;
#X obj 127 63 sel \$1;
#X obj 100 206 \$2;
#X obj 217 54 bng 15 250 50 0 empty empty empty 17 7 0 10 -262144 -1
-1;
#X msg 128 319 \$1 100;
#X msg 179 319 \$1 0;
#X obj 106 178 sel 1 0;
#X obj 220 197 r octave;
#X obj 116 264 +;
#X obj 194 449 s keybd_notes;
#X obj 186 280 float;
#X obj 179 383 spigot 1;
#X obj 343 169 r edit_mode;
#X connect 0 0 6 0;
#X connect 1 0 7 0;
#X connect 2 0 5 0;
#X connect 2 0 12 0;
#X connect 3 0 2 0;
#X connect 4 0 2 0;
#X connect 6 0 3 0;
#X connect 7 0 4 0;
#X connect 8 0 14 0;
#X connect 10 0 17 0;
#X connect 11 0 17 0;
#X connect 12 0 8 0;
#X connect 12 1 16 0;
#X connect 13 0 14 1;
#X connect 14 0 10 0;
#X connect 14 0 16 1;
#X connect 16 0 11 0;
#X connect 17 0 15 0;
#X connect 18 0 17 1;
